                                                                        S      1
,,8Hjoint v2,8Hjoint v2,7Hunknown,7Hunknown,32,38,7,99,15,,1.,2,2HMM,1, G      1
0.08,15H20220618.230900,0.01,10000.,7Hunknown,7Hunknown,11,0,15H20220306G      2
.105942;                                                                G      3
     186       1                                                00000000D      1
     186            -183       1       0                               0D      2
     514       2                                                00010000D      3
     514                       2       1                               0D      4
     510       4                                                00010000D      5
     510            -183       1       1                               0D      6
     510       5                                                00010000D      7
     510            -183       1       1                               0D      8
     510       6                                                00010000D      9
     510            -183       1       1                               0D     10
     510       7                                                00010000D     11
     510            -183       1       1                               0D     12
     510       8                                                00010000D     13
     510            -183       1       1                               0D     14
     510       9                                                00010000D     15
     510            -183       1       1                               0D     16
     510      10                                                00010000D     17
     510            -183       1       1                               0D     18
     510      11                                                00010000D     19
     510            -183       1       1                               0D     20
     510      12                                                00010000D     21
     510            -183       1       1                               0D     22
     510      13                                                00010000D     23
     510            -183       1       1                               0D     24
     510      14                                                00010000D     25
     510            -183       1       1                               0D     26
     510      15                                                00010000D     27
     510            -183       1       1                               0D     28
     510      16                                                00010000D     29
     510            -183       1       1                               0D     30
     510      17                                                00010000D     31
     510            -183       1       1                               0D     32
     510      18                                                00010000D     33
     510            -183       1       1                               0D     34
     510      19                                                00010000D     35
     510            -183       1       1                               0D     36
     508      20                                                00010000D     37
     508                       1       1                               0D     38
     508      21                                                00010000D     39
     508                       1       1                               0D     40
     508      22                                                00010000D     41
     508                       1       1                               0D     42
     508      23                                                00010000D     43
     508                       1       1                               0D     44
     508      24                                                00010000D     45
     508                       1       1                               0D     46
     508      25                                                00010000D     47
     508                       1       1                               0D     48
     508      26                                                00010000D     49
     508                       1       1                               0D     50
     508      27                                                00010000D     51
     508                       1       1                               0D     52
     508      28                                                00010000D     53
     508                       1       1                               0D     54
     508      29                                                00010000D     55
     508                       1       1                               0D     56
     508      30                                                00010000D     57
     508                       1       1                               0D     58
     508      31                                                00010000D     59
     508                       1       1                               0D     60
     508      32                                                00010000D     61
     508                       1       1                               0D     62
     508      33                                                00010000D     63
     508                       1       1                               0D     64
     508      34                                                00010000D     65
     508                       1       1                               0D     66
     508      35                                                00010000D     67
     508                       1       1                               0D     68
     508      36                                                00010000D     69
     508                       1       1                               0D     70
     508      37                                                00010000D     71
     508                       1       1                               0D     72
     508      38                                                00010000D     73
     508                       1       1                               0D     74
     508      39                                                00010000D     75
     508                       1       1                               0D     76
     126      40                                                00010000D     77
     126       0               4       0                               0D     78
     126      44                                                00010000D     79
     126       0               7       0                               0D     80
     126      51                                                00010000D     81
     126       0               3       0                               0D     82
     126      54                                                00010000D     83
     126       0               6       0                               0D     84
     126      60                                                00010000D     85
     126       0               3       0                               0D     86
     126      63                                                00010000D     87
     126       0               2       0                               0D     88
     126      65                                                00010000D     89
     126       0               2       0                               0D     90
     126      67                                                00010000D     91
     126       0               3       0                               0D     92
     126      70                                                00010000D     93
     126       0               6       0                               0D     94
     126      76                                                00010000D     95
     126       0               5       0                               0D     96
     126      81                                                00010000D     97
     126       0               3       0                               0D     98
     126      84                                                00010000D     99
     126       0               2       0                               0D    100
     126      86                                                00010000D    101
     126       0               2       0                               0D    102
     126      88                                                00010000D    103
     126       0               4       0                               0D    104
     126      92                                                00010000D    105
     126       0               7       0                               0D    106
     126      99                                                00010000D    107
     126       0               7       0                               0D    108
     126     106                                                00010000D    109
     126       0               4       0                               0D    110
     126     110                                                00010000D    111
     126       0               2       0                               0D    112
     126     112                                                00010000D    113
     126       0               3       0                               0D    114
     126     115                                                00010000D    115
     126       0               4       0                               0D    116
     126     119                                                00010000D    117
     126       0               6       0                               0D    118
     126     125                                                00010000D    119
     126       0               8       0                               0D    120
     126     133                                                00010000D    121
     126       0               3       0                               0D    122
     126     136                                                00010000D    123
     126       0               2       0                               0D    124
     126     138                                                00010000D    125
     126       0               2       0                               0D    126
     126     140                                                00010000D    127
     126       0               3       0                               0D    128
     126     143                                                00010000D    129
     126       0               8       0                               0D    130
     126     151                                                00010000D    131
     126       0               2       0                               0D    132
     126     153                                                00010000D    133
     126       0              10       0                               0D    134
     126     163                                                00010000D    135
     126       0               2       0                               0D    136
     126     165                                                00010000D    137
     126       0              10       0                               0D    138
     126     175                                                00010000D    139
     126       0               3       0                               0D    140
     126     178                                                00010000D    141
     126       0               8       0                               0D    142
     126     186                                                00010000D    143
     126       0               3       0                               0D    144
     128     189                                                00010000D    145
     128       0    -183      12       0                               0D    146
     128     201                                                00010000D    147
     128       0    -183       6       0                               0D    148
     128     207                                                00010000D    149
     128       0    -183      13       0                               0D    150
     128     220                                                00010000D    151
     128       0    -183       6       0                               0D    152
     128     226                                                00010000D    153
     128       0    -183      14       0                               0D    154
     128     240                                                00010000D    155
     128       0    -183       7       0                               0D    156
     128     247                                                00010000D    157
     128       0    -183      17       0                               0D    158
     128     264                                                00010000D    159
     128       0    -183       7       0                               0D    160
     128     271                                                00010000D    161
     128       0    -183      11       0                               0D    162
     128     282                                                00010000D    163
     128       0    -183       4       0                               0D    164
     128     286                                                00010000D    165
     128       0    -183       3       0                               0D    166
     128     289                                                00010000D    167
     128       0    -183      12       0                               0D    168
     128     301                                                00010000D    169
     128       0    -183      11       0                               0D    170
     128     312                                                00010000D    171
     128       0    -183       4       0                               0D    172
     128     316                                                00010000D    173
     128       0    -183      13       0                               0D    174
     128     329                                                00010000D    175
     128       0    -183       4       0                               0D    176
     502     333                                                00010000D    177
     502                       7       1                               0D    178
     504     340                                                00010001D    179
     504                      10       1                               0D    180
     406     350                                                00000000D    181
     406                       1      15                               0D    182
     314     351                                                00000200D    183
     314                       2       0                               0D    184
186,3,1,0,0,1,181;                                                     1P      1
514,16,5,1,7,1,9,1,11,1,13,1,15,1,17,1,19,1,21,1,23,1,25,1,27,1,       3P      2
29,1,31,1,33,1,35,1;                                                   3P      3
510,145,1,1,37;                                                        5P      4
510,147,1,1,39;                                                        7P      5
510,149,1,1,41;                                                        9P      6
510,151,1,1,43;                                                       11P      7
510,153,1,1,45;                                                       13P      8
510,155,1,1,47;                                                       15P      9
510,157,1,1,49;                                                       17P     10
510,159,1,1,51;                                                       19P     11
510,161,1,1,53;                                                       21P     12
510,163,2,1,55,57;                                                    23P     13
510,165,2,1,59,61;                                                    25P     14
510,167,1,1,63;                                                       27P     15
510,169,1,1,65;                                                       29P     16
510,171,2,1,67,69;                                                    31P     17
510,173,1,1,71;                                                       33P     18
510,175,2,1,73,75;                                                    35P     19
508,4,0,179,1,1,0,0,179,2,1,0,0,179,3,1,0,0,179,4,1,0;                37P     20
508,4,0,179,5,1,0,0,179,6,1,0,0,179,3,0,0,0,179,7,1,0;                39P     21
508,4,0,179,8,1,0,0,179,9,1,0,0,179,5,0,0,0,179,10,1,0;               41P     22
508,4,0,179,11,1,0,0,179,12,1,0,0,179,8,0,0,0,179,13,1,0;             43P     23
508,4,0,179,14,1,0,0,179,15,1,0,0,179,11,0,0,0,179,16,1,0;            45P     24
508,4,0,179,17,1,0,0,179,18,1,0,0,179,14,0,0,0,179,19,1,0;            47P     25
508,4,0,179,20,1,0,0,179,21,1,0,0,179,17,0,0,0,179,22,1,0;            49P     26
508,4,0,179,20,0,0,0,179,23,1,0,0,179,1,0,0,0,179,24,1,0;             51P     27
508,4,0,179,21,0,0,0,179,25,1,0,0,179,9,0,0,0,179,26,1,0;             53P     28
508,4,0,179,24,0,0,0,179,4,0,0,0,179,6,0,0,0,179,25,0,0;              55P     29
508,1,0,179,27,1,0;                                                   57P     30
508,4,0,179,13,0,0,0,179,10,0,0,0,179,7,0,0,0,179,28,1,0;             59P     31
508,1,0,179,29,1,0;                                                   61P     32
508,4,0,179,29,0,0,0,179,30,1,0,0,179,31,1,0,0,179,30,0,0;            63P     33
508,4,0,179,16,0,0,0,179,28,0,0,0,179,2,0,0,0,179,32,0,0;             65P     34
508,4,0,179,19,0,0,0,179,32,1,0,0,179,23,0,0,0,179,22,0,0;            67P     35
508,1,0,179,31,0,0;                                                   69P     36
508,4,0,179,33,1,0,0,179,34,1,0,0,179,27,0,0,0,179,34,0,0;            71P     37
508,4,0,179,18,0,0,0,179,26,0,0,0,179,12,0,0,0,179,15,0,0;            73P     38
508,1,0,179,33,0,0;                                                   75P     39
126,2,2,0,0,0,0,0.,0.,0.,1.5707963267949,1.5707963267949,             77P     40
1.5707963267949,1.,0.707106781186547,1.,7.5,14.,2.,7.5,14.,           77P     41
-2.27023601175546D-15,5.5,14.,-3.33066907387547D-15,0.,               77P     42
1.5707963267949,0.,0.,0.;                                             77P     43
126,4,2,0,0,0,0,-1.5707963267949,-1.5707963267949,                    79P     44
-1.5707963267949,1.11022302462516D-16,1.11022302462516D-16,           79P     45
1.5707963267949,1.5707963267949,1.5707963267949,1.,                   79P     46
0.707106781186549,1.,0.707106781186547,1.,5.5,14.,                    79P     47
-3.33066907387547D-15,5.5,21.5,-2.21286937933522D-15,5.5,21.5,        79P     48
7.5,5.5,21.5,15.,5.5,14.,15.,-1.5707963267949,1.5707963267949,        79P     49
0.,0.,0.;                                                             79P     50
126,2,2,0,0,0,0,0.,0.,0.,1.5707963267949,1.5707963267949,             81P     51
1.5707963267949,1.,0.707106781186548,1.,5.5,14.,15.,7.5,14.,15.,      81P     52
7.5,14.,13.,0.,1.5707963267949,0.,0.,0.;                              81P     53
126,4,2,0,0,0,0,-1.5707963267949,-1.5707963267949,                    83P     54
-1.5707963267949,-1.11022302462516D-16,-1.11022302462516D-16,         83P     55
1.5707963267949,1.5707963267949,1.5707963267949,1.,                   83P     56
0.707106781186547,1.,0.707106781186548,1.,7.5,14.,13.,7.5,19.5,       83P     57
13.,7.5,19.5,7.5,7.5,19.5,2.,7.5,14.,2.,-1.5707963267949,             83P     58
1.5707963267949,0.,0.,0.;                                             83P     59
126,2,2,0,0,0,0,0.,0.,0.,1.5707963267949,1.5707963267949,             85P     60
1.5707963267949,1.,0.707106781186547,1.,5.5,1.,15.,7.5,1.,15.,        85P     61
7.5,1.,13.,0.,1.5707963267949,0.,0.,0.;                               85P     62
126,1,1,0,0,1,0,-1.7,-1.7,-0.4,-0.4,1.,1.,7.5,1.,13.,7.5,14.,         87P     63
13.,-1.7,-0.4,0.,0.,0.;                                               87P     64
126,1,1,0,0,1,0,0.4,0.4,1.7,1.7,1.,1.,5.5,14.,15.,5.5,1.,15.,         89P     65
0.4,1.7,0.,0.,0.;                                                     89P     66
126,2,2,0,0,0,0,0.,0.,0.,1.5707963267949,1.5707963267949,             91P     67
1.5707963267949,1.,0.707106781186547,1.,-5.5,1.,15.,-7.5,1.,15.,      91P     68
-7.5,1.,13.,0.,1.5707963267949,0.,0.,0.;                              91P     69
126,4,2,0,0,0,0,-1.5707963267949,-1.5707963267949,                    93P     70
-1.5707963267949,-1.11022302462516D-16,-1.11022302462516D-16,         93P     71
1.5707963267949,1.5707963267949,1.5707963267949,1.,                   93P     72
0.707106781186548,1.,0.707106781186548,1.,-7.5,1.,13.,-7.5,-6.5,      93P     73
13.,-9.43689570931383D-16,-6.5,13.,7.5,-6.5,13.,7.5,1.,13.,           93P     74
-1.5707963267949,1.5707963267949,0.,0.,0.;                            93P     75
126,4,2,0,0,0,0,-1.5707963267949,-1.5707963267949,                    95P     76
-1.5707963267949,0.,0.,1.5707963267949,1.5707963267949,               95P     77
1.5707963267949,1.,0.707106781186547,1.,0.707106781186548,1.,         95P     78
5.5,1.,15.,5.5,-4.5,15.,-8.21565038222615D-16,-4.5,15.,-5.5,          95P     79
-4.5,15.,-5.5,1.,15.,-1.5707963267949,1.5707963267949,0.,0.,0.;       95P     80
126,2,2,0,0,0,0,0.,0.,0.,1.5707963267949,1.5707963267949,             97P     81
1.5707963267949,1.,0.707106781186547,1.,-5.5,14.,15.,-7.5,14.,        97P     82
15.,-7.5,14.,13.,0.,1.5707963267949,0.,0.,0.;                         97P     83
126,1,1,0,0,1,0,0.4,0.4,1.7,1.7,1.,1.,-7.5,14.,13.,-7.5,1.,13.,       99P     84
0.4,1.7,0.,0.,0.;                                                     99P     85
126,1,1,0,0,1,0,-1.7,-1.7,-0.4,-0.4,1.,1.,-5.5,1.,15.,-5.5,14.,      101P     86
15.,-1.7,-0.4,0.,0.,0.;                                              101P     87
126,2,2,0,0,0,0,0.,0.,0.,1.5707963267949,1.5707963267949,            103P     88
1.5707963267949,1.,0.707106781186546,1.,-5.5,14.,                    103P     89
-4.9960036108132D-15,-7.5,14.,-7.21644966006352D-15,-7.5,14.,        103P     90
1.99999999999999,0.,1.5707963267949,0.,0.,0.;                        103P     91
126,4,2,0,0,0,0,-1.5707963267949,-1.5707963267949,                   105P     92
-1.5707963267949,-1.11022302462516D-16,-1.11022302462516D-16,        105P     93
1.5707963267949,1.5707963267949,1.5707963267949,1.,                  105P     94
0.707106781186547,1.,0.707106781186548,1.,-7.5,14.,                  105P     95
1.99999999999999,-7.5,19.5,1.99999999999999,-7.5,19.5,               105P     96
7.49999999999999,-7.5,19.5,13.,-7.5,14.,13.,-1.5707963267949,        105P     97
1.5707963267949,0.,0.,0.;                                            105P     98
126,4,2,0,0,0,0,-1.5707963267949,-1.5707963267949,                   107P     99
-1.5707963267949,1.11022302462516D-16,1.11022302462516D-16,          107P    100
1.5707963267949,1.5707963267949,1.5707963267949,1.,                  107P    101
0.707106781186548,1.,0.707106781186548,1.,-5.5,14.,15.,-5.5,         107P    102
21.5,15.,-5.5,21.5,7.49999999999999,-5.5,21.5,                       107P    103
-6.48722802414207D-15,-5.5,14.,-6.66133814775094D-15,                107P    104
-1.5707963267949,1.5707963267949,0.,0.,0.;                           107P    105
126,2,2,0,0,0,0,0.,0.,0.,1.5707963267949,1.5707963267949,            109P    106
1.5707963267949,1.,0.707106781186547,1.,-5.5,1.,                     109P    107
-4.9960036108132D-15,-7.5,1.,-4.9960036108132D-15,-7.5,1.,           109P    108
1.99999999999999,0.,1.5707963267949,0.,0.,0.;                        109P    109
126,1,1,0,0,1,0,-1.,-1.,0.3,0.3,1.,1.,-7.5,1.,1.99999999999999,      111P    110
-7.5,14.,1.99999999999999,-1.,0.3,0.,0.,0.;                          111P    111
126,1,1,0,0,1,0,-0.3,-0.3,1.,1.,1.,1.,-5.5,14.,                      113P    112
-4.9960036108132D-15,-5.5,1.,-4.9960036108132D-15,-0.3,1.,0.,0.,     113P    113
0.;                                                                  113P    114
126,2,2,0,0,0,0,0.,0.,0.,1.5707963267949,1.5707963267949,            115P    115
1.5707963267949,1.,0.707106781186547,1.,5.5,1.,                      115P    116
-2.77555756156289D-15,7.5,1.,-2.77555756156289D-15,7.5,1.,2.,0.,     115P    117
1.5707963267949,0.,0.,0.;                                            115P    118
126,4,2,0,0,0,0,-1.5707963267949,-1.5707963267949,                   117P    119
-1.5707963267949,-1.11022302462516D-16,-1.11022302462516D-16,        117P    120
1.5707963267949,1.5707963267949,1.5707963267949,1.,                  117P    121
0.707106781186548,1.,0.707106781186548,1.,7.5,1.,2.,7.5,-6.5,2.,     117P    122
-7.21644966006351D-16,-6.5,2.,-7.5,-6.5,2.,-7.5,1.,2.,               117P    123
-1.5707963267949,1.5707963267949,0.,0.,0.;                           117P    124
126,4,2,0,0,0,0,-1.5707963267949,-1.5707963267949,                   119P    125
-1.5707963267949,1.11022302462516D-16,1.11022302462516D-16,          119P    126
1.5707963267949,1.5707963267949,1.5707963267949,1.,                  119P    127
0.707106781186548,1.,0.707106781186548,1.,-5.5,1.,                   119P    128
-5.10702591327572D-15,-5.5,-4.5,-5.10702591327572D-15,               119P    129
-3.8117657178797D-16,-4.5,-3.88578058618805D-15,5.5,-4.5,            119P    130
-2.66453525910038D-15,5.5,1.,-2.66453525910038D-15,                  119P    131
-1.5707963267949,1.5707963267949,0.,0.,0.;                           119P    132
126,1,1,0,0,1,0,-1.,-1.,0.3,0.3,1.,1.,5.5,1.,                        121P    133
-2.77555756156289D-15,5.5,14.,-2.77555756156289D-15,-1.,0.3,0.,      121P    134
0.,0.;                                                               121P    135
126,1,1,0,0,1,0,-0.3,-0.3,1.,1.,1.,1.,7.5,14.,2.,7.5,1.,2.,-0.3,     123P    136
1.,0.,0.,0.;                                                         123P    137
126,1,1,0,0,1,0,0.2,0.2,1.3,1.3,1.,1.,7.5,1.,2.,7.5,1.,13.,0.2,      125P    138
1.3,0.,0.,0.;                                                        125P    139
126,1,1,0,0,1,0,-1.3,-1.3,-0.199999999999999,-0.199999999999999,     127P    140
1.,1.,-7.5,1.,13.,-7.5,1.,1.99999999999999,-1.3,                     127P    141
-0.199999999999999,0.,0.,0.;                                         127P    142
126,8,2,0,1,0,0,-3.14159265358979,-3.14159265358979,                 129P    143
-3.14159265358979,-1.5707963267949,-1.5707963267949,0.,0.,           129P    144
1.5707963267949,1.5707963267949,3.14159265358979,                    129P    145
3.14159265358979,3.14159265358979,1.,0.707106781186549,1.,           129P    146
0.707106781186548,1.,0.707106781186548,1.,0.707106781186549,1.,      129P    147
7.5,15.,3.75,7.5,11.25,3.75,7.5,11.25,7.5,7.5,11.25,11.25,7.5,       129P    148
15.,11.25,7.5,18.75,11.25,7.5,18.75,7.5,7.5,18.75,3.75,7.5,15.,      129P    149
3.75,-3.14159265358979,3.14159265358979,0.,0.,0.;                    129P    150
126,1,1,0,0,1,0,0.2,0.2,1.3,1.3,1.,1.,5.5,14.,15.,-5.5,14.,15.,      131P    151
0.2,1.3,0.,0.,0.;                                                    131P    152
126,8,2,0,1,0,0,-3.14159265358979,-3.14159265358979,                 133P    153
-3.14159265358979,-1.5707963267949,-1.5707963267949,0.,0.,           133P    154
1.5707963267949,1.5707963267949,3.14159265358979,                    133P    155
3.14159265358979,3.14159265358979,1.,0.707106781186548,1.,           133P    156
0.707106781186548,1.,0.707106781186548,1.,0.707106781186548,1.,      133P    157
-3.75,4.59242549680257D-16,15.,-3.75,3.75,15.,                       133P    158
2.29621274840129D-16,3.75,15.,3.75,3.75,15.,3.75,0.,15.,3.75,        133P    159
-3.75,15.,2.29621274840129D-16,-3.75,15.,-3.75,-3.75,15.,-3.75,      133P    160
-4.59242549680257D-16,15.,-3.14159265358979,3.14159265358979,0.,     133P    161
0.,0.;                                                               133P    162
126,1,1,0,0,1,0,-4.,-4.,0.,0.,1.,1.,-3.75,0.,15.,-3.75,0.,0.,        135P    163
-4.,0.,0.,0.,0.;                                                     135P    164
126,8,2,0,1,0,0,-3.14159265358979,-3.14159265358979,                 137P    165
-3.14159265358979,-1.5707963267949,-1.5707963267949,0.,0.,           137P    166
1.5707963267949,1.5707963267949,3.14159265358979,                    137P    167
3.14159265358979,3.14159265358979,1.,0.707106781186548,1.,           137P    168
0.707106781186548,1.,0.707106781186548,1.,0.707106781186548,1.,      137P    169
-3.75,4.59242549680257D-16,0.,-3.75,3.75,0.,                         137P    170
2.29621274840129D-16,3.75,0.,3.75,3.75,0.,3.75,0.,0.,3.75,-3.75,     137P    171
0.,2.29621274840129D-16,-3.75,0.,-3.75,-3.75,0.,-3.75,               137P    172
-4.59242549680257D-16,0.,-3.14159265358979,3.14159265358979,0.,      137P    173
0.,0.;                                                               137P    174
126,1,1,0,0,1,0,-1.3,-1.3,-0.2,-0.2,1.,1.,-5.5,14.,                  139P    175
-5.10702591327572D-15,5.5,14.,-2.66453525910038D-15,-1.3,-0.2,       139P    176
0.,0.,0.;                                                            139P    177
126,8,2,0,1,0,0,-3.14159265358979,-3.14159265358979,                 141P    178
-3.14159265358979,-1.5707963267949,-1.5707963267949,0.,0.,           141P    179
1.5707963267949,1.5707963267949,3.14159265358979,                    141P    180
3.14159265358979,3.14159265358979,1.,0.707106781186549,1.,           141P    181
0.707106781186548,1.,0.707106781186548,1.,0.707106781186549,1.,      141P    182
-7.5,15.,3.75,-7.5,11.25,3.75,-7.5,11.25,7.5,-7.5,11.25,11.25,       141P    183
-7.5,15.,11.25,-7.5,18.75,11.25,-7.5,18.75,7.5,-7.5,18.75,3.75,      141P    184
-7.5,15.,3.75,-3.14159265358979,3.14159265358979,0.,0.,0.;           141P    185
126,1,1,0,0,1,0,-4.,-4.,7.40148683083438D-17,                        143P    186
7.40148683083438D-17,1.,1.,-7.5,15.,3.75,7.5,15.,3.75,-4.,           143P    187
7.40148683083438D-17,0.,0.,0.;                                       143P    188
128,2,4,2,2,0,0,0,0,0,-2.77555756156289D-16,                         145P    189
-2.77555756156289D-16,-2.77555756156289D-16,1.5707963267949,         145P    190
1.5707963267949,1.5707963267949,0.,0.,0.,1.5707963267949,            145P    191
1.5707963267949,3.14159265358979,3.14159265358979,                   145P    192
3.14159265358979,1.,0.707106781186548,1.,0.707106781186548,0.5,      145P    193
0.707106781186548,1.,0.707106781186548,1.,0.707106781186548,0.5,     145P    194
0.707106781186548,1.,0.707106781186548,1.,7.5,14.,2.,7.5,14.,        145P    195
-3.33066907387547D-15,5.5,14.,-2.22044604925031D-15,7.5,19.5,2.,     145P    196
7.5,21.5,-1.11022302462516D-15,5.5,21.5,0.,7.5,19.5,7.5,7.5,         145P    197
21.5,7.5,5.5,21.5,7.5,7.5,19.5,13.,7.5,21.5,15.,5.5,21.5,15.,        145P    198
7.5,14.,13.,7.5,14.,15.,5.5,14.,15.,-2.77555756156289D-16,           145P    199
1.5707963267949,0.,3.14159265358979;                                 145P    200
128,1,2,1,2,0,0,0,0,0,-8.5,-8.5,-2.,-2.,-0.78539816339745,           147P    201
-0.78539816339745,-0.78539816339745,0.785398163397449,               147P    202
0.785398163397449,0.785398163397449,1.,1.,0.707106781186547,         147P    203
0.707106781186547,1.,1.,5.5,14.,15.,5.5,1.,15.,7.5,14.,15.,7.5,      147P    204
1.,15.,7.5,14.,13.,7.5,1.,13.,-8.5,-2.,-0.78539816339745,            147P    205
0.785398163397449;                                                   147P    206
128,2,4,2,2,0,0,0,0,0,-1.5707963267949,-1.5707963267949,             149P    207
-1.5707963267949,8.32667268468867D-16,8.32667268468867D-16,          149P    208
8.32667268468867D-16,-3.14159265358979,-3.14159265358979,            149P    209
-3.14159265358979,-1.5707963267949,-1.5707963267949,                 149P    210
2.65995746840169D-17,2.65995746840169D-17,2.65995746840169D-17,      149P    211
1.,0.707106781186547,1.,0.707106781186548,0.5,0.707106781186548,     149P    212
1.,0.707106781186547,1.,0.707106781186548,0.5,0.707106781186548,     149P    213
1.,0.707106781186547,1.,7.5,1.,13.,7.5,1.,15.,5.5,1.,15.,7.5,        149P    214
-6.5,13.,7.5,-6.5,15.,5.5,-4.5,15.,-1.11022302462516D-15,-6.5,       149P    215
13.,-1.55431223447522D-15,-6.5,15.,-1.55431223447522D-15,-4.5,       149P    216
15.,-7.5,-6.5,13.,-7.5,-6.5,15.,-5.5,-4.5,15.,-7.5,1.,13.,-7.5,      149P    217
1.,15.,-5.5,1.,15.,-1.5707963267949,8.32667268468867D-16,            149P    218
-3.14159265358979,2.65995746840169D-17;                              149P    219
128,1,2,1,2,0,0,0,0,0,2.,2.,8.5,8.5,-0.785398163397448,              151P    220
-0.785398163397448,-0.785398163397448,0.785398163397448,             151P    221
0.785398163397448,0.785398163397448,1.,1.,0.707106781186548,         151P    222
0.707106781186548,1.,1.,-5.5,1.,15.,-5.5,14.,15.,-7.5,1.,15.,        151P    223
-7.5,14.,15.,-7.5,1.,13.,-7.5,14.,13.,2.,8.5,-0.785398163397448,     151P    224
0.785398163397448;                                                   151P    225
128,2,4,2,2,0,0,0,0,0,-1.38777878078145D-15,                         153P    226
-1.38777878078145D-15,-1.38777878078145D-15,1.5707963267949,         153P    227
1.5707963267949,1.5707963267949,0.,0.,0.,1.5707963267949,            153P    228
1.5707963267949,3.14159265358979,3.14159265358979,                   153P    229
3.14159265358979,1.,0.707106781186548,1.,0.707106781186548,0.5,      153P    230
0.707106781186548,1.,0.707106781186548,1.,0.707106781186548,0.5,     153P    231
0.707106781186548,1.,0.707106781186548,1.,-7.5,14.,13.,              153P    232
-7.50000000000001,14.,15.,-5.5,14.,15.,-7.5,19.5,13.,                153P    233
-7.50000000000001,21.5,15.,-5.5,21.5,15.,-7.5,19.5,                  153P    234
7.49999999999999,-7.5,21.5,7.49999999999999,-5.5,21.5,               153P    235
7.49999999999999,-7.5,19.5,2.,-7.5,21.5,-4.44089209850063D-15,       153P    236
-5.5,21.5,-3.33066907387547D-15,-7.5,14.,2.,-7.5,14.,                153P    237
-6.66133814775094D-15,-5.5,14.,-4.44089209850063D-15,                153P    238
-1.38777878078145D-15,1.5707963267949,0.,3.14159265358979;           153P    239
128,1,2,1,2,0,0,0,0,0,-5.,-5.,1.5,1.5,-0.785398163397449,            155P    240
-0.785398163397449,-0.785398163397449,0.785398163397448,             155P    241
0.785398163397448,0.785398163397448,1.,1.,0.707106781186548,         155P    242
0.707106781186548,1.,1.,-5.5,14.,-5.68989300120393D-15,-5.5,1.,      155P    243
-5.68989300120393D-15,-7.5,14.,-4.71844785465692D-15,-7.5,1.,        155P    244
-4.71844785465692D-15,-7.5,14.,1.99999999999999,-7.5,1.,             155P    245
1.99999999999999,-5.,1.5,-0.785398163397449,0.785398163397448;       155P    246
128,2,4,2,2,0,0,0,0,0,-1.5707963267949,-1.5707963267949,             157P    247
-1.5707963267949,1.38777878078145D-16,1.38777878078145D-16,          157P    248
1.38777878078145D-16,-3.14159265358979,-3.14159265358979,            157P    249
-3.14159265358979,-1.5707963267949,-1.5707963267949,                 157P    250
1.00929365875014D-16,1.00929365875014D-16,1.00929365875014D-16,      157P    251
1.,0.707106781186547,1.,0.707106781186548,0.5,0.707106781186548,     157P    252
1.,0.707106781186547,1.,0.707106781186548,0.5,0.707106781186548,     157P    253
1.,0.707106781186547,1.,-7.5,1.,2.,-7.5,1.,                          157P    254
-7.52748218056154D-15,-5.5,1.,-3.33066907387547D-15,-7.5,-6.5,       157P    255
2.,-7.5,-6.5,-7.52748218056154D-15,-5.5,-4.5,                        157P    256
-3.33066907387547D-15,-1.11022302462516D-15,-6.5,2.,                 157P    257
-6.66133814775093D-16,-6.5,-5.82867087928207D-15,                    157P    258
-6.66133814775094D-16,-4.5,-2.22044604925031D-15,7.5,-6.5,2.,        157P    259
7.5,-6.5,-4.1298595780026D-15,5.49999999999999,-4.5,                 157P    260
-1.11022302462516D-15,7.5,1.,2.,7.5,1.,-4.1298595780026D-15,5.5,     157P    261
1.,-1.11022302462516D-15,-1.5707963267949,1.38777878078145D-16,      157P    262
-3.14159265358979,1.00929365875014D-16;                              157P    263
128,1,2,1,2,0,0,0,0,0,-1.5,-1.5,5.,5.,-0.785398163397449,            159P    264
-0.785398163397449,-0.785398163397449,0.785398163397449,             159P    265
0.785398163397449,0.785398163397449,1.,1.,0.707106781186547,         159P    266
0.707106781186547,1.,1.,5.5,1.,-1.66533453693773D-15,5.5,14.,        159P    267
-1.66533453693773D-15,7.5,1.,-4.16333634234434D-15,7.5,14.,          159P    268
-4.16333634234434D-15,7.5,1.,2.,7.5,14.,2.,-1.5,5.,                  159P    269
-0.785398163397449,0.785398163397449;                                159P    270
128,1,4,1,2,0,0,0,0,0,0.266666666666666,0.266666666666666,           161P    271
1.73333333333333,1.73333333333333,-0.785398163397448,                161P    272
-0.785398163397448,-0.785398163397448,0.785398163397449,             161P    273
0.785398163397449,2.35619449019235,2.35619449019235,                 161P    274
2.35619449019235,1.,1.,0.707106781186547,0.707106781186547,1.,       161P    275
1.,0.707106781186547,0.707106781186547,1.,1.,-7.5,1.,13.,-7.5,       161P    276
1.,1.99999999999999,-7.5,-6.5,13.,-7.5,-6.5,1.99999999999999,        161P    277
5.55111512312578D-16,-6.5,13.,5.55111512312578D-16,-6.5,             161P    278
1.99999999999999,7.5,-6.5,13.,7.5,-6.5,1.99999999999999,7.5,1.,      161P    279
13.,7.5,1.,1.99999999999999,0.266666666666666,1.73333333333333,      161P    280
-0.785398163397448,2.35619449019235;                                 161P    281
128,1,1,1,1,0,0,1,0,0,-0.551,-0.551,0.551,0.551,-0.501,-0.501,       163P    282
1.351,1.351,1.,1.,1.,1.,7.5,19.51,1.99,7.5,19.51,13.01,7.5,          163P    283
0.990000000000002,1.99,7.5,0.990000000000002,13.01,-0.551,0.551,     163P    284
-0.501,1.351;                                                        163P    285
128,1,1,1,1,0,0,1,0,0,0.749,0.749,2.601,2.601,0.199,0.199,1.301,     165P    286
1.301,1.,1.,1.,1.,5.51,-4.51,15.,5.51,14.01,15.,-5.51,-4.51,15.,     165P    287
-5.51,14.01,15.,0.749,2.601,0.199,1.301;                             165P    288
128,1,8,1,2,0,1,0,0,1,0.,0.,4.,4.,-3.14159265358979,                 167P    289
-3.14159265358979,-3.14159265358979,-1.5707963267949,                167P    290
-1.5707963267949,0.,0.,1.5707963267949,1.5707963267949,              167P    291
3.14159265358979,3.14159265358979,3.14159265358979,1.,1.,            167P    292
0.707106781186548,0.707106781186548,1.,1.,0.707106781186548,         167P    293
0.707106781186548,1.,1.,0.707106781186548,0.707106781186548,1.,      167P    294
1.,0.707106781186548,0.707106781186548,1.,1.,-3.75,0.,0.,-3.75,      167P    295
0.,15.,-3.75,-3.75,0.,-3.75,-3.75,15.,0.,-3.75,0.,0.,-3.75,15.,      167P    296
3.75,-3.75,0.,3.75,-3.75,15.,3.75,0.,0.,3.75,0.,15.,3.75,3.75,       167P    297
0.,3.75,3.75,15.,0.,3.75,0.,0.,3.75,15.,-3.75,3.75,0.,-3.75,         167P    298
3.75,15.,-3.75,0.,0.,-3.75,0.,15.,0.,4.,-3.14159265358979,           167P    299
3.14159265358979;                                                    167P    300
128,1,4,1,2,0,0,0,0,0,0.266666666666667,0.266666666666667,           169P    301
1.73333333333333,1.73333333333333,-0.785398163397449,                169P    302
-0.785398163397449,-0.785398163397449,0.785398163397448,             169P    303
0.785398163397448,2.35619449019235,2.35619449019235,                 169P    304
2.35619449019235,1.,1.,0.707106781186547,0.707106781186547,1.,       169P    305
1.,0.707106781186547,0.707106781186547,1.,1.,5.5,14.,                169P    306
-2.77555756156289D-15,-5.5,14.,-6.10622663543836D-15,5.5,21.5,       169P    307
-4.44089209850063D-15,-5.5,21.5,-7.7715611723761D-15,5.5,21.5,       169P    308
7.5,-5.5,21.5,7.5,5.5,21.5,15.,-5.50000000000001,21.5,15.,5.5,       169P    309
14.,15.,-5.50000000000001,14.,15.,0.266666666666667,                 169P    310
1.73333333333333,-0.785398163397449,2.35619449019235;                169P    311
128,1,1,1,1,0,0,1,0,0,-1.201,-1.201,0.651,0.651,0.199,0.199,         171P    312
1.301,1.301,1.,1.,1.,1.,5.51,14.01,-2.66231481305113D-15,5.51,       171P    313
-4.51,-2.66231481305113D-15,-5.51,14.01,-5.10924635932497D-15,       171P    314
-5.51,-4.51,-5.10924635932497D-15,-1.201,0.651,0.199,1.301;          171P    315
128,1,8,1,2,0,1,0,0,1,-7.40148683083438D-17,                         173P    316
-7.40148683083438D-17,4.,4.,-3.14159265358979,-3.14159265358979,     173P    317
-3.14159265358979,-1.5707963267949,-1.5707963267949,0.,0.,           173P    318
1.5707963267949,1.5707963267949,3.14159265358979,                    173P    319
3.14159265358979,3.14159265358979,1.,1.,0.707106781186548,           173P    320
0.707106781186548,1.,1.,0.707106781186548,0.707106781186548,1.,      173P    321
1.,0.707106781186548,0.707106781186548,1.,1.,0.707106781186548,      173P    322
0.707106781186548,1.,1.,-7.5,15.,3.75,7.5,15.,3.75,-7.5,18.75,       173P    323
3.75,7.5,18.75,3.75,-7.5,18.75,7.5,7.5,18.75,7.5,-7.5,18.75,         173P    324
11.25,7.5,18.75,11.25,-7.5,15.,11.25,7.5,15.,11.25,-7.5,11.25,       173P    325
11.25,7.5,11.25,11.25,-7.5,11.25,7.5,7.5,11.25,7.5,-7.5,11.25,       173P    326
3.75,7.5,11.25,3.75,-7.5,15.,3.75,7.5,15.,3.75,                      173P    327
-7.40148683083438D-17,4.,-3.14159265358979,3.14159265358979;         173P    328
128,1,1,1,1,0,0,1,0,0,-0.551,-0.551,0.551,0.551,-0.501,-0.501,       175P    329
1.351,1.351,1.,1.,1.,1.,-7.5,19.51,13.01,-7.5,19.51,                 175P    330
1.98999999999999,-7.5,0.990000000000002,13.01,-7.5,                  175P    331
0.990000000000002,1.98999999999999,-0.551,0.551,-0.501,1.351;        175P    332
502,20,7.5,14.,2.,5.5,14.,-2.66453525910038D-15,5.5,14.,15.,7.5,     177P    333
14.,13.,5.5,1.,15.,7.5,1.,13.,-5.5,1.,15.,-7.5,1.,13.,-5.5,14.,      177P    334
15.,-7.5,14.,13.,-5.5,14.,-5.10702591327572D-15,-7.5,14.,            177P    335
1.99999999999999,-5.5,1.,-4.9960036108132D-15,-7.5,1.,               177P    336
1.99999999999999,5.5,1.,-2.66453525910038D-15,7.5,1.,2.,7.5,15.,     177P    337
3.75,-3.75,-4.59242549680257D-16,15.,-3.75,                          177P    338
-4.59242549680257D-16,0.,-7.5,15.,3.75;                              177P    339
504,34,77,177,1,177,2,79,177,2,177,3,81,177,3,177,4,83,177,4,        179P    340
177,1,85,177,5,177,6,87,177,6,177,4,89,177,3,177,5,91,177,7,177,     179P    341
8,93,177,8,177,6,95,177,5,177,7,97,177,9,177,10,99,177,10,177,8,     179P    342
101,177,7,177,9,103,177,11,177,12,105,177,12,177,10,107,177,9,       179P    343
177,11,109,177,13,177,14,111,177,14,177,12,113,177,11,177,13,        179P    344
115,177,15,177,16,117,177,16,177,14,119,177,13,177,15,121,177,       179P    345
15,177,2,123,177,1,177,16,125,177,16,177,6,127,177,8,177,14,129,     179P    346
177,17,177,17,131,177,3,177,9,133,177,18,177,18,135,177,18,177,      179P    347
19,137,177,19,177,19,139,177,11,177,2,141,177,20,177,20,143,177,     179P    348
20,177,17;                                                           179P    349
406,1,5HBody2;                                                       181P    350
314,62.7450980392157,62.7450980392157,62.7450980392157,13HSteel      183P    351
- Satin;                                                             183P    352
S      1G      3D    184P    352                                        T      1
