0
SECTION
2
HEADER
9
$INSUNITS
70
4
9
$ACADVER
1
AC1014
9
$HANDSEED
5
FFFF
0
ENDSEC
0
SECTION
2
TABLES
0
TABLE
2
VPORT
5
8
100
AcDbSymbolTable
0
ENDTAB
0
TABLE
2
LTYPE
5
5
100
AcDbSymbolTable
0
LTYPE
5
14
100
AcDbSymbolTableRecord
100
AcDbLinetypeTableRecord
2
BYBLOCK
70
0
0
LTYPE
5
15
100
AcDbSymbolTableRecord
100
AcDbLinetypeTableRecord
2
BYLAYER
70
0
0
ENDTAB
0
TABLE
2
LAYER
5
2
100
AcDbSymbolTable
70
2
0
LAYER
5
50
100
AcDbSymbolTableRecord
100
AcDbLayerTableRecord
2
0
70
0
6
CONTINUOUS
0
ENDTAB
0
TABLE
2
STYLE
5
3
100
AcDbSymbolTable
70
1
0
STYLE
5
11
100
AcDbSymbolTableRecord
100
AcDbTextStyleTableRecord
2
STANDARD
70
0
0
ENDTAB
0
TABLE
2
VIEW
5
6
100
AcDbSymbolTable
70
0
0
ENDTAB
0
TABLE
2
UCS
5
7
100
AcDbSymbolTable
70
0
0
ENDTAB
0
TABLE
2
APPID
5
9
100
AcDbSymbolTable
70
2
0
APPID
5
12
100
AcDbSymbolTableRecord
100
AcDbRegAppTableRecord
2
ACAD
70
0
0
ENDTAB
0
TABLE
2
DIMSTYLE
5
A
100
AcDbSymbolTable
70
1
0
ENDTAB
0
TABLE
2
BLOCK_RECORD
5
1
100
AcDbSymbolTable
70
1
0
BLOCK_RECORD
5
1F
100
AcDbSymbolTableRecord
100
AcDbBlockTableRecord
2
*MODEL_SPACE
0
BLOCK_RECORD
5
1B
100
AcDbSymbolTableRecord
100
AcDbBlockTableRecord
2
*PAPER_SPACE
0
ENDTAB
0
ENDSEC
0
SECTION
2
BLOCKS
0
BLOCK
5
20
100
AcDbEntity
100
AcDbBlockBegin
2
*MODEL_SPACE
0
ENDBLK
5
21
100
AcDbEntity
100
AcDbBlockEnd
0
BLOCK
5
1C
100
AcDbEntity
100
AcDbBlockBegin
2
*PAPER_SPACE
0
ENDBLK
5
1D
100
AcDbEntity
100
AcDbBlockEnd
0
ENDSEC
0
SECTION
2
ENTITIES
0
LWPOLYLINE
5
100
100
AcDbEntity
8
0
100
AcDbPolyline
90
16
70
1
43
0.0
10
-4.0999999083578587
20
-19.599999561905861
10
-4.0999999083578587
20
-20.299999546259642
10
-6.6000000000000014
20
-20.300000000000004
42
-0.41421356237309492
10
-8.6000000000000014
20
-18.300000000000001
10
-8.5999999999999996
20
19.5
42
-0.41421356237309459
10
-6.6000000000000014
20
21.5
10
6.7000000000000011
20
21.5
42
-0.41421356237309392
10
8.7000000000000011
20
19.499999999999996
10
8.7000000000000011
20
-18.299999999999997
42
-0.4142135623730957
10
6.6999999999999993
20
-20.299999999999997
10
-3.5999999195337296
20
-20.299999546259642
10
-3.5999999195337296
20
-19.599999561905861
10
-3.3999999240040779
20
-19.599999561905861
10
-3.3999999240040779
20
-16.699999626725912
10
-4.999999888241291
20
-16.699999626725912
10
-4.999999888241291
20
-19.599999561905861
0
CIRCLE
5
101
100
AcDbEntity
8
0
100
AcDbCircle
10
-6.6000000000000005
20
-18.300000000000001
30
0
40
1.25
210
0
220
0
230
1
0
CIRCLE
5
102
100
AcDbEntity
8
0
100
AcDbCircle
10
-6.6000000000000005
20
19.5
30
0
40
1.25
210
0
220
0
230
1
0
CIRCLE
5
103
100
AcDbEntity
8
0
100
AcDbCircle
10
6.7000000000000011
20
-18.299999999999997
30
0
40
1.25
210
0
220
0
230
1
0
CIRCLE
5
104
100
AcDbEntity
8
0
100
AcDbCircle
10
6.6999999999999957
20
19.499999999999993
30
0
40
1.25
210
0
220
0
230
1
0
CIRCLE
5
105
100
AcDbEntity
8
0
100
AcDbCircle
10
7.2999998368322849
20
-15.699999649077654
30
0
40
0.89999997988343239
210
0
220
0
230
1
0
CIRCLE
5
106
100
AcDbEntity
8
0
100
AcDbCircle
10
7.3999998368322846
20
-5.7999996490776518
30
0
40
0.89999997988343239
210
0
220
0
230
1
0
CIRCLE
5
107
100
AcDbEntity
8
0
100
AcDbCircle
10
7.4999998368322851
20
4.2000003509223518
30
0
40
0.89999997988343239
210
0
220
0
230
1
0
CIRCLE
5
108
100
AcDbEntity
8
0
100
AcDbCircle
10
7.4999998368322851
20
14.100000350922352
30
0
40
0.89999997988343239
210
0
220
0
230
1
0
CIRCLE
5
109
100
AcDbEntity
8
0
100
AcDbCircle
10
-7.2999998368322849
20
-10.699999649077654
30
0
40
0.89999997988343239
210
0
220
0
230
1
0
CIRCLE
5
110
100
AcDbEntity
8
0
100
AcDbCircle
10
-7.3999998368322846
20
-0.74999964907764838
30
0
40
0.89999997988343239
210
0
220
0
230
1
0
CIRCLE
5
111
100
AcDbEntity
8
0
100
AcDbCircle
10
-7.4999998368322851
20
9.1000003509223504
30
0
40
0.89999997988343239
210
0
220
0
230
1
0
CIRCLE
5
112
100
AcDbEntity
8
0
100
AcDbCircle
10
-7.4999998368322851
20
16.60000035092235
30
0
40
0.89999997988343239
210
0
220
0
230
1
0
CIRCLE
5
113
100
AcDbEntity
8
0
100
AcDbCircle
10
-7.3999998368322846
20
6.7000003509223527
30
0
40
0.89999997988343239
210
0
220
0
230
1
0
CIRCLE
5
114
100
AcDbEntity
8
0
100
AcDbCircle
10
-7.3999998368322846
20
-3.2999996490776518
30
0
40
0.89999997988343239
210
0
220
0
230
1
0
CIRCLE
5
115
100
AcDbEntity
8
0
100
AcDbCircle
10
-7.2999998368322849
20
-13.199999649077654
30
0
40
0.89999997988343239
210
0
220
0
230
1
0
CIRCLE
5
116
100
AcDbEntity
8
0
100
AcDbCircle
10
7.4999998368322851
20
11.600000350922352
30
0
40
0.89999997988343239
210
0
220
0
230
1
0
CIRCLE
5
117
100
AcDbEntity
8
0
100
AcDbCircle
10
7.3999998368322846
20
1.7000003509223516
30
0
40
0.89999997988343239
210
0
220
0
230
1
0
CIRCLE
5
118
100
AcDbEntity
8
0
100
AcDbCircle
10
7.3999998368322846
20
-8.1999996490776521
30
0
40
0.89999997988343239
210
0
220
0
230
1
0
CIRCLE
5
119
100
AcDbEntity
8
0
100
AcDbCircle
10
7.2999998368322849
20
-13.199999649077654
30
0
40
0.89999997988343239
210
0
220
0
230
1
0
CIRCLE
5
120
100
AcDbEntity
8
0
100
AcDbCircle
10
7.3999998368322846
20
-3.2999996490776509
30
0
40
0.89999997988343239
210
0
220
0
230
1
0
CIRCLE
5
121
100
AcDbEntity
8
0
100
AcDbCircle
10
7.3999998368322846
20
6.7000003509223518
30
0
40
0.89999997988343239
210
0
220
0
230
1
0
CIRCLE
5
122
100
AcDbEntity
8
0
100
AcDbCircle
10
7.4999998368322851
20
16.600000350922354
30
0
40
0.89999997988343239
210
0
220
0
230
1
0
CIRCLE
5
123
100
AcDbEntity
8
0
100
AcDbCircle
10
-7.3999998368322846
20
-8.1999996490776521
30
0
40
0.89999997988343239
210
0
220
0
230
1
0
CIRCLE
5
124
100
AcDbEntity
8
0
100
AcDbCircle
10
-7.3999998368322846
20
1.7000003509223527
30
0
40
0.89999997988343239
210
0
220
0
230
1
0
CIRCLE
5
125
100
AcDbEntity
8
0
100
AcDbCircle
10
-7.4999998368322851
20
11.60000035092235
30
0
40
0.89999997988343239
210
0
220
0
230
1
0
CIRCLE
5
126
100
AcDbEntity
8
0
100
AcDbCircle
10
-7.4999998368322851
20
14.10000035092235
30
0
40
0.89999997988343239
210
0
220
0
230
1
0
CIRCLE
5
127
100
AcDbEntity
8
0
100
AcDbCircle
10
-7.4999998368322851
20
4.2000003509223527
30
0
40
0.89999997988343239
210
0
220
0
230
1
0
CIRCLE
5
128
100
AcDbEntity
8
0
100
AcDbCircle
10
-7.3999998368322846
20
-5.7999996490776518
30
0
40
0.89999997988343239
210
0
220
0
230
1
0
CIRCLE
5
129
100
AcDbEntity
8
0
100
AcDbCircle
10
-7.2999998368322849
20
-15.699999649077654
30
0
40
0.89999997988343239
210
0
220
0
230
1
0
CIRCLE
5
130
100
AcDbEntity
8
0
100
AcDbCircle
10
7.4999998368322851
20
9.1000003509223522
30
0
40
0.89999997988343239
210
0
220
0
230
1
0
CIRCLE
5
131
100
AcDbEntity
8
0
100
AcDbCircle
10
7.3999998368322846
20
-0.7499996490776486
30
0
40
0.89999997988343239
210
0
220
0
230
1
0
CIRCLE
5
132
100
AcDbEntity
8
0
100
AcDbCircle
10
7.2999998368322849
20
-10.699999649077654
30
0
40
0.89999997988343239
210
0
220
0
230
1
0
CIRCLE
5
133
100
AcDbEntity
8
0
100
AcDbCircle
10
-4.4700002123136073
20
-13.65000064834021
30
0
40
0.59002448102870253
210
0
220
0
230
1
0
LWPOLYLINE
5
134
100
AcDbEntity
8
0
100
AcDbPolyline
90
4
70
1
43
0.0
10
2.9999999262392518
20
-16.099999640136957
10
4.4999998927116387
20
-16.099999640136957
42
0.99999999999999989
10
4.4999998927116387
20
-14.899999666959047
10
2.9999999262392518
20
-14.899999666959047
42
0.99999999999999989
0
LWPOLYLINE
5
135
100
AcDbEntity
8
0
100
AcDbPolyline
90
4
70
1
43
0.0
10
-4.7999998927116394
20
-16.099999640136957
10
-3.2999999262392521
20
-16.099999640136957
42
0.99999999999999989
10
-3.2999999262392521
20
-14.899999666959047
10
-4.7999998927116394
20
-14.899999666959047
42
0.99999999999999989
0
LWPOLYLINE
5
136
100
AcDbEntity
8
0
100
AcDbPolyline
90
4
70
1
43
0.0
10
4.7299998949468138
20
-16.99999962002039
10
3.4999999217689037
20
-16.99999962002039
10
3.4999999217689037
20
-19.599999561905861
10
4.7299998949468138
20
-19.599999561905861
0
LINE
5
137
100
AcDbEntity
8
0
100
AcDbLine
10
3.1999999284744263
20
-8.5999998077750206
30
0
11
4.0999999083578587
21
-8.5999998077750206
31
0
0
SPLINE
5
138
100
AcDbEntity
8
0
100
AcDbSpline
70
4
71
5
72
21
73
15
74
0
42
0.000000001
43
0.0000000001
44
0.0000000001
40
0
40
0
40
0
40
0
40
0
40
0
40
0.10000000000000001
40
0.20000000000000001
40
0.30000000000000004
40
0.40000000000000002
40
0.5
40
0.59999999999999998
40
0.69999999999999996
40
0.79999999999999993
40
0.89999999999999991
40
1
40
1
40
1
40
1
40
1
40
1
41
1
41
1
41
1
41
1
41
1
41
1
41
1
41
1
41
1
41
1
41
1
41
1
41
1
41
1
41
1
10
3.3999999240040779
20
-10.099999774247408
30
0
10
3.4036338824471675
20
-10.066766867002423
30
0
10
3.4102381187428548
20
-10.000582114856527
30
0
10
3.4181535067421196
20
-9.9021481417695245
30
0
10
3.424659262824612
20
-9.7726171734255232
30
0
10
3.4255841454559954
20
-9.6137556904815487
30
0
10
3.4186475821918543
20
-9.4582234542380039
30
0
10
3.4031921853761249
20
-9.3062988620453364
30
0
10
3.3788305962259968
20
-9.1581459566236862
30
0
10
3.3458788099260612
20
-9.0136309170540798
30
0
10
3.3049700470137751
20
-8.8724855805320786
30
0
10
3.266392067845874
20
-8.7620471403308322
30
0
10
3.2343754694176221
20
-8.680523979321757
30
0
10
3.2116831077337569
20
-8.6267460545653485
30
0
10
3.1999999284744263
20
-8.5999998077750206
30
0
0
LINE
5
139
100
AcDbEntity
8
0
100
AcDbLine
10
4.999999888241291
20
-8.5999998077750206
30
0
11
4.0999999083578587
21
-8.5999998077750206
31
0
0
SPLINE
5
140
100
AcDbEntity
8
0
100
AcDbSpline
70
4
71
5
72
21
73
15
74
0
42
0.000000001
43
0.0000000001
44
0.0000000001
40
0
40
0
40
0
40
0
40
0
40
0
40
0.10000000000000001
40
0.20000000000000001
40
0.30000000000000004
40
0.40000000000000002
40
0.5
40
0.59999999999999998
40
0.69999999999999996
40
0.79999999999999993
40
0.89999999999999991
40
1
40
1
40
1
40
1
40
1
40
1
41
1
41
1
41
1
41
1
41
1
41
1
41
1
41
1
41
1
41
1
41
1
41
1
41
1
41
1
41
1
10
4.7999998927116394
20
-10.099999774247408
30
0
10
4.7963659342685503
20
-10.066766867002423
30
0
10
4.7897616979728621
20
-10.000582114856527
30
0
10
4.7818463099735977
20
-9.9021481417695245
30
0
10
4.7753405538911053
20
-9.7726171734255232
30
0
10
4.7744156712597219
20
-9.6137556904815487
30
0
10
4.7813522345238626
20
-9.4582234542380039
30
0
10
4.7968076313395924
20
-9.3062988620453364
30
0
10
4.8211692204897201
20
-9.1581459566236862
30
0
10
4.8541210067896561
20
-9.0136309170540798
30
0
10
4.8950297697019423
20
-8.8724855805320786
30
0
10
4.9336077488698429
20
-8.7620471403308322
30
0
10
4.9656243472980952
20
-8.680523979321757
30
0
10
4.9883167089819604
20
-8.6267460545653485
30
0
10
4.999999888241291
20
-8.5999998077750206
30
0
0
LINE
5
141
100
AcDbEntity
8
0
100
AcDbLine
10
4.999999888241291
20
-13.799999691545963
30
0
11
4.0999999083578587
21
-13.799999691545963
31
0
0
SPLINE
5
142
100
AcDbEntity
8
0
100
AcDbSpline
70
4
71
5
72
21
73
15
74
0
42
0.000000001
43
0.0000000001
44
0.0000000001
40
0
40
0
40
0
40
0
40
0
40
0
40
0.10000000000000001
40
0.20000000000000001
40
0.30000000000000004
40
0.40000000000000002
40
0.5
40
0.59999999999999998
40
0.69999999999999996
40
0.79999999999999993
40
0.89999999999999991
40
1
40
1
40
1
40
1
40
1
40
1
41
1
41
1
41
1
41
1
41
1
41
1
41
1
41
1
41
1
41
1
41
1
41
1
41
1
41
1
41
1
10
4.7999998927116394
20
-12.299999725073576
30
0
10
4.7963659342685503
20
-12.333232632318561
30
0
10
4.7897616979728621
20
-12.399417384464456
30
0
10
4.7818463099735977
20
-12.497851357551459
30
0
10
4.7753405538911053
20
-12.627382325895461
30
0
10
4.7744156712597219
20
-12.786243808839435
30
0
10
4.7813522345238626
20
-12.94177604508298
30
0
10
4.7968076313395924
20
-13.093700637275647
30
0
10
4.8211692204897201
20
-13.241853542697298
30
0
10
4.8541210067896561
20
-13.386368582266904
30
0
10
4.8950297697019423
20
-13.527513918788905
30
0
10
4.9336077488698429
20
-13.637952358990152
30
0
10
4.9656243472980952
20
-13.719475519999227
30
0
10
4.9883167089819604
20
-13.773253444755635
30
0
10
4.999999888241291
20
-13.799999691545963
30
0
0
LINE
5
143
100
AcDbEntity
8
0
100
AcDbLine
10
3.1999999284744263
20
-13.799999691545963
30
0
11
4.0999999083578587
21
-13.799999691545963
31
0
0
SPLINE
5
144
100
AcDbEntity
8
0
100
AcDbSpline
70
4
71
5
72
21
73
15
74
0
42
0.000000001
43
0.0000000001
44
0.0000000001
40
0
40
0
40
0
40
0
40
0
40
0
40
0.10000000000000001
40
0.20000000000000001
40
0.30000000000000004
40
0.40000000000000002
40
0.5
40
0.59999999999999998
40
0.69999999999999996
40
0.79999999999999993
40
0.89999999999999991
40
1
40
1
40
1
40
1
40
1
40
1
41
1
41
1
41
1
41
1
41
1
41
1
41
1
41
1
41
1
41
1
41
1
41
1
41
1
41
1
41
1
10
3.3999999240040779
20
-12.299999725073576
30
0
10
3.4036338824471675
20
-12.333232632318561
30
0
10
3.4102381187428548
20
-12.399417384464456
30
0
10
3.4181535067421196
20
-12.497851357551459
30
0
10
3.424659262824612
20
-12.627382325895461
30
0
10
3.4255841454559954
20
-12.786243808839435
30
0
10
3.4186475821918543
20
-12.94177604508298
30
0
10
3.4031921853761249
20
-13.093700637275647
30
0
10
3.3788305962259968
20
-13.241853542697298
30
0
10
3.3458788099260612
20
-13.386368582266904
30
0
10
3.3049700470137751
20
-13.527513918788905
30
0
10
3.266392067845874
20
-13.637952358990152
30
0
10
3.2343754694176221
20
-13.719475519999227
30
0
10
3.2116831077337569
20
-13.773253444755635
30
0
10
3.1999999284744263
20
-13.799999691545963
30
0
0
LINE
5
145
100
AcDbEntity
8
0
100
AcDbLine
10
4.7999998927116394
20
-12.299999725073576
30
0
11
3.3999999240040779
21
-12.299999725073576
31
0
0
LINE
5
146
100
AcDbEntity
8
0
100
AcDbLine
10
3.3999999240040779
20
-10.099999774247408
30
0
11
4.7999998927116394
21
-10.099999774247408
31
0
0
ENDSEC
0
SECTION
2
OBJECTS
0
DICTIONARY
5
C
100
AcDbDictionary
3
ACAD_GROUP
350
D
3
ACAD_MLINESTYLE
350
17
0
DICTIONARY
5
D
100
AcDbDictionary
0
DICTIONARY
5
1A
330
C
100
AcDbDictionary
0
DICTIONARY
5
17
100
AcDbDictionary
0
ENDSEC
0
EOF
