0
SECTION
2
HEADER
9
$INSUNITS
70
4
9
$ACADVER
1
AC1014
9
$HANDSEED
5
FFFF
0
ENDSEC
0
SECTION
2
TABLES
0
TABLE
2
VPORT
5
8
100
AcDbSymbolTable
0
ENDTAB
0
TABLE
2
LTYPE
5
5
100
AcDbSymbolTable
0
LTYPE
5
14
100
AcDbSymbolTableRecord
100
AcDbLinetypeTableRecord
2
BYBLOCK
70
0
0
LTYPE
5
15
100
AcDbSymbolTableRecord
100
AcDbLinetypeTableRecord
2
BYLAYER
70
0
0
ENDTAB
0
TABLE
2
LAYER
5
2
100
AcDbSymbolTable
70
2
0
LAYER
5
50
100
AcDbSymbolTableRecord
100
AcDbLayerTableRecord
2
0
70
0
6
CONTINUOUS
0
ENDTAB
0
TABLE
2
STYLE
5
3
100
AcDbSymbolTable
70
1
0
STYLE
5
11
100
AcDbSymbolTableRecord
100
AcDbTextStyleTableRecord
2
STANDARD
70
0
0
ENDTAB
0
TABLE
2
VIEW
5
6
100
AcDbSymbolTable
70
0
0
ENDTAB
0
TABLE
2
UCS
5
7
100
AcDbSymbolTable
70
0
0
ENDTAB
0
TABLE
2
APPID
5
9
100
AcDbSymbolTable
70
2
0
APPID
5
12
100
AcDbSymbolTableRecord
100
AcDbRegAppTableRecord
2
ACAD
70
0
0
ENDTAB
0
TABLE
2
DIMSTYLE
5
A
100
AcDbSymbolTable
70
1
0
ENDTAB
0
TABLE
2
BLOCK_RECORD
5
1
100
AcDbSymbolTable
70
1
0
BLOCK_RECORD
5
1F
100
AcDbSymbolTableRecord
100
AcDbBlockTableRecord
2
*MODEL_SPACE
0
BLOCK_RECORD
5
1B
100
AcDbSymbolTableRecord
100
AcDbBlockTableRecord
2
*PAPER_SPACE
0
ENDTAB
0
ENDSEC
0
SECTION
2
BLOCKS
0
BLOCK
5
20
100
AcDbEntity
100
AcDbBlockBegin
2
*MODEL_SPACE
0
ENDBLK
5
21
100
AcDbEntity
100
AcDbBlockEnd
0
BLOCK
5
1C
100
AcDbEntity
100
AcDbBlockBegin
2
*PAPER_SPACE
0
ENDBLK
5
1D
100
AcDbEntity
100
AcDbBlockEnd
0
ENDSEC
0
SECTION
2
ENTITIES
0
LWPOLYLINE
5
100
100
AcDbEntity
8
0
100
AcDbPolyline
90
20
70
1
43
0.0
10
-2.9825766367549966
20
2.5254802172036301
10
-2.6999999396502972
20
2.8314925226278564
10
-0.92517622409134126
20
2.8314925226278573
10
-0.14469598351181445
20
3.4500000000000011
10
-0.14469598351181445
20
4.4000000000000004
10
0.14469598351181417
20
4.4000000000000004
10
0.14469598351181431
20
3.4500000000000011
10
0.92517622409134137
20
2.8314925226278573
10
2.6999999396502972
20
2.8314925226278573
10
2.9825765529359645
20
2.5254802172036306
10
3.6499999161809682
20
3.1441421073854183
10
3.6499999161809682
20
2.8129270544277185
42
-0.29585877126467253
10
3.2651531662216318
20
2.2194679117794038
10
2.0052244003363109
20
1.6565408573516847
42
-0.10543399093788829
10
1.740071150295647
20
1.5999999999999996
10
-1.7400713179337111
20
1.6000000000000003
42
-0.10543399093788908
10
-2.0052245679743743
20
1.6565408573516851
10
-3.2651533338596956
20
2.2194679117794038
42
-0.29585877126467258
10
-3.6500000838190316
20
2.812927054427719
10
-3.6500000838190316
20
3.1441421073854183
0
LINE
5
101
100
AcDbEntity
8
0
100
AcDbLine
10
3.6999999172985554
20
1.8999999530613421
30
0
11
-3.7000000849366188
21
1.8999999530613421
31
0
0
LINE
5
102
100
AcDbEntity
8
0
100
AcDbLine
10
-3.7000000849366188
20
1.8999999530613421
30
0
11
-3.7000000849366188
21
0.82118168233178634
31
0
0
LINE
5
103
100
AcDbEntity
8
0
100
AcDbLine
10
-3.7000000849366188
20
0.82118168233178634
30
0
11
3.6999999172985554
21
0.82118168233178634
31
0
0
LINE
5
104
100
AcDbEntity
8
0
100
AcDbLine
10
3.6999999172985554
20
0.82118168233178634
30
0
11
3.6999999172985554
21
1.8999999530613421
31
0
0
LINE
5
105
100
AcDbEntity
8
0
100
AcDbLine
10
3.6999999172985554
20
1.8999999530613421
30
0
11
-3.7000000849366188
21
0.82118168233178634
31
0
0
LINE
5
106
100
AcDbEntity
8
0
100
AcDbLine
10
-3.7000000849366188
20
1.8999999530613421
30
0
11
3.6999999172985554
21
0.82118168233178634
31
0
0
LINE
5
107
100
AcDbEntity
8
0
100
AcDbLine
10
-2.0052245679743743
20
1.6565408573516851
30
0
11
-1.761765472264718
21
1.8999999530613421
31
0
0
LINE
5
108
100
AcDbEntity
8
0
100
AcDbLine
10
-2.0052245679743743
20
1.6565408573516851
30
0
11
-1.6609214129386884
21
1.6565408573516851
31
0
0
LINE
5
109
100
AcDbEntity
8
0
100
AcDbLine
10
-2.0052245679743743
20
1.6565408573516851
30
0
11
-2.8405837429942711
21
0.82118168233178634
31
0
0
LINE
5
110
100
AcDbEntity
8
0
100
AcDbLine
10
2.0052244003363109
20
1.6565408573516847
30
0
11
1.7617653046266526
21
1.8999999530613421
31
0
0
LINE
5
111
100
AcDbEntity
8
0
100
AcDbLine
10
2.0052244003363109
20
1.6565408573516847
30
0
11
2.8405835753562112
21
0.82118168233178634
31
0
0
ENDSEC
0
SECTION
2
OBJECTS
0
DICTIONARY
5
C
100
AcDbDictionary
3
ACAD_GROUP
350
D
3
ACAD_MLINESTYLE
350
17
0
DICTIONARY
5
D
100
AcDbDictionary
0
DICTIONARY
5
1A
330
C
100
AcDbDictionary
0
DICTIONARY
5
17
100
AcDbDictionary
0
ENDSEC
0
EOF
