0
SECTION
2
HEADER
9
$INSUNITS
70
4
9
$ACADVER
1
AC1014
9
$HANDSEED
5
FFFF
0
ENDSEC
0
SECTION
2
TABLES
0
TABLE
2
VPORT
5
8
100
AcDbSymbolTable
0
ENDTAB
0
TABLE
2
LTYPE
5
5
100
AcDbSymbolTable
0
LTYPE
5
14
100
AcDbSymbolTableRecord
100
AcDbLinetypeTableRecord
2
BYBLOCK
70
0
0
LTYPE
5
15
100
AcDbSymbolTableRecord
100
AcDbLinetypeTableRecord
2
BYLAYER
70
0
0
ENDTAB
0
TABLE
2
LAYER
5
2
100
AcDbSymbolTable
70
2
0
LAYER
5
50
100
AcDbSymbolTableRecord
100
AcDbLayerTableRecord
2
0
70
0
6
CONTINUOUS
0
ENDTAB
0
TABLE
2
STYLE
5
3
100
AcDbSymbolTable
70
1
0
STYLE
5
11
100
AcDbSymbolTableRecord
100
AcDbTextStyleTableRecord
2
STANDARD
70
0
0
ENDTAB
0
TABLE
2
VIEW
5
6
100
AcDbSymbolTable
70
0
0
ENDTAB
0
TABLE
2
UCS
5
7
100
AcDbSymbolTable
70
0
0
ENDTAB
0
TABLE
2
APPID
5
9
100
AcDbSymbolTable
70
2
0
APPID
5
12
100
AcDbSymbolTableRecord
100
AcDbRegAppTableRecord
2
ACAD
70
0
0
ENDTAB
0
TABLE
2
DIMSTYLE
5
A
100
AcDbSymbolTable
70
1
0
ENDTAB
0
TABLE
2
BLOCK_RECORD
5
1
100
AcDbSymbolTable
70
1
0
BLOCK_RECORD
5
1F
100
AcDbSymbolTableRecord
100
AcDbBlockTableRecord
2
*MODEL_SPACE
0
BLOCK_RECORD
5
1B
100
AcDbSymbolTableRecord
100
AcDbBlockTableRecord
2
*PAPER_SPACE
0
ENDTAB
0
ENDSEC
0
SECTION
2
BLOCKS
0
BLOCK
5
20
100
AcDbEntity
100
AcDbBlockBegin
2
*MODEL_SPACE
0
ENDBLK
5
21
100
AcDbEntity
100
AcDbBlockEnd
0
BLOCK
5
1C
100
AcDbEntity
100
AcDbBlockBegin
2
*PAPER_SPACE
0
ENDBLK
5
1D
100
AcDbEntity
100
AcDbBlockEnd
0
ENDSEC
0
SECTION
2
ENTITIES
0
LINE
5
100
100
AcDbEntity
8
0
100
AcDbLine
10
12.500000000003247
20
-4.9999999999999991
30
0
11
-12.499999999998867
21
-4.9999999999999991
31
0
0
LINE
5
101
100
AcDbEntity
8
0
100
AcDbLine
10
-12.499999999998867
20
-4.9999999999999991
30
0
11
-12.499999999999062
21
5.0000000000000036
31
0
0
LINE
5
102
100
AcDbEntity
8
0
100
AcDbLine
10
-12.499999999999062
20
5.0000000000000036
30
0
11
12.50000000000357
21
5.0000000000000018
31
0
0
LINE
5
103
100
AcDbEntity
8
0
100
AcDbLine
10
12.50000000000357
20
5.0000000000000018
30
0
11
12.500000000003247
21
-4.9999999999999991
31
0
0
LINE
5
104
100
AcDbEntity
8
0
100
AcDbLine
10
12.500000000003247
20
-4.9999999999999991
30
0
11
-12.499999999999062
21
5.0000000000000036
31
0
0
LINE
5
105
100
AcDbEntity
8
0
100
AcDbLine
10
-12.499999999998867
20
-4.9999999999999991
30
0
11
12.50000000000357
21
5.0000000000000018
31
0
0
LINE
5
106
100
AcDbEntity
8
0
100
AcDbLine
10
12.50000000000357
20
5.0000000000000018
30
0
11
12.50000000000111
21
6.0000000000000018
31
0
0
LINE
5
107
100
AcDbEntity
8
0
100
AcDbLine
10
-12.499999999999062
20
5.0000000000000036
30
0
11
-12.499999999998867
21
6.0000000000000018
31
0
0
LINE
5
108
100
AcDbEntity
8
0
100
AcDbLine
10
-12.499999999998867
20
6.0000000000000018
30
0
11
12.50000000000111
21
6.0000000000000018
31
0
0
CIRCLE
5
109
100
AcDbEntity
8
0
100
AcDbCircle
10
12.500000000005841
20
8.1624530320433492e-13
30
0
40
5.0000000000004041
210
0
220
0
230
1
0
CIRCLE
5
110
100
AcDbEntity
8
0
100
AcDbCircle
10
-12.500000000000529
20
1.8341279208568971e-15
30
0
40
5
210
0
220
0
230
1
0
CIRCLE
5
111
100
AcDbEntity
8
0
100
AcDbCircle
10
15.09807621135902
20
-1.499999999999184
30
0
40
0.74999999999999933
210
0
220
0
230
1
0
ARC
5
112
100
AcDbEntity
8
0
100
AcDbCircle
10
12.500000000005841
20
8.1624530320433492e-13
30
0
40
3.783879107747822
210
0
220
0
230
1
100
AcDbArc
50
221.81031489578623
51
330.0000000000361
0
ARC
5
113
100
AcDbEntity
8
0
100
AcDbCircle
10
10.263932022505681
20
-1.9999999999993603
30
0
40
0.78387910774778469
210
0
220
-0
230
1
100
AcDbArc
50
41.810314895744
51
221.81031489582392
0
ARC
5
114
100
AcDbEntity
8
0
100
AcDbCircle
10
12.500000000005841
20
8.1624530320433492e-13
30
0
40
2.2161208922526074
210
0
220
0
230
1
100
AcDbArc
50
221.81031489578785
51
329.99999999997897
0
ARC
5
115
100
AcDbEntity
8
0
100
AcDbCircle
10
15.09807621135902
20
-1.4999999999991838
30
0
40
0.78387910774876379
210
0
220
0
230
1
100
AcDbArc
50
-29.999999999820989
51
150.00000000005446
0
ARC
5
116
100
AcDbEntity
8
0
100
AcDbCircle
10
12.500000000005841
20
8.1624530320433492e-13
30
0
40
3.0000000000003926
210
0
220
0
230
1
100
AcDbArc
50
221.8103148957764
51
329.99999999999875
0
CIRCLE
5
117
100
AcDbEntity
8
0
100
AcDbCircle
10
-12.500000000000519
20
2.1869806046849082e-14
30
0
40
1.0000000000000007
210
0
220
0
230
1
0
CIRCLE
5
118
100
AcDbEntity
8
0
100
AcDbCircle
10
-10.841687604822814
20
2.5000000000000222
30
0
40
0.60000000000000009
210
0
220
0
230
1
0
CIRCLE
5
119
100
AcDbEntity
8
0
100
AcDbCircle
10
12.500000000005869
20
6.3979894725057065e-13
30
0
40
0.85000000000000009
210
0
220
0
230
1
0
LINE
5
120
100
AcDbEntity
8
0
100
AcDbLine
10
7.500000000005409
20
4.05318211553209e-13
30
0
11
7.500000000005409
21
5.0000000000000018
31
0
0
LINE
5
121
100
AcDbEntity
8
0
100
AcDbLine
10
7.500000000005409
20
4.05318211553209e-13
30
0
11
7.5000000000054037
21
-4.9999999999999991
31
0
0
LINE
5
122
100
AcDbEntity
8
0
100
AcDbLine
10
-7.5000000000004885
20
1.2269247739888797e-14
30
0
11
-7.499999999999476
21
5.0000000000000018
31
0
0
LINE
5
123
100
AcDbEntity
8
0
100
AcDbLine
10
-7.5000000000004885
20
1.2269247739888797e-14
30
0
11
-7.5000000000007825
21
-4.9999999999999991
31
0
0
LINE
5
124
100
AcDbEntity
8
0
100
AcDbLine
10
-7.4999999999996607
20
4.1087217167036609
30
0
11
-4.5233375031148846
21
4.1087217167036609
31
0
0
LINE
5
125
100
AcDbEntity
8
0
100
AcDbLine
10
-4.5233375031148846
20
4.1087217167036609
30
0
11
7.5000000000054134
21
1.0452397221496954
31
0
0
LINE
5
126
100
AcDbEntity
8
0
100
AcDbLine
10
7.5000000000054134
20
1.0452397221496954
30
0
11
12.500000000000991
21
0.84999999999772047
31
0
0
LINE
5
127
100
AcDbEntity
8
0
100
AcDbLine
10
12.500000000000991
20
0.84999999999772047
30
0
11
17.456719987922948
21
0.65645027335479844
31
0
0
LINE
5
128
100
AcDbEntity
8
0
100
AcDbLine
10
-7.4999999999996607
20
4.1087217167036609
30
0
11
-8.9999999999990656
21
4.1438077897035654
31
0
0
LINE
5
129
100
AcDbEntity
8
0
100
AcDbLine
10
-8.9999999999990621
20
5.0000000000000018
30
0
11
-8.9999999999990656
21
4.1438077897035654
31
0
0
LWPOLYLINE
5
130
100
AcDbEntity
8
0
100
AcDbPolyline
90
4
70
1
43
0.0
10
-2.499999999998809
20
1.5000000000015303
10
2.500000000002438
20
1.4999999999987015
42
-0.99999999999999989
10
2.4999999999985905
20
-1.5000000000014344
10
-2.5000000000022187
20
-1.4999999999987976
42
-0.99999999999999989
0
LINE
5
131
100
AcDbEntity
8
0
100
AcDbLine
10
2.5000000000005143
20
-1.3664677473516955e-12
30
0
11
-2.5000000000005143
21
1.3664677473516961e-12
31
0
0
ENDSEC
0
SECTION
2
OBJECTS
0
DICTIONARY
5
C
100
AcDbDictionary
3
ACAD_GROUP
350
D
3
ACAD_MLINESTYLE
350
17
0
DICTIONARY
5
D
100
AcDbDictionary
0
DICTIONARY
5
1A
330
C
100
AcDbDictionary
0
DICTIONARY
5
17
100
AcDbDictionary
0
ENDSEC
0
EOF
