0
SECTION
2
HEADER
9
$INSUNITS
70
4
9
$ACADVER
1
AC1014
9
$HANDSEED
5
FFFF
0
ENDSEC
0
SECTION
2
TABLES
0
TABLE
2
VPORT
5
8
100
AcDbSymbolTable
0
ENDTAB
0
TABLE
2
LTYPE
5
5
100
AcDbSymbolTable
0
LTYPE
5
14
100
AcDbSymbolTableRecord
100
AcDbLinetypeTableRecord
2
BYBLOCK
70
0
0
LTYPE
5
15
100
AcDbSymbolTableRecord
100
AcDbLinetypeTableRecord
2
BYLAYER
70
0
0
ENDTAB
0
TABLE
2
LAYER
5
2
100
AcDbSymbolTable
70
2
0
LAYER
5
50
100
AcDbSymbolTableRecord
100
AcDbLayerTableRecord
2
0
70
0
6
CONTINUOUS
0
ENDTAB
0
TABLE
2
STYLE
5
3
100
AcDbSymbolTable
70
1
0
STYLE
5
11
100
AcDbSymbolTableRecord
100
AcDbTextStyleTableRecord
2
STANDARD
70
0
0
ENDTAB
0
TABLE
2
VIEW
5
6
100
AcDbSymbolTable
70
0
0
ENDTAB
0
TABLE
2
UCS
5
7
100
AcDbSymbolTable
70
0
0
ENDTAB
0
TABLE
2
APPID
5
9
100
AcDbSymbolTable
70
2
0
APPID
5
12
100
AcDbSymbolTableRecord
100
AcDbRegAppTableRecord
2
ACAD
70
0
0
ENDTAB
0
TABLE
2
DIMSTYLE
5
A
100
AcDbSymbolTable
70
1
0
ENDTAB
0
TABLE
2
BLOCK_RECORD
5
1
100
AcDbSymbolTable
70
1
0
BLOCK_RECORD
5
1F
100
AcDbSymbolTableRecord
100
AcDbBlockTableRecord
2
*MODEL_SPACE
0
BLOCK_RECORD
5
1B
100
AcDbSymbolTableRecord
100
AcDbBlockTableRecord
2
*PAPER_SPACE
0
ENDTAB
0
ENDSEC
0
SECTION
2
BLOCKS
0
BLOCK
5
20
100
AcDbEntity
100
AcDbBlockBegin
2
*MODEL_SPACE
0
ENDBLK
5
21
100
AcDbEntity
100
AcDbBlockEnd
0
BLOCK
5
1C
100
AcDbEntity
100
AcDbBlockBegin
2
*PAPER_SPACE
0
ENDBLK
5
1D
100
AcDbEntity
100
AcDbBlockEnd
0
ENDSEC
0
SECTION
2
ENTITIES
0
LWPOLYLINE
5
100
100
AcDbEntity
8
0
100
AcDbPolyline
90
25
70
1
43
0.0
10
-11.818255694654333
20
-46.819805153586138
42
-0.1989123673796579
10
-43.638060848048951
20
-60.000000000191505
10
-70.998898141259716
20
-60.000000000191498
42
-0.41421356237309465
10
-95.998898141259716
20
-35.00000000019152
10
-95.99889814125973
20
-1.91500149071544e-10
10
-95.998450859611268
20
-1.91500149071544e-10
10
-93.184644255996076
20
-1.91500149071544e-10
10
-93.184644255996076
20
-3.0000000001915006
10
-74.812557455959279
20
-3.0000000001915006
10
-74.812557455959265
20
-1.91500149071544e-10
10
-69.184644176406948
20
-1.91500149071544e-10
10
-69.184644176406948
20
-3.0000000001915006
10
-50.812557376370158
20
-3.0000000001915006
10
-50.812557376370165
20
-1.91500149071544e-10
10
-45.184644096817827
20
-1.91500149071544e-10
10
-45.18464409681782
20
-3.0000000001915006
10
-26.81255729678103
20
-3.0000000001915006
10
-26.812557296781034
20
-1.91500149071544e-10
10
-21.18464401722871
20
-1.91500149071544e-10
10
-21.18464401722871
20
-3.0000000001915006
10
-2.8125572171919138
20
-3.0000000001915006
10
-2.8125572171919138
20
-1.91500149071544e-10
10
0.0015494587402972533
20
-9.4244168025170438e-10
10
0.001549458740297549
20
-27.337049096289263
42
-0.19891236737965812
10
-5.4169750893085764
20
-40.418524548240391
0
LWPOLYLINE
5
101
100
AcDbEntity
8
0
100
AcDbPolyline
90
4
70
1
43
0.0
10
-94.096951914240705
20
-9.0000000009853434
10
-94.096951914240719
20
-18.750000000191474
10
-73.901959053499951
20
-18.750000000191474
10
-73.901959053499951
20
-9.0000000009853434
0
CIRCLE
5
102
100
AcDbEntity
8
0
100
AcDbCircle
10
-43.784843155590835
20
-27.161331157261998
30
-2.2204460492503131e-15
40
0.67500000000000016
210
1.3552527156068805e-20
220
0
230
1
0
CIRCLE
5
103
100
AcDbEntity
8
0
100
AcDbCircle
10
-52.334843164501883
20
-27.161331176949272
30
0
40
0.67500000000000016
210
1.3552527156068805e-20
220
0
230
1
0
CIRCLE
5
104
100
AcDbEntity
8
0
100
AcDbCircle
10
-52.334843164501891
20
-43.001331176949265
30
0
40
0.67500000000000016
210
1.3552527156068805e-20
220
0
230
1
0
CIRCLE
5
105
100
AcDbEntity
8
0
100
AcDbCircle
10
-43.784843082644215
20
-43.001331157261966
30
0
40
0.67500000000000016
210
1.3552527156068805e-20
220
0
230
1
0
CIRCLE
5
106
100
AcDbEntity
8
0
100
AcDbCircle
10
-56.938530047215721
20
-57.416411852817426
30
0
40
1.03775
210
-1.3552527156068808e-20
220
0
230
1
0
CIRCLE
5
107
100
AcDbEntity
8
0
100
AcDbCircle
10
-70.238530047215889
20
-57.416411852817326
30
-2.2204460492503131e-15
40
1.03775
210
-1.3552527156068808e-20
220
0
230
1
0
CIRCLE
5
108
100
AcDbEntity
8
0
100
AcDbCircle
10
-56.938530047215473
20
-19.616411852817453
30
0
40
1.03775
210
-1.3552527156068808e-20
220
0
230
1
0
CIRCLE
5
109
100
AcDbEntity
8
0
100
AcDbCircle
10
-70.238530047215619
20
-19.616411852817365
30
-2.2204460492503131e-15
40
1.03775
210
-1.3552527156068808e-20
220
0
230
1
0
CIRCLE
5
110
100
AcDbEntity
8
0
100
AcDbCircle
10
-56.238530210383395
20
-52.316411501895089
30
-2.2204460492503131e-15
40
0.70000000000000306
210
1.3552527156068805e-20
220
-0
230
1
0
CIRCLE
5
111
100
AcDbEntity
8
0
100
AcDbCircle
10
-71.038529884048017
20
-30.016411501894993
30
0
40
0.69999999999999418
210
1.3552527156068805e-20
220
-0
230
1
0
CIRCLE
5
112
100
AcDbEntity
8
0
100
AcDbCircle
10
-56.138530210383273
20
-32.416411501895098
30
-2.2204460492503131e-15
40
0.69999999999999418
210
1.3552527156068805e-20
220
-0
230
1
0
CIRCLE
5
113
100
AcDbEntity
8
0
100
AcDbCircle
10
-56.038530210383193
20
-22.516411501895107
30
0
40
0.70000000000000306
210
1.3552527156068805e-20
220
-0
230
1
0
CIRCLE
5
114
100
AcDbEntity
8
0
100
AcDbCircle
10
-56.03853021038325
20
-30.016411501895099
30
0
40
0.70000000000000306
210
1.3552527156068805e-20
220
-0
230
1
0
CIRCLE
5
115
100
AcDbEntity
8
0
100
AcDbCircle
10
-71.038529884047989
20
-27.516411501894993
30
0
40
0.69999999999999418
210
1.3552527156068805e-20
220
-0
230
1
0
CIRCLE
5
116
100
AcDbEntity
8
0
100
AcDbCircle
10
-56.238530210383416
20
-54.816411501895089
30
-2.2204460492503131e-15
40
0.70000000000000306
210
1.3552527156068805e-20
220
-0
230
1
0
CIRCLE
5
117
100
AcDbEntity
8
0
100
AcDbCircle
10
-70.938529884048066
20
-39.866411501894987
30
0
40
0.70000000000000306
210
1.3552527156068805e-20
220
-0
230
1
0
CIRCLE
5
118
100
AcDbEntity
8
0
100
AcDbCircle
10
-71.038529884047961
20
-22.516411501895
30
0
40
0.70000000000000306
210
1.3552527156068805e-20
220
-0
230
1
0
CIRCLE
5
119
100
AcDbEntity
8
0
100
AcDbCircle
10
-56.000000834465041
20
-25.00000037252903
30
0
40
0.71291679296768617
210
1.3552527156068808e-20
220
-0
230
1
0
CIRCLE
5
120
100
AcDbEntity
8
0
100
AcDbCircle
10
-56.038530210383229
20
-27.516411501895103
30
0
40
0.70000000000000306
210
1.3552527156068805e-20
220
-0
230
1
0
CIRCLE
5
121
100
AcDbEntity
8
0
100
AcDbCircle
10
-71.038529884047975
20
-25.016411501894996
30
0
40
0.70000000000000306
210
1.3552527156068805e-20
220
-0
230
1
0
CIRCLE
5
122
100
AcDbEntity
8
0
100
AcDbCircle
10
-70.838529884048143
20
-49.816411501894976
30
0
40
0.70000000000000306
210
1.3552527156068805e-20
220
-0
230
1
0
SPLINE
5
123
100
AcDbEntity
8
0
100
AcDbSpline
70
4
71
5
72
31
73
25
74
0
42
0.000000001
43
0.0000000001
44
0.0000000001
40
0
40
0
40
0
40
0
40
0
40
0
40
0.050000000000000003
40
0.10000000000000001
40
0.15000000000000002
40
0.20000000000000001
40
0.25
40
0.29999999999999999
40
0.34999999999999998
40
0.39999999999999997
40
0.44999999999999996
40
0.49999999999999994
40
0.54999999999999993
40
0.59999999999999998
40
0.65000000000000002
40
0.70000000000000007
40
0.75000000000000011
40
0.80000000000000016
40
0.8500000000000002
40
0.90000000000000024
40
0.95000000000000029
40
1
40
1
40
1
40
1
40
1
40
1
41
1
41
1
41
1
41
1
41
1
41
1
41
1
41
1
41
1
41
1
41
1
41
1
41
1
41
1
41
1
41
1
41
1
41
1
41
1
41
1
41
1
41
1
41
1
41
1
41
1
10
-89.086523099234128
20
-11.399858415957503
30
-5.4927447112299248
10
-88.943683789669805
20
-11.265507936797857
30
-5.0200169380166679
10
-88.686406197412637
20
-11.068399005288082
30
-4.1207696197082413
10
-88.385681455892524
20
-10.98749804332909
30
-2.910514218042036
10
-88.155893332206887
20
-11.311026479616809
30
-1.5752820579930729
10
-88.145557975034137
20
-12.430076867299341
30
-0.36758845805606766
10
-88.38145703861224
20
-14.23463902083418
30
0.39724654637820989
10
-88.792748093485159
20
-16.647706410586196
30
0.76839003611849421
10
-89.268304592489059
20
-19.541850305819672
30
0.82683092968849403
10
-89.678792154825658
20
-22.762217396397201
30
0.66939030546332989
10
-89.892245580614656
20
-26.141710986828567
30
0.39796262008851524
10
-89.793096692924792
20
-29.51935778034748
30
0.10649220508165602
10
-89.298003149170285
20
-32.755468817722914
30
-0.12972555588033893
10
-88.378987545688119
20
-35.752419676368412
30
-0.2690801971313963
10
-87.064060403417173
20
-38.457718372592694
30
-0.30484357126900197
10
-85.416388637217807
20
-40.850431786413743
30
-0.25325625592079049
10
-83.520529246528326
20
-42.933040532278
30
-0.14579506795102631
10
-81.466182805566234
20
-44.721691462262932
30
-0.019904479973043655
10
-79.334440087916008
20
-46.238139838131289
30
0.088866377796772228
10
-77.180609449972252
20
-47.500476399666923
30
0.15665196586478908
10
-75.036681252127323
20
-48.521818044222897
30
0.17026653496265232
10
-73.342117959469789
20
-49.153183731005825
30
0.1329691762149513
10
-72.084980935347318
20
-49.524414859355154
30
0.07723768999216761
10
-71.25299600571536
20
-49.726625499123259
30
0.027794026974650901
10
-70.838529884048143
20
-49.816411501894976
30
0
0
SPLINE
5
124
100
AcDbEntity
8
0
100
AcDbSpline
70
4
71
5
72
31
73
25
74
0
42
0.000000001
43
0.0000000001
44
0.0000000001
40
0
40
0
40
0
40
0
40
0
40
0
40
0.050000000000000003
40
0.10000000000000001
40
0.15000000000000002
40
0.20000000000000001
40
0.25
40
0.29999999999999999
40
0.34999999999999998
40
0.39999999999999997
40
0.44999999999999996
40
0.49999999999999994
40
0.54999999999999993
40
0.59999999999999998
40
0.65000000000000002
40
0.70000000000000007
40
0.75000000000000011
40
0.80000000000000016
40
0.8500000000000002
40
0.90000000000000024
40
0.95000000000000029
40
1
40
1
40
1
40
1
40
1
40
1
41
1
41
1
41
1
41
1
41
1
41
1
41
1
41
1
41
1
41
1
41
1
41
1
41
1
41
1
41
1
41
1
41
1
41
1
41
1
41
1
41
1
41
1
41
1
41
1
41
1
10
-78.911573333982048
20
-11.399858415957492
30
-5.4935733562127131
10
-78.780269236961914
20
-11.355464186216256
30
-5.0886909445597484
10
-78.550182416773268
20
-11.317288243125216
30
-4.3135547251784683
10
-78.302620121920683
20
-11.411865729416098
30
-3.2547382315540645
10
-78.1684363810283
20
-11.842857858460462
30
-2.0515889565738945
10
-78.323155925436666
20
-12.88815973815092
30
-0.89584148049761247
10
-78.779226305986725
20
-14.421730889718592
30
-0.080679049231774991
10
-79.488835021024883
20
-16.39781923507357
30
0.41549643186473284
10
-80.362680032742816
20
-18.727032623040117
30
0.63711934815090232
10
-81.280264676803867
20
-21.285957160231654
30
0.64651728915159756
10
-82.108413017795598
20
-23.935090504237159
30
0.51457446351677361
10
-82.716443518675106
20
-26.533196921729004
30
0.31337182632171057
10
-82.993352699439399
20
-28.953409217540049
30
0.10799292162920969
10
-82.863218540706484
20
-31.097598609307923
30
-0.050719661312328211
10
-82.305521805650073
20
-32.914847019631651
30
-0.13536650825718155
10
-81.364337517906776
20
-34.410455037066718
30
-0.14646477584567014
10
-80.121858399436334
20
-35.624719214307497
30
-0.10200223825868046
10
-78.678161876741569
20
-36.61713260201347
30
-0.029574441715790354
10
-77.130978049609894
20
-37.45039453582033
30
0.041587951012544554
10
-75.551585040915697
20
-38.171894119847693
30
0.09001126901404248
10
-73.980391808748962
20
-38.809389126951991
30
0.10399603654290115
10
-72.746270861294533
20
-39.264072924309843
30
0.083128906283423343
10
-71.836329167492579
20
-39.576360334628674
30
0.048801894705991507
10
-71.236640293839201
20
-39.771845811598013
30
0.017645708730813923
10
-70.938529884048066
20
-39.866411501894987
30
0
0
SPLINE
5
125
100
AcDbEntity
8
0
100
AcDbSpline
70
4
71
5
72
26
73
20
74
0
42
0.000000001
43
0.0000000001
44
0.0000000001
40
0
40
0
40
0
40
0
40
0
40
0
40
0.066666666666666666
40
0.13333333333333333
40
0.20000000000000001
40
0.26666666666666666
40
0.33333333333333331
40
0.39999999999999997
40
0.46666666666666662
40
0.53333333333333333
40
0.59999999999999998
40
0.66666666666666663
40
0.73333333333333328
40
0.79999999999999993
40
0.86666666666666659
40
0.93333333333333324
40
1
40
1
40
1
40
1
40
1
40
1
41
1
41
1
41
1
41
1
41
1
41
1
41
1
41
1
41
1
41
1
41
1
41
1
41
1
41
1
41
1
41
1
41
1
41
1
41
1
41
1
10
-89.08626929632446
20
4.2616515846890257
30
-4.218582422065138
10
-89.137141902370729
20
3.9211927811339904
30
-3.9228058657056089
10
-89.175601112506342
20
3.2435584208549919
30
-3.3548930574415721
10
-89.04342393892577
20
2.2369573214038456
30
-2.5739465606566676
10
-88.484763789438489
20
0.91466062541912363
30
-1.67554559663543
10
-87.146154907369635
20
-0.70563041465116372
30
-0.79434836707513068
10
-85.189345817012182
20
-2.2964512408394016
30
-0.15479793530196759
10
-82.680424458887529
20
-3.8651166528451149
30
0.25178030892839959
10
-79.761026517258728
20
-5.425726042547911
30
0.45047602376366114
10
-76.643604594436866
20
-6.9986743479387012
30
0.48203049333973647
10
-73.577040015283643
20
-8.6076277314931549
30
0.39510136353064879
10
-70.823436972321929
20
-10.277382094859837
30
0.24145727961929103
10
-68.629447208729417
20
-12.031147712204305
30
0.070324844024076127
10
-67.202487705958006
20
-13.888242933188312
30
-0.076076226566953037
10
-66.673322820554816
20
-15.860317422725441
30
-0.16894742274273189
10
-67.094327126987139
20
-17.951252972043854
30
-0.1935229973140061
10
-68.198966072641369
20
-19.718998762261613
30
-0.15364760913677811
10
-69.454030696759688
20
-21.097398765224369
30
-0.089894723692678161
10
-70.47898956724265
20
-22.039539457609358
30
-0.032454469761913199
10
-71.038529884047961
20
-22.516411501895
30
0
0
SPLINE
5
126
100
AcDbEntity
8
0
100
AcDbSpline
70
4
71
5
72
31
73
25
74
0
42
0.000000001
43
0.0000000001
44
0.0000000001
40
0
40
0
40
0
40
0
40
0
40
0
40
0.050000000000000003
40
0.10000000000000001
40
0.15000000000000002
40
0.20000000000000001
40
0.25
40
0.29999999999999999
40
0.34999999999999998
40
0.39999999999999997
40
0.44999999999999996
40
0.49999999999999994
40
0.54999999999999993
40
0.59999999999999998
40
0.65000000000000002
40
0.70000000000000007
40
0.75000000000000011
40
0.80000000000000016
40
0.8500000000000002
40
0.90000000000000024
40
0.95000000000000029
40
1
40
1
40
1
40
1
40
1
40
1
41
1
41
1
41
1
41
1
41
1
41
1
41
1
41
1
41
1
41
1
41
1
41
1
41
1
41
1
41
1
41
1
41
1
41
1
41
1
41
1
41
1
41
1
41
1
41
1
41
1
10
-78.911319531072408
20
4.2616515846889902
30
-4.2194110670478864
10
-79.164112813240862
20
4.0223283881425358
30
-3.9249638253821111
10
-79.595641722280703
20
3.539468662038705
30
-3.3597202352569204
10
-80.020754114809151
20
2.8025401256809501
30
-2.5828089185949459
10
-80.14146447499823
20
1.794578648277009
30
-1.6894023574326313
10
-79.553197579885293
20
0.49019418862143183
30
-0.81101251736885072
10
-78.259052326074837
20
-0.86409292877312927
30
-0.16748262263359909
10
-76.338403752646968
20
-2.278149018038838
30
0.25254888131606384
10
-73.944276473705557
20
-3.7684212823854937
30
0.47368653520053533
10
-71.296881942948076
20
-5.3558523268833866
30
0.53309477530275495
10
-68.648429448614351
20
-7.0601873886517152
30
0.47469405283174315
10
-66.256591211483425
20
-8.8951120742208651
30
0.34504953110776582
10
-64.355535965135559
20
-10.863055991000572
30
0.18887891040814728
10
-63.12567553669416
20
-12.949350713942847
30
0.0445699167471406
10
-62.667096571222004
20
-15.117373437169348
30
-0.059787019673522367
10
-62.958629190321169
20
-17.299997429875358
30
-0.11213499669809393
10
-63.864222321899284
20
-19.403274297355708
30
-0.11608639183063821
10
-65.183016196551989
20
-21.321439353284966
30
-0.084924243579685726
10
-66.685817211724867
20
-22.94873886562177
30
-0.037349528326347255
10
-68.155282232720097
20
-24.192389063278444
30
0.0072587090105860437
10
-69.425822852453877
20
-24.98616026469
30
0.03348253543293131
10
-70.220936764324279
20
-25.239294868431031
30
0.03398074007914114
10
-70.68207348134527
20
-25.211960725945509
30
0.021836255016041816
10
-70.929681540689728
20
-25.097615450111768
30
0.0082018737428910075
10
-71.038529884047975
20
-25.016411501894996
30
0
0
SPLINE
5
127
100
AcDbEntity
8
0
100
AcDbSpline
70
4
71
5
72
31
73
25
74
0
42
0.000000001
43
0.0000000001
44
0.0000000001
40
0
40
0
40
0
40
0
40
0
40
0
40
0.050000000000000003
40
0.10000000000000001
40
0.15000000000000002
40
0.20000000000000001
40
0.25
40
0.29999999999999999
40
0.34999999999999998
40
0.39999999999999997
40
0.44999999999999996
40
0.49999999999999994
40
0.54999999999999993
40
0.59999999999999998
40
0.65000000000000002
40
0.70000000000000007
40
0.75000000000000011
40
0.80000000000000016
40
0.8500000000000002
40
0.90000000000000024
40
0.95000000000000029
40
1
40
1
40
1
40
1
40
1
40
1
41
1
41
1
41
1
41
1
41
1
41
1
41
1
41
1
41
1
41
1
41
1
41
1
41
1
41
1
41
1
41
1
41
1
41
1
41
1
41
1
41
1
41
1
41
1
41
1
41
1
10
-65.086269375913574
20
4.2616515846890302
30
-4.220536975156735
10
-65.168242597575144
20
4.2247470617652088
30
-3.8998566732539053
10
-65.311077585363137
20
4.0963054606151781
30
-3.2865281832057827
10
-65.4619955428022
20
3.7397436241654578
30
-2.4506324086172198
10
-65.536034880876798
20
2.9352063961609161
30
-1.5049796728403244
10
-65.41596620947908
20
1.384449125102122
30
-0.60444901849541721
10
-65.086743915793363
20
-0.6868010353997942
30
0.02155439645279067
10
-64.559487652831734
20
-3.218721441634409
30
0.39252145174116282
10
-63.857106993030243
20
-6.0988696003180065
30
0.54711519437453671
10
-63.014063233664253
20
-9.1788926800515043
30
0.53713754447870143
10
-62.076016661816205
20
-12.293589685202926
30
0.42067935232821918
10
-61.099841647851072
20
-15.278422797863767
30
0.25591726633101153
10
-60.153841046029193
20
-17.987715307925033
30
0.094740263491768645
10
-59.318037654749752
20
-20.312405326819174
30
-0.023394937870177653
10
-58.684852182626244
20
-22.199912333619089
30
-0.078252495268734332
10
-58.359017671528491
20
-23.671068555048535
30
-0.07455567955616102
10
-58.444335236479048
20
-24.789428082488133
30
-0.031582339870421708
10
-59.032561101832059
20
-25.636825837330903
30
0.025156914540858062
10
-60.18787156327862
20
-26.283325157965436
30
0.074284961495564697
10
-61.943337711754261
20
-26.774525936038383
30
0.10281694954632761
10
-64.31233164572113
20
-27.139513594668642
30
0.10312258753060113
10
-66.698655115136347
20
-27.342699460480869
30
0.078092561917763509
10
-68.762453185356506
20
-27.447854627472385
30
0.044704973215375768
10
-70.259620455804892
20
-27.497044571805102
30
0.015979575581022618
10
-71.038529884047989
20
-27.516411501894993
30
0
0
LINE
5
128
100
AcDbEntity
8
0
100
AcDbLine
10
-59.433494849888078
20
-21.056839860633225
30
-2.2204460492503131e-15
11
-59.433494849888064
21
-18.976839884773106
31
-2.2204460492502997e-15
0
SPLINE
5
129
100
AcDbEntity
8
0
100
AcDbSpline
70
4
71
5
72
36
73
30
74
0
42
0.000000001
43
0.0000000001
44
0.0000000001
40
0
40
0
40
0
40
0
40
0
40
0
40
0.040000000000000001
40
0.080000000000000002
40
0.12
40
0.16
40
0.20000000000000001
40
0.24000000000000002
40
0.28000000000000003
40
0.32000000000000001
40
0.35999999999999999
40
0.39999999999999997
40
0.43999999999999995
40
0.47999999999999993
40
0.51999999999999991
40
0.55999999999999994
40
0.59999999999999998
40
0.64000000000000001
40
0.68000000000000005
40
0.72000000000000008
40
0.76000000000000012
40
0.80000000000000016
40
0.84000000000000019
40
0.88000000000000023
40
0.92000000000000026
40
0.9600000000000003
40
1
40
1
40
1
40
1
40
1
40
1
41
1
41
1
41
1
41
1
41
1
41
1
41
1
41
1
41
1
41
1
41
1
41
1
41
1
41
1
41
1
41
1
41
1
41
1
41
1
41
1
41
1
41
1
41
1
41
1
41
1
41
1
41
1
41
1
41
1
41
1
10
-54.911319610661529
20
4.2616515846889902
30
-4.2213656201394851
10
-54.722720199287608
20
4.2427881423407729
30
-3.8489975075109095
10
-54.380962421993019
20
4.1625000484429622
30
-3.1433428778752499
10
-53.974631146857426
20
3.9143947659430527
30
-2.2020977977408682
10
-53.646175962555944
20
3.327484042917781
30
-1.1822587324362954
10
-53.57584792505375
20
2.1747367744134207
30
-0.2937152566321119
10
-53.796958050761816
20
0.63126283758740498
30
0.23061078081435482
10
-54.201800879982976
20
-1.2375375570169251
30
0.44218067022035301
10
-54.623935849212522
20
-3.3278291016644959
30
0.42367942740105252
10
-54.884218243047876
20
-5.5228911967931404
30
0.27033857194238214
10
-54.828801479887687
20
-7.7137188169466331
30
0.075252456333526285
10
-54.365812137835732
20
-9.8189771819711922
30
-0.085243278876975179
10
-53.514838985941175
20
-11.811753723999928
30
-0.1701390069903404
10
-52.40737382729688
20
-13.719560567973417
30
-0.176166993356171
10
-51.235388069401665
20
-15.596114617716388
30
-0.12296106804256601
10
-50.213239761763823
20
-17.500143035805433
30
-0.042791141234224728
10
-49.537594119473127
20
-19.47341870210807
30
0.030615444015238035
10
-49.340776495383231
20
-21.514295499034553
30
0.074610948875273531
10
-49.671523632476038
20
-23.569004831651835
30
0.083375547035250575
10
-50.524291706165769
20
-25.554019744170514
30
0.061480469283958006
10
-51.85722740646721
20
-27.371586198269583
30
0.020245916380586312
10
-53.612751618623243
20
-28.92647708682685
30
-0.02663637355573404
10
-55.739679939789951
20
-30.145576396957718
30
-0.067833289022337262
10
-58.200824168437805
20
-30.982024821022517
30
-0.095812732699276676
10
-60.968940300104968
20
-31.407458786515829
30
-0.1056306292704853
10
-64.026096798421989
20
-31.40811515321235
30
-0.094539352472248914
10
-66.694491598837487
20
-31.065378245716985
30
-0.067939399421682534
10
-68.818799060364569
20
-30.615635984824387
30
-0.037888096963914777
10
-70.289531607069037
20
-30.23038934861011
30
-0.01337571438170676
10
-71.038529884048017
20
-30.016411501894993
30
0
0
SPLINE
5
130
100
AcDbEntity
8
0
100
AcDbSpline
70
0
71
3
72
81
73
77
74
0
42
0.000000001
43
0.0000000001
44
0.0000000001
40
0
40
0
40
0
40
0
40
0.48822047994976497
40
0.97644095989952995
40
1.4646614398493001
40
1.9528819197990599
40
2.4411023997488299
40
2.92932287969859
40
3.4175433596483602
40
3.9057638395981198
40
4.39398431954789
40
4.8822047994976501
40
5.3704252794474199
40
5.8586457593971799
40
6.3468662393469497
40
6.8350867192967097
40
7.3233071992464804
40
7.8115276791962396
40
8.2997481591460094
40
8.7879686390957694
40
9.2761891190455401
40
9.7644095989953001
40
10.252630078945099
40
10.740850558894801
40
11.2290710388446
40
11.717291518794401
40
12.2055119987441
40
12.693732478693899
40
13.1819529586437
40
13.6701734385934
40
14.158393918543201
40
14.646614398493
40
15.1348348784427
40
15.6230553583925
40
16.111275838342301
40
16.599496318292001
40
17.0877167982418
40
17.5759372781915
40
18.064157758141299
40
18.552378238091102
40
19.040598718040801
40
19.5288191979906
40
20.017039677940399
40
20.505260157890099
40
20.993480637839902
40
21.481701117789701
40
21.9699215977394
40
22.4581420776892
40
22.946362557638999
40
23.434583037588698
40
23.922803517538501
40
24.4110239974883
40
24.899244477438
40
25.387464957387799
40
25.875685437337602
40
26.363905917287301
40
26.8521263972371
40
27.3403468771868
40
27.828567357136599
40
28.316787837086402
40
28.805008317036101
40
29.2932287969859
40
29.7814492769357
40
30.269669756885399
40
30.757890236835198
40
31.246110716785001
40
31.734331196734701
40
32.222551676684503
40
32.710772156634299
40
33.198992636584002
40
33.687213116533798
40
34.1754335964836
40
34.663654076433303
40
35.151874556383099
40
35.640095036332902
40
36.128315516282598
40
36.128315516282598
40
36.128315516282598
40
36.128315516282598
10
-48.059843164501892
20
-23.726031176949295
30
4.4408920985006262e-15
10
-48.737249080432179
20
-23.683970366138475
30
4.4408920985006262e-15
10
-50.091439745556272
20
-23.599848744516869
30
4.4408920985006262e-15
10
-51.648604816856938
20
-23.473666312084443
30
4.4408920985006262e-15
10
-52.36695807716616
20
-23.34748387965201
30
2.2204460492503131e-15
10
-52.079022622523503
20
-23.221301447219581
30
4.4408920985006262e-15
10
-50.851900070830744
20
-23.095119014787151
30
2.2204460492503131e-15
10
-48.972406786575164
20
-22.968936582354672
30
0
10
-46.879669084070734
20
-22.842754149922293
30
4.4408920985006262e-15
10
-45.062699452749094
20
-22.71657171748986
30
4.4408920985006262e-15
10
-43.946045816516687
20
-22.590389285057384
30
2.2204460492503131e-15
10
-43.790632090705436
20
-22.464206852624955
30
2.2204460492503131e-15
10
-44.632770541560582
20
-22.338024420192525
30
4.4408920985006262e-15
10
-46.275686293243808
20
-22.211841987760096
30
4.4408920985006262e-15
10
-48.3354917412749
20
-22.085659555327666
30
6.6613381477509392e-15
10
-50.330888633537683
20
-21.959477122895279
30
4.4408920985006262e-15
10
-51.79562823610717
20
-21.833294690462811
30
4.4408920985006262e-15
10
-52.38745646447353
20
-21.707112258030374
30
2.2204460492503131e-15
10
-51.968085467946956
20
-21.580929825597948
30
0
10
-50.635506365835134
20
-21.454747393165515
30
2.2204460492503131e-15
10
-48.701092386095667
20
-21.328564960733086
30
2.2204460492503131e-15
10
-46.616842766560993
20
-21.202382528300653
30
2.2204460492503131e-15
10
-44.869767651851078
20
-21.076200095868181
30
2.2204460492503131e-15
10
-43.868092285011059
20
-20.950017663435801
30
2.2204460492503131e-15
10
-43.845870236842529
20
-20.823835231003326
30
4.4408920985006262e-15
10
-44.808293957942517
20
-20.697652798570939
30
4.4408920985006262e-15
10
-46.530481499208307
20
-20.571470366138513
30
4.4408920985006262e-15
10
-48.610022900890542
20
-20.44528793370608
30
4.4408920985006262e-15
10
-50.561008149254185
20
-20.319105501273654
30
4.4408920985006262e-15
10
-51.927565931507743
20
-20.192923068841178
30
4.4408920985006262e-15
10
-52.390383484656809
20
-20.066740636408792
30
4.4408920985006262e-15
10
-51.841317886701283
20
-19.940558203976316
30
4.4408920985006262e-15
10
-50.408664959027185
20
-19.814375771543933
30
2.2204460492503131e-15
10
-48.427181395192882
20
-19.688193339111454
30
2.2204460492503131e-15
10
-46.359864808476161
20
-19.562010906679021
30
0
10
-44.689768736645242
20
-19.435828474246595
30
0
10
-43.807131337268473
20
-19.309646041814162
30
2.2204460492503131e-15
10
-43.918191519797304
20
-19.183463609381736
30
4.4408920985006262e-15
10
-44.996998728607913
20
-19.05728117694926
30
6.6613381477509392e-15
10
-46.791476604358834
20
-18.931098744516881
30
4.4408920985006262e-15
10
-48.882323675810412
20
-18.804916312084398
30
4.4408920985006262e-15
10
-50.780988222686069
20
-18.678733879652015
30
4.4408920985006262e-15
10
-52.043824297240526
20
-18.552551447219585
30
4.4408920985006262e-15
10
-52.37575496865712
20
-18.426369014787156
30
4.4408920985006262e-15
10
-51.699220618756421
20
-18.300186582354677
30
2.2204460492503131e-15
10
-50.172301685358846
20
-18.174004149922251
30
2.2204460492503131e-15
10
-48.151781255003527
20
-18.047821717489864
30
2.2204460492503131e-15
10
-46.109778377229659
20
-17.921639285057388
30
4.4408920985006262e-15
10
-44.52343173538015
20
-17.795456852624962
30
2.2204460492503131e-15
10
-43.76341041923115
20
-17.669274420192529
30
6.6613381477509392e-15
10
-44.007302606564835
20
-17.5430919877601
30
4.4408920985006262e-15
10
-45.198119936402044
20
-17.41690955532767
30
6.6613381477509392e-15
10
-47.057613529127877
20
-17.290727122895241
30
4.4408920985006262e-15
10
-49.1512902045055
20
-17.164544690462854
30
4.4408920985006262e-15
10
-50.989937070952365
20
-17.038362258030379
30
2.2204460492503131e-15
10
-52.143932038273668
20
-16.912179825597949
30
6.6613381477509392e-15
10
-52.343630217007224
20
-16.785997393165523
30
4.4408920985006262e-15
10
-51.542369712074183
20
-16.65981496073309
30
4.4408920985006262e-15
10
-49.927374734672171
20
-16.533632528300664
30
2.2204460492503131e-15
10
-47.87600840928075
20
-16.407450095868231
30
2.2204460492503131e-15
10
-45.867597292775017
20
-16.281267663435806
30
0
10
-44.371430966600094
20
-16.15508523100338
30
2.2204460492503131e-15
10
-43.737106757119015
20
-16.028902798570947
30
2.2204460492503131e-15
10
-44.112842279168575
20
-15.902720366138468
30
4.4408920985006262e-15
10
-45.410842197556875
20
-15.776537933706045
30
4.4408920985006262e-15
10
-47.327813510585514
20
-15.650355501273658
30
2.2204460492503131e-15
10
-49.415831858187374
20
-15.524173068841179
30
4.4408920985006262e-15
10
-51.187008202539204
20
-15.397990636408792
30
2.2204460492503131e-15
10
-52.227482139905959
20
-15.27180820397632
30
4.4408920985006262e-15
10
-52.294141965820522
20
-15.145625771543889
30
2.2204460492503131e-15
10
-51.371395752016404
20
-15.019443339111458
30
2.2204460492503131e-15
10
-49.674888190283319
20
-14.893260906679032
30
4.4408920985006262e-15
10
-47.600957821553891
20
-14.767078474246645
30
0
10
-45.634356529607878
20
-14.640896041814129
30
0
10
-44.234304278002874
20
-14.514713609381786
30
2.2204460492503131e-15
10
-43.897343164501905
20
-14.430591987760133
30
4.4408920985006262e-15
10
-43.897343164501905
20
-14.388531176949311
30
4.4408920985006262e-15
0
CIRCLE
5
131
100
AcDbEntity
8
0
100
AcDbCircle
10
-52.334843164501883
20
-27.1613311769493
30
0
40
0.89999999999999947
210
1.3552527156068805e-20
220
3.753879245178212e-35
230
1
0
SPLINE
5
132
100
AcDbEntity
8
0
100
AcDbSpline
70
4
71
5
72
26
73
20
74
0
42
0.000000001
43
0.0000000001
44
0.0000000001
40
0
40
0
40
0
40
0
40
0
40
0
40
0.066666666666666666
40
0.13333333333333333
40
0.20000000000000001
40
0.26666666666666666
40
0.33333333333333331
40
0.39999999999999997
40
0.46666666666666662
40
0.53333333333333333
40
0.59999999999999998
40
0.66666666666666663
40
0.73333333333333328
40
0.79999999999999993
40
0.86666666666666659
40
0.93333333333333324
40
1
40
1
40
1
40
1
40
1
40
1
41
1
41
1
41
1
41
1
41
1
41
1
41
1
41
1
41
1
41
1
41
1
41
1
41
1
41
1
41
1
41
1
41
1
41
1
41
1
41
1
10
-41.086269455502702
20
4.2616515846890302
30
-4.2224915282483337
10
-41.241225356314416
20
4.3011939866915849
30
-3.8558568592010047
10
-41.51609802058347
20
4.2941714794012684
30
-3.1570818882184177
10
-41.823306512158929
20
4.0253453711236951
30
-2.212393756099829
10
-42.021040891485271
20
3.1463120701162577
30
-1.1613392165578853
10
-41.922924250519728
20
1.184246203879652
30
-0.19713865808095751
10
-41.516837646847108
20
-1.5924129755150276
30
0.4258864381290981
10
-40.896672846226487
20
-5.0436465059836157
30
0.74050565130692469
10
-40.208356756164754
20
-8.9449487808682431
30
0.8021794493529526
10
-39.626243725513589
20
-13.026264532576825
30
0.67836577092935546
10
-39.336928094126129
20
-16.997554441269177
30
0.44193279625717513
10
-39.519467117203341
20
-20.579324340222499
30
0.16357508094146928
10
-40.328198782764446
20
-23.528450599140772
30
-0.094316078154283875
10
-41.867667341581736
20
-25.67451664828284
30
-0.28570912523272973
10
-44.183319231048785
20
-26.933646954849753
30
-0.38415252994426297
10
-47.286161445819786
20
-27.274729226038271
30
-0.37613825038276366
10
-50.39078451917031
20
-26.814801754275415
30
-0.28096567467547817
10
-53.062775158234025
20
-26.064058184802008
30
-0.15972917013904575
10
-54.995664709280604
20
-25.384526317346797
30
-0.056909124965705188
10
-56.000000834465041
20
-25.00000037252903
30
0
0
SPLINE
5
133
100
AcDbEntity
8
0
100
AcDbSpline
70
4
71
5
72
31
73
25
74
0
42
0.000000001
43
0.0000000001
44
0.0000000001
40
0
40
0
40
0
40
0
40
0
40
0
40
0.050000000000000003
40
0.10000000000000001
40
0.15000000000000002
40
0.20000000000000001
40
0.25
40
0.29999999999999999
40
0.34999999999999998
40
0.39999999999999997
40
0.44999999999999996
40
0.49999999999999994
40
0.54999999999999993
40
0.59999999999999998
40
0.65000000000000002
40
0.70000000000000007
40
0.75000000000000011
40
0.80000000000000016
40
0.8500000000000002
40
0.90000000000000024
40
0.95000000000000029
40
1
40
1
40
1
40
1
40
1
40
1
41
1
41
1
41
1
41
1
41
1
41
1
41
1
41
1
41
1
41
1
41
1
41
1
41
1
41
1
41
1
41
1
41
1
41
1
41
1
41
1
41
1
41
1
41
1
41
1
41
1
10
-30.911319690250636
20
4.2616515846889946
30
-4.2233201732310803
10
-30.804381257039314
20
4.1909232996005885
30
-3.8647444604888301
10
-30.6016241659214
20
3.9830706375576557
30
-3.1823673778442378
10
-30.330847775066037
20
3.4721160436942595
30
-2.2631185934612104
10
-30.036803960257039
20
2.3907561010898943
30
-1.246992461628267
10
-29.783358493059598
20
0.37864043029741329
30
-0.3241348943186298
10
-29.648603884727635
20
-2.2597755629699794
30
0.26509062114771659
10
-29.639524248594007
20
-5.4388237664668981
30
0.55696682932689678
10
-29.765745221626286
20
-9.0150898569557221
30
0.61266436446631123
10
-30.03975808533702
20
-12.811200049292157
30
0.50586079032174203
10
-30.477047205605629
20
-16.631572889678189
30
0.31430404773489862
10
-31.096177604072675
20
-20.281124988072563
30
0.10982458975504375
10
-31.918707901529384
20
-23.581606546134019
30
-0.050285436950724786
10
-32.969194808842403
20
-26.391511928413674
30
-0.13416960319210239
10
-34.274489049759907
20
-28.61836366610785
30
-0.14099133159630092
10
-35.861040723951241
20
-30.205567524462644
30
-0.089002916662454912
10
-37.752243725498637
20
-31.124538931363617
30
-0.0067928939705726183
10
-39.965565745823028
20
-31.36599121108679
30
0.076197028480638584
10
-42.508983840934945
20
-30.932574082910406
30
0.1393572596122569
10
-45.383612416236822
20
-29.834041758654802
30
0.16977003827595274
10
-48.586530711326184
20
-28.08334654486108
30
0.16018519233217915
10
-51.40779109506753
20
-26.171205064474798
30
0.11800111669565505
10
-53.667485883878328
20
-24.453606567183247
30
0.066639298099255118
10
-55.237577358386417
20
-23.183057179083914
30
0.023668114134856894
10
-56.038530210383193
20
-22.516411501895107
30
0
0
SPLINE
5
134
100
AcDbEntity
8
0
100
AcDbSpline
70
4
71
5
72
41
73
35
74
0
42
0.000000001
43
0.0000000001
44
0.0000000001
40
0
40
0
40
0
40
0
40
0
40
0
40
0.033333333333333333
40
0.066666666666666666
40
0.10000000000000001
40
0.13333333333333333
40
0.16666666666666666
40
0.19999999999999998
40
0.23333333333333331
40
0.26666666666666666
40
0.29999999999999999
40
0.33333333333333331
40
0.36666666666666664
40
0.39999999999999997
40
0.43333333333333329
40
0.46666666666666662
40
0.49999999999999994
40
0.53333333333333333
40
0.56666666666666665
40
0.59999999999999998
40
0.6333333333333333
40
0.66666666666666663
40
0.69999999999999996
40
0.73333333333333328
40
0.76666666666666661
40
0.79999999999999993
40
0.83333333333333326
40
0.86666666666666659
40
0.89999999999999991
40
0.93333333333333324
40
0.96666666666666656
40
1
40
1
40
1
40
1
40
1
40
1
41
1
41
1
41
1
41
1
41
1
41
1
41
1
41
1
41
1
41
1
41
1
41
1
41
1
41
1
41
1
41
1
41
1
41
1
41
1
41
1
41
1
41
1
41
1
41
1
41
1
41
1
41
1
41
1
41
1
41
1
41
1
41
1
41
1
41
1
41
1
10
-17.086269535091823
20
4.2616515846890302
30
-4.2244460813399254
10
-17.211494467777563
20
4.2000377719791819
30
-3.893965598162636
10
-17.452983316841518
20
4.0116208644215767
30
-3.2622593995051168
10
-17.788334205732234
20
3.5334293500639049
30
-2.4024633224960263
10
-18.181600789745492
20
2.503985312081042
30
-1.4319222712937889
10
-18.585899874831398
20
0.5686140704091982
30
-0.5095788825695925
10
-18.911298846958086
20
-1.9947860489141624
30
0.13177341716587121
10
-19.175562822893475
20
-5.1390272714951282
30
0.51465987582839945
10
-19.408553298259406
20
-8.7814681825902028
30
0.67814995445884252
10
-19.64883414276277
20
-12.810078074192162
30
0.67184028095129344
10
-19.940931280846574
20
-17.087861670279434
30
0.55094382290984978
10
-20.332406411504266
20
-21.457451743085283
30
0.37098431175706881
10
-20.8709998974497
20
-25.745799729243558
30
0.18284213771638955
10
-21.601806288740107
20
-29.767732551002087
30
0.0273165628351386
10
-22.564221296464986
20
-33.332077436503681
30
-0.069403018037525174
10
-23.789342898561941
20
-36.241177072942669
30
-0.10268468391446524
10
-25.294965984708881
20
-38.320094799067952
30
-0.086131507133494961
10
-27.07918816457239
20
-39.462509969779788
30
-0.042562121820472441
10
-29.114208029771763
20
-39.672322434273639
30
0.0031953595080880101
10
-31.339914547262243
20
-39.107347985890122
30
0.032152413009246948
10
-33.656919919671871
20
-38.125296628748913
30
0.038952503345488942
10
-35.94977544015763
20
-37.18231732063218
30
0.027803063495601032
10
-38.112192797106999
20
-36.722804531748658
30
0.0079534207701866567
10
-40.068817683820797
20
-37.083818156708979
30
-0.010265661740316975
10
-41.805245080673885
20
-38.36552785890396
30
-0.020442199807093091
10
-43.36797177640554
20
-40.425799698780395
30
-0.0212772813637719
10
-44.838759891081274
20
-42.980539996891125
30
-0.014533176927214687
10
-46.315755802277479
20
-45.675888044632742
30
-0.0038721278536767217
10
-47.893669808620103
20
-48.164930237667846
30
0.0065512502033312475
10
-49.640297490093616
20
-50.197765176409384
30
0.013633153485008447
10
-51.593630283812082
20
-51.633754554443179
30
0.015638910655925278
10
-53.336474531815398
20
-52.249627265036267
30
0.012484208791028385
10
-54.747257662959541
20
-52.40287196886338
30
0.0073264132143778665
10
-55.733774064637089
20
-52.368059345259717
30
0.002648649948404917
10
-56.238530210383395
20
-52.316411501895089
30
-2.2204460492503131e-15
0
LINE
5
135
100
AcDbEntity
8
0
100
AcDbLine
10
-27.397489470745832
20
-31.002231346466175
30
0
11
-4.9974896193121898
21
-31.000407096920064
31
2.7105054312137611e-19
0
LINE
5
136
100
AcDbEntity
8
0
100
AcDbLine
10
-49.184843117563268
20
-46.601331176949287
30
0
11
-46.934843117563275
21
-46.601331176949287
31
3.326603315728649e-15
0
SPLINE
5
137
100
AcDbEntity
8
0
100
AcDbSpline
70
4
71
5
72
51
73
45
74
0
42
0.000000001
43
0.0000000001
44
0.0000000001
40
0
40
0
40
0
40
0
40
0
40
0
40
0.025000000000000001
40
0.050000000000000003
40
0.075000000000000011
40
0.10000000000000001
40
0.125
40
0.14999999999999999
40
0.17499999999999999
40
0.19999999999999998
40
0.22499999999999998
40
0.24999999999999997
40
0.27499999999999997
40
0.29999999999999999
40
0.32500000000000001
40
0.35000000000000003
40
0.37500000000000006
40
0.40000000000000008
40
0.4250000000000001
40
0.45000000000000012
40
0.47500000000000014
40
0.50000000000000011
40
0.52500000000000013
40
0.55000000000000016
40
0.57500000000000018
40
0.6000000000000002
40
0.62500000000000022
40
0.65000000000000024
40
0.67500000000000027
40
0.70000000000000029
40
0.72500000000000031
40
0.75000000000000033
40
0.77500000000000036
40
0.80000000000000038
40
0.8250000000000004
40
0.85000000000000042
40
0.87500000000000044
40
0.90000000000000047
40
0.92500000000000049
40
0.95000000000000051
40
0.97500000000000053
40
1
40
1
40
1
40
1
40
1
40
1
41
1
41
1
41
1
41
1
41
1
41
1
41
1
41
1
41
1
41
1
41
1
41
1
41
1
41
1
41
1
41
1
41
1
41
1
41
1
41
1
41
1
41
1
41
1
41
1
41
1
41
1
41
1
41
1
41
1
41
1
41
1
41
1
41
1
41
1
41
1
41
1
41
1
41
1
41
1
41
1
41
1
41
1
41
1
41
1
41
1
10
-6.9113197698397695
20
4.2616515846889902
30
-4.2252747263226809
10
-6.7352645171634045
20
4.2569633756270182
30
-3.8788238007353075
10
-6.4233292723318183
20
4.1861741021886179
30
-3.2187479263043883
10
-6.0759488813302198
20
3.8957597745248074
30
-2.327109451878318
10
-5.8540940925754628
20
3.1396339300151084
30
-1.3354318574551927
10
-5.9729849938908419
20
1.5933035705554053
30
-0.42013668081646888
10
-6.4681573638306684
20
-0.51067632994592771
30
0.18543754630076462
10
-7.2968357464231968
20
-3.0798376753465133
30
0.51280087790536544
10
-8.3888717502880112
20
-5.9645272238345273
30
0.61362352475268356
10
-9.6575923797970127
20
-8.9874048004367335
30
0.55094692927305311
10
-11.008175621225378
20
-11.967132895001168
30
0.39229382935627632
10
-12.346780080131147
20
-14.74348842537758
30
0.20225874916510855
10
-13.589698398864908
20
-17.203750361167177
30
0.034900450090344592
10
-14.671688899965208
20
-19.304459363587675
30
-0.072820638136215837
10
-15.556850213386603
20
-21.106168868560417
30
-0.11061277297051927
10
-16.238803204887223
20
-22.753594299203364
30
-0.091744724607045025
10
-16.733839189419964
20
-24.418966544626258
30
-0.041451109695504779
10
-17.076359256006523
20
-26.258293823597963
30
0.01175047265750245
10
-17.313293455209859
20
-28.358399835578485
30
0.046614251806058153
10
-17.499539844853182
20
-30.699169135602418
30
0.056869895644646763
10
-17.696640687689488
20
-33.18795766059899
30
0.045957634084622639
10
-17.971047692546591
20
-35.684945674195731
30
0.023383654307619055
10
-18.392747036121559
20
-38.032037034265109
30
0.00039171747158156403
10
-19.033326732292334
20
-40.079447256513802
30
-0.013848898858737704
10
-19.965413108584382
20
-41.715070255750504
30
-0.016841407015494282
10
-21.248391252951002
20
-42.875830043116082
30
-0.011121748965854581
10
-22.910740939993573
20
-43.557860704988883
30
-0.00160519832452353
10
-24.935669114505174
20
-43.824860400722194
30
0.0065479941722758929
10
-27.23956171564414
20
-43.823746156569797
30
0.010659797988475082
10
-29.691636360819164
20
-43.75500265715344
30
0.010390166665918741
10
-32.144316436673691
20
-43.831291195847754
30
0.0068424906975974014
10
-34.461204511233973
20
-44.238173913922139
30
0.001901390264552437
10
-36.543128040192968
20
-45.098230815536624
30
-0.0024666737529163451
10
-38.362410964845616
20
-46.422730937598899
30
-0.00503245693635819
10
-39.963963644019074
20
-48.112453970508639
30
-0.0055084851482136484
10
-41.437441579716648
20
-50.001183100693936
30
-0.0041965197300845285
10
-42.897230748433238
20
-51.887727427612461
30
-0.0017901770295124413
10
-44.460519631828028
20
-53.570572876821814
30
0.00087256248569621731
10
-46.223464943578769
20
-54.885837392580427
30
0.003061993346891822
10
-48.247188809931274
20
-55.729246538732092
30
0.0043165804707427282
10
-50.568181544036371
20
-56.03867987753646
30
0.0043563190633823974
10
-52.676549308722109
20
-55.835656393706287
30
0.0033092282098781509
10
-54.401664036932971
20
-55.426014497750984
30
0.0018978039253395502
10
-55.615598306850565
20
-55.03865671238043
30
0.00067892505619042485
10
-56.238530210383416
20
-54.816411501895089
30
-2.2204460492503131e-15
0
ENDSEC
0
SECTION
2
OBJECTS
0
DICTIONARY
5
C
100
AcDbDictionary
3
ACAD_GROUP
350
D
3
ACAD_MLINESTYLE
350
17
0
DICTIONARY
5
D
100
AcDbDictionary
0
DICTIONARY
5
1A
330
C
100
AcDbDictionary
0
DICTIONARY
5
17
100
AcDbDictionary
0
ENDSEC
0
EOF
