0
SECTION
2
HEADER
9
$INSUNITS
70
4
9
$ACADVER
1
AC1014
9
$HANDSEED
5
FFFF
0
ENDSEC
0
SECTION
2
TABLES
0
TABLE
2
VPORT
5
8
100
AcDbSymbolTable
0
ENDTAB
0
TABLE
2
LTYPE
5
5
100
AcDbSymbolTable
0
LTYPE
5
14
100
AcDbSymbolTableRecord
100
AcDbLinetypeTableRecord
2
BYBLOCK
70
0
0
LTYPE
5
15
100
AcDbSymbolTableRecord
100
AcDbLinetypeTableRecord
2
BYLAYER
70
0
0
ENDTAB
0
TABLE
2
LAYER
5
2
100
AcDbSymbolTable
70
2
0
LAYER
5
50
100
AcDbSymbolTableRecord
100
AcDbLayerTableRecord
2
0
70
0
6
CONTINUOUS
0
ENDTAB
0
TABLE
2
STYLE
5
3
100
AcDbSymbolTable
70
1
0
STYLE
5
11
100
AcDbSymbolTableRecord
100
AcDbTextStyleTableRecord
2
STANDARD
70
0
0
ENDTAB
0
TABLE
2
VIEW
5
6
100
AcDbSymbolTable
70
0
0
ENDTAB
0
TABLE
2
UCS
5
7
100
AcDbSymbolTable
70
0
0
ENDTAB
0
TABLE
2
APPID
5
9
100
AcDbSymbolTable
70
2
0
APPID
5
12
100
AcDbSymbolTableRecord
100
AcDbRegAppTableRecord
2
ACAD
70
0
0
ENDTAB
0
TABLE
2
DIMSTYLE
5
A
100
AcDbSymbolTable
70
1
0
ENDTAB
0
TABLE
2
BLOCK_RECORD
5
1
100
AcDbSymbolTable
70
1
0
BLOCK_RECORD
5
1F
100
AcDbSymbolTableRecord
100
AcDbBlockTableRecord
2
*MODEL_SPACE
0
BLOCK_RECORD
5
1B
100
AcDbSymbolTableRecord
100
AcDbBlockTableRecord
2
*PAPER_SPACE
0
ENDTAB
0
ENDSEC
0
SECTION
2
BLOCKS
0
BLOCK
5
20
100
AcDbEntity
100
AcDbBlockBegin
2
*MODEL_SPACE
0
ENDBLK
5
21
100
AcDbEntity
100
AcDbBlockEnd
0
BLOCK
5
1C
100
AcDbEntity
100
AcDbBlockBegin
2
*PAPER_SPACE
0
ENDBLK
5
1D
100
AcDbEntity
100
AcDbBlockEnd
0
ENDSEC
0
SECTION
2
ENTITIES
0
LWPOLYLINE
5
100
100
AcDbEntity
8
0
100
AcDbPolyline
90
4
70
1
43
0.0
10
-66.500000000024386
20
46.000000685453415
10
-77.50000000288648
20
46.000000685883428
10
-77.500000002456474
20
39.500000589025873
10
-66.500000000024386
20
39.500000588595867
0
LWPOLYLINE
5
101
100
AcDbEntity
8
0
100
AcDbPolyline
90
4
70
1
43
0.0
10
-42.500000000024379
20
46.000000685453415
10
-53.500000002886495
20
46.000000685883428
10
-53.500000002456488
20
39.500000589025873
10
-42.500000000024379
20
39.500000588595867
0
LWPOLYLINE
5
102
100
AcDbEntity
8
0
100
AcDbPolyline
90
4
70
1
43
0.0
10
-29.500000002456481
20
39.500000589025873
10
-18.500000000024382
20
39.500000588595867
10
-18.500000000024382
20
46.000000685453415
10
-29.500000002886484
20
46.000000685883428
0
LWPOLYLINE
5
103
100
AcDbEntity
8
0
100
AcDbPolyline
90
106
70
1
43
0.0
10
-95.999999999933863
20
36.500000588595888
10
-93.000000357627854
20
39.500000588595867
10
-90.500000000024386
20
39.500000588595867
10
-90.500000000024386
20
46.000000685453415
10
-95.000000357627869
20
46.000000685453415
10
-95.000000357627869
20
47.000000700354576
10
-86.110034998413738
20
46.999999998630777
10
-86.110034998413738
20
46.999502895295883
10
-86.110034998413752
20
34.392750174766164
10
-82.110034998413752
20
34.392750174766164
10
-82.110034998413738
20
46.999502895295883
10
-82.110034998413752
20
46.999999998627082
10
-62.110034998413759
20
46.999999998630777
10
-62.110034998413752
20
46.999502895295883
10
-62.110034998413767
20
34.392750174766164
10
-58.110034998413767
20
34.392750174766164
10
-58.110034998413759
20
46.999502895295883
10
-58.110034998413759
20
46.999999998627082
10
-38.110034998413752
20
46.999999998630777
10
-38.110034998413752
20
46.999502895295883
10
-38.110034998413759
20
34.392750174766164
10
-34.110034998413767
20
34.392750174766164
10
-34.110034998413745
20
46.999502895295883
10
-34.110034998413752
20
46.999999998627082
10
-14.110034998413752
20
46.999999998630777
10
-14.110034998413749
20
46.999502895295883
10
-14.110034998413761
20
34.392750174766164
10
-10.110034998413761
20
34.392750174766164
10
-10.110034998413749
20
46.999502895295883
10
-10.110034998413751
20
46.999999998627082
10
-0.99999999999999112
20
46.999999998617724
10
-0.99999964528300178
20
46.000000686247276
10
-5.5000000028864875
20
46.000000685883428
10
-5.5000000024564795
20
39.500000589025873
10
-2.999999999999996
20
39.500000589191259
10
-4.9432680171435095e-12
20
36.500000589389728
10
0
20
0
10
-2.814106666604943
20
-9.4249164028781252e-10
10
-2.814106666604943
20
6.5000000968575087
10
-11.000000163912773
20
6.5000000968575105
10
-11.000000163912773
20
22.000000327825546
10
-2.9999999572833347
20
32.000000476837151
10
-2.9999996894241643
20
37.500000559388937
10
-5.5000000023241675
20
37.500000559223551
10
-5.4999999999999964
20
32.000000476837151
10
-12.000000154973701
20
23.875000371906122
10
-18.500000000024382
20
32.000000476837158
10
-18.500000000024382
20
37.500000558793545
10
-21.000000312924385
20
37.500000558793545
10
-21.000000312924385
20
32.000000476837151
10
-13.000000193715096
20
22.000000327825546
10
-13.000000193715094
20
6.5000000968575078
10
-21.186193405704941
20
6.5000000968575087
10
-21.186193405704941
20
-9.4249182238185102e-10
10
-26.814106666604943
20
-9.4249164028781252e-10
10
-26.814106666604943
20
6.5000000968575087
10
-35.000000163912773
20
6.5000000968575105
10
-35.000000163912773
20
22.000000327825546
10
-26.999999957283336
20
32.000000476837151
10
-26.999999689424161
20
37.500000559388937
10
-29.500000002324171
20
37.500000559223551
10
-29.499999999999993
20
32.000000476837151
10
-36.000000154973705
20
23.875000371906122
10
-42.500000000024379
20
32.000000476837158
10
-42.500000000024379
20
37.500000558793545
10
-45.000000312924385
20
37.500000558793545
10
-45.000000312924385
20
32.000000476837151
10
-37.000000193715096
20
22.000000327825546
10
-37.000000193715088
20
6.5000000968575078
10
-45.186193405704948
20
6.5000000968575087
10
-45.186193405704948
20
-9.4249182238185102e-10
10
-50.81410666660495
20
-9.4249164028781252e-10
10
-50.81410666660495
20
6.5000000968575087
10
-59.00000016391278
20
6.5000000968575105
10
-59.00000016391278
20
22.000000327825546
10
-50.999999957283336
20
32.000000476837151
10
-50.999999689424172
20
37.500000559388937
10
-53.500000002324171
20
37.500000559223551
10
-53.500000000000007
20
32.000000476837151
10
-60.000000154973705
20
23.875000371906122
10
-66.500000000024386
20
32.000000476837158
10
-66.500000000024386
20
37.500000558793545
10
-69.000000312924385
20
37.500000558793545
10
-69.000000312924385
20
32.000000476837151
10
-61.000000193715103
20
22.000000327825546
10
-61.000000193715103
20
6.5000000968575078
10
-69.186193405704941
20
6.5000000968575087
10
-69.186193405704941
20
-9.4249182238185102e-10
10
-74.814106666604943
20
-9.4249164028781252e-10
10
-74.814106666604943
20
6.5000000968575087
10
-83.000000163912773
20
6.5000000968575105
10
-83.000000163912773
20
22.000000327825546
10
-74.999999957283322
20
32.000000476837151
10
-74.999999689424158
20
37.500000559388937
10
-77.500000002324157
20
37.500000559223551
10
-77.499999999999986
20
32.000000476837151
10
-84.000000154973691
20
23.875000371906122
10
-90.500000000024386
20
32.000000476837158
10
-90.500000000024386
20
37.500000558793545
10
-93.000000312924385
20
37.500000558793545
10
-93.000000312924385
20
32.000000476837151
10
-85.000000193715096
20
22.000000327825546
10
-85.000000193715096
20
6.5000000968575078
10
-93.186193405733846
20
6.5000000968575087
10
-93.186193405733846
20
-9.4249182238185102e-10
10
-95.999999999933863
20
-9.4249497095688639e-10
0
SPLINE
5
104
100
AcDbEntity
8
0
100
AcDbSpline
70
6
71
5
72
101
73
95
74
0
42
0.000000001
43
0.0000000001
44
0.0000000001
40
0
40
0
40
0
40
0
40
0
40
0
40
0.011111111111111112
40
0.022222222222222223
40
0.033333333333333333
40
0.044444444444444446
40
0.055555555555555559
40
0.066666666666666666
40
0.077777777777777779
40
0.088888888888888892
40
0.10000000000000001
40
0.11111111111111112
40
0.12222222222222223
40
0.13333333333333333
40
0.14444444444444443
40
0.15555555555555553
40
0.16666666666666663
40
0.17777777777777773
40
0.18888888888888883
40
0.19999999999999993
40
0.21111111111111103
40
0.22222222222222213
40
0.23333333333333323
40
0.24444444444444433
40
0.25555555555555542
40
0.26666666666666655
40
0.27777777777777768
40
0.28888888888888881
40
0.29999999999999993
40
0.31111111111111106
40
0.32222222222222219
40
0.33333333333333331
40
0.34444444444444444
40
0.35555555555555557
40
0.3666666666666667
40
0.37777777777777782
40
0.38888888888888895
40
0.40000000000000008
40
0.4111111111111112
40
0.42222222222222233
40
0.43333333333333346
40
0.44444444444444459
40
0.45555555555555571
40
0.46666666666666684
40
0.47777777777777797
40
0.48888888888888909
40
0.50000000000000022
40
0.51111111111111129
40
0.52222222222222237
40
0.53333333333333344
40
0.54444444444444451
40
0.55555555555555558
40
0.56666666666666665
40
0.57777777777777772
40
0.5888888888888888
40
0.59999999999999987
40
0.61111111111111094
40
0.62222222222222201
40
0.63333333333333308
40
0.64444444444444415
40
0.65555555555555522
40
0.6666666666666663
40
0.67777777777777737
40
0.68888888888888844
40
0.69999999999999951
40
0.71111111111111058
40
0.72222222222222165
40
0.73333333333333273
40
0.7444444444444438
40
0.75555555555555487
40
0.76666666666666594
40
0.77777777777777701
40
0.78888888888888808
40
0.79999999999999916
40
0.81111111111111023
40
0.8222222222222213
40
0.83333333333333237
40
0.84444444444444344
40
0.85555555555555451
40
0.86666666666666559
40
0.87777777777777666
40
0.88888888888888773
40
0.8999999999999988
40
0.91111111111110987
40
0.92222222222222094
40
0.93333333333333202
40
0.94444444444444309
40
0.95555555555555416
40
0.96666666666666523
40
0.9777777777777763
40
0.98888888888888737
40
1
40
1
40
1
40
1
40
1
40
1
41
1
41
1
41
1
41
1
41
1
41
1
41
1
41
1
41
1
41
1
41
1
41
1
41
1
41
1
41
1
41
1
41
1
41
1
41
1
41
1
41
1
41
1
41
1
41
1
41
1
41
1
41
1
41
1
41
1
41
1
41
1
41
1
41
1
41
1
41
1
41
1
41
1
41
1
41
1
41
1
41
1
41
1
41
1
41
1
41
1
41
1
41
1
41
1
41
1
41
1
41
1
41
1
41
1
41
1
41
1
41
1
41
1
41
1
41
1
41
1
41
1
41
1
41
1
41
1
41
1
41
1
41
1
41
1
41
1
41
1
41
1
41
1
41
1
41
1
41
1
41
1
41
1
41
1
41
1
41
1
41
1
41
1
41
1
41
1
41
1
41
1
41
1
41
1
41
1
41
1
41
1
41
1
41
1
41
1
41
1
10
-95.420332353775521
20
42.482601325691569
30
0
10
-95.322878211180978
20
43.508785663136422
30
-1.6785745359805945e-17
10
-95.11077288591153
20
45.547824407183526
30
-4.6590268627053788e-17
10
-94.732376214809676
20
48.563738588869924
30
-7.8546065326634719e-17
10
-94.066939147509814
20
52.483888519381246
30
-9.3868248635643375e-17
10
-92.864457599348796
20
57.132085334753775
30
-7.7003973887685939e-17
10
-91.213514171852438
20
61.386680468938899
30
-4.1485914729607632e-17
10
-89.091005503253598
20
65.0239815707275
30
-6.1937257664270629e-18
10
-86.549658138981641
20
67.737497388352509
30
1.3957924722410168e-17
10
-83.76096834413184
20
69.079872594489984
30
1.5747085493009933e-17
10
-80.970693929022417
20
68.629707036342495
30
6.2175039680537624e-18
10
-78.404772054746061
20
66.263266655975443
30
-4.4131889982152127e-18
10
-76.17287822162794
20
62.476289559098319
30
-9.168560867684434e-18
10
-74.228262797964121
20
58.421421050781177
30
-7.7434952088892674e-18
10
-72.444434652500618
20
55.383991651201683
30
-2.9129386791201563e-18
10
-70.662927888969932
20
54.408787148656785
30
1.3130990074188163e-18
10
-68.757184012936236
20
55.814419614135495
30
2.4679890753967968e-18
10
-66.676029419385742
20
58.911175119153853
30
1.306480174633215e-18
10
-64.421681766393021
20
62.515444445254587
30
-2.0575609178665658e-19
10
-62.03661292989775
20
65.329683291932184
30
-1.618036409426069e-19
10
-59.587057921684377
20
66.423164802737546
30
1.202091838889374e-18
10
-57.148036301930496
20
65.494002620030244
30
1.5570793443120439e-18
10
-54.789199824104756
20
62.797689587370286
30
-1.0106960147669715e-18
10
-52.558742113330581
20
59.217091397772364
30
-5.3415921106640057e-18
10
-50.474625636102388
20
56.039714446619953
30
-7.3599414495317355e-18
10
-48.521424108373658
20
54.457805888314283
30
-3.6315343055648979e-18
10
-46.647852894295539
20
55.192203244989003
30
6.4678079871061821e-18
10
-44.758557280257477
20
57.94566640863944
30
1.6946172618587705e-17
10
-42.741465495353893
20
61.637673918899793
30
1.8673386782763934e-17
10
-40.511586812709623
20
64.939724226332075
30
6.1922645567113801e-18
10
-38.044690338668566
20
66.687158769064553
30
-1.7773726734067338e-17
10
-35.427029451306453
20
66.406894427665748
30
-3.3846989512058873e-17
10
-32.807623174994795
20
64.267182688611257
30
-2.0658668550487049e-17
10
-30.335194994524521
20
60.899830939256248
30
2.8967126127812014e-17
10
-28.0889987788558
20
57.28625933769527
30
8.5371263266844884e-17
10
-26.068874892925628
20
54.511461452041843
30
9.7654266972727617e-17
10
-24.216464348337542
20
53.4569759091316
30
3.046584224153579e-17
10
-22.427302548070184
20
54.531840739108262
30
-1.0902981220544195e-16
10
-20.564417705047511
20
57.337535589507326
30
-2.3214164809583577e-16
10
-18.498235457172086
20
60.940564807039479
30
-2.2826788889670416e-16
10
-16.151820808050616
20
64.227586744659334
30
-3.8598667676092324e-17
10
-13.542754654161557
20
66.226429840825546
30
2.7782035709292409e-16
10
-10.830237186749264
20
66.454036044362113
30
4.6776484429855262e-16
10
-8.2373353282537192
20
64.793861881903936
30
2.3229812443850389e-16
10
-5.9731829101242955
20
61.364428485285401
30
-6.2652102010534092e-16
10
-4.1465549063385509
20
56.381998394302698
30
-2.0387601794243098e-15
10
-2.7766541918409744
20
50.125500164486645
30
-3.7189647835012462e-15
10
-1.8180662777973555
20
42.917138688655506
30
-5.2503619448699295e-15
10
-1.1805877774747544
20
35.097511772592711
30
-6.1574112426731772e-15
10
-0.75127786839361299
20
27.00292589407465
30
-5.9837638995040433e-15
10
-0.41527918473883008
20
18.942100857346134
30
-4.3665824247205228e-15
10
-0.077740131534724644
20
11.172354377744337
30
-1.115544370039544e-15
10
0.3160894189849468
20
3.8777764124704643
30
3.7172250768937205e-15
10
0.75636103545640521
20
-2.8582541714451235
30
9.7442251237294293e-15
10
1.1776084178337212
20
-9.036369255397771
30
1.6325871903126231e-14
10
1.4742702832216286
20
-14.715848735002719
30
2.2688202961547168e-14
10
1.5139264867694862
20
-19.99226924156325
30
2.8028797312926414e-14
10
1.15143863346297
20
-24.974023986604088
30
3.1627001427456023e-14
10
0.24275792932178564
20
-29.75911817137662
30
3.295372461807912e-14
10
-1.341290025470552
20
-34.412381270870782
30
3.1778313243052701e-14
10
-3.7007541043359367
20
-38.941015131888157
30
2.828575980441336e-14
10
-6.9029285941227627
20
-43.305986615008003
30
2.2976422021085877e-14
10
-10.979249526249033
20
-47.435492967719327
30
1.6552996982429372e-14
10
-15.922099161535661
20
-51.237530168833601
30
9.8134676356237043e-15
10
-21.681319216965186
20
-54.613075001019737
30
3.5390709960024627e-15
10
-28.161496552664786
20
-57.46840366082553
30
-1.6096174241307975e-15
10
-35.217224523921814
20
-59.729208414960418
30
-5.2145302588575061e-15
10
-42.654447947199039
20
-61.349423578907931
30
-7.1687198122437171e-15
10
-50.2492205289849
20
-62.305068531296328
30
-7.5938042945473087e-15
10
-57.763260251075231
20
-62.59081770095753
30
-6.7849580921727242e-15
10
-64.960827692719519
20
-62.215493462395472
30
-5.1449495504414483e-15
10
-71.624869362229248
20
-61.198074260195298
30
-3.1234917329276177e-15
10
-77.573880141710276
20
-59.563398823484903
30
-1.1531460103794517e-15
10
-82.677574384922835
20
-57.33822780291311
30
4.1044421305982017e-16
10
-86.875291138666398
20
-54.546631707605741
30
1.3570478762419394e-15
10
-90.186639598047861
20
-51.207270093536721
30
1.6659348916447816e-15
10
-92.688275827079821
20
-47.338930892330609
30
1.4441590764609256e-15
10
-94.495824544466075
20
-42.96475729533752
30
8.8081220916729865e-16
10
-95.743265535172313
20
-38.117273983164495
30
1.9345832087812493e-16
10
-96.564731655668822
20
-32.842428328987701
30
-4.1820696735944382e-16
10
-97.071964962987863
20
-27.20571839983403
30
-8.3156132165100147e-16
10
-97.350693575576614
20
-21.2889408605905
30
-1.004511744367114e-15
10
-97.466285329826249
20
-15.18233815589539
30
-9.5165218989799554e-16
10
-97.466519341362783
20
-8.9781225221901941
30
-7.2888331282793137e-16
10
-97.38545598339131
20
-2.7635948238029293
30
-4.1484424950400644e-16
10
-97.247013819969993
20
3.3859398720494611
30
-9.3080371406967304e-17
10
-97.068217330422684
20
9.4133003726427873
30
1.64560761524781e-16
10
-96.863698880086531
20
15.288185227296665
30
3.1892248395813213e-16
10
-96.644522881700055
20
21.004708721885251
30
3.6497482938066512e-16
10
-96.413256004035901
20
26.571565213082945
30
3.2033514260490463e-16
10
-96.16014804673236
20
32.004437467249346
30
2.1767856115683507e-16
10
-95.919121051623705
20
36.254834823143149
30
1.1998270730260763e-16
10
-95.695497741478746
20
39.390718382514144
30
5.4124203531787164e-17
10
-95.517786496370064
20
41.456416988246559
30
1.6785745359808235e-17
10
-95.420332353775521
20
42.482601325691569
30
0
0
ELLIPSE
5
105
100
AcDbEntity
8
0
100
AcDbEllipse
10
-43.63916288037359
20
-15.000000000191553
30
0
11
-2.8865875966450641e-14
21
-45
31
0.0
40
0.9999999966837867
41
1.1102230246251565e-16
42
0.7853981633974485
0
ELLIPSE
5
106
100
AcDbEntity
8
0
100
AcDbEllipse
10
-71.000000082849951
20
-35.000000000191555
30
0
11
-4.4408920837736817e-15
21
-25
31
0.0
40
0.9999999966837867
41
4.7123889803846897
42
6.2831853071795862
0
ELLIPSE
5
107
100
AcDbEntity
8
0
100
AcDbEllipse
10
-71.000000082849951
20
-35.000000000191555
30
0
11
-4.4408920837736817e-15
21
-25
31
0.0
40
0.9999999966837867
41
4.7123889803846897
42
6.2831853071795862
0
SPLINE
5
108
100
AcDbEntity
8
0
100
AcDbSpline
70
0
71
3
72
36
73
32
74
0
42
0.000000001
43
0.0000000001
44
0.0000000001
40
162.21386713537146
40
162.21386713537146
40
162.21386713537146
40
162.21386713537146
40
162.34672933396288
40
162.34672933396288
40
163.37926972915301
40
163.37926972915301
40
164.38615136759836
40
164.38615136759836
40
165.95531654853968
40
165.95531654853968
40
167.3731084733945
40
167.3731084733945
40
168.95516164786707
40
168.95516164786707
40
171.72710436873396
40
171.72710436873396
40
171.72710436873396
40
175.11602754209042
40
175.11602754209042
40
178.08998862908476
40
178.08998862908476
40
178.08998862908476
40
180.56660744889848
40
180.56660744889848
40
181.94902527758623
40
181.94902527758623
40
184.34840929500956
40
184.34840929500956
40
185.19109930153121
40
185.19109930153121
40
187.38008876848522
40
187.38008876848522
40
187.38008876848522
40
187.38008876848522
10
-96.813770781702857
20
42.529487291749959
30
0
10
-96.831774551050088
20
42.403720259441009
30
0
10
-96.849428459612326
20
42.277611553268855
30
0
10
-97.001268334788179
20
41.168861402565682
30
0
10
-97.115215992413809
20
40.168628889572616
30
0
10
-97.306578608325395
20
38.180136370734743
30
0
10
-97.384835252316549
20
37.191555292648296
30
0
10
-97.549288576153174
20
34.670404562555994
30
0
10
-97.615466263082226
20
33.143481393404315
30
0
10
-97.69222763807953
20
30.241000465511355
30
0
10
-97.70836855645193
20
28.865317489291002
30
0
10
-97.714010109501942
20
25.958883085998163
30
0
10
-97.700136883331069
20
24.428011741899624
30
0
10
-97.633203241928769
20
20.219276239315995
30
0
10
-97.558868244759026
20
17.5462722831811
30
0
10
-97.475987697849732
20
14.873753910491638
30
0
10
-97.37466229907541
20
11.606472237641059
30
0
10
-97.259479983089832
20
8.3219478577119439
30
0
10
-97.045162805805361
20
2.1779816438459041
30
0
10
-96.948213362209856
20
-0.66509508735978662
30
0
10
-96.902638523928829
20
-3.4903781955800834
30
0
10
-96.864690329452984
20
-5.8429467622441216
30
0
10
-96.861923909509002
20
-8.2022388330316982
30
0
10
-96.924875619557213
20
-11.885917196330041
30
0
10
-96.960817205799628
20
-13.206562633277073
30
0
10
-97.101018332099628
20
-16.818126167829476
30
0
10
-97.238716515997297
20
-19.111412346727121
30
0
10
-97.492652161424971
20
-22.220863039549073
30
0
10
-97.564760175725212
20
-23.03374060336294
30
0
10
-97.838039656193473
20
-25.972735312725369
30
0
10
-98.067470667713081
20
-28.117010577556883
30
0
10
-98.254373985988082
20
-30.246986337484159
30
0
0
ENDSEC
0
SECTION
2
OBJECTS
0
DICTIONARY
5
C
100
AcDbDictionary
3
ACAD_GROUP
350
D
3
ACAD_MLINESTYLE
350
17
0
DICTIONARY
5
D
100
AcDbDictionary
0
DICTIONARY
5
1A
330
C
100
AcDbDictionary
0
DICTIONARY
5
17
100
AcDbDictionary
0
ENDSEC
0
EOF
