0
SECTION
2
HEADER
9
$INSUNITS
70
4
9
$ACADVER
1
AC1014
9
$HANDSEED
5
FFFF
0
ENDSEC
0
SECTION
2
TABLES
0
TABLE
2
VPORT
5
8
100
AcDbSymbolTable
0
ENDTAB
0
TABLE
2
LTYPE
5
5
100
AcDbSymbolTable
0
LTYPE
5
14
100
AcDbSymbolTableRecord
100
AcDbLinetypeTableRecord
2
BYBLOCK
70
0
0
LTYPE
5
15
100
AcDbSymbolTableRecord
100
AcDbLinetypeTableRecord
2
BYLAYER
70
0
0
ENDTAB
0
TABLE
2
LAYER
5
2
100
AcDbSymbolTable
70
2
0
LAYER
5
50
100
AcDbSymbolTableRecord
100
AcDbLayerTableRecord
2
0
70
0
6
CONTINUOUS
0
ENDTAB
0
TABLE
2
STYLE
5
3
100
AcDbSymbolTable
70
1
0
STYLE
5
11
100
AcDbSymbolTableRecord
100
AcDbTextStyleTableRecord
2
STANDARD
70
0
0
ENDTAB
0
TABLE
2
VIEW
5
6
100
AcDbSymbolTable
70
0
0
ENDTAB
0
TABLE
2
UCS
5
7
100
AcDbSymbolTable
70
0
0
ENDTAB
0
TABLE
2
APPID
5
9
100
AcDbSymbolTable
70
2
0
APPID
5
12
100
AcDbSymbolTableRecord
100
AcDbRegAppTableRecord
2
ACAD
70
0
0
ENDTAB
0
TABLE
2
DIMSTYLE
5
A
100
AcDbSymbolTable
70
1
0
ENDTAB
0
TABLE
2
BLOCK_RECORD
5
1
100
AcDbSymbolTable
70
1
0
BLOCK_RECORD
5
1F
100
AcDbSymbolTableRecord
100
AcDbBlockTableRecord
2
*MODEL_SPACE
0
BLOCK_RECORD
5
1B
100
AcDbSymbolTableRecord
100
AcDbBlockTableRecord
2
*PAPER_SPACE
0
ENDTAB
0
ENDSEC
0
SECTION
2
BLOCKS
0
BLOCK
5
20
100
AcDbEntity
100
AcDbBlockBegin
2
*MODEL_SPACE
0
ENDBLK
5
21
100
AcDbEntity
100
AcDbBlockEnd
0
BLOCK
5
1C
100
AcDbEntity
100
AcDbBlockBegin
2
*PAPER_SPACE
0
ENDBLK
5
1D
100
AcDbEntity
100
AcDbBlockEnd
0
ENDSEC
0
SECTION
2
ENTITIES
0
LWPOLYLINE
5
100
100
AcDbEntity
8
0
100
AcDbPolyline
90
13
70
1
43
0.0
10
-5.0003018120847837
20
10.000407273888769
10
-8.0005461318203857
20
7.0006516135233685
10
-27.400546067480288
20
7.0022316121536594
10
-27.399145243952393
20
24.202231555109858
10
-32.3991452273699
20
24.202638771251689
10
-32.398949763621822
20
26.602638763292088
10
-27.398949780204326
20
26.602231547150254
10
-27.398591429999513
20
31.002231532557655
10
-4.998591504289112
20
31.000407204242272
10
-4.9989498544939215
20
26.600407218834874
10
0.0010501289235791353
20
26.600000002693044
10
0.00085466517550147891
20
24.200000010652644
10
-4.9991453182419985
20
24.200407226794471
0
SPLINE
5
101
100
AcDbEntity
8
0
100
AcDbSpline
70
4
71
5
72
41
73
35
74
0
42
0.000000001
43
0.0000000001
44
0.0000000001
40
0
40
0
40
0
40
0
40
0
40
0
40
0.033333333333333333
40
0.066666666666666666
40
0.10000000000000001
40
0.13333333333333333
40
0.16666666666666666
40
0.19999999999999998
40
0.23333333333333331
40
0.26666666666666666
40
0.29999999999999999
40
0.33333333333333331
40
0.36666666666666664
40
0.39999999999999997
40
0.43333333333333329
40
0.46666666666666662
40
0.49999999999999994
40
0.53333333333333333
40
0.56666666666666665
40
0.59999999999999998
40
0.6333333333333333
40
0.66666666666666663
40
0.69999999999999996
40
0.73333333333333328
40
0.76666666666666661
40
0.79999999999999993
40
0.83333333333333326
40
0.86666666666666659
40
0.89999999999999991
40
0.93333333333333324
40
0.96666666666666656
40
1
40
1
40
1
40
1
40
1
40
1
41
1
41
1
41
1
41
1
41
1
41
1
41
1
41
1
41
1
41
1
41
1
41
1
41
1
41
1
41
1
41
1
41
1
41
1
41
1
41
1
41
1
41
1
41
1
41
1
41
1
41
1
41
1
41
1
41
1
41
1
41
1
41
1
41
1
41
1
41
1
10
-7.0105160167597038
20
7.9905204437351829
30
-5.3500000529965419
10
-6.6708556112730051
20
7.615520307490188
30
-5.3806696605399376
10
-6.0996146784108509
20
6.9235667293801502
30
-5.4123645393218256
10
-5.5670328676854774
20
6.0598408526943439
30
-5.3709332205982712
10
-5.5063100723131964
20
5.2566862550480886
30
-5.1377751455265619
10
-6.4921695017484824
20
4.8046895937792176
30
-4.5705078356077422
10
-8.4591613030378472
20
4.8003378474612859
30
-3.7999758922623412
10
-11.259248799994484
20
5.0663974510751473
30
-2.9509851646154974
10
-14.69901116392017
20
5.40365496604685
30
-2.1706797367715183
10
-18.553296268877396
20
5.6275984607939842
30
-1.6073575906056135
10
-22.581932358031594
20
5.6132346790511356
30
-1.3848533169167618
10
-26.544710972317688
20
5.3314202384837719
30
-1.5807950740665433
10
-30.217437654577818
20
4.9033514388134192
30
-2.1973035976010378
10
-33.404747734621935
20
4.56144933550822
30
-3.1693046320246063
10
-35.951761659260065
20
4.5810504443988984
30
-4.384828334153096
10
-37.757252600006069
20
5.2198180735912825
30
-5.7010411074866028
10
-38.784955605393932
20
6.6591073278756587
30
-6.9614189028447884
10
-39.0805031317893
20
8.9312740037466458
30
-8.0129953861372663
10
-38.772508564861759
20
11.894641608020359
30
-8.721093073705056
10
-38.042220984141622
20
15.30399467882431
30
-8.9788709456724565
10
-37.100825528382458
20
18.858551771647225
30
-8.7178422455318909
10
-36.163301175112572
20
22.260253633743243
30
-7.9192319000358005
10
-35.425656671565775
20
25.263015038347962
30
-6.6234243623255793
10
-35.036119908611482
20
27.737627449369832
30
-4.9459678060421979
10
-35.096520810086254
20
29.659849510167305
30
-3.0593815847586239
10
-35.673808199891084
20
31.072734018644852
30
-1.1633010460316204
10
-36.807903736903008
20
32.057936419629996
30
0.54138293046493047
10
-38.520699570000275
20
32.704056873221454
30
1.8796371687005109
10
-40.824426322902298
20
33.075642771027127
30
2.7299336108154031
10
-43.724271932570097
20
33.216271804973985
30
3.0149624515373343
10
-47.220575137723614
20
33.152932894586947
30
2.6913613334842923
10
-50.492928359060329
20
32.950452064667545
30
1.9304328834327642
10
-53.213231569213157
20
32.715634937732382
30
1.0755377392737047
10
-55.144792520561332
20
32.522286679940862
30
0.37952618616331424
10
-56.14007936896418
20
32.416411706813513
30
0
0
ELLIPSE
5
102
100
AcDbEntity
8
0
100
AcDbEllipse
10
-56.14007936896418
20
32.416411706813513
30
1.3877787807814457e-16
11
-2.4615398622033572e-09
21
-0.69999999999999396
31
0.0
40
0.99999999668378681
41
0
42
6.2831853071795862
0
SPLINE
5
103
100
AcDbEntity
8
0
100
AcDbSpline
70
4
71
5
72
41
73
35
74
0
42
0.000000001
43
0.0000000001
44
0.0000000001
40
0
40
0
40
0
40
0
40
0
40
0
40
0.033333333333333333
40
0.066666666666666666
40
0.10000000000000001
40
0.13333333333333333
40
0.16666666666666666
40
0.19999999999999998
40
0.23333333333333331
40
0.26666666666666666
40
0.29999999999999999
40
0.33333333333333331
40
0.36666666666666664
40
0.39999999999999997
40
0.43333333333333329
40
0.46666666666666662
40
0.49999999999999994
40
0.53333333333333333
40
0.56666666666666665
40
0.59999999999999998
40
0.6333333333333333
40
0.66666666666666663
40
0.69999999999999996
40
0.73333333333333328
40
0.76666666666666661
40
0.79999999999999993
40
0.83333333333333326
40
0.86666666666666659
40
0.89999999999999991
40
0.93333333333333324
40
0.96666666666666656
40
1
40
1
40
1
40
1
40
1
40
1
41
1
41
1
41
1
41
1
41
1
41
1
41
1
41
1
41
1
41
1
41
1
41
1
41
1
41
1
41
1
41
1
41
1
41
1
41
1
41
1
41
1
41
1
41
1
41
1
41
1
41
1
41
1
41
1
41
1
41
1
41
1
41
1
41
1
41
1
41
1
10
-7.010516016759702
20
7.9905204380976258
30
-6.2000000529965416
10
-6.6664236334458291
20
7.8241837413037167
30
-6.3691726735210992
10
-6.0448310390551709
20
7.48148106863772
30
-6.6668121904440572
10
-5.3122182930337676
20
6.9373402961384842
30
-6.99113654085882
10
-4.7356803162251273
20
6.1515272672532317
30
-7.179010589608942
10
-4.6862751139296579
20
5.0983659241233292
30
-7.0197839744052528
10
-5.3132842670956357
20
4.0643099340071478
30
-6.5145359984831197
10
-6.6208203970679271
20
3.2282003582588019
30
-5.7575942365994957
10
-8.5847637469485214
20
2.7378024335986777
30
-4.8972356253997953
10
-11.137676359338327
20
2.668446546443267
30
-4.112931398887965
10
-14.127254892899385
20
2.812428568267566
30
-3.6711163888058578
10
-17.360643972906619
20
3.0356661521563169
30
-3.7068332084419282
10
-20.638683584796929
20
3.3378963217481008
30
-4.2152574761913364
10
-23.766596292762777
20
3.77695586264932
30
-5.1033934305222752
10
-26.574405396872677
20
4.4521269219851849
30
-6.2146176049260395
10
-28.933732452967448
20
5.4618659672207617
30
-7.3645797938732818
10
-30.77556226205925
20
6.8738522477503743
30
-8.3711601343653861
10
-32.110604571576559
20
8.686159267847998
30
-9.0887827674108195
10
-33.011426117088824
20
10.84212710226835
30
-9.4125590918504258
10
-33.591194591778574
20
13.24893242041057
30
-9.2801653478928667
10
-33.983895705073309
20
15.794678447284557
30
-8.67506244088956
10
-34.324636971676469
20
18.365494355872293
30
-7.6291970517963135
10
-34.728872719098113
20
20.86352049496913
30
-6.2274556154040539
10
-35.292787131887223
20
23.206763036968233
30
-4.5928713416499294
10
-36.095271230165189
20
25.327573213055004
30
-2.8706885091875947
10
-37.199150477025881
20
27.171774253091595
30
-1.2129345708507864
10
-38.652581942360172
20
28.697638199797694
30
0.23676169567892094
10
-40.490137000876544
20
29.875145824291813
30
1.3593089981557909
10
-42.734020646686929
20
30.685101963021776
30
2.0736857369345216
10
-45.396859739118568
20
31.116668043318437
30
2.328332476661839
10
-48.484224617237217
20
31.165149625391543
30
2.0948761558555224
10
-51.294529549283688
20
30.896883719391596
30
1.5079677323173704
10
-53.593188194830645
20
30.523490774182299
30
0.84173465407597126
10
-55.210331596592184
20
30.198170075897693
30
0.29729262719740851
10
-56.040079377735346
20
30.016411706461867
30
1.214306433183765e-16
0
ELLIPSE
5
104
100
AcDbEntity
8
0
100
AcDbEllipse
10
-56.040079377735346
20
30.016411706461867
30
1.3877787807814457e-16
11
-2.4615398622033887e-09
21
-0.70000000000000284
31
0.0
40
0.99999999668378681
41
0
42
6.2831853071795862
0
SPLINE
5
105
100
AcDbEntity
8
0
100
AcDbSpline
70
4
71
5
72
26
73
20
74
0
42
0.000000001
43
0.0000000001
44
0.0000000001
40
0
40
0
40
0
40
0
40
0
40
0
40
0.066666666666666666
40
0.13333333333333333
40
0.20000000000000001
40
0.26666666666666666
40
0.33333333333333331
40
0.39999999999999997
40
0.46666666666666662
40
0.53333333333333333
40
0.59999999999999998
40
0.66666666666666663
40
0.73333333333333328
40
0.79999999999999993
40
0.86666666666666659
40
0.93333333333333324
40
1
40
1
40
1
40
1
40
1
40
1
41
1
41
1
41
1
41
1
41
1
41
1
41
1
41
1
41
1
41
1
41
1
41
1
41
1
41
1
41
1
41
1
41
1
41
1
41
1
41
1
10
-56.040079377735346
20
30.016411706461867
30
1.214306433183765e-16
10
-56.241894363113801
20
29.914702101794191
30
0.06768846338355472
10
-56.631495991781193
20
29.716344234136407
30
0.17647971974135201
10
-57.173812368921759
20
29.43399261243605
30
0.2598963414093885
10
-57.812125876911303
20
29.088104894952505
30
0.21053255868178231
10
-58.465678249868525
20
28.707851428796967
30
-0.11552994558738443
10
-58.972408728130183
20
28.380588279443057
30
-0.6814484728142739
10
-59.332268226199183
20
28.106533689002468
30
-1.4315442692167502
10
-59.551372096189745
20
27.883298491778827
30
-2.2524233610590789
10
-59.639497699906769
20
27.709874300749835
30
-3.0147823859520746
10
-59.605384475354278
20
27.592090102119901
30
-3.6391034906791537
10
-59.452310747867152
20
27.54972753847273
30
-4.1684787034779855
10
-59.175511335035395
20
27.618966568607487
30
-4.8165393193444359
10
-58.777115870957708
20
27.81591266658512
30
-5.6862165559632505
10
-58.260539974352767
20
28.149492985705947
30
-6.8499223839528467
10
-57.630491819922732
20
28.621247085357325
30
-8.3376804176865082
10
-57.039028636996505
20
29.108032350610557
30
-9.7957593755308761
10
-56.547630292301335
20
29.533460731182196
30
-11.0389498152401
10
-56.198937825632356
20
29.843709053121096
30
-11.933808349643755
10
-56.019318316170363
20
30.005490249682421
30
-12.397751394245669
0
SPLINE
5
106
100
AcDbEntity
8
0
100
AcDbSpline
70
4
71
5
72
26
73
20
74
0
42
0.000000001
43
0.0000000001
44
0.0000000001
40
0
40
0
40
0
40
0
40
0
40
0
40
0.066666666666666666
40
0.13333333333333333
40
0.20000000000000001
40
0.26666666666666666
40
0.33333333333333331
40
0.39999999999999997
40
0.46666666666666662
40
0.53333333333333333
40
0.59999999999999998
40
0.66666666666666663
40
0.73333333333333328
40
0.79999999999999993
40
0.86666666666666659
40
0.93333333333333324
40
1
40
1
40
1
40
1
40
1
40
1
41
1
41
1
41
1
41
1
41
1
41
1
41
1
41
1
41
1
41
1
41
1
41
1
41
1
41
1
41
1
41
1
41
1
41
1
41
1
41
1
10
-56.14007936896418
20
32.416411706813513
30
0
10
-56.47532759933366
20
32.394841210719932
30
-0.041103627921622768
10
-57.110351904241519
20
32.363891983816409
30
-0.11321698420515149
10
-57.956466940214838
20
32.354047140891929
30
-0.19109922331694451
10
-58.870272955585023
20
32.414578641312048
30
-0.23397868508703459
10
-59.65126322144507
20
32.61191847254095
30
-0.19061935311963737
10
-60.076219981094958
20
32.921348257058945
30
-0.070048357854607973
10
-60.16761365735438
20
33.31998414186922
30
0.08579210447221744
10
-59.980531801814806
20
33.761977494743107
30
0.19811764251353503
10
-59.596074842398892
20
34.184480682757396
30
0.16184688092544822
10
-59.099421837563312
20
34.524184467206496
30
-0.12705759987505952
10
-58.559617055436973
20
34.734015492255594
30
-0.74297583358509167
10
-58.023449548569637
20
34.786997331686379
30
-1.7247680688626881
10
-57.522345304856017
20
34.668869233718432
30
-3.0894888127458353
10
-57.074914143767536
20
34.374929840407525
30
-4.8384597152118474
10
-56.690795225211716
20
33.906033964787575
30
-6.9646513094025249
10
-56.436931313753583
20
33.393828213062861
30
-8.9591873223799219
10
-56.27665379206212
20
32.934241636840639
30
-10.616255623338159
10
-56.183091103839203
20
32.594568723885374
30
-11.792077152570217
10
-56.139632077976415
20
32.416411706811942
30
-12.397765435722301
0
ENDSEC
0
SECTION
2
OBJECTS
0
DICTIONARY
5
C
100
AcDbDictionary
3
ACAD_GROUP
350
D
3
ACAD_MLINESTYLE
350
17
0
DICTIONARY
5
D
100
AcDbDictionary
0
DICTIONARY
5
1A
330
C
100
AcDbDictionary
0
DICTIONARY
5
17
100
AcDbDictionary
0
ENDSEC
0
EOF
