0
SECTION
2
HEADER
9
$INSUNITS
70
4
9
$ACADVER
1
AC1014
9
$HANDSEED
5
FFFF
0
ENDSEC
0
SECTION
2
TABLES
0
TABLE
2
VPORT
5
8
100
AcDbSymbolTable
0
ENDTAB
0
TABLE
2
LTYPE
5
5
100
AcDbSymbolTable
0
LTYPE
5
14
100
AcDbSymbolTableRecord
100
AcDbLinetypeTableRecord
2
BYBLOCK
70
0
0
LTYPE
5
15
100
AcDbSymbolTableRecord
100
AcDbLinetypeTableRecord
2
BYLAYER
70
0
0
ENDTAB
0
TABLE
2
LAYER
5
2
100
AcDbSymbolTable
70
2
0
LAYER
5
50
100
AcDbSymbolTableRecord
100
AcDbLayerTableRecord
2
0
70
0
6
CONTINUOUS
0
ENDTAB
0
TABLE
2
STYLE
5
3
100
AcDbSymbolTable
70
1
0
STYLE
5
11
100
AcDbSymbolTableRecord
100
AcDbTextStyleTableRecord
2
STANDARD
70
0
0
ENDTAB
0
TABLE
2
VIEW
5
6
100
AcDbSymbolTable
70
0
0
ENDTAB
0
TABLE
2
UCS
5
7
100
AcDbSymbolTable
70
0
0
ENDTAB
0
TABLE
2
APPID
5
9
100
AcDbSymbolTable
70
2
0
APPID
5
12
100
AcDbSymbolTableRecord
100
AcDbRegAppTableRecord
2
ACAD
70
0
0
ENDTAB
0
TABLE
2
DIMSTYLE
5
A
100
AcDbSymbolTable
70
1
0
ENDTAB
0
TABLE
2
BLOCK_RECORD
5
1
100
AcDbSymbolTable
70
1
0
BLOCK_RECORD
5
1F
100
AcDbSymbolTableRecord
100
AcDbBlockTableRecord
2
*MODEL_SPACE
0
BLOCK_RECORD
5
1B
100
AcDbSymbolTableRecord
100
AcDbBlockTableRecord
2
*PAPER_SPACE
0
ENDTAB
0
ENDSEC
0
SECTION
2
BLOCKS
0
BLOCK
5
20
100
AcDbEntity
100
AcDbBlockBegin
2
*MODEL_SPACE
0
ENDBLK
5
21
100
AcDbEntity
100
AcDbBlockEnd
0
BLOCK
5
1C
100
AcDbEntity
100
AcDbBlockBegin
2
*PAPER_SPACE
0
ENDBLK
5
1D
100
AcDbEntity
100
AcDbBlockEnd
0
ENDSEC
0
SECTION
2
ENTITIES
0
LWPOLYLINE
5
100
100
AcDbEntity
8
0
100
AcDbPolyline
90
4
70
1
43
0.0
10
-66.500000000024386
20
46.000000685453415
10
-77.50000000288648
20
46.000000685883428
10
-77.500000002456474
20
39.500000589025873
10
-66.500000000024386
20
39.500000588595867
0
LWPOLYLINE
5
101
100
AcDbEntity
8
0
100
AcDbPolyline
90
4
70
1
43
0.0
10
-42.500000000024379
20
46.000000685453415
10
-53.500000002886495
20
46.000000685883428
10
-53.500000002456488
20
39.500000589025873
10
-42.500000000024379
20
39.500000588595867
0
LWPOLYLINE
5
102
100
AcDbEntity
8
0
100
AcDbPolyline
90
4
70
1
43
0.0
10
-29.500000002456481
20
39.500000589025873
10
-18.500000000024382
20
39.500000588595867
10
-18.500000000024382
20
46.000000685453415
10
-29.500000002886484
20
46.000000685883428
0
LWPOLYLINE
5
103
100
AcDbEntity
8
0
100
AcDbPolyline
90
106
70
1
43
0.0
10
-95.999999999933863
20
36.500000588595888
10
-93.000000357627854
20
39.500000588595867
10
-90.500000000024386
20
39.500000588595867
10
-90.500000000024386
20
46.000000685453415
10
-95.000000357627869
20
46.000000685453415
10
-95.000000357627869
20
47.000000700354576
10
-86.110034998413738
20
46.999999998630777
10
-86.110034998413738
20
46.999502895295883
10
-86.110034998413752
20
34.392750174766164
10
-82.110034998413752
20
34.392750174766164
10
-82.110034998413738
20
46.999502895295883
10
-82.110034998413752
20
46.999999998627082
10
-62.110034998413759
20
46.999999998630777
10
-62.110034998413752
20
46.999502895295883
10
-62.110034998413767
20
34.392750174766164
10
-58.110034998413767
20
34.392750174766164
10
-58.110034998413759
20
46.999502895295883
10
-58.110034998413759
20
46.999999998627082
10
-38.110034998413752
20
46.999999998630777
10
-38.110034998413752
20
46.999502895295883
10
-38.110034998413759
20
34.392750174766164
10
-34.110034998413767
20
34.392750174766164
10
-34.110034998413745
20
46.999502895295883
10
-34.110034998413752
20
46.999999998627082
10
-14.110034998413752
20
46.999999998630777
10
-14.110034998413749
20
46.999502895295883
10
-14.110034998413761
20
34.392750174766164
10
-10.110034998413761
20
34.392750174766164
10
-10.110034998413749
20
46.999502895295883
10
-10.110034998413751
20
46.999999998627082
10
-0.99999999999999112
20
46.999999998617724
10
-0.99999964528300178
20
46.000000686247276
10
-5.5000000028864875
20
46.000000685883428
10
-5.5000000024564795
20
39.500000589025873
10
-2.999999999999996
20
39.500000589191259
10
-4.9432680171435095e-12
20
36.500000589389728
10
-4.9432680171435095e-12
20
-9.4249182238185102e-10
10
-2.814106666604943
20
-9.4249164028781252e-10
10
-2.814106666604943
20
6.5000000968575087
10
-11.000000163912773
20
6.5000000968575078
10
-11.000000163912773
20
22.000000327825546
10
-2.9999999572833347
20
32.000000476837151
10
-2.9999996894241643
20
37.500000559388937
10
-5.5000000023241675
20
37.500000559223551
10
-5.4999999999999964
20
32.000000476837151
10
-12.000000154973701
20
23.875000371906122
10
-18.500000000024382
20
32.000000476837158
10
-18.500000000024382
20
37.500000558793545
10
-21.000000312924385
20
37.500000558793545
10
-21.000000312924385
20
32.000000476837151
10
-13.000000193715096
20
22.000000327825546
10
-13.000000193715094
20
6.5000000968575078
10
-21.186193405704941
20
6.5000000968575087
10
-21.186193405704941
20
-9.4249182238185102e-10
10
-26.814106666604943
20
-9.4249164028781252e-10
10
-26.814106666604943
20
6.5000000968575087
10
-35.000000163912773
20
6.5000000968575078
10
-35.000000163912773
20
22.000000327825546
10
-26.999999957283336
20
32.000000476837151
10
-26.999999689424161
20
37.500000559388937
10
-29.500000002324171
20
37.500000559223551
10
-29.499999999999993
20
32.000000476837151
10
-36.000000154973705
20
23.875000371906122
10
-42.500000000024379
20
32.000000476837158
10
-42.500000000024379
20
37.500000558793545
10
-45.000000312924385
20
37.500000558793545
10
-45.000000312924385
20
32.000000476837151
10
-37.000000193715096
20
22.000000327825546
10
-37.000000193715088
20
6.5000000968575078
10
-45.186193405704948
20
6.5000000968575087
10
-45.186193405704948
20
-9.4249182238185102e-10
10
-50.81410666660495
20
-9.4249164028781252e-10
10
-50.81410666660495
20
6.5000000968575087
10
-59.00000016391278
20
6.5000000968575078
10
-59.00000016391278
20
22.000000327825546
10
-50.999999957283336
20
32.000000476837151
10
-50.999999689424172
20
37.500000559388937
10
-53.500000002324171
20
37.500000559223551
10
-53.500000000000007
20
32.000000476837151
10
-60.000000154973705
20
23.875000371906122
10
-66.500000000024386
20
32.000000476837158
10
-66.500000000024386
20
37.500000558793545
10
-69.000000312924385
20
37.500000558793545
10
-69.000000312924385
20
32.000000476837151
10
-61.000000193715103
20
22.000000327825546
10
-61.000000193715103
20
6.5000000968575078
10
-69.186193405704941
20
6.5000000968575087
10
-69.186193405704941
20
-9.4249182238185102e-10
10
-74.814106666604943
20
-9.4249164028781252e-10
10
-74.814106666604943
20
6.5000000968575087
10
-83.000000163912773
20
6.5000000968575078
10
-83.000000163912773
20
22.000000327825546
10
-74.999999957283322
20
32.000000476837151
10
-74.999999689424158
20
37.500000559388937
10
-77.500000002324157
20
37.500000559223551
10
-77.499999999999986
20
32.000000476837151
10
-84.000000154973691
20
23.875000371906122
10
-90.500000000024386
20
32.000000476837158
10
-90.500000000024386
20
37.500000558793545
10
-93.000000312924385
20
37.500000558793545
10
-93.000000312924385
20
32.000000476837151
10
-85.000000193715096
20
22.000000327825546
10
-85.000000193715096
20
6.5000000968575078
10
-93.186193405733846
20
6.5000000968575087
10
-93.186193405733846
20
-9.4249182238185102e-10
10
-95.999999999933863
20
-9.4249497095688639e-10
0
ENDSEC
0
SECTION
2
OBJECTS
0
DICTIONARY
5
C
100
AcDbDictionary
3
ACAD_GROUP
350
D
3
ACAD_MLINESTYLE
350
17
0
DICTIONARY
5
D
100
AcDbDictionary
0
DICTIONARY
5
1A
330
C
100
AcDbDictionary
0
DICTIONARY
5
17
100
AcDbDictionary
0
ENDSEC
0
EOF
