0
SECTION
2
HEADER
9
$INSUNITS
70
4
9
$ACADVER
1
AC1014
9
$HANDSEED
5
FFFF
0
ENDSEC
0
SECTION
2
TABLES
0
TABLE
2
VPORT
5
8
100
AcDbSymbolTable
0
ENDTAB
0
TABLE
2
LTYPE
5
5
100
AcDbSymbolTable
0
LTYPE
5
14
100
AcDbSymbolTableRecord
100
AcDbLinetypeTableRecord
2
BYBLOCK
70
0
0
LTYPE
5
15
100
AcDbSymbolTableRecord
100
AcDbLinetypeTableRecord
2
BYLAYER
70
0
0
ENDTAB
0
TABLE
2
LAYER
5
2
100
AcDbSymbolTable
70
2
0
LAYER
5
50
100
AcDbSymbolTableRecord
100
AcDbLayerTableRecord
2
0
70
0
6
CONTINUOUS
0
ENDTAB
0
TABLE
2
STYLE
5
3
100
AcDbSymbolTable
70
1
0
STYLE
5
11
100
AcDbSymbolTableRecord
100
AcDbTextStyleTableRecord
2
STANDARD
70
0
0
ENDTAB
0
TABLE
2
VIEW
5
6
100
AcDbSymbolTable
70
0
0
ENDTAB
0
TABLE
2
UCS
5
7
100
AcDbSymbolTable
70
0
0
ENDTAB
0
TABLE
2
APPID
5
9
100
AcDbSymbolTable
70
2
0
APPID
5
12
100
AcDbSymbolTableRecord
100
AcDbRegAppTableRecord
2
ACAD
70
0
0
ENDTAB
0
TABLE
2
DIMSTYLE
5
A
100
AcDbSymbolTable
70
1
0
ENDTAB
0
TABLE
2
BLOCK_RECORD
5
1
100
AcDbSymbolTable
70
1
0
BLOCK_RECORD
5
1F
100
AcDbSymbolTableRecord
100
AcDbBlockTableRecord
2
*MODEL_SPACE
0
BLOCK_RECORD
5
1B
100
AcDbSymbolTableRecord
100
AcDbBlockTableRecord
2
*PAPER_SPACE
0
ENDTAB
0
ENDSEC
0
SECTION
2
BLOCKS
0
BLOCK
5
20
100
AcDbEntity
100
AcDbBlockBegin
2
*MODEL_SPACE
0
ENDBLK
5
21
100
AcDbEntity
100
AcDbBlockEnd
0
BLOCK
5
1C
100
AcDbEntity
100
AcDbBlockBegin
2
*PAPER_SPACE
0
ENDBLK
5
1D
100
AcDbEntity
100
AcDbBlockEnd
0
ENDSEC
0
SECTION
2
ENTITIES
0
LWPOLYLINE
5
100
100
AcDbEntity
8
0
100
AcDbPolyline
90
6
70
1
43
0.0
10
-3.7999999150633812
20
-1.449999964237213
10
-3.7999999150633812
20
1.3499999664723872
42
0.41421354927974735
10
-3.9499999083578583
20
1.4999999664723873
42
0.41421356237309503
10
-4.0999999083578587
20
1.3499999664723872
10
-4.0999999083578587
20
-1.449999964237213
42
0.41421354927974735
10
-3.9499999150633816
20
-1.5999999642372131
42
0.41421356237309503
0
LWPOLYLINE
5
101
100
AcDbEntity
8
0
100
AcDbPolyline
90
6
70
1
43
0.0
10
-0.39999999105930328
20
1.2499999687075614
10
-0.39999999105930328
20
-1.449999964237213
42
0.41421356237309498
10
-0.24999999105930332
20
-1.5999999642372129
42
0.41421354927974796
10
-0.099999997764825821
20
-1.449999964237213
10
-0.099999997764825821
20
1.2499999687075616
42
0.41421356237309498
10
-0.24999999776482579
20
1.3999999687075613
42
0.41421354927974796
0
CIRCLE
5
102
100
AcDbEntity
8
0
100
AcDbCircle
10
4.0999999083578587
20
20.699999537318945
30
0
40
0.23000029731065019
210
0
220
0
230
1
0
CIRCLE
5
103
100
AcDbEntity
8
0
100
AcDbCircle
10
-6.100000289734453
20
17.670000839279965
30
0
40
0.22000001044943929
210
0
220
0
230
1
0
CIRCLE
5
104
100
AcDbEntity
8
0
100
AcDbCircle
10
3.2800001557916403
20
5.3100002522114664
30
0
40
0.21000000997446477
210
0
220
0
230
1
0
CIRCLE
5
105
100
AcDbEntity
8
0
100
AcDbCircle
10
3.0900001467671245
20
-6.3500003016088158
30
0
40
0.21000000997446477
210
0
220
0
230
1
0
CIRCLE
5
106
100
AcDbEntity
8
0
100
AcDbCircle
10
1.9000000902451575
20
7.9300003766547889
30
0
40
0.23086793857794219
210
0
220
0
230
1
0
CIRCLE
5
107
100
AcDbEntity
8
0
100
AcDbCircle
10
1.2499999720603228
20
-2.8999999351799488
30
0
40
0.19999999552965164
210
0
220
0
230
1
0
CIRCLE
5
108
100
AcDbEntity
8
0
100
AcDbCircle
10
-3.7300001771654934
20
-3.3300001581665128
30
0
40
0.2300000109244138
210
0
220
0
230
1
0
CIRCLE
5
109
100
AcDbEntity
8
0
100
AcDbCircle
10
-1.4499999675899744
20
6.5499998535960913
30
0
40
0.19999999552965164
210
0
220
0
230
1
0
CIRCLE
5
110
100
AcDbEntity
8
0
100
AcDbCircle
10
-2.8900001372676343
20
-13.420000637415797
30
0
40
0.25000001187436283
210
0
220
0
230
1
0
CIRCLE
5
111
100
AcDbEntity
8
0
100
AcDbCircle
10
2.2300001059193164
20
-14.07000066828914
30
0
40
0.29152726065578616
210
0
220
0
230
1
0
CIRCLE
5
112
100
AcDbEntity
8
0
100
AcDbCircle
10
-4.7500002256128937
20
-12.080000573769212
30
0
40
0.21260292635278955
210
0
220
0
230
1
0
CIRCLE
5
113
100
AcDbEntity
8
0
100
AcDbCircle
10
-2.0000000949949026
20
-14.530000690137967
30
0
40
0.26000001234933734
210
0
220
0
230
1
0
CIRCLE
5
114
100
AcDbEntity
8
0
100
AcDbCircle
10
0.20000000949949026
20
-13.900000660214573
30
0
40
0.2828427259089269
210
0
220
0
230
1
0
CIRCLE
5
115
100
AcDbEntity
8
0
100
AcDbCircle
10
-0.6100000289734453
20
-12.450000591343269
30
0
40
0.1649242328581868
210
0
220
0
230
1
0
LWPOLYLINE
5
116
100
AcDbEntity
8
0
100
AcDbPolyline
90
6
70
1
43
0.0
10
3.7999999172985555
20
-7.6999998278915882
10
3.7999999172985555
20
-8.0499998144805431
42
0.41421356237309503
10
4.0499999172985559
20
-8.2999998144805431
10
4.8499998882412907
20
-8.2999998144805449
42
0.41421356237309503
10
5.0999998882412907
20
-8.0499998144805431
10
5.0999998882412907
20
-7.6999998278915882
0
LWPOLYLINE
5
117
100
AcDbEntity
8
0
100
AcDbPolyline
90
6
70
1
43
0.0
10
3.7999999172985555
20
-5.1499998904764643
10
3.7999999172985555
20
-5.599999874830246
10
5.0999998882412907
20
-5.599999874830246
10
5.0999998882412907
20
-5.1499998904764652
42
0.41421356237309503
10
4.8499998882412907
20
-4.8999998904764652
10
4.0499999172985559
20
-4.8999998904764643
42
0.41421356237309503
0
LWPOLYLINE
5
118
100
AcDbEntity
8
0
100
AcDbPolyline
90
16
70
1
43
0.0
10
-4.0999999083578587
20
-19.599999561905861
10
-4.0999999083578587
20
-20.299999546259642
10
-6.6000000000000014
20
-20.300000000000004
42
-0.41421356237309492
10
-8.6000000000000014
20
-18.300000000000001
10
-8.5999999999999996
20
19.5
42
-0.41421356237309459
10
-6.6000000000000014
20
21.5
10
6.7000000000000011
20
21.5
42
-0.41421356237309392
10
8.7000000000000011
20
19.499999999999996
10
8.7000000000000011
20
-18.299999999999997
42
-0.4142135623730957
10
6.6999999999999993
20
-20.299999999999997
10
-3.5999999195337296
20
-20.299999546259642
10
-3.5999999195337296
20
-19.599999561905861
10
-3.3999999240040779
20
-19.599999561905861
10
-3.3999999240040779
20
-16.699999626725912
10
-4.999999888241291
20
-16.699999626725912
10
-4.999999888241291
20
-19.599999561905861
0
CIRCLE
5
119
100
AcDbEntity
8
0
100
AcDbCircle
10
-6.6000000000000005
20
-18.300000000000001
30
0
40
1.25
210
0
220
0
230
1
0
CIRCLE
5
120
100
AcDbEntity
8
0
100
AcDbCircle
10
-6.6000000000000005
20
19.5
30
0
40
1.25
210
0
220
0
230
1
0
CIRCLE
5
121
100
AcDbEntity
8
0
100
AcDbCircle
10
6.7000000000000011
20
-18.299999999999997
30
0
40
1.25
210
0
220
0
230
1
0
CIRCLE
5
122
100
AcDbEntity
8
0
100
AcDbCircle
10
6.6999999999999957
20
19.499999999999993
30
0
40
1.25
210
0
220
0
230
1
0
CIRCLE
5
123
100
AcDbEntity
8
0
100
AcDbCircle
10
7.2999998368322849
20
-15.699999649077654
30
0
40
0.89999997988343239
210
0
220
0
230
1
0
CIRCLE
5
124
100
AcDbEntity
8
0
100
AcDbCircle
10
7.3999998368322846
20
-5.7999996490776518
30
0
40
0.89999997988343239
210
0
220
0
230
1
0
CIRCLE
5
125
100
AcDbEntity
8
0
100
AcDbCircle
10
7.4999998368322851
20
4.2000003509223518
30
0
40
0.89999997988343239
210
0
220
0
230
1
0
CIRCLE
5
126
100
AcDbEntity
8
0
100
AcDbCircle
10
7.4999998368322851
20
14.100000350922352
30
0
40
0.89999997988343239
210
0
220
0
230
1
0
CIRCLE
5
127
100
AcDbEntity
8
0
100
AcDbCircle
10
-7.2999998368322849
20
-10.699999649077654
30
0
40
0.89999997988343239
210
0
220
0
230
1
0
CIRCLE
5
128
100
AcDbEntity
8
0
100
AcDbCircle
10
-7.3999998368322846
20
-0.74999964907764838
30
0
40
0.89999997988343239
210
0
220
0
230
1
0
CIRCLE
5
129
100
AcDbEntity
8
0
100
AcDbCircle
10
-7.4999998368322851
20
9.1000003509223504
30
0
40
0.89999997988343239
210
0
220
0
230
1
0
CIRCLE
5
130
100
AcDbEntity
8
0
100
AcDbCircle
10
-7.4999998368322851
20
16.60000035092235
30
0
40
0.89999997988343239
210
0
220
0
230
1
0
CIRCLE
5
131
100
AcDbEntity
8
0
100
AcDbCircle
10
-7.3999998368322846
20
6.7000003509223527
30
0
40
0.89999997988343239
210
0
220
0
230
1
0
CIRCLE
5
132
100
AcDbEntity
8
0
100
AcDbCircle
10
-7.3999998368322846
20
-3.2999996490776518
30
0
40
0.89999997988343239
210
0
220
0
230
1
0
CIRCLE
5
133
100
AcDbEntity
8
0
100
AcDbCircle
10
-7.2999998368322849
20
-13.199999649077654
30
0
40
0.89999997988343239
210
0
220
0
230
1
0
CIRCLE
5
134
100
AcDbEntity
8
0
100
AcDbCircle
10
7.4999998368322851
20
11.600000350922352
30
0
40
0.89999997988343239
210
0
220
0
230
1
0
CIRCLE
5
135
100
AcDbEntity
8
0
100
AcDbCircle
10
7.3999998368322846
20
1.7000003509223516
30
0
40
0.89999997988343239
210
0
220
0
230
1
0
CIRCLE
5
136
100
AcDbEntity
8
0
100
AcDbCircle
10
7.3999998368322846
20
-8.1999996490776521
30
0
40
0.89999997988343239
210
0
220
0
230
1
0
CIRCLE
5
137
100
AcDbEntity
8
0
100
AcDbCircle
10
7.2999998368322849
20
-13.199999649077654
30
0
40
0.89999997988343239
210
0
220
0
230
1
0
CIRCLE
5
138
100
AcDbEntity
8
0
100
AcDbCircle
10
7.3999998368322846
20
-3.2999996490776509
30
0
40
0.89999997988343239
210
0
220
0
230
1
0
CIRCLE
5
139
100
AcDbEntity
8
0
100
AcDbCircle
10
7.3999998368322846
20
6.7000003509223518
30
0
40
0.89999997988343239
210
0
220
0
230
1
0
CIRCLE
5
140
100
AcDbEntity
8
0
100
AcDbCircle
10
7.4999998368322851
20
16.600000350922354
30
0
40
0.89999997988343239
210
0
220
0
230
1
0
CIRCLE
5
141
100
AcDbEntity
8
0
100
AcDbCircle
10
-7.3999998368322846
20
-8.1999996490776521
30
0
40
0.89999997988343239
210
0
220
0
230
1
0
CIRCLE
5
142
100
AcDbEntity
8
0
100
AcDbCircle
10
-7.3999998368322846
20
1.7000003509223527
30
0
40
0.89999997988343239
210
0
220
0
230
1
0
CIRCLE
5
143
100
AcDbEntity
8
0
100
AcDbCircle
10
-7.4999998368322851
20
11.60000035092235
30
0
40
0.89999997988343239
210
0
220
0
230
1
0
CIRCLE
5
144
100
AcDbEntity
8
0
100
AcDbCircle
10
-7.4999998368322851
20
14.10000035092235
30
0
40
0.89999997988343239
210
0
220
0
230
1
0
CIRCLE
5
145
100
AcDbEntity
8
0
100
AcDbCircle
10
-7.4999998368322851
20
4.2000003509223527
30
0
40
0.89999997988343239
210
0
220
0
230
1
0
CIRCLE
5
146
100
AcDbEntity
8
0
100
AcDbCircle
10
-7.3999998368322846
20
-5.7999996490776518
30
0
40
0.89999997988343239
210
0
220
0
230
1
0
CIRCLE
5
147
100
AcDbEntity
8
0
100
AcDbCircle
10
-7.2999998368322849
20
-15.699999649077654
30
0
40
0.89999997988343239
210
0
220
0
230
1
0
CIRCLE
5
148
100
AcDbEntity
8
0
100
AcDbCircle
10
7.4999998368322851
20
9.1000003509223522
30
0
40
0.89999997988343239
210
0
220
0
230
1
0
CIRCLE
5
149
100
AcDbEntity
8
0
100
AcDbCircle
10
7.3999998368322846
20
-0.7499996490776486
30
0
40
0.89999997988343239
210
0
220
0
230
1
0
CIRCLE
5
150
100
AcDbEntity
8
0
100
AcDbCircle
10
7.2999998368322849
20
-10.699999649077654
30
0
40
0.89999997988343239
210
0
220
0
230
1
0
CIRCLE
5
151
100
AcDbEntity
8
0
100
AcDbCircle
10
-4.4700002123136073
20
-13.65000064834021
30
0
40
0.59002448102870253
210
0
220
0
230
1
0
LWPOLYLINE
5
152
100
AcDbEntity
8
0
100
AcDbPolyline
90
4
70
1
43
0.0
10
2.9999999262392518
20
-16.099999640136957
10
4.4999998927116387
20
-16.099999640136957
42
0.99999999999999989
10
4.4999998927116387
20
-14.899999666959047
10
2.9999999262392518
20
-14.899999666959047
42
0.99999999999999989
0
LWPOLYLINE
5
153
100
AcDbEntity
8
0
100
AcDbPolyline
90
4
70
1
43
0.0
10
-4.7999998927116394
20
-16.099999640136957
10
-3.2999999262392521
20
-16.099999640136957
42
0.99999999999999989
10
-3.2999999262392521
20
-14.899999666959047
10
-4.7999998927116394
20
-14.899999666959047
42
0.99999999999999989
0
LWPOLYLINE
5
154
100
AcDbEntity
8
0
100
AcDbPolyline
90
4
70
1
43
0.0
10
4.7299998949468138
20
-16.99999962002039
10
3.4999999217689037
20
-16.99999962002039
10
3.4999999217689037
20
-19.599999561905861
10
4.7299998949468138
20
-19.599999561905861
0
LWPOLYLINE
5
155
100
AcDbEntity
8
0
100
AcDbPolyline
90
4
70
1
43
0.0
10
-4.6999998949468136
20
10.799999758601189
10
-3.4999999217689037
20
10.799999758601189
10
-3.4999999217689037
20
13.999999687075615
10
-4.6999998949468136
20
13.999999687075615
0
LWPOLYLINE
5
156
100
AcDbEntity
8
0
100
AcDbPolyline
90
4
70
1
43
0.0
10
-4.8531433693098744
20
14.253360595025519
10
-3.3500001591164619
20
14.253360595025519
42
-0.99999999999999989
10
-3.3500001591164619
20
13.88664074155276
10
-4.8531433693098744
20
13.88664074155276
42
-0.99999999999999989
0
LINE
5
157
100
AcDbEntity
8
0
100
AcDbLine
10
-3.3500001591164619
20
14.07000066828914
30
0
11
-4.8531433693098744
21
14.07000066828914
31
0
0
LWPOLYLINE
5
158
100
AcDbEntity
8
0
100
AcDbPolyline
90
4
70
1
43
0.0
10
-3.4999999217689037
20
13.04999970830977
10
-3.0499999318271875
20
13.04999970830977
10
-3.0499999318271875
20
13.799999691545963
10
-3.4999999217689037
20
13.799999691545963
0
LWPOLYLINE
5
159
100
AcDbEntity
8
0
100
AcDbPolyline
90
4
70
1
43
0.0
10
-3.0499999318271875
20
12.799999691545963
10
-3.4999999217689037
20
12.799999691545963
10
-3.4999999217689037
20
12.04999970830977
10
-3.0499999318271875
20
12.04999970830977
0
LWPOLYLINE
5
160
100
AcDbEntity
8
0
100
AcDbPolyline
90
4
70
1
43
0.0
10
-3.4999999217689037
20
11.099999708309769
10
-3.0499999318271875
20
11.099999708309769
10
-3.0499999318271875
20
11.849999691545962
10
-3.4999999217689037
20
11.849999691545962
0
LINE
5
161
100
AcDbEntity
8
0
100
AcDbLine
10
-4.0999999083578587
20
10.799999758601189
30
0
11
-4.1015717642131682
21
13.88664074155276
31
0
0
LWPOLYLINE
5
162
100
AcDbEntity
8
0
100
AcDbPolyline
90
4
70
1
43
0.0
10
-4.7012726953572841
20
12.049387966402168
10
-5.1512724519018294
20
12.048929646215562
10
-5.1520363188795066
20
12.798929240456474
10
-4.7020365623349596
20
12.799387560643078
0
LWPOLYLINE
5
163
100
AcDbEntity
8
0
100
AcDbPolyline
90
4
70
1
43
0.0
10
-5.1530548082058392
20
13.798928721796086
10
-4.703055051661293
20
13.799387041982691
10
-4.7022911846836166
20
13.049387447741781
10
-5.1522909412281637
20
13.048929127555176
0
LWPOLYLINE
5
164
100
AcDbEntity
8
0
100
AcDbPolyline
90
4
70
1
43
0.0
10
-4.7003051304972665
20
11.099388459129537
10
-5.1503048870418136
20
11.098930138942931
10
-5.1510687540194899
20
11.848929733183841
10
-4.7010689974749429
20
11.849388053370449
0
ENDSEC
0
SECTION
2
OBJECTS
0
DICTIONARY
5
C
100
AcDbDictionary
3
ACAD_GROUP
350
D
3
ACAD_MLINESTYLE
350
17
0
DICTIONARY
5
D
100
AcDbDictionary
0
DICTIONARY
5
1A
330
C
100
AcDbDictionary
0
DICTIONARY
5
17
100
AcDbDictionary
0
ENDSEC
0
EOF
