0
SECTION
2
HEADER
9
$INSUNITS
70
4
9
$ACADVER
1
AC1014
9
$HANDSEED
5
FFFF
0
ENDSEC
0
SECTION
2
TABLES
0
TABLE
2
VPORT
5
8
100
AcDbSymbolTable
0
ENDTAB
0
TABLE
2
LTYPE
5
5
100
AcDbSymbolTable
0
LTYPE
5
14
100
AcDbSymbolTableRecord
100
AcDbLinetypeTableRecord
2
BYBLOCK
70
0
0
LTYPE
5
15
100
AcDbSymbolTableRecord
100
AcDbLinetypeTableRecord
2
BYLAYER
70
0
0
ENDTAB
0
TABLE
2
LAYER
5
2
100
AcDbSymbolTable
70
2
0
LAYER
5
50
100
AcDbSymbolTableRecord
100
AcDbLayerTableRecord
2
0
70
0
6
CONTINUOUS
0
ENDTAB
0
TABLE
2
STYLE
5
3
100
AcDbSymbolTable
70
1
0
STYLE
5
11
100
AcDbSymbolTableRecord
100
AcDbTextStyleTableRecord
2
STANDARD
70
0
0
ENDTAB
0
TABLE
2
VIEW
5
6
100
AcDbSymbolTable
70
0
0
ENDTAB
0
TABLE
2
UCS
5
7
100
AcDbSymbolTable
70
0
0
ENDTAB
0
TABLE
2
APPID
5
9
100
AcDbSymbolTable
70
2
0
APPID
5
12
100
AcDbSymbolTableRecord
100
AcDbRegAppTableRecord
2
ACAD
70
0
0
ENDTAB
0
TABLE
2
DIMSTYLE
5
A
100
AcDbSymbolTable
70
1
0
ENDTAB
0
TABLE
2
BLOCK_RECORD
5
1
100
AcDbSymbolTable
70
1
0
BLOCK_RECORD
5
1F
100
AcDbSymbolTableRecord
100
AcDbBlockTableRecord
2
*MODEL_SPACE
0
BLOCK_RECORD
5
1B
100
AcDbSymbolTableRecord
100
AcDbBlockTableRecord
2
*PAPER_SPACE
0
ENDTAB
0
ENDSEC
0
SECTION
2
BLOCKS
0
BLOCK
5
20
100
AcDbEntity
100
AcDbBlockBegin
2
*MODEL_SPACE
0
ENDBLK
5
21
100
AcDbEntity
100
AcDbBlockEnd
0
BLOCK
5
1C
100
AcDbEntity
100
AcDbBlockBegin
2
*PAPER_SPACE
0
ENDBLK
5
1D
100
AcDbEntity
100
AcDbBlockEnd
0
ENDSEC
0
SECTION
2
ENTITIES
0
LWPOLYLINE
5
100
100
AcDbEntity
8
0
100
AcDbPolyline
90
24
70
1
43
0.0
10
1.928485826480405
20
1.7332795988456549
10
1.7617654722647178
20
1.8999999530613421
10
-1.7617653046266526
20
1.8999999530613421
10
-1.9284856588423405
20
1.7332795988456537
42
-0.017634471783109049
10
-1.9644315926377467
20
1.7478422639129638
10
-3.1935539643133493
20
2.2970052443552542
10
-3.2651531662216318
20
2.2194679117794034
42
-0.29585877126467186
10
-3.6499999161809682
20
2.8129270544277185
10
-3.6499999161809682
20
3.1441421073854183
10
-2.9825765529359645
20
2.5254802172036306
10
-2.6999999396502972
20
2.8314925226278573
10
-0.92517622409134148
20
2.8314925226278573
10
-0.14469598351181431
20
3.4500000000000011
10
-0.14469598351181445
20
4.3000000000000007
10
0.14469598351181445
20
4.3000000000000007
10
0.14469598351181445
20
3.4500000000000011
10
0.92517622409134137
20
2.8314925226278573
10
2.6999999396502972
20
2.8314925226278564
10
2.9825766367549966
20
2.5254802172036301
10
3.6500000838190316
20
3.1441421073854183
10
3.6500000838190316
20
2.812927054427719
42
-0.29585877126467203
10
3.2651533338596956
20
2.2194679117794038
10
3.1935540132759419
20
2.2970051913319121
10
1.9644317602758106
20
1.7478422639129643
42
-0.017634471783088169
0
LWPOLYLINE
5
101
100
AcDbEntity
8
0
100
AcDbPolyline
90
8
70
1
43
0.0
10
-2.3999999441206454
20
3.2999999262392521
10
2.3799999441206454
20
3.2999999262392525
42
-0.41421356237309642
10
2.4999999441206455
20
3.179999926239252
10
2.4999999441206451
20
2.7999999396502986
42
-0.41421356237309581
10
2.399999944120645
20
2.6999999396502972
10
-2.399999944120645
20
2.6999999396502972
42
-0.41421356237309581
10
-2.4999999441206451
20
2.7999999396502986
10
-2.4999999441206455
20
3.199999926239252
42
-0.41421356237309176
0
LINE
5
102
100
AcDbEntity
8
0
100
AcDbLine
10
2.4999999441206455
20
3.2999999262392521
30
0
11
-2.4999999441206455
21
2.6999999396502972
31
0
0
LINE
5
103
100
AcDbEntity
8
0
100
AcDbLine
10
-2.4999999441206455
20
3.2999999262392521
30
0
11
2.4999999441206455
21
2.6999999396502972
31
0
0
ENDSEC
0
SECTION
2
OBJECTS
0
DICTIONARY
5
C
100
AcDbDictionary
3
ACAD_GROUP
350
D
3
ACAD_MLINESTYLE
350
17
0
DICTIONARY
5
D
100
AcDbDictionary
0
DICTIONARY
5
1A
330
C
100
AcDbDictionary
0
DICTIONARY
5
17
100
AcDbDictionary
0
ENDSEC
0
EOF
