0
SECTION
2
HEADER
9
$INSUNITS
70
4
9
$ACADVER
1
AC1014
9
$HANDSEED
5
FFFF
0
ENDSEC
0
SECTION
2
TABLES
0
TABLE
2
VPORT
5
8
100
AcDbSymbolTable
0
ENDTAB
0
TABLE
2
LTYPE
5
5
100
AcDbSymbolTable
0
LTYPE
5
14
100
AcDbSymbolTableRecord
100
AcDbLinetypeTableRecord
2
BYBLOCK
70
0
0
LTYPE
5
15
100
AcDbSymbolTableRecord
100
AcDbLinetypeTableRecord
2
BYLAYER
70
0
0
ENDTAB
0
TABLE
2
LAYER
5
2
100
AcDbSymbolTable
70
2
0
LAYER
5
50
100
AcDbSymbolTableRecord
100
AcDbLayerTableRecord
2
0
70
0
6
CONTINUOUS
0
ENDTAB
0
TABLE
2
STYLE
5
3
100
AcDbSymbolTable
70
1
0
STYLE
5
11
100
AcDbSymbolTableRecord
100
AcDbTextStyleTableRecord
2
STANDARD
70
0
0
ENDTAB
0
TABLE
2
VIEW
5
6
100
AcDbSymbolTable
70
0
0
ENDTAB
0
TABLE
2
UCS
5
7
100
AcDbSymbolTable
70
0
0
ENDTAB
0
TABLE
2
APPID
5
9
100
AcDbSymbolTable
70
2
0
APPID
5
12
100
AcDbSymbolTableRecord
100
AcDbRegAppTableRecord
2
ACAD
70
0
0
ENDTAB
0
TABLE
2
DIMSTYLE
5
A
100
AcDbSymbolTable
70
1
0
ENDTAB
0
TABLE
2
BLOCK_RECORD
5
1
100
AcDbSymbolTable
70
1
0
BLOCK_RECORD
5
1F
100
AcDbSymbolTableRecord
100
AcDbBlockTableRecord
2
*MODEL_SPACE
0
BLOCK_RECORD
5
1B
100
AcDbSymbolTableRecord
100
AcDbBlockTableRecord
2
*PAPER_SPACE
0
ENDTAB
0
ENDSEC
0
SECTION
2
BLOCKS
0
BLOCK
5
20
100
AcDbEntity
100
AcDbBlockBegin
2
*MODEL_SPACE
0
ENDBLK
5
21
100
AcDbEntity
100
AcDbBlockEnd
0
BLOCK
5
1C
100
AcDbEntity
100
AcDbBlockBegin
2
*PAPER_SPACE
0
ENDBLK
5
1D
100
AcDbEntity
100
AcDbBlockEnd
0
ENDSEC
0
SECTION
2
ENTITIES
0
LWPOLYLINE
5
100
100
AcDbEntity
8
0
100
AcDbPolyline
90
16
70
1
43
0.0
10
-1.7400711502956467
20
1.4999999999999996
42
-0.10543399093788851
10
-2.0460172080348742
20
1.5652394507904053
10
-3.3059459739201968
20
2.1281665052181258
42
-0.29585877126467269
10
-3.7499999161809687
20
2.8129270544277194
10
-3.7499999161809687
20
3.4753571603431164
42
-0.2634471219659229
10
-3.3858717739735944
20
4.1184768298943348
10
-2.9281337743818581
20
4.3931196695512185
42
-0.13593297586604453
10
-2.5422619165892324
20
4.5000000000000009
10
2.5422620842272976
20
4.5
42
-0.13593297586604228
10
2.9281339420199237
20
4.3931196695512185
10
3.3858719416116578
20
4.1184768298943357
42
-0.26344712196592185
10
3.7500000838190317
20
3.4753571603431173
10
3.7500000838190317
20
2.812927054427719
42
-0.29585877126467314
10
3.3059461415582598
20
2.1281665052181244
10
2.0460173756729385
20
1.5652394507904059
42
-0.10543399093788919
10
1.7400713179337104
20
1.5000000000000002
0
LWPOLYLINE
5
101
100
AcDbEntity
8
0
100
AcDbPolyline
90
16
70
1
43
0.0
10
-3.2829726118955604
20
3.9469782513473435
10
-2.8252346123038241
20
4.2216210910042271
42
-0.13593297586604464
10
-2.5422619165892324
20
4.3000000000000007
10
2.5422620842272972
20
4.3000000000000007
42
-0.13593297586604194
10
2.8252347799418902
20
4.2216210910042271
10
3.2829727795336234
20
3.9469782513473444
42
-0.26344712196592196
10
3.5500000838190315
20
3.4753571603431173
10
3.5500000838190315
20
2.812927054427719
42
-0.2958587712646733
10
3.2243605261611323
20
2.3107693183406832
10
1.9644317602758112
20
1.7478422639129645
42
-0.1054339909378893
10
1.7400713179337108
20
1.7000000000000002
10
-1.7400711502956459
20
1.6999999999999995
42
-0.10543399093788874
10
-1.9644315926377467
20
1.7478422639129638
10
-3.2243603585230698
20
2.3107693183406846
42
-0.29585877126467264
10
-3.5499999161809686
20
2.8129270544277194
10
-3.5499999161809686
20
3.4753571603431159
42
-0.26344712196592329
0
ENDSEC
0
SECTION
2
OBJECTS
0
DICTIONARY
5
C
100
AcDbDictionary
3
ACAD_GROUP
350
D
3
ACAD_MLINESTYLE
350
17
0
DICTIONARY
5
D
100
AcDbDictionary
0
DICTIONARY
5
1A
330
C
100
AcDbDictionary
0
DICTIONARY
5
17
100
AcDbDictionary
0
ENDSEC
0
EOF
