                                                                        S      1
,,4Hhorn,4Hhorn,7Hunknown,7Hunknown,32,38,7,99,15,,1.,2,2HMM,1,0.08,15H2G      1
0220618.230400,0.01,10000.,7Hunknown,7Hunknown,11,0,;                   G      2
     186       1                                                00000000D      1
     186            -139       1       0                               0D      2
     514       2                                                00010000D      3
     514                       1       1                               0D      4
     510       3                                                00010000D      5
     510            -139       1       1                               0D      6
     510       4                                                00010000D      7
     510            -139       1       1                               0D      8
     510       5                                                00010000D      9
     510            -139       1       1                               0D     10
     510       6                                                00010000D     11
     510            -139       1       1                               0D     12
     510       7                                                00010000D     13
     510            -139       1       1                               0D     14
     510       8                                                00010000D     15
     510            -139       1       1                               0D     16
     510       9                                                00010000D     17
     510            -139       1       1                               0D     18
     510      10                                                00010000D     19
     510            -139       1       1                               0D     20
     510      11                                                00010000D     21
     510            -139       1       1                               0D     22
     510      12                                                00010000D     23
     510            -139       1       1                               0D     24
     510      13                                                00010000D     25
     510            -139       1       1                               0D     26
     510      14                                                00010000D     27
     510            -139       1       1                               0D     28
     508      15                                                00010000D     29
     508                       1       1                               0D     30
     508      16                                                00010000D     31
     508                       1       1                               0D     32
     508      17                                                00010000D     33
     508                       1       1                               0D     34
     508      18                                                00010000D     35
     508                       1       1                               0D     36
     508      19                                                00010000D     37
     508                       1       1                               0D     38
     508      20                                                00010000D     39
     508                       1       1                               0D     40
     508      21                                                00010000D     41
     508                       1       1                               0D     42
     508      22                                                00010000D     43
     508                       1       1                               0D     44
     508      23                                                00010000D     45
     508                       1       1                               0D     46
     508      24                                                00010000D     47
     508                       1       1                               0D     48
     508      25                                                00010000D     49
     508                       2       1                               0D     50
     508      27                                                00010000D     51
     508                       1       1                               0D     52
     508      28                                                00010000D     53
     508                       1       1                               0D     54
     508      29                                                00010000D     55
     508                       2       1                               0D     56
     508      31                                                00010000D     57
     508                       1       1                               0D     58
     508      32                                                00010000D     59
     508                       1       1                               0D     60
     126      33                                                00010000D     61
     126       0               6       0                               0D     62
     126      39                                                00010000D     63
     126       0               2       0                               0D     64
     126      41                                                00010000D     65
     126       0               6       0                               0D     66
     126      47                                                00010000D     67
     126       0               2       0                               0D     68
     126      49                                                00010000D     69
     126       0               3       0                               0D     70
     126      52                                                00010000D     71
     126       0               3       0                               0D     72
     126      55                                                00010000D     73
     126       0               3       0                               0D     74
     126      58                                                00010000D     75
     126       0               3       0                               0D     76
     126      61                                                00010000D     77
     126       0               3       0                               0D     78
     126      64                                                00010000D     79
     126       0               3       0                               0D     80
     126      67                                                00010000D     81
     126       0               8       0                               0D     82
     126      75                                                00010000D     83
     126       0               9       0                               0D     84
     126      84                                                00010000D     85
     126       0               4       0                               0D     86
     126      88                                                00010000D     87
     126       0               9       0                               0D     88
     126      97                                                00010000D     89
     126       0               9       0                               0D     90
     126     106                                                00010000D     91
     126       0               9       0                               0D     92
     126     115                                                00010000D     93
     126       0               9       0                               0D     94
     126     124                                                00010000D     95
     126       0               4       0                               0D     96
     126     128                                                00010000D     97
     126       0              10       0                               0D     98
     126     138                                                00010000D     99
     126       0               5       0                               0D    100
     126     143                                                00010000D    101
     126       0               9       0                               0D    102
     126     152                                                00010000D    103
     126       0               3       0                               0D    104
     126     155                                                00010000D    105
     126       0               9       0                               0D    106
     126     164                                                00010000D    107
     126       0               3       0                               0D    108
     128     167                                                00010000D    109
     128       0    -139      13       0                               0D    110
     128     180                                                00010000D    111
     128       0    -139       7       0                               0D    112
     128     187                                                00010000D    113
     128       0    -139       7       0                               0D    114
     128     194                                                00010000D    115
     128       0    -139       6       0                               0D    116
     128     200                                                00010000D    117
     128       0    -139      15       0                               0D    118
     128     215                                                00010000D    119
     128       0    -139       3       0                               0D    120
     128     218                                                00010000D    121
     128       0    -139       3       0                               0D    122
     128     221                                                00010000D    123
     128       0    -139      15       0                               0D    124
     128     236                                                00010000D    125
     128       0    -139       7       0                               0D    126
     128     243                                                00010000D    127
     128       0    -139      14       0                               0D    128
     128     257                                                00010000D    129
     128       0    -139      14       0                               0D    130
     128     271                                                00010000D    131
     128       0    -139       3       0                               0D    132
     502     274                                                00010000D    133
     502                       6       1                               0D    134
     504     280                                                00010001D    135
     504                       7       1                               0D    136
     406     287                                                00000000D    137
     406                       1      15                               0D    138
     314     288                                                00000200D    139
     314                       2       0                               0D    140
     314     290                                                00000200D    141
     314                       2       0                               0D    142
186,3,1,0,0,1,137;                                                     1P      1
514,12,5,1,7,1,9,1,11,1,13,1,15,1,17,1,19,1,21,1,23,1,25,1,27,1;       3P      2
510,109,1,1,29;                                                        5P      3
510,111,1,1,31;                                                        7P      4
510,113,1,1,33;                                                        9P      5
510,115,1,1,35;                                                       11P      6
510,117,1,1,37;                                                       13P      7
510,119,2,1,39,41;                                                    15P      8
510,121,2,1,43,45;                                                    17P      9
510,123,1,1,47;                                                       19P     10
510,125,2,1,49,51;                                                    21P     11
510,127,1,1,53;                                                       23P     12
510,129,1,1,55;                                                       25P     13
510,131,2,1,57,59;                                                    27P     14
508,4,0,135,1,0,0,0,135,2,1,0,0,135,3,0,0,0,135,4,0,0;                29P     15
508,4,0,135,5,1,0,0,135,4,1,0,0,135,6,0,0,0,135,7,0,0;                31P     16
508,4,0,135,8,0,0,0,135,9,0,0,0,135,10,0,0,0,135,2,0,0;               33P     17
508,4,0,135,10,1,0,0,135,11,0,0,0,135,6,1,0,0,135,3,1,0;              35P     18
508,4,0,135,12,0,0,0,135,13,1,0,0,135,14,1,0,0,135,13,0,0;            37P     19
508,1,0,135,15,0,0;                                                   39P     20
508,1,0,135,12,1,0;                                                   41P     21
508,1,0,135,16,0,0;                                                   43P     22
508,1,0,135,14,0,0;                                                   45P     23
508,4,0,135,17,0,0,0,135,18,1,0,0,135,16,1,0,0,135,18,0,0;            47P     24
508,5,0,135,19,1,0,0,135,20,1,0,0,135,8,1,0,0,135,1,1,0,0,135,5,      49P     25
0,0;                                                                  49P     26
508,1,0,135,21,1,0;                                                   51P     27
508,4,0,135,15,1,0,0,135,22,1,0,0,135,21,0,0,0,135,22,0,0;            53P     28
508,8,0,135,23,0,0,0,135,24,1,0,0,135,19,0,0,0,135,7,1,0,0,135,       55P     29
11,1,0,0,135,9,1,0,0,135,20,0,0,0,135,24,0,0;                         55P     30
508,1,0,135,23,1,0;                                                   57P     31
508,1,0,135,17,1,0;                                                   59P     32
126,4,2,0,0,0,0,0.,0.,0.,1.33020537293899,1.33020537293899,           61P     33
2.66041074587798,2.66041074587798,2.66041074587798,1.,                61P     34
0.786853417355902,1.,0.786853417355901,1.,2.04,31.2,-9.105,           61P     35
1.64745098039216,31.2,-10.705,-6.93889390390723D-17,31.2,             61P     36
-10.705,-1.64745098039216,31.2,-10.705,-2.04,31.2,-9.105,0.,          61P     37
2.66041074587798,0.,0.,0.;                                            61P     38
126,1,1,0,0,1,0,0.,0.,0.141,0.141,1.,1.,2.04,31.2,-9.105,2.04,        63P     39
29.79,-9.105,0.,0.141,0.,0.,0.;                                       63P     40
126,4,2,0,0,0,0,-2.66041074587798,-2.66041074587798,                  65P     41
-2.66041074587798,-1.33020537293899,-1.33020537293899,0.,0.,0.,       65P     42
1.,0.786853417355901,1.,0.786853417355902,1.,-2.04,29.79,-9.105,      65P     43
-1.64745098039216,29.79,-10.705,-6.93889390390723D-17,29.79,          65P     44
-10.705,1.64745098039216,29.79,-10.705,2.04,29.79,-9.105,             65P     45
-2.66041074587798,0.,0.,0.,0.;                                        65P     46
126,1,1,0,0,1,0,0.,0.,0.141,0.141,1.,1.,-2.04,31.2,-9.105,-2.04,      67P     47
29.79,-9.105,0.,0.141,0.,0.,0.;                                       67P     48
126,1,1,0,0,1,0,0.,0.,1.22332481992281,1.22332481992281,1.,1.,        69P     49
-2.67,31.2,3.11201524530102,-2.04,31.2,-9.105,0.,                     69P     50
1.22332481992281,0.,0.,0.;                                            69P     51
126,1,1,0,0,1,0,0.,0.,1.22332481992281,1.22332481992281,1.,1.,        71P     52
-2.67,29.79,3.11201524530102,-2.04,29.79,-9.105,0.,                   71P     53
1.22332481992281,0.,0.,0.;                                            71P     54
126,1,1,0,0,1,0,-0.183,-0.183,-0.0419999999999998,                    73P     55
-0.0419999999999998,1.,1.,-2.67,31.2,3.11201524530102,-2.67,          73P     56
29.79,3.11201524530102,-0.183,-0.0419999999999998,0.,0.,0.;           73P     57
126,1,1,0,0,1,0,0.,0.,1.22332481992281,1.22332481992281,1.,1.,        75P     58
2.67,31.2,3.11201524530102,2.04,31.2,-9.105,0.,1.22332481992281,      75P     59
0.,0.,0.;                                                             75P     60
126,1,1,0,0,1,0,0.0420000000000003,0.0420000000000003,0.183,          77P     61
0.183,1.,1.,2.67,29.79,3.11201524530102,2.67,31.2,                    77P     62
3.11201524530102,0.0420000000000003,0.183,0.,0.,0.;                   77P     63
126,1,1,0,0,1,0,-1.22332481992281,-1.22332481992281,0.,0.,1.,1.,      79P     64
2.04,29.79,-9.105,2.67,29.79,3.11201524530102,-1.22332481992281,      79P     65
0.,0.,0.,0.;                                                          79P     66
126,4,2,0,0,0,0,0.70307571474961,0.70307571474961,                    81P     67
0.70307571474961,1.5707963267949,1.5707963267949,                     81P     68
2.43851693884018,2.43851693884018,2.43851693884018,1.,                81P     69
0.907349732124039,1.,0.90734973212404,1.,-2.67,29.79,                 81P     70
3.11201524530102,-1.62155556500134,29.79,1.875,                       81P     71
-2.14313189850787D-16,29.79,1.875,1.62155556500134,29.79,1.875,       81P     72
2.67,29.79,3.11201524530102,0.70307571474961,2.43851693884018,        81P     73
0.,0.,0.;                                                             81P     74
126,8,2,0,1,0,0,-3.14159265358979,-3.14159265358979,                  83P     75
-3.14159265358979,-1.5707963267949,-1.5707963267949,0.,0.,            83P     76
1.5707963267949,1.5707963267949,3.14159265358979,                     83P     77
3.14159265358979,3.14159265358979,1.,0.70710678118655,1.,             83P     78
0.70710678118655,1.,0.707106781186547,1.,0.707106781186547,1.,        83P     79
1.31,30.27,5.375,1.31,30.27,6.685,-8.02143653441517D-17,30.27,        83P     80
6.685,-1.31,30.27,6.685,-1.31,30.27,5.375,-1.31,30.27,4.065,          83P     81
-8.02143653441517D-17,30.27,4.065,1.31,30.27,4.065,1.31,30.27,        83P     82
5.375,-3.14159265358979,3.14159265358979,0.,0.,0.;                    83P     83
126,1,1,0,0,1,0,-0.687022900763357,-0.687022900763357,                85P     84
1.39514739920345D-16,1.39514739920345D-16,1.,1.,1.31,30.27,           85P     85
5.375,1.31,29.37,5.375,-0.687022900763357,1.39514739920345D-16,       85P     86
0.,0.,0.;                                                             85P     87
126,8,2,0,1,0,0,-3.14159265358979,-3.14159265358979,                  87P     88
-3.14159265358979,-1.5707963267949,-1.5707963267949,0.,0.,            87P     89
1.5707963267949,1.5707963267949,3.14159265358979,                     87P     90
3.14159265358979,3.14159265358979,1.,0.70710678118655,1.,             87P     91
0.70710678118655,1.,0.707106781186547,1.,0.707106781186547,1.,        87P     92
1.31,29.37,5.375,1.31,29.37,6.685,-8.02143653441517D-17,29.37,        87P     93
6.685,-1.31,29.37,6.685,-1.31,29.37,5.375,-1.31,29.37,4.065,          87P     94
-8.02143653441517D-17,29.37,4.065,1.31,29.37,4.065,1.31,29.37,        87P     95
5.375,-3.14159265358979,3.14159265358979,0.,0.,0.;                    87P     96
126,8,2,0,1,0,0,-3.14159265358979,-3.14159265358979,                  89P     97
-3.14159265358979,-1.5707963267949,-1.5707963267949,0.,0.,            89P     98
1.5707963267949,1.5707963267949,3.14159265358979,                     89P     99
3.14159265358979,3.14159265358979,1.,0.707106781186548,1.,            89P    100
0.707106781186548,1.,0.707106781186548,1.,0.707106781186548,1.,       89P    101
2.46,30.27,5.375,2.46,30.27,7.835,-1.50631556295124D-16,30.27,        89P    102
7.835,-2.46,30.27,7.835,-2.46,30.27,5.375,-2.46,30.27,2.915,          89P    103
-1.50631556295124D-16,30.27,2.915,2.46,30.27,2.915,2.46,30.27,        89P    104
5.375,-3.14159265358979,3.14159265358979,0.,0.,0.;                    89P    105
126,8,2,0,1,0,0,-3.14159265358979,-3.14159265358979,                  91P    106
-3.14159265358979,-1.5707963267949,-1.5707963267949,0.,0.,            91P    107
1.5707963267949,1.5707963267949,3.14159265358979,                     91P    108
3.14159265358979,3.14159265358979,1.,0.707106781186548,1.,            91P    109
0.707106781186548,1.,0.707106781186548,1.,0.707106781186548,1.,       91P    110
2.46,29.37,5.375,2.46,29.37,2.915,-1.50631556295124D-16,29.37,        91P    111
2.915,-2.46,29.37,2.915,-2.46,29.37,5.375,-2.46,29.37,7.835,          91P    112
-1.50631556295124D-16,29.37,7.835,2.46,29.37,7.835,2.46,29.37,        91P    113
5.375,-3.14159265358979,3.14159265358979,0.,0.,0.;                    91P    114
126,8,2,0,1,0,0,-3.14159265358979,-3.14159265358979,                  93P    115
-3.14159265358979,-1.5707963267949,-1.5707963267949,0.,0.,            93P    116
1.5707963267949,1.5707963267949,3.14159265358979,                     93P    117
3.14159265358979,3.14159265358979,1.,0.707106781186548,1.,            93P    118
0.707106781186548,1.,0.707106781186548,1.,0.707106781186548,1.,       93P    119
2.46,27.29,5.375,2.46,27.29,2.915,-1.50631556295124D-16,27.29,        93P    120
2.915,-2.46,27.29,2.915,-2.46,27.29,5.375,-2.46,27.29,7.835,          93P    121
-1.50631556295124D-16,27.29,7.835,2.46,27.29,7.835,2.46,27.29,        93P    122
5.375,-3.14159265358979,3.14159265358979,0.,0.,0.;                    93P    123
126,1,1,0,0,1,0,-0.845528455284554,-0.845528455284554,                95P    124
1.39514739920345D-16,1.39514739920345D-16,1.,1.,2.46,27.29,           95P    125
5.375,2.46,29.37,5.375,-0.845528455284554,1.39514739920345D-16,       95P    126
0.,0.,0.;                                                             95P    127
126,6,2,0,0,0,0,-6.9862610219292,-6.9862610219292,                    97P    128
-6.9862610219292,-5.70470489914939,-5.70470489914939,                 97P    129
-4.42314877636959,-4.42314877636959,-3.14159265358979,                97P    130
-3.14159265358979,-3.14159265358979,1.,0.801630860429864,1.,          97P    131
0.801630860429865,1.,0.801630860429862,1.,-2.67,31.2,                 97P    132
3.11201524530102,-4.3576297057481,31.2,5.10317815746426,              97P    133
-2.93053059811939,31.2,7.28863277916271,-1.50343149049068,31.2,       97P    134
9.47408740086117,0.998284254754662,31.2,8.72961302488214,3.5,         97P    135
31.2,7.98513864890312,3.5,31.2,5.375,-6.9862610219292,                97P    136
-3.14159265358979,0.,0.,0.;                                           97P    137
126,2,2,0,0,0,0,-3.14159265358979,-3.14159265358979,                  99P    138
-3.14159265358979,-2.43851693884018,-2.43851693884018,                99P    139
-2.43851693884018,1.,0.938844274322731,1.,3.5,31.2,5.375,3.5,         99P    140
31.2,4.09129714077043,2.67,31.2,3.11201524530102,                     99P    141
-3.14159265358979,-2.43851693884018,0.,0.,0.;                         99P    142
126,8,2,0,1,0,0,-3.14159265358979,-3.14159265358979,                 101P    143
-3.14159265358979,-1.5707963267949,-1.5707963267949,0.,0.,           101P    144
1.5707963267949,1.5707963267949,3.14159265358979,                    101P    145
3.14159265358979,3.14159265358979,1.,0.707106781186548,1.,           101P    146
0.707106781186548,1.,0.707106781186548,1.,0.707106781186548,1.,      101P    147
2.46,31.2,5.375,2.46,31.2,7.835,-1.50631556295124D-16,31.2,          101P    148
7.835,-2.46,31.2,7.835,-2.46,31.2,5.375,-2.46,31.2,2.915,            101P    149
-1.50631556295124D-16,31.2,2.915,2.46,31.2,2.915,2.46,31.2,          101P    150
5.375,-3.14159265358979,3.14159265358979,0.,0.,0.;                   101P    151
126,1,1,0,0,1,0,0.365853658536585,0.365853658536585,                 103P    152
0.74390243902439,0.74390243902439,1.,1.,2.46,30.27,5.375,2.46,       103P    153
31.2,5.375,0.365853658536585,0.74390243902439,0.,0.,0.;              103P    154
126,8,2,0,1,0,0,-3.14159265358979,-3.14159265358979,                 105P    155
-3.14159265358979,-1.5707963267949,-1.5707963267949,0.,0.,           105P    156
1.5707963267949,1.5707963267949,3.14159265358979,                    105P    157
3.14159265358979,3.14159265358979,1.,0.707106781186548,1.,           105P    158
0.707106781186548,1.,0.707106781186548,1.,0.707106781186548,1.,      105P    159
3.5,27.29,5.375,3.5,27.29,8.875,-2.14313189850787D-16,27.29,         105P    160
8.875,-3.5,27.29,8.875,-3.5,27.29,5.375,-3.5,27.29,1.875,            105P    161
-2.14313189850787D-16,27.29,1.875,3.5,27.29,1.875,3.5,27.29,         105P    162
5.375,-3.14159265358979,3.14159265358979,0.,0.,0.;                   105P    163
126,1,1,0,0,1,0,-0.594285714285715,-0.594285714285715,               107P    164
0.522857142857142,0.522857142857142,1.,1.,3.5,27.29,5.375,3.5,       107P    165
31.2,5.375,-0.594285714285715,0.522857142857142,0.,0.,0.;            107P    166
128,1,4,1,2,0,0,0,0,0,-3.93696108023105D-16,                         109P    167
-3.93696108023105D-16,0.671268745536777,0.671268745536777,           109P    168
-2.66041074587798,-2.66041074587798,-2.66041074587798,               109P    169
-1.33020537293899,-1.33020537293899,2.64275892555381D-16,            109P    170
2.64275892555381D-16,2.64275892555381D-16,1.,1.,                     109P    171
0.786853417355905,0.786853417355905,1.,1.,0.786853417355905,         109P    172
0.786853417355905,1.,1.,-2.04,29.79,-9.105,-2.04,31.2,-9.105,        109P    173
-1.64745098039216,29.79,-10.705,-1.64745098039216,31.2,-10.705,      109P    174
-6.93889390390723D-17,29.79,-10.705,-6.93889390390723D-17,31.2,      109P    175
-10.705,1.64745098039216,29.79,-10.705,1.64745098039216,31.2,        109P    176
-10.705,2.04,29.79,-9.105,2.04,31.2,-9.105,                          109P    177
-3.93696108023105D-16,0.671268745536777,-2.66041074587798,           109P    178
2.64275892555381D-16;                                                109P    179
128,1,1,1,1,0,0,1,0,0,-0.00100000000000006,-0.00100000000000006,     111P    180
1.22432481992281,1.22432481992281,-0.00100000000000027,              111P    181
-0.00100000000000027,0.142,0.142,1.,1.,1.,1.,-2.67051498995994,      111P    182
31.21,3.12200197576405,-2.03948501004006,31.21,                      111P    183
-9.11498673046303,-2.67051498995994,29.78,3.12200197576405,          111P    184
-2.03948501004006,29.78,-9.11498673046303,-0.00100000000000006,      111P    185
1.22432481992281,-0.00100000000000027,0.142;                         111P    186
128,1,1,1,1,0,0,1,0,0,-0.00100000000000014,-0.00100000000000014,     113P    187
1.22432481992281,1.22432481992281,-0.00100000000000044,              113P    188
-0.00100000000000044,0.142,0.142,1.,1.,1.,1.,2.03948501004006,       113P    189
31.21,-9.11498673046303,2.67051498995994,31.21,3.12200197576405,     113P    190
2.03948501004006,29.78,-9.11498673046303,2.67051498995994,29.78,     113P    191
3.12200197576405,-0.00100000000000014,1.22432481992281,              113P    192
-0.00100000000000044,0.142;                                          113P    193
128,1,1,1,1,0,0,1,0,0,-0.268,-0.268,0.268,0.268,                     115P    194
-0.691850762265051,-0.691850762265051,0.691850762265051,             115P    195
0.691850762265051,1.,1.,1.,1.,-2.68,29.79,-10.715,2.68,29.79,        115P    196
-10.715,-2.68,29.79,3.12201524530102,2.68,29.79,                     115P    197
3.12201524530102,-0.268,0.268,-0.691850762265051,                    115P    198
0.691850762265051;                                                   115P    199
128,1,8,1,2,0,1,0,0,1,-1.39514739920345D-16,                         117P    200
-1.39514739920345D-16,0.687022900763357,0.687022900763357,           117P    201
-3.14159265358979,-3.14159265358979,-3.14159265358979,               117P    202
-1.5707963267949,-1.5707963267949,0.,0.,1.5707963267949,             117P    203
1.5707963267949,3.14159265358979,3.14159265358979,                   117P    204
3.14159265358979,1.,1.,0.707106781186548,0.707106781186548,1.,       117P    205
1.,0.707106781186548,0.707106781186548,1.,1.,0.707106781186548,      117P    206
0.707106781186548,1.,1.,0.707106781186548,0.707106781186548,1.,      117P    207
1.,1.31,29.37,5.375,1.31,30.27,5.375,1.31,29.37,4.065,1.31,          117P    208
30.27,4.065,0.,29.37,4.065,0.,30.27,4.065,-1.31,29.37,4.065,         117P    209
-1.31,30.27,4.065,-1.31,29.37,5.375,-1.31,30.27,5.375,-1.31,         117P    210
29.37,6.685,-1.31,30.27,6.685,0.,29.37,6.685,0.,30.27,6.685,         117P    211
1.31,29.37,6.685,1.31,30.27,6.685,1.31,29.37,5.375,1.31,30.27,       117P    212
5.375,-1.39514739920345D-16,0.687022900763357,-3.14159265358979,     117P    213
3.14159265358979;                                                    117P    214
128,1,1,1,1,0,0,1,0,0,-0.247,-0.247,0.247,0.247,-0.247,-0.247,       119P    215
0.247,0.247,1.,1.,1.,1.,2.47,30.27,2.905,-2.47,30.27,2.905,2.47,     119P    216
30.27,7.845,-2.47,30.27,7.845,-0.247,0.247,-0.247,0.247;             119P    217
128,1,1,1,1,0,0,1,0,0,-0.247,-0.247,0.247,0.247,-0.247,-0.247,       121P    218
0.247,0.247,1.,1.,1.,1.,-2.47,29.37,2.905,2.47,29.37,2.905,          121P    219
-2.47,29.37,7.845,2.47,29.37,7.845,-0.247,0.247,-0.247,0.247;        121P    220
128,1,8,1,2,0,1,0,0,1,-1.39514739920345D-16,                         123P    221
-1.39514739920345D-16,0.845528455284554,0.845528455284554,           123P    222
-3.14159265358979,-3.14159265358979,-3.14159265358979,               123P    223
-1.5707963267949,-1.5707963267949,0.,0.,1.5707963267949,             123P    224
1.5707963267949,3.14159265358979,3.14159265358979,                   123P    225
3.14159265358979,1.,1.,0.707106781186548,0.707106781186548,1.,       123P    226
1.,0.707106781186548,0.707106781186548,1.,1.,0.707106781186548,      123P    227
0.707106781186548,1.,1.,0.707106781186548,0.707106781186548,1.,      123P    228
1.,2.46,29.37,5.375,2.46,27.29,5.375,2.46,29.37,7.835,2.46,          123P    229
27.29,7.835,0.,29.37,7.835,0.,27.29,7.835,-2.46,29.37,7.835,         123P    230
-2.46,27.29,7.835,-2.46,29.37,5.375,-2.46,27.29,5.375,-2.46,         123P    231
29.37,2.915,-2.46,27.29,2.915,0.,29.37,2.915,0.,27.29,2.915,         123P    232
2.46,29.37,2.915,2.46,27.29,2.915,2.46,29.37,5.375,2.46,27.29,       123P    233
5.375,-1.39514739920345D-16,0.845528455284554,-3.14159265358979,     123P    234
3.14159265358979;                                                    123P    235
128,1,1,1,1,0,0,1,0,0,-0.482207594407353,-0.482207594407353,         125P    236
0.482207594407353,0.482207594407353,-1.609,-1.609,                   125P    237
0.482933202107758,0.482933202107758,1.,1.,1.,1.,                     125P    238
4.82207594407353,31.2,-10.715,-4.82207594407353,31.2,-10.715,        125P    239
4.82207594407353,31.2,10.2043320210776,-4.82207594407353,31.2,       125P    240
10.2043320210776,-0.482207594407353,0.482207594407353,-1.609,        125P    241
0.482933202107758;                                                   125P    242
128,1,8,1,2,0,1,0,0,1,-0.74390243902439,-0.74390243902439,           127P    243
-0.365853658536585,-0.365853658536585,-3.14159265358979,             127P    244
-3.14159265358979,-3.14159265358979,-1.5707963267949,                127P    245
-1.5707963267949,0.,0.,1.5707963267949,1.5707963267949,              127P    246
3.14159265358979,3.14159265358979,3.14159265358979,1.,1.,            127P    247
0.707106781186548,0.707106781186548,1.,1.,0.707106781186548,         127P    248
0.707106781186548,1.,1.,0.707106781186548,0.707106781186548,1.,      127P    249
1.,0.707106781186548,0.707106781186548,1.,1.,2.46,31.2,5.375,        127P    250
2.46,30.27,5.375,2.46,31.2,7.835,2.46,30.27,7.835,0.,31.2,7.835,     127P    251
0.,30.27,7.835,-2.46,31.2,7.835,-2.46,30.27,7.835,-2.46,31.2,        127P    252
5.375,-2.46,30.27,5.375,-2.46,31.2,2.915,-2.46,30.27,2.915,0.,       127P    253
31.2,2.915,0.,30.27,2.915,2.46,31.2,2.915,2.46,30.27,2.915,2.46,     127P    254
31.2,5.375,2.46,30.27,5.375,-0.74390243902439,                       127P    255
-0.365853658536585,-3.14159265358979,3.14159265358979;               127P    256
128,1,8,1,2,0,1,0,0,1,-0.522857142857142,-0.522857142857142,         129P    257
0.594285714285715,0.594285714285715,-3.14159265358979,               129P    258
-3.14159265358979,-3.14159265358979,-1.5707963267949,                129P    259
-1.5707963267949,0.,0.,1.5707963267949,1.5707963267949,              129P    260
3.14159265358979,3.14159265358979,3.14159265358979,1.,1.,            129P    261
0.707106781186548,0.707106781186548,1.,1.,0.707106781186548,         129P    262
0.707106781186548,1.,1.,0.707106781186548,0.707106781186548,1.,      129P    263
1.,0.707106781186548,0.707106781186548,1.,1.,3.5,27.29,5.375,        129P    264
3.5,31.2,5.375,3.5,27.29,8.875,3.5,31.2,8.875,0.,27.29,8.875,0.,     129P    265
31.2,8.875,-3.5,27.29,8.875,-3.5,31.2,8.875,-3.5,27.29,5.375,        129P    266
-3.5,31.2,5.375,-3.5,27.29,1.875,-3.5,31.2,1.875,0.,27.29,1.875,     129P    267
0.,31.2,1.875,3.5,27.29,1.875,3.5,31.2,1.875,3.5,27.29,5.375,        129P    268
3.5,31.2,5.375,-0.522857142857142,0.594285714285715,                 129P    269
-3.14159265358979,3.14159265358979;                                  129P    270
128,1,1,1,1,0,0,1,0,0,-0.351,-0.351,0.351,0.351,-0.351,-0.351,       131P    271
0.351,0.351,1.,1.,1.,1.,-3.51,27.29,1.865,3.51,27.29,1.865,          131P    272
-3.51,27.29,8.885,3.51,27.29,8.885,-0.351,0.351,-0.351,0.351;        131P    273
502,16,2.04,31.2,-9.105,-2.04,31.2,-9.105,2.04,29.79,-9.105,         133P    274
-2.04,29.79,-9.105,-2.67,31.2,3.11201524530102,-2.67,29.79,          133P    275
3.11201524530102,2.67,31.2,3.11201524530102,2.67,29.79,              133P    276
3.11201524530102,1.31,30.27,5.375,1.31,29.37,5.375,2.46,30.27,       133P    277
5.375,2.46,29.37,5.375,2.46,27.29,5.375,3.5,31.2,5.375,2.46,         133P    278
31.2,5.375,3.5,27.29,5.375;                                          133P    279
504,24,61,133,1,133,2,63,133,1,133,3,65,133,4,133,3,67,133,2,        135P    280
133,4,69,133,5,133,2,71,133,6,133,4,73,133,5,133,6,75,133,7,133,     135P    281
1,77,133,8,133,7,79,133,3,133,8,81,133,6,133,8,83,133,9,133,9,       135P    282
85,133,9,133,10,87,133,10,133,10,89,133,11,133,11,91,133,12,133,     135P    283
12,93,133,13,133,13,95,133,13,133,12,97,133,5,133,14,99,133,14,      135P    284
133,7,101,133,15,133,15,103,133,11,133,15,105,133,16,133,16,107,     135P    285
133,16,133,14;                                                       135P    286
406,1,5HBody3;                                                       137P    287
314,62.7450980392157,62.7450980392157,62.7450980392157,13HSteel      139P    288
- Satin;                                                             139P    289
314,96.4705882352941,96.4705882352941,95.2941176470588,11HABS (W     141P    290
hite);                                                               141P    291
S      1G      2D    142P    291                                        T      1
