                                                                        S      1
,,12Hsplineddrive,12Hsplineddrive,7Hunknown,7Hunknown,32,38,7,99,15,,1.,G      1
2,2HMM,1,0.08,15H20220618.230359,0.01,10000.,7Hunknown,7Hunknown,11,0,; G      2
     186       1                                                00000000D      1
     186             -73       1       0                               0D      2
     514       2                                                00010000D      3
     514                       1       1                               0D      4
     510       3                                                00010000D      5
     510             -73       1       1                               0D      6
     510       4                                                00010000D      7
     510             -73       1       1                               0D      8
     510       5                                                00010000D      9
     510             -73       1       1                               0D     10
     510       6                                                00010000D     11
     510             -73       1       1                               0D     12
     510       7                                                00010000D     13
     510             -73       1       1                               0D     14
     510       8                                                00010000D     15
     510             -73       1       1                               0D     16
     508       9                                                00010000D     17
     508                       1       1                               0D     18
     508      10                                                00010000D     19
     508                       2       1                               0D     20
     508      12                                                00010000D     21
     508                       1       1                               0D     22
     508      13                                                00010000D     23
     508                       1       1                               0D     24
     508      14                                                00010000D     25
     508                       2       1                               0D     26
     508      16                                                00010000D     27
     508                       1       1                               0D     28
     508      17                                                00010000D     29
     508                       1       1                               0D     30
     126      18                                                00010000D     31
     126       0               9       0                               0D     32
     126      27                                                00010000D     33
     126       0               4       0                               0D     34
     126      31                                                00010000D     35
     126       0               5       0                               0D     36
     126      36                                                00010000D     37
     126       0               5       0                               0D     38
     126      41                                                00010000D     39
     126       0               3       0                               0D     40
     126      44                                                00010000D     41
     126       0               5       0                               0D     42
     126      49                                                00010000D     43
     126       0               7       0                               0D     44
     126      56                                                00010000D     45
     126       0               5       0                               0D     46
     126      61                                                00010000D     47
     126       0               7       0                               0D     48
     126      68                                                00010000D     49
     126       0               3       0                               0D     50
     126      71                                                00010000D     51
     126       0               7       0                               0D     52
     126      78                                                00010000D     53
     126       0               5       0                               0D     54
     128      83                                                00010000D     55
     128       0     -73      14       0                               0D     56
     128      97                                                00010000D     57
     128       0     -73      14       0                               0D     58
     128     111                                                00010000D     59
     128       0     -73       3       0                               0D     60
     128     114                                                00010000D     61
     128       0     -73      14       0                               0D     62
     128     128                                                00010000D     63
     128       0     -73       4       0                               0D     64
     128     132                                                00010000D     65
     128       0     -73       3       0                               0D     66
     502     135                                                00010000D     67
     502                       3       1                               0D     68
     504     138                                                00010001D     69
     504                       3       1                               0D     70
     406     141                                                00000000D     71
     406                       1      15                               0D     72
     314     142                                                00000200D     73
     314                       2       0                               0D     74
186,3,1,0,0,1,71;                                                      1P      1
514,6,5,1,7,1,9,1,11,1,13,1,15,1;                                      3P      2
510,55,1,1,17;                                                         5P      3
510,57,1,1,19;                                                         7P      4
510,59,2,1,21,23;                                                      9P      5
510,61,1,1,25;                                                        11P      6
510,63,1,1,27;                                                        13P      7
510,65,1,1,29;                                                        15P      8
508,5,0,69,1,1,0,0,69,2,1,0,0,69,3,1,0,0,69,4,1,0,0,69,2,0,0;         17P      9
508,6,0,69,3,0,0,0,69,4,0,0,0,69,5,1,0,0,69,6,0,0,0,69,7,0,0,0,       19P     10
69,5,0,0;                                                             19P     11
508,1,0,69,1,0,0;                                                     21P     12
508,2,0,69,8,1,0,0,69,9,1,0;                                          23P     13
508,6,0,69,8,0,0,0,69,9,0,0,0,69,10,1,0,0,69,11,1,0,0,69,12,1,0,      25P     14
0,69,10,0,0;                                                          25P     15
508,2,0,69,12,0,0,0,69,11,0,0;                                        27P     16
508,2,0,69,6,1,0,0,69,7,1,0;                                          29P     17
126,8,2,0,1,0,0,-3.14159265358979,-3.14159265358979,                  31P     18
-3.14159265358979,-1.5707963267949,-1.5707963267949,0.,0.,            31P     19
1.5707963267949,1.5707963267949,3.14159265358979,                     31P     20
3.14159265358979,3.14159265358979,1.,0.707106781186548,1.,            31P     21
0.707106781186548,1.,0.707106781186548,1.,0.707106781186548,1.,       31P     22
2.21,29.37,5.375,2.21,29.37,7.585,-1.35323471305783D-16,29.37,        31P     23
7.585,-2.21,29.37,7.585,-2.21,29.37,5.375,-2.21,29.37,3.165,          31P     24
-1.35323471305783D-16,29.37,3.165,2.21,29.37,3.165,2.21,29.37,        31P     25
5.375,-3.14159265358979,3.14159265358979,0.,0.,0.;                    31P     26
126,1,1,0,0,1,0,-0.0757073641527347,-0.0757073641527347,              33P     27
0.0757073641527359,0.0757073641527359,1.,1.,2.21,29.37,5.375,         33P     28
2.46,29.12,5.375,-0.0757073641527347,0.0757073641527359,0.,0.,        33P     29
0.;                                                                   33P     30
126,4,2,0,0,0,0,-3.14159265358979,-3.14159265358979,                  35P     31
-3.14159265358979,-1.5707963267949,-1.5707963267949,0.,0.,0.,1.,      35P     32
0.707106781186548,1.,0.707106781186548,1.,2.46,29.12,5.375,2.46,      35P     33
29.12,2.915,-1.50631556295124D-16,29.12,2.915,-2.46,29.12,2.915,      35P     34
-2.46,29.12,5.375,-3.14159265358979,0.,0.,0.,0.;                      35P     35
126,4,2,0,0,0,0,0.,0.,0.,1.5707963267949,1.5707963267949,             37P     36
3.14159265358979,3.14159265358979,3.14159265358979,1.,                37P     37
0.707106781186548,1.,0.707106781186548,1.,-2.46,29.12,5.375,          37P     38
-2.46,29.12,7.835,-1.50631556295124D-16,29.12,7.835,2.46,29.12,       37P     39
7.835,2.46,29.12,5.375,0.,3.14159265358979,0.,0.,0.;                  37P     40
126,1,1,0,0,1,0,-0.451219512195123,-0.451219512195123,                39P     41
6.65040650406504,6.65040650406504,1.,1.,-2.46,29.12,5.375,-2.46,      39P     42
11.65,5.375,-0.451219512195123,6.65040650406504,0.,0.,0.;             39P     43
126,4,2,0,0,0,0,0.,0.,0.,1.5707963267949,1.5707963267949,             41P     44
3.14159265358979,3.14159265358979,3.14159265358979,1.,                41P     45
0.707106781186548,1.,0.707106781186548,1.,2.46,11.65,5.375,2.46,      41P     46
11.65,7.835,1.50631556295124D-16,11.65,7.835,-2.46,11.65,7.835,       41P     47
-2.46,11.65,5.375,0.,3.14159265358979,0.,0.,0.;                       41P     48
126,4,2,0,0,0,0,3.14159265358979,3.14159265358979,                    43P     49
3.14159265358979,4.71238898038469,4.71238898038469,                   43P     50
6.28318530717959,6.28318530717959,6.28318530717959,1.,                43P     51
0.707106781186548,1.,0.707106781186547,1.,-2.46,11.65,5.375,          43P     52
-2.46,11.65,2.915,-4.51894668885373D-16,11.65,2.915,2.46,11.65,       43P     53
2.915,2.46,11.65,5.375,3.14159265358979,6.28318530717959,0.,0.,       43P     54
0.;                                                                   43P     55
126,4,2,0,0,0,0,0.,0.,0.,1.5707963267949,1.5707963267949,             45P     56
3.14159265358979,3.14159265358979,3.14159265358979,1.,                45P     57
0.707106781186548,1.,0.707106781186547,1.,0.,29.37,6.35,-0.975,       45P     58
29.37,6.35,-0.975,29.37,5.375,-0.975,29.37,4.4,                       45P     59
-1.19403062916867D-16,29.37,4.4,0.,3.14159265358979,0.,0.,0.;         45P     60
126,4,2,0,0,0,0,3.14159265358979,3.14159265358979,                    47P     61
3.14159265358979,4.71238898038469,4.71238898038469,                   47P     62
6.28318530717959,6.28318530717959,6.28318530717959,1.,                47P     63
0.707106781186548,1.,0.707106781186547,1.,-1.19403062916867D-16,      47P     64
29.37,4.4,0.975,29.37,4.4,0.975,29.37,5.375,0.975,29.37,6.35,         47P     65
2.38806125833734D-16,29.37,6.35,3.14159265358979,                     47P     66
6.28318530717959,0.,0.,0.;                                            47P     67
126,1,1,0,0,1,0,-2.56410256410256,-2.56410256410256,                  49P     68
2.56410256410256,2.56410256410256,1.,1.,0.,29.37,4.4,0.,24.37,        49P     69
4.4,-2.56410256410256,2.56410256410256,0.,0.,0.;                      49P     70
126,4,2,0,0,0,0,3.14159265358979,3.14159265358979,                    51P     71
3.14159265358979,4.71238898038469,4.71238898038469,                   51P     72
6.28318530717959,6.28318530717959,6.28318530717959,1.,                51P     73
0.707106781186548,1.,0.707106781186547,1.,-1.19403062916867D-16,      51P     74
24.37,4.4,0.975,24.37,4.4,0.975,24.37,5.375,0.975,24.37,6.35,         51P     75
2.38806125833734D-16,24.37,6.35,3.14159265358979,                     51P     76
6.28318530717959,0.,0.,0.;                                            51P     77
126,4,2,0,0,0,0,0.,0.,0.,1.5707963267949,1.5707963267949,             53P     78
3.14159265358979,3.14159265358979,3.14159265358979,1.,                53P     79
0.707106781186548,1.,0.707106781186547,1.,0.,24.37,6.35,-0.975,       53P     80
24.37,6.35,-0.975,24.37,5.375,-0.975,24.37,4.4,                       53P     81
-1.19403062916867D-16,24.37,4.4,0.,3.14159265358979,0.,0.,0.;         53P     82
128,1,8,1,2,0,1,0,0,1,-0.0757073641527359,-0.0757073641527359,        55P     83
0.0757073641527347,0.0757073641527347,-3.14159265358979,              55P     84
-3.14159265358979,-3.14159265358979,-1.5707963267949,                 55P     85
-1.5707963267949,0.,0.,1.5707963267949,1.5707963267949,               55P     86
3.14159265358979,3.14159265358979,3.14159265358979,1.,1.,             55P     87
0.707106781186548,0.707106781186548,1.,1.,0.707106781186548,          55P     88
0.707106781186548,1.,1.,0.707106781186548,0.707106781186548,1.,       55P     89
1.,0.707106781186548,0.707106781186548,1.,1.,2.21,29.37,5.375,        55P     90
2.46,29.12,5.375,2.21,29.37,3.165,2.46,29.12,2.915,0.,29.37,          55P     91
3.165,0.,29.12,2.915,-2.21,29.37,3.165,-2.46,29.12,2.915,-2.21,       55P     92
29.37,5.375,-2.46,29.12,5.375,-2.21,29.37,7.585,-2.46,29.12,          55P     93
7.835,0.,29.37,7.585,0.,29.12,7.835,2.21,29.37,7.585,2.46,29.12,      55P     94
7.835,2.21,29.37,5.375,2.46,29.12,5.375,-0.0757073641527359,          55P     95
0.0757073641527347,-3.14159265358979,3.14159265358979;                55P     96
128,1,8,1,2,0,1,0,0,1,-6.65040650406504,-6.65040650406504,            57P     97
0.451219512195123,0.451219512195123,-3.14159265358979,                57P     98
-3.14159265358979,-3.14159265358979,-1.5707963267949,                 57P     99
-1.5707963267949,0.,0.,1.5707963267949,1.5707963267949,               57P    100
3.14159265358979,3.14159265358979,3.14159265358979,1.,1.,             57P    101
0.707106781186548,0.707106781186548,1.,1.,0.707106781186548,          57P    102
0.707106781186548,1.,1.,0.707106781186548,0.707106781186548,1.,       57P    103
1.,0.707106781186548,0.707106781186548,1.,1.,-2.46,29.12,5.375,       57P    104
-2.46,11.65,5.375,-2.46,29.12,7.835,-2.46,11.65,7.835,0.,29.12,       57P    105
7.835,0.,11.65,7.835,2.46,29.12,7.835,2.46,11.65,7.835,2.46,          57P    106
29.12,5.375,2.46,11.65,5.375,2.46,29.12,2.915,2.46,11.65,2.915,       57P    107
0.,29.12,2.915,0.,11.65,2.915,-2.46,29.12,2.915,-2.46,11.65,          57P    108
2.915,-2.46,29.12,5.375,-2.46,11.65,5.375,-6.65040650406504,          57P    109
0.451219512195123,-3.14159265358979,3.14159265358979;                 57P    110
128,1,1,1,1,0,0,1,0,0,-0.222,-0.222,0.222,0.222,-0.222,-0.222,        59P    111
0.222,0.222,1.,1.,1.,1.,-2.22,29.37,7.595,2.22,29.37,7.595,           59P    112
-2.22,29.37,3.155,2.22,29.37,3.155,-0.222,0.222,-0.222,0.222;         59P    113
128,1,8,1,2,0,1,0,0,1,-2.56410256410256,-2.56410256410256,            61P    114
2.56410256410256,2.56410256410256,-3.14159265358979,                  61P    115
-3.14159265358979,-3.14159265358979,-1.5707963267949,                 61P    116
-1.5707963267949,0.,0.,1.5707963267949,1.5707963267949,               61P    117
3.14159265358979,3.14159265358979,3.14159265358979,1.,1.,             61P    118
0.707106781186548,0.707106781186548,1.,1.,0.707106781186548,          61P    119
0.707106781186548,1.,1.,0.707106781186548,0.707106781186548,1.,       61P    120
1.,0.707106781186548,0.707106781186548,1.,1.,0.,29.37,4.4,0.,         61P    121
24.37,4.4,0.975,29.37,4.4,0.975,24.37,4.4,0.975,29.37,5.375,          61P    122
0.975,24.37,5.375,0.975,29.37,6.35,0.975,24.37,6.35,0.,29.37,         61P    123
6.35,0.,24.37,6.35,-0.975,29.37,6.35,-0.975,24.37,6.35,-0.975,        61P    124
29.37,5.375,-0.975,24.37,5.375,-0.975,29.37,4.4,-0.975,24.37,         61P    125
4.4,0.,29.37,4.4,0.,24.37,4.4,-2.56410256410256,                      61P    126
2.56410256410256,-3.14159265358979,3.14159265358979;                  61P    127
128,1,1,1,1,0,0,1,0,0,-0.0985,-0.0985,0.0985,0.0985,-0.0985,          63P    128
-0.0985,0.0985,0.0985,1.,1.,1.,1.,0.985,24.37,6.36,0.985,24.37,       63P    129
4.39,-0.985,24.37,6.36,-0.985,24.37,4.39,-0.0985,0.0985,-0.0985,      63P    130
0.0985;                                                               63P    131
128,1,1,1,1,0,0,1,0,0,-0.247,-0.247,0.247,0.247,-0.247,-0.247,        65P    132
0.247,0.247,1.,1.,1.,1.,2.47,11.65,7.845,-2.47,11.65,7.845,2.47,      65P    133
11.65,2.905,-2.47,11.65,2.905,-0.247,0.247,-0.247,0.247;              65P    134
502,9,2.21,29.37,5.375,2.46,29.12,5.375,-2.46,29.12,5.375,-2.46,      67P    135
11.65,5.375,2.46,11.65,5.375,0.,29.37,6.35,0.,29.37,4.4,0.,           67P    136
24.37,4.4,0.,24.37,6.35;                                              67P    137
504,12,31,67,1,67,1,33,67,1,67,2,35,67,2,67,3,37,67,3,67,2,39,        69P    138
67,3,67,4,41,67,5,67,4,43,67,4,67,5,45,67,6,67,7,47,67,7,67,6,        69P    139
49,67,7,67,8,51,67,8,67,9,53,67,9,67,8;                               69P    140
406,1,5HBody1;                                                        71P    141
314,62.7450980392157,62.7450980392157,62.7450980392157,13HSteel       73P    142
- Satin;                                                              73P    143
S      1G      2D     74P    143                                        T      1
