0
SECTION
2
HEADER
9
$INSUNITS
70
4
9
$ACADVER
1
AC1014
9
$HANDSEED
5
FFFF
0
ENDSEC
0
SECTION
2
TABLES
0
TABLE
2
VPORT
5
8
100
AcDbSymbolTable
0
ENDTAB
0
TABLE
2
LTYPE
5
5
100
AcDbSymbolTable
0
LTYPE
5
14
100
AcDbSymbolTableRecord
100
AcDbLinetypeTableRecord
2
BYBLOCK
70
0
0
LTYPE
5
15
100
AcDbSymbolTableRecord
100
AcDbLinetypeTableRecord
2
BYLAYER
70
0
0
ENDTAB
0
TABLE
2
LAYER
5
2
100
AcDbSymbolTable
70
2
0
LAYER
5
50
100
AcDbSymbolTableRecord
100
AcDbLayerTableRecord
2
0
70
0
6
CONTINUOUS
0
ENDTAB
0
TABLE
2
STYLE
5
3
100
AcDbSymbolTable
70
1
0
STYLE
5
11
100
AcDbSymbolTableRecord
100
AcDbTextStyleTableRecord
2
STANDARD
70
0
0
ENDTAB
0
TABLE
2
VIEW
5
6
100
AcDbSymbolTable
70
0
0
ENDTAB
0
TABLE
2
UCS
5
7
100
AcDbSymbolTable
70
0
0
ENDTAB
0
TABLE
2
APPID
5
9
100
AcDbSymbolTable
70
2
0
APPID
5
12
100
AcDbSymbolTableRecord
100
AcDbRegAppTableRecord
2
ACAD
70
0
0
ENDTAB
0
TABLE
2
DIMSTYLE
5
A
100
AcDbSymbolTable
70
1
0
ENDTAB
0
TABLE
2
BLOCK_RECORD
5
1
100
AcDbSymbolTable
70
1
0
BLOCK_RECORD
5
1F
100
AcDbSymbolTableRecord
100
AcDbBlockTableRecord
2
*MODEL_SPACE
0
BLOCK_RECORD
5
1B
100
AcDbSymbolTableRecord
100
AcDbBlockTableRecord
2
*PAPER_SPACE
0
ENDTAB
0
ENDSEC
0
SECTION
2
BLOCKS
0
BLOCK
5
20
100
AcDbEntity
100
AcDbBlockBegin
2
*MODEL_SPACE
0
ENDBLK
5
21
100
AcDbEntity
100
AcDbBlockEnd
0
BLOCK
5
1C
100
AcDbEntity
100
AcDbBlockBegin
2
*PAPER_SPACE
0
ENDBLK
5
1D
100
AcDbEntity
100
AcDbBlockEnd
0
ENDSEC
0
SECTION
2
ENTITIES
0
LWPOLYLINE
5
100
100
AcDbEntity
8
0
100
AcDbPolyline
90
8
70
1
43
0.0
10
-10.5
20
2
10
-10.5
20
-2
10
-2.0000000298023224
20
-2
10
-2.0000000298023224
20
-5
10
-30.000000029802326
20
-5
10
-30.000000029802326
20
5
10
-2.0000000298023224
20
5
10
-2.0000000298023224
20
2
0
LINE
5
101
100
AcDbEntity
8
0
100
AcDbLine
10
-25
20
7.3955709864469857e-30
30
0
11
-25
21
2.3999999999999999
31
0
0
CIRCLE
5
102
100
AcDbEntity
8
0
100
AcDbCircle
10
-25
20
7.3955709864469857e-30
30
0
40
2.3999999999999999
210
0
220
0
230
1
0
SPLINE
5
103
100
AcDbEntity
8
0
100
AcDbSpline
70
4
71
5
72
16
73
10
74
0
42
0.000000001
43
0.0000000001
44
0.0000000001
40
0
40
0
40
0
40
0
40
0
40
0
40
0.20000000000000001
40
0.40000000000000002
40
0.60000000000000009
40
0.80000000000000004
40
1
40
1
40
1
40
1
40
1
40
1
41
1
41
1
41
1
41
1
41
1
41
1
41
1
41
1
41
1
41
1
10
-24.999999546340511
20
2.3999999999999999
30
0
10
-24.980527974329423
20
2.3999999999999999
30
0
10
-24.944227628795076
20
2.3967876059813586
30
0
10
-24.897697356409108
20
2.3823415852118215
30
0
10
-24.848431870350378
20
2.3474187312748844
30
0
10
-24.794791912446755
20
2.2930223878182527
30
0
10
-24.746614021929688
20
2.2539872686086166
30
0
10
-24.701625260930783
20
2.2337126989888594
30
0
10
-24.666711175914472
20
2.2252587691537973
30
0
10
-24.648022453659486
20
2.2222987663390601
30
0
0
CIRCLE
5
104
100
AcDbEntity
8
0
100
AcDbCircle
10
-25
20
7.3955709864469857e-30
30
0
40
1
210
0
220
0
230
1
0
SPLINE
5
105
100
AcDbEntity
8
0
100
AcDbSpline
70
4
71
5
72
16
73
10
74
0
42
0.000000001
43
0.0000000001
44
0.0000000001
40
0
40
0
40
0
40
0
40
0
40
0
40
0.20000000000000001
40
0.40000000000000002
40
0.60000000000000009
40
0.80000000000000004
40
1
40
1
40
1
40
1
40
1
40
1
41
1
41
1
41
1
41
1
41
1
41
1
41
1
41
1
41
1
41
1
10
-25
20
2.3999999999999999
30
0
10
-25.019471589850838
20
2.4000000000000004
30
0
10
-25.055771971233959
20
2.3967876063767486
30
0
10
-25.10230229790065
20
2.3823415873850178
30
0
10
-25.151567857142069
20
2.3474187375354303
30
0
10
-25.20520790695619
20
2.2930223987881391
30
0
10
-25.253385870529943
20
2.2539872797602993
30
0
10
-25.298374685631121
20
2.2337127063827777
30
0
10
-25.333288806336149
20
2.2252587719650241
30
0
10
-25.351977546340521
20
2.2222987663390601
30
0
0
CIRCLE
5
106
100
AcDbEntity
8
0
100
AcDbCircle
10
-25
20
0
30
0
40
1.625
210
0
220
0
230
1
0
LINE
5
107
100
AcDbEntity
8
0
100
AcDbLine
10
-25.347644118671816
20
2.194938580832047
30
0
11
-25.375442716096551
21
2.3704520174283306
31
0
0
SPLINE
5
108
100
AcDbEntity
8
0
100
AcDbSpline
70
4
71
5
72
16
73
10
74
0
42
0.000000001
43
0.0000000001
44
0.0000000001
40
0
40
0
40
0
40
0
40
0
40
0
40
0.20000000000000001
40
0.40000000000000002
40
0.60000000000000009
40
0.80000000000000004
40
1
40
1
40
1
40
1
40
1
40
1
41
1
41
1
41
1
41
1
41
1
41
1
41
1
41
1
41
1
41
1
10
-25.741640786499872
20
2.2825356391083824
30
0
10
-25.723122204089606
20
2.28855269127979
30
0
10
-25.687605805608996
20
2.2967149581411683
30
0
10
-25.638888769858124
20
2.2973546393383515
30
0
10
-25.581242684617163
20
2.2793649304642871
30
0
10
-25.513418572602209
20
2.2442066250077595
30
0
10
-25.455536091246287
20
2.2219698301906603
30
0
10
-25.406483997756535
20
2.2165898734879224
30
0
10
-25.370666286344886
20
2.2193387607130988
30
0
10
-25.351977546340514
20
2.2222987663390628
30
0
0
LINE
5
109
100
AcDbEntity
8
0
100
AcDbLine
10
-25.351977546340521
20
2.2222987663390601
30
0
11
-26.537203555054688
21
2.0345774082907839
31
0
0
LINE
5
110
100
AcDbEntity
8
0
100
AcDbLine
10
-25.695288237343632
20
2.139877161664093
30
0
11
-25
21
2.25
31
0
0
LINE
5
111
100
AcDbEntity
8
0
100
AcDbLine
10
-25.351977546340521
20
2.2222987663390601
30
0
11
-25
21
7.3955709864469857e-30
31
0
0
LINE
5
112
100
AcDbEntity
8
0
100
AcDbLine
10
-24.648022453659486
20
2.2222987663390601
30
0
11
-25.000000000000004
21
-1.8488927466117464e-31
31
0
0
CIRCLE
5
113
100
AcDbEntity
8
0
100
AcDbCircle
10
-25.000000000000004
20
-1.8488927466117464e-31
30
0
40
2.25
210
0
220
0
230
1
0
LINE
5
114
100
AcDbEntity
8
0
100
AcDbLine
10
-25
20
0
30
0
11
-25.455166278062297
21
1.4008577606696568
31
0
0
LINE
5
115
100
AcDbEntity
8
0
100
AcDbLine
10
-25
20
2.3999999999999999
30
0
11
-29
21
2.3999999999999999
31
0
0
ENDSEC
0
SECTION
2
OBJECTS
0
DICTIONARY
5
C
100
AcDbDictionary
3
ACAD_GROUP
350
D
3
ACAD_MLINESTYLE
350
17
0
DICTIONARY
5
D
100
AcDbDictionary
0
DICTIONARY
5
1A
330
C
100
AcDbDictionary
0
DICTIONARY
5
17
100
AcDbDictionary
0
ENDSEC
0
EOF
