0
SECTION
2
HEADER
9
$INSUNITS
70
4
9
$ACADVER
1
AC1014
9
$HANDSEED
5
FFFF
0
ENDSEC
0
SECTION
2
TABLES
0
TABLE
2
VPORT
5
8
100
AcDbSymbolTable
0
ENDTAB
0
TABLE
2
LTYPE
5
5
100
AcDbSymbolTable
0
LTYPE
5
14
100
AcDbSymbolTableRecord
100
AcDbLinetypeTableRecord
2
BYBLOCK
70
0
0
LTYPE
5
15
100
AcDbSymbolTableRecord
100
AcDbLinetypeTableRecord
2
BYLAYER
70
0
0
ENDTAB
0
TABLE
2
LAYER
5
2
100
AcDbSymbolTable
70
2
0
LAYER
5
50
100
AcDbSymbolTableRecord
100
AcDbLayerTableRecord
2
0
70
0
6
CONTINUOUS
0
ENDTAB
0
TABLE
2
STYLE
5
3
100
AcDbSymbolTable
70
1
0
STYLE
5
11
100
AcDbSymbolTableRecord
100
AcDbTextStyleTableRecord
2
STANDARD
70
0
0
ENDTAB
0
TABLE
2
VIEW
5
6
100
AcDbSymbolTable
70
0
0
ENDTAB
0
TABLE
2
UCS
5
7
100
AcDbSymbolTable
70
0
0
ENDTAB
0
TABLE
2
APPID
5
9
100
AcDbSymbolTable
70
2
0
APPID
5
12
100
AcDbSymbolTableRecord
100
AcDbRegAppTableRecord
2
ACAD
70
0
0
ENDTAB
0
TABLE
2
DIMSTYLE
5
A
100
AcDbSymbolTable
70
1
0
ENDTAB
0
TABLE
2
BLOCK_RECORD
5
1
100
AcDbSymbolTable
70
1
0
BLOCK_RECORD
5
1F
100
AcDbSymbolTableRecord
100
AcDbBlockTableRecord
2
*MODEL_SPACE
0
BLOCK_RECORD
5
1B
100
AcDbSymbolTableRecord
100
AcDbBlockTableRecord
2
*PAPER_SPACE
0
ENDTAB
0
ENDSEC
0
SECTION
2
BLOCKS
0
BLOCK
5
20
100
AcDbEntity
100
AcDbBlockBegin
2
*MODEL_SPACE
0
ENDBLK
5
21
100
AcDbEntity
100
AcDbBlockEnd
0
BLOCK
5
1C
100
AcDbEntity
100
AcDbBlockBegin
2
*PAPER_SPACE
0
ENDBLK
5
1D
100
AcDbEntity
100
AcDbBlockEnd
0
ENDSEC
0
SECTION
2
ENTITIES
0
LWPOLYLINE
5
100
100
AcDbEntity
8
0
100
AcDbPolyline
90
4
70
1
43
0.0
10
9.5000000298023224
20
-5
10
9.5000000298023224
20
5
10
25.000000029802326
20
5
42
-0.99999999999999989
10
25.000000029802326
20
-5
0
SPLINE
5
101
100
AcDbEntity
8
0
100
AcDbSpline
70
0
71
3
72
16
73
12
74
0
42
0.000000001
43
0.0000000001
44
0.0000000001
40
0
40
0
40
0
40
0
40
0.01159345424830218
40
0.01159345424830218
40
0.024518941320520495
40
0.024518941320520495
40
0.036040386074708108
40
0.036040386074708108
40
0.042029088811547516
40
0.042029088811547516
40
0.048743652701591866
40
0.048743652701591866
40
0.048743652701591866
40
0.048743652701591866
10
23.978521375586027
20
-2.0047646794238272
30
0
10
23.944088564342302
20
-1.9872202857975161
30
0
10
23.912178995931122
20
-1.9790738213477481
30
0
10
23.843100052845799
20
-1.9740536467759131
30
0
10
23.808766162598243
20
-1.9788002453344782
30
0
10
23.744035544776466
20
-1.9853679683034344
30
0
10
23.713898219203582
20
-1.9874216052555724
30
0
10
23.666808335729183
20
-1.9796098996941824
30
0
10
23.651502403656586
20
-1.9751650563189471
30
0
10
23.619699427196341
20
-1.9616280064070482
30
0
10
23.604063322118762
20
-1.9523557831162548
30
0
10
23.58931576151631
20
-1.941641053154235
30
0
0
SPLINE
5
102
100
AcDbEntity
8
0
100
AcDbSpline
70
0
71
3
72
16
73
12
74
0
42
0.000000001
43
0.0000000001
44
0.0000000001
40
0
40
0
40
0
40
0
40
0.010016820916683475
40
0.010016820916683475
40
0.019656268104634562
40
0.019656268104634562
40
0.033892653830846109
40
0.033892653830846109
40
0.041215311104627742
40
0.041215311104627742
40
0.049288732763970743
40
0.049288732763970743
40
0.049288732763970743
40
0.049288732763970743
10
23.589315394498072
20
-1.9416407864998764
30
0
10
23.562302799994047
20
-1.9220149878009392
30
0
10
23.542873623986601
20
-1.9008939374911114
30
0
10
23.514746230226624
20
-1.8545673124227211
30
0
10
23.506444060350361
20
-1.830821440538738
30
0
10
23.490700389042019
20
-1.7703495828674791
30
0
10
23.485625905404092
20
-1.7330690599633345
30
0
10
23.467207572929549
20
-1.6770148073074134
30
0
10
23.459491626064338
20
-1.6593095927181398
30
0
10
23.438011002266933
20
-1.6232817075231369
30
0
10
23.424512815524743
20
-1.6064933308642015
30
0
10
23.409009742330277
20
-1.5909902576697332
30
0
0
SPLINE
5
103
100
AcDbEntity
8
0
100
AcDbSpline
70
0
71
3
72
16
73
12
74
0
42
0.000000001
43
0.0000000001
44
0.0000000001
40
0
40
0
40
0
40
0
40
0.011593454248626015
40
0.011593454248626015
40
0.024518941321706622
40
0.024518941321706622
40
0.036040386076584018
40
0.036040386076584018
40
0.042029088813744925
40
0.042029088813744925
40
0.048743652704123355
40
0.048743652704123355
40
0.048743652704123355
40
0.048743652704123355
10
23.409009742330269
20
-1.590990257669731
30
0
10
23.381683708608342
20
-1.5636642239477996
30
0
10
23.35385330159756
20
-1.5460558769262249
30
0
10
23.28970664189578
20
-1.5199348398202708
30
0
10
23.255586392225954
20
-1.5138393677401487
30
0
10
23.191994378330904
20
-1.5000827825036462
30
0
10
23.162697469742678
20
-1.4927229615420423
30
0
10
23.120326278986436
20
-1.4707420138078149
30
0
10
23.107143004691103
20
-1.4617849234267219
30
0
10
23.081079755167472
20
-1.4390827636986265
30
0
10
23.069074210116483
20
-1.4254325331225983
30
0
10
23.05835948015449
20
-1.4106849725201731
30
0
0
SPLINE
5
104
100
AcDbEntity
8
0
100
AcDbSpline
70
0
71
3
72
16
73
12
74
0
42
0.000000001
43
0.0000000001
44
0.0000000001
40
0
40
0
40
0
40
0
40
0.010016820917162434
40
0.010016820917162434
40
0.019656268106363263
40
0.019656268106363263
40
0.033892653834986075
40
0.033892653834986075
40
0.041215311110190618
40
0.041215311110190618
40
0.049288732771174279
40
0.049288732771174279
40
0.049288732771174279
40
0.049288732771174279
10
23.058359213500133
20
-1.4106846055019395
30
0
10
23.038733414800255
20
-1.3836720109966241
30
0
10
23.026781933837512
20
-1.3575807528953563
30
0
10
23.014346907154007
20
-1.3048296715673611
30
0
10
23.013788952352439
20
-1.2796804937946673
30
0
10
23.017502662866058
20
-1.2173032775167554
30
0
10
23.024196857271896
20
-1.1802792915964311
30
0
10
23.024001698830364
20
-1.1212769515984631
30
0
10
23.022134609481895
20
-1.1020539331823325
30
0
10
23.012838551041991
20
-1.0611515003963774
30
0
10
23.005188906278235
20
-1.0410136362802866
30
0
10
22.995235320576178
20
-1.0214786244139806
30
0
0
SPLINE
5
105
100
AcDbEntity
8
0
100
AcDbSpline
70
0
71
3
72
16
73
12
74
0
42
0.000000001
43
0.0000000001
44
0.0000000001
40
0
40
0
40
0
40
0
40
0.011593454248735976
40
0.011593454248735976
40
0.024518941322126744
40
0.024518941322126744
40
0.036040386077439535
40
0.036040386077439535
40
0.042029088814913386
40
0.042029088814913386
40
0.048743652705674573
40
0.048743652705674573
40
0.048743652705674573
40
0.048743652705674573
10
22.995235320576178
20
-1.0214786244139784
30
0
10
22.977690926949208
20
-0.98704581316896844
30
0
10
22.956663915482849
20
-0.96169921126628144
30
0
10
22.903728661151451
20
-0.91703422073415042
30
0
10
22.873161979826719
20
-0.90069334529214506
30
0
10
22.816933399249898
20
-0.8679590422607304
30
0
10
22.791344693182705
20
-0.85190619394006506
30
0
10
22.757839782513301
20
-0.81790765234762242
30
0
10
22.748069636736567
20
-0.80531509737486817
30
0
10
22.730297366606376
20
-0.77567007340021044
30
0
10
22.723097567979092
20
-0.75897801521443542
30
0
10
22.71746450108013
20
-0.7416412179556886
30
0
0
SPLINE
5
106
100
AcDbEntity
8
0
100
AcDbSpline
70
0
71
3
72
16
73
12
74
0
42
0.000000001
43
0.0000000001
44
0.0000000001
40
0
40
0
40
0
40
0
40
0.010016820917631408
40
0.010016820917631408
40
0.019656268107539007
40
0.019656268107539007
40
0.033892653836507858
40
0.033892653836507858
40
0.041215311111806555
40
0.041215311111806555
40
0.049288732772862963
40
0.049288732772862963
40
0.049288732772862963
40
0.049288732772862963
10
22.717464360891636
20
-0.74164078649987975
30
0
10
22.707146467914441
20
-0.70988557714563005
30
0
10
22.703842576223956
20
-0.68137810538477395
30
0
10
22.708317143668136
20
-0.62736621117752556
30
0
10
22.715558020444337
20
-0.60327550426173837
30
0
10
22.738365588920022
20
-0.5450988459121906
30
0
10
22.756173186980028
20
-0.51195556267821485
30
0
10
22.774220306039513
20
-0.45578069547209304
30
0
10
22.778384837922005
20
-0.43692155620564438
30
0
10
22.782183307809007
20
-0.39514839093351745
30
0
10
22.78113100555138
20
-0.37363227380875302
30
0
10
22.777701233660945
20
-0.35197754634051837
30
0
0
SPLINE
5
107
100
AcDbEntity
8
0
100
AcDbSpline
70
0
71
3
72
16
73
12
74
0
42
0.000000001
43
0.0000000001
44
0.0000000001
40
0
40
0
40
0
40
0
40
0.011593454247928367
40
0.011593454247928367
40
0.024518941319147544
40
0.024518941319147544
40
0.036040386072867601
40
0.036040386072867601
40
0.042029088809549829
40
0.042029088809549829
40
0.048743652699424891
40
0.048743652699424891
40
0.048743652699424891
40
0.048743652699424891
10
22.777701233660945
20
-0.35197754634051837
30
0
10
22.771655847616792
20
-0.31380848104751285
30
0
10
22.759490502082066
20
-0.28320472625761106
30
0
10
22.722948324635443
20
-0.22436790277008564
30
0
10
22.698927291394849
20
-0.19938118270810729
30
0
10
22.655566189370951
20
-0.15087342353595506
30
0
10
22.636190486661249
20
-0.12769891249663878
30
0
10
22.614831550176973
20
-0.085010791178573741
30
0
10
22.609430902859998
20
-0.070015418632382739
30
0
10
22.601689285750023
20
-0.036329391906450653
30
0
10
22.600000000000001
20
-0.018229441066523095
30
0
10
22.600000000000001
20
-4.5365949219444701e-07
30
0
0
SPLINE
5
108
100
AcDbEntity
8
0
100
AcDbSpline
70
0
71
3
72
16
73
12
74
0
42
0.000000001
43
0.0000000001
44
0.0000000001
40
0
40
0
40
0
40
0
40
0.010016820917051521
40
0.010016820917051521
40
0.019656268105714449
40
0.019656268105714449
40
0.033892653832852657
40
0.033892653832852657
40
0.041215311107087746
40
0.041215311107087746
40
0.049288732766922194
40
0.049288732766922194
40
0.049288732766922194
40
0.049288732766922194
10
22.600000000000001
20
-4.4408920985006262e-15
30
0
10
22.600000000000001
20
0.033389403056833959
30
0
10
22.605667105518744
20
0.061522578518407742
30
0
10
22.62661326525318
20
0.11150822508038942
30
0
10
22.640944186138281
20
0.13218229489672029
30
0
10
22.680613048863911
20
0.18046365865705521
30
0
10
22.707790918807195
20
0.2064819437186656
30
0
10
22.742313737612257
20
0.2543305507378224
30
0
10
22.75210223732925
20
0.27097974690379745
30
0
10
22.768623414845209
20
0.30953459619454526
30
0
10
22.7742714617705
20
0.33032281887225506
30
0
10
22.777701233660945
20
0.35197754634051837
30
0
0
SPLINE
5
109
100
AcDbEntity
8
0
100
AcDbSpline
70
0
71
3
72
16
73
12
74
0
42
0.000000001
43
0.0000000001
44
0.0000000001
40
0
40
0
40
0
40
0
40
0.011593454248018501
40
0.011593454248018501
40
0.024518941319494968
40
0.024518941319494968
40
0.03604038607304412
40
0.03604038607304412
40
0.042029088809503568
40
0.042029088809503568
40
0.048743652699114189
40
0.048743652699114189
40
0.048743652699114189
40
0.048743652699114189
10
22.777701233660945
20
0.35197754634052281
30
0
10
22.783746619705134
20
0.39014661163382625
30
0
10
22.781633768882976
20
0.42301181056248793
30
0
10
22.765061671255602
20
0.49026110878039347
30
0
10
22.749937632196897
20
0.52144779920988427
30
0
10
22.72368849550681
20
0.58098073708103948
30
0
10
22.712422424934129
20
0.60900842823256074
30
0
10
22.705300224154787
20
0.65620751853629522
30
0
10
22.704797728285484
20
0.67213785711228391
30
0
10
22.707844567617666
20
0.70656746358907274
30
0
10
22.71183115380413
20
0.72430355778516953
30
0
10
22.717464220703143
20
0.74164035504405756
30
0
0
SPLINE
5
110
100
AcDbEntity
8
0
100
AcDbSpline
70
0
71
3
72
16
73
12
74
0
42
0.000000001
43
0.0000000001
44
0.0000000001
40
0
40
0
40
0
40
0
40
0.010016820917046546
40
0.010016820917046546
40
0.019656268105774241
40
0.019656268105774241
40
0.033892653833215616
40
0.033892653833215616
40
0.041215311107676254
40
0.041215311107676254
40
0.0492887327677883
40
0.0492887327677883
40
0.0492887327677883
40
0.0492887327677883
10
22.717464360891633
20
0.74164078649987086
30
0
10
22.727782253868231
20
0.77339599585226415
30
0
10
22.741865620823699
20
0.79840100378485657
30
0
10
22.777233016793158
20
0.83946745934423483
30
0
10
22.797251171401701
20
0.85470117006285529
30
0
10
22.849898263704198
20
0.88836112295280489
30
0
10
22.883786046261175
20
0.90470755882000875
30
0
10
22.931405230773031
20
0.93954615061695712
30
0
10
22.945859531771422
20
0.95235566435959895
30
0
10
22.973486208951218
20
0.98391818039278456
30
0
10
22.985281734874125
20
1.0019436125476935
30
0
10
22.995235320576178
20
1.0214786244139784
30
0
0
SPLINE
5
111
100
AcDbEntity
8
0
100
AcDbSpline
70
0
71
3
72
16
73
12
74
0
42
0.000000001
43
0.0000000001
44
0.0000000001
40
0
40
0
40
0
40
0
40
0.011593454248336984
40
0.011593454248336984
40
0.02451894132062275
40
0.02451894132062275
40
0.036040386074750144
40
0.036040386074750144
40
0.042029088811461085
40
0.042029088811461085
40
0.04874365270132721
40
0.04874365270132721
40
0.04874365270132721
40
0.04874365270132721
10
22.995235320576178
20
1.0214786244139828
30
0
10
23.012779714202537
20
1.0559114356578116
30
0
10
23.020926178652267
20
1.0878210040689849
30
0
10
23.025946353224086
20
1.1568999471541217
30
0
10
23.021199754665535
20
1.1912338374016924
30
0
10
23.01463203169661
20
1.2559644552229923
30
0
10
23.012578394744395
20
1.2861017807961383
30
0
10
23.020390100305779
20
1.3331916642705821
30
0
10
23.024834943681
20
1.3484975963432784
30
0
10
23.038371993592953
20
1.3803005728036544
30
0
10
23.047644216883732
20
1.3959366778812154
30
0
10
23.058358946845772
20
1.4106842384836948
30
0
0
SPLINE
5
112
100
AcDbEntity
8
0
100
AcDbSpline
70
0
71
3
72
16
73
12
74
0
42
0.000000001
43
0.0000000001
44
0.0000000001
40
0
40
0
40
0
40
0
40
0.010016820917644614
40
0.010016820917644614
40
0.019656268107627523
40
0.019656268107627523
40
0.033892653836844783
40
0.033892653836844783
40
0.041215311112265229
40
0.041215311112265229
40
0.049288732773447232
40
0.049288732773447232
40
0.049288732773447232
40
0.049288732773447232
10
23.058359213500129
20
1.4106846055019329
30
0
10
23.077985012200948
20
1.4376972000085495
30
0
10
23.099106062511325
20
1.457126376014898
30
0
10
23.145432687577546
20
1.4852537697735333
30
0
10
23.169178559461706
20
1.4935559396497811
30
0
10
23.229650417132962
20
1.5092996109580654
30
0
10
23.266930940036843
20
1.5143740945959538
30
0
10
23.322985192693075
20
1.5327924270706266
30
0
10
23.340690407282089
20
1.5405083739357981
30
0
10
23.376718292476916
20
1.5619889977331183
30
0
10
23.393506669135821
20
1.5754871844752838
30
0
10
23.409009742330269
20
1.5909902576697288
30
0
0
SPLINE
5
113
100
AcDbEntity
8
0
100
AcDbSpline
70
0
71
3
72
16
73
12
74
0
42
0.000000001
43
0.0000000001
44
0.0000000001
40
0
40
0
40
0
40
0
40
0.01159345424801567
40
0.01159345424801567
40
0.024518941319497216
40
0.024518941319497216
40
0.036040386073541153
40
0.036040386073541153
40
0.042029088810366801
40
0.042029088810366801
40
0.048743652700382112
40
0.048743652700382112
40
0.048743652700382112
40
0.048743652700382112
10
23.409009742330269
20
1.5909902576697332
30
0
10
23.436335776050768
20
1.6183162913902238
30
0
10
23.453944123073029
20
1.6461466984006135
30
0
10
23.480065160179613
20
1.7102933581038999
30
0
10
23.486160632259775
20
1.7444136077736108
30
0
10
23.499917217496339
20
1.8080056216690839
30
0
10
23.507277038457932
20
1.8373025302570856
30
0
10
23.529257986191961
20
1.8796737210131966
30
0
10
23.538215076573074
20
1.8928569953086227
30
0
10
23.560917236301218
20
1.9189202448323988
30
0
10
23.574567466877333
20
1.9309257898834646
30
0
10
23.589315027479827
20
1.9416405198455156
30
0
0
SPLINE
5
114
100
AcDbEntity
8
0
100
AcDbSpline
70
0
71
3
72
16
73
12
74
0
42
0.000000001
43
0.0000000001
44
0.0000000001
40
0
40
0
40
0
40
0
40
0.010016820917429319
40
0.010016820917429319
40
0.019656268106950286
40
0.019656268106950286
40
0.03389265383544933
40
0.03389265383544933
40
0.041215311110498379
40
0.041215311110498379
40
0.049288732771271243
40
0.049288732771271243
40
0.049288732771271243
40
0.049288732771271243
10
23.589315394498065
20
1.9416407864998719
30
0
10
23.616327989004098
20
1.9612665852002731
30
0
10
23.642419247105391
20
1.973218066162667
30
0
10
23.695170328432006
20
1.9856530928458491
30
0
10
23.720319506204447
20
1.9862110476476147
30
0
10
23.782696722483365
20
1.9824973371339341
30
0
10
23.819720708403768
20
1.9758031427280909
30
0
10
23.878723048401316
20
1.9759983011696483
30
0
10
23.897946066817617
20
1.9778653905180907
30
0
10
23.938848499603672
20
1.9871614489580316
30
0
10
23.958986363719728
20
1.9948110937217747
30
0
10
23.97852137558602
20
2.0047646794238272
30
0
0
SPLINE
5
115
100
AcDbEntity
8
0
100
AcDbSpline
70
0
71
3
72
16
73
12
74
0
42
0.000000001
43
0.0000000001
44
0.0000000001
40
0
40
0
40
0
40
0
40
0.011593454248317828
40
0.011593454248317828
40
0.024518941320602651
40
0.024518941320602651
40
0.036040386074830885
40
0.036040386074830885
40
0.042029088811685079
40
0.042029088811685079
40
0.048743652701745847
40
0.048743652701745847
40
0.048743652701745847
40
0.048743652701745847
10
23.978521375586027
20
2.0047646794238281
30
0
10
24.012954186829795
20
2.0223090730501649
30
0
10
24.038300788732805
20
2.043336084516099
30
0
10
24.08296577926556
20
2.0962713388481689
30
0
10
24.099306654707547
20
2.1268380201726895
30
0
10
24.132040957738639
20
2.1830666007490684
30
0
10
24.148093806059379
20
2.2086553068166688
30
0
10
24.182092347652109
20
2.242160217486485
30
0
10
24.194684902624882
20
2.251930363263261
30
0
10
24.224329926599655
20
2.269702633393563
30
0
10
24.241021984785448
20
2.2769024320208739
30
0
10
24.258358782044315
20
2.2825354989198754
30
0
0
SPLINE
5
116
100
AcDbEntity
8
0
100
AcDbSpline
70
0
71
3
72
16
73
12
74
0
42
0.000000001
43
0.0000000001
44
0.0000000001
40
0
40
0
40
0
40
0
40
0.010016820917282787
40
0.010016820917282787
40
0.019656268106553042
40
0.019656268106553042
40
0.033892653834802451
40
0.033892653834802451
40
0.041215311109754099
40
0.041215311109754099
40
0.049288732770428584
40
0.049288732770428584
40
0.049288732770428584
40
0.049288732770428584
10
24.258359213500125
20
2.2825356391083673
30
0
10
24.290114422853271
20
2.2928535320852035
30
0
10
24.318621894614203
20
2.2961574237761333
30
0
10
24.372633788822714
20
2.2916828563318443
30
0
10
24.396724495738539
20
2.2844419795555582
30
0
10
24.454901154087814
20
2.2616344110799838
30
0
10
24.488044437321573
20
2.2438268130200649
30
0
10
24.544219304528035
20
2.2257796939604488
30
0
10
24.56307844379435
20
2.2216151620779989
30
0
10
24.604851609066472
20
2.2178166921909956
30
0
10
24.626367726191237
20
2.2188689944486222
30
0
10
24.648022453659486
20
2.2222987663390601
30
0
0
SPLINE
5
117
100
AcDbEntity
8
0
100
AcDbSpline
70
0
71
3
72
16
73
12
74
0
42
0.000000001
43
0.0000000001
44
0.0000000001
40
0
40
0
40
0
40
0
40
0.011593454248443175
40
0.011593454248443175
40
0.024518941321041134
40
0.024518941321041134
40
0.036040386075639787
40
0.036040386075639787
40
0.042029088812697991
40
0.042029088812697991
40
0.048743652702980075
40
0.048743652702980075
40
0.048743652702980075
40
0.048743652702980075
10
24.648022453659486
20
2.2222987663390601
30
0
10
24.686191518954189
20
2.2283441523834733
30
0
10
24.71679527374382
20
2.2405094979188194
30
0
10
24.775632097230162
20
2.2770516753647221
30
0
10
24.800618817292218
20
2.3010727086054628
30
0
10
24.849126576464208
20
2.3444338106291855
30
0
10
24.872301087503587
20
2.363809513338945
30
0
10
24.914989208821673
20
2.3851684498231114
30
0
10
24.929984581367872
20
2.3905690971400846
30
0
10
24.963670608093693
20
2.3983107142499946
30
0
10
24.981770558933572
20
2.3999999999999999
30
0
10
24.999999546340511
20
2.3999999999999999
30
0
0
SPLINE
5
118
100
AcDbEntity
8
0
100
AcDbSpline
70
0
71
3
72
16
73
12
74
0
42
0.000000001
43
0.0000000001
44
0.0000000001
40
0
40
0
40
0
40
0
40
0.01001682091712024
40
0.01001682091712024
40
0.019656268105964401
40
0.019656268105964401
40
0.033892653833390282
40
0.033892653833390282
40
0.041215311107868913
40
0.041215311107868913
40
0.049288732768010851
40
0.049288732768010851
40
0.049288732768010851
40
0.049288732768010851
10
25
20
2.3999999999999999
30
0
10
25.033389403057068
20
2.4000000000000004
30
0
10
25.06152257851857
20
2.3943328944811841
30
0
10
25.111508225080449
20
2.3733867347468034
30
0
10
25.132182294896793
20
2.3590558138616702
30
0
10
25.180463658657118
20
2.3193869511360301
30
0
10
25.206481943718511
20
2.2922090811929339
30
0
10
25.254330550738157
20
2.2576862623874923
30
0
10
25.270979746903897
20
2.2478977626707146
30
0
10
25.309534596194577
20
2.231376585154782
30
0
10
25.330322818872297
20
2.2257285382294962
30
0
10
25.351977546340521
20
2.2222987663390601
30
0
0
SPLINE
5
119
100
AcDbEntity
8
0
100
AcDbSpline
70
0
71
3
72
16
73
12
74
0
42
0.000000001
43
0.0000000001
44
0.0000000001
40
0
40
0
40
0
40
0
40
0.011593454248345654
40
0.011593454248345654
40
0.024518941320678878
40
0.024518941320678878
40
0.036040386074917871
40
0.036040386074917871
40
0.042029088811757549
40
0.042029088811757549
40
0.048743652701794524
40
0.048743652701794524
40
0.048743652701794524
40
0.048743652701794524
10
25.351977546340528
20
2.2222987663390601
30
0
10
25.390146611634911
20
2.2162533802946989
30
0
10
25.423011810563565
20
2.2183662311172707
30
0
10
25.490261108780846
20
2.2349383287445406
30
0
10
25.521447799210428
20
2.2500623678033649
30
0
10
25.580980737081855
20
2.2763115044935232
30
0
10
25.609008428233206
20
2.2875775750660368
30
0
10
25.656207518536675
20
2.2946997758452383
30
0
10
25.672137857112599
20
2.2952022717145053
30
0
10
25.706567463589213
20
2.2921554323823026
30
0
10
25.72430355778522
20
2.2881688461958567
30
0
10
25.741640355044062
20
2.2825357792968615
30
0
0
SPLINE
5
120
100
AcDbEntity
8
0
100
AcDbSpline
70
0
71
3
72
16
73
12
74
0
42
0.000000001
43
0.0000000001
44
0.0000000001
40
0
40
0
40
0
40
0
40
0.010016820917737397
40
0.010016820917737397
40
0.019656268108070769
40
0.019656268108070769
40
0.033892653838195244
40
0.033892653838195244
40
0.041215311114124922
40
0.041215311114124922
40
0.049288732775882541
40
0.049288732775882541
40
0.049288732775882541
40
0.049288732775882541
10
25.741640786499875
20
2.2825356391083695
30
0
10
25.773395995854461
20
2.2722177461310666
30
0
10
25.798401003786427
20
2.2581343791749688
30
0
10
25.839467459344611
20
2.2227669832065424
30
0
10
25.854701170063258
20
2.2027488285977097
30
0
10
25.888361122952901
20
2.1501017362956323
30
0
10
25.904707558819993
20
2.1162139537388533
30
0
10
25.93954615061719
20
2.0685947692266544
30
0
10
25.952355664359704
20
2.0541404682284976
30
0
10
25.983918180392816
20
2.0265137910487727
30
0
10
26.001943612547688
20
2.0147182651258837
30
0
10
26.021478624413984
20
2.0047646794238281
30
0
0
SPLINE
5
121
100
AcDbEntity
8
0
100
AcDbSpline
70
0
71
3
72
16
73
12
74
0
42
0.000000001
43
0.0000000001
44
0.0000000001
40
0
40
0
40
0
40
0
40
0.011593454248387331
40
0.011593454248387331
40
0.024518941320846369
40
0.024518941320846369
40
0.036040386075262831
40
0.036040386075262831
40
0.042029088812223753
40
0.042029088812223753
40
0.048743652702402454
40
0.048743652702402454
40
0.048743652702402454
40
0.048743652702402454
10
26.021478624413987
20
2.0047646794238272
30
0
10
26.055911435657961
20
1.9872202857973833
30
0
10
26.08782100406917
20
1.9790738213477355
30
0
10
26.156899947154141
20
1.9740536467759084
30
0
10
26.191233837401683
20
1.9788002453344677
30
0
10
26.255964455223495
20
1.9853679683034322
30
0
10
26.286101780796379
20
1.9874216052555751
30
0
10
26.333191664270789
20
1.9796098996941902
30
0
10
26.348497596343393
20
1.9751650563189544
30
0
10
26.380300572803637
20
1.961628006407061
30
0
10
26.39593667788121
20
1.9523557831162837
30
0
10
26.410684238483704
20
1.941641053154235
30
0
0
SPLINE
5
122
100
AcDbEntity
8
0
100
AcDbSpline
70
0
71
3
72
16
73
12
74
0
42
0.000000001
43
0.0000000001
44
0.0000000001
40
0
40
0
40
0
40
0
40
0.010016820917593367
40
0.010016820917593367
40
0.019656268107457291
40
0.019656268107457291
40
0.033892653836378121
40
0.033892653836378121
40
0.041215311111610572
40
0.041215311111610572
40
0.049288732772576511
40
0.049288732772576511
40
0.049288732772576511
40
0.049288732772576511
10
26.410684605501938
20
1.9416407864998764
30
0
10
26.437697200008415
20
1.9220149877991564
30
0
10
26.457126376014799
20
1.9008939374888298
30
0
10
26.485253769773472
20
1.8545673124225603
30
0
10
26.493555939649749
20
1.8308214405384295
30
0
10
26.509299610958081
20
1.7703495828669733
30
0
10
26.514374094595951
20
1.7330690599631327
30
0
10
26.532792427070618
20
1.6770148073069826
30
0
10
26.540508373935797
20
1.6593095927179113
30
0
10
26.561988997733124
20
1.6232817075230763
30
0
10
26.5754871844753
20
1.6064933308641658
30
0
10
26.590990257669738
20
1.5909902576697332
30
0
0
SPLINE
5
123
100
AcDbEntity
8
0
100
AcDbSpline
70
0
71
3
72
16
73
12
74
0
42
0.000000001
43
0.0000000001
44
0.0000000001
40
0
40
0
40
0
40
0
40
0.011593454248018078
40
0.011593454248018078
40
0.024518941319480902
40
0.024518941319480902
40
0.036040386073053959
40
0.036040386073053959
40
0.042029088809542772
40
0.042029088809542772
40
0.048743652699164974
40
0.048743652699164974
40
0.048743652699164974
40
0.048743652699164974
10
26.590990257669738
20
1.590990257669731
30
0
10
26.618316291390244
20
1.5636642239492371
30
0
10
26.64614669840061
20
1.5460558769269759
30
0
10
26.710293358104042
20
1.5199348398203507
30
0
10
26.744413607773751
20
1.5138393677402038
30
0
10
26.808005621668656
20
1.5000827825037579
30
0
10
26.837302530256974
20
1.4927229615421733
30
0
10
26.879673721013351
20
1.4707420138079512
30
0
10
26.892856995308726
20
1.4617849234268516
30
0
10
26.918920244832449
20
1.4390827636987149
30
0
10
26.93092578988346
20
1.4254325331226794
30
0
10
26.941640519845514
20
1.4106849725201731
30
0
0
SPLINE
5
124
100
AcDbEntity
8
0
100
AcDbSpline
70
0
71
3
72
16
73
12
74
0
42
0.000000001
43
0.0000000001
44
0.0000000001
40
0
40
0
40
0
40
0
40
0.010016820917159448
40
0.010016820917159448
40
0.019656268106313751
40
0.019656268106313751
40
0.033892653834698146
40
0.033892653834698146
40
0.04121531110972701
40
0.04121531110972701
40
0.049288732770485746
40
0.049288732770485746
40
0.049288732770485746
40
0.049288732770485746
10
26.941640786499875
20
1.4106846055019395
30
0
10
26.961266585199745
20
1.383672010996631
30
0
10
26.973218066162477
20
1.3575807528953967
30
0
10
26.985653092845961
20
1.3048296715675702
30
0
10
26.986211047647583
20
1.2796804937949491
30
0
10
26.982497337133946
20
1.2173032775167436
30
0
10
26.975803142728108
20
1.1802792915964284
30
0
10
26.975998301169639
20
1.1212769515985963
30
0
10
26.977865390518083
20
1.1020539331824317
30
0
10
26.98716144895803
20
1.0611515003963414
30
0
10
26.994811093721776
20
1.0410136362802749
30
0
10
27.004764679423833
20
1.0214786244139806
30
0
0
SPLINE
5
125
100
AcDbEntity
8
0
100
AcDbSpline
70
0
71
3
72
16
73
12
74
0
42
0.000000001
43
0.0000000001
44
0.0000000001
40
0
40
0
40
0
40
0
40
0.011593454248221707
40
0.011593454248221707
40
0.024518941320227708
40
0.024518941320227708
40
0.0360403860739986
40
0.0360403860739986
40
0.042029088810552194
40
0.042029088810552194
40
0.048743652700281088
40
0.048743652700281088
40
0.048743652700281088
40
0.048743652700281088
10
27.004764679423836
20
1.0214786244139784
30
0
10
27.022309073050025
20
0.987045813170494
30
0
10
27.043336084515886
20
0.96169921126738045
30
0
10
27.096271338848155
20
0.91703422073447394
30
0
10
27.126838020172631
20
0.90069334529249412
30
0
10
27.183066600748642
20
0.86795904226162279
30
0
10
27.208655306816514
20
0.85190619394079481
30
0
10
27.242160217486443
20
0.81790765234793461
30
0
10
27.251930363263277
20
0.80531509737510998
30
0
10
27.269702633393567
20
0.77567007340036409
30
0
10
27.276902432020886
20
0.7589780152145309
30
0
10
27.282535498919884
20
0.74164121795569304
30
0
0
SPLINE
5
126
100
AcDbEntity
8
0
100
AcDbSpline
70
0
71
3
72
16
73
12
74
0
42
0.000000001
43
0.0000000001
44
0.0000000001
40
0
40
0
40
0
40
0
40
0.010016820916970526
40
0.010016820916970526
40
0.019656268105421443
40
0.019656268105421443
40
0.033892653832061914
40
0.033892653832061914
40
0.041215311106245274
40
0.041215311106245274
40
0.049288732766101011
40
0.049288732766101011
40
0.049288732766101011
40
0.049288732766101011
10
27.282535639108371
20
0.74164078649987975
30
0
10
27.292853532084887
20
0.70988557714772516
30
0
10
27.296157423776208
20
0.68137810538672272
30
0
10
27.291682856331899
20
0.62736621117782043
30
0
10
27.284441979555837
20
0.60327550426218579
30
0
10
27.261634411080028
20
0.54509884591226432
30
0
10
27.243826813020124
20
0.51195556267857789
30
0
10
27.225779693960391
20
0.45578069547179273
30
0
10
27.221615162077999
20
0.43692155620557294
30
0
10
27.217816692190997
20
0.39514839093359377
30
0
10
27.21886899444862
20
0.37363227380879221
30
0
10
27.222298766339065
20
0.35197754634052281
30
0
0
SPLINE
5
127
100
AcDbEntity
8
0
100
AcDbSpline
70
0
71
3
72
16
73
12
74
0
42
0.000000001
43
0.0000000001
44
0.0000000001
40
0
40
0
40
0
40
0
40
0.011593454248449733
40
0.011593454248449733
40
0.02451894132108795
40
0.02451894132108795
40
0.036040386075848176
40
0.036040386075848176
40
0.042029088813045956
40
0.042029088813045956
40
0.048743652703484103
40
0.048743652703484103
40
0.048743652703484103
40
0.048743652703484103
10
27.222298766339069
20
0.35197754634051837
30
0
10
27.228344152383485
20
0.31380848104579495
30
0
10
27.24050949791884
20
0.28320472625615861
30
0
10
27.277051675364824
20
0.22436790276970048
30
0
10
27.30107270860557
20
0.19938118270770516
30
0
10
27.344433810629639
20
0.15087342353527966
30
0
10
27.363809513339149
20
0.12769891249605969
30
0
10
27.385168449823173
20
0.085010791178212447
30
0
10
27.390569097140109
20
0.070015418632077012
30
0
10
27.398310714250009
20
0.036329391906234493
30
0
10
27.400000000000006
20
0.018229441066400436
30
0
10
27.400000000000006
20
4.5365949219444701e-07
30
0
0
SPLINE
5
128
100
AcDbEntity
8
0
100
AcDbSpline
70
0
71
3
72
16
73
12
74
0
42
0.000000001
43
0.0000000001
44
0.0000000001
40
0
40
0
40
0
40
0
40
0.010016820917297938
40
0.010016820917297938
40
0.019656268106416769
40
0.019656268106416769
40
0.033892653833976868
40
0.033892653833976868
40
0.041215311108549077
40
0.041215311108549077
40
0.049288732768789395
40
0.049288732768789395
40
0.049288732768789395
40
0.049288732768789395
10
27.400000000000006
20
4.4408920985006262e-15
30
0
10
27.400000000000006
20
-0.033389403057655351
30
0
10
27.394332894480993
20
-0.06152257851903685
30
0
10
27.373386734746891
20
-0.11150822508023478
30
0
10
27.359055813861847
20
-0.13218229489659813
30
0
10
27.319386951136
20
-0.18046365865716466
30
0
10
27.292209081192944
20
-0.20648194371849221
30
0
10
27.257686262387374
20
-0.2543305507383225
30
0
10
27.247897762670689
20
-0.27097974690395349
30
0
10
27.231376585154798
20
-0.30953459619457957
30
0
10
27.225728538229514
20
-0.33032281887222986
30
0
10
27.222298766339069
20
-0.35197754634051837
30
0
0
SPLINE
5
129
100
AcDbEntity
8
0
100
AcDbSpline
70
0
71
3
72
16
73
12
74
0
42
0.000000001
43
0.0000000001
44
0.0000000001
40
0
40
0
40
0
40
0
40
0.01159345424881458
40
0.01159345424881458
40
0.024518941322367635
40
0.024518941322367635
40
0.03604038607787767
40
0.03604038607787767
40
0.042029088815414721
40
0.042029088815414721
40
0.048743652706206904
40
0.048743652706206904
40
0.048743652706206904
40
0.048743652706206904
10
27.222298766339065
20
-0.35197754634052281
30
0
10
27.216253380294468
20
-0.39014661163644859
30
0
10
27.218366231117621
20
-0.42301181056508458
30
0
10
27.234938328744697
20
-0.49026110878132961
30
0
10
27.250062367803704
20
-0.5214477992111034
30
0
10
27.276311504494053
20
-0.58098073708310749
30
0
10
27.287577575066248
20
-0.60900842823413148
30
0
10
27.294699775845249
20
-0.65620751853690706
30
0
10
27.295202271714516
20
-0.67213785711281671
30
0
10
27.292155432382273
20
-0.70656746358937472
30
0
10
27.288168846195834
20
-0.72430355778530076
30
0
10
27.282535779296868
20
-0.74164035504405756
30
0
0
SPLINE
5
130
100
AcDbEntity
8
0
100
AcDbSpline
70
0
71
3
72
16
73
12
74
0
42
0.000000001
43
0.0000000001
44
0.0000000001
40
0
40
0
40
0
40
0
40
0.010016820917381972
40
0.010016820917381972
40
0.019656268106656532
40
0.019656268106656532
40
0.033892653834508429
40
0.033892653834508429
40
0.04121531110922156
40
0.04121531110922156
40
0.049288732769620924
40
0.049288732769620924
40
0.049288732769620924
40
0.049288732769620924
10
27.282535639108374
20
-0.74164078649987086
30
0
10
27.272217746131439
20
-0.77339599585332985
30
0
10
27.258134379175665
20
-0.79840100378560241
30
0
10
27.222766983207173
20
-0.83946745934388134
30
0
10
27.202748828598843
20
-0.8547011700625109
30
0
10
27.150101736295777
20
-0.88836112295282854
30
0
10
27.116213953738949
20
-0.90470755881993448
30
0
10
27.068594769226788
20
-0.93954615061708768
30
0
10
27.054140468228564
20
-0.95235566435962093
30
0
10
27.026513791048782
20
-0.98391818039280254
30
0
10
27.014718265125882
20
-1.0019436125476964
30
0
10
27.004764679423836
20
-1.0214786244139784
30
0
0
SPLINE
5
131
100
AcDbEntity
8
0
100
AcDbSpline
70
0
71
3
72
16
73
12
74
0
42
0.000000001
43
0.0000000001
44
0.0000000001
40
0
40
0
40
0
40
0
40
0.011593454248296936
40
0.011593454248296936
40
0.024518941320438761
40
0.024518941320438761
40
0.03604038607410559
40
0.03604038607410559
40
0.042029088810551951
40
0.042029088810551951
40
0.048743652700132679
40
0.048743652700132679
40
0.048743652700132679
40
0.048743652700132679
10
27.004764679423829
20
-1.0214786244139828
30
0
10
26.987220285797527
20
-1.0559114356576926
30
0
10
26.979073821347733
20
-1.0878210040688845
30
0
10
26.974053646775928
20
-1.1568999471543331
30
0
10
26.97880024533449
20
-1.191233837401793
30
0
10
26.985367968303393
20
-1.2559644552230131
30
0
10
26.987421605255641
20
-1.2861017807961563
30
0
10
26.979609899694154
20
-1.3331916642709054
30
0
10
26.975165056318936
20
-1.3484975963434933
30
0
10
26.961628006407015
20
-1.3803005728037274
30
0
10
26.952355783116239
20
-1.3959366778812743
30
0
10
26.941641053154235
20
-1.4106842384836993
30
0
0
SPLINE
5
132
100
AcDbEntity
8
0
100
AcDbSpline
70
0
71
3
72
16
73
12
74
0
42
0.000000001
43
0.0000000001
44
0.0000000001
40
0
40
0
40
0
40
0
40
0.010016820916944299
40
0.010016820916944299
40
0.019656268105441854
40
0.019656268105441854
40
0.033892653832449139
40
0.033892653832449139
40
0.041215311106774372
40
0.041215311106774372
40
0.049288732766769885
40
0.049288732766769885
40
0.049288732766769885
40
0.049288732766769885
10
26.941640786499875
20
-1.4106846055019373
30
0
10
26.922014987800434
20
-1.437697200006669
30
0
10
26.900893937490448
20
-1.4571263760138096
30
0
10
26.854567312422741
20
-1.4852537697733776
30
0
10
26.830821440538738
20
-1.4935559396496436
30
0
10
26.770349582867382
20
-1.5092996109580115
30
0
10
26.733069059963501
20
-1.5143740945958699
30
0
10
26.677014807306939
20
-1.5327924270706097
30
0
10
26.659309592718017
20
-1.540508373935757
30
0
10
26.623281707523144
20
-1.5619889977330774
30
0
10
26.606493330864218
20
-1.5754871844752532
30
0
10
26.590990257669738
20
-1.5909902576697332
30
0
0
SPLINE
5
133
100
AcDbEntity
8
0
100
AcDbSpline
70
0
71
3
72
16
73
12
74
0
42
0.000000001
43
0.0000000001
44
0.0000000001
40
0
40
0
40
0
40
0
40
0.01159345424840702
40
0.01159345424840702
40
0.024518941320866162
40
0.024518941320866162
40
0.036040386074781328
40
0.036040386074781328
40
0.042029088811393944
40
0.042029088811393944
40
0.048743652701192866
40
0.048743652701192866
40
0.048743652701192866
40
0.048743652701192866
10
26.590990257669738
20
-1.5909902576697332
30
0
10
26.563664223948319
20
-1.618316291391144
30
0
10
26.546055876926506
20
-1.6461466984017905
30
0
10
26.519934839820401
20
-1.7102933581038757
30
0
10
26.51383936774025
20
-1.7444136077735055
30
0
10
26.500082782503984
20
-1.8080056216676734
30
0
10
26.492722961542437
20
-1.8373025302564656
30
0
10
26.47074201380784
20
-1.8796737210135706
30
0
10
26.461784923426755
20
-1.8928569953088408
30
0
10
26.43908276369871
20
-1.9189202448324616
30
0
10
26.425432533122653
20
-1.9309257898834797
30
0
10
26.41068497252018
20
-1.9416405198455156
30
0
0
SPLINE
5
134
100
AcDbEntity
8
0
100
AcDbSpline
70
0
71
3
72
16
73
12
74
0
42
0.000000001
43
0.0000000001
44
0.0000000001
40
0
40
0
40
0
40
0
40
0.010016820917095794
40
0.010016820917095794
40
0.019656268105926664
40
0.019656268105926664
40
0.033892653833448597
40
0.033892653833448597
40
0.041215311107994812
40
0.041215311107994812
40
0.049288732768210081
40
0.049288732768210081
40
0.049288732768210081
40
0.049288732768210081
10
26.410684605501942
20
-1.9416407864998719
30
0
10
26.383672010996804
20
-1.9612665851996196
30
0
10
26.357580752895572
20
-1.9732180661624354
30
0
10
26.304829671568072
20
-1.9856530928458349
30
0
10
26.279680493795667
20
-1.9862110476476107
30
0
10
26.21730327751678
20
-1.9824973371339558
30
0
10
26.18027929159636
20
-1.9758031427281011
30
0
10
26.12127695159878
20
-1.9759983011696431
30
0
10
26.102053933182461
20
-1.9778653905180807
30
0
10
26.06115150039637
20
-1.9871614489580209
30
0
10
26.041013636280304
20
-1.9948110937217634
30
0
10
26.021478624413987
20
-2.0047646794238272
30
0
0
SPLINE
5
135
100
AcDbEntity
8
0
100
AcDbSpline
70
0
71
3
72
16
73
12
74
0
42
0.000000001
43
0.0000000001
44
0.0000000001
40
0
40
0
40
0
40
0
40
0.011593454248476586
40
0.011593454248476586
40
0.024518941321196325
40
0.024518941321196325
40
0.036040386076177766
40
0.036040386076177766
40
0.042029088813552121
40
0.042029088813552121
40
0.048743652704217433
40
0.048743652704217433
40
0.048743652704217433
40
0.048743652704217433
10
26.02147862441398
20
-2.0047646794238294
30
0
10
25.987045813169736
20
-2.0223090730504047
30
0
10
25.96169921126684
20
-2.0433360845165058
30
0
10
25.917034220734347
20
-2.0962713388482896
30
0
10
25.900693345292339
20
-2.1268380201729267
30
0
10
25.867959042260892
20
-2.1830666007498518
30
0
10
25.851906193940259
20
-2.2086553068170316
30
0
10
25.817907652347788
20
-2.2421602174865947
30
0
10
25.805315097375075
20
-2.2519303632632939
30
0
10
25.77567007340031
20
-2.2697026333935848
30
0
10
25.75897801521451
20
-2.2769024320208895
30
0
10
25.741641217955689
20
-2.2825354989198776
30
0
0
SPLINE
5
136
100
AcDbEntity
8
0
100
AcDbSpline
70
0
71
3
72
16
73
12
74
0
42
0.000000001
43
0.0000000001
44
0.0000000001
40
0
40
0
40
0
40
0
40
0.010016820917215603
40
0.010016820917215603
40
0.019656268106160085
40
0.019656268106160085
40
0.033892653833538525
40
0.033892653833538525
40
0.041215311108015254
40
0.041215311108015254
40
0.049288732768160058
40
0.049288732768160058
40
0.049288732768160058
40
0.049288732768160058
10
25.741640786499879
20
-2.2825356391083673
30
0
10
25.709885577146949
20
-2.2928535320851346
30
0
10
25.681378105385999
20
-2.2961574237761502
30
0
10
25.627366211177808
20
-2.2916828563318892
30
0
10
25.60327550426215
20
-2.2844419795558162
30
0
10
25.545098845912246
20
-2.2616344110800188
30
0
10
25.511955562678494
20
-2.2438268130200889
30
0
10
25.45578069547204
20
-2.2257796939604715
30
0
10
25.436921556205711
20
-2.2216151620780042
30
0
10
25.395148390933532
20
-2.2178166921909952
30
0
10
25.373632273808763
20
-2.2188689944486226
30
0
10
25.351977546340517
20
-2.2222987663390601
30
0
0
SPLINE
5
137
100
AcDbEntity
8
0
100
AcDbSpline
70
0
71
3
72
16
73
12
74
0
42
0.000000001
43
0.0000000001
44
0.0000000001
40
0
40
0
40
0
40
0
40
0.011593454248063188
40
0.011593454248063188
40
0.024518941319673672
40
0.024518941319673672
40
0.036040386073433198
40
0.036040386073433198
40
0.042029088810030479
40
0.042029088810030479
40
0.048743652699789267
40
0.048743652699789267
40
0.048743652699789267
40
0.048743652699789267
10
25.351977546340521
20
-2.2222987663390601
30
0
10
25.313808481047072
20
-2.2283441523832752
30
0
10
25.283204726257257
20
-2.2405094979181701
30
0
10
25.224367902770005
20
-2.2770516753646053
30
0
10
25.199381182708109
20
-2.301072708605179
30
0
10
25.15087342353613
20
-2.3444338106289124
30
0
10
25.127698912496665
20
-2.3638095133387864
30
0
10
25.085010791178593
20
-2.385168449822999
30
0
10
25.070015418632323
20
-2.3905690971400313
30
0
10
25.036329391906399
20
-2.398310714249988
30
0
10
25.018229441066474
20
-2.3999999999999999
30
0
10
25.000000453659496
20
-2.3999999999999999
30
0
0
SPLINE
5
138
100
AcDbEntity
8
0
100
AcDbSpline
70
0
71
3
72
16
73
12
74
0
42
0.000000001
43
0.0000000001
44
0.0000000001
40
0
40
0
40
0
40
0
40
0.010016820917454955
40
0.010016820917454955
40
0.019656268107300937
40
0.019656268107300937
40
0.03389265383688763
40
0.03389265383688763
40
0.041215311112512365
40
0.041215311112512365
40
0.049288732773924059
40
0.049288732773924059
40
0.049288732773924059
40
0.049288732773924059
10
25.000000000000007
20
-2.3999999999999999
30
0
10
24.966610596941827
20
-2.4000000000000004
30
0
10
24.93847742148052
20
-2.3943328944808058
30
0
10
24.888491774918752
20
-2.3733867347464637
30
0
10
24.867817705102237
20
-2.3590558138608877
30
0
10
24.819536341342779
20
-2.3193869511359173
30
0
10
24.793518056281556
20
-2.2922090811929836
30
0
10
24.745669449261683
20
-2.2576862623873715
30
0
10
24.729020253096085
20
-2.2478977626706973
30
0
10
24.690465403805412
20
-2.2313765851547767
30
0
10
24.669677181127703
20
-2.2257285382294949
30
0
10
24.648022453659486
20
-2.2222987663390601
30
0
0
SPLINE
5
139
100
AcDbEntity
8
0
100
AcDbSpline
70
0
71
3
72
16
73
12
74
0
42
0.000000001
43
0.0000000001
44
0.0000000001
40
0
40
0
40
0
40
0
40
0.011593454248380531
40
0.011593454248380531
40
0.024518941320862249
40
0.024518941320862249
40
0.036040386075618422
40
0.036040386075618422
40
0.042029088812813017
40
0.042029088812813017
40
0.04874365270324487
40
0.04874365270324487
40
0.04874365270324487
40
0.04874365270324487
10
24.648022453659483
20
-2.2222987663390592
30
0
10
24.609853388364989
20
-2.2162533802946798
30
0
10
24.576988189436332
20
-2.2183662311172987
30
0
10
24.509738891219015
20
-2.2349383287445761
30
0
10
24.47855220078932
20
-2.2500623678034919
30
0
10
24.419019262917384
20
-2.2763115044938553
30
0
10
24.39099157176631
20
-2.2875775750661149
30
0
10
24.343792481463332
20
-2.2946997758452379
30
0
10
24.327862142887401
20
-2.2952022717145066
30
0
10
24.293432536410776
20
-2.2921554323823004
30
0
10
24.275696442214777
20
-2.2881688461958518
30
0
10
24.258359644955945
20
-2.2825357792968601
30
0
0
SPLINE
5
140
100
AcDbEntity
8
0
100
AcDbSpline
70
0
71
3
72
16
73
12
74
0
42
0.000000001
43
0.0000000001
44
0.0000000001
40
0
40
0
40
0
40
0
40
0.010016820917117161
40
0.010016820917117161
40
0.019656268106131625
40
0.019656268106131625
40
0.033892653834280306
40
0.033892653834280306
40
0.041215311109166493
40
0.041215311109166493
40
0.049288732769765496
40
0.049288732769765496
40
0.049288732769765496
40
0.049288732769765496
10
24.258359213500135
20
-2.2825356391083695
30
0
10
24.226604004147511
20
-2.2722177461317057
30
0
10
24.20159899621499
20
-2.2581343791761581
30
0
10
24.160532540655552
20
-2.2227669832066717
30
0
10
24.145298829936927
20
-2.2027488285979619
30
0
10
24.111638877047202
20
-2.1501017362958081
30
0
10
24.095292441180163
20
-2.1162139537390887
30
0
10
24.060453849382895
20
-2.0685947692267401
30
0
10
24.047644335640403
20
-2.0541404682285744
30
0
10
24.01608181960723
20
-2.02651379104879
30
0
10
23.998056387452319
20
-2.0147182651258824
30
0
10
23.978521375586027
20
-2.0047646794238281
30
0
0
LWPOLYLINE
5
141
100
AcDbEntity
8
0
100
AcDbPolyline
90
4
70
1
43
0.0
10
32.147032715405793
20
-1.0000000000000002
10
3.5000000298023224
20
-1.0000000000000002
10
3.5000000298023215
20
1.0000000000000002
10
32.147032715405793
20
1.0000000000000002
0
ENDSEC
0
SECTION
2
OBJECTS
0
DICTIONARY
5
C
100
AcDbDictionary
3
ACAD_GROUP
350
D
3
ACAD_MLINESTYLE
350
17
0
DICTIONARY
5
D
100
AcDbDictionary
0
DICTIONARY
5
1A
330
C
100
AcDbDictionary
0
DICTIONARY
5
17
100
AcDbDictionary
0
ENDSEC
0
EOF
