0
SECTION
2
HEADER
9
$INSUNITS
70
4
9
$ACADVER
1
AC1014
9
$HANDSEED
5
FFFF
0
ENDSEC
0
SECTION
2
TABLES
0
TABLE
2
VPORT
5
8
100
AcDbSymbolTable
0
ENDTAB
0
TABLE
2
LTYPE
5
5
100
AcDbSymbolTable
0
LTYPE
5
14
100
AcDbSymbolTableRecord
100
AcDbLinetypeTableRecord
2
BYBLOCK
70
0
0
LTYPE
5
15
100
AcDbSymbolTableRecord
100
AcDbLinetypeTableRecord
2
BYLAYER
70
0
0
ENDTAB
0
TABLE
2
LAYER
5
2
100
AcDbSymbolTable
70
2
0
LAYER
5
50
100
AcDbSymbolTableRecord
100
AcDbLayerTableRecord
2
0
70
0
6
CONTINUOUS
0
ENDTAB
0
TABLE
2
STYLE
5
3
100
AcDbSymbolTable
70
1
0
STYLE
5
11
100
AcDbSymbolTableRecord
100
AcDbTextStyleTableRecord
2
STANDARD
70
0
0
ENDTAB
0
TABLE
2
VIEW
5
6
100
AcDbSymbolTable
70
0
0
ENDTAB
0
TABLE
2
UCS
5
7
100
AcDbSymbolTable
70
0
0
ENDTAB
0
TABLE
2
APPID
5
9
100
AcDbSymbolTable
70
2
0
APPID
5
12
100
AcDbSymbolTableRecord
100
AcDbRegAppTableRecord
2
ACAD
70
0
0
ENDTAB
0
TABLE
2
DIMSTYLE
5
A
100
AcDbSymbolTable
70
1
0
ENDTAB
0
TABLE
2
BLOCK_RECORD
5
1
100
AcDbSymbolTable
70
1
0
BLOCK_RECORD
5
1F
100
AcDbSymbolTableRecord
100
AcDbBlockTableRecord
2
*MODEL_SPACE
0
BLOCK_RECORD
5
1B
100
AcDbSymbolTableRecord
100
AcDbBlockTableRecord
2
*PAPER_SPACE
0
ENDTAB
0
ENDSEC
0
SECTION
2
BLOCKS
0
BLOCK
5
20
100
AcDbEntity
100
AcDbBlockBegin
2
*MODEL_SPACE
0
ENDBLK
5
21
100
AcDbEntity
100
AcDbBlockEnd
0
BLOCK
5
1C
100
AcDbEntity
100
AcDbBlockBegin
2
*PAPER_SPACE
0
ENDBLK
5
1D
100
AcDbEntity
100
AcDbBlockEnd
0
ENDSEC
0
SECTION
2
ENTITIES
0
LINE
5
100
100
AcDbEntity
8
0
100
AcDbLine
10
0.49622014164924622
20
-3.7737659407412263
30
15.500000000000004
11
1.4425988405206369
21
-3.7737659407412263
31
15.500000000000004
0
LINE
5
101
100
AcDbEntity
8
0
100
AcDbLine
10
1.4425988405206369
20
-3.7737659407412263
30
15.500000000000004
11
1.4425988405206369
21
-4.1285500370493331
31
15.500000000000004
0
LINE
5
102
100
AcDbEntity
8
0
100
AcDbLine
10
1.4425988405206369
20
-4.128550037049334
30
15.500000000000004
11
1.3007012898225474
21
-4.2000000000000002
31
15.500000000000004
0
ELLIPSE
5
103
100
AcDbEntity
8
0
100
AcDbEllipse
10
1.3007012898225474
20
-4.2000000000000002
30
15.600000000000001
11
-0.19859709485932767
21
-0.10000000000000006
31
0.0
40
0.44973556054494296
41
4.7123889803846897
42
6.2831853071795862
0
LINE
5
104
100
AcDbEntity
8
0
100
AcDbLine
10
1.1021041949632195
20
-4.3000000000000007
30
15.600000000000001
11
1.1021041949632195
21
-4.3000000000000007
31
16.500000000000004
0
LINE
5
105
100
AcDbEntity
8
0
100
AcDbLine
10
1.9998316630187478
20
-4.2000000000000002
30
15.500000000000004
11
2.2647110813546951
21
-4.0666247265482065
31
15.500000000000004
0
ELLIPSE
5
106
100
AcDbEntity
8
0
100
AcDbEllipse
10
1.9998316630187478
20
-4.2000000000000002
30
15.600000000000001
11
-0.19859709485932775
21
-0.10000000000000002
31
0.0
40
0.44973556054494285
41
0
42
1.570796326794897
0
LINE
5
107
100
AcDbEntity
8
0
100
AcDbLine
10
1.80123456815942
20
-4.3000000000000007
30
16.500000000000004
11
1.8012345681594202
21
-4.3000000000000007
31
15.600000000000001
0
LINE
5
108
100
AcDbEntity
8
0
100
AcDbLine
10
2.2647110813546951
20
-4.0666247265482065
30
15.500000000000004
11
2.2647110813546951
21
-3.7737659407412267
31
15.500000000000004
0
LINE
5
109
100
AcDbEntity
8
0
100
AcDbLine
10
2.2647110813546951
20
-3.7737659407412263
30
15.500000000000004
11
2.8962200880050659
21
-3.7737659407412263
31
15.500000000000004
0
LINE
5
110
100
AcDbEntity
8
0
100
AcDbLine
10
2.8962200880050659
20
-3.7737659407412263
30
15.500000000000004
11
2.8962200880050659
21
-3.9866363985260906
31
15.500000000000004
0
LINE
5
111
100
AcDbEntity
8
0
100
AcDbLine
10
2.8962200880050659
20
-3.9866363985260906
30
15.500000000000004
11
3.2962200790643692
21
-3.7737659407412263
31
15.500000000000004
0
LINE
5
112
100
AcDbEntity
8
0
100
AcDbLine
10
3.2962200790643692
20
-3.7737659407412263
30
15.500000000000004
11
3.2962200790643692
21
-3.6318523022179834
31
15.500000000000004
0
LINE
5
113
100
AcDbEntity
8
0
100
AcDbLine
10
3.2962200790643692
20
-3.6318523022179834
30
15.500000000000004
11
1.7962201125919819
21
-3.6318523022179834
31
15.500000000000004
0
LINE
5
114
100
AcDbEntity
8
0
100
AcDbLine
10
1.7962201125919819
20
-3.6318523022179834
30
15.500000000000004
11
1.7962201125919819
21
-4.0575932177877121
31
15.500000000000004
0
LINE
5
115
100
AcDbEntity
8
0
100
AcDbLine
10
1.7962201125919819
20
-4.0575932177877121
30
15.500000000000004
11
1.528626796899166
21
-4.2000000000000002
31
15.500000000000004
0
ELLIPSE
5
116
100
AcDbEntity
8
0
100
AcDbEllipse
10
1.528626796899166
20
-4.2000000000000002
30
15.600000000000001
11
-0.187907704630184
21
-0.10000000000000002
31
0.0
40
0.46979273614614764
41
4.7123889803846897
42
6.2831853071795862
0
LINE
5
117
100
AcDbEntity
8
0
100
AcDbLine
10
1.3407190922689822
20
-4.3000000000000007
30
15.600000000000001
11
1.3407190922689816
21
-4.3000000000000007
31
16.500000000000004
0
LINE
5
118
100
AcDbEntity
8
0
100
AcDbLine
10
0.49622014164924622
20
-4.2000000000000002
30
15.500000000000004
11
0.49622014164924622
21
-3.7737659407412267
31
15.500000000000004
0
ARC
5
119
100
AcDbEntity
8
0
100
AcDbCircle
10
-4.2000000000000002
20
15.600000000000001
30
0.49622014164924622
40
0.10000000000000009
210
1
220
0
230
0
100
AcDbArc
50
180
51
270
0
LINE
5
120
100
AcDbEntity
8
0
100
AcDbLine
10
0.49622014164924622
20
-4.3000000000000007
30
16.500000000000004
11
0.49622014164924622
21
-4.3000000000000007
31
15.600000000000001
0
LINE
5
121
100
AcDbEntity
8
0
100
AcDbLine
10
-0.49622014164924622
20
-3.7737659407412263
30
15.500000000000004
11
-1.4425988405206369
21
-3.7737659407412263
31
15.500000000000004
0
LINE
5
122
100
AcDbEntity
8
0
100
AcDbLine
10
-1.4425988405206369
20
-3.7737659407412263
30
15.500000000000004
11
-1.4425988405206369
21
-4.1285500370493331
31
15.500000000000004
0
LINE
5
123
100
AcDbEntity
8
0
100
AcDbLine
10
-1.4425988405206369
20
-4.128550037049334
30
15.500000000000004
11
-1.3007012898225474
21
-4.2000000000000002
31
15.500000000000004
0
ELLIPSE
5
124
100
AcDbEntity
8
0
100
AcDbEllipse
10
-1.3007012898225474
20
-4.2000000000000002
30
15.600000000000001
11
0.19859709485932767
21
-0.10000000000000006
31
0.0
40
0.44973556054494296
41
4.7123889803846897
42
6.2831853071795862
0
LINE
5
125
100
AcDbEntity
8
0
100
AcDbLine
10
-1.1021041949632195
20
-4.3000000000000007
30
15.600000000000001
11
-1.10210419496322
21
-4.3000000000000007
31
16.500000000000004
0
LINE
5
126
100
AcDbEntity
8
0
100
AcDbLine
10
-1.9998316630187478
20
-4.2000000000000002
30
15.500000000000004
11
-2.2647110813546951
21
-4.0666247265482065
31
15.500000000000004
0
ELLIPSE
5
127
100
AcDbEntity
8
0
100
AcDbEllipse
10
-1.9998316630187478
20
-4.2000000000000002
30
15.600000000000001
11
0.19859709485932775
21
-0.10000000000000002
31
0.0
40
0.44973556054494285
41
0
42
1.570796326794897
0
LINE
5
128
100
AcDbEntity
8
0
100
AcDbLine
10
-1.80123456815942
20
-4.3000000000000007
30
16.500000000000004
11
-1.8012345681594202
21
-4.3000000000000007
31
15.600000000000001
0
LINE
5
129
100
AcDbEntity
8
0
100
AcDbLine
10
-2.2647110813546951
20
-4.0666247265482065
30
15.500000000000004
11
-2.2647110813546951
21
-3.7737659407412267
31
15.500000000000004
0
LINE
5
130
100
AcDbEntity
8
0
100
AcDbLine
10
-2.2647110813546951
20
-3.7737659407412263
30
15.500000000000004
11
-2.8962200880050659
21
-3.7737659407412263
31
15.500000000000004
0
LINE
5
131
100
AcDbEntity
8
0
100
AcDbLine
10
-2.8962200880050659
20
-3.7737659407412263
30
15.500000000000004
11
-2.8962200880050659
21
-3.9866363985260906
31
15.500000000000004
0
LINE
5
132
100
AcDbEntity
8
0
100
AcDbLine
10
-2.8962200880050659
20
-3.9866363985260906
30
15.500000000000004
11
-3.2962200790643692
21
-3.7737659407412263
31
15.500000000000004
0
LINE
5
133
100
AcDbEntity
8
0
100
AcDbLine
10
-3.2962200790643692
20
-3.7737659407412263
30
15.500000000000004
11
-3.2962200790643692
21
-3.6318523022179834
31
15.500000000000004
0
LINE
5
134
100
AcDbEntity
8
0
100
AcDbLine
10
-3.2962200790643692
20
-3.6318523022179834
30
15.500000000000004
11
-1.7962201125919819
21
-3.6318523022179834
31
15.500000000000004
0
LINE
5
135
100
AcDbEntity
8
0
100
AcDbLine
10
-1.7962201125919819
20
-3.6318523022179834
30
15.500000000000004
11
-1.7962201125919819
21
-4.0575932177877121
31
15.500000000000004
0
LINE
5
136
100
AcDbEntity
8
0
100
AcDbLine
10
-1.7962201125919819
20
-4.0575932177877121
30
15.500000000000004
11
-1.528626796899166
21
-4.2000000000000002
31
15.500000000000004
0
ELLIPSE
5
137
100
AcDbEntity
8
0
100
AcDbEllipse
10
-1.528626796899166
20
-4.2000000000000002
30
15.600000000000001
11
0.187907704630184
21
-0.10000000000000002
31
0.0
40
0.46979273614614764
41
4.7123889803846897
42
6.2831853071795862
0
LINE
5
138
100
AcDbEntity
8
0
100
AcDbLine
10
-1.3407190922689822
20
-4.3000000000000007
30
15.600000000000001
11
-1.3407190922689822
21
-4.3000000000000007
31
16.500000000000004
0
LINE
5
139
100
AcDbEntity
8
0
100
AcDbLine
10
-0.49622014164924622
20
-4.2000000000000002
30
15.500000000000004
11
-0.49622014164924622
21
-3.7737659407412267
31
15.500000000000004
0
ARC
5
140
100
AcDbEntity
8
0
100
AcDbCircle
10
-4.2000000000000002
20
15.600000000000001
30
-0.49622014164924622
40
0.10000000000000009
210
1
220
0
230
0
100
AcDbArc
50
180
51
270
0
LINE
5
141
100
AcDbEntity
8
0
100
AcDbLine
10
-0.49622014164924622
20
-4.3000000000000007
30
16.500000000000004
11
-0.49622014164924622
21
-4.3000000000000007
31
15.600000000000001
0
ENDSEC
0
SECTION
2
OBJECTS
0
DICTIONARY
5
C
100
AcDbDictionary
3
ACAD_GROUP
350
D
3
ACAD_MLINESTYLE
350
17
0
DICTIONARY
5
D
100
AcDbDictionary
0
DICTIONARY
5
1A
330
C
100
AcDbDictionary
0
DICTIONARY
5
17
100
AcDbDictionary
0
ENDSEC
0
EOF
