0
SECTION
2
HEADER
9
$INSUNITS
70
4
9
$ACADVER
1
AC1014
9
$HANDSEED
5
FFFF
0
ENDSEC
0
SECTION
2
TABLES
0
TABLE
2
VPORT
5
8
100
AcDbSymbolTable
0
ENDTAB
0
TABLE
2
LTYPE
5
5
100
AcDbSymbolTable
0
LTYPE
5
14
100
AcDbSymbolTableRecord
100
AcDbLinetypeTableRecord
2
BYBLOCK
70
0
0
LTYPE
5
15
100
AcDbSymbolTableRecord
100
AcDbLinetypeTableRecord
2
BYLAYER
70
0
0
ENDTAB
0
TABLE
2
LAYER
5
2
100
AcDbSymbolTable
70
2
0
LAYER
5
50
100
AcDbSymbolTableRecord
100
AcDbLayerTableRecord
2
0
70
0
6
CONTINUOUS
0
ENDTAB
0
TABLE
2
STYLE
5
3
100
AcDbSymbolTable
70
1
0
STYLE
5
11
100
AcDbSymbolTableRecord
100
AcDbTextStyleTableRecord
2
STANDARD
70
0
0
ENDTAB
0
TABLE
2
VIEW
5
6
100
AcDbSymbolTable
70
0
0
ENDTAB
0
TABLE
2
UCS
5
7
100
AcDbSymbolTable
70
0
0
ENDTAB
0
TABLE
2
APPID
5
9
100
AcDbSymbolTable
70
2
0
APPID
5
12
100
AcDbSymbolTableRecord
100
AcDbRegAppTableRecord
2
ACAD
70
0
0
ENDTAB
0
TABLE
2
DIMSTYLE
5
A
100
AcDbSymbolTable
70
1
0
ENDTAB
0
TABLE
2
BLOCK_RECORD
5
1
100
AcDbSymbolTable
70
1
0
BLOCK_RECORD
5
1F
100
AcDbSymbolTableRecord
100
AcDbBlockTableRecord
2
*MODEL_SPACE
0
BLOCK_RECORD
5
1B
100
AcDbSymbolTableRecord
100
AcDbBlockTableRecord
2
*PAPER_SPACE
0
ENDTAB
0
ENDSEC
0
SECTION
2
BLOCKS
0
BLOCK
5
20
100
AcDbEntity
100
AcDbBlockBegin
2
*MODEL_SPACE
0
ENDBLK
5
21
100
AcDbEntity
100
AcDbBlockEnd
0
BLOCK
5
1C
100
AcDbEntity
100
AcDbBlockBegin
2
*PAPER_SPACE
0
ENDBLK
5
1D
100
AcDbEntity
100
AcDbBlockEnd
0
ENDSEC
0
SECTION
2
ENTITIES
0
LINE
5
100
100
AcDbEntity
8
0
100
AcDbLine
10
20.329140018715396
20
2.2999999485909939
30
3.5471797623905683
11
21.200000000000006
21
2.2999999485909939
31
3.5471797623905688
0
LINE
5
101
100
AcDbEntity
8
0
100
AcDbLine
10
21.200000000000006
20
2.2999999485909939
30
-3.5471799300286309
11
20.329140018715396
21
2.2999999485909939
31
-3.5471799300286309
0
ARC
5
102
100
AcDbEntity
8
0
100
AcDbCircle
10
2.812927054427719
20
2.9999999161809687
30
20.329140018715396
40
0.75
210
1
220
0
230
0
100
AcDbArc
50
98.659930559183493
51
133.14938017785133
0
ARC
5
103
100
AcDbEntity
8
0
100
AcDbCircle
10
2.812927054427719
20
-3.0000000838190317
30
20.329140018715396
40
0.75
210
1
220
0
230
0
100
AcDbArc
50
226.85061982214862
51
261.34006944081654
0
ELLIPSE
5
104
100
AcDbEntity
8
0
100
AcDbEllipse
10
20.037138430547774
20
2.812927054427719
30
2.9999999161809687
11
1.9393144999530401
21
-0.75000000000000022
31
0.0
40
0.36070030421107652
41
4.7140843881875503
42
4.8635332816365153
0
ELLIPSE
5
105
100
AcDbEntity
8
0
100
AcDbEllipse
10
20.037138430547774
20
2.812927054427719
30
-3.0000000838190317
11
1.9393144999530401
21
-0.75000000000000022
31
0.0
40
0.36070030421107657
41
1.4196520255430707
42
1.5691009189920357
0
LINE
5
106
100
AcDbEntity
8
0
100
AcDbLine
10
18.89999957755208
20
2.8116554991847358
30
3.74999883827837
11
20.040426357908053
21
2.8116554991847358
31
3.74999883827837
0
LINE
5
107
100
AcDbEntity
8
0
100
AcDbLine
10
20.040426357908053
20
2.8116554991847358
30
-3.7499990059164334
11
18.89999957755208
21
2.8116554991847358
31
-3.7499990059164334
0
LINE
5
108
100
AcDbEntity
8
0
100
AcDbLine
10
16.735157494128558
20
1.935103675759962
30
2.8738377450754511
11
18.138775893249676
21
1.935103675759962
31
2.8738377450754511
0
LINE
5
109
100
AcDbEntity
8
0
100
AcDbLine
10
18.138775893249676
20
1.935103675759962
30
-2.8738379127135145
11
16.735157494128558
21
1.935103675759962
31
-2.8738379127135145
0
LINE
5
110
100
AcDbEntity
8
0
100
AcDbLine
10
16.462184074401804
20
2.1281665052181249
30
3.3059459739201964
11
16.735157494128558
21
1.935103675759962
31
2.8738377450754511
0
ELLIPSE
5
111
100
AcDbEntity
8
0
100
AcDbEllipse
10
15.493994447551756
20
2.812927054427719
30
2.9999999161809683
11
1.0604323233511466
21
-0.75
31
0.0
40
0.57743296138784483
41
4.7180519917780996
42
5.8630017206841343
0
LINE
5
112
100
AcDbEntity
8
0
100
AcDbLine
10
16.735157494128558
20
1.935103675759962
30
-2.8738379127135145
11
16.462184074401804
21
2.1281665052181244
31
-3.3059461415582589
0
ELLIPSE
5
113
100
AcDbEntity
8
0
100
AcDbEllipse
10
15.493994447551753
20
2.812927054427719
30
-3.0000000838190317
11
1.0604323233511472
21
-0.75000000000000011
31
0.0
40
0.57743296138784483
41
0.42018358649545101
42
1.5651333154014813
0
LINE
5
114
100
AcDbEntity
8
0
100
AcDbLine
10
18.138775893249676
20
1.935103675759962
30
2.8738377450754511
11
18.306437398724377
21
2.1281665052181249
31
3.3059459739201964
0
ELLIPSE
5
115
100
AcDbEntity
8
0
100
AcDbEllipse
10
18.901103833958821
20
2.812927054427719
30
2.9999999161809687
11
-0.65132231542930463
21
-0.75000000000000011
31
0.0
40
0.75502986594307986
41
0.42018358649545279
42
1.5691009189920393
0
LINE
5
116
100
AcDbEntity
8
0
100
AcDbLine
10
18.306437398724373
20
2.1281665052181244
30
-3.3059461415582589
11
18.138775893249676
21
1.935103675759962
31
-2.8738379127135145
0
ELLIPSE
5
117
100
AcDbEntity
8
0
100
AcDbEllipse
10
18.901103833958821
20
2.812927054427719
30
-3.0000000838190317
11
-0.65132231542930463
21
-0.75000000000000011
31
0.0
40
0.75502986594307986
41
4.7140843881875467
42
5.8630017206841334
0
LINE
5
118
100
AcDbEntity
8
0
100
AcDbLine
10
20.500000305473804
20
4.0000000596046448
30
3.5359568437921887
11
21.20000000000001
21
4.0000000596046448
31
3.5359568437921891
0
LINE
5
119
100
AcDbEntity
8
0
100
AcDbLine
10
21.20000000000001
20
4.0000000596046448
30
-3.5359570114302525
11
20.500000305473804
21
4.0000000596046448
31
-3.5359570114302525
0
LINE
5
120
100
AcDbEntity
8
0
100
AcDbLine
10
20.158279731956988
20
3.1163951754000641
30
3.7499999161809687
11
20.297102748395947
21
3.4753571603431173
31
3.7499999161809683
0
ELLIPSE
5
121
100
AcDbEntity
8
0
100
AcDbEllipse
10
20.297102748395947
20
3.4753571603431173
30
2.9999999161809683
11
0.2900509432655789
21
0.75000000000000011
31
0.0
40
0.93268177345868586
41
4.7123889803846915
42
5.4871199732582125
0
LINE
5
122
100
AcDbEntity
8
0
100
AcDbLine
10
20.297102748395947
20
3.4753571603431173
30
-3.7500000838190317
11
20.158279731956988
21
3.1163951754000641
31
-3.7500000838190317
0
ELLIPSE
5
123
100
AcDbEntity
8
0
100
AcDbEllipse
10
20.297102748395947
20
3.4753571603431173
30
-3.0000000838190322
11
0.29005094326557884
21
0.74999999999999978
31
0.0
40
0.93268177345868586
41
0.79606533392137224
42
1.5707963267948966
0
LINE
5
124
100
AcDbEntity
8
0
100
AcDbLine
10
18.781643608226929
20
3.1163951754000641
30
3.7499999161809687
11
20.158279731956988
21
3.1163951754000641
31
3.7499999161809687
0
LINE
5
125
100
AcDbEntity
8
0
100
AcDbLine
10
20.158279731956988
20
3.1163951754000641
30
-3.7500000838190317
11
18.781643608226929
21
3.1163951754000641
31
-3.7500000838190317
0
LINE
5
126
100
AcDbEntity
8
0
100
AcDbLine
10
17.299999613314867
20
4.0000000596046448
30
3.5359568437921887
11
18.781643608226929
21
4.0000000596046448
31
3.5359568437921887
0
LINE
5
127
100
AcDbEntity
8
0
100
AcDbLine
10
18.781643608226929
20
4.0000000596046448
30
-3.5359570114302525
11
17.299999613314867
21
4.0000000596046448
31
-3.5359570114302525
0
LINE
5
128
100
AcDbEntity
8
0
100
AcDbLine
10
16.4489014132911
20
3.1163951754000641
30
3.7499999161809687
11
16.794657649730436
21
3.4753571603431173
31
3.7499999161809683
0
ELLIPSE
5
129
100
AcDbEntity
8
0
100
AcDbEllipse
10
16.794657649730436
20
3.4753571603431173
30
2.9999999161809683
11
0.722408467210368
21
0.75000000000000011
31
0.0
40
0.72023084490554279
41
4.7123889803846897
42
5.4871199732582134
0
LINE
5
130
100
AcDbEntity
8
0
100
AcDbLine
10
16.794657649730436
20
3.4753571603431173
30
-3.7500000838190317
11
16.4489014132911
21
3.1163951754000641
31
-3.7500000838190317
0
ELLIPSE
5
131
100
AcDbEntity
8
0
100
AcDbEllipse
10
16.794657649730436
20
3.4753571603431173
30
-3.0000000838190322
11
0.72240846721036767
21
0.74999999999999978
31
0.0
40
0.72023084490554279
41
0.79606533392137413
42
1.5707963267948966
0
LINE
5
132
100
AcDbEntity
8
0
100
AcDbLine
10
15.499999655783174
20
3.1163951754000641
30
3.7499999161809683
11
16.4489014132911
21
3.1163951754000641
31
3.7499999161809687
0
LINE
5
133
100
AcDbEntity
8
0
100
AcDbLine
10
16.4489014132911
20
3.1163951754000641
30
-3.7500000838190317
11
15.499999655783176
21
3.1163951754000641
31
-3.7500000838190317
0
LINE
5
134
100
AcDbEntity
8
0
100
AcDbLine
10
18.781643608226929
20
3.4753571603431173
30
3.7499999161809683
11
18.781643608226929
21
3.1163951754000641
31
3.7499999161809687
0
ARC
5
135
100
AcDbEntity
8
0
100
AcDbCircle
10
3.4753571603431173
20
2.9999999161809683
30
18.781643608226929
40
0.75000000000000011
210
1
220
0
230
-0
100
AcDbArc
50
45.61118385036729
51
90
0
LINE
5
136
100
AcDbEntity
8
0
100
AcDbLine
10
18.781643608226929
20
3.1163951754000641
30
-3.7500000838190317
11
18.781643608226929
21
3.4753571603431173
31
-3.7500000838190317
0
ARC
5
137
100
AcDbEntity
8
0
100
AcDbCircle
10
3.4753571603431173
20
-3.0000000838190322
30
18.781643608226929
40
0.74999999999999956
210
1
220
-0
230
0
100
AcDbArc
50
270
51
314.3888161496327
0
ENDSEC
0
SECTION
2
OBJECTS
0
DICTIONARY
5
C
100
AcDbDictionary
3
ACAD_GROUP
350
D
3
ACAD_MLINESTYLE
350
17
0
DICTIONARY
5
D
100
AcDbDictionary
0
DICTIONARY
5
1A
330
C
100
AcDbDictionary
0
DICTIONARY
5
17
100
AcDbDictionary
0
ENDSEC
0
EOF
