0
SECTION
2
HEADER
9
$INSUNITS
70
4
9
$ACADVER
1
AC1014
9
$HANDSEED
5
FFFF
0
ENDSEC
0
SECTION
2
TABLES
0
TABLE
2
VPORT
5
8
100
AcDbSymbolTable
0
ENDTAB
0
TABLE
2
LTYPE
5
5
100
AcDbSymbolTable
0
LTYPE
5
14
100
AcDbSymbolTableRecord
100
AcDbLinetypeTableRecord
2
BYBLOCK
70
0
0
LTYPE
5
15
100
AcDbSymbolTableRecord
100
AcDbLinetypeTableRecord
2
BYLAYER
70
0
0
ENDTAB
0
TABLE
2
LAYER
5
2
100
AcDbSymbolTable
70
2
0
LAYER
5
50
100
AcDbSymbolTableRecord
100
AcDbLayerTableRecord
2
0
70
0
6
CONTINUOUS
0
ENDTAB
0
TABLE
2
STYLE
5
3
100
AcDbSymbolTable
70
1
0
STYLE
5
11
100
AcDbSymbolTableRecord
100
AcDbTextStyleTableRecord
2
STANDARD
70
0
0
ENDTAB
0
TABLE
2
VIEW
5
6
100
AcDbSymbolTable
70
0
0
ENDTAB
0
TABLE
2
UCS
5
7
100
AcDbSymbolTable
70
0
0
ENDTAB
0
TABLE
2
APPID
5
9
100
AcDbSymbolTable
70
2
0
APPID
5
12
100
AcDbSymbolTableRecord
100
AcDbRegAppTableRecord
2
ACAD
70
0
0
ENDTAB
0
TABLE
2
DIMSTYLE
5
A
100
AcDbSymbolTable
70
1
0
ENDTAB
0
TABLE
2
BLOCK_RECORD
5
1
100
AcDbSymbolTable
70
1
0
BLOCK_RECORD
5
1F
100
AcDbSymbolTableRecord
100
AcDbBlockTableRecord
2
*MODEL_SPACE
0
BLOCK_RECORD
5
1B
100
AcDbSymbolTableRecord
100
AcDbBlockTableRecord
2
*PAPER_SPACE
0
ENDTAB
0
ENDSEC
0
SECTION
2
BLOCKS
0
BLOCK
5
20
100
AcDbEntity
100
AcDbBlockBegin
2
*MODEL_SPACE
0
ENDBLK
5
21
100
AcDbEntity
100
AcDbBlockEnd
0
BLOCK
5
1C
100
AcDbEntity
100
AcDbBlockBegin
2
*PAPER_SPACE
0
ENDBLK
5
1D
100
AcDbEntity
100
AcDbBlockEnd
0
ENDSEC
0
SECTION
2
ENTITIES
0
LINE
5
100
100
AcDbEntity
8
0
100
AcDbLine
10
-0.39999999105930328
20
-1.1999999731779099
30
0
11
0.69999998435378075
21
-1.1999999731779099
31
0
0
LINE
5
101
100
AcDbEntity
8
0
100
AcDbLine
10
0.69999998435378075
20
-1.1999999731779099
30
0
11
0.69999998435378075
21
-2.1463786720493006
31
0
0
LINE
5
102
100
AcDbEntity
8
0
100
AcDbLine
10
0.69999998435378075
20
-2.1463786720493006
30
0
11
0.19999999552965164
21
-2.1463786720493006
31
0
0
LINE
5
103
100
AcDbEntity
8
0
100
AcDbLine
10
0.19999999552965164
20
-2.1463786720493006
30
0
11
-0.13579012984035937
21
-1.6731893226136052
31
0
0
LINE
5
104
100
AcDbEntity
8
0
100
AcDbLine
10
-0.13579012984035937
20
-1.6731893226136052
30
0
11
-0.39999999105930328
21
-1.6731893226136052
31
0
0
LINE
5
105
100
AcDbEntity
8
0
100
AcDbLine
10
-0.39999999105930328
20
-1.6731893226136052
30
0
11
-0.39999999105930328
21
-1.9999999552965164
31
0
0
LINE
5
106
100
AcDbEntity
8
0
100
AcDbLine
10
-0.39999999105930328
20
-1.9999999552965164
30
0
11
0.28727181769048882
21
-2.9684909128833588
31
0
0
LINE
5
107
100
AcDbEntity
8
0
100
AcDbLine
10
0.28727181769048882
20
-2.9684909128833588
30
0
11
0.69999998435378075
21
-2.9684909128833588
31
0
0
LINE
5
108
100
AcDbEntity
8
0
100
AcDbLine
10
0.69999998435378075
20
-2.9684909128833588
30
0
11
0.69999998435378075
21
-3.5999999195337296
31
0
0
LINE
5
109
100
AcDbEntity
8
0
100
AcDbLine
10
0.69999998435378075
20
-3.5999999195337296
30
0
11
0.39999999105930328
21
-3.5999999195337296
31
0
0
LINE
5
110
100
AcDbEntity
8
0
100
AcDbLine
10
0.39999999105930328
20
-3.5999999195337296
30
0
11
0.69999998435378075
21
-3.9999999105930328
31
0
0
LINE
5
111
100
AcDbEntity
8
0
100
AcDbLine
10
0.69999998435378075
20
-3.9999999105930328
30
0
11
0.89999997988343239
21
-3.9999999105930328
31
0
0
LINE
5
112
100
AcDbEntity
8
0
100
AcDbLine
10
0.89999997988343239
20
-3.9999999105930328
30
0
11
0.89999997988343239
21
-2.4999999441206455
31
0
0
LINE
5
113
100
AcDbEntity
8
0
100
AcDbLine
10
0.89999997988343239
20
-2.4999999441206455
30
0
11
0.29999999329447746
21
-2.4999999441206455
31
0
0
LINE
5
114
100
AcDbEntity
8
0
100
AcDbLine
10
0.29999999329447746
20
-2.4999999441206455
30
0
11
-0.18659626649857408
21
-1.8512049310632435
31
0
0
LINE
5
115
100
AcDbEntity
8
0
100
AcDbLine
10
-0.00098604800228052625
20
-0.84847581504047809
30
-1.1102230246251565e-15
11
0.67310375005020451
21
-0.84847581504047809
31
-1.1102230246251565e-15
0
LINE
5
116
100
AcDbEntity
8
0
100
AcDbLine
10
0.67310375005020351
20
-0.55908384801684929
30
1.1102230246251565e-15
11
-0.00098604800228149769
21
-0.55908384801684941
31
1.1102230246251565e-15
0
LINE
5
117
100
AcDbEntity
8
0
100
AcDbLine
10
0.67310375005020451
20
-0.84847581504047809
30
-1.1102230246251565e-15
11
0.67310375005020351
21
-0.55908384801684929
31
1.1102230246251565e-15
0
LINE
5
118
100
AcDbEntity
8
0
100
AcDbLine
10
0.67310375005020406
20
-0.70377983152866364
30
0
11
0.04999999888241291
21
-0.70377983152866364
31
0
0
LINE
5
119
100
AcDbEntity
8
0
100
AcDbLine
10
-0.39999999105930328
20
-0.20755968987941742
30
0
11
0.69999998435378075
21
-0.20755968987941742
31
0
0
LINE
5
120
100
AcDbEntity
8
0
100
AcDbLine
10
0.69999998435378075
20
-0.20755968987941742
30
0
11
0.69999998435378075
21
0.73881900899197328
31
0
0
LINE
5
121
100
AcDbEntity
8
0
100
AcDbLine
10
0.69999998435378075
20
0.73881900899197328
30
0
11
0.19999999552965164
21
0.73881900899197328
31
0
0
LINE
5
122
100
AcDbEntity
8
0
100
AcDbLine
10
0.19999999552965164
20
0.73881900899197328
30
0
11
-0.13579012984035937
21
0.26562965955627793
31
0
0
LINE
5
123
100
AcDbEntity
8
0
100
AcDbLine
10
-0.13579012984035937
20
0.26562965955627793
30
0
11
-0.39999999105930328
21
0.26562965955627793
31
0
0
LINE
5
124
100
AcDbEntity
8
0
100
AcDbLine
10
-0.39999999105930328
20
0.26562965955627793
30
0
11
-0.39999999105930328
21
0.59244029223918915
31
0
0
LINE
5
125
100
AcDbEntity
8
0
100
AcDbLine
10
-0.39999999105930328
20
0.59244029223918915
30
0
11
0.28727181769048882
21
1.5609312498260315
31
0
0
LINE
5
126
100
AcDbEntity
8
0
100
AcDbLine
10
0.28727181769048882
20
1.5609312498260315
30
0
11
0.69999998435378075
21
1.5609312498260315
31
0
0
LINE
5
127
100
AcDbEntity
8
0
100
AcDbLine
10
0.69999998435378075
20
1.5609312498260315
30
0
11
0.69999998435378075
21
2.1924402564764023
31
0
0
LINE
5
128
100
AcDbEntity
8
0
100
AcDbLine
10
0.69999998435378075
20
2.1924402564764023
30
0
11
0.39999999105930328
21
2.1924402564764023
31
0
0
LINE
5
129
100
AcDbEntity
8
0
100
AcDbLine
10
0.39999999105930328
20
2.1924402564764023
30
0
11
0.69999998435378075
21
2.5924402475357056
31
0
0
LINE
5
130
100
AcDbEntity
8
0
100
AcDbLine
10
0.69999998435378075
20
2.5924402475357056
30
0
11
0.89999997988343239
21
2.5924402475357056
31
0
0
LINE
5
131
100
AcDbEntity
8
0
100
AcDbLine
10
0.89999997988343239
20
2.5924402475357056
30
0
11
0.89999997988343239
21
1.0924402810633183
31
0
0
LINE
5
132
100
AcDbEntity
8
0
100
AcDbLine
10
0.89999997988343239
20
1.0924402810633183
30
0
11
0.29999999329447746
21
1.0924402810633183
31
0
0
LINE
5
133
100
AcDbEntity
8
0
100
AcDbLine
10
0.29999999329447746
20
1.0924402810633183
30
0
11
-0.18659626649857403
21
0.44364526800591608
31
0
0
ENDSEC
0
SECTION
2
OBJECTS
0
DICTIONARY
5
C
100
AcDbDictionary
3
ACAD_GROUP
350
D
3
ACAD_MLINESTYLE
350
17
0
DICTIONARY
5
D
100
AcDbDictionary
0
DICTIONARY
5
1A
330
C
100
AcDbDictionary
0
DICTIONARY
5
17
100
AcDbDictionary
0
ENDSEC
0
EOF
