0
SECTION
2
HEADER
9
$INSUNITS
70
4
9
$ACADVER
1
AC1014
9
$HANDSEED
5
FFFF
0
ENDSEC
0
SECTION
2
TABLES
0
TABLE
2
VPORT
5
8
100
AcDbSymbolTable
0
ENDTAB
0
TABLE
2
LTYPE
5
5
100
AcDbSymbolTable
0
LTYPE
5
14
100
AcDbSymbolTableRecord
100
AcDbLinetypeTableRecord
2
BYBLOCK
70
0
0
LTYPE
5
15
100
AcDbSymbolTableRecord
100
AcDbLinetypeTableRecord
2
BYLAYER
70
0
0
ENDTAB
0
TABLE
2
LAYER
5
2
100
AcDbSymbolTable
70
2
0
LAYER
5
50
100
AcDbSymbolTableRecord
100
AcDbLayerTableRecord
2
0
70
0
6
CONTINUOUS
0
ENDTAB
0
TABLE
2
STYLE
5
3
100
AcDbSymbolTable
70
1
0
STYLE
5
11
100
AcDbSymbolTableRecord
100
AcDbTextStyleTableRecord
2
STANDARD
70
0
0
ENDTAB
0
TABLE
2
VIEW
5
6
100
AcDbSymbolTable
70
0
0
ENDTAB
0
TABLE
2
UCS
5
7
100
AcDbSymbolTable
70
0
0
ENDTAB
0
TABLE
2
APPID
5
9
100
AcDbSymbolTable
70
2
0
APPID
5
12
100
AcDbSymbolTableRecord
100
AcDbRegAppTableRecord
2
ACAD
70
0
0
ENDTAB
0
TABLE
2
DIMSTYLE
5
A
100
AcDbSymbolTable
70
1
0
ENDTAB
0
TABLE
2
BLOCK_RECORD
5
1
100
AcDbSymbolTable
70
1
0
BLOCK_RECORD
5
1F
100
AcDbSymbolTableRecord
100
AcDbBlockTableRecord
2
*MODEL_SPACE
0
BLOCK_RECORD
5
1B
100
AcDbSymbolTableRecord
100
AcDbBlockTableRecord
2
*PAPER_SPACE
0
ENDTAB
0
ENDSEC
0
SECTION
2
BLOCKS
0
BLOCK
5
20
100
AcDbEntity
100
AcDbBlockBegin
2
*MODEL_SPACE
0
ENDBLK
5
21
100
AcDbEntity
100
AcDbBlockEnd
0
BLOCK
5
1C
100
AcDbEntity
100
AcDbBlockBegin
2
*PAPER_SPACE
0
ENDBLK
5
1D
100
AcDbEntity
100
AcDbBlockEnd
0
ENDSEC
0
SECTION
2
ENTITIES
0
LWPOLYLINE
5
100
100
AcDbEntity
8
0
100
AcDbPolyline
90
32
70
1
43
0.0
10
-1.4999999664723869
20
20.399999541789295
42
-0.41421356237309992
10
-1.3999999664723872
20
20.499999541789293
10
1.7499999586492776
20
20.499999541789293
42
-0.41421356237310075
10
1.8499999586492777
20
20.399999541789295
10
1.8499999586492772
20
20.199999550729988
42
-0.41421356237309992
10
1.7499999586492776
20
20.09999955072999
10
1.6999999642372137
20
20.09999955072999
42
0.41421356237309342
10
1.5499999642372131
20
19.949999550729991
10
1.5499999642372146
20
19.716682133515228
42
0.41421356237310203
10
1.6999999642372132
20
19.566682133515229
10
1.7499999586492776
20
19.566682133515229
42
-0.41421356237309503
10
1.8499999586492777
20
19.466682133515228
10
1.8499999586492777
20
19.198987002124262
42
-0.41421356237308526
10
1.7499999586492787
20
19.098987002124257
10
1.6945133299910986
20
19.098987002124257
42
0.41421356237308415
10
1.5445133299910991
20
18.948987002124259
10
1.5445133299910974
20
18.657209488935685
42
0.41421356237308526
10
1.694513329991099
20
18.507209488935686
10
1.7499999586492776
20
18.507209488935686
42
-0.41421356237309825
10
1.8499999586492766
20
18.407209488935688
10
1.8499999586492759
20
18.199999595433475
42
-0.41421356237310236
10
1.7499999586492778
20
18.099999595433474
10
-1.399999966472387
20
18.099999595433474
42
-0.41421356237309825
10
-1.499999966472386
20
18.199999595433471
10
-1.4999999664723862
20
18.799999577552082
42
-0.41421356237309825
10
-1.3999999664723872
20
18.89999957755208
10
-1.1999999754130839
20
18.89999957755208
42
0.41421356237311291
10
-1.0999999754130851
20
18.999999577552082
10
-1.0999999754130843
20
19.699999557435511
42
0.41421356237312351
10
-1.1999999754130841
20
19.799999557435513
10
-1.3999999664723872
20
19.799999557435513
42
-0.41421356237309825
10
-1.4999999664723862
20
19.89999955743551
0
LINE
5
101
100
AcDbEntity
8
0
100
AcDbLine
10
1.9999999552965164
20
18.099999595433474
30
0
11
-1.699999962002039
21
18.099999595433474
31
0
0
LINE
5
102
100
AcDbEntity
8
0
100
AcDbLine
10
-1.699999962002039
20
18.099999595433474
30
0
11
-1.699999962002039
21
20.599999539554119
31
0
0
LINE
5
103
100
AcDbEntity
8
0
100
AcDbLine
10
-1.699999962002039
20
20.599999539554119
30
0
11
1.9999999552965164
21
20.599999539554119
31
0
0
LINE
5
104
100
AcDbEntity
8
0
100
AcDbLine
10
1.9999999552965164
20
20.599999539554119
30
0
11
1.9999999552965164
21
18.099999595433474
31
0
0
LINE
5
105
100
AcDbEntity
8
0
100
AcDbLine
10
1.9999999552965164
20
18.099999595433474
30
0
11
1.7499999586492787
21
18.099999595433474
31
0
0
LINE
5
106
100
AcDbEntity
8
0
100
AcDbLine
10
1.7499999586492787
20
18.099999595433474
30
0
11
1.7499999586492787
21
18.407209488935688
31
0
0
LINE
5
107
100
AcDbEntity
8
0
100
AcDbLine
10
1.7499999586492787
20
18.407209488935688
30
0
11
1.9999999552965164
21
18.407209488935688
31
0
0
LINE
5
108
100
AcDbEntity
8
0
100
AcDbLine
10
1.9999999552965164
20
18.407209488935688
30
0
11
1.9999999552965164
21
18.099999595433474
31
0
0
LINE
5
109
100
AcDbEntity
8
0
100
AcDbLine
10
1.9999999552965164
20
20.599999539554119
30
0
11
1.7499999586492794
21
20.599999539554119
31
0
0
LINE
5
110
100
AcDbEntity
8
0
100
AcDbLine
10
1.7499999586492794
20
20.599999539554119
30
0
11
1.7499999586492794
21
20.199999550729988
31
0
0
LINE
5
111
100
AcDbEntity
8
0
100
AcDbLine
10
1.7499999586492794
20
20.199999550729988
30
0
11
1.9999999552965164
21
20.199999550729988
31
0
0
LINE
5
112
100
AcDbEntity
8
0
100
AcDbLine
10
1.9999999552965164
20
20.199999550729988
30
0
11
1.9999999552965164
21
20.599999539554119
31
0
0
LINE
5
113
100
AcDbEntity
8
0
100
AcDbLine
10
-1.699999962002039
20
20.599999539554119
30
0
11
-1.3999999687075615
21
20.599999539554119
31
0
0
LINE
5
114
100
AcDbEntity
8
0
100
AcDbLine
10
-1.3999999687075615
20
20.599999539554119
30
0
11
-1.3999999687075615
21
20.199999548494816
31
0
0
LINE
5
115
100
AcDbEntity
8
0
100
AcDbLine
10
-1.3999999687075615
20
20.199999548494816
30
0
11
-1.699999962002039
21
20.199999548494816
31
0
0
LINE
5
116
100
AcDbEntity
8
0
100
AcDbLine
10
-1.699999962002039
20
20.199999548494816
30
0
11
-1.699999962002039
21
20.599999539554119
31
0
0
LINE
5
117
100
AcDbEntity
8
0
100
AcDbLine
10
-1.699999962002039
20
18.099999595433474
30
0
11
-1.3999999664723883
21
18.099999595433474
31
0
0
LINE
5
118
100
AcDbEntity
8
0
100
AcDbLine
10
-1.3999999664723883
20
18.099999595433474
30
0
11
-1.3999999664723883
21
18.499999586492777
31
0
0
LINE
5
119
100
AcDbEntity
8
0
100
AcDbLine
10
-1.3999999664723883
20
18.499999586492777
30
0
11
-1.699999962002039
21
18.499999586492777
31
0
0
LINE
5
120
100
AcDbEntity
8
0
100
AcDbLine
10
-1.699999962002039
20
18.499999586492777
30
0
11
-1.699999962002039
21
18.099999595433474
31
0
0
ENDSEC
0
SECTION
2
OBJECTS
0
DICTIONARY
5
C
100
AcDbDictionary
3
ACAD_GROUP
350
D
3
ACAD_MLINESTYLE
350
17
0
DICTIONARY
5
D
100
AcDbDictionary
0
DICTIONARY
5
1A
330
C
100
AcDbDictionary
0
DICTIONARY
5
17
100
AcDbDictionary
0
ENDSEC
0
EOF
