0
SECTION
2
HEADER
9
$INSUNITS
70
4
9
$ACADVER
1
AC1014
9
$HANDSEED
5
FFFF
0
ENDSEC
0
SECTION
2
TABLES
0
TABLE
2
VPORT
5
8
100
AcDbSymbolTable
0
ENDTAB
0
TABLE
2
LTYPE
5
5
100
AcDbSymbolTable
0
LTYPE
5
14
100
AcDbSymbolTableRecord
100
AcDbLinetypeTableRecord
2
BYBLOCK
70
0
0
LTYPE
5
15
100
AcDbSymbolTableRecord
100
AcDbLinetypeTableRecord
2
BYLAYER
70
0
0
ENDTAB
0
TABLE
2
LAYER
5
2
100
AcDbSymbolTable
70
2
0
LAYER
5
50
100
AcDbSymbolTableRecord
100
AcDbLayerTableRecord
2
0
70
0
6
CONTINUOUS
0
ENDTAB
0
TABLE
2
STYLE
5
3
100
AcDbSymbolTable
70
1
0
STYLE
5
11
100
AcDbSymbolTableRecord
100
AcDbTextStyleTableRecord
2
STANDARD
70
0
0
ENDTAB
0
TABLE
2
VIEW
5
6
100
AcDbSymbolTable
70
0
0
ENDTAB
0
TABLE
2
UCS
5
7
100
AcDbSymbolTable
70
0
0
ENDTAB
0
TABLE
2
APPID
5
9
100
AcDbSymbolTable
70
2
0
APPID
5
12
100
AcDbSymbolTableRecord
100
AcDbRegAppTableRecord
2
ACAD
70
0
0
ENDTAB
0
TABLE
2
DIMSTYLE
5
A
100
AcDbSymbolTable
70
1
0
ENDTAB
0
TABLE
2
BLOCK_RECORD
5
1
100
AcDbSymbolTable
70
1
0
BLOCK_RECORD
5
1F
100
AcDbSymbolTableRecord
100
AcDbBlockTableRecord
2
*MODEL_SPACE
0
BLOCK_RECORD
5
1B
100
AcDbSymbolTableRecord
100
AcDbBlockTableRecord
2
*PAPER_SPACE
0
ENDTAB
0
ENDSEC
0
SECTION
2
BLOCKS
0
BLOCK
5
20
100
AcDbEntity
100
AcDbBlockBegin
2
*MODEL_SPACE
0
ENDBLK
5
21
100
AcDbEntity
100
AcDbBlockEnd
0
BLOCK
5
1C
100
AcDbEntity
100
AcDbBlockBegin
2
*PAPER_SPACE
0
ENDBLK
5
1D
100
AcDbEntity
100
AcDbBlockEnd
0
ENDSEC
0
SECTION
2
ENTITIES
0
CIRCLE
5
100
100
AcDbEntity
8
0
100
AcDbCircle
10
7.2999998368322849
20
-10.699999649077654
30
0
40
0.89999997988343239
210
0
220
0
230
1
0
CIRCLE
5
101
100
AcDbEntity
8
0
100
AcDbCircle
10
7.3999998368322846
20
-0.7499996490776486
30
0
40
0.89999997988343239
210
0
220
0
230
1
0
CIRCLE
5
102
100
AcDbEntity
8
0
100
AcDbCircle
10
7.4999998368322851
20
9.1000003509223522
30
0
40
0.89999997988343239
210
0
220
0
230
1
0
CIRCLE
5
103
100
AcDbEntity
8
0
100
AcDbCircle
10
-7.2999998368322849
20
-15.699999649077654
30
0
40
0.89999997988343239
210
0
220
0
230
1
0
CIRCLE
5
104
100
AcDbEntity
8
0
100
AcDbCircle
10
-7.3999998368322846
20
-5.7999996490776518
30
0
40
0.89999997988343239
210
0
220
0
230
1
0
CIRCLE
5
105
100
AcDbEntity
8
0
100
AcDbCircle
10
-7.4999998368322851
20
4.2000003509223527
30
0
40
0.89999997988343239
210
0
220
0
230
1
0
CIRCLE
5
106
100
AcDbEntity
8
0
100
AcDbCircle
10
-7.4999998368322851
20
14.10000035092235
30
0
40
0.89999997988343239
210
0
220
0
230
1
0
CIRCLE
5
107
100
AcDbEntity
8
0
100
AcDbCircle
10
-7.4999998368322851
20
11.60000035092235
30
0
40
0.89999997988343239
210
0
220
0
230
1
0
CIRCLE
5
108
100
AcDbEntity
8
0
100
AcDbCircle
10
-7.3999998368322846
20
1.7000003509223527
30
0
40
0.89999997988343239
210
0
220
0
230
1
0
CIRCLE
5
109
100
AcDbEntity
8
0
100
AcDbCircle
10
-7.3999998368322846
20
-8.1999996490776521
30
0
40
0.89999997988343239
210
0
220
0
230
1
0
CIRCLE
5
110
100
AcDbEntity
8
0
100
AcDbCircle
10
7.4999998368322851
20
16.600000350922354
30
0
40
0.89999997988343239
210
0
220
0
230
1
0
CIRCLE
5
111
100
AcDbEntity
8
0
100
AcDbCircle
10
7.3999998368322846
20
6.7000003509223518
30
0
40
0.89999997988343239
210
0
220
0
230
1
0
CIRCLE
5
112
100
AcDbEntity
8
0
100
AcDbCircle
10
7.3999998368322846
20
-3.2999996490776509
30
0
40
0.89999997988343239
210
0
220
0
230
1
0
CIRCLE
5
113
100
AcDbEntity
8
0
100
AcDbCircle
10
7.2999998368322849
20
-13.199999649077654
30
0
40
0.89999997988343239
210
0
220
0
230
1
0
CIRCLE
5
114
100
AcDbEntity
8
0
100
AcDbCircle
10
7.3999998368322846
20
-8.1999996490776521
30
0
40
0.89999997988343239
210
0
220
0
230
1
0
CIRCLE
5
115
100
AcDbEntity
8
0
100
AcDbCircle
10
7.3999998368322846
20
1.7000003509223516
30
0
40
0.89999997988343239
210
0
220
0
230
1
0
CIRCLE
5
116
100
AcDbEntity
8
0
100
AcDbCircle
10
7.4999998368322851
20
11.600000350922352
30
0
40
0.89999997988343239
210
0
220
0
230
1
0
CIRCLE
5
117
100
AcDbEntity
8
0
100
AcDbCircle
10
-7.2999998368322849
20
-13.199999649077654
30
0
40
0.89999997988343239
210
0
220
0
230
1
0
CIRCLE
5
118
100
AcDbEntity
8
0
100
AcDbCircle
10
-7.3999998368322846
20
-3.2999996490776518
30
0
40
0.89999997988343239
210
0
220
0
230
1
0
CIRCLE
5
119
100
AcDbEntity
8
0
100
AcDbCircle
10
-7.3999998368322846
20
6.7000003509223527
30
0
40
0.89999997988343239
210
0
220
0
230
1
0
CIRCLE
5
120
100
AcDbEntity
8
0
100
AcDbCircle
10
-7.4999998368322851
20
16.60000035092235
30
0
40
0.89999997988343239
210
0
220
0
230
1
0
CIRCLE
5
121
100
AcDbEntity
8
0
100
AcDbCircle
10
-7.4999998368322851
20
9.1000003509223504
30
0
40
0.89999997988343239
210
0
220
0
230
1
0
CIRCLE
5
122
100
AcDbEntity
8
0
100
AcDbCircle
10
-7.3999998368322846
20
-0.74999964907764838
30
0
40
0.89999997988343239
210
0
220
0
230
1
0
CIRCLE
5
123
100
AcDbEntity
8
0
100
AcDbCircle
10
-7.2999998368322849
20
-10.699999649077654
30
0
40
0.89999997988343239
210
0
220
0
230
1
0
CIRCLE
5
124
100
AcDbEntity
8
0
100
AcDbCircle
10
7.4999998368322851
20
14.100000350922352
30
0
40
0.89999997988343239
210
0
220
0
230
1
0
CIRCLE
5
125
100
AcDbEntity
8
0
100
AcDbCircle
10
7.4999998368322851
20
4.2000003509223518
30
0
40
0.89999997988343239
210
0
220
0
230
1
0
CIRCLE
5
126
100
AcDbEntity
8
0
100
AcDbCircle
10
7.3999998368322846
20
-5.7999996490776518
30
0
40
0.89999997988343239
210
0
220
0
230
1
0
CIRCLE
5
127
100
AcDbEntity
8
0
100
AcDbCircle
10
7.2999998368322849
20
-15.699999649077654
30
0
40
0.89999997988343239
210
0
220
0
230
1
0
CIRCLE
5
128
100
AcDbEntity
8
0
100
AcDbCircle
10
6.6999999999999957
20
19.499999999999993
30
0
40
1.25
210
0
220
0
230
1
0
CIRCLE
5
129
100
AcDbEntity
8
0
100
AcDbCircle
10
6.7000000000000011
20
-18.299999999999997
30
0
40
1.25
210
0
220
0
230
1
0
CIRCLE
5
130
100
AcDbEntity
8
0
100
AcDbCircle
10
-6.6000000000000005
20
19.5
30
0
40
1.25
210
0
220
0
230
1
0
CIRCLE
5
131
100
AcDbEntity
8
0
100
AcDbCircle
10
-6.6000000000000005
20
-18.300000000000001
30
0
40
1.25
210
0
220
0
230
1
0
LWPOLYLINE
5
132
100
AcDbEntity
8
0
100
AcDbPolyline
90
8
70
1
43
0.0
10
-8.600000000000005
20
19.5
42
-0.41421356237309459
10
-6.6000000000000014
20
21.500000000000004
10
6.7000000000000011
20
21.5
42
-0.41421356237309392
10
8.7000000000000011
20
19.499999999999996
10
8.7000000000000011
20
-18.299999999999997
42
-0.4142135623730957
10
6.6999999999999993
20
-20.299999999999997
10
-6.6000000000000014
20
-20.300000000000004
42
-0.41421356237309492
10
-8.6000000000000014
20
-18.300000000000001
0
LWPOLYLINE
5
133
100
AcDbEntity
8
0
100
AcDbPolyline
90
6
70
1
43
0.0
10
-0.25000008642673682
20
-11.762500178813935
42
-0.99999999999999989
10
-0.2500000864267346
20
-11.837500178813933
10
-0.45000008642673478
20
-11.837500178813933
10
-0.65000007748603816
20
-11.837500178813933
10
-0.65000007748603816
20
-11.762500178813935
10
-0.45000008642673478
20
-11.762500178813935
0
CIRCLE
5
134
100
AcDbEntity
8
0
100
AcDbCircle
10
-0.25000008642673571
20
-11.800000178813935
30
0
40
0.05000000000000001
210
0
220
0
230
1
0
CIRCLE
5
135
100
AcDbEntity
8
0
100
AcDbCircle
10
-0.25000008642673571
20
-11.800000178813935
30
0
40
0.037499999999999201
210
0
220
0
230
1
0
ENDSEC
0
SECTION
2
OBJECTS
0
DICTIONARY
5
C
100
AcDbDictionary
3
ACAD_GROUP
350
D
3
ACAD_MLINESTYLE
350
17
0
DICTIONARY
5
D
100
AcDbDictionary
0
DICTIONARY
5
1A
330
C
100
AcDbDictionary
0
DICTIONARY
5
17
100
AcDbDictionary
0
ENDSEC
0
EOF
