0
SECTION
2
HEADER
9
$INSUNITS
70
4
9
$ACADVER
1
AC1014
9
$HANDSEED
5
FFFF
0
ENDSEC
0
SECTION
2
TABLES
0
TABLE
2
VPORT
5
8
100
AcDbSymbolTable
0
ENDTAB
0
TABLE
2
LTYPE
5
5
100
AcDbSymbolTable
0
LTYPE
5
14
100
AcDbSymbolTableRecord
100
AcDbLinetypeTableRecord
2
BYBLOCK
70
0
0
LTYPE
5
15
100
AcDbSymbolTableRecord
100
AcDbLinetypeTableRecord
2
BYLAYER
70
0
0
ENDTAB
0
TABLE
2
LAYER
5
2
100
AcDbSymbolTable
70
2
0
LAYER
5
50
100
AcDbSymbolTableRecord
100
AcDbLayerTableRecord
2
0
70
0
6
CONTINUOUS
0
ENDTAB
0
TABLE
2
STYLE
5
3
100
AcDbSymbolTable
70
1
0
STYLE
5
11
100
AcDbSymbolTableRecord
100
AcDbTextStyleTableRecord
2
STANDARD
70
0
0
ENDTAB
0
TABLE
2
VIEW
5
6
100
AcDbSymbolTable
70
0
0
ENDTAB
0
TABLE
2
UCS
5
7
100
AcDbSymbolTable
70
0
0
ENDTAB
0
TABLE
2
APPID
5
9
100
AcDbSymbolTable
70
2
0
APPID
5
12
100
AcDbSymbolTableRecord
100
AcDbRegAppTableRecord
2
ACAD
70
0
0
ENDTAB
0
TABLE
2
DIMSTYLE
5
A
100
AcDbSymbolTable
70
1
0
ENDTAB
0
TABLE
2
BLOCK_RECORD
5
1
100
AcDbSymbolTable
70
1
0
BLOCK_RECORD
5
1F
100
AcDbSymbolTableRecord
100
AcDbBlockTableRecord
2
*MODEL_SPACE
0
BLOCK_RECORD
5
1B
100
AcDbSymbolTableRecord
100
AcDbBlockTableRecord
2
*PAPER_SPACE
0
ENDTAB
0
ENDSEC
0
SECTION
2
BLOCKS
0
BLOCK
5
20
100
AcDbEntity
100
AcDbBlockBegin
2
*MODEL_SPACE
0
ENDBLK
5
21
100
AcDbEntity
100
AcDbBlockEnd
0
BLOCK
5
1C
100
AcDbEntity
100
AcDbBlockBegin
2
*PAPER_SPACE
0
ENDBLK
5
1D
100
AcDbEntity
100
AcDbBlockEnd
0
ENDSEC
0
SECTION
2
ENTITIES
0
LINE
5
100
100
AcDbEntity
8
0
100
AcDbLine
10
12.5
20
-5.0000000000000009
30
0
11
-12.499999999999998
21
-5
31
0
0
LINE
5
101
100
AcDbEntity
8
0
100
AcDbLine
10
-12.499999999999998
20
-5
30
0
11
-12.5
21
4.9999999999999991
31
0
0
LINE
5
102
100
AcDbEntity
8
0
100
AcDbLine
10
-12.5
20
4.9999999999999991
30
0
11
12.5
21
4.9999999999999982
31
0
0
LINE
5
103
100
AcDbEntity
8
0
100
AcDbLine
10
12.5
20
4.9999999999999982
30
0
11
12.5
21
-5.0000000000000009
31
0
0
LINE
5
104
100
AcDbEntity
8
0
100
AcDbLine
10
12.5
20
-5.0000000000000009
30
0
11
-12.5
21
4.9999999999999991
31
0
0
LINE
5
105
100
AcDbEntity
8
0
100
AcDbLine
10
-12.499999999999998
20
-5
30
0
11
12.5
21
4.9999999999999982
31
0
0
LINE
5
106
100
AcDbEntity
8
0
100
AcDbLine
10
12.5
20
4.9999999999999982
30
0
11
12.5
21
5.9999999999999982
31
0
0
LINE
5
107
100
AcDbEntity
8
0
100
AcDbLine
10
-12.5
20
4.9999999999999991
30
0
11
-12.5
21
5.9999999999999973
31
0
0
LINE
5
108
100
AcDbEntity
8
0
100
AcDbLine
10
-12.5
20
5.9999999999999973
30
0
11
12.5
21
5.9999999999999982
31
0
0
CIRCLE
5
109
100
AcDbEntity
8
0
100
AcDbCircle
10
12.5
20
-1.2341209192957417e-15
30
0
40
5
210
0
220
0
230
1
0
CIRCLE
5
110
100
AcDbEntity
8
0
100
AcDbCircle
10
-12.5
20
-9.4178074660137734e-16
30
0
40
5
210
0
220
0
230
1
0
CIRCLE
5
111
100
AcDbEntity
8
0
100
AcDbCircle
10
15.098076211353316
20
-1.5000000000000016
30
0
40
0.74999999999999933
210
0
220
0
230
1
0
LWPOLYLINE
5
112
100
AcDbEntity
8
0
100
AcDbPolyline
90
4
70
1
43
0.0
10
15.747595264270558
20
-1.8750000000455596
42
-0.57777599968830629
10
9.2500130919724342
20
-1.8708514358216244
42
-1.0466721673214403
10
10.581364341869939
20
-1.1832261450775141
42
0.57777833312833693
10
14.485393890733956
20
-1.0674258745596534
42
-0.95542572349146726
0
ARC
5
113
100
AcDbEntity
8
0
100
AcDbCircle
10
12.5
20
-1.2341209192957417e-15
30
0
40
2.9999999999999987
210
0
220
0
230
1
100
AcDbArc
50
209.92643486661419
51
330.00000000000006
0
CIRCLE
5
114
100
AcDbEntity
8
0
100
AcDbCircle
10
-12.5
20
-9.41790026049799e-16
30
0
40
1.0000000000000007
210
0
220
0
230
1
0
CIRCLE
5
115
100
AcDbEntity
8
0
100
AcDbCircle
10
-10.841687604822301
20
2.4999999999999991
30
0
40
0.75000000000000011
210
0
220
0
230
1
0
CIRCLE
5
116
100
AcDbEntity
8
0
100
AcDbCircle
10
12.5
20
-1.2341217101935953e-15
30
0
40
0.85000000000000009
210
0
220
0
230
1
0
LINE
5
117
100
AcDbEntity
8
0
100
AcDbLine
10
7.5000000000000018
20
-2.4587677184430954e-15
30
0
11
7.5000000000000009
21
4.9999999999999991
31
0
0
LINE
5
118
100
AcDbEntity
8
0
100
AcDbLine
10
7.5000000000000018
20
-2.4587677184430954e-15
30
0
11
7.5000000000000044
21
-5
31
0
0
LINE
5
119
100
AcDbEntity
8
0
100
AcDbLine
10
-7.4999999999999991
20
2.8286605254597493e-16
30
0
11
-7.5000000000000009
21
4.9999999999999991
31
0
0
LINE
5
120
100
AcDbEntity
8
0
100
AcDbLine
10
-7.4999999999999991
20
2.8286605254597493e-16
30
0
11
-7.4999999999999982
21
-5.0000000000000009
31
0
0
CIRCLE
5
121
100
AcDbEntity
8
0
100
AcDbCircle
10
-10.841687604822301
20
2.4999999999999991
30
0
40
1.5000000000000009
210
0
220
0
230
1
0
CIRCLE
5
122
100
AcDbEntity
8
0
100
AcDbCircle
10
15.098076211353316
20
-1.5000000000000016
30
0
40
1.5
210
0
220
0
230
1
0
SPLINE
5
123
100
AcDbEntity
8
0
100
AcDbSpline
70
4
71
5
72
26
73
20
74
0
42
0.000000001
43
0.0000000001
44
0.0000000001
40
0
40
0
40
0
40
0
40
0
40
0
40
0.066666666666666666
40
0.13333333333333333
40
0.20000000000000001
40
0.26666666666666666
40
0.33333333333333331
40
0.39999999999999997
40
0.46666666666666662
40
0.53333333333333333
40
0.59999999999999998
40
0.66666666666666663
40
0.73333333333333328
40
0.79999999999999993
40
0.86666666666666659
40
0.93333333333333324
40
1
40
1
40
1
40
1
40
1
40
1
41
1
41
1
41
1
41
1
41
1
41
1
41
1
41
1
41
1
41
1
41
1
41
1
41
1
41
1
41
1
41
1
41
1
41
1
41
1
41
1
10
-11.392742454522899
20
3.8951123799255201
30
0
10
-11.285199543566211
20
3.9375907089019755
30
0
10
-11.083410058509164
20
4.0125344493785651
30
0
10
-10.821111200551805
20
4.0948597375947822
30
0
10
-10.400969453224434
20
4.1478194536226285
30
0
10
-9.1849573780205667
20
4.112495980671441
30
0
10
-6.9361752278577864
20
3.9345510788595255
30
0
10
-4.2598242075589283
20
3.4887692151573386
30
0
10
-1.4919982970285206
20
2.7768639328489062
30
0
10
1.1528545139112705
20
1.869217557585741
30
0
10
3.5790290053091178
20
0.88572611764841369
30
0
10
5.761133204221097
20
-0.035236071784085783
30
0
10
7.7177629037643545
20
-0.76191109338389484
30
0
10
9.4786109488626327
20
-1.1961065525672434
30
0
10
11.054643835129465
20
-1.3024421236042174
30
0
10
12.410871763112672
20
-1.1341141166864637
30
0
10
13.276007083054298
20
-0.85413175241258732
30
0
10
13.777459288695187
20
-0.60323652928639571
30
0
10
14.042790535630893
20
-0.42375405259456794
30
0
10
14.158212755455676
20
-0.33095907502425992
30
0
0
SPLINE
5
124
100
AcDbEntity
8
0
100
AcDbSpline
70
4
71
5
72
26
73
20
74
0
42
0.000000001
43
0.0000000001
44
0.0000000001
40
0
40
0
40
0
40
0
40
0
40
0
40
0.066666666666666666
40
0.13333333333333333
40
0.20000000000000001
40
0.26666666666666666
40
0.33333333333333331
40
0.39999999999999997
40
0.46666666666666662
40
0.53333333333333333
40
0.59999999999999998
40
0.66666666666666663
40
0.73333333333333328
40
0.79999999999999993
40
0.86666666666666659
40
0.93333333333333324
40
1
40
1
40
1
40
1
40
1
40
1
41
1
41
1
41
1
41
1
41
1
41
1
41
1
41
1
41
1
41
1
41
1
41
1
41
1
41
1
41
1
41
1
41
1
41
1
41
1
41
1
10
-10.554670178453181
20
1.0277157214101966
30
0
10
-10.366709499282356
20
1.064358922726252
30
0
10
-9.9817314271693629
20
1.1354083248174363
30
0
10
-9.3773298737704049
20
1.2352002118614385
30
0
10
-8.4812917354948194
20
1.3493311278779576
30
0
10
-7.0732752019595635
20
1.4188032876623666
30
0
10
-5.2670167528465681
20
1.3608381495121271
30
0
10
-3.1684033383937003
20
1.0907218861839398
30
0
10
-1.016757549455084
20
0.55705059087518083
30
0
10
1.0986581268710465
20
-0.19610725884993729
30
0
10
3.1191319068397769
20
-1.0834653752017338
30
0
10
5.0402030578468864
20
-1.9894405618526376
30
0
10
6.8766809059300282
20
-2.7959424867609615
30
0
10
8.6543673926949634
20
-3.4019217970567937
30
0
10
10.390389015661496
20
-3.7483174367928251
30
0
10
12.095603368623477
20
-3.8068393352770062
30
0
10
13.439703928540832
20
-3.6165275779209498
30
0
10
14.437511972105625
20
-3.3411694228975191
30
0
10
15.098185396014586
20
-3.0990792268231635
30
0
10
15.427389213371887
20
-2.963404573828277
30
0
0
ENDSEC
0
SECTION
2
OBJECTS
0
DICTIONARY
5
C
100
AcDbDictionary
3
ACAD_GROUP
350
D
3
ACAD_MLINESTYLE
350
17
0
DICTIONARY
5
D
100
AcDbDictionary
0
DICTIONARY
5
1A
330
C
100
AcDbDictionary
0
DICTIONARY
5
17
100
AcDbDictionary
0
ENDSEC
0
EOF
