0
SECTION
2
HEADER
9
$INSUNITS
70
4
9
$ACADVER
1
AC1014
9
$HANDSEED
5
FFFF
0
ENDSEC
0
SECTION
2
TABLES
0
TABLE
2
VPORT
5
8
100
AcDbSymbolTable
0
ENDTAB
0
TABLE
2
LTYPE
5
5
100
AcDbSymbolTable
0
LTYPE
5
14
100
AcDbSymbolTableRecord
100
AcDbLinetypeTableRecord
2
BYBLOCK
70
0
0
LTYPE
5
15
100
AcDbSymbolTableRecord
100
AcDbLinetypeTableRecord
2
BYLAYER
70
0
0
ENDTAB
0
TABLE
2
LAYER
5
2
100
AcDbSymbolTable
70
2
0
LAYER
5
50
100
AcDbSymbolTableRecord
100
AcDbLayerTableRecord
2
0
70
0
6
CONTINUOUS
0
ENDTAB
0
TABLE
2
STYLE
5
3
100
AcDbSymbolTable
70
1
0
STYLE
5
11
100
AcDbSymbolTableRecord
100
AcDbTextStyleTableRecord
2
STANDARD
70
0
0
ENDTAB
0
TABLE
2
VIEW
5
6
100
AcDbSymbolTable
70
0
0
ENDTAB
0
TABLE
2
UCS
5
7
100
AcDbSymbolTable
70
0
0
ENDTAB
0
TABLE
2
APPID
5
9
100
AcDbSymbolTable
70
2
0
APPID
5
12
100
AcDbSymbolTableRecord
100
AcDbRegAppTableRecord
2
ACAD
70
0
0
ENDTAB
0
TABLE
2
DIMSTYLE
5
A
100
AcDbSymbolTable
70
1
0
ENDTAB
0
TABLE
2
BLOCK_RECORD
5
1
100
AcDbSymbolTable
70
1
0
BLOCK_RECORD
5
1F
100
AcDbSymbolTableRecord
100
AcDbBlockTableRecord
2
*MODEL_SPACE
0
BLOCK_RECORD
5
1B
100
AcDbSymbolTableRecord
100
AcDbBlockTableRecord
2
*PAPER_SPACE
0
ENDTAB
0
ENDSEC
0
SECTION
2
BLOCKS
0
BLOCK
5
20
100
AcDbEntity
100
AcDbBlockBegin
2
*MODEL_SPACE
0
ENDBLK
5
21
100
AcDbEntity
100
AcDbBlockEnd
0
BLOCK
5
1C
100
AcDbEntity
100
AcDbBlockBegin
2
*PAPER_SPACE
0
ENDBLK
5
1D
100
AcDbEntity
100
AcDbBlockEnd
0
ENDSEC
0
SECTION
2
ENTITIES
0
LWPOLYLINE
5
100
100
AcDbEntity
8
0
100
AcDbPolyline
90
36
70
1
43
0.0
10
-13.533655861897218
20
-95.998898141259716
10
-13.533655861897216
20
-93.185091537699918
10
-13.533426706303693
20
-93.185091556380115
10
-13.533022550656391
20
-88.222455572862799
10
-11.533022557288815
20
-88.22261845228708
42
2.4296197564846365
10
-11.532334626690059
20
-79.775503668648497
10
-13.532334620057631
20
-79.775340789224202
10
-13.531930488848108
20
-74.813004878176969
10
-13.533655861897216
20
-74.813004737663107
10
-13.533655861897216
20
-69.185091458110804
10
-13.531472153212134
20
-69.185091635940324
10
-13.531067997564792
20
-64.222455652451927
10
-11.53106800419722
20
-64.222618531876222
42
2.4296197564846351
10
-11.530380073598462
20
-55.775503748237647
10
-13.530380066966035
20
-55.775340868813345
10
-13.529975935756511
20
-50.813004957766104
10
-13.533655861897216
20
-50.813004658074007
10
-13.533655861897218
20
-45.185091378521669
10
-13.52951760012054
20
-45.185091715529452
10
-13.529113444473197
20
-40.222455732041041
10
-11.529113451105621
20
-40.22261861146535
42
2.4296197564846351
10
-11.528425520506866
20
-31.775503827826764
10
-13.528425513874438
20
-31.775340948402466
10
-13.528021382664914
20
-26.813005037355225
10
-13.533655861897213
20
-26.813004578484886
10
-13.533655861897216
20
-21.185091298932555
10
-13.527563047028943
20
-21.185091795118581
10
-13.527158891381603
20
-16.22245581163018
10
-11.527158898014028
20
-16.222618691054478
42
2.4296197564846334
10
-11.526470967415271
20
-7.7755039074158923
10
-13.526470960782843
20
-7.775341027991594
10
-13.52606682957328
20
-2.8130051169443475
10
-13.533655861897218
20
-2.8130044988957708
10
-13.533655861897218
20
0.0011021770413827783
10
0.23580082066769578
20
-1.9203484846741503e-05
10
0.22798260830131145
20
-96.000018885128384
0
LWPOLYLINE
5
101
100
AcDbEntity
8
0
100
AcDbPolyline
90
4
70
1
43
0.0
10
0.22993716139317444
20
-95.998898141259716
10
-13.533655861897218
20
-95.998898141259716
10
-13.533655861897218
20
-72.000018962188236
10
0.22993716139317383
20
-72.000018962188236
0
LINE
5
102
100
AcDbEntity
8
0
100
AcDbLine
10
0.23026292024177314
20
-68.000018975453116
30
-1.5587759977405142e-15
11
0.22961140254457452
21
-76.000018948923355
31
-1.5587759977405142e-15
0
ENDSEC
0
SECTION
2
OBJECTS
0
DICTIONARY
5
C
100
AcDbDictionary
3
ACAD_GROUP
350
D
3
ACAD_MLINESTYLE
350
17
0
DICTIONARY
5
D
100
AcDbDictionary
0
DICTIONARY
5
1A
330
C
100
AcDbDictionary
0
DICTIONARY
5
17
100
AcDbDictionary
0
ENDSEC
0
EOF
