0
SECTION
2
HEADER
9
$INSUNITS
70
4
9
$ACADVER
1
AC1014
9
$HANDSEED
5
FFFF
0
ENDSEC
0
SECTION
2
TABLES
0
TABLE
2
VPORT
5
8
100
AcDbSymbolTable
0
ENDTAB
0
TABLE
2
LTYPE
5
5
100
AcDbSymbolTable
0
LTYPE
5
14
100
AcDbSymbolTableRecord
100
AcDbLinetypeTableRecord
2
BYBLOCK
70
0
0
LTYPE
5
15
100
AcDbSymbolTableRecord
100
AcDbLinetypeTableRecord
2
BYLAYER
70
0
0
ENDTAB
0
TABLE
2
LAYER
5
2
100
AcDbSymbolTable
70
2
0
LAYER
5
50
100
AcDbSymbolTableRecord
100
AcDbLayerTableRecord
2
0
70
0
6
CONTINUOUS
0
ENDTAB
0
TABLE
2
STYLE
5
3
100
AcDbSymbolTable
70
1
0
STYLE
5
11
100
AcDbSymbolTableRecord
100
AcDbTextStyleTableRecord
2
STANDARD
70
0
0
ENDTAB
0
TABLE
2
VIEW
5
6
100
AcDbSymbolTable
70
0
0
ENDTAB
0
TABLE
2
UCS
5
7
100
AcDbSymbolTable
70
0
0
ENDTAB
0
TABLE
2
APPID
5
9
100
AcDbSymbolTable
70
2
0
APPID
5
12
100
AcDbSymbolTableRecord
100
AcDbRegAppTableRecord
2
ACAD
70
0
0
ENDTAB
0
TABLE
2
DIMSTYLE
5
A
100
AcDbSymbolTable
70
1
0
ENDTAB
0
TABLE
2
BLOCK_RECORD
5
1
100
AcDbSymbolTable
70
1
0
BLOCK_RECORD
5
1F
100
AcDbSymbolTableRecord
100
AcDbBlockTableRecord
2
*MODEL_SPACE
0
BLOCK_RECORD
5
1B
100
AcDbSymbolTableRecord
100
AcDbBlockTableRecord
2
*PAPER_SPACE
0
ENDTAB
0
ENDSEC
0
SECTION
2
BLOCKS
0
BLOCK
5
20
100
AcDbEntity
100
AcDbBlockBegin
2
*MODEL_SPACE
0
ENDBLK
5
21
100
AcDbEntity
100
AcDbBlockEnd
0
BLOCK
5
1C
100
AcDbEntity
100
AcDbBlockBegin
2
*PAPER_SPACE
0
ENDBLK
5
1D
100
AcDbEntity
100
AcDbBlockEnd
0
ENDSEC
0
SECTION
2
ENTITIES
0
LWPOLYLINE
5
100
100
AcDbEntity
8
0
100
AcDbPolyline
90
27
70
1
43
0.0
10
-11.818255694654333
20
-46.819805153586138
42
-0.1989123673796579
10
-43.638060848048951
20
-60.000000000191505
10
-43.638060848048987
20
-85.000000000191534
10
-70.998898141259716
20
-85.000000000191534
10
-70.998898141259716
20
-60.000000000191498
42
-0.41421356237309465
10
-95.998898141259716
20
-35.00000000019152
10
-95.99889814125973
20
-1.91500149071544e-10
10
-95.998450859611268
20
-1.91500149071544e-10
10
-93.184644255996076
20
-1.91500149071544e-10
10
-93.184644255996076
20
-3.0000000001915006
10
-74.812557455959279
20
-3.0000000001915006
10
-74.812557455959265
20
-1.91500149071544e-10
10
-69.184644176406948
20
-1.91500149071544e-10
10
-69.184644176406948
20
-3.0000000001915006
10
-50.812557376370158
20
-3.0000000001915006
10
-50.812557376370165
20
-1.91500149071544e-10
10
-45.184644096817827
20
-1.91500149071544e-10
10
-45.18464409681782
20
-3.0000000001915006
10
-26.81255729678103
20
-3.0000000001915006
10
-26.812557296781034
20
-1.91500149071544e-10
10
-21.18464401722871
20
-1.91500149071544e-10
10
-21.18464401722871
20
-3.0000000001915006
10
-2.8125572171919138
20
-3.0000000001915006
10
-2.8125572171919138
20
-1.91500149071544e-10
10
0.0015494587402972533
20
-9.4244168025170438e-10
10
0.001549458740297549
20
-27.337049096289263
42
-0.19891236737965812
10
-5.4169750893085764
20
-40.418524548240391
0
LWPOLYLINE
5
101
100
AcDbEntity
8
0
100
AcDbPolyline
90
4
70
1
43
0.0
10
-94.096951914240705
20
-9.0000000009853434
10
-94.096951914240719
20
-18.750000000191474
10
-73.901959053499951
20
-18.750000000191474
10
-73.901959053499951
20
-9.0000000009853434
0
CIRCLE
5
102
100
AcDbEntity
8
0
100
AcDbCircle
10
-43.784843155590835
20
-27.161331157261998
30
-2.2204460492503131e-15
40
0.67500000000000016
210
1.3552527156068805e-20
220
0
230
1
0
CIRCLE
5
103
100
AcDbEntity
8
0
100
AcDbCircle
10
-52.334843164501883
20
-27.161331176949272
30
0
40
0.67500000000000016
210
1.3552527156068805e-20
220
0
230
1
0
CIRCLE
5
104
100
AcDbEntity
8
0
100
AcDbCircle
10
-52.334843164501891
20
-43.001331176949265
30
0
40
0.67500000000000016
210
1.3552527156068805e-20
220
0
230
1
0
CIRCLE
5
105
100
AcDbEntity
8
0
100
AcDbCircle
10
-43.784843082644215
20
-43.001331157261966
30
0
40
0.67500000000000016
210
1.3552527156068805e-20
220
0
230
1
0
CIRCLE
5
106
100
AcDbEntity
8
0
100
AcDbCircle
10
-56.938530047215721
20
-57.416411852817426
30
0
40
1.03775
210
-1.3552527156068808e-20
220
0
230
1
0
CIRCLE
5
107
100
AcDbEntity
8
0
100
AcDbCircle
10
-70.238530047215889
20
-57.416411852817326
30
-2.2204460492503131e-15
40
1.03775
210
-1.3552527156068808e-20
220
0
230
1
0
CIRCLE
5
108
100
AcDbEntity
8
0
100
AcDbCircle
10
-56.938530047215473
20
-19.616411852817453
30
0
40
1.03775
210
-1.3552527156068808e-20
220
0
230
1
0
CIRCLE
5
109
100
AcDbEntity
8
0
100
AcDbCircle
10
-70.238530047215619
20
-19.616411852817365
30
-2.2204460492503131e-15
40
1.03775
210
-1.3552527156068808e-20
220
0
230
1
0
CIRCLE
5
110
100
AcDbEntity
8
0
100
AcDbCircle
10
-56.238530210383395
20
-52.316411501895089
30
-2.2204460492503131e-15
40
0.70000000000000306
210
1.3552527156068805e-20
220
-0
230
1
0
CIRCLE
5
111
100
AcDbEntity
8
0
100
AcDbCircle
10
-71.038529884048017
20
-30.016411501894993
30
0
40
0.69999999999999418
210
1.3552527156068805e-20
220
-0
230
1
0
CIRCLE
5
112
100
AcDbEntity
8
0
100
AcDbCircle
10
-56.138530210383273
20
-32.416411501895098
30
-2.2204460492503131e-15
40
0.69999999999999418
210
1.3552527156068805e-20
220
-0
230
1
0
CIRCLE
5
113
100
AcDbEntity
8
0
100
AcDbCircle
10
-56.038530210383193
20
-22.516411501895107
30
0
40
0.70000000000000306
210
1.3552527156068805e-20
220
-0
230
1
0
CIRCLE
5
114
100
AcDbEntity
8
0
100
AcDbCircle
10
-56.03853021038325
20
-30.016411501895099
30
0
40
0.70000000000000306
210
1.3552527156068805e-20
220
-0
230
1
0
CIRCLE
5
115
100
AcDbEntity
8
0
100
AcDbCircle
10
-71.038529884047989
20
-27.516411501894993
30
0
40
0.69999999999999418
210
1.3552527156068805e-20
220
-0
230
1
0
CIRCLE
5
116
100
AcDbEntity
8
0
100
AcDbCircle
10
-56.238530210383416
20
-54.816411501895089
30
-2.2204460492503131e-15
40
0.70000000000000306
210
1.3552527156068805e-20
220
-0
230
1
0
CIRCLE
5
117
100
AcDbEntity
8
0
100
AcDbCircle
10
-70.938529884048066
20
-39.866411501894987
30
0
40
0.70000000000000306
210
1.3552527156068805e-20
220
-0
230
1
0
CIRCLE
5
118
100
AcDbEntity
8
0
100
AcDbCircle
10
-71.038529884047961
20
-22.516411501895
30
0
40
0.70000000000000306
210
1.3552527156068805e-20
220
-0
230
1
0
CIRCLE
5
119
100
AcDbEntity
8
0
100
AcDbCircle
10
-56.000000834465041
20
-25.00000037252903
30
0
40
0.71291679296768617
210
1.3552527156068808e-20
220
-0
230
1
0
CIRCLE
5
120
100
AcDbEntity
8
0
100
AcDbCircle
10
-56.038530210383229
20
-27.516411501895103
30
0
40
0.70000000000000306
210
1.3552527156068805e-20
220
-0
230
1
0
CIRCLE
5
121
100
AcDbEntity
8
0
100
AcDbCircle
10
-71.038529884047975
20
-25.016411501894996
30
0
40
0.70000000000000306
210
1.3552527156068805e-20
220
-0
230
1
0
CIRCLE
5
122
100
AcDbEntity
8
0
100
AcDbCircle
10
-70.838529884048143
20
-49.816411501894976
30
0
40
0.70000000000000306
210
1.3552527156068805e-20
220
-0
230
1
0
LWPOLYLINE
5
123
100
AcDbEntity
8
0
100
AcDbPolyline
90
4
70
1
43
0.0
10
-20.998000476837149
20
-85.000000000191534
10
-70.998898141259716
20
-85.000000000191534
10
-70.998898141259716
20
-60.00000000019152
10
-20.998000476837149
20
-60.00000000019152
0
LINE
5
124
100
AcDbEntity
8
0
100
AcDbLine
10
-20.998000476837145
20
-53.889942998194016
30
0
11
-20.998000476837152
21
-85.000000730156898
31
-8.1864059698609944e-31
0
ENDSEC
0
SECTION
2
OBJECTS
0
DICTIONARY
5
C
100
AcDbDictionary
3
ACAD_GROUP
350
D
3
ACAD_MLINESTYLE
350
17
0
DICTIONARY
5
D
100
AcDbDictionary
0
DICTIONARY
5
1A
330
C
100
AcDbDictionary
0
DICTIONARY
5
17
100
AcDbDictionary
0
ENDSEC
0
EOF
