0
SECTION
2
HEADER
9
$INSUNITS
70
4
9
$ACADVER
1
AC1014
9
$HANDSEED
5
FFFF
0
ENDSEC
0
SECTION
2
TABLES
0
TABLE
2
VPORT
5
8
100
AcDbSymbolTable
0
ENDTAB
0
TABLE
2
LTYPE
5
5
100
AcDbSymbolTable
0
LTYPE
5
14
100
AcDbSymbolTableRecord
100
AcDbLinetypeTableRecord
2
BYBLOCK
70
0
0
LTYPE
5
15
100
AcDbSymbolTableRecord
100
AcDbLinetypeTableRecord
2
BYLAYER
70
0
0
ENDTAB
0
TABLE
2
LAYER
5
2
100
AcDbSymbolTable
70
2
0
LAYER
5
50
100
AcDbSymbolTableRecord
100
AcDbLayerTableRecord
2
0
70
0
6
CONTINUOUS
0
ENDTAB
0
TABLE
2
STYLE
5
3
100
AcDbSymbolTable
70
1
0
STYLE
5
11
100
AcDbSymbolTableRecord
100
AcDbTextStyleTableRecord
2
STANDARD
70
0
0
ENDTAB
0
TABLE
2
VIEW
5
6
100
AcDbSymbolTable
70
0
0
ENDTAB
0
TABLE
2
UCS
5
7
100
AcDbSymbolTable
70
0
0
ENDTAB
0
TABLE
2
APPID
5
9
100
AcDbSymbolTable
70
2
0
APPID
5
12
100
AcDbSymbolTableRecord
100
AcDbRegAppTableRecord
2
ACAD
70
0
0
ENDTAB
0
TABLE
2
DIMSTYLE
5
A
100
AcDbSymbolTable
70
1
0
ENDTAB
0
TABLE
2
BLOCK_RECORD
5
1
100
AcDbSymbolTable
70
1
0
BLOCK_RECORD
5
1F
100
AcDbSymbolTableRecord
100
AcDbBlockTableRecord
2
*MODEL_SPACE
0
BLOCK_RECORD
5
1B
100
AcDbSymbolTableRecord
100
AcDbBlockTableRecord
2
*PAPER_SPACE
0
ENDTAB
0
ENDSEC
0
SECTION
2
BLOCKS
0
BLOCK
5
20
100
AcDbEntity
100
AcDbBlockBegin
2
*MODEL_SPACE
0
ENDBLK
5
21
100
AcDbEntity
100
AcDbBlockEnd
0
BLOCK
5
1C
100
AcDbEntity
100
AcDbBlockBegin
2
*PAPER_SPACE
0
ENDBLK
5
1D
100
AcDbEntity
100
AcDbBlockEnd
0
ENDSEC
0
SECTION
2
ENTITIES
0
LWPOLYLINE
5
100
100
AcDbEntity
8
0
100
AcDbPolyline
90
21
70
1
43
0.0
10
45.185091378521676
20
-3.0000000001915006
10
45.185091378521676
20
-1.91500149071544e-10
10
50.813004658074021
20
-1.91500149071544e-10
10
50.813004658074014
20
-3.0000000001915006
10
69.185091458110804
20
-3.0000000001915006
10
69.185091458110804
20
-1.91500149071544e-10
10
74.813004737663121
20
-1.91500149071544e-10
10
74.813004737663121
20
-3.0000000001915006
10
93.185091537699932
20
-3.0000000001915006
10
93.185091537699932
20
-1.91500149071544e-10
10
95.99889814125973
20
-1.91500149071544e-10
10
95.99889814125973
20
-60.00000000019152
10
-0.0015494587402970831
20
-60.00000000019152
10
-0.0015494587402970831
20
-1.91500149071544e-10
10
-0.0011021770413827126
20
-1.91500149071544e-10
10
2.8130044988957712
20
-1.91500149071544e-10
10
2.8130044988957725
20
-3.0000000001915006
10
21.185091298932566
20
-3.0000000001915006
10
21.185091298932566
20
-1.91500149071544e-10
10
26.813004578484893
20
-1.91500149071544e-10
10
26.813004578484893
20
-3.0000000001915006
0
LINE
5
101
100
AcDbEntity
8
0
100
AcDbLine
10
4.9985482523332117
20
-24.200407160584554
30
0
11
-0.001451731085715946
21
-24.199999962023803
31
6.7762635780344027e-20
0
LINE
5
102
100
AcDbEntity
8
0
100
AcDbLine
10
-0.0014517310857153909
20
-24.199999962023824
30
0
11
4.9985482523332117
21
-24.200407160584575
31
0
0
LINE
5
103
100
AcDbEntity
8
0
100
AcDbLine
10
4.9997046962457405
20
-10.000407207674815
30
0
11
7.9999490054335514
21
-7.0006515367599098
31
-3.3881317890172014e-20
0
LINE
5
104
100
AcDbEntity
8
0
100
AcDbLine
10
4.9997046962457414
20
-10.000407207674815
30
0
11
7.9999490054335523
21
-7.0006515367599054
31
0
0
LINE
5
105
100
AcDbEntity
8
0
100
AcDbLine
10
27.399948941098987
20
-7.0022314671756192
30
0
11
27.398548178050007
21
-24.202231410136736
31
0
0
LINE
5
106
100
AcDbEntity
8
0
100
AcDbLine
10
27.398548178050007
20
-24.202231410136736
30
0
11
32.398548161468938
21
-24.202638608697487
31
0
0
LINE
5
107
100
AcDbEntity
8
0
100
AcDbLine
10
32.398548161468938
20
-24.202638608697487
30
0
11
32.398352706159777
21
-26.602638600738572
31
0
0
LINE
5
108
100
AcDbEntity
8
0
100
AcDbLine
10
32.398352706159777
20
-26.602638600738572
30
0
11
27.398352722740849
21
-26.602231402177825
31
0
0
LINE
5
109
100
AcDbEntity
8
0
100
AcDbLine
10
27.398352722740849
20
-26.602231402177825
30
0
11
27.39799438800739
21
-31.002231387586484
31
0
0
LINE
5
110
100
AcDbEntity
8
0
100
AcDbLine
10
27.39799438800739
20
-31.002231387586484
30
0
11
4.9979944622905901
21
-31.000407138034323
31
0
0
LINE
5
111
100
AcDbEntity
8
0
100
AcDbLine
10
4.9979944622905901
20
-31.000407138034323
30
0
11
4.9983527970240518
21
-26.60040715262566
31
0
0
LINE
5
112
100
AcDbEntity
8
0
100
AcDbLine
10
4.9983527970240518
20
-26.60040715262566
30
0
11
-0.0016471863948752663
21
-26.599999954064913
31
0
0
LINE
5
113
100
AcDbEntity
8
0
100
AcDbLine
10
4.9985482523332117
20
-24.200407160584554
30
0
11
4.9997046962457405
21
-10.000407207674815
31
0
0
LINE
5
114
100
AcDbEntity
8
0
100
AcDbLine
10
7.9999490054335523
20
-7.0006515367599054
30
0
11
27.399948941098987
21
-7.0022314671756192
31
0
0
LINE
5
115
100
AcDbEntity
8
0
100
AcDbLine
10
27.399948941098987
20
-7.0022314671756192
30
0
11
27.399948941098987
21
-5.5022314671756192
31
0
0
LINE
5
116
100
AcDbEntity
8
0
100
AcDbLine
10
27.399948941098987
20
-5.5022314671756192
30
0
11
7.499867559088166
21
-5.5022314671756192
31
0
0
LINE
5
117
100
AcDbEntity
8
0
100
AcDbLine
10
7.499867559088166
20
-5.5022314671756192
30
0
11
3.0009590986390231
21
-10.000407207674815
31
0
0
LINE
5
118
100
AcDbEntity
8
0
100
AcDbLine
10
-0.0014517310857172761
20
-24.199999962023824
30
-2.2204460492503131e-15
11
-0.0015494587402970831
21
-22.69999996520739
31
-2.2204460492503131e-15
0
LINE
5
119
100
AcDbEntity
8
0
100
AcDbLine
10
3.0009590986390231
20
-22.69999996520739
30
-2.2204460492503131e-15
11
3.0009590986390231
21
-10.000407207674815
31
0
0
LINE
5
120
100
AcDbEntity
8
0
100
AcDbLine
10
3.0009590986390231
20
-22.69999996520739
30
-2.2204460492503131e-15
11
-0.0015494587402970831
21
-22.69999996520739
31
-2.2204460492503131e-15
0
LINE
5
121
100
AcDbEntity
8
0
100
AcDbLine
10
32.398548161468938
20
-24.202638608697487
30
2.2204460492503131e-15
11
32.398670321037159
21
-22.702638613671805
31
2.2204460492503131e-15
0
LINE
5
122
100
AcDbEntity
8
0
100
AcDbLine
10
32.398670321037159
20
-22.702638613671805
30
2.2204460492503131e-15
11
28.898670332643906
21
-22.702353574679282
31
2.2204460492503131e-15
0
LINE
5
123
100
AcDbEntity
8
0
100
AcDbLine
10
28.898670332643906
20
-22.702353574679282
30
2.2204460492503131e-15
11
28.898670332643906
21
-5.5022314671756192
31
2.2204460492503131e-15
0
LINE
5
124
100
AcDbEntity
8
0
100
AcDbLine
10
28.898670332643906
20
-5.5022314671756192
30
2.2204460492503131e-15
11
27.399948941098987
21
-5.5022314671756192
31
0
0
LINE
5
125
100
AcDbEntity
8
0
100
AcDbLine
10
3.0009590986390231
20
-22.69999996520739
30
-2.2204460492503131e-15
11
4.998670431814042
21
-22.700162658243862
31
-2.2204460492503131e-15
0
LINE
5
126
100
AcDbEntity
8
0
100
AcDbLine
10
28.898670332643906
20
-22.702353574679282
30
2.2204460492503131e-15
11
27.398670337618235
21
-22.702231415111061
31
2.2204460492503131e-15
0
ENDSEC
0
SECTION
2
OBJECTS
0
DICTIONARY
5
C
100
AcDbDictionary
3
ACAD_GROUP
350
D
3
ACAD_MLINESTYLE
350
17
0
DICTIONARY
5
D
100
AcDbDictionary
0
DICTIONARY
5
1A
330
C
100
AcDbDictionary
0
DICTIONARY
5
17
100
AcDbDictionary
0
ENDSEC
0
EOF
