0
SECTION
2
HEADER
9
$INSUNITS
70
4
9
$ACADVER
1
AC1014
9
$HANDSEED
5
FFFF
0
ENDSEC
0
SECTION
2
TABLES
0
TABLE
2
VPORT
5
8
100
AcDbSymbolTable
0
ENDTAB
0
TABLE
2
LTYPE
5
5
100
AcDbSymbolTable
0
LTYPE
5
14
100
AcDbSymbolTableRecord
100
AcDbLinetypeTableRecord
2
BYBLOCK
70
0
0
LTYPE
5
15
100
AcDbSymbolTableRecord
100
AcDbLinetypeTableRecord
2
BYLAYER
70
0
0
ENDTAB
0
TABLE
2
LAYER
5
2
100
AcDbSymbolTable
70
2
0
LAYER
5
50
100
AcDbSymbolTableRecord
100
AcDbLayerTableRecord
2
0
70
0
6
CONTINUOUS
0
ENDTAB
0
TABLE
2
STYLE
5
3
100
AcDbSymbolTable
70
1
0
STYLE
5
11
100
AcDbSymbolTableRecord
100
AcDbTextStyleTableRecord
2
STANDARD
70
0
0
ENDTAB
0
TABLE
2
VIEW
5
6
100
AcDbSymbolTable
70
0
0
ENDTAB
0
TABLE
2
UCS
5
7
100
AcDbSymbolTable
70
0
0
ENDTAB
0
TABLE
2
APPID
5
9
100
AcDbSymbolTable
70
2
0
APPID
5
12
100
AcDbSymbolTableRecord
100
AcDbRegAppTableRecord
2
ACAD
70
0
0
ENDTAB
0
TABLE
2
DIMSTYLE
5
A
100
AcDbSymbolTable
70
1
0
ENDTAB
0
TABLE
2
BLOCK_RECORD
5
1
100
AcDbSymbolTable
70
1
0
BLOCK_RECORD
5
1F
100
AcDbSymbolTableRecord
100
AcDbBlockTableRecord
2
*MODEL_SPACE
0
BLOCK_RECORD
5
1B
100
AcDbSymbolTableRecord
100
AcDbBlockTableRecord
2
*PAPER_SPACE
0
ENDTAB
0
ENDSEC
0
SECTION
2
BLOCKS
0
BLOCK
5
20
100
AcDbEntity
100
AcDbBlockBegin
2
*MODEL_SPACE
0
ENDBLK
5
21
100
AcDbEntity
100
AcDbBlockEnd
0
BLOCK
5
1C
100
AcDbEntity
100
AcDbBlockBegin
2
*PAPER_SPACE
0
ENDBLK
5
1D
100
AcDbEntity
100
AcDbBlockEnd
0
ENDSEC
0
SECTION
2
ENTITIES
0
LWPOLYLINE
5
100
100
AcDbEntity
8
0
100
AcDbPolyline
90
6
70
1
43
0.0
10
-24.000000000024386
20
32.000000476837151
10
-21.000000312924385
20
32.000000476837151
10
-21.000000312924385
20
46.999999998637151
10
7.2736615473245393e-15
20
46.999999998617724
10
0
20
6.5000000968575105
10
-23.999999999933866
20
6.5000000968575078
0
CIRCLE
5
101
100
AcDbEntity
8
0
100
AcDbCircle
10
-11.930852558371265
20
38.363128096824269
30
0
40
0.8115
210
-3.5032461608120427e-46
220
2.3336307291979281e-61
230
1
0
LINE
5
102
100
AcDbEntity
8
0
100
AcDbLine
10
-24.000000357627869
20
47.000000700354576
30
0
11
-21.000000312924385
21
47.000000700354576
31
0
0
LINE
5
103
100
AcDbEntity
8
0
100
AcDbLine
10
-21.000000312924385
20
47.000000700354576
30
0
11
-21.000000312924385
21
32.000000476837151
31
0
0
LINE
5
104
100
AcDbEntity
8
0
100
AcDbLine
10
-21.000000312924385
20
32.000000476837151
30
0
11
-24.000000357627869
21
32.000000476837151
31
0
0
LINE
5
105
100
AcDbEntity
8
0
100
AcDbLine
10
-24.000000357627869
20
32.000000476837151
30
0
11
-24.000000357627869
21
47.000000700354576
31
0
0
LINE
5
106
100
AcDbEntity
8
0
100
AcDbLine
10
-11.999999999966933
20
6.5000000968575087
30
1.3059994518727656e-60
11
-11.000000163912773
21
6.5000000968575087
31
1.4412567311873302e-60
0
LINE
5
107
100
AcDbEntity
8
0
100
AcDbLine
10
-11.000000163912773
20
22.000000327825546
30
1.4412567311873302e-60
11
-13.000000193715096
21
22.000000327825546
31
1.4412567311873302e-60
0
LINE
5
108
100
AcDbEntity
8
0
100
AcDbLine
10
-13.000000193715096
20
22.000000327825546
30
1.4412567311873302e-60
11
-13.000000193715094
21
6.5000000968575087
31
1.4412567311873302e-60
0
LINE
5
109
100
AcDbEntity
8
0
100
AcDbLine
10
-11.000000163912773
20
6.5000000968575087
30
1.4412567311873302e-60
11
-11.000000163912773
21
22.000000327825546
31
1.4412567311873302e-60
0
LINE
5
110
100
AcDbEntity
8
0
100
AcDbLine
10
-21.000000312924385
20
47.000000700354576
30
0
11
-18.500000000024382
21
47.000000700354576
31
0
0
LINE
5
111
100
AcDbEntity
8
0
100
AcDbLine
10
-18.500000000024382
20
47.000000700354576
30
0
11
-18.500000000024382
21
32.000000476837158
31
0
0
LINE
5
112
100
AcDbEntity
8
0
100
AcDbLine
10
-18.500000000024382
20
32.000000476837158
30
0
11
-21.000000312924385
21
32.000000476837158
31
0
0
LINE
5
113
100
AcDbEntity
8
0
100
AcDbLine
10
-21.000000312924385
20
32.000000476837158
30
0
11
-21.000000312924385
21
47.000000700354576
31
0
0
LINE
5
114
100
AcDbEntity
8
0
100
AcDbLine
10
-18.500000000024382
20
39.500000588595867
30
0
11
-21.000000312924385
21
39.500000588595867
31
0
0
LINE
5
115
100
AcDbEntity
8
0
100
AcDbLine
10
-21.000000312924385
20
39.500000588595867
30
0
11
-24.000000357627869
21
39.500000588595867
31
0
0
LINE
5
116
100
AcDbEntity
8
0
100
AcDbLine
10
-24.000000357627869
20
47.000000700354576
30
0
11
-21.000000312924385
21
47.000000700354576
31
0
0
LINE
5
117
100
AcDbEntity
8
0
100
AcDbLine
10
-21.000000312924385
20
47.000000700354576
30
0
11
-21.000000312924385
21
46.000000685453415
31
0
0
LINE
5
118
100
AcDbEntity
8
0
100
AcDbLine
10
-21.000000312924385
20
46.000000685453415
30
0
11
-24.000000357627869
21
46.000000685453415
31
0
0
LINE
5
119
100
AcDbEntity
8
0
100
AcDbLine
10
-24.000000357627869
20
46.000000685453415
30
0
11
-24.000000357627869
21
47.000000700354576
31
0
0
LINE
5
120
100
AcDbEntity
8
0
100
AcDbLine
10
-24.000000357627869
20
46.000000685453415
30
0
11
-21.000000312924385
21
46.000000685453415
31
0
0
LINE
5
121
100
AcDbEntity
8
0
100
AcDbLine
10
-21.000000312924385
20
46.000000685453415
30
0
11
-21.000000312924385
21
44.000000655651093
31
0
0
LINE
5
122
100
AcDbEntity
8
0
100
AcDbLine
10
-21.000000312924385
20
44.000000655651093
30
0
11
-24.000000357627869
21
44.000000655651093
31
0
0
LINE
5
123
100
AcDbEntity
8
0
100
AcDbLine
10
-24.000000357627869
20
44.000000655651093
30
0
11
-24.000000357627869
21
46.000000685453415
31
0
0
LINE
5
124
100
AcDbEntity
8
0
100
AcDbLine
10
-21.000000312924385
20
47.000000700354576
30
0
11
-18.500000000024382
21
47.000000700354576
31
0
0
LINE
5
125
100
AcDbEntity
8
0
100
AcDbLine
10
-18.500000000024382
20
47.000000700354576
30
0
11
-18.500000000024382
21
46.000000685453415
31
0
0
LINE
5
126
100
AcDbEntity
8
0
100
AcDbLine
10
-18.500000000024382
20
46.000000685453415
30
0
11
-21.000000312924385
21
46.000000685453415
31
0
0
LINE
5
127
100
AcDbEntity
8
0
100
AcDbLine
10
-21.000000312924385
20
46.000000685453415
30
0
11
-21.000000312924385
21
47.000000700354576
31
0
0
LINE
5
128
100
AcDbEntity
8
0
100
AcDbLine
10
-24.000000357627869
20
32.000000476837151
30
0
11
-21.000000312924385
21
32.000000476837151
31
0
0
LINE
5
129
100
AcDbEntity
8
0
100
AcDbLine
10
-21.000000312924385
20
32.000000476837151
30
0
11
-21.000000312924385
21
34.000000506639481
31
0
0
LINE
5
130
100
AcDbEntity
8
0
100
AcDbLine
10
-21.000000312924385
20
34.000000506639481
30
0
11
-24.000000357627869
21
34.000000506639481
31
0
0
LINE
5
131
100
AcDbEntity
8
0
100
AcDbLine
10
-24.000000357627869
20
34.000000506639481
30
0
11
-24.000000357627869
21
32.000000476837151
31
0
0
LWPOLYLINE
5
132
100
AcDbEntity
8
0
100
AcDbPolyline
90
4
70
1
43
0.0
10
-18.500000000024382
20
39.500000588595867
10
-21.000000312924385
20
39.500000588595867
10
-21.000000312924385
20
37.500000558793545
10
-18.500000000024382
20
37.500000558793545
0
LINE
5
133
100
AcDbEntity
8
0
100
AcDbLine
10
-21.000000312924385
20
32.000000476837151
30
0
11
-13.000000193715096
21
22.000000327825546
31
1.4412567311873302e-60
0
LINE
5
134
100
AcDbEntity
8
0
100
AcDbLine
10
-18.500000000024382
20
32.000000476837158
30
0
11
-11.000000163912773
21
22.625000337138776
31
1.3511781854881219e-60
0
LINE
5
135
100
AcDbEntity
8
0
100
AcDbLine
10
-11.000000163912773
20
22.625000337138776
30
1.3511781854881219e-60
11
-11.000000163912773
21
22.000000327825546
31
1.4412567311873302e-60
0
LINE
5
136
100
AcDbEntity
8
0
100
AcDbLine
10
-21.000000312924385
20
46.000000685453415
30
0
11
-18.500000000024382
21
46.000000685453415
31
0
0
LINE
5
137
100
AcDbEntity
8
0
100
AcDbLine
10
-18.500000000024382
20
46.000000685453415
30
0
11
-18.500000000024382
21
44.000000655651093
31
0
0
LINE
5
138
100
AcDbEntity
8
0
100
AcDbLine
10
-18.500000000024382
20
44.000000655651093
30
0
11
-21.000000312924385
21
44.000000655651093
31
0
0
LINE
5
139
100
AcDbEntity
8
0
100
AcDbLine
10
-21.000000312924385
20
44.000000655651093
30
0
11
-21.000000312924385
21
46.000000685453415
31
0
0
LINE
5
140
100
AcDbEntity
8
0
100
AcDbLine
10
-13.000000193715096
20
22.625000337138776
30
1.4412567311873302e-60
11
-5.4999999999999964
21
32.000000476837158
31
0
0
LINE
5
141
100
AcDbEntity
8
0
100
AcDbLine
10
-13.000000193715096
20
22.625000337138776
30
1.4412567311873302e-60
11
-13.000000193715096
21
22.000000327825546
31
1.4412567311873302e-60
0
LINE
5
142
100
AcDbEntity
8
0
100
AcDbLine
10
-24.000000000024386
20
32.000000476837151
30
-3.2649982891515526e-61
11
0
21
32.000000476837151
31
-3.2649982891515526e-61
0
LINE
5
143
100
AcDbEntity
8
0
100
AcDbLine
10
-11.000000163912773
20
22.000000327825546
30
1.4412567311873302e-60
11
-2.9999999572833351
21
32.000000476837151
31
-9.6083782079155221e-62
0
LINE
5
144
100
AcDbEntity
8
0
100
AcDbLine
10
-11.999999999481272
20
-13.682811925286277
30
-2.2204460492503131e-15
11
-12.000000000452616
21
15.682811923712489
31
-3.0505349402095958e-15
0
LINE
5
145
100
AcDbEntity
8
0
100
AcDbLine
10
-5.5000000019603146
20
32.000000477267164
30
0
11
-2.9999996890603109
21
32.00000047743255
31
0
0
LINE
5
146
100
AcDbEntity
8
0
100
AcDbLine
10
-5.5000000023241675
20
37.500000559223551
30
0
11
-2.9999996894241643
21
37.500000559388937
31
0
0
LINE
5
147
100
AcDbEntity
8
0
100
AcDbLine
10
-5.4999999999999964
20
32.000000476837158
30
0
11
-5.5000000023241675
21
37.500000559223551
31
0
0
LINE
5
148
100
AcDbEntity
8
0
100
AcDbLine
10
-2.9999996890603109
20
32.00000047743255
30
0
11
-2.9999996894241643
21
37.500000559388937
31
0
0
ENDSEC
0
SECTION
2
OBJECTS
0
DICTIONARY
5
C
100
AcDbDictionary
3
ACAD_GROUP
350
D
3
ACAD_MLINESTYLE
350
17
0
DICTIONARY
5
D
100
AcDbDictionary
0
DICTIONARY
5
1A
330
C
100
AcDbDictionary
0
DICTIONARY
5
17
100
AcDbDictionary
0
ENDSEC
0
EOF
