0
SECTION
2
HEADER
9
$INSUNITS
70
4
9
$ACADVER
1
AC1014
9
$HANDSEED
5
FFFF
0
ENDSEC
0
SECTION
2
TABLES
0
TABLE
2
VPORT
5
8
100
AcDbSymbolTable
0
ENDTAB
0
TABLE
2
LTYPE
5
5
100
AcDbSymbolTable
0
LTYPE
5
14
100
AcDbSymbolTableRecord
100
AcDbLinetypeTableRecord
2
BYBLOCK
70
0
0
LTYPE
5
15
100
AcDbSymbolTableRecord
100
AcDbLinetypeTableRecord
2
BYLAYER
70
0
0
ENDTAB
0
TABLE
2
LAYER
5
2
100
AcDbSymbolTable
70
2
0
LAYER
5
50
100
AcDbSymbolTableRecord
100
AcDbLayerTableRecord
2
0
70
0
6
CONTINUOUS
0
ENDTAB
0
TABLE
2
STYLE
5
3
100
AcDbSymbolTable
70
1
0
STYLE
5
11
100
AcDbSymbolTableRecord
100
AcDbTextStyleTableRecord
2
STANDARD
70
0
0
ENDTAB
0
TABLE
2
VIEW
5
6
100
AcDbSymbolTable
70
0
0
ENDTAB
0
TABLE
2
UCS
5
7
100
AcDbSymbolTable
70
0
0
ENDTAB
0
TABLE
2
APPID
5
9
100
AcDbSymbolTable
70
2
0
APPID
5
12
100
AcDbSymbolTableRecord
100
AcDbRegAppTableRecord
2
ACAD
70
0
0
ENDTAB
0
TABLE
2
DIMSTYLE
5
A
100
AcDbSymbolTable
70
1
0
ENDTAB
0
TABLE
2
BLOCK_RECORD
5
1
100
AcDbSymbolTable
70
1
0
BLOCK_RECORD
5
1F
100
AcDbSymbolTableRecord
100
AcDbBlockTableRecord
2
*MODEL_SPACE
0
BLOCK_RECORD
5
1B
100
AcDbSymbolTableRecord
100
AcDbBlockTableRecord
2
*PAPER_SPACE
0
ENDTAB
0
ENDSEC
0
SECTION
2
BLOCKS
0
BLOCK
5
20
100
AcDbEntity
100
AcDbBlockBegin
2
*MODEL_SPACE
0
ENDBLK
5
21
100
AcDbEntity
100
AcDbBlockEnd
0
BLOCK
5
1C
100
AcDbEntity
100
AcDbBlockBegin
2
*PAPER_SPACE
0
ENDBLK
5
1D
100
AcDbEntity
100
AcDbBlockEnd
0
ENDSEC
0
SECTION
2
ENTITIES
0
LINE
5
100
100
AcDbEntity
8
0
100
AcDbLine
10
12.000000000000018
20
5.0000000000000711
30
0
11
-11.999999999999995
21
5.0000000000000711
31
0
0
LINE
5
101
100
AcDbEntity
8
0
100
AcDbLine
10
-11.999999999999995
20
5.0000000000000711
30
0
11
-12
21
-5.000000000000119
31
0
0
LINE
5
102
100
AcDbEntity
8
0
100
AcDbLine
10
-12
20
-5.000000000000119
30
0
11
12.000000000000002
21
-5.000000000000119
31
0
0
LINE
5
103
100
AcDbEntity
8
0
100
AcDbLine
10
12.000000000000002
20
-5.000000000000119
30
0
11
12.000000000000018
21
5.0000000000000711
31
0
0
LINE
5
104
100
AcDbEntity
8
0
100
AcDbLine
10
12.000000000000018
20
5.0000000000000711
30
0
11
-12
21
-5.000000000000119
31
0
0
LINE
5
105
100
AcDbEntity
8
0
100
AcDbLine
10
-11.999999999999995
20
5.0000000000000711
30
0
11
12.000000000000002
21
-5.000000000000119
31
0
0
CIRCLE
5
106
100
AcDbEntity
8
0
100
AcDbCircle
10
12.000000000000002
20
1.5469316958844533e-15
30
0
40
5
210
0
220
0
230
1
0
CIRCLE
5
107
100
AcDbEntity
8
0
100
AcDbCircle
10
-19.499999999999996
20
-1.180410181222868e-13
30
0
40
10
210
0
220
0
230
1
0
CIRCLE
5
108
100
AcDbEntity
8
0
100
AcDbCircle
10
13.658312395177703
20
2.5000000000000004
30
0
40
0.75000000000000011
210
0
220
0
230
1
0
LINE
5
109
100
AcDbEntity
8
0
100
AcDbLine
10
-11.999999999999995
20
5.0000000000000711
30
0
11
12.000000000000011
21
5.0000000000000728
31
0
0
LINE
5
110
100
AcDbEntity
8
0
100
AcDbLine
10
12.000000000000011
20
5.0000000000000728
30
0
11
12.000000000000011
21
6.0000000000000728
31
0
0
LINE
5
111
100
AcDbEntity
8
0
100
AcDbLine
10
12.000000000000011
20
6.0000000000000728
30
0
11
-11.999999999999996
21
6.0000000000000719
31
0
0
LINE
5
112
100
AcDbEntity
8
0
100
AcDbLine
10
-11.999999999999996
20
6.0000000000000719
30
0
11
-11.999999999999995
21
5.0000000000000711
31
0
0
CIRCLE
5
113
100
AcDbEntity
8
0
100
AcDbCircle
10
-19.499999999999996
20
-1.180410181222868e-13
30
0
40
4.9999999999999991
210
0
220
0
230
1
0
LINE
5
114
100
AcDbEntity
8
0
100
AcDbLine
10
7.0000000000003855
20
1.5469213345692473e-15
30
0
11
7.0000000000008988
21
5.0000000000000719
31
0
0
LINE
5
115
100
AcDbEntity
8
0
100
AcDbLine
10
7.0000000000003855
20
1.5469213345692473e-15
30
0
11
6.9999999999970166
21
-5.0000000000001172
31
0
0
CIRCLE
5
116
100
AcDbEntity
8
0
100
AcDbCircle
10
12.000000000000009
20
1.5471565001368148e-15
30
0
40
0.85000000000000031
210
0
220
0
230
1
0
LWPOLYLINE
5
117
100
AcDbEntity
8
0
100
AcDbPolyline
90
4
70
1
43
0.0
10
2.5000000000049938
20
-1.7500000000146048
10
-6.4999999999999982
20
-1.7500000000212976
42
-0.99999999999999989
10
-6.4999999999999964
20
1.7500000000000735
10
2.4999999999963416
20
1.7499999999983762
42
-0.99999999999999989
0
LINE
5
118
100
AcDbEntity
8
0
100
AcDbLine
10
-6.4999999999999982
20
-1.0612146505480111e-11
30
0
11
2.5000000000006679
21
-8.1142401122637103e-12
31
0
0
CIRCLE
5
119
100
AcDbEntity
8
0
100
AcDbCircle
10
13.658312395177703
20
2.5000000000000004
30
0
40
1.5000000000000002
210
0
220
0
230
1
0
SPLINE
5
120
100
AcDbEntity
8
0
100
AcDbSpline
70
4
71
5
72
31
73
25
74
0
42
0.000000001
43
0.0000000001
44
0.0000000001
40
0
40
0
40
0
40
0
40
0
40
0
40
0.050000000000000003
40
0.10000000000000001
40
0.15000000000000002
40
0.20000000000000001
40
0.25
40
0.29999999999999999
40
0.34999999999999998
40
0.39999999999999997
40
0.44999999999999996
40
0.49999999999999994
40
0.54999999999999993
40
0.59999999999999998
40
0.65000000000000002
40
0.70000000000000007
40
0.75000000000000011
40
0.80000000000000016
40
0.8500000000000002
40
0.90000000000000024
40
0.95000000000000029
40
1
40
1
40
1
40
1
40
1
40
1
41
1
41
1
41
1
41
1
41
1
41
1
41
1
41
1
41
1
41
1
41
1
41
1
41
1
41
1
41
1
41
1
41
1
41
1
41
1
41
1
41
1
41
1
41
1
41
1
41
1
10
13.265000000000001
20
4.8373313924106167
30
0
10
13.14591357885252
20
4.8041195659845517
30
0
10
12.916958076153929
20
4.7317127687962568
30
0
10
12.601177082283513
20
4.6051523976737831
30
0
10
12.235663878501734
20
4.4003647829161316
30
0
10
11.871537697517001
20
4.0850295162044929
30
0
10
11.598448204891875
20
3.7141461379229157
30
0
10
11.411154182430508
20
3.2963427837008363
30
0
10
11.298910857993929
20
2.8477410581094542
30
0
10
11.244229629755363
20
2.3923260474252732
30
0
10
11.225462331356395
20
1.9491451490759057
30
0
10
11.218991567973845
20
1.5223001169611594
30
0
10
11.201025272069131
20
1.0874968795364783
30
0
10
11.150462153325247
20
0.58262656533813562
30
0
10
11.057230237884033
20
0.00082447795078258428
30
0
10
10.917742536987159
20
-0.64117075666142431
30
0
10
10.733541011274678
20
-1.3064508678670057
30
0
10
10.508807288523748
20
-1.9521283735022901
30
0
10
10.248466473936906
20
-2.5387201165757349
30
0
10
9.9561055711630946
20
-3.0416143541774026
30
0
10
9.6341763938077012
20
-3.4472737372310491
30
0
10
9.3541684676821752
20
-3.6894734792631341
30
0
10
9.1318521547791338
20
-3.824354608097797
30
0
10
8.9781922268001448
20
-3.8935744172777023
30
0
10
8.8999999999999986
20
-3.9230090491869007
30
0
0
LINE
5
121
100
AcDbEntity
8
0
100
AcDbLine
10
8.8999999999999986
20
-3.9230090491869007
30
0
11
8.9000000000000021
21
-5.0000000000001172
31
0
0
CIRCLE
5
122
100
AcDbEntity
8
0
100
AcDbCircle
10
-19.499999999999996
20
-1.180410181222868e-13
30
0
40
10.500000000000004
210
0
220
0
230
1
0
ENDSEC
0
SECTION
2
OBJECTS
0
DICTIONARY
5
C
100
AcDbDictionary
3
ACAD_GROUP
350
D
3
ACAD_MLINESTYLE
350
17
0
DICTIONARY
5
D
100
AcDbDictionary
0
DICTIONARY
5
1A
330
C
100
AcDbDictionary
0
DICTIONARY
5
17
100
AcDbDictionary
0
ENDSEC
0
EOF
