0
SECTION
2
HEADER
9
$INSUNITS
70
4
9
$ACADVER
1
AC1014
9
$HANDSEED
5
FFFF
0
ENDSEC
0
SECTION
2
TABLES
0
TABLE
2
VPORT
5
8
100
AcDbSymbolTable
0
ENDTAB
0
TABLE
2
LTYPE
5
5
100
AcDbSymbolTable
0
LTYPE
5
14
100
AcDbSymbolTableRecord
100
AcDbLinetypeTableRecord
2
BYBLOCK
70
0
0
LTYPE
5
15
100
AcDbSymbolTableRecord
100
AcDbLinetypeTableRecord
2
BYLAYER
70
0
0
ENDTAB
0
TABLE
2
LAYER
5
2
100
AcDbSymbolTable
70
2
0
LAYER
5
50
100
AcDbSymbolTableRecord
100
AcDbLayerTableRecord
2
0
70
0
6
CONTINUOUS
0
ENDTAB
0
TABLE
2
STYLE
5
3
100
AcDbSymbolTable
70
1
0
STYLE
5
11
100
AcDbSymbolTableRecord
100
AcDbTextStyleTableRecord
2
STANDARD
70
0
0
ENDTAB
0
TABLE
2
VIEW
5
6
100
AcDbSymbolTable
70
0
0
ENDTAB
0
TABLE
2
UCS
5
7
100
AcDbSymbolTable
70
0
0
ENDTAB
0
TABLE
2
APPID
5
9
100
AcDbSymbolTable
70
2
0
APPID
5
12
100
AcDbSymbolTableRecord
100
AcDbRegAppTableRecord
2
ACAD
70
0
0
ENDTAB
0
TABLE
2
DIMSTYLE
5
A
100
AcDbSymbolTable
70
1
0
ENDTAB
0
TABLE
2
BLOCK_RECORD
5
1
100
AcDbSymbolTable
70
1
0
BLOCK_RECORD
5
1F
100
AcDbSymbolTableRecord
100
AcDbBlockTableRecord
2
*MODEL_SPACE
0
BLOCK_RECORD
5
1B
100
AcDbSymbolTableRecord
100
AcDbBlockTableRecord
2
*PAPER_SPACE
0
ENDTAB
0
ENDSEC
0
SECTION
2
BLOCKS
0
BLOCK
5
20
100
AcDbEntity
100
AcDbBlockBegin
2
*MODEL_SPACE
0
ENDBLK
5
21
100
AcDbEntity
100
AcDbBlockEnd
0
BLOCK
5
1C
100
AcDbEntity
100
AcDbBlockBegin
2
*PAPER_SPACE
0
ENDBLK
5
1D
100
AcDbEntity
100
AcDbBlockEnd
0
ENDSEC
0
SECTION
2
ENTITIES
0
LINE
5
100
100
AcDbEntity
8
0
100
AcDbLine
10
15
20
-5
30
0
11
-15
21
-5
31
0
0
LINE
5
101
100
AcDbEntity
8
0
100
AcDbLine
10
-15
20
-5
30
0
11
-15
21
5
31
0
0
LINE
5
102
100
AcDbEntity
8
0
100
AcDbLine
10
-15
20
5
30
0
11
15
21
5
31
0
0
LINE
5
103
100
AcDbEntity
8
0
100
AcDbLine
10
15
20
5
30
0
11
15
21
-5
31
0
0
LINE
5
104
100
AcDbEntity
8
0
100
AcDbLine
10
15
20
-5
30
0
11
-15
21
5
31
0
0
LINE
5
105
100
AcDbEntity
8
0
100
AcDbLine
10
-15
20
-5
30
0
11
15
21
5
31
0
0
LINE
5
106
100
AcDbEntity
8
0
100
AcDbLine
10
15
20
5
30
0
11
15
21
6
31
0
0
LINE
5
107
100
AcDbEntity
8
0
100
AcDbLine
10
-15
20
5
30
0
11
-15
21
6
31
0
0
LINE
5
108
100
AcDbEntity
8
0
100
AcDbLine
10
-15
20
6
30
0
11
15
21
6
31
0
0
CIRCLE
5
109
100
AcDbEntity
8
0
100
AcDbCircle
10
15
20
0
30
0
40
5
210
0
220
0
230
1
0
CIRCLE
5
110
100
AcDbEntity
8
0
100
AcDbCircle
10
-15
20
0
30
0
40
5
210
0
220
0
230
1
0
CIRCLE
5
111
100
AcDbEntity
8
0
100
AcDbCircle
10
17.598076211353316
20
-1.5000000000000002
30
0
40
0.74999999999999933
210
0
220
0
230
1
0
LWPOLYLINE
5
112
100
AcDbEntity
8
0
100
AcDbPolyline
90
4
70
1
43
0.0
10
18.247595264191649
20
-1.8750000000000004
42
-0.57735026918962584
10
11.752404735808353
20
-1.8750000000000004
42
-0.99999999999999989
10
13.051442841485013
20
-1.125
42
0.57735026918962584
10
16.948557158514987
20
-1.125
42
-0.99999999999999989
0
ARC
5
113
100
AcDbEntity
8
0
100
AcDbCircle
10
15
20
0
30
0
40
3.0000000000000018
210
0
220
0
230
1
100
AcDbArc
50
209.99999999999997
51
330.00000000000006
0
CIRCLE
5
114
100
AcDbEntity
8
0
100
AcDbCircle
10
-15
20
0
30
0
40
1.0000000000000007
210
0
220
0
230
1
0
CIRCLE
5
115
100
AcDbEntity
8
0
100
AcDbCircle
10
-13.341687604822301
20
2.5
30
0
40
0.75000000000000011
210
0
220
0
230
1
0
CIRCLE
5
116
100
AcDbEntity
8
0
100
AcDbCircle
10
15
20
0
30
0
40
0.85000000000000009
210
0
220
0
230
1
0
LINE
5
117
100
AcDbEntity
8
0
100
AcDbLine
10
10
20
0
30
0
11
10
21
5.000000074505806
31
0
0
LINE
5
118
100
AcDbEntity
8
0
100
AcDbLine
10
10
20
0
30
0
11
10
21
-5.000000074505806
31
0
0
LINE
5
119
100
AcDbEntity
8
0
100
AcDbLine
10
-10
20
0
30
0
11
-10
21
5.000000074505806
31
0
0
LINE
5
120
100
AcDbEntity
8
0
100
AcDbLine
10
-10
20
0
30
0
11
-10
21
-5.000000074505806
31
0
0
CIRCLE
5
121
100
AcDbEntity
8
0
100
AcDbCircle
10
-13.341687604822301
20
2.5
30
0
40
1.5000000000000009
210
0
220
0
230
1
0
CIRCLE
5
122
100
AcDbEntity
8
0
100
AcDbCircle
10
17.598076211353316
20
-1.5000000000000002
30
0
40
1.5
210
0
220
0
230
1
0
SPLINE
5
123
100
AcDbEntity
8
0
100
AcDbSpline
70
4
71
5
72
26
73
20
74
0
42
0.000000001
43
0.0000000001
44
0.0000000001
40
0
40
0
40
0
40
0
40
0
40
0
40
0.066666666666666666
40
0.13333333333333333
40
0.20000000000000001
40
0.26666666666666666
40
0.33333333333333331
40
0.39999999999999997
40
0.46666666666666662
40
0.53333333333333333
40
0.59999999999999998
40
0.66666666666666663
40
0.73333333333333328
40
0.79999999999999993
40
0.86666666666666659
40
0.93333333333333324
40
1
40
1
40
1
40
1
40
1
40
1
41
1
41
1
41
1
41
1
41
1
41
1
41
1
41
1
41
1
41
1
41
1
41
1
41
1
41
1
41
1
41
1
41
1
41
1
41
1
41
1
10
-13.906239441777625
20
3.8897054448300796
30
0
10
-13.820568904135943
20
3.9303944772135866
30
0
10
-13.594142137473495
20
4.0043596777012196
30
0
10
-13.089373879644901
20
4.0929427282299784
30
0
10
-12.082571343022144
20
4.1670949099830414
30
0
10
-10.282520497356678
20
4.1681498503351531
30
0
10
-7.9902981991789925
20
4.0460106493995269
30
0
10
-5.3641623867230779
20
3.7026970880211083
30
0
10
-2.5883766050646639
20
3.0780572534602419
30
0
10
0.21635170968559436
20
2.2172669325430396
30
0
10
2.9515303395440382
20
1.2110089870774428
30
0
10
5.549958664033845
20
0.18700126119451529
30
0
10
7.9644512829084029
20
-0.71930593551337119
30
0
10
10.16629696639437
20
-1.382463587340252
30
0
10
12.141061376461497
20
-1.714786861731147
30
0
10
13.885488153113048
20
-1.6753895055931429
30
0
10
15.098723809018857
20
-1.3353502615623292
30
0
10
15.908024732254161
20
-0.90749024352385388
30
0
10
16.403157705484457
20
-0.54597540175539905
30
0
10
16.639624015804944
20
-0.34615018791507401
30
0
0
SPLINE
5
124
100
AcDbEntity
8
0
100
AcDbSpline
70
4
71
5
72
26
73
20
74
0
42
0.000000001
43
0.0000000001
44
0.0000000001
40
0
40
0
40
0
40
0
40
0
40
0
40
0.066666666666666666
40
0.13333333333333333
40
0.20000000000000001
40
0.26666666666666666
40
0.33333333333333331
40
0.39999999999999997
40
0.46666666666666662
40
0.53333333333333333
40
0.59999999999999998
40
0.66666666666666663
40
0.73333333333333328
40
0.79999999999999993
40
0.86666666666666659
40
0.93333333333333324
40
1
40
1
40
1
40
1
40
1
40
1
41
1
41
1
41
1
41
1
41
1
41
1
41
1
41
1
41
1
41
1
41
1
41
1
41
1
41
1
41
1
41
1
41
1
41
1
41
1
41
1
10
-13.025243368927107
20
1.0337588719556712
30
0
10
-12.770259805969172
20
1.0828667298890091
30
0
10
-12.235105189100612
20
1.173979018192739
30
0
10
-11.356811218524259
20
1.2893333259502884
30
0
10
-10.033525365495803
20
1.400234868360172
30
0
10
-8.1321736735806454
20
1.4572958747898614
30
0
10
-6.0148303965890291
20
1.4063356732304682
30
0
10
-3.754068496542637
20
1.1956185330224667
30
0
10
-1.4854790815565655
20
0.73959572577447019
30
0
10
0.73626539504387845
20
0.061951947282119543
30
0
10
2.8941680652914821
20
-0.76271778342823404
30
0
10
5.003407365322408
20
-1.6247353561249198
30
0
10
7.0927326744030692
20
-2.4091705570016226
30
0
10
9.1912808074072476
20
-3.0211072340999245
30
0
10
11.316095818934869
20
-3.4071474495809446
30
0
10
13.47673931661728
20
-3.5407051507224594
30
0
10
15.236985330994337
20
-3.4391457670375809
30
0
10
16.575337006638115
20
-3.246285129380972
30
0
10
17.475584341228547
20
-3.0662302024139478
30
0
10
17.927711409588539
20
-2.9633320320707988
30
0
0
ENDSEC
0
SECTION
2
OBJECTS
0
DICTIONARY
5
C
100
AcDbDictionary
3
ACAD_GROUP
350
D
3
ACAD_MLINESTYLE
350
17
0
DICTIONARY
5
D
100
AcDbDictionary
0
DICTIONARY
5
1A
330
C
100
AcDbDictionary
0
DICTIONARY
5
17
100
AcDbDictionary
0
ENDSEC
0
EOF
