0
SECTION
2
HEADER
9
$INSUNITS
70
4
9
$ACADVER
1
AC1014
9
$HANDSEED
5
FFFF
0
ENDSEC
0
SECTION
2
TABLES
0
TABLE
2
VPORT
5
8
100
AcDbSymbolTable
0
ENDTAB
0
TABLE
2
LTYPE
5
5
100
AcDbSymbolTable
0
LTYPE
5
14
100
AcDbSymbolTableRecord
100
AcDbLinetypeTableRecord
2
BYBLOCK
70
0
0
LTYPE
5
15
100
AcDbSymbolTableRecord
100
AcDbLinetypeTableRecord
2
BYLAYER
70
0
0
ENDTAB
0
TABLE
2
LAYER
5
2
100
AcDbSymbolTable
70
2
0
LAYER
5
50
100
AcDbSymbolTableRecord
100
AcDbLayerTableRecord
2
0
70
0
6
CONTINUOUS
0
ENDTAB
0
TABLE
2
STYLE
5
3
100
AcDbSymbolTable
70
1
0
STYLE
5
11
100
AcDbSymbolTableRecord
100
AcDbTextStyleTableRecord
2
STANDARD
70
0
0
ENDTAB
0
TABLE
2
VIEW
5
6
100
AcDbSymbolTable
70
0
0
ENDTAB
0
TABLE
2
UCS
5
7
100
AcDbSymbolTable
70
0
0
ENDTAB
0
TABLE
2
APPID
5
9
100
AcDbSymbolTable
70
2
0
APPID
5
12
100
AcDbSymbolTableRecord
100
AcDbRegAppTableRecord
2
ACAD
70
0
0
ENDTAB
0
TABLE
2
DIMSTYLE
5
A
100
AcDbSymbolTable
70
1
0
ENDTAB
0
TABLE
2
BLOCK_RECORD
5
1
100
AcDbSymbolTable
70
1
0
BLOCK_RECORD
5
1F
100
AcDbSymbolTableRecord
100
AcDbBlockTableRecord
2
*MODEL_SPACE
0
BLOCK_RECORD
5
1B
100
AcDbSymbolTableRecord
100
AcDbBlockTableRecord
2
*PAPER_SPACE
0
ENDTAB
0
ENDSEC
0
SECTION
2
BLOCKS
0
BLOCK
5
20
100
AcDbEntity
100
AcDbBlockBegin
2
*MODEL_SPACE
0
ENDBLK
5
21
100
AcDbEntity
100
AcDbBlockEnd
0
BLOCK
5
1C
100
AcDbEntity
100
AcDbBlockBegin
2
*PAPER_SPACE
0
ENDBLK
5
1D
100
AcDbEntity
100
AcDbBlockEnd
0
ENDSEC
0
SECTION
2
ENTITIES
0
CIRCLE
5
100
100
AcDbEntity
8
0
100
AcDbCircle
10
0
20
0
30
0
40
1
210
0
220
0
230
1
0
CIRCLE
5
101
100
AcDbEntity
8
0
100
AcDbCircle
10
0
20
0
30
0
40
2.3999999999999999
210
0
220
0
230
1
0
CIRCLE
5
102
100
AcDbEntity
8
0
100
AcDbCircle
10
0
20
0
30
0
40
2.25
210
0
220
0
230
1
0
LINE
5
103
100
AcDbEntity
8
0
100
AcDbLine
10
0
20
0
30
0
11
0
21
2.3999999999999999
31
0
0
LINE
5
104
100
AcDbEntity
8
0
100
AcDbLine
10
0
20
0
30
0
11
-0.74164078649987364
21
2.2825356391083682
31
0
0
LINE
5
105
100
AcDbEntity
8
0
100
AcDbLine
10
-0.69528823734363177
20
2.1398771616640953
30
0
11
0
21
2.25
31
0
0
LINE
5
106
100
AcDbEntity
8
0
100
AcDbLine
10
-0.34764411867181555
20
2.1949385808320478
30
0
11
-0.37544271609655394
21
2.3704520174283306
31
0
0
LINE
5
107
100
AcDbEntity
8
0
100
AcDbLine
10
0
20
2.3999999999999999
30
0
11
-4
21
2.3999999999999999
31
0
0
LINE
5
108
100
AcDbEntity
8
0
100
AcDbLine
10
-0.3519775463405192
20
2.2222987663390601
30
0
11
-1.5372035550546843
21
2.0345774082907826
31
0
0
SPLINE
5
109
100
AcDbEntity
8
0
100
AcDbSpline
70
4
71
5
72
16
73
10
74
0
42
0.000000001
43
0.0000000001
44
0.0000000001
40
0
40
0
40
0
40
0
40
0
40
0
40
0.20000000000000001
40
0.40000000000000002
40
0.60000000000000009
40
0.80000000000000004
40
1
40
1
40
1
40
1
40
1
40
1
41
1
41
1
41
1
41
1
41
1
41
1
41
1
41
1
41
1
41
1
10
0
20
2.3999999999999999
30
0
10
-0.019471544317895582
20
2.3999999999999999
30
0
10
-0.055771857622556514
20
2.3967876054032251
30
0
10
-0.10230215106243731
20
2.3823415820342047
30
0
10
-0.1515677767888137
20
2.3474187221207914
30
0
10
-0.20520797608891794
20
2.2930223717782212
30
0
10
-0.25338600869098399
20
2.2539872523027644
30
0
10
-0.29837479417020435
20
2.2337126881775702
30
0
10
-0.33328885003844699
20
2.2252587650432591
30
0
10
-0.3519775463405192
20
2.2222987663390601
30
0
0
SPLINE
5
110
100
AcDbEntity
8
0
100
AcDbSpline
70
4
71
5
72
16
73
10
74
0
42
0.000000001
43
0.0000000001
44
0.0000000001
40
0
40
0
40
0
40
0
40
0
40
0
40
0.20000000000000001
40
0.40000000000000002
40
0.60000000000000009
40
0.80000000000000004
40
1
40
1
40
1
40
1
40
1
40
1
41
1
41
1
41
1
41
1
41
1
41
1
41
1
41
1
41
1
41
1
10
0
20
2.3999999999999999
30
0
10
0.019471544317895582
20
2.3999999999999999
30
0
10
0.055771857622556514
20
2.3967876054032251
30
0
10
0.10230215106243731
20
2.3823415820342047
30
0
10
0.1515677767888137
20
2.3474187221207914
30
0
10
0.20520797608891794
20
2.2930223717782212
30
0
10
0.25338600869098399
20
2.2539872523027644
30
0
10
0.29837479417020435
20
2.2337126881775702
30
0
10
0.33328885003844699
20
2.2252587650432591
30
0
10
0.3519775463405192
20
2.2222987663390601
30
0
0
LINE
5
111
100
AcDbEntity
8
0
100
AcDbLine
10
0.3519775463405192
20
2.2222987663390601
30
0
11
0
21
0
31
0
0
LINE
5
112
100
AcDbEntity
8
0
100
AcDbLine
10
-0.3519775463405192
20
2.2222987663390601
30
0
11
0
21
0
31
0
0
CIRCLE
5
113
100
AcDbEntity
8
0
100
AcDbCircle
10
0
20
0
30
0
40
1.625
210
0
220
0
230
1
0
SPLINE
5
114
100
AcDbEntity
8
0
100
AcDbSpline
70
4
71
5
72
16
73
10
74
0
42
0.000000001
43
0.0000000001
44
0.0000000001
40
0
40
0
40
0
40
0
40
0
40
0
40
0.20000000000000001
40
0.40000000000000002
40
0.60000000000000009
40
0.80000000000000004
40
1
40
1
40
1
40
1
40
1
40
1
41
1
41
1
41
1
41
1
41
1
41
1
41
1
41
1
41
1
41
1
10
-0.74164078649987331
20
2.2825356391083678
30
0
10
-0.72312224739400899
20
2.2885526772093225
30
0
10
-0.68760591335901389
20
2.2967149221074239
30
0
10
-0.63888890785572461
20
2.2973545888739415
30
0
10
-0.58124275627387578
20
2.2793648909735924
30
0
10
-0.51341849850631327
20
2.2442066206830087
30
0
10
-0.45553595136246516
20
2.221969846771104
30
0
10
-0.40648388890401832
20
2.2165898897141623
30
0
10
-0.37066624264259151
20
2.219338767634861
30
0
10
-0.35197754634051936
20
2.2222987663390597
30
0
0
ENDSEC
0
SECTION
2
OBJECTS
0
DICTIONARY
5
C
100
AcDbDictionary
3
ACAD_GROUP
350
D
3
ACAD_MLINESTYLE
350
17
0
DICTIONARY
5
D
100
AcDbDictionary
0
DICTIONARY
5
1A
330
C
100
AcDbDictionary
0
DICTIONARY
5
17
100
AcDbDictionary
0
ENDSEC
0
EOF
