0
SECTION
2
HEADER
9
$INSUNITS
70
4
9
$ACADVER
1
AC1014
9
$HANDSEED
5
FFFF
0
ENDSEC
0
SECTION
2
TABLES
0
TABLE
2
VPORT
5
8
100
AcDbSymbolTable
0
ENDTAB
0
TABLE
2
LTYPE
5
5
100
AcDbSymbolTable
0
LTYPE
5
14
100
AcDbSymbolTableRecord
100
AcDbLinetypeTableRecord
2
BYBLOCK
70
0
0
LTYPE
5
15
100
AcDbSymbolTableRecord
100
AcDbLinetypeTableRecord
2
BYLAYER
70
0
0
ENDTAB
0
TABLE
2
LAYER
5
2
100
AcDbSymbolTable
70
2
0
LAYER
5
50
100
AcDbSymbolTableRecord
100
AcDbLayerTableRecord
2
0
70
0
6
CONTINUOUS
0
ENDTAB
0
TABLE
2
STYLE
5
3
100
AcDbSymbolTable
70
1
0
STYLE
5
11
100
AcDbSymbolTableRecord
100
AcDbTextStyleTableRecord
2
STANDARD
70
0
0
ENDTAB
0
TABLE
2
VIEW
5
6
100
AcDbSymbolTable
70
0
0
ENDTAB
0
TABLE
2
UCS
5
7
100
AcDbSymbolTable
70
0
0
ENDTAB
0
TABLE
2
APPID
5
9
100
AcDbSymbolTable
70
2
0
APPID
5
12
100
AcDbSymbolTableRecord
100
AcDbRegAppTableRecord
2
ACAD
70
0
0
ENDTAB
0
TABLE
2
DIMSTYLE
5
A
100
AcDbSymbolTable
70
1
0
ENDTAB
0
TABLE
2
BLOCK_RECORD
5
1
100
AcDbSymbolTable
70
1
0
BLOCK_RECORD
5
1F
100
AcDbSymbolTableRecord
100
AcDbBlockTableRecord
2
*MODEL_SPACE
0
BLOCK_RECORD
5
1B
100
AcDbSymbolTableRecord
100
AcDbBlockTableRecord
2
*PAPER_SPACE
0
ENDTAB
0
ENDSEC
0
SECTION
2
BLOCKS
0
BLOCK
5
20
100
AcDbEntity
100
AcDbBlockBegin
2
*MODEL_SPACE
0
ENDBLK
5
21
100
AcDbEntity
100
AcDbBlockEnd
0
BLOCK
5
1C
100
AcDbEntity
100
AcDbBlockBegin
2
*PAPER_SPACE
0
ENDBLK
5
1D
100
AcDbEntity
100
AcDbBlockEnd
0
ENDSEC
0
SECTION
2
ENTITIES
0
LINE
5
100
100
AcDbEntity
8
0
100
AcDbLine
10
13.99999999999949
20
4.9999999999997176
30
0
11
-14.00000000000052
21
4.9999999999997176
31
0
0
LINE
5
101
100
AcDbEntity
8
0
100
AcDbLine
10
-14.00000000000052
20
4.9999999999997176
30
0
11
-14.000000000000526
21
-5.000000000000286
31
0
0
LINE
5
102
100
AcDbEntity
8
0
100
AcDbLine
10
-14.000000000000526
20
-5.000000000000286
30
0
11
13.999999999999478
21
-5.000000000000286
31
0
0
LINE
5
103
100
AcDbEntity
8
0
100
AcDbLine
10
13.999999999999478
20
-5.000000000000286
30
0
11
13.99999999999949
21
4.9999999999997176
31
0
0
LINE
5
104
100
AcDbEntity
8
0
100
AcDbLine
10
13.99999999999949
20
4.9999999999997176
30
0
11
-14.000000000000526
21
-5.000000000000286
31
0
0
LINE
5
105
100
AcDbEntity
8
0
100
AcDbLine
10
-14.00000000000052
20
4.9999999999997176
30
0
11
13.999999999999478
21
-5.000000000000286
31
0
0
CIRCLE
5
106
100
AcDbEntity
8
0
100
AcDbCircle
10
14.000000000005153
20
-6.3035043735758063e-15
30
0
40
5
210
0
220
0
230
1
0
CIRCLE
5
107
100
AcDbEntity
8
0
100
AcDbCircle
10
-21.500000000000519
20
-2.8543670393935937e-13
30
0
40
10
210
0
220
0
230
1
0
CIRCLE
5
108
100
AcDbEntity
8
0
100
AcDbCircle
10
15.658312395177989
20
2.5000000000032201
30
0
40
0.75000000000000011
210
0
220
0
230
1
0
LINE
5
109
100
AcDbEntity
8
0
100
AcDbLine
10
-14.00000000000052
20
4.9999999999997176
30
0
11
13.999999999999481
21
4.9999999999997176
31
0
0
LINE
5
110
100
AcDbEntity
8
0
100
AcDbLine
10
13.999999999999481
20
4.9999999999997176
30
0
11
13.999999999999481
21
5.9999999999997176
31
0
0
LINE
5
111
100
AcDbEntity
8
0
100
AcDbLine
10
13.999999999999481
20
5.9999999999997176
30
0
11
-14.00000000000052
21
5.9999999999997158
31
0
0
LINE
5
112
100
AcDbEntity
8
0
100
AcDbLine
10
-14.00000000000052
20
5.9999999999997158
30
0
11
-14.00000000000052
21
4.9999999999997176
31
0
0
CIRCLE
5
113
100
AcDbEntity
8
0
100
AcDbCircle
10
-21.500000000000519
20
-2.8543670393935937e-13
30
0
40
4.9999999999999991
210
0
220
0
230
1
0
LINE
5
114
100
AcDbEntity
8
0
100
AcDbLine
10
9.0000000000054143
20
-6.3035043735736677e-15
30
0
11
8.9999999999987796
21
4.9999999999997167
31
0
0
LINE
5
115
100
AcDbEntity
8
0
100
AcDbLine
10
9.0000000000054143
20
-6.3035043735736677e-15
30
0
11
9.0000000000023981
21
-5.0000000000002851
31
0
0
CIRCLE
5
116
100
AcDbEntity
8
0
100
AcDbCircle
10
13.999999999997703
20
-6.3024672286582373e-15
30
0
40
0.85000000000000031
210
0
220
0
230
1
0
LWPOLYLINE
5
117
100
AcDbEntity
8
0
100
AcDbPolyline
90
4
70
1
43
0.0
10
4.5000000000055271
20
-1.7499999999983373
10
-8.5000000000005134
20
-1.7499999999983147
42
-0.99999999999999989
10
-8.5000000000005205
20
1.7500000000167726
10
4.5000000000055245
20
1.750000000001581
42
-0.99999999999999989
0
LINE
5
118
100
AcDbEntity
8
0
100
AcDbLine
10
-8.5000000000005169
20
9.2289055099398465e-12
30
0
11
4.5000000000055262
21
1.6217704747251048e-12
31
0
0
CIRCLE
5
119
100
AcDbEntity
8
0
100
AcDbCircle
10
15.658312395177989
20
2.5000000000032201
30
0
40
1.5000000000000002
210
0
220
0
230
1
0
SPLINE
5
120
100
AcDbEntity
8
0
100
AcDbSpline
70
4
71
5
72
31
73
25
74
0
42
0.000000001
43
0.0000000001
44
0.0000000001
40
0
40
0
40
0
40
0
40
0
40
0
40
0.050000000000000003
40
0.10000000000000001
40
0.15000000000000002
40
0.20000000000000001
40
0.25
40
0.29999999999999999
40
0.34999999999999998
40
0.39999999999999997
40
0.44999999999999996
40
0.49999999999999994
40
0.54999999999999993
40
0.59999999999999998
40
0.65000000000000002
40
0.70000000000000007
40
0.75000000000000011
40
0.80000000000000016
40
0.8500000000000002
40
0.90000000000000024
40
0.95000000000000029
40
1
40
1
40
1
40
1
40
1
40
1
41
1
41
1
41
1
41
1
41
1
41
1
41
1
41
1
41
1
41
1
41
1
41
1
41
1
41
1
41
1
41
1
41
1
41
1
41
1
41
1
41
1
41
1
41
1
41
1
41
1
10
15.264999999999219
20
4.837331392411949
30
0
10
15.145807740602633
20
4.80163738644859
30
0
10
14.916660167730551
20
4.7248323334560407
30
0
10
14.60064989054435
20
4.5933729785099953
30
0
10
14.234949074292999
20
4.3854632782964389
30
0
10
13.87077576719426
20
4.0716139507513436
30
0
10
13.597792624447324
20
3.7065589133541583
30
0
10
13.410687161288706
20
3.2967348424200877
30
0
10
13.298588918418838
20
2.8544135930442271
30
0
10
13.243828896351353
20
2.3978917212379187
30
0
10
13.224685773017249
20
1.942288039643848
30
0
10
13.217591244806927
20
1.4913468664864069
30
0
10
13.19924388307818
20
1.0292721533338309
30
0
10
13.149105115068703
20
0.50923422709818267
30
0
10
13.057013487251233
20
-0.072940639414004027
30
0
10
12.919184357170892
20
-0.70135856526700735
30
0
10
12.736771252659974
20
-1.3442982352023822
30
0
10
12.513552175143062
20
-1.9652321767252257
30
0
10
12.254106931304328
20
-2.5307329858600136
30
0
10
11.961825091341709
20
-3.0199129233287691
30
0
10
11.639045928919378
20
-3.4213801415857104
30
0
10
11.357579675892195
20
-3.6685969300647665
30
0
10
11.133728547332018
20
-3.812052921485626
30
0
10
10.978850223747425
20
-3.889118906055256
30
0
10
10.900000000000132
20
-3.9230090491826712
30
0
0
LINE
5
121
100
AcDbEntity
8
0
100
AcDbLine
10
10.900000000000132
20
-3.9230090491826712
30
0
11
10.900000000000134
21
-4.9999999999999121
31
0
0
CIRCLE
5
122
100
AcDbEntity
8
0
100
AcDbCircle
10
-21.500000000000519
20
-2.8543670393935937e-13
30
0
40
10.500000000000004
210
0
220
0
230
1
0
ENDSEC
0
SECTION
2
OBJECTS
0
DICTIONARY
5
C
100
AcDbDictionary
3
ACAD_GROUP
350
D
3
ACAD_MLINESTYLE
350
17
0
DICTIONARY
5
D
100
AcDbDictionary
0
DICTIONARY
5
1A
330
C
100
AcDbDictionary
0
DICTIONARY
5
17
100
AcDbDictionary
0
ENDSEC
0
EOF
