0
SECTION
2
HEADER
9
$INSUNITS
70
4
9
$ACADVER
1
AC1014
9
$HANDSEED
5
FFFF
0
ENDSEC
0
SECTION
2
TABLES
0
TABLE
2
VPORT
5
8
100
AcDbSymbolTable
0
ENDTAB
0
TABLE
2
LTYPE
5
5
100
AcDbSymbolTable
0
LTYPE
5
14
100
AcDbSymbolTableRecord
100
AcDbLinetypeTableRecord
2
BYBLOCK
70
0
0
LTYPE
5
15
100
AcDbSymbolTableRecord
100
AcDbLinetypeTableRecord
2
BYLAYER
70
0
0
ENDTAB
0
TABLE
2
LAYER
5
2
100
AcDbSymbolTable
70
2
0
LAYER
5
50
100
AcDbSymbolTableRecord
100
AcDbLayerTableRecord
2
0
70
0
6
CONTINUOUS
0
ENDTAB
0
TABLE
2
STYLE
5
3
100
AcDbSymbolTable
70
1
0
STYLE
5
11
100
AcDbSymbolTableRecord
100
AcDbTextStyleTableRecord
2
STANDARD
70
0
0
ENDTAB
0
TABLE
2
VIEW
5
6
100
AcDbSymbolTable
70
0
0
ENDTAB
0
TABLE
2
UCS
5
7
100
AcDbSymbolTable
70
0
0
ENDTAB
0
TABLE
2
APPID
5
9
100
AcDbSymbolTable
70
2
0
APPID
5
12
100
AcDbSymbolTableRecord
100
AcDbRegAppTableRecord
2
ACAD
70
0
0
ENDTAB
0
TABLE
2
DIMSTYLE
5
A
100
AcDbSymbolTable
70
1
0
ENDTAB
0
TABLE
2
BLOCK_RECORD
5
1
100
AcDbSymbolTable
70
1
0
BLOCK_RECORD
5
1F
100
AcDbSymbolTableRecord
100
AcDbBlockTableRecord
2
*MODEL_SPACE
0
BLOCK_RECORD
5
1B
100
AcDbSymbolTableRecord
100
AcDbBlockTableRecord
2
*PAPER_SPACE
0
ENDTAB
0
ENDSEC
0
SECTION
2
BLOCKS
0
BLOCK
5
20
100
AcDbEntity
100
AcDbBlockBegin
2
*MODEL_SPACE
0
ENDBLK
5
21
100
AcDbEntity
100
AcDbBlockEnd
0
BLOCK
5
1C
100
AcDbEntity
100
AcDbBlockBegin
2
*PAPER_SPACE
0
ENDBLK
5
1D
100
AcDbEntity
100
AcDbBlockEnd
0
ENDSEC
0
SECTION
2
ENTITIES
0
LINE
5
100
100
AcDbEntity
8
0
100
AcDbLine
10
14.999999999999837
20
-4.9999998910007655
30
0
11
-14.9999994913371
21
-5.0000001089992283
31
0
0
LINE
5
101
100
AcDbEntity
8
0
100
AcDbLine
10
-14.9999994913371
20
-5.0000001089992283
30
0
11
-14.999999999999837
21
4.9999998910007655
31
0
0
LINE
5
102
100
AcDbEntity
8
0
100
AcDbLine
10
-14.999999999999837
20
4.9999998910007655
30
0
11
15.000000000000163
21
4.9999998910007655
31
0
0
LINE
5
103
100
AcDbEntity
8
0
100
AcDbLine
10
15.000000000000163
20
4.9999998910007655
30
0
11
14.999999999999837
21
-4.9999998910007655
31
0
0
LINE
5
104
100
AcDbEntity
8
0
100
AcDbLine
10
14.999999999999837
20
-4.9999998910007655
30
0
11
-14.999999999999837
21
4.9999998910007655
31
0
0
LINE
5
105
100
AcDbEntity
8
0
100
AcDbLine
10
-14.9999994913371
20
-5.0000001089992283
30
0
11
15.000000000000163
21
4.9999998910007655
31
0
0
LINE
5
106
100
AcDbEntity
8
0
100
AcDbLine
10
15.000000000000163
20
4.9999998910007655
30
0
11
15.000000000000163
21
5.9999998910007655
31
0
0
LINE
5
107
100
AcDbEntity
8
0
100
AcDbLine
10
-14.999999999999837
20
4.9999998910007655
30
0
11
-14.999999999999837
21
5.9999998910007655
31
0
0
LINE
5
108
100
AcDbEntity
8
0
100
AcDbLine
10
-14.999999999999837
20
5.9999998910007655
30
0
11
15.000000000000163
21
5.9999998910007655
31
0
0
CIRCLE
5
109
100
AcDbEntity
8
0
100
AcDbCircle
10
15
20
0
30
0
40
4.9999998910007655
210
0
220
0
230
1
0
CIRCLE
5
110
100
AcDbEntity
8
0
100
AcDbCircle
10
-14.999999745668466
20
-1.0899923574836385e-07
30
0
40
5
210
0
220
0
230
1
0
CIRCLE
5
111
100
AcDbEntity
8
0
100
AcDbCircle
10
17.598076211353316
20
-1.5000000000000002
30
0
40
0.74999999999999933
210
0
220
0
230
1
0
ARC
5
112
100
AcDbEntity
8
0
100
AcDbCircle
10
15
20
0
30
0
40
3.783879107747699
210
0
220
0
230
1
100
AcDbArc
50
221.81031489577859
51
329.99999999998323
0
ARC
5
113
100
AcDbEntity
8
0
100
AcDbCircle
10
12.763932022500208
20
-2
30
0
40
0.78387910774769876
210
0
220
-0
230
1
100
AcDbArc
50
41.810314895804908
51
221.81031489577879
0
ARC
5
114
100
AcDbEntity
8
0
100
AcDbCircle
10
15
20
0
30
0
40
2.2161208922523028
210
0
220
0
230
1
100
AcDbArc
50
221.81031489576927
51
329.99999999999994
0
ARC
5
115
100
AcDbEntity
8
0
100
AcDbCircle
10
17.598076211353316
20
-1.5000000000000002
30
0
40
0.78387910774770531
210
0
220
0
230
1
100
AcDbArc
50
-30.00000000008103
51
150.00000000000003
0
ARC
5
116
100
AcDbEntity
8
0
100
AcDbCircle
10
15
20
0
30
0
40
3.0000000000000018
210
0
220
0
230
1
100
AcDbArc
50
221.81031489577856
51
330.00000000000006
0
CIRCLE
5
117
100
AcDbEntity
8
0
100
AcDbCircle
10
-14.999999745668466
20
-1.0899923574836385e-07
30
0
40
1.0000000000000007
210
0
220
0
230
1
0
CIRCLE
5
118
100
AcDbEntity
8
0
100
AcDbCircle
10
-13.341687604822301
20
2.4999998910007686
30
0
40
0.60000000000000009
210
0
220
0
230
1
0
CIRCLE
5
119
100
AcDbEntity
8
0
100
AcDbCircle
10
15
20
0
30
0
40
0.85000000000000009
210
0
220
0
230
1
0
LINE
5
120
100
AcDbEntity
8
0
100
AcDbLine
10
10.000000108999235
20
3.0616169311256013e-16
30
0
11
9.999999959987667
21
4.9999998910007646
31
0
0
LINE
5
121
100
AcDbEntity
8
0
100
AcDbLine
10
10.000000108999235
20
3.0616169311256013e-16
30
0
11
9.9999999301853499
21
-4.9999999273338442
31
0
0
LINE
5
122
100
AcDbEntity
8
0
100
AcDbLine
10
-9.9999997456684664
20
-1.0899923549941417e-07
30
0
11
-9.9999997456674503
21
4.9999998910007557
31
0
0
LINE
5
123
100
AcDbEntity
8
0
100
AcDbLine
10
-9.9999997456684664
20
-1.0899923549941417e-07
30
0
11
-9.9999997456687524
21
-5.0000000726661531
31
0
0
LINE
5
124
100
AcDbEntity
8
0
100
AcDbLine
10
-9.9999997456676244
20
4.1385268198905258
30
0
11
-4.5000000582789221
21
4.1385268200104361
31
0
0
LINE
5
125
100
AcDbEntity
8
0
100
AcDbLine
10
-4.5000000582789221
20
4.1385268200104361
30
0
11
10.000000079196919
21
1.0000000169956014
31
0
0
LINE
5
126
100
AcDbEntity
8
0
100
AcDbLine
10
10.000000079196919
20
1.0000000169956014
30
0
11
15
21
0.85000000000000009
31
0
0
LINE
5
127
100
AcDbEntity
8
0
100
AcDbLine
10
15
20
0.85000000000000009
30
0
11
19.950547416945522
21
0.70148355831171827
31
0
0
LINE
5
128
100
AcDbEntity
8
0
100
AcDbLine
10
-9.9999997456676244
20
4.1385268198905258
30
0
11
-11.561414534257988
21
4.1724762453740452
31
0
0
LINE
5
129
100
AcDbEntity
8
0
100
AcDbLine
10
-11.561414534320239
20
4.9999998910007655
30
0
11
-11.561414534257988
21
4.1724762453740452
31
0
0
LWPOLYLINE
5
130
100
AcDbEntity
8
0
100
AcDbPolyline
90
4
70
1
43
0.0
10
-4.9999999999993889
20
1.4999999999987967
10
5.0000000000006093
20
1.4999999999898794
42
-0.99999999999999989
10
4.9999999999993907
20
-1.500000000000814
10
-5.0000000000006111
20
-1.4999999999987979
42
-0.99999999999999989
0
LINE
5
131
100
AcDbEntity
8
0
100
AcDbLine
10
5
20
-5.4671650251351947e-12
30
0
11
-5
21
-6.8171231570081946e-16
31
0
0
ENDSEC
0
SECTION
2
OBJECTS
0
DICTIONARY
5
C
100
AcDbDictionary
3
ACAD_GROUP
350
D
3
ACAD_MLINESTYLE
350
17
0
DICTIONARY
5
D
100
AcDbDictionary
0
DICTIONARY
5
1A
330
C
100
AcDbDictionary
0
DICTIONARY
5
17
100
AcDbDictionary
0
ENDSEC
0
EOF
