0
SECTION
2
HEADER
9
$INSUNITS
70
4
9
$ACADVER
1
AC1014
9
$HANDSEED
5
FFFF
0
ENDSEC
0
SECTION
2
TABLES
0
TABLE
2
VPORT
5
8
100
AcDbSymbolTable
0
ENDTAB
0
TABLE
2
LTYPE
5
5
100
AcDbSymbolTable
0
LTYPE
5
14
100
AcDbSymbolTableRecord
100
AcDbLinetypeTableRecord
2
BYBLOCK
70
0
0
LTYPE
5
15
100
AcDbSymbolTableRecord
100
AcDbLinetypeTableRecord
2
BYLAYER
70
0
0
ENDTAB
0
TABLE
2
LAYER
5
2
100
AcDbSymbolTable
70
2
0
LAYER
5
50
100
AcDbSymbolTableRecord
100
AcDbLayerTableRecord
2
0
70
0
6
CONTINUOUS
0
ENDTAB
0
TABLE
2
STYLE
5
3
100
AcDbSymbolTable
70
1
0
STYLE
5
11
100
AcDbSymbolTableRecord
100
AcDbTextStyleTableRecord
2
STANDARD
70
0
0
ENDTAB
0
TABLE
2
VIEW
5
6
100
AcDbSymbolTable
70
0
0
ENDTAB
0
TABLE
2
UCS
5
7
100
AcDbSymbolTable
70
0
0
ENDTAB
0
TABLE
2
APPID
5
9
100
AcDbSymbolTable
70
2
0
APPID
5
12
100
AcDbSymbolTableRecord
100
AcDbRegAppTableRecord
2
ACAD
70
0
0
ENDTAB
0
TABLE
2
DIMSTYLE
5
A
100
AcDbSymbolTable
70
1
0
ENDTAB
0
TABLE
2
BLOCK_RECORD
5
1
100
AcDbSymbolTable
70
1
0
BLOCK_RECORD
5
1F
100
AcDbSymbolTableRecord
100
AcDbBlockTableRecord
2
*MODEL_SPACE
0
BLOCK_RECORD
5
1B
100
AcDbSymbolTableRecord
100
AcDbBlockTableRecord
2
*PAPER_SPACE
0
ENDTAB
0
ENDSEC
0
SECTION
2
BLOCKS
0
BLOCK
5
20
100
AcDbEntity
100
AcDbBlockBegin
2
*MODEL_SPACE
0
ENDBLK
5
21
100
AcDbEntity
100
AcDbBlockEnd
0
BLOCK
5
1C
100
AcDbEntity
100
AcDbBlockBegin
2
*PAPER_SPACE
0
ENDBLK
5
1D
100
AcDbEntity
100
AcDbBlockEnd
0
ENDSEC
0
SECTION
2
ENTITIES
0
LINE
5
100
100
AcDbEntity
8
0
100
AcDbLine
10
17.5
20
5
30
0
11
-17.5
21
5
31
0
0
LINE
5
101
100
AcDbEntity
8
0
100
AcDbLine
10
-17.5
20
5
30
0
11
-17.5
21
-5
31
0
0
LINE
5
102
100
AcDbEntity
8
0
100
AcDbLine
10
-17.5
20
-5
30
0
11
17.5
21
-5
31
0
0
LINE
5
103
100
AcDbEntity
8
0
100
AcDbLine
10
17.5
20
-5
30
0
11
17.5
21
5
31
0
0
LINE
5
104
100
AcDbEntity
8
0
100
AcDbLine
10
17.5
20
5
30
0
11
-17.5
21
-5
31
0
0
LINE
5
105
100
AcDbEntity
8
0
100
AcDbLine
10
-17.5
20
5
30
0
11
17.5
21
-5
31
0
0
CIRCLE
5
106
100
AcDbEntity
8
0
100
AcDbCircle
10
17.5
20
0
30
0
40
5
210
0
220
0
230
1
0
CIRCLE
5
107
100
AcDbEntity
8
0
100
AcDbCircle
10
-25
20
0
30
0
40
10
210
0
220
0
230
1
0
CIRCLE
5
108
100
AcDbEntity
8
0
100
AcDbCircle
10
19.158312395177703
20
2.5
30
0
40
0.75000000000000011
210
0
220
0
230
1
0
LINE
5
109
100
AcDbEntity
8
0
100
AcDbLine
10
-17.5
20
5
30
0
11
17.5
21
5
31
0
0
LINE
5
110
100
AcDbEntity
8
0
100
AcDbLine
10
17.5
20
5
30
0
11
17.5
21
6
31
0
0
LINE
5
111
100
AcDbEntity
8
0
100
AcDbLine
10
17.5
20
6
30
0
11
-17.5
21
6
31
0
0
LINE
5
112
100
AcDbEntity
8
0
100
AcDbLine
10
-17.5
20
6
30
0
11
-17.5
21
5
31
0
0
CIRCLE
5
113
100
AcDbEntity
8
0
100
AcDbCircle
10
-25.00000037252903
20
0
30
0
40
4.9999999999999991
210
0
220
0
230
1
0
LINE
5
114
100
AcDbEntity
8
0
100
AcDbLine
10
12.5
20
0
30
0
11
12.5
21
5
31
0
0
LINE
5
115
100
AcDbEntity
8
0
100
AcDbLine
10
12.5
20
0
30
0
11
12.5
21
-5.000000074505806
31
0
0
CIRCLE
5
116
100
AcDbEntity
8
0
100
AcDbCircle
10
17.5
20
0
30
0
40
0.85000000000000031
210
0
220
0
230
1
0
LWPOLYLINE
5
117
100
AcDbEntity
8
0
100
AcDbPolyline
90
4
70
1
43
0.0
10
7.9999999999999982
20
-1.7500000000000404
10
-12.000000000000002
20
-1.7500000000000422
42
-0.99999999999999989
10
-12
20
1.75
10
8
20
1.749999999999976
42
-0.99999999999999989
0
LINE
5
118
100
AcDbEntity
8
0
100
AcDbLine
10
-12.000000000000002
20
-2.1004006638273565e-14
30
0
11
8
21
-3.219646771412954e-14
31
0
0
CIRCLE
5
119
100
AcDbEntity
8
0
100
AcDbCircle
10
19.158312395177703
20
2.5
30
0
40
1.5000000000000002
210
0
220
0
230
1
0
SPLINE
5
120
100
AcDbEntity
8
0
100
AcDbSpline
70
4
71
5
72
31
73
25
74
0
42
0.000000001
43
0.0000000001
44
0.0000000001
40
0
40
0
40
0
40
0
40
0
40
0
40
0.050000000000000003
40
0.10000000000000001
40
0.15000000000000002
40
0.20000000000000001
40
0.25
40
0.29999999999999999
40
0.34999999999999998
40
0.39999999999999997
40
0.44999999999999996
40
0.49999999999999994
40
0.54999999999999993
40
0.59999999999999998
40
0.65000000000000002
40
0.70000000000000007
40
0.75000000000000011
40
0.80000000000000016
40
0.8500000000000002
40
0.90000000000000024
40
0.95000000000000029
40
1
40
1
40
1
40
1
40
1
40
1
41
1
41
1
41
1
41
1
41
1
41
1
41
1
41
1
41
1
41
1
41
1
41
1
41
1
41
1
41
1
41
1
41
1
41
1
41
1
41
1
41
1
41
1
41
1
41
1
41
1
10
18.767938014581965
20
4.836562125226755
30
0
10
18.645761261017743
20
4.7875381717665215
30
0
10
18.411399788289081
20
4.6870532121354866
30
0
10
18.089834064743151
20
4.529014756201132
30
0
10
17.721274094075628
20
4.3036139055787785
30
0
10
17.360936993172711
20
3.9967347632793127
30
0
10
17.098473423713902
20
3.6633477077241743
30
0
10
16.926997933945984
20
3.3012014425876708
30
0
10
16.832764808342976
20
2.9069001104685741
30
0
10
16.793890411162455
20
2.476023157066336
30
0
10
16.784615030235159
20
2.0048010254942921
30
0
10
16.778836677595383
20
1.4917249166126725
30
0
10
16.753528497483874
20
0.93901826602186511
30
0
10
16.69305176030587
20
0.35484805240559314
30
0
10
16.589788911671256
20
-0.24704362658342993
30
0
10
16.441585254649496
20
-0.84993775612089306
30
0
10
16.250233550794395
20
-1.4360222177240078
30
0
10
16.019645426744216
20
-1.9885524983437657
30
0
10
15.75427202165535
20
-2.4938715028025698
30
0
10
15.457425208780345
20
-2.9436800967784555
30
0
10
15.131376302139818
20
-3.3337474245987391
30
0
10
14.848296094127466
20
-3.5968062849106581
30
0
10
14.62378647206023
20
-3.7665486398799288
30
0
10
14.468713536815052
20
-3.8675146995475416
30
0
10
14.389827099792781
20
-3.9149488541763366
30
0
0
LINE
5
121
100
AcDbEntity
8
0
100
AcDbLine
10
14.389827099792781
20
-3.9149488541763366
30
0
11
14.389827099792781
21
-5
31
0
0
CIRCLE
5
122
100
AcDbEntity
8
0
100
AcDbCircle
10
-25
20
0
30
0
40
10.500000000000004
210
0
220
0
230
1
0
ENDSEC
0
SECTION
2
OBJECTS
0
DICTIONARY
5
C
100
AcDbDictionary
3
ACAD_GROUP
350
D
3
ACAD_MLINESTYLE
350
17
0
DICTIONARY
5
D
100
AcDbDictionary
0
DICTIONARY
5
1A
330
C
100
AcDbDictionary
0
DICTIONARY
5
17
100
AcDbDictionary
0
ENDSEC
0
EOF
