0
SECTION
2
HEADER
9
$INSUNITS
70
4
9
$ACADVER
1
AC1014
9
$HANDSEED
5
FFFF
0
ENDSEC
0
SECTION
2
TABLES
0
TABLE
2
VPORT
5
8
100
AcDbSymbolTable
0
ENDTAB
0
TABLE
2
LTYPE
5
5
100
AcDbSymbolTable
0
LTYPE
5
14
100
AcDbSymbolTableRecord
100
AcDbLinetypeTableRecord
2
BYBLOCK
70
0
0
LTYPE
5
15
100
AcDbSymbolTableRecord
100
AcDbLinetypeTableRecord
2
BYLAYER
70
0
0
ENDTAB
0
TABLE
2
LAYER
5
2
100
AcDbSymbolTable
70
2
0
LAYER
5
50
100
AcDbSymbolTableRecord
100
AcDbLayerTableRecord
2
0
70
0
6
CONTINUOUS
0
ENDTAB
0
TABLE
2
STYLE
5
3
100
AcDbSymbolTable
70
1
0
STYLE
5
11
100
AcDbSymbolTableRecord
100
AcDbTextStyleTableRecord
2
STANDARD
70
0
0
ENDTAB
0
TABLE
2
VIEW
5
6
100
AcDbSymbolTable
70
0
0
ENDTAB
0
TABLE
2
UCS
5
7
100
AcDbSymbolTable
70
0
0
ENDTAB
0
TABLE
2
APPID
5
9
100
AcDbSymbolTable
70
2
0
APPID
5
12
100
AcDbSymbolTableRecord
100
AcDbRegAppTableRecord
2
ACAD
70
0
0
ENDTAB
0
TABLE
2
DIMSTYLE
5
A
100
AcDbSymbolTable
70
1
0
ENDTAB
0
TABLE
2
BLOCK_RECORD
5
1
100
AcDbSymbolTable
70
1
0
BLOCK_RECORD
5
1F
100
AcDbSymbolTableRecord
100
AcDbBlockTableRecord
2
*MODEL_SPACE
0
BLOCK_RECORD
5
1B
100
AcDbSymbolTableRecord
100
AcDbBlockTableRecord
2
*PAPER_SPACE
0
ENDTAB
0
ENDSEC
0
SECTION
2
BLOCKS
0
BLOCK
5
20
100
AcDbEntity
100
AcDbBlockBegin
2
*MODEL_SPACE
0
ENDBLK
5
21
100
AcDbEntity
100
AcDbBlockEnd
0
BLOCK
5
1C
100
AcDbEntity
100
AcDbBlockBegin
2
*PAPER_SPACE
0
ENDBLK
5
1D
100
AcDbEntity
100
AcDbBlockEnd
0
ENDSEC
0
SECTION
2
ENTITIES
0
CIRCLE
5
100
100
AcDbEntity
8
0
100
AcDbCircle
10
0
20
0
30
0
40
1
210
0
220
0
230
1
0
SPLINE
5
101
100
AcDbEntity
8
0
100
AcDbSpline
70
4
71
5
72
16
73
10
74
0
42
0.000000001
43
0.0000000001
44
0.0000000001
40
0
40
0
40
0
40
0
40
0
40
0
40
0.20000000000000001
40
0.40000000000000002
40
0.60000000000000009
40
0.80000000000000004
40
1
40
1
40
1
40
1
40
1
40
1
41
1
41
1
41
1
41
1
41
1
41
1
41
1
41
1
41
1
41
1
10
6.9388939039072284e-16
20
-2.3999999999999995
30
0
10
0.019471544317896106
20
-2.3999999999999995
30
0
10
0.055771857622557153
20
-2.3967876054032247
30
0
10
0.10230215106243799
20
-2.3823415820342042
30
0
10
0.15156777678881439
20
-2.3474187221207905
30
0
10
0.20520797608891883
20
-2.2930223717782212
30
0
10
0.25338600869098499
20
-2.253987252302764
30
0
10
0.29837479417020524
20
-2.2337126881775697
30
0
10
0.33328885003844783
20
-2.2252587650432587
30
0
10
0.35197754634051992
20
-2.2222987663390597
30
0
0
SPLINE
5
102
100
AcDbEntity
8
0
100
AcDbSpline
70
4
71
5
72
16
73
10
74
0
42
0.000000001
43
0.0000000001
44
0.0000000001
40
-1
40
-1
40
-1
40
-1
40
-1
40
-1
40
-0.80000000000000004
40
-0.60000000000000009
40
-0.40000000000000002
40
-0.20000000000000001
40
0
40
0
40
0
40
0
40
0
40
0
41
1
41
1
41
1
41
1
41
1
41
1
41
1
41
1
41
1
41
1
10
0.35197754634052014
20
-2.2222987663390597
30
0
10
0.3706662426425924
20
-2.219338767634861
30
0
10
0.40648388890401926
20
-2.2165898897141627
30
0
10
0.45553595136246627
20
-2.2219698467711044
30
0
10
0.51341849850631416
20
-2.2442066206830091
30
0
10
0.58124275627387667
20
-2.2793648909735928
30
0
10
0.63888890785572561
20
-2.2973545888739415
30
0
10
0.68760591335901489
20
-2.2967149221074248
30
0
10
0.72312224739400977
20
-2.288552677209323
30
0
10
0.74164078649987419
20
-2.2825356391083682
30
0
0
SPLINE
5
103
100
AcDbEntity
8
0
100
AcDbSpline
70
4
71
5
72
16
73
10
74
0
42
0.000000001
43
0.0000000001
44
0.0000000001
40
0
40
0
40
0
40
0
40
0
40
0
40
0.20000000000000001
40
0.40000000000000002
40
0.60000000000000009
40
0.80000000000000004
40
1
40
1
40
1
40
1
40
1
40
1
41
1
41
1
41
1
41
1
41
1
41
1
41
1
41
1
41
1
41
1
10
0.74164078649987408
20
-2.2825356391083678
30
0
10
0.7601593256057384
20
-2.276518601007413
30
0
10
0.79369029059465057
20
-2.2622460184809641
30
0
10
0.83347916265360977
20
-2.2341283823951286
30
0
10
0.86954179982461777
20
-2.1856908533188477
30
0
10
0.90374726421652507
20
-2.1173811166974814
30
0
10
0.93750478076962773
20
-2.0653686811263992
30
0
10
0.97402647349161542
20
-2.0321841255307218
30
0
10
1.0046193079177588
20
-2.0133549302397333
30
0
10
1.0214786244139806
20
-2.0047646794238276
30
0
0
SPLINE
5
104
100
AcDbEntity
8
0
100
AcDbSpline
70
4
71
5
72
16
73
10
74
0
42
0.000000001
43
0.0000000001
44
0.0000000001
40
-1
40
-1
40
-1
40
-1
40
-1
40
-1
40
-0.80000000000000004
40
-0.60000000000000009
40
-0.40000000000000002
40
-0.20000000000000001
40
0
40
0
40
0
40
0
40
0
40
0
41
1
41
1
41
1
41
1
41
1
41
1
41
1
41
1
41
1
41
1
10
1.0214786244139809
20
-2.0047646794238276
30
0
10
1.0383379409102027
20
-1.9961744286079215
30
0
10
1.0715530967925295
20
-1.9824918289556503
30
0
10
1.1198668785909547
20
-1.9724505512632411
30
0
10
1.1817879932707249
20
-1.9757122892483823
30
0
10
1.2571571985960652
20
-1.9881909430288642
30
0
10
1.3175410690722
20
-1.9874865219440667
30
0
10
1.3636760267088994
20
-1.9718237800819387
30
0
10
1.3949317952420333
20
-1.9530858730892919
30
0
10
1.4106846055019355
20
-1.9416407864998737
30
0
0
SPLINE
5
105
100
AcDbEntity
8
0
100
AcDbSpline
70
4
71
5
72
16
73
10
74
0
42
0.000000001
43
0.0000000001
44
0.0000000001
40
0
40
0
40
0
40
0
40
0
40
0
40
0.20000000000000001
40
0.40000000000000002
40
0.60000000000000009
40
0.80000000000000004
40
1
40
1
40
1
40
1
40
1
40
1
41
1
41
1
41
1
41
1
41
1
41
1
41
1
41
1
41
1
41
1
10
1.4106846055019355
20
-1.9416407864998724
30
0
10
1.4264374157618382
20
-1.9301956999104541
30
0
10
1.453916787957916
20
-1.9062600292749496
30
0
10
1.4830694266134499
20
-1.8672231305994711
30
0
10
1.5023990130396234
20
-1.8100123351904189
30
0
10
1.5138214733451698
20
-1.7344758452526765
30
0
10
1.5298540529266433
20
-1.6745774331716146
30
0
10
1.5543336551461742
20
-1.6317312216175526
30
0
10
1.5776106283437765
20
-1.6043698869956871
30
0
10
1.5909902576697321
20
-1.5909902576697312
30
0
0
SPLINE
5
106
100
AcDbEntity
8
0
100
AcDbSpline
70
4
71
5
72
16
73
10
74
0
42
0.000000001
43
0.0000000001
44
0.0000000001
40
-1
40
-1
40
-1
40
-1
40
-1
40
-1
40
-0.80000000000000004
40
-0.60000000000000009
40
-0.40000000000000002
40
-0.20000000000000001
40
0
40
0
40
0
40
0
40
0
40
0
41
1
41
1
41
1
41
1
41
1
41
1
41
1
41
1
41
1
41
1
10
1.5909902576697328
20
-1.5909902576697315
30
0
10
1.6043698869956882
20
-1.5776106283437756
30
0
10
1.6317312216175539
20
-1.5543336551461735
30
0
10
1.6745774331716161
20
-1.5298540529266424
30
0
10
1.7344758452526778
20
-1.5138214733451691
30
0
10
1.8100123351904207
20
-1.5023990130396228
30
0
10
1.8672231305994724
20
-1.483069426613449
30
0
10
1.906260029274951
20
-1.4539167879579149
30
0
10
1.9301956999104557
20
-1.4264374157618374
30
0
10
1.9416407864998741
20
-1.4106846055019349
30
0
0
SPLINE
5
107
100
AcDbEntity
8
0
100
AcDbSpline
70
4
71
5
72
16
73
10
74
0
42
0.000000001
43
0.0000000001
44
0.0000000001
40
0
40
0
40
0
40
0
40
0
40
0
40
0.20000000000000001
40
0.40000000000000002
40
0.60000000000000009
40
0.80000000000000004
40
1
40
1
40
1
40
1
40
1
40
1
41
1
41
1
41
1
41
1
41
1
41
1
41
1
41
1
41
1
41
1
10
1.9416407864998737
20
-1.4106846055019346
30
0
10
1.9530858730892919
20
-1.3949317952420319
30
0
10
1.9718237800819391
20
-1.3636760267088981
30
0
10
1.9874865219440667
20
-1.3175410690721989
30
0
10
1.9881909430288645
20
-1.2571571985960641
30
0
10
1.9757122892483825
20
-1.1817879932707236
30
0
10
1.9724505512632411
20
-1.1198668785909534
30
0
10
1.9824918289556503
20
-1.0715530967925282
30
0
10
1.9961744286079219
20
-1.0383379409102014
30
0
10
2.0047646794238276
20
-1.0214786244139797
30
0
0
SPLINE
5
108
100
AcDbEntity
8
0
100
AcDbSpline
70
4
71
5
72
16
73
10
74
0
42
0.000000001
43
0.0000000001
44
0.0000000001
40
-1
40
-1
40
-1
40
-1
40
-1
40
-1
40
-0.80000000000000004
40
-0.60000000000000009
40
-0.40000000000000002
40
-0.20000000000000001
40
0
40
0
40
0
40
0
40
0
40
0
41
1
41
1
41
1
41
1
41
1
41
1
41
1
41
1
41
1
41
1
10
2.0047646794238281
20
-1.0214786244139797
30
0
10
2.0133549302397342
20
-1.0046193079177581
30
0
10
2.0321841255307227
20
-0.97402647349161464
30
0
10
2.0653686811264005
20
-0.93750478076962684
30
0
10
2.1173811166974823
20
-0.90374726421652429
30
0
10
2.185690853318849
20
-0.86954179982461699
30
0
10
2.2341283823951295
20
-0.83347916265360888
30
0
10
2.262246018480965
20
-0.79369029059464957
30
0
10
2.2765186010074139
20
-0.76015932560573773
30
0
10
2.2825356391083687
20
-0.74164078649987331
30
0
0
SPLINE
5
109
100
AcDbEntity
8
0
100
AcDbSpline
70
4
71
5
72
16
73
10
74
0
42
0.000000001
43
0.0000000001
44
0.0000000001
40
0
40
0
40
0
40
0
40
0
40
0
40
0.20000000000000001
40
0.40000000000000002
40
0.60000000000000009
40
0.80000000000000004
40
1
40
1
40
1
40
1
40
1
40
1
41
1
41
1
41
1
41
1
41
1
41
1
41
1
41
1
41
1
41
1
10
2.2825356391083678
20
-0.74164078649987297
30
0
10
2.2885526772093225
20
-0.72312224739400854
30
0
10
2.2967149221074239
20
-0.68760591335901344
30
0
10
2.2973545888739415
20
-0.63888890785572416
30
0
10
2.2793648909735924
20
-0.58124275627387534
30
0
10
2.2442066206830087
20
-0.51341849850631283
30
0
10
2.221969846771104
20
-0.45553595136246472
30
0
10
2.2165898897141623
20
-0.40648388890401788
30
0
10
2.219338767634861
20
-0.37066624264259107
30
0
10
2.2222987663390597
20
-0.35197754634051892
30
0
0
SPLINE
5
110
100
AcDbEntity
8
0
100
AcDbSpline
70
4
71
5
72
16
73
10
74
0
42
0.000000001
43
0.0000000001
44
0.0000000001
40
-1
40
-1
40
-1
40
-1
40
-1
40
-1
40
-0.80000000000000004
40
-0.60000000000000009
40
-0.40000000000000002
40
-0.20000000000000001
40
0
40
0
40
0
40
0
40
0
40
0
41
1
41
1
41
1
41
1
41
1
41
1
41
1
41
1
41
1
41
1
10
2.2222987663390601
20
-0.35197754634051881
30
0
10
2.2252587650432591
20
-0.33328885003844655
30
0
10
2.2337126881775702
20
-0.29837479417020396
30
0
10
2.2539872523027644
20
-0.2533860086909836
30
0
10
2.2930223717782212
20
-0.20520797608891753
30
0
10
2.3474187221207914
20
-0.15156777678881325
30
0
10
2.3823415820342047
20
-0.10230215106243688
30
0
10
2.3967876054032251
20
-0.05577185762255607
30
0
10
2.3999999999999999
20
-0.019471544317895141
30
0
10
2.3999999999999999
20
4.4087284769304712e-16
30
0
0
SPLINE
5
111
100
AcDbEntity
8
0
100
AcDbSpline
70
4
71
5
72
16
73
10
74
0
42
0.000000001
43
0.0000000001
44
0.0000000001
40
0
40
0
40
0
40
0
40
0
40
0
40
0.20000000000000001
40
0.40000000000000002
40
0.60000000000000009
40
0.80000000000000004
40
1
40
1
40
1
40
1
40
1
40
1
41
1
41
1
41
1
41
1
41
1
41
1
41
1
41
1
41
1
41
1
10
2.3999999999999995
20
5.5511151231257827e-16
30
0
10
2.3999999999999995
20
0.019471544317896106
30
0
10
2.3967876054032247
20
0.055771857622557014
30
0
10
2.3823415820342042
20
0.10230215106243785
30
0
10
2.3474187221207905
20
0.15156777678881439
30
0
10
2.2930223717782208
20
0.20520797608891866
30
0
10
2.253987252302764
20
0.25338600869098482
30
0
10
2.2337126881775697
20
0.29837479417020507
30
0
10
2.2252587650432587
20
0.33328885003844766
30
0
10
2.2222987663390597
20
0.35197754634051992
30
0
0
SPLINE
5
112
100
AcDbEntity
8
0
100
AcDbSpline
70
4
71
5
72
16
73
10
74
0
42
0.000000001
43
0.0000000001
44
0.0000000001
40
-1
40
-1
40
-1
40
-1
40
-1
40
-1
40
-0.80000000000000004
40
-0.60000000000000009
40
-0.40000000000000002
40
-0.20000000000000001
40
0
40
0
40
0
40
0
40
0
40
0
41
1
41
1
41
1
41
1
41
1
41
1
41
1
41
1
41
1
41
1
10
2.2222987663390597
20
0.35197754634052003
30
0
10
2.219338767634861
20
0.37066624264259224
30
0
10
2.2165898897141627
20
0.4064838889040191
30
0
10
2.2219698467711044
20
0.45553595136246616
30
0
10
2.2442066206830091
20
0.51341849850631405
30
0
10
2.2793648909735928
20
0.58124275627387656
30
0
10
2.2973545888739415
20
0.63888890785572527
30
0
10
2.2967149221074248
20
0.68760591335901466
30
0
10
2.288552677209323
20
0.72312224739400965
30
0
10
2.2825356391083682
20
0.74164078649987408
30
0
0
SPLINE
5
113
100
AcDbEntity
8
0
100
AcDbSpline
70
4
71
5
72
16
73
10
74
0
42
0.000000001
43
0.0000000001
44
0.0000000001
40
0
40
0
40
0
40
0
40
0
40
0
40
0.20000000000000001
40
0.40000000000000002
40
0.60000000000000009
40
0.80000000000000004
40
1
40
1
40
1
40
1
40
1
40
1
41
1
41
1
41
1
41
1
41
1
41
1
41
1
41
1
41
1
41
1
10
2.2825356391083678
20
0.74164078649987408
30
0
10
2.276518601007413
20
0.7601593256057384
30
0
10
2.2622460184809641
20
0.79369029059465057
30
0
10
2.2341283823951286
20
0.83347916265360977
30
0
10
2.1856908533188477
20
0.86954179982461777
30
0
10
2.1173811166974814
20
0.90374726421652507
30
0
10
2.0653686811263992
20
0.93750478076962773
30
0
10
2.0321841255307218
20
0.97402647349161542
30
0
10
2.0133549302397333
20
1.0046193079177588
30
0
10
2.0047646794238276
20
1.0214786244139806
30
0
0
SPLINE
5
114
100
AcDbEntity
8
0
100
AcDbSpline
70
4
71
5
72
16
73
10
74
0
42
0.000000001
43
0.0000000001
44
0.0000000001
40
-1
40
-1
40
-1
40
-1
40
-1
40
-1
40
-0.80000000000000004
40
-0.60000000000000009
40
-0.40000000000000002
40
-0.20000000000000001
40
0
40
0
40
0
40
0
40
0
40
0
41
1
41
1
41
1
41
1
41
1
41
1
41
1
41
1
41
1
41
1
10
2.0047646794238276
20
1.0214786244139809
30
0
10
1.9961744286079215
20
1.0383379409102027
30
0
10
1.9824918289556503
20
1.0715530967925295
30
0
10
1.9724505512632411
20
1.1198668785909547
30
0
10
1.9757122892483823
20
1.1817879932707249
30
0
10
1.9881909430288642
20
1.2571571985960652
30
0
10
1.9874865219440667
20
1.3175410690722
30
0
10
1.9718237800819387
20
1.3636760267088994
30
0
10
1.9530858730892919
20
1.3949317952420333
30
0
10
1.9416407864998737
20
1.4106846055019355
30
0
0
SPLINE
5
115
100
AcDbEntity
8
0
100
AcDbSpline
70
4
71
5
72
16
73
10
74
0
42
0.000000001
43
0.0000000001
44
0.0000000001
40
0
40
0
40
0
40
0
40
0
40
0
40
0.20000000000000001
40
0.40000000000000002
40
0.60000000000000009
40
0.80000000000000004
40
1
40
1
40
1
40
1
40
1
40
1
41
1
41
1
41
1
41
1
41
1
41
1
41
1
41
1
41
1
41
1
10
1.941640786499873
20
1.4106846055019355
30
0
10
1.9301956999104548
20
1.4264374157618382
30
0
10
1.9062600292749501
20
1.4539167879579158
30
0
10
1.8672231305994715
20
1.4830694266134499
30
0
10
1.8100123351904196
20
1.5023990130396232
30
0
10
1.7344758452526767
20
1.5138214733451696
30
0
10
1.6745774331716152
20
1.5298540529266429
30
0
10
1.631731221617553
20
1.5543336551461739
30
0
10
1.6043698869956877
20
1.5776106283437765
30
0
10
1.5909902576697319
20
1.5909902576697321
30
0
0
SPLINE
5
116
100
AcDbEntity
8
0
100
AcDbSpline
70
4
71
5
72
16
73
10
74
0
42
0.000000001
43
0.0000000001
44
0.0000000001
40
-1
40
-1
40
-1
40
-1
40
-1
40
-1
40
-0.80000000000000004
40
-0.60000000000000009
40
-0.40000000000000002
40
-0.20000000000000001
40
0
40
0
40
0
40
0
40
0
40
0
41
1
41
1
41
1
41
1
41
1
41
1
41
1
41
1
41
1
41
1
10
1.5909902576697319
20
1.5909902576697323
30
0
10
1.5776106283437763
20
1.6043698869956882
30
0
10
1.5543336551461739
20
1.6317312216175539
30
0
10
1.5298540529266429
20
1.6745774331716161
30
0
10
1.5138214733451696
20
1.7344758452526778
30
0
10
1.5023990130396232
20
1.8100123351904207
30
0
10
1.4830694266134494
20
1.8672231305994724
30
0
10
1.4539167879579153
20
1.906260029274951
30
0
10
1.4264374157618378
20
1.9301956999104557
30
0
10
1.4106846055019353
20
1.9416407864998741
30
0
0
SPLINE
5
117
100
AcDbEntity
8
0
100
AcDbSpline
70
4
71
5
72
16
73
10
74
0
42
0.000000001
43
0.0000000001
44
0.0000000001
40
0
40
0
40
0
40
0
40
0
40
0
40
0.20000000000000001
40
0.40000000000000002
40
0.60000000000000009
40
0.80000000000000004
40
1
40
1
40
1
40
1
40
1
40
1
41
1
41
1
41
1
41
1
41
1
41
1
41
1
41
1
41
1
41
1
10
1.4106846055019346
20
1.9416407864998737
30
0
10
1.3949317952420319
20
1.9530858730892919
30
0
10
1.3636760267088981
20
1.9718237800819391
30
0
10
1.3175410690721989
20
1.9874865219440667
30
0
10
1.2571571985960643
20
1.9881909430288645
30
0
10
1.1817879932707236
20
1.9757122892483825
30
0
10
1.1198668785909534
20
1.9724505512632411
30
0
10
1.0715530967925282
20
1.9824918289556503
30
0
10
1.0383379409102014
20
1.9961744286079217
30
0
10
1.0214786244139797
20
2.0047646794238276
30
0
0
SPLINE
5
118
100
AcDbEntity
8
0
100
AcDbSpline
70
4
71
5
72
16
73
10
74
0
42
0.000000001
43
0.0000000001
44
0.0000000001
40
-1
40
-1
40
-1
40
-1
40
-1
40
-1
40
-0.80000000000000004
40
-0.60000000000000009
40
-0.40000000000000002
40
-0.20000000000000001
40
0
40
0
40
0
40
0
40
0
40
0
41
1
41
1
41
1
41
1
41
1
41
1
41
1
41
1
41
1
41
1
10
1.0214786244139797
20
2.0047646794238281
30
0
10
1.0046193079177581
20
2.0133549302397342
30
0
10
0.97402647349161464
20
2.0321841255307227
30
0
10
0.93750478076962684
20
2.0653686811264005
30
0
10
0.90374726421652452
20
2.1173811166974823
30
0
10
0.8695417998246171
20
2.185690853318849
30
0
10
0.83347916265360888
20
2.2341283823951295
30
0
10
0.79369029059464968
20
2.262246018480965
30
0
10
0.76015932560573796
20
2.2765186010074139
30
0
10
0.74164078649987353
20
2.2825356391083687
30
0
0
SPLINE
5
119
100
AcDbEntity
8
0
100
AcDbSpline
70
4
71
5
72
16
73
10
74
0
42
0.000000001
43
0.0000000001
44
0.0000000001
40
0
40
0
40
0
40
0
40
0
40
0
40
0.20000000000000001
40
0.40000000000000002
40
0.60000000000000009
40
0.80000000000000004
40
1
40
1
40
1
40
1
40
1
40
1
41
1
41
1
41
1
41
1
41
1
41
1
41
1
41
1
41
1
41
1
10
0.74164078649987308
20
2.2825356391083678
30
0
10
0.72312224739400865
20
2.2885526772093225
30
0
10
0.68760591335901355
20
2.2967149221074239
30
0
10
0.63888890785572428
20
2.2973545888739415
30
0
10
0.58124275627387545
20
2.2793648909735924
30
0
10
0.51341849850631294
20
2.2442066206830087
30
0
10
0.45553595136246489
20
2.221969846771104
30
0
10
0.40648388890401799
20
2.2165898897141623
30
0
10
0.37066624264259118
20
2.219338767634861
30
0
10
0.35197754634051903
20
2.2222987663390597
30
0
0
SPLINE
5
120
100
AcDbEntity
8
0
100
AcDbSpline
70
4
71
5
72
16
73
10
74
0
42
0.000000001
43
0.0000000001
44
0.0000000001
40
-1
40
-1
40
-1
40
-1
40
-1
40
-1
40
-0.80000000000000004
40
-0.60000000000000009
40
-0.40000000000000002
40
-0.20000000000000001
40
0
40
0
40
0
40
0
40
0
40
0
41
1
41
1
41
1
41
1
41
1
41
1
41
1
41
1
41
1
41
1
10
0.35197754634051892
20
2.2222987663390601
30
0
10
0.33328885003844672
20
2.2252587650432591
30
0
10
0.29837479417020407
20
2.2337126881775702
30
0
10
0.25338600869098371
20
2.2539872523027644
30
0
10
0.20520797608891767
20
2.2930223717782212
30
0
10
0.15156777678881339
20
2.3474187221207914
30
0
10
0.10230215106243702
20
2.3823415820342047
30
0
10
0.055771857622556216
20
2.3967876054032251
30
0
10
0.019471544317895287
20
2.3999999999999999
30
0
10
-2.9391523179536471e-16
20
2.3999999999999999
30
0
0
SPLINE
5
121
100
AcDbEntity
8
0
100
AcDbSpline
70
4
71
5
72
16
73
10
74
0
42
0.000000001
43
0.0000000001
44
0.0000000001
40
0
40
0
40
0
40
0
40
0
40
0
40
0.20000000000000001
40
0.40000000000000002
40
0.60000000000000009
40
0.80000000000000004
40
1
40
1
40
1
40
1
40
1
40
1
41
1
41
1
41
1
41
1
41
1
41
1
41
1
41
1
41
1
41
1
10
-4.163336342344337e-16
20
2.3999999999999995
30
0
10
-0.019471544317895967
20
2.3999999999999995
30
0
10
-0.055771857622556875
20
2.3967876054032247
30
0
10
-0.10230215106243785
20
2.3823415820342038
30
0
10
-0.15156777678881428
20
2.3474187221207905
30
0
10
-0.20520797608891855
20
2.2930223717782208
30
0
10
-0.25338600869098471
20
2.253987252302764
30
0
10
-0.29837479417020496
20
2.2337126881775697
30
0
10
-0.33328885003844755
20
2.2252587650432587
30
0
10
-0.35197754634051975
20
2.2222987663390597
30
0
0
SPLINE
5
122
100
AcDbEntity
8
0
100
AcDbSpline
70
4
71
5
72
16
73
10
74
0
42
0.000000001
43
0.0000000001
44
0.0000000001
40
-1
40
-1
40
-1
40
-1
40
-1
40
-1
40
-0.80000000000000004
40
-0.60000000000000009
40
-0.40000000000000002
40
-0.20000000000000001
40
0
40
0
40
0
40
0
40
0
40
0
41
1
41
1
41
1
41
1
41
1
41
1
41
1
41
1
41
1
41
1
10
-0.35197754634051992
20
2.2222987663390597
30
0
10
-0.37066624264259224
20
2.219338767634861
30
0
10
-0.40648388890401899
20
2.2165898897141627
30
0
10
-0.455535951362466
20
2.2219698467711044
30
0
10
-0.51341849850631394
20
2.2442066206830091
30
0
10
-0.58124275627387634
20
2.2793648909735928
30
0
10
-0.63888890785572527
20
2.2973545888739415
30
0
10
-0.68760591335901455
20
2.2967149221074248
30
0
10
-0.72312224739400965
20
2.288552677209323
30
0
10
-0.74164078649987408
20
2.2825356391083682
30
0
0
SPLINE
5
123
100
AcDbEntity
8
0
100
AcDbSpline
70
4
71
5
72
16
73
10
74
0
42
0.000000001
43
0.0000000001
44
0.0000000001
40
0
40
0
40
0
40
0
40
0
40
0
40
0.20000000000000001
40
0.40000000000000002
40
0.60000000000000009
40
0.80000000000000004
40
1
40
1
40
1
40
1
40
1
40
1
41
1
41
1
41
1
41
1
41
1
41
1
41
1
41
1
41
1
41
1
10
-0.74164078649987408
20
2.2825356391083678
30
0
10
-0.7601593256057384
20
2.276518601007413
30
0
10
-0.79369029059465057
20
2.2622460184809641
30
0
10
-0.83347916265360977
20
2.2341283823951286
30
0
10
-0.86954179982461777
20
2.1856908533188477
30
0
10
-0.90374726421652507
20
2.1173811166974814
30
0
10
-0.93750478076962773
20
2.0653686811263992
30
0
10
-0.97402647349161542
20
2.0321841255307218
30
0
10
-1.0046193079177588
20
2.0133549302397333
30
0
10
-1.0214786244139806
20
2.0047646794238276
30
0
0
SPLINE
5
124
100
AcDbEntity
8
0
100
AcDbSpline
70
4
71
5
72
16
73
10
74
0
42
0.000000001
43
0.0000000001
44
0.0000000001
40
-1
40
-1
40
-1
40
-1
40
-1
40
-1
40
-0.80000000000000004
40
-0.60000000000000009
40
-0.40000000000000002
40
-0.20000000000000001
40
0
40
0
40
0
40
0
40
0
40
0
41
1
41
1
41
1
41
1
41
1
41
1
41
1
41
1
41
1
41
1
10
-1.0214786244139809
20
2.0047646794238276
30
0
10
-1.0383379409102027
20
1.9961744286079215
30
0
10
-1.0715530967925295
20
1.9824918289556503
30
0
10
-1.1198668785909547
20
1.9724505512632411
30
0
10
-1.1817879932707249
20
1.9757122892483823
30
0
10
-1.2571571985960652
20
1.9881909430288642
30
0
10
-1.3175410690722
20
1.9874865219440667
30
0
10
-1.3636760267088994
20
1.9718237800819387
30
0
10
-1.3949317952420333
20
1.9530858730892919
30
0
10
-1.4106846055019355
20
1.9416407864998737
30
0
0
SPLINE
5
125
100
AcDbEntity
8
0
100
AcDbSpline
70
4
71
5
72
16
73
10
74
0
42
0.000000001
43
0.0000000001
44
0.0000000001
40
0
40
0
40
0
40
0
40
0
40
0
40
0.20000000000000001
40
0.40000000000000002
40
0.60000000000000009
40
0.80000000000000004
40
1
40
1
40
1
40
1
40
1
40
1
41
1
41
1
41
1
41
1
41
1
41
1
41
1
41
1
41
1
41
1
10
-1.4106846055019355
20
1.941640786499873
30
0
10
-1.4264374157618382
20
1.9301956999104548
30
0
10
-1.4539167879579158
20
1.9062600292749501
30
0
10
-1.4830694266134499
20
1.8672231305994715
30
0
10
-1.5023990130396232
20
1.8100123351904196
30
0
10
-1.5138214733451696
20
1.7344758452526767
30
0
10
-1.5298540529266429
20
1.6745774331716152
30
0
10
-1.5543336551461739
20
1.631731221617553
30
0
10
-1.5776106283437765
20
1.6043698869956877
30
0
10
-1.5909902576697321
20
1.5909902576697319
30
0
0
SPLINE
5
126
100
AcDbEntity
8
0
100
AcDbSpline
70
4
71
5
72
16
73
10
74
0
42
0.000000001
43
0.0000000001
44
0.0000000001
40
-1
40
-1
40
-1
40
-1
40
-1
40
-1
40
-0.80000000000000004
40
-0.60000000000000009
40
-0.40000000000000002
40
-0.20000000000000001
40
0
40
0
40
0
40
0
40
0
40
0
41
1
41
1
41
1
41
1
41
1
41
1
41
1
41
1
41
1
41
1
10
-1.5909902576697323
20
1.5909902576697319
30
0
10
-1.6043698869956882
20
1.5776106283437763
30
0
10
-1.6317312216175539
20
1.5543336551461739
30
0
10
-1.6745774331716161
20
1.5298540529266429
30
0
10
-1.7344758452526778
20
1.5138214733451696
30
0
10
-1.8100123351904207
20
1.5023990130396232
30
0
10
-1.8672231305994724
20
1.4830694266134494
30
0
10
-1.906260029274951
20
1.4539167879579153
30
0
10
-1.9301956999104557
20
1.4264374157618378
30
0
10
-1.9416407864998741
20
1.4106846055019353
30
0
0
SPLINE
5
127
100
AcDbEntity
8
0
100
AcDbSpline
70
4
71
5
72
16
73
10
74
0
42
0.000000001
43
0.0000000001
44
0.0000000001
40
0
40
0
40
0
40
0
40
0
40
0
40
0.20000000000000001
40
0.40000000000000002
40
0.60000000000000009
40
0.80000000000000004
40
1
40
1
40
1
40
1
40
1
40
1
41
1
41
1
41
1
41
1
41
1
41
1
41
1
41
1
41
1
41
1
10
-1.9416407864998737
20
1.4106846055019349
30
0
10
-1.9530858730892919
20
1.3949317952420324
30
0
10
-1.9718237800819391
20
1.3636760267088981
30
0
10
-1.9874865219440667
20
1.3175410690721989
30
0
10
-1.9881909430288645
20
1.2571571985960643
30
0
10
-1.9757122892483825
20
1.1817879932707238
30
0
10
-1.9724505512632411
20
1.1198668785909536
30
0
10
-1.9824918289556503
20
1.0715530967925284
30
0
10
-1.9961744286079217
20
1.0383379409102016
30
0
10
-2.0047646794238276
20
1.02147862441398
30
0
0
SPLINE
5
128
100
AcDbEntity
8
0
100
AcDbSpline
70
4
71
5
72
16
73
10
74
0
42
0.000000001
43
0.0000000001
44
0.0000000001
40
-1
40
-1
40
-1
40
-1
40
-1
40
-1
40
-0.80000000000000004
40
-0.60000000000000009
40
-0.40000000000000002
40
-0.20000000000000001
40
0
40
0
40
0
40
0
40
0
40
0
41
1
41
1
41
1
41
1
41
1
41
1
41
1
41
1
41
1
41
1
10
-2.0047646794238281
20
1.02147862441398
30
0
10
-2.0133549302397342
20
1.0046193079177583
30
0
10
-2.0321841255307227
20
0.97402647349161475
30
0
10
-2.0653686811264005
20
0.93750478076962707
30
0
10
-2.1173811166974823
20
0.90374726421652452
30
0
10
-2.185690853318849
20
0.86954179982461732
30
0
10
-2.2341283823951295
20
0.83347916265360922
30
0
10
-2.262246018480965
20
0.79369029059464979
30
0
10
-2.2765186010074139
20
0.76015932560573807
30
0
10
-2.2825356391083687
20
0.74164078649987364
30
0
0
SPLINE
5
129
100
AcDbEntity
8
0
100
AcDbSpline
70
4
71
5
72
16
73
10
74
0
42
0.000000001
43
0.0000000001
44
0.0000000001
40
0
40
0
40
0
40
0
40
0
40
0
40
0.20000000000000001
40
0.40000000000000002
40
0.60000000000000009
40
0.80000000000000004
40
1
40
1
40
1
40
1
40
1
40
1
41
1
41
1
41
1
41
1
41
1
41
1
41
1
41
1
41
1
41
1
10
-2.2825356391083678
20
0.74164078649987319
30
0
10
-2.2885526772093225
20
0.72312224739400888
30
0
10
-2.2967149221074239
20
0.68760591335901378
30
0
10
-2.2973545888739415
20
0.6388889078557245
30
0
10
-2.2793648909735924
20
0.58124275627387556
30
0
10
-2.2442066206830087
20
0.51341849850631305
30
0
10
-2.221969846771104
20
0.45553595136246505
30
0
10
-2.2165898897141623
20
0.40648388890401815
30
0
10
-2.219338767634861
20
0.37066624264259135
30
0
10
-2.2222987663390597
20
0.3519775463405192
30
0
0
SPLINE
5
130
100
AcDbEntity
8
0
100
AcDbSpline
70
4
71
5
72
16
73
10
74
0
42
0.000000001
43
0.0000000001
44
0.0000000001
40
-1
40
-1
40
-1
40
-1
40
-1
40
-1
40
-0.80000000000000004
40
-0.60000000000000009
40
-0.40000000000000002
40
-0.20000000000000001
40
0
40
0
40
0
40
0
40
0
40
0
41
1
41
1
41
1
41
1
41
1
41
1
41
1
41
1
41
1
41
1
10
-2.2222987663390601
20
0.35197754634051903
30
0
10
-2.2252587650432591
20
0.33328885003844683
30
0
10
-2.2337126881775702
20
0.29837479417020424
30
0
10
-2.2539872523027644
20
0.25338600869098388
30
0
10
-2.2930223717782212
20
0.2052079760889178
30
0
10
-2.3474187221207914
20
0.15156777678881356
30
0
10
-2.3823415820342047
20
0.10230215106243717
30
0
10
-2.3967876054032251
20
0.055771857622556362
30
0
10
-2.3999999999999999
20
0.019471544317895436
30
0
10
-2.3999999999999999
20
-1.4695761589768236e-16
30
0
0
SPLINE
5
131
100
AcDbEntity
8
0
100
AcDbSpline
70
4
71
5
72
16
73
10
74
0
42
0.000000001
43
0.0000000001
44
0.0000000001
40
0
40
0
40
0
40
0
40
0
40
0
40
0.20000000000000001
40
0.40000000000000002
40
0.60000000000000009
40
0.80000000000000004
40
1
40
1
40
1
40
1
40
1
40
1
41
1
41
1
41
1
41
1
41
1
41
1
41
1
41
1
41
1
41
1
10
-2.3999999999999995
20
-2.7755575615628914e-16
30
0
10
-2.3999999999999995
20
-0.019471544317895967
30
0
10
-2.3967876054032251
20
-0.055771857622556875
30
0
10
-2.3823415820342042
20
-0.10230215106243779
30
0
10
-2.3474187221207905
20
-0.1515677767888142
30
0
10
-2.2930223717782212
20
-0.20520797608891847
30
0
10
-2.253987252302764
20
-0.2533860086909846
30
0
10
-2.2337126881775697
20
-0.29837479417020485
30
0
10
-2.2252587650432591
20
-0.33328885003844744
30
0
10
-2.2222987663390597
20
-0.35197754634051975
30
0
0
SPLINE
5
132
100
AcDbEntity
8
0
100
AcDbSpline
70
4
71
5
72
16
73
10
74
0
42
0.000000001
43
0.0000000001
44
0.0000000001
40
-1
40
-1
40
-1
40
-1
40
-1
40
-1
40
-0.80000000000000004
40
-0.60000000000000009
40
-0.40000000000000002
40
-0.20000000000000001
40
0
40
0
40
0
40
0
40
0
40
0
41
1
41
1
41
1
41
1
41
1
41
1
41
1
41
1
41
1
41
1
10
-2.2222987663390601
20
-0.35197754634051992
30
0
10
-2.2193387676348615
20
-0.37066624264259218
30
0
10
-2.2165898897141627
20
-0.40648388890401899
30
0
10
-2.2219698467711044
20
-0.45553595136246594
30
0
10
-2.2442066206830096
20
-0.51341849850631383
30
0
10
-2.2793648909735928
20
-0.58124275627387634
30
0
10
-2.2973545888739419
20
-0.63888890785572527
30
0
10
-2.2967149221074248
20
-0.68760591335901455
30
0
10
-2.2885526772093234
20
-0.72312224739400965
30
0
10
-2.2825356391083687
20
-0.74164078649987408
30
0
0
SPLINE
5
133
100
AcDbEntity
8
0
100
AcDbSpline
70
4
71
5
72
16
73
10
74
0
42
0.000000001
43
0.0000000001
44
0.0000000001
40
0
40
0
40
0
40
0
40
0
40
0
40
0.20000000000000001
40
0.40000000000000002
40
0.60000000000000009
40
0.80000000000000004
40
1
40
1
40
1
40
1
40
1
40
1
41
1
41
1
41
1
41
1
41
1
41
1
41
1
41
1
41
1
41
1
10
-2.2825356391083678
20
-0.74164078649987408
30
0
10
-2.276518601007413
20
-0.7601593256057384
30
0
10
-2.2622460184809641
20
-0.79369029059465057
30
0
10
-2.2341283823951286
20
-0.83347916265360977
30
0
10
-2.1856908533188477
20
-0.86954179982461777
30
0
10
-2.1173811166974814
20
-0.90374726421652507
30
0
10
-2.0653686811263992
20
-0.93750478076962773
30
0
10
-2.0321841255307218
20
-0.97402647349161542
30
0
10
-2.0133549302397333
20
-1.0046193079177588
30
0
10
-2.0047646794238276
20
-1.0214786244139806
30
0
0
SPLINE
5
134
100
AcDbEntity
8
0
100
AcDbSpline
70
4
71
5
72
16
73
10
74
0
42
0.000000001
43
0.0000000001
44
0.0000000001
40
-1
40
-1
40
-1
40
-1
40
-1
40
-1
40
-0.80000000000000004
40
-0.60000000000000009
40
-0.40000000000000002
40
-0.20000000000000001
40
0
40
0
40
0
40
0
40
0
40
0
41
1
41
1
41
1
41
1
41
1
41
1
41
1
41
1
41
1
41
1
10
-2.0047646794238276
20
-1.0214786244139809
30
0
10
-1.9961744286079215
20
-1.0383379409102027
30
0
10
-1.9824918289556503
20
-1.0715530967925295
30
0
10
-1.9724505512632411
20
-1.1198668785909547
30
0
10
-1.9757122892483823
20
-1.1817879932707249
30
0
10
-1.9881909430288642
20
-1.2571571985960652
30
0
10
-1.9874865219440667
20
-1.3175410690722
30
0
10
-1.9718237800819387
20
-1.3636760267088994
30
0
10
-1.9530858730892919
20
-1.3949317952420333
30
0
10
-1.9416407864998737
20
-1.4106846055019355
30
0
0
SPLINE
5
135
100
AcDbEntity
8
0
100
AcDbSpline
70
4
71
5
72
16
73
10
74
0
42
0.000000001
43
0.0000000001
44
0.0000000001
40
0
40
0
40
0
40
0
40
0
40
0
40
0.20000000000000001
40
0.40000000000000002
40
0.60000000000000009
40
0.80000000000000004
40
1
40
1
40
1
40
1
40
1
40
1
41
1
41
1
41
1
41
1
41
1
41
1
41
1
41
1
41
1
41
1
10
-1.941640786499873
20
-1.4106846055019351
30
0
10
-1.9301956999104548
20
-1.4264374157618378
30
0
10
-1.9062600292749499
20
-1.4539167879579153
30
0
10
-1.8672231305994715
20
-1.4830694266134494
30
0
10
-1.8100123351904196
20
-1.5023990130396232
30
0
10
-1.7344758452526767
20
-1.5138214733451696
30
0
10
-1.6745774331716152
20
-1.5298540529266427
30
0
10
-1.631731221617553
20
-1.5543336551461737
30
0
10
-1.6043698869956873
20
-1.5776106283437763
30
0
10
-1.5909902576697319
20
-1.5909902576697319
30
0
0
SPLINE
5
136
100
AcDbEntity
8
0
100
AcDbSpline
70
4
71
5
72
16
73
10
74
0
42
0.000000001
43
0.0000000001
44
0.0000000001
40
-1
40
-1
40
-1
40
-1
40
-1
40
-1
40
-0.80000000000000004
40
-0.60000000000000009
40
-0.40000000000000002
40
-0.20000000000000001
40
0
40
0
40
0
40
0
40
0
40
0
41
1
41
1
41
1
41
1
41
1
41
1
41
1
41
1
41
1
41
1
10
-1.5909902576697319
20
-1.5909902576697321
30
0
10
-1.5776106283437763
20
-1.6043698869956879
30
0
10
-1.5543336551461739
20
-1.6317312216175539
30
0
10
-1.5298540529266429
20
-1.6745774331716159
30
0
10
-1.5138214733451696
20
-1.7344758452526776
30
0
10
-1.5023990130396232
20
-1.8100123351904205
30
0
10
-1.4830694266134494
20
-1.8672231305994722
30
0
10
-1.4539167879579153
20
-1.9062600292749508
30
0
10
-1.4264374157618378
20
-1.9301956999104555
30
0
10
-1.4106846055019353
20
-1.9416407864998739
30
0
0
SPLINE
5
137
100
AcDbEntity
8
0
100
AcDbSpline
70
4
71
5
72
16
73
10
74
0
42
0.000000001
43
0.0000000001
44
0.0000000001
40
0
40
0
40
0
40
0
40
0
40
0
40
0.20000000000000001
40
0.40000000000000002
40
0.60000000000000009
40
0.80000000000000004
40
1
40
1
40
1
40
1
40
1
40
1
41
1
41
1
41
1
41
1
41
1
41
1
41
1
41
1
41
1
41
1
10
-1.4106846055019351
20
-1.9416407864998737
30
0
10
-1.3949317952420326
20
-1.9530858730892919
30
0
10
-1.3636760267088988
20
-1.9718237800819387
30
0
10
-1.3175410690721994
20
-1.9874865219440667
30
0
10
-1.2571571985960648
20
-1.9881909430288645
30
0
10
-1.181787993270724
20
-1.9757122892483825
30
0
10
-1.1198668785909538
20
-1.9724505512632411
30
0
10
-1.0715530967925284
20
-1.9824918289556503
30
0
10
-1.0383379409102018
20
-1.9961744286079217
30
0
10
-1.0214786244139802
20
-2.0047646794238276
30
0
0
SPLINE
5
138
100
AcDbEntity
8
0
100
AcDbSpline
70
4
71
5
72
16
73
10
74
0
42
0.000000001
43
0.0000000001
44
0.0000000001
40
-1
40
-1
40
-1
40
-1
40
-1
40
-1
40
-0.80000000000000004
40
-0.60000000000000009
40
-0.40000000000000002
40
-0.20000000000000001
40
0
40
0
40
0
40
0
40
0
40
0
41
1
41
1
41
1
41
1
41
1
41
1
41
1
41
1
41
1
41
1
10
-1.0214786244139802
20
-2.0047646794238281
30
0
10
-1.0046193079177586
20
-2.0133549302397342
30
0
10
-0.97402647349161497
20
-2.0321841255307227
30
0
10
-0.9375047807696274
20
-2.0653686811264005
30
0
10
-0.90374726421652474
20
-2.1173811166974823
30
0
10
-0.86954179982461755
20
-2.185690853318849
30
0
10
-0.83347916265360955
20
-2.2341283823951295
30
0
10
-0.79369029059465013
20
-2.262246018480965
30
0
10
-0.76015932560573829
20
-2.2765186010074139
30
0
10
-0.74164078649987397
20
-2.2825356391083687
30
0
0
SPLINE
5
139
100
AcDbEntity
8
0
100
AcDbSpline
70
4
71
5
72
16
73
10
74
0
42
0.000000001
43
0.0000000001
44
0.0000000001
40
0
40
0
40
0
40
0
40
0
40
0
40
0.20000000000000001
40
0.40000000000000002
40
0.60000000000000009
40
0.80000000000000004
40
1
40
1
40
1
40
1
40
1
40
1
41
1
41
1
41
1
41
1
41
1
41
1
41
1
41
1
41
1
41
1
10
-0.74164078649987331
20
-2.2825356391083678
30
0
10
-0.72312224739400899
20
-2.2885526772093225
30
0
10
-0.68760591335901389
20
-2.2967149221074239
30
0
10
-0.63888890785572461
20
-2.2973545888739415
30
0
10
-0.58124275627387578
20
-2.2793648909735924
30
0
10
-0.51341849850631327
20
-2.2442066206830087
30
0
10
-0.45553595136246516
20
-2.221969846771104
30
0
10
-0.40648388890401832
20
-2.2165898897141623
30
0
10
-0.37066624264259151
20
-2.219338767634861
30
0
10
-0.35197754634051936
20
-2.2222987663390597
30
0
0
SPLINE
5
140
100
AcDbEntity
8
0
100
AcDbSpline
70
4
71
5
72
16
73
10
74
0
42
0.000000001
43
0.0000000001
44
0.0000000001
40
-1
40
-1
40
-1
40
-1
40
-1
40
-1
40
-0.80000000000000004
40
-0.60000000000000009
40
-0.40000000000000002
40
-0.20000000000000001
40
0
40
0
40
0
40
0
40
0
40
0
41
1
41
1
41
1
41
1
41
1
41
1
41
1
41
1
41
1
41
1
10
-0.3519775463405192
20
-2.2222987663390601
30
0
10
-0.33328885003844699
20
-2.2252587650432591
30
0
10
-0.29837479417020435
20
-2.2337126881775702
30
0
10
-0.25338600869098399
20
-2.2539872523027644
30
0
10
-0.20520797608891794
20
-2.2930223717782212
30
0
10
-0.1515677767888137
20
-2.3474187221207914
30
0
10
-0.10230215106243731
20
-2.3823415820342047
30
0
10
-0.055771857622556514
20
-2.3967876054032251
30
0
10
-0.019471544317895582
20
-2.3999999999999999
30
0
10
0
20
-2.3999999999999999
30
0
0
CIRCLE
5
141
100
AcDbEntity
8
0
100
AcDbCircle
10
0
20
0
30
0
40
5.7500000000000018
210
0
220
0
230
1
0
LINE
5
142
100
AcDbEntity
8
0
100
AcDbLine
10
0
20
0
30
0
11
-5.7500000000000018
21
0
31
0
0
LINE
5
143
100
AcDbEntity
8
0
100
AcDbLine
10
-5.7500000000000018
20
0
30
0
11
8.75
21
0
31
0
0
CIRCLE
5
144
100
AcDbEntity
8
0
100
AcDbCircle
10
6
20
0
30
0
40
2.75
210
0
220
0
230
1
0
LINE
5
145
100
AcDbEntity
8
0
100
AcDbLine
10
8.75
20
0
30
0
11
6
21
0
31
0
0
ENDSEC
0
SECTION
2
OBJECTS
0
DICTIONARY
5
C
100
AcDbDictionary
3
ACAD_GROUP
350
D
3
ACAD_MLINESTYLE
350
17
0
DICTIONARY
5
D
100
AcDbDictionary
0
DICTIONARY
5
1A
330
C
100
AcDbDictionary
0
DICTIONARY
5
17
100
AcDbDictionary
0
ENDSEC
0
EOF
