0
SECTION
2
HEADER
9
$INSUNITS
70
4
9
$ACADVER
1
AC1014
9
$HANDSEED
5
FFFF
0
ENDSEC
0
SECTION
2
TABLES
0
TABLE
2
VPORT
5
8
100
AcDbSymbolTable
0
ENDTAB
0
TABLE
2
LTYPE
5
5
100
AcDbSymbolTable
0
LTYPE
5
14
100
AcDbSymbolTableRecord
100
AcDbLinetypeTableRecord
2
BYBLOCK
70
0
0
LTYPE
5
15
100
AcDbSymbolTableRecord
100
AcDbLinetypeTableRecord
2
BYLAYER
70
0
0
ENDTAB
0
TABLE
2
LAYER
5
2
100
AcDbSymbolTable
70
2
0
LAYER
5
50
100
AcDbSymbolTableRecord
100
AcDbLayerTableRecord
2
0
70
0
6
CONTINUOUS
0
ENDTAB
0
TABLE
2
STYLE
5
3
100
AcDbSymbolTable
70
1
0
STYLE
5
11
100
AcDbSymbolTableRecord
100
AcDbTextStyleTableRecord
2
STANDARD
70
0
0
ENDTAB
0
TABLE
2
VIEW
5
6
100
AcDbSymbolTable
70
0
0
ENDTAB
0
TABLE
2
UCS
5
7
100
AcDbSymbolTable
70
0
0
ENDTAB
0
TABLE
2
APPID
5
9
100
AcDbSymbolTable
70
2
0
APPID
5
12
100
AcDbSymbolTableRecord
100
AcDbRegAppTableRecord
2
ACAD
70
0
0
ENDTAB
0
TABLE
2
DIMSTYLE
5
A
100
AcDbSymbolTable
70
1
0
ENDTAB
0
TABLE
2
BLOCK_RECORD
5
1
100
AcDbSymbolTable
70
1
0
BLOCK_RECORD
5
1F
100
AcDbSymbolTableRecord
100
AcDbBlockTableRecord
2
*MODEL_SPACE
0
BLOCK_RECORD
5
1B
100
AcDbSymbolTableRecord
100
AcDbBlockTableRecord
2
*PAPER_SPACE
0
ENDTAB
0
ENDSEC
0
SECTION
2
BLOCKS
0
BLOCK
5
20
100
AcDbEntity
100
AcDbBlockBegin
2
*MODEL_SPACE
0
ENDBLK
5
21
100
AcDbEntity
100
AcDbBlockEnd
0
BLOCK
5
1C
100
AcDbEntity
100
AcDbBlockBegin
2
*PAPER_SPACE
0
ENDBLK
5
1D
100
AcDbEntity
100
AcDbBlockEnd
0
ENDSEC
0
SECTION
2
ENTITIES
0
SPLINE
5
100
100
AcDbEntity
8
0
100
AcDbSpline
70
6
71
5
72
71
73
65
74
0
42
0.000000001
43
0.0000000001
44
0.0000000001
40
0
40
0
40
0
40
0
40
0
40
0
40
0.016666666666666666
40
0.033333333333333333
40
0.050000000000000003
40
0.066666666666666666
40
0.083333333333333329
40
0.099999999999999992
40
0.11666666666666665
40
0.13333333333333333
40
0.14999999999999999
40
0.16666666666666666
40
0.18333333333333332
40
0.19999999999999998
40
0.21666666666666665
40
0.23333333333333331
40
0.24999999999999997
40
0.26666666666666666
40
0.28333333333333333
40
0.29999999999999999
40
0.31666666666666665
40
0.33333333333333331
40
0.34999999999999998
40
0.36666666666666664
40
0.3833333333333333
40
0.39999999999999997
40
0.41666666666666663
40
0.43333333333333329
40
0.44999999999999996
40
0.46666666666666662
40
0.48333333333333328
40
0.49999999999999994
40
0.51666666666666661
40
0.53333333333333333
40
0.55000000000000004
40
0.56666666666666676
40
0.58333333333333348
40
0.6000000000000002
40
0.61666666666666692
40
0.63333333333333364
40
0.65000000000000036
40
0.66666666666666707
40
0.68333333333333379
40
0.70000000000000051
40
0.71666666666666723
40
0.73333333333333395
40
0.75000000000000067
40
0.76666666666666738
40
0.7833333333333341
40
0.80000000000000082
40
0.81666666666666754
40
0.83333333333333426
40
0.85000000000000098
40
0.8666666666666677
40
0.88333333333333441
40
0.90000000000000113
40
0.91666666666666785
40
0.93333333333333457
40
0.95000000000000129
40
0.96666666666666801
40
0.98333333333333472
40
1
40
1
40
1
40
1
40
1
40
1
41
1
41
1
41
1
41
1
41
1
41
1
41
1
41
1
41
1
41
1
41
1
41
1
41
1
41
1
41
1
41
1
41
1
41
1
41
1
41
1
41
1
41
1
41
1
41
1
41
1
41
1
41
1
41
1
41
1
41
1
41
1
41
1
41
1
41
1
41
1
41
1
41
1
41
1
41
1
41
1
41
1
41
1
41
1
41
1
41
1
41
1
41
1
41
1
41
1
41
1
41
1
41
1
41
1
41
1
41
1
41
1
41
1
41
1
41
1
41
1
41
1
41
1
41
1
41
1
41
1
10
-328.60974927034249
20
268.25848696190803
30
0
10
-322.38863234239693
20
268.63459216182969
30
0
10
-309.79348289886411
20
268.92228353634215
30
0
10
-290.5224870939042
20
267.95056020214582
30
0
10
-264.43438748329481
20
263.98117364190841
30
0
10
-232.1530148727123
20
255.45784498181922
30
0
10
-201.13820298393765
20
244.54129464254191
30
0
10
-172.14646274642647
20
232.36880986693654
30
0
10
-145.64320096532748
20
219.78119767253685
30
0
10
-121.63138076737644
20
206.95942695897827
30
0
10
-99.712938250074714
20
193.43418450263457
30
0
10
-79.354507090145404
20
178.42334334274523
30
0
10
-60.09654274527071
20
161.07775105267115
30
0
10
-41.783482353471754
20
140.76252577716556
30
0
10
-24.791224340213422
20
117.32842827074818
30
0
10
-9.8323211898166534
20
91.017566989261681
30
0
10
2.2459185624824829
20
62.360741381206104
30
0
10
10.662992245154182
20
32.078195749874951
30
0
10
14.900721588557582
20
0.98048536189527891
30
0
10
14.918611332034191
20
-30.133458471955752
30
0
10
10.989411941519467
20
-60.507118380361895
30
0
10
3.5159605472684308
20
-89.452450020401528
30
0
10
-7.1516015211947117
20
-116.37859304046216
30
0
10
-20.883171867186974
20
-140.81781048315855
30
0
10
-37.983693736162408
20
-162.45769220290723
30
0
10
-59.018344376578717
20
-181.12686097048041
30
0
10
-84.567621495660021
20
-196.77226097323384
30
0
10
-115.00157886810388
20
-209.43959853574506
30
0
10
-150.25777839340856
20
-219.25277615165501
30
0
10
-189.58469262825531
20
-226.39376231237162
30
0
10
-231.70770447852834
20
-231.08500989262387
30
0
10
-275.04614352828247
20
-233.57238509444528
30
0
10
-317.91148419763493
20
-234.10797457634709
30
0
10
-358.71296265957625
20
-232.93303495602959
30
0
10
-396.16049476748947
20
-230.26081107422368
30
0
10
-429.46824485488025
20
-226.25959233254133
30
0
10
-458.56167419362862
20
-221.03515791151892
30
0
10
-483.87051679991066
20
-214.60364692575197
30
0
10
-506.11450306911769
20
-206.86060724454504
30
0
10
-526.0997107405575
20
-197.55832465134685
30
0
10
-544.49378393851543
20
-186.26277825749642
30
0
10
-561.6636569384118
20
-172.37360055659977
30
0
10
-577.6525967332791
20
-155.31802839628799
30
0
10
-592.14802421405113
20
-134.69641535740772
30
0
10
-604.41278661800573
20
-110.48068083751849
30
0
10
-613.36950753148858
20
-83.072846796013664
30
0
10
-617.90321481193325
20
-53.171729774364138
30
0
10
-617.12676241402005
20
-21.685483916966867
30
0
10
-610.62708954368725
20
10.37251099576876
30
0
10
-598.80507897373786
20
41.983699569406532
30
0
10
-582.837316779498
20
72.212605577141233
30
0
10
-564.2726210656989
20
100.27916845524375
30
0
10
-544.73001383119356
20
125.63607754482967
30
0
10
-525.55548823220965
20
148.04417272478855
30
0
10
-507.49617437704615
20
167.64995000127445
30
0
10
-490.36560306069589
20
185.06148029708964
30
0
10
-473.36654742267996
20
201.0628410053364
30
0
10
-455.42375225510193
20
216.31087017371175
30
0
10
-435.49297311055574
20
231.07114742135093
30
0
10
-412.92867978171415
20
244.85462523398297
30
0
10
-387.51547398382638
20
256.62079163968815
30
0
10
-365.01493998224544
20
263.45670444263214
30
0
10
-347.12018446653701
20
266.6656523368124
30
0
10
-334.83086619828759
20
267.88238176198638
30
0
10
-328.60974927034249
20
268.25848696190803
30
0
0
CIRCLE
5
101
100
AcDbEntity
8
0
100
AcDbCircle
10
-306.66882823282191
20
14.492233897576787
30
0
40
234.75508519004353
210
0
220
0
230
1
0
ENDSEC
0
SECTION
2
OBJECTS
0
DICTIONARY
5
C
100
AcDbDictionary
3
ACAD_GROUP
350
D
3
ACAD_MLINESTYLE
350
17
0
DICTIONARY
5
D
100
AcDbDictionary
0
DICTIONARY
5
1A
330
C
100
AcDbDictionary
0
DICTIONARY
5
17
100
AcDbDictionary
0
ENDSEC
0
EOF
