0
SECTION
2
HEADER
9
$INSUNITS
70
4
9
$ACADVER
1
AC1014
9
$HANDSEED
5
FFFF
0
ENDSEC
0
SECTION
2
TABLES
0
TABLE
2
VPORT
5
8
100
AcDbSymbolTable
0
ENDTAB
0
TABLE
2
LTYPE
5
5
100
AcDbSymbolTable
0
LTYPE
5
14
100
AcDbSymbolTableRecord
100
AcDbLinetypeTableRecord
2
BYBLOCK
70
0
0
LTYPE
5
15
100
AcDbSymbolTableRecord
100
AcDbLinetypeTableRecord
2
BYLAYER
70
0
0
ENDTAB
0
TABLE
2
LAYER
5
2
100
AcDbSymbolTable
70
2
0
LAYER
5
50
100
AcDbSymbolTableRecord
100
AcDbLayerTableRecord
2
0
70
0
6
CONTINUOUS
0
ENDTAB
0
TABLE
2
STYLE
5
3
100
AcDbSymbolTable
70
1
0
STYLE
5
11
100
AcDbSymbolTableRecord
100
AcDbTextStyleTableRecord
2
STANDARD
70
0
0
ENDTAB
0
TABLE
2
VIEW
5
6
100
AcDbSymbolTable
70
0
0
ENDTAB
0
TABLE
2
UCS
5
7
100
AcDbSymbolTable
70
0
0
ENDTAB
0
TABLE
2
APPID
5
9
100
AcDbSymbolTable
70
2
0
APPID
5
12
100
AcDbSymbolTableRecord
100
AcDbRegAppTableRecord
2
ACAD
70
0
0
ENDTAB
0
TABLE
2
DIMSTYLE
5
A
100
AcDbSymbolTable
70
1
0
ENDTAB
0
TABLE
2
BLOCK_RECORD
5
1
100
AcDbSymbolTable
70
1
0
BLOCK_RECORD
5
1F
100
AcDbSymbolTableRecord
100
AcDbBlockTableRecord
2
*MODEL_SPACE
0
BLOCK_RECORD
5
1B
100
AcDbSymbolTableRecord
100
AcDbBlockTableRecord
2
*PAPER_SPACE
0
ENDTAB
0
ENDSEC
0
SECTION
2
BLOCKS
0
BLOCK
5
20
100
AcDbEntity
100
AcDbBlockBegin
2
*MODEL_SPACE
0
ENDBLK
5
21
100
AcDbEntity
100
AcDbBlockEnd
0
BLOCK
5
1C
100
AcDbEntity
100
AcDbBlockBegin
2
*PAPER_SPACE
0
ENDBLK
5
1D
100
AcDbEntity
100
AcDbBlockEnd
0
ENDSEC
0
SECTION
2
ENTITIES
0
LWPOLYLINE
5
100
100
AcDbEntity
8
0
100
AcDbPolyline
90
44
70
1
43
0.0
10
93.000000312924385
20
39.500000588595867
10
95.999999999999972
20
36.500000588595888
10
96
20
21.999999998617707
10
90.4999998801961
20
21.999999998617707
10
90.499999880196
20
6.5000000968575105
10
77.500300192124897
20
6.5000000968575105
10
77.500300192124897
20
21.999999998617707
10
66.499999880196128
20
21.999999998617707
10
66.499999880196015
20
6.5000000968575105
10
53.500300192124911
20
6.5000000968575105
10
53.500300192124911
20
21.999999998617707
10
42.499999880196114
20
21.999999998617707
10
42.499999880196015
20
6.5000000968575105
10
29.500300192124911
20
6.5000000968575105
10
29.500300192124907
20
21.999999998617707
10
18.499999880196118
20
21.999999998617707
10
18.499999880196011
20
6.5000000968575105
10
5.5003001921249108
20
6.5000000968575105
10
5.5003001921249082
20
21.999999998617707
10
-2.2204460492502772e-15
20
21.999999998617707
10
-3.8857805861880479e-15
20
36.500000589389728
10
2.999999689556474
20
39.500000589191266
10
2.9999996899864856
20
46.000000686048821
10
1.000000002910876
20
46.00000068624729
10
0.99999999999999423
20
46.99999999861771
10
10.110034998413756
20
46.999999998617703
10
10.110034998413763
20
34.392750174766171
10
14.110034998413763
20
34.392750174766171
10
14.110034998413754
20
46.99999999861771
10
34.110034998413752
20
46.999999998617703
10
34.110034998413767
20
34.392750174766171
10
38.110034998413759
20
34.392750174766171
10
38.110034998413752
20
46.99999999861771
10
58.110034998413767
20
46.999999998617703
10
58.110034998413767
20
34.392750174766171
10
62.110034998413767
20
34.392750174766171
10
62.110034998413759
20
46.99999999861771
10
82.110034998413752
20
46.999999998617703
10
82.110034998413752
20
34.392750174766171
10
86.110034998413752
20
34.392750174766171
10
86.110034998413738
20
46.99999999861771
10
94.999999999999986
20
46.99999999861771
10
94.999999999999986
20
46.000000685453422
10
93.000000312924385
20
46.000000685453415
0
LWPOLYLINE
5
101
100
AcDbEntity
8
0
100
AcDbPolyline
90
4
70
1
43
0.0
10
74.999999689986481
20
46.000000686048821
10
69.000000312924385
20
46.000000685453422
10
69.000000312924385
20
39.500000588595867
10
74.999999689556475
20
39.500000589191266
0
LWPOLYLINE
5
102
100
AcDbEntity
8
0
100
AcDbPolyline
90
4
70
1
43
0.0
10
21.000000312924385
20
39.500000588595867
10
26.999999689556475
20
39.500000589191259
10
26.999999689986485
20
46.000000686048821
10
21.000000312924385
20
46.000000685453415
0
LWPOLYLINE
5
103
100
AcDbEntity
8
0
100
AcDbPolyline
90
4
70
1
43
0.0
10
50.999999689986488
20
46.000000686048821
10
45.000000312924385
20
46.000000685453422
10
45.000000312924385
20
39.500000588595867
10
50.999999689556489
20
39.500000589191266
0
CIRCLE
5
104
100
AcDbEntity
8
0
100
AcDbCircle
10
3.0000000447034836
20
31.000000461935997
30
0
40
1.4999999999999987
210
0
220
0
230
1
0
CIRCLE
5
105
100
AcDbEntity
8
0
100
AcDbCircle
10
93.000000312924385
20
31.242308162119016
30
0
40
1.4999999999999958
210
0
220
0
230
1
0
CIRCLE
5
106
100
AcDbEntity
8
0
100
AcDbCircle
10
48.000000715255737
20
30.000000447034836
30
0
40
1.4999999999999971
210
0
220
0
230
1
0
CIRCLE
5
107
100
AcDbEntity
8
0
100
AcDbCircle
10
62.353252446733556
20
-10.851599301809813
30
0
40
1.9999999999999982
210
0
220
0
230
1
0
CIRCLE
5
108
100
AcDbEntity
8
0
100
AcDbCircle
10
79.000001177191734
20
-53.000000789761543
30
0
40
2
210
0
220
0
230
1
0
CIRCLE
5
109
100
AcDbEntity
8
0
100
AcDbCircle
10
43.000000640749931
20
-54.000000804662704
30
0
40
1.999999999999996
210
0
220
0
230
1
0
CIRCLE
5
110
100
AcDbEntity
8
0
100
AcDbCircle
10
32.000000476837158
20
-36.000000536441803
30
0
40
1.9999999999999984
210
0
220
0
230
1
0
ENDSEC
0
SECTION
2
OBJECTS
0
DICTIONARY
5
C
100
AcDbDictionary
3
ACAD_GROUP
350
D
3
ACAD_MLINESTYLE
350
17
0
DICTIONARY
5
D
100
AcDbDictionary
0
DICTIONARY
5
1A
330
C
100
AcDbDictionary
0
DICTIONARY
5
17
100
AcDbDictionary
0
ENDSEC
0
EOF
