0
SECTION
2
HEADER
9
$INSUNITS
70
4
9
$ACADVER
1
AC1014
9
$HANDSEED
5
FFFF
0
ENDSEC
0
SECTION
2
TABLES
0
TABLE
2
VPORT
5
8
100
AcDbSymbolTable
0
ENDTAB
0
TABLE
2
LTYPE
5
5
100
AcDbSymbolTable
0
LTYPE
5
14
100
AcDbSymbolTableRecord
100
AcDbLinetypeTableRecord
2
BYBLOCK
70
0
0
LTYPE
5
15
100
AcDbSymbolTableRecord
100
AcDbLinetypeTableRecord
2
BYLAYER
70
0
0
ENDTAB
0
TABLE
2
LAYER
5
2
100
AcDbSymbolTable
70
2
0
LAYER
5
50
100
AcDbSymbolTableRecord
100
AcDbLayerTableRecord
2
0
70
0
6
CONTINUOUS
0
ENDTAB
0
TABLE
2
STYLE
5
3
100
AcDbSymbolTable
70
1
0
STYLE
5
11
100
AcDbSymbolTableRecord
100
AcDbTextStyleTableRecord
2
STANDARD
70
0
0
ENDTAB
0
TABLE
2
VIEW
5
6
100
AcDbSymbolTable
70
0
0
ENDTAB
0
TABLE
2
UCS
5
7
100
AcDbSymbolTable
70
0
0
ENDTAB
0
TABLE
2
APPID
5
9
100
AcDbSymbolTable
70
2
0
APPID
5
12
100
AcDbSymbolTableRecord
100
AcDbRegAppTableRecord
2
ACAD
70
0
0
ENDTAB
0
TABLE
2
DIMSTYLE
5
A
100
AcDbSymbolTable
70
1
0
ENDTAB
0
TABLE
2
BLOCK_RECORD
5
1
100
AcDbSymbolTable
70
1
0
BLOCK_RECORD
5
1F
100
AcDbSymbolTableRecord
100
AcDbBlockTableRecord
2
*MODEL_SPACE
0
BLOCK_RECORD
5
1B
100
AcDbSymbolTableRecord
100
AcDbBlockTableRecord
2
*PAPER_SPACE
0
ENDTAB
0
ENDSEC
0
SECTION
2
BLOCKS
0
BLOCK
5
20
100
AcDbEntity
100
AcDbBlockBegin
2
*MODEL_SPACE
0
ENDBLK
5
21
100
AcDbEntity
100
AcDbBlockEnd
0
BLOCK
5
1C
100
AcDbEntity
100
AcDbBlockBegin
2
*PAPER_SPACE
0
ENDBLK
5
1D
100
AcDbEntity
100
AcDbBlockEnd
0
ENDSEC
0
SECTION
2
ENTITIES
0
LINE
5
100
100
AcDbEntity
8
0
100
AcDbLine
10
95.99889814125973
20
-60.00000000019152
30
0
11
95.99889814125973
21
-29.000000000191509
31
2.3786429960329363e-31
0
LINE
5
101
100
AcDbEntity
8
0
100
AcDbLine
10
95.99889814125973
20
-29.000000000191509
30
2.3786429960329363e-31
11
72.00001896218825
21
-29.000000000191509
31
0
0
LINE
5
102
100
AcDbEntity
8
0
100
AcDbLine
10
72.00001896218825
20
-29.000000000191509
30
0
11
72.00001896218825
21
-9.0000000001914984
31
2.2204460492503127e-15
0
ARC
5
103
100
AcDbEntity
8
0
100
AcDbCircle
10
74.000018962188236
20
-9.0000000001915019
30
2.2204460492503131e-15
40
2.0000000000000009
210
-3.4992336843782645e-48
220
0
230
1
100
AcDbArc
50
90
51
180
0
LINE
5
104
100
AcDbEntity
8
0
100
AcDbLine
10
74.000018962188236
20
-7.000000000191501
30
2.2204460492503131e-15
11
95.99889814125973
21
-7.0000000001915028
31
2.2201749987071917e-15
0
LINE
5
105
100
AcDbEntity
8
0
100
AcDbLine
10
95.99889814125973
20
-7.0000000001915028
30
2.2201749987071917e-15
11
95.99889814125973
21
-1.91500149071544e-10
31
-2.3786429960329363e-31
0
LINE
5
106
100
AcDbEntity
8
0
100
AcDbLine
10
95.99889814125973
20
-1.91500149071544e-10
30
-2.3786429960329363e-31
11
93.185091537699932
21
-1.91500149071544e-10
31
3.3881317890172014e-20
0
LINE
5
107
100
AcDbEntity
8
0
100
AcDbLine
10
93.185091537699932
20
-1.91500149071544e-10
30
3.3881317890172014e-20
11
93.185091537699932
21
-5.0000000001914984
31
2.2204460492503131e-15
0
LINE
5
108
100
AcDbEntity
8
0
100
AcDbLine
10
93.185091537699932
20
-5.0000000001914984
30
2.2204460492503131e-15
11
74.813004737663135
21
-5.0000000001914984
31
2.2204460492503131e-15
0
LINE
5
109
100
AcDbEntity
8
0
100
AcDbLine
10
74.813004737663135
20
-5.0000000001914984
30
2.2204460492503131e-15
11
74.813004737663121
21
-1.91500149071544e-10
31
0
0
LINE
5
110
100
AcDbEntity
8
0
100
AcDbLine
10
74.813004737663121
20
-1.91500149071544e-10
30
0
11
69.185091458110804
21
-1.91500149071544e-10
31
0
0
LINE
5
111
100
AcDbEntity
8
0
100
AcDbLine
10
69.185091458110804
20
-1.91500149071544e-10
30
0
11
69.185091458110819
21
-5.0000000001914984
31
0
0
LINE
5
112
100
AcDbEntity
8
0
100
AcDbLine
10
69.185091458110819
20
-5.0000000001914984
30
0
11
50.813004658074014
21
-5.0000000001914984
31
0
0
LINE
5
113
100
AcDbEntity
8
0
100
AcDbLine
10
50.813004658074014
20
-5.0000000001914984
30
0
11
50.813004658074021
21
-1.91500149071544e-10
31
0
0
LINE
5
114
100
AcDbEntity
8
0
100
AcDbLine
10
50.813004658074021
20
-1.91500149071544e-10
30
0
11
45.185091378521676
21
-1.91500149071544e-10
31
-6.7762635780344027e-20
0
LINE
5
115
100
AcDbEntity
8
0
100
AcDbLine
10
45.185091378521676
20
-1.91500149071544e-10
30
-6.7762635780344027e-20
11
45.185091378521676
21
-5.0000000001914984
31
0
0
LINE
5
116
100
AcDbEntity
8
0
100
AcDbLine
10
45.185091378521676
20
-5.0000000001914984
30
0
11
26.813004578484883
21
-5.0000000001914984
31
0
0
LINE
5
117
100
AcDbEntity
8
0
100
AcDbLine
10
26.813004578484883
20
-5.0000000001914984
30
0
11
26.813004578484893
21
-1.91500149071544e-10
31
2.2204460492503131e-15
0
LINE
5
118
100
AcDbEntity
8
0
100
AcDbLine
10
26.813004578484893
20
-1.91500149071544e-10
30
2.2204460492503131e-15
11
21.185091298932566
21
-1.91500149071544e-10
31
2.2204460492503131e-15
0
LINE
5
119
100
AcDbEntity
8
0
100
AcDbLine
10
21.185091298932566
20
-1.91500149071544e-10
30
2.2204460492503131e-15
11
21.185091298932551
21
-5.0000000001914984
31
2.2204460492503131e-15
0
LINE
5
120
100
AcDbEntity
8
0
100
AcDbLine
10
21.185091298932551
20
-5.0000000001914984
30
2.2204460492503131e-15
11
2.8130044988957636
21
-5.0000000001914984
31
2.2204460492503131e-15
0
LINE
5
121
100
AcDbEntity
8
0
100
AcDbLine
10
2.8130044988957636
20
-5.0000000001914984
30
2.2204460492503131e-15
11
2.8130044988957712
21
-1.91500149071544e-10
31
0
0
LINE
5
122
100
AcDbEntity
8
0
100
AcDbLine
10
2.8130044988957712
20
-1.91500149071544e-10
30
0
11
-0.0011021770413827126
21
-1.91500149071544e-10
31
-3.3881317890172014e-20
0
LINE
5
123
100
AcDbEntity
8
0
100
AcDbLine
10
-0.0011021770413827126
20
-1.91500149071544e-10
30
-3.3881317890172014e-20
11
-0.0015494587402970831
21
-1.91500149071544e-10
31
4.1359030627651384e-24
0
LINE
5
124
100
AcDbEntity
8
0
100
AcDbLine
10
-0.0015494587402970831
20
-1.91500149071544e-10
30
4.1359030627651384e-24
11
-0.0015494587402969941
21
-22.69999996520739
31
3.8171969113574241e-31
0
LINE
5
125
100
AcDbEntity
8
0
100
AcDbLine
10
-0.0015494587402969941
20
-22.69999996520739
30
3.8171969113574241e-31
11
3.000959098639024
21
-22.69999996520739
31
0
0
LINE
5
126
100
AcDbEntity
8
0
100
AcDbLine
10
3.000959098639024
20
-22.69999996520739
30
0
11
3.000959098639024
21
-10.000407207674815
31
-2.3786429960329363e-31
0
LINE
5
127
100
AcDbEntity
8
0
100
AcDbLine
10
3.000959098639024
20
-10.000407207674815
30
-2.3786429960329363e-31
11
7.499867559088166
21
-5.5022314671756192
31
-6.7762635780344027e-20
0
LINE
5
128
100
AcDbEntity
8
0
100
AcDbLine
10
7.499867559088166
20
-5.5022314671756192
30
-6.7762635780344027e-20
11
26.898670332643903
21
-5.5022314671756201
31
0
0
ARC
5
129
100
AcDbEntity
8
0
100
AcDbCircle
10
26.898670332643903
20
-7.5022314671756192
30
2.2204460492503131e-15
40
2.0000000000000018
210
-0
220
3.009265538105056e-36
230
1
100
AcDbArc
50
0
51
90
0
LINE
5
130
100
AcDbEntity
8
0
100
AcDbLine
10
28.898670332643906
20
-7.5022314671756192
30
2.2204460492503131e-15
11
28.898670332643906
21
-22.702353574679282
31
-2.3786429960329363e-31
0
LINE
5
131
100
AcDbEntity
8
0
100
AcDbLine
10
28.898670332643906
20
-22.702353574679282
30
-2.3786429960329363e-31
11
32.398670321037166
21
-22.702638613671805
31
0
0
LINE
5
132
100
AcDbEntity
8
0
100
AcDbLine
10
32.398670321037166
20
-22.702638613671805
30
0
11
32.398548161468938
21
-24.202638608697487
31
2.2204460513182646e-15
0
LINE
5
133
100
AcDbEntity
8
0
100
AcDbLine
10
32.398548161468938
20
-24.202638608697487
30
2.2204460513182646e-15
11
27.398548178050007
21
-24.202231410136736
31
2.2205138118860934e-15
0
LINE
5
134
100
AcDbEntity
8
0
100
AcDbLine
10
27.398548178050007
20
-24.202231410136736
30
2.2205138118860934e-15
11
27.399948941098991
21
-7.0022314671756192
31
0
0
LINE
5
135
100
AcDbEntity
8
0
100
AcDbLine
10
27.399948941098991
20
-7.0022314671756192
30
0
11
7.9999490054335549
21
-7.0006515367599054
31
2.2204460492503131e-15
0
LINE
5
136
100
AcDbEntity
8
0
100
AcDbLine
10
7.9999490054335549
20
-7.0006515367599054
30
2.2204460492503131e-15
11
4.9997046962457405
21
-10.000407207674815
31
3.3881317890172014e-20
0
LINE
5
137
100
AcDbEntity
8
0
100
AcDbLine
10
4.9997046962457405
20
-10.000407207674815
30
3.3881317890172014e-20
11
4.9985482523332117
21
-24.200407160584554
31
0
0
LINE
5
138
100
AcDbEntity
8
0
100
AcDbLine
10
4.9985482523332117
20
-24.200407160584554
30
0
11
-0.0014517310857176113
21
-24.199999962023824
31
6.7762635780344027e-20
0
LINE
5
139
100
AcDbEntity
8
0
100
AcDbLine
10
-0.0014517310857176113
20
-24.199999962023824
30
6.7762635780344027e-20
11
-0.0015494587402969941
21
-22.69999996520739
31
3.8171969113574241e-31
0
LINE
5
140
100
AcDbEntity
8
0
100
AcDbLine
10
-0.0015494587402969941
20
-22.69999996520739
30
3.8171969113574241e-31
11
-0.0015494587402970831
21
-60.00000000019152
31
-3.8171969113574241e-31
0
LINE
5
141
100
AcDbEntity
8
0
100
AcDbLine
10
-0.0015494587402970831
20
-60.00000000019152
30
-3.8171969113574241e-31
11
95.99889814125973
21
-60.00000000019152
31
0
0
LINE
5
142
100
AcDbEntity
8
0
100
AcDbLine
10
42.43484316450192
20
-32.703847769895489
30
0
11
42.43484316450192
21
-25.226331176949266
31
-1.3258823960890877e-31
0
LWPOLYLINE
5
143
100
AcDbEntity
8
0
100
AcDbPolyline
90
6
70
1
43
0.0
10
42.524843164501902
20
-24.101331176949277
10
42.524843164501917
20
-46.511331176949255
10
45.494843117563263
20
-46.511331176949255
10
45.494843117563263
20
-48.011331176949255
10
41.024843164501902
20
-48.011331176949255
10
41.024843164501902
20
-24.101331176949277
0
LINE
5
144
100
AcDbEntity
8
0
100
AcDbLine
10
42.524843164501917
20
-46.511331176949255
30
2.2204460492503131e-15
11
45.494843117563263
21
-46.511331176949255
31
2.2204121679324229e-15
0
LINE
5
145
100
AcDbEntity
8
0
100
AcDbLine
10
50.624843117563231
20
-46.511331176949255
30
0
11
50.624843117563231
21
-48.011331176949255
31
-2.7329753441098047e-25
0
LINE
5
146
100
AcDbEntity
8
0
100
AcDbLine
10
50.624843117563245
20
-46.511331176949255
30
2.2204460492503131e-15
11
53.594843164501889
21
-46.511331176949263
31
0
0
LINE
5
147
100
AcDbEntity
8
0
100
AcDbLine
10
53.594843164501889
20
-46.511331176949263
30
0
11
53.594843164501881
21
-24.101331176949277
31
0
0
LINE
5
148
100
AcDbEntity
8
0
100
AcDbLine
10
53.594843164501881
20
-24.101331176949277
30
0
11
55.094843164501881
21
-24.101331176949277
31
0
0
LINE
5
149
100
AcDbEntity
8
0
100
AcDbLine
10
50.624843117563231
20
-48.011331176949255
30
-2.7329753441098047e-25
11
55.094843164501881
21
-48.011331176949255
31
0
0
LINE
5
150
100
AcDbEntity
8
0
100
AcDbLine
10
55.094843164501881
20
-48.011331176949255
30
0
11
55.094843164501881
21
-24.101331176949277
31
0
0
ENDSEC
0
SECTION
2
OBJECTS
0
DICTIONARY
5
C
100
AcDbDictionary
3
ACAD_GROUP
350
D
3
ACAD_MLINESTYLE
350
17
0
DICTIONARY
5
D
100
AcDbDictionary
0
DICTIONARY
5
1A
330
C
100
AcDbDictionary
0
DICTIONARY
5
17
100
AcDbDictionary
0
ENDSEC
0
EOF
