0
SECTION
2
HEADER
9
$INSUNITS
70
4
9
$ACADVER
1
AC1014
9
$HANDSEED
5
FFFF
0
ENDSEC
0
SECTION
2
TABLES
0
TABLE
2
VPORT
5
8
100
AcDbSymbolTable
0
ENDTAB
0
TABLE
2
LTYPE
5
5
100
AcDbSymbolTable
0
LTYPE
5
14
100
AcDbSymbolTableRecord
100
AcDbLinetypeTableRecord
2
BYBLOCK
70
0
0
LTYPE
5
15
100
AcDbSymbolTableRecord
100
AcDbLinetypeTableRecord
2
BYLAYER
70
0
0
ENDTAB
0
TABLE
2
LAYER
5
2
100
AcDbSymbolTable
70
2
0
LAYER
5
50
100
AcDbSymbolTableRecord
100
AcDbLayerTableRecord
2
0
70
0
6
CONTINUOUS
0
ENDTAB
0
TABLE
2
STYLE
5
3
100
AcDbSymbolTable
70
1
0
STYLE
5
11
100
AcDbSymbolTableRecord
100
AcDbTextStyleTableRecord
2
STANDARD
70
0
0
ENDTAB
0
TABLE
2
VIEW
5
6
100
AcDbSymbolTable
70
0
0
ENDTAB
0
TABLE
2
UCS
5
7
100
AcDbSymbolTable
70
0
0
ENDTAB
0
TABLE
2
APPID
5
9
100
AcDbSymbolTable
70
2
0
APPID
5
12
100
AcDbSymbolTableRecord
100
AcDbRegAppTableRecord
2
ACAD
70
0
0
ENDTAB
0
TABLE
2
DIMSTYLE
5
A
100
AcDbSymbolTable
70
1
0
ENDTAB
0
TABLE
2
BLOCK_RECORD
5
1
100
AcDbSymbolTable
70
1
0
BLOCK_RECORD
5
1F
100
AcDbSymbolTableRecord
100
AcDbBlockTableRecord
2
*MODEL_SPACE
0
BLOCK_RECORD
5
1B
100
AcDbSymbolTableRecord
100
AcDbBlockTableRecord
2
*PAPER_SPACE
0
ENDTAB
0
ENDSEC
0
SECTION
2
BLOCKS
0
BLOCK
5
20
100
AcDbEntity
100
AcDbBlockBegin
2
*MODEL_SPACE
0
ENDBLK
5
21
100
AcDbEntity
100
AcDbBlockEnd
0
BLOCK
5
1C
100
AcDbEntity
100
AcDbBlockBegin
2
*PAPER_SPACE
0
ENDBLK
5
1D
100
AcDbEntity
100
AcDbBlockEnd
0
ENDSEC
0
SECTION
2
ENTITIES
0
SPLINE
5
100
100
AcDbEntity
8
0
100
AcDbSpline
70
4
71
5
72
106
73
100
74
0
42
0.000000001
43
0.0000000001
44
0.0000000001
40
0
40
0
40
0
40
0
40
0
40
0
40
0.010526315789473684
40
0.021052631578947368
40
0.031578947368421054
40
0.042105263157894736
40
0.052631578947368418
40
0.063157894736842107
40
0.073684210526315796
40
0.084210526315789486
40
0.094736842105263175
40
0.10526315789473686
40
0.11578947368421055
40
0.12631578947368424
40
0.13684210526315793
40
0.14736842105263162
40
0.15789473684210531
40
0.168421052631579
40
0.17894736842105269
40
0.18947368421052638
40
0.20000000000000007
40
0.21052631578947376
40
0.22105263157894744
40
0.23157894736842113
40
0.24210526315789482
40
0.25263157894736848
40
0.26315789473684215
40
0.27368421052631581
40
0.28421052631578947
40
0.29473684210526313
40
0.30526315789473679
40
0.31578947368421045
40
0.32631578947368411
40
0.33684210526315778
40
0.34736842105263144
40
0.3578947368421051
40
0.36842105263157876
40
0.37894736842105242
40
0.38947368421052608
40
0.39999999999999974
40
0.41052631578947341
40
0.42105263157894707
40
0.43157894736842073
40
0.44210526315789439
40
0.45263157894736805
40
0.46315789473684171
40
0.47368421052631537
40
0.48421052631578904
40
0.4947368421052627
40
0.50526315789473641
40
0.51578947368421013
40
0.52631578947368385
40
0.53684210526315757
40
0.54736842105263128
40
0.557894736842105
40
0.56842105263157872
40
0.57894736842105243
40
0.58947368421052615
40
0.59999999999999987
40
0.61052631578947358
40
0.6210526315789473
40
0.63157894736842102
40
0.64210526315789473
40
0.65263157894736845
40
0.66315789473684217
40
0.67368421052631589
40
0.6842105263157896
40
0.69473684210526332
40
0.70526315789473704
40
0.71578947368421075
40
0.72631578947368447
40
0.73684210526315819
40
0.7473684210526319
40
0.75789473684210562
40
0.76842105263157934
40
0.77894736842105305
40
0.78947368421052677
40
0.80000000000000049
40
0.81052631578947421
40
0.82105263157894792
40
0.83157894736842164
40
0.84210526315789536
40
0.85263157894736907
40
0.86315789473684279
40
0.87368421052631651
40
0.88421052631579022
40
0.89473684210526394
40
0.90526315789473766
40
0.91578947368421137
40
0.92631578947368509
40
0.93684210526315881
40
0.94736842105263253
40
0.95789473684210624
40
0.96842105263157996
40
0.97894736842105368
40
0.98947368421052739
40
1
40
1
40
1
40
1
40
1
40
1
41
1
41
1
41
1
41
1
41
1
41
1
41
1
41
1
41
1
41
1
41
1
41
1
41
1
41
1
41
1
41
1
41
1
41
1
41
1
41
1
41
1
41
1
41
1
41
1
41
1
41
1
41
1
41
1
41
1
41
1
41
1
41
1
41
1
41
1
41
1
41
1
41
1
41
1
41
1
41
1
41
1
41
1
41
1
41
1
41
1
41
1
41
1
41
1
41
1
41
1
41
1
41
1
41
1
41
1
41
1
41
1
41
1
41
1
41
1
41
1
41
1
41
1
41
1
41
1
41
1
41
1
41
1
41
1
41
1
41
1
41
1
41
1
41
1
41
1
41
1
41
1
41
1
41
1
41
1
41
1
41
1
41
1
41
1
41
1
41
1
41
1
41
1
41
1
41
1
41
1
41
1
41
1
41
1
41
1
41
1
41
1
41
1
41
1
41
1
41
1
10
-3.1655269020614818e-15
20
29.250000294003719
30
7.1525511624592752e-08
10
-3.255761302690082e-15
20
30.255910947453323
30
7.1525511624592752e-08
10
0.0036276235207287305
20
32.308826955677269
30
7.1525511624592752e-08
10
0.032724393464433441
20
35.45972355574893
30
7.1525511624592752e-08
10
0.21408460540415189
20
39.555100514531922
30
7.1525511624592752e-08
10
0.87212459994832636
20
44.026983678270554
30
7.1525511624592752e-08
10
2.1586811140941378
20
47.465639360981328
30
7.1525511624592752e-08
10
4.2054462193213631
20
49.663855980739278
30
7.1525511624592752e-08
10
7.0609638328553856
20
50.615440740681748
30
7.1525511624592752e-08
10
10.645948701254406
20
50.57830880000607
30
7.1525511624592752e-08
10
14.79345803287039
20
49.971879912418409
30
7.1525511624592752e-08
10
19.292466136811125
20
49.265109222094665
30
7.1525511624592752e-08
10
23.93058765225102
20
48.867070100345806
30
7.1525511624592752e-08
10
28.536842915172937
20
49.017550701066085
30
7.1525511624592752e-08
10
33.025220228393238
20
49.674611845717401
30
7.1525511624592752e-08
10
37.376338688372755
20
50.610066681030304
30
7.1525511624592752e-08
10
41.618361229804883
20
51.505676701385141
30
7.1525511624592752e-08
10
45.807850707214016
20
52.053780698739764
30
7.1525511624592752e-08
10
50.011527588021146
20
52.045149768286116
30
7.1525511624592752e-08
10
54.285557503481328
20
51.489186432372549
30
7.1525511624592752e-08
10
58.664107693007743
20
50.615052682391237
30
7.1525511624592752e-08
10
63.15736094367881
20
49.749931325422409
30
7.1525511624592752e-08
10
67.747081100127645
20
49.231366996032122
30
7.1525511624592752e-08
10
72.382908109513593
20
49.303718174221984
30
7.1525511624592752e-08
10
76.978899154695426
20
50.026033294398431
30
7.1525511624592752e-08
10
81.408372436548632
20
51.162345931927121
30
7.1525511624592752e-08
10
85.524062612355351
20
52.277157610243904
30
7.1525511624592752e-08
10
89.180542828360942
20
52.848646745322853
30
7.1525511624592752e-08
10
92.255974145950148
20
52.376109002110816
30
7.1525511624592752e-08
10
94.673818194837551
20
50.488336660434143
30
7.1525511624592752e-08
10
96.425509928015245
20
47.055724352455393
30
7.1525511624592752e-08
10
97.557952280314595
20
42.14646434211339
30
7.1525511624592752e-08
10
98.159831190426502
20
35.97739678778894
30
7.1525511624592752e-08
10
98.348391567178936
20
28.866902139643802
30
7.1525511624592752e-08
10
98.256062290744893
20
21.18713948567002
30
7.1525511624592752e-08
10
98.017120438905465
20
13.316345785343543
30
7.1525511624592752e-08
10
97.754442099617407
20
5.5917766833331894
30
7.1525511624592752e-08
10
97.565938611893273
20
-1.7394272753075701
30
7.1525511624592752e-08
10
97.519974385713482
20
-8.5141587698258423
30
7.1525511624592752e-08
10
97.651306960653827
20
-14.64480561453081
30
7.1525511624592752e-08
10
97.956529634681232
20
-20.111865501562459
30
7.1525511624592752e-08
10
98.390332082464411
20
-24.955685281766268
30
7.1525511624592752e-08
10
98.859904022915032
20
-29.269652837704538
30
7.1525511624592752e-08
10
99.223547211269803
20
-33.190407818756363
30
7.1525511624592752e-08
10
99.278883565664245
20
-36.895324177405982
30
7.1525511624592752e-08
10
98.791084746049179
20
-40.572356955680334
30
7.1525511624592752e-08
10
97.551051736027432
20
-44.370261535641582
30
7.1525511624592752e-08
10
95.42912248961423
20
-48.350009580067656
30
7.1525511624592752e-08
10
92.421741262546902
20
-52.445284910469425
30
7.1525511624592752e-08
10
88.723381794352818
20
-56.395112386560001
30
7.1525511624592752e-08
10
84.688019486088876
20
-59.795741330420753
30
7.1525511624592752e-08
10
80.717367584820096
20
-62.230747088464696
30
7.1525511624592752e-08
10
77.167636188062488
20
-63.382310239337102
30
7.1525511624592752e-08
10
74.255969272148505
20
-63.140461563545415
30
7.1525511624592752e-08
10
71.949435835924774
20
-61.736841625338492
30
7.1525511624592752e-08
10
69.915990557681425
20
-59.794673552524237
30
7.1525511624592752e-08
10
67.729567046251418
20
-58.035254418231148
30
7.1525511624592752e-08
10
65.021659909907811
20
-57.058246976636454
30
7.1525511624592752e-08
10
61.685539718816557
20
-57.046649379880286
30
7.1525511624592752e-08
10
57.833875733674148
20
-57.831924582550052
30
7.1525511624592752e-08
10
53.692105460872767
20
-59.053118383836605
30
7.1525511624592752e-08
10
49.516958980456927
20
-60.279782175721088
30
7.1525511624592752e-08
10
45.496226916340696
20
-61.160572120580383
30
7.1525511624592752e-08
10
41.681242744089815
20
-61.529112699601484
30
7.1525511624592752e-08
10
38.050997055905981
20
-61.339048275377628
30
7.1525511624592752e-08
10
34.5618755444371
20
-60.619140018802639
30
7.1525511624592752e-08
10
31.196954039578809
20
-59.42542142496449
30
7.1525511624592752e-08
10
28.030058405711603
20
-57.783073574810587
30
7.1525511624592752e-08
10
25.223225943948595
20
-55.680744685245514
30
7.1525511624592752e-08
10
22.961457073690561
20
-53.115865794400214
30
7.1525511624592752e-08
10
21.408667630617536
20
-50.121599118468147
30
7.1525511624592752e-08
10
20.646923539104943
20
-46.810383083763078
30
7.1525511624592752e-08
10
20.648893437897161
20
-43.38080556947564
30
7.1525511624592752e-08
10
21.320446331468176
20
-40.042192354140326
30
7.1525511624592752e-08
10
22.527998232701933
20
-36.959582373785068
30
7.1525511624592752e-08
10
24.135172110026168
20
-34.181424295912187
30
7.1525511624592752e-08
10
26.025379891650399
20
-31.602572904269909
30
7.1525511624592752e-08
10
28.081852812391279
20
-29.046619234670025
30
7.1525511624592752e-08
10
30.174881732649009
20
-26.327765270158551
30
7.1525511624592752e-08
10
32.144648293342442
20
-23.324601908364194
30
7.1525511624592752e-08
10
33.790453567802309
20
-20.037642517003675
30
7.1525511624592752e-08
10
34.900327770323493
20
-16.54658437023021
30
7.1525511624592752e-08
10
35.277572108186497
20
-12.975574886968559
30
7.1525511624592752e-08
10
34.767231429066463
20
-9.4577061018558179
30
7.1525511624592752e-08
10
33.285756831983385
20
-6.0942608152902409
30
7.1525511624592752e-08
10
30.830234560218418
20
-2.9493926608611987
30
7.1525511624592752e-08
10
27.47887102498288
20
-0.058275199918981641
30
7.1525511624592752e-08
10
23.396049241978439
20
2.568810137544685
30
7.1525511624592752e-08
10
18.831862910062359
20
4.9415839366385592
30
7.1525511624592752e-08
10
14.133463614089274
20
7.0830248071280266
30
7.1525511624592752e-08
10
9.6950429955814048
20
9.0364712202055912
30
7.1525511624592752e-08
10
5.8885897525336066
20
10.876791274078972
30
7.1525511624592752e-08
10
2.9969174748453304
20
12.722149949591113
30
7.1525511624592752e-08
10
1.1546963041955034
20
14.74124798511032
30
7.1525511624592752e-08
10
0.26396016484232254
20
17.17320643966929
30
7.1525511624592752e-08
10
0.0012102037306501105
20
20.299579382846392
30
7.1525511624592752e-08
10
0.0071794652636123077
20
23.492318746813339
30
7.1525511624592752e-08
10
0.003627623520728544
20
26.273363034978235
30
7.1525511624592752e-08
10
-3.0752925014328912e-15
20
28.244089640554215
30
7.1525511624592752e-08
10
-3.1655269020614818e-15
20
29.250000294003719
30
7.1525511624592752e-08
0
ENDSEC
0
SECTION
2
OBJECTS
0
DICTIONARY
5
C
100
AcDbDictionary
3
ACAD_GROUP
350
D
3
ACAD_MLINESTYLE
350
17
0
DICTIONARY
5
D
100
AcDbDictionary
0
DICTIONARY
5
1A
330
C
100
AcDbDictionary
0
DICTIONARY
5
17
100
AcDbDictionary
0
ENDSEC
0
EOF
