0
SECTION
2
HEADER
9
$INSUNITS
70
4
9
$ACADVER
1
AC1014
9
$HANDSEED
5
FFFF
0
ENDSEC
0
SECTION
2
TABLES
0
TABLE
2
VPORT
5
8
100
AcDbSymbolTable
0
ENDTAB
0
TABLE
2
LTYPE
5
5
100
AcDbSymbolTable
0
LTYPE
5
14
100
AcDbSymbolTableRecord
100
AcDbLinetypeTableRecord
2
BYBLOCK
70
0
0
LTYPE
5
15
100
AcDbSymbolTableRecord
100
AcDbLinetypeTableRecord
2
BYLAYER
70
0
0
ENDTAB
0
TABLE
2
LAYER
5
2
100
AcDbSymbolTable
70
2
0
LAYER
5
50
100
AcDbSymbolTableRecord
100
AcDbLayerTableRecord
2
0
70
0
6
CONTINUOUS
0
ENDTAB
0
TABLE
2
STYLE
5
3
100
AcDbSymbolTable
70
1
0
STYLE
5
11
100
AcDbSymbolTableRecord
100
AcDbTextStyleTableRecord
2
STANDARD
70
0
0
ENDTAB
0
TABLE
2
VIEW
5
6
100
AcDbSymbolTable
70
0
0
ENDTAB
0
TABLE
2
UCS
5
7
100
AcDbSymbolTable
70
0
0
ENDTAB
0
TABLE
2
APPID
5
9
100
AcDbSymbolTable
70
2
0
APPID
5
12
100
AcDbSymbolTableRecord
100
AcDbRegAppTableRecord
2
ACAD
70
0
0
ENDTAB
0
TABLE
2
DIMSTYLE
5
A
100
AcDbSymbolTable
70
1
0
ENDTAB
0
TABLE
2
BLOCK_RECORD
5
1
100
AcDbSymbolTable
70
1
0
BLOCK_RECORD
5
1F
100
AcDbSymbolTableRecord
100
AcDbBlockTableRecord
2
*MODEL_SPACE
0
BLOCK_RECORD
5
1B
100
AcDbSymbolTableRecord
100
AcDbBlockTableRecord
2
*PAPER_SPACE
0
ENDTAB
0
ENDSEC
0
SECTION
2
BLOCKS
0
BLOCK
5
20
100
AcDbEntity
100
AcDbBlockBegin
2
*MODEL_SPACE
0
ENDBLK
5
21
100
AcDbEntity
100
AcDbBlockEnd
0
BLOCK
5
1C
100
AcDbEntity
100
AcDbBlockBegin
2
*PAPER_SPACE
0
ENDBLK
5
1D
100
AcDbEntity
100
AcDbBlockEnd
0
ENDSEC
0
SECTION
2
ENTITIES
0
SPLINE
5
100
100
AcDbEntity
8
0
100
AcDbSpline
70
0
71
3
72
9
73
5
74
0
42
0.000000001
43
0.0000000001
44
0.0000000001
40
72.281911688074203
40
72.281911688074203
40
72.281911688074203
40
72.281911688074203
40
72.454905280693097
40
72.6280193368179
40
72.6280193368179
40
72.6280193368179
40
72.6280193368179
10
73.902653572486571
20
-8.5249999970198704
30
0
10
73.834784066504795
20
-8.0531404010058623
30
0
10
73.765279071923615
20
-7.1001751689573496
30
0
10
73.834735690433192
20
-6.1471946575748824
30
0
10
73.902651481635132
20
-5.674999997019853
30
0
0
SPLINE
5
101
100
AcDbEntity
8
0
100
AcDbSpline
70
0
71
3
72
10
73
6
74
0
42
0.000000001
43
0.0000000001
44
0.0000000001
40
0
40
0
40
0
40
0
40
0.26995727679732057
40
0.26995727679732057
40
0.54003357420842346
40
0.54003357420842346
40
0.54003357420842346
40
0.54003357420842346
10
73.902651480609748
20
-5.6749999970199028
30
0
10
74.030759750406403
20
-4.7843081579002043
30
0
10
74.276804050956414
20
-3.9101703777083356
30
0
10
74.982656529373102
20
-2.2541430802904339
30
0
10
75.442929235555212
20
-1.4714255576770374
30
0
10
75.999999996379145
20
-0.76419917855047148
30
0
0
LINE
5
102
100
AcDbEntity
8
0
100
AcDbLine
10
75.999999996379145
20
-0.76419917855047148
30
0
11
75.999999996379159
21
0.23580082144957853
31
0
0
LINE
5
103
100
AcDbEntity
8
0
100
AcDbLine
10
75.999999996379159
20
0.23580082144957853
30
0
11
71.999999997404586
21
0.23580082144971587
31
0
0
LINE
5
104
100
AcDbEntity
8
0
100
AcDbLine
10
71.999999997404586
20
0.23580082144971587
30
0
11
72.001120900458545
21
-13.527792156197666
31
0
0
LINE
5
105
100
AcDbEntity
8
0
100
AcDbLine
10
72.001120900458545
20
-13.527792156197666
30
0
11
95.999999999944635
21
-13.525837694385405
31
0
0
LINE
5
106
100
AcDbEntity
8
0
100
AcDbLine
10
95.999999999944635
20
-13.525837694385405
30
0
11
95.998879256061471
21
0.23580082144965431
31
0
0
LINE
5
107
100
AcDbEntity
8
0
100
AcDbLine
10
95.998879256061471
20
0.23580082144965431
30
0
11
91.999999996379216
21
0.23580082144957851
31
0
0
LINE
5
108
100
AcDbEntity
8
0
100
AcDbLine
10
91.999999996379216
20
0.23580082144957851
30
0
11
91.999999996379216
21
-0.76381823584351471
31
0
0
SPLINE
5
109
100
AcDbEntity
8
0
100
AcDbSpline
70
0
71
3
72
10
73
6
74
0
42
0.000000001
43
0.0000000001
44
0.0000000001
40
0
40
0
40
0
40
0
40
0.27004722561659522
40
0.27004722561659522
40
0.54009509938346911
40
0.54009509938346911
40
0.54009509938346911
40
0.54009509938346911
10
91.999999996379231
20
-0.76381823584352992
30
0
10
92.557031969014673
20
-1.4709241401761743
30
0
10
93.017293350962518
20
-2.2535066872512814
30
0
10
93.72334273721242
20
-3.9096257284729443
30
0
10
93.969500425013138
20
-4.7840307830052886
30
0
10
94.097648589660423
20
-5.6749999970198486
30
0
0
SPLINE
5
110
100
AcDbEntity
8
0
100
AcDbSpline
70
0
71
3
72
9
73
5
74
0
42
0.000000001
43
0.0000000001
44
0.0000000001
40
86.284400262925402
40
86.284400262925402
40
86.284400262925402
40
86.284400262925402
40
86.457514319050304
40
86.630507911669199
40
86.630507911669199
40
86.630507911669199
40
86.630507911669199
10
94.097648590685807
20
-5.6749999970198415
30
0
10
94.165564381887705
20
-6.1471946575748726
30
0
10
94.235021000397253
20
-7.1001751689570636
30
0
10
94.165516005816116
20
-8.0531404010058623
30
0
10
94.097646499834411
20
-8.5249999970198704
30
0
0
SPLINE
5
111
100
AcDbEntity
8
0
100
AcDbSpline
70
0
71
3
72
10
73
6
74
0
42
0.000000001
43
0.0000000001
44
0.0000000001
40
0
40
0
40
0
40
0
40
0.15733999329433868
40
0.15733999329433868
40
0.31479282849572265
40
0.31479282849572265
40
0.31479282849572265
40
0.31479282849572265
10
94.097646498808999
20
-8.5249999970199912
30
0
10
94.022978723650468
20
-9.0441242445285699
30
0
10
93.908258905578052
20
-9.5575356161315028
30
0
10
93.603111928737519
20
-10.561507393945291
30
0
10
93.412551944123351
20
-11.052309714282886
30
0
10
93.186193404690556
20
-11.525837694391106
30
0
0
LINE
5
112
100
AcDbEntity
8
0
100
AcDbLine
10
93.186193404690556
20
-11.525837694391106
30
0
11
93.186193404690556
21
-13.52583769439109
31
0
0
LINE
5
113
100
AcDbEntity
8
0
100
AcDbLine
10
93.186193404690556
20
-13.52583769439109
30
0
11
88.223557404800118
21
-13.525837694391074
31
0
0
LINE
5
114
100
AcDbEntity
8
0
100
AcDbLine
10
88.223557404800118
20
-13.525837694391074
30
0
11
88.223557404800118
21
-11.525837694391075
31
0
0
ARC
5
115
100
AcDbEntity
8
0
100
AcDbCircle
10
83.999999998974616
20
-7.2641991785504212
30
0
40
5.9999999999999929
210
-0
220
0
230
1
100
AcDbArc
50
-45.257138698318066
51
225.2571386983179
0
LINE
5
116
100
AcDbEntity
8
0
100
AcDbLine
10
79.776442593149099
20
-11.525837694391065
30
0
11
79.776442593149113
21
-13.525837694391074
31
0
0
LINE
5
117
100
AcDbEntity
8
0
100
AcDbLine
10
79.776442593149113
20
-13.525837694391074
30
0
11
74.814106665579573
21
-13.525837694391072
31
0
0
LINE
5
118
100
AcDbEntity
8
0
100
AcDbLine
10
74.814106665579573
20
-13.525837694391072
30
0
11
74.814106665579573
21
-11.525837694391072
31
0
0
SPLINE
5
119
100
AcDbEntity
8
0
100
AcDbSpline
70
0
71
3
72
10
73
6
74
0
42
0.000000001
43
0.0000000001
44
0.0000000001
40
0
40
0
40
0
40
0
40
0.15745483247181072
40
0.15745483247181072
40
0.31479682160502487
40
0.31479682160502487
40
0.31479682160502487
40
0.31479682160502487
10
74.814106665579573
20
-11.525837694391072
30
0
10
74.587748126146934
20
-11.052309714283144
30
0
10
74.397188141532823
20
-10.561507393946069
30
0
10
74.092041164691963
20
-9.5575356161310054
30
0
10
73.977321346619675
20
-9.0441242445282715
30
0
10
73.902653571461187
20
-8.5249999970198722
30
0
0
CIRCLE
5
120
100
AcDbEntity
8
0
100
AcDbCircle
10
84.110034998413724
20
-7.3535714285713887
30
0
40
6.0799101995197056
210
0
220
0
230
1
0
LINE
5
121
100
AcDbEntity
8
0
100
AcDbLine
10
83.360034998413738
20
-7.3535714285713887
30
4.4408920985006262e-15
11
84.860034998413738
21
-7.3535714285713887
31
4.4408920985006262e-15
0
LINE
5
122
100
AcDbEntity
8
0
100
AcDbLine
10
79.776442593149113
20
-13.335191169071871
30
0
11
79.776442593149099
21
-11.525837694391065
31
0
0
LINE
5
123
100
AcDbEntity
8
0
100
AcDbLine
10
88.223557404800118
20
-13.525837694391074
30
0
11
88.223557404800118
21
-11.830650995251089
31
0
0
LINE
5
124
100
AcDbEntity
8
0
100
AcDbLine
10
88.223557404800118
20
-13.525837694391074
30
0
11
79.776442593149113
21
-13.525837694391074
31
0
0
ENDSEC
0
SECTION
2
OBJECTS
0
DICTIONARY
5
C
100
AcDbDictionary
3
ACAD_GROUP
350
D
3
ACAD_MLINESTYLE
350
17
0
DICTIONARY
5
D
100
AcDbDictionary
0
DICTIONARY
5
1A
330
C
100
AcDbDictionary
0
DICTIONARY
5
17
100
AcDbDictionary
0
ENDSEC
0
EOF
