0
SECTION
2
HEADER
9
$INSUNITS
70
4
9
$ACADVER
1
AC1014
9
$HANDSEED
5
FFFF
0
ENDSEC
0
SECTION
2
TABLES
0
TABLE
2
VPORT
5
8
100
AcDbSymbolTable
0
ENDTAB
0
TABLE
2
LTYPE
5
5
100
AcDbSymbolTable
0
LTYPE
5
14
100
AcDbSymbolTableRecord
100
AcDbLinetypeTableRecord
2
BYBLOCK
70
0
0
LTYPE
5
15
100
AcDbSymbolTableRecord
100
AcDbLinetypeTableRecord
2
BYLAYER
70
0
0
ENDTAB
0
TABLE
2
LAYER
5
2
100
AcDbSymbolTable
70
2
0
LAYER
5
50
100
AcDbSymbolTableRecord
100
AcDbLayerTableRecord
2
0
70
0
6
CONTINUOUS
0
ENDTAB
0
TABLE
2
STYLE
5
3
100
AcDbSymbolTable
70
1
0
STYLE
5
11
100
AcDbSymbolTableRecord
100
AcDbTextStyleTableRecord
2
STANDARD
70
0
0
ENDTAB
0
TABLE
2
VIEW
5
6
100
AcDbSymbolTable
70
0
0
ENDTAB
0
TABLE
2
UCS
5
7
100
AcDbSymbolTable
70
0
0
ENDTAB
0
TABLE
2
APPID
5
9
100
AcDbSymbolTable
70
2
0
APPID
5
12
100
AcDbSymbolTableRecord
100
AcDbRegAppTableRecord
2
ACAD
70
0
0
ENDTAB
0
TABLE
2
DIMSTYLE
5
A
100
AcDbSymbolTable
70
1
0
ENDTAB
0
TABLE
2
BLOCK_RECORD
5
1
100
AcDbSymbolTable
70
1
0
BLOCK_RECORD
5
1F
100
AcDbSymbolTableRecord
100
AcDbBlockTableRecord
2
*MODEL_SPACE
0
BLOCK_RECORD
5
1B
100
AcDbSymbolTableRecord
100
AcDbBlockTableRecord
2
*PAPER_SPACE
0
ENDTAB
0
ENDSEC
0
SECTION
2
BLOCKS
0
BLOCK
5
20
100
AcDbEntity
100
AcDbBlockBegin
2
*MODEL_SPACE
0
ENDBLK
5
21
100
AcDbEntity
100
AcDbBlockEnd
0
BLOCK
5
1C
100
AcDbEntity
100
AcDbBlockBegin
2
*PAPER_SPACE
0
ENDBLK
5
1D
100
AcDbEntity
100
AcDbBlockEnd
0
ENDSEC
0
SECTION
2
ENTITIES
0
SPLINE
5
100
100
AcDbEntity
8
0
100
AcDbSpline
70
0
71
3
72
12
73
8
74
0
42
0.000000001
43
0.0000000001
44
0.0000000001
40
-0.13021948194259592
40
-0.13021948194259592
40
-0.13021948194259592
40
-0.13021948194259592
40
-0.089322128091302744
40
-0.089322128091302744
40
-0.053311776470663756
40
-0.053311776470663756
40
-0.0049864121124662741
40
-0.0049864121124662741
40
-0.0049864121124662741
40
-0.0049864121124662741
10
-9.406301550122647
20
19.314575631237723
30
0
10
-9.285009834092639
20
19.303326735574345
30
0
10
-9.1753448143581355
20
19.292029145578976
30
0
10
-8.9531766979540777
20
19.226898422644354
30
0
10
-8.8433208145173019
20
19.17862948286335
30
0
10
-8.5861703936963849
20
18.987754238765156
30
0
10
-8.4958249620441233
20
18.860596458006995
30
0
10
-8.4100654910582264
20
18.725523361884868
30
0
0
SPLINE
5
101
100
AcDbEntity
8
0
100
AcDbSpline
70
0
71
3
72
10
73
6
74
0
42
0.000000001
43
0.0000000001
44
0.0000000001
40
-2.6850331379872974
40
-2.6850331379872974
40
-2.6850331379872974
40
-2.6850331379872974
40
-1.4055519780151244
40
-1.4055519780151244
40
-0.15796062596854751
40
-0.15796062596854751
40
-0.15796062596854751
40
-0.15796062596854751
10
-34.966396465978555
20
21.372993234209034
30
0
10
-30.670439333942902
20
21.080360904087286
30
0
10
-26.297812044683049
20
20.753310328443479
30
0
10
-17.862537151108743
20
20.073450336540105
30
0
10
-13.578333566087647
20
19.7040030103934
30
0
10
-9.4062559860606356
20
19.315076882715729
30
0
0
SPLINE
5
102
100
AcDbEntity
8
0
100
AcDbSpline
70
0
71
3
72
12
73
8
74
0
42
0.000000001
43
0.0000000001
44
0.0000000001
40
-0.086914792971087174
40
-0.086914792971087174
40
-0.086914792971087174
40
-0.086914792971087174
40
-0.066689730543494141
40
-0.066689730543494141
40
-0.041620579648616707
40
-0.041620579648616707
40
-1.8768328251712588e-06
40
-1.8768328251712588e-06
40
-1.8768328251712588e-06
40
-1.8768328251712588e-06
10
-35.922903824505198
20
21.066091351328939
30
0
10
-35.859858390924913
20
21.121753265310854
30
0
10
-35.794933521927973
20
21.175505234559377
30
0
10
-35.634211905316569
20
21.277733308164102
30
0
10
-35.535145773101654
20
21.321607810912102
30
0
10
-35.263448631020175
20
21.391745368717654
30
0
10
-35.104815299730078
20
21.382293315032971
30
0
10
-34.966406577688616
20
21.372845105701586
30
0
0
LINE
5
103
100
AcDbEntity
8
0
100
AcDbLine
10
-35.921666064699451
20
21.067525885678641
30
0
11
-35.967076464188466
21
21.026638178325555
31
0
0
LINE
5
104
100
AcDbEntity
8
0
100
AcDbLine
10
-35.967076464188466
20
21.026638178325555
30
0
11
-36.06326500311436
21
20.940029628861577
31
0
0
LINE
5
105
100
AcDbEntity
8
0
100
AcDbLine
10
-36.06460923641842
20
20.938819275758117
30
0
11
-36.109619001686198
21
20.898292301078115
31
1.1285949474109202e-30
0
LINE
5
106
100
AcDbEntity
8
0
100
AcDbLine
10
-36.109619001686198
20
20.898292301078115
30
1.1285949474109202e-30
11
-34.905183910240261
21
19.560631615218796
31
0
0
SPLINE
5
107
100
AcDbEntity
8
0
100
AcDbSpline
70
0
71
3
72
10
73
6
74
0
42
0.000000001
43
0.0000000001
44
0.0000000001
40
-2.6472768333280103
40
-2.6472768333280103
40
-2.6472768333280103
40
-2.6472768333280103
40
-1.3616943670250421
40
-1.3616943670250421
40
-0.16285242539850681
40
-0.16285242539850681
40
-0.16285242539850681
40
-0.16285242539850681
10
-34.905183905295097
20
19.560631619671444
30
0
10
-30.591091815491374
20
19.266092961090909
30
0
10
-26.198690618488271
20
18.936806094365963
30
0
10
-17.908875398462101
20
18.266890800970724
30
0
10
-13.800609905590415
20
17.912543344105273
30
0
10
-9.7915508925746302
20
17.539904561399851
30
0
0
LINE
5
108
100
AcDbEntity
8
0
100
AcDbLine
10
-9.7915508925746337
20
17.539904561399847
30
0
11
-8.2650643194930389
21
18.493759237019621
31
-1.0477058897466563e-30
0
LINE
5
109
100
AcDbEntity
8
0
100
AcDbLine
10
-8.2650643194930389
20
18.493759237019621
30
-1.0477058897466563e-30
11
-8.2911759257788038
21
18.535546542167396
31
2.8946727064140155e-30
0
LINE
5
110
100
AcDbEntity
8
0
100
AcDbLine
10
-8.2919628573547133
20
18.536805895940315
30
0
11
-8.3836079820213278
21
18.683468753362568
31
0
0
LINE
5
111
100
AcDbEntity
8
0
100
AcDbLine
10
-8.3836079820213278
20
18.683468753362568
30
0
11
-8.4099374260802797
21
18.72560467182057
31
0
0
SPLINE
5
112
100
AcDbEntity
8
0
100
AcDbSpline
70
0
71
3
72
16
73
12
74
0
42
0.000000001
43
0.0000000001
44
0.0000000001
40
0.84397402587420867
40
0.84397402587420867
40
0.84397402587420867
40
0.84397402587420867
40
0.87443938370515673
40
0.87443938370515673
40
0.96055319423647789
40
0.96055319423647789
40
1.0688225388338277
40
1.0688225388338277
40
1.1790425430721529
40
1.1790425430721529
40
1.2144198140437708
40
1.2144198140437708
40
1.2144198140437708
40
1.2144198140437708
10
-3.4398962295127116
20
6.5615179326938513
30
0
10
-3.3723242548674106
20
6.6223600119456947
30
0
10
-3.307771844965627
20
6.6866638236363709
30
0
10
-3.0733528386958398
20
6.9451532360808503
30
0
10
-2.9283196445401893
20
7.1600196605555597
30
0
10
-2.6746329765853769
20
7.6845160636526195
30
0
10
-2.5871037708276381
20
7.9998491023860074
30
0
10
-2.5276973676200858
20
8.6524747357184104
30
0
10
-2.5584467505693889
20
8.9844489360825754
30
0
10
-2.6772745491042471
20
9.4047235480618347
30
0
10
-2.7120870311343244
20
9.5048547090343352
30
0
10
-2.7525934371633531
20
9.6025070598733713
30
0
0
SPLINE
5
113
100
AcDbEntity
8
0
100
AcDbSpline
70
0
71
3
72
12
73
8
74
0
42
0.000000001
43
0.0000000001
44
0.0000000001
40
-0.28485225007538917
40
-0.28485225007538917
40
-0.28485225007538917
40
-0.28485225007538917
40
-0.19109920530394084
40
-0.19109920530394084
40
-0.1069287933345173
40
-0.1069287933345173
40
0
40
0
40
0
40
0
10
-43.466548069094166
20
14.129073131456131
30
0
10
-43.614581045874019
20
13.889926399819137
30
0
10
-43.724341574329266
20
13.629111010443932
30
0
10
-43.852462966570386
20
13.110951749385842
30
0
10
-43.878388136278446
20
12.85853017456736
30
0
10
-43.856775837343449
20
12.285645100679414
30
0
10
-43.787651752159569
20
11.969794062807589
30
0
10
-43.664743617928238
20
11.673488628148171
30
0
0
SPLINE
5
114
100
AcDbEntity
8
0
100
AcDbSpline
70
0
71
3
72
14
73
10
74
0
42
0.000000001
43
0.0000000001
44
0.0000000001
40
-0.20974461342673201
40
-0.20974461342673201
40
-0.20974461342673201
40
-0.20974461342673201
40
-0.16460537052827701
40
-0.16460537052827701
40
-0.16460537052827701
40
-0.092382581890747106
40
-0.092382581890747106
40
-0.092382581890747106
40
0
40
0
40
0
40
0
10
-43.460518048109613
20
11.277204713234756
30
0
10
-43.603672010882534
20
11.506298942857086
30
0
10
-43.712102058177784
20
11.756838124925448
30
0
10
-43.781131093870975
20
12.017979541137837
30
0
10
-43.891577550980088
20
12.435805807077671
30
0
10
-43.899727481889229
20
12.881022456627944
30
0
10
-43.804434489825908
20
13.302887692276872
30
0
10
-43.682542039963785
20
13.842509609602624
30
0
10
-43.389298649161134
20
14.343639305413017
30
0
10
-42.9774408252716
20
14.714477755604872
30
0
0
LINE
5
115
100
AcDbEntity
8
0
100
AcDbLine
10
-2.7558922370844758
20
9.6104242123776746
30
0
11
-43.804637212617486
21
13.301989504578982
31
0
0
LINE
5
116
100
AcDbEntity
8
0
100
AcDbLine
10
-8.470250544313549
20
15.425381990843599
30
0
11
-36.680262306124042
21
17.962343848619323
31
0
0
LINE
5
117
100
AcDbEntity
8
0
100
AcDbLine
10
-17.58065473232935
20
12.211107939510576
30
0
11
-27.58065473232935
21
13.110420523708132
31
0
0
ARC
5
118
100
AcDbEntity
8
0
100
AcDbCircle
10
-27.715009408514589
20
11.616449700369484
30
0
40
1.5000000000000002
210
0
220
-0
230
1
100
AcDbArc
50
84.861142422167902
51
264.8611424221678
0
LINE
5
119
100
AcDbEntity
8
0
100
AcDbLine
10
-27.849364084699832
20
10.122478877030836
30
0
11
-17.849364084699832
21
9.223166292833282
31
0
0
ARC
5
120
100
AcDbEntity
8
0
100
AcDbCircle
10
-17.715009408514589
20
10.717137116171928
30
0
40
1.4999999999999989
210
0
220
0
230
1
100
AcDbArc
50
-95.138857577832269
51
84.861142422167902
0
LINE
5
121
100
AcDbEntity
8
0
100
AcDbLine
10
-17.715009408514589
20
10.717137116171928
30
0
11
-27.715009408514589
21
11.616449700369484
31
0
0
ENDSEC
0
SECTION
2
OBJECTS
0
DICTIONARY
5
C
100
AcDbDictionary
3
ACAD_GROUP
350
D
3
ACAD_MLINESTYLE
350
17
0
DICTIONARY
5
D
100
AcDbDictionary
0
DICTIONARY
5
1A
330
C
100
AcDbDictionary
0
DICTIONARY
5
17
100
AcDbDictionary
0
ENDSEC
0
EOF
