                                                                        S      1
,,8Hjoint v2,8Hjoint v2,7Hunknown,7Hunknown,32,38,7,99,15,,1.,2,2HMM,1, G      1
0.08,15H20220618.230843,0.01,10000.,7Hunknown,7Hunknown,11,0,15H20220428G      2
.203746;                                                                G      3
     186       1                                                00000000D      1
     186            -255       1       0                               0D      2
     514       2                                                00010000D      3
     514                       2       1                               0D      4
     510       4                                                00010000D      5
     510            -255       1       1                               0D      6
     510       5                                                00010000D      7
     510            -255       1       1                               0D      8
     510       6                                                00010000D      9
     510            -255       1       1                               0D     10
     510       7                                                00010000D     11
     510            -255       1       1                               0D     12
     510       8                                                00010000D     13
     510            -255       1       1                               0D     14
     510       9                                                00010000D     15
     510            -255       1       1                               0D     16
     510      10                                                00010000D     17
     510            -255       1       1                               0D     18
     510      11                                                00010000D     19
     510            -255       1       1                               0D     20
     510      12                                                00010000D     21
     510            -255       1       1                               0D     22
     510      13                                                00010000D     23
     510            -255       1       1                               0D     24
     510      14                                                00010000D     25
     510            -255       1       1                               0D     26
     510      15                                                00010000D     27
     510            -255       1       1                               0D     28
     510      16                                                00010000D     29
     510            -255       1       1                               0D     30
     510      17                                                00010000D     31
     510            -255       1       1                               0D     32
     510      18                                                00010000D     33
     510            -255       1       1                               0D     34
     510      19                                                00010000D     35
     510            -255       1       1                               0D     36
     510      20                                                00010000D     37
     510            -255       1       1                               0D     38
     510      21                                                00010000D     39
     510            -255       1       1                               0D     40
     510      22                                                00010000D     41
     510            -255       1       1                               0D     42
     510      23                                                00010000D     43
     510            -255       1       1                               0D     44
     510      24                                                00010000D     45
     510            -255       1       1                               0D     46
     510      25                                                00010000D     47
     510            -255       1       1                               0D     48
     510      26                                                00010000D     49
     510            -255       1       1                               0D     50
     508      27                                                00010000D     51
     508                       1       1                               0D     52
     508      28                                                00010000D     53
     508                       1       1                               0D     54
     508      29                                                00010000D     55
     508                       1       1                               0D     56
     508      30                                                00010000D     57
     508                       1       1                               0D     58
     508      31                                                00010000D     59
     508                       1       1                               0D     60
     508      32                                                00010000D     61
     508                       1       1                               0D     62
     508      33                                                00010000D     63
     508                       1       1                               0D     64
     508      34                                                00010000D     65
     508                       1       1                               0D     66
     508      35                                                00010000D     67
     508                       2       1                               0D     68
     508      37                                                00010000D     69
     508                       2       1                               0D     70
     508      39                                                00010000D     71
     508                       1       1                               0D     72
     508      40                                                00010000D     73
     508                       1       1                               0D     74
     508      41                                                00010000D     75
     508                       1       1                               0D     76
     508      42                                                00010000D     77
     508                       1       1                               0D     78
     508      43                                                00010000D     79
     508                       1       1                               0D     80
     508      44                                                00010000D     81
     508                       1       1                               0D     82
     508      45                                                00010000D     83
     508                       1       1                               0D     84
     508      46                                                00010000D     85
     508                       1       1                               0D     86
     508      47                                                00010000D     87
     508                       1       1                               0D     88
     508      48                                                00010000D     89
     508                       2       1                               0D     90
     508      50                                                00010000D     91
     508                       2       1                               0D     92
     508      52                                                00010000D     93
     508                       1       1                               0D     94
     508      53                                                00010000D     95
     508                       1       1                               0D     96
     508      54                                                00010000D     97
     508                       1       1                               0D     98
     508      55                                                00010000D     99
     508                       1       1                               0D    100
     508      56                                                00010000D    101
     508                       1       1                               0D    102
     508      57                                                00010000D    103
     508                       1       1                               0D    104
     126      58                                                00010000D    105
     126       0              10       0                               0D    106
     126      68                                                00010000D    107
     126       0               3       0                               0D    108
     126      71                                                00010000D    109
     126       0              10       0                               0D    110
     126      81                                                00010000D    111
     126       0               2       0                               0D    112
     126      83                                                00010000D    113
     126       0               9       0                               0D    114
     126      92                                                00010000D    115
     126       0               2       0                               0D    116
     126      94                                                00010000D    117
     126       0               2       0                               0D    118
     126      96                                                00010000D    119
     126       0               2       0                               0D    120
     126      98                                                00010000D    121
     126       0               2       0                               0D    122
     126     100                                                00010000D    123
     126       0               4       0                               0D    124
     126     104                                                00010000D    125
     126       0               4       0                               0D    126
     126     108                                                00010000D    127
     126       0               2       0                               0D    128
     126     110                                                00010000D    129
     126       0               3       0                               0D    130
     126     113                                                00010000D    131
     126       0               2       0                               0D    132
     126     115                                                00010000D    133
     126       0               3       0                               0D    134
     126     118                                                00010000D    135
     126       0               4       0                               0D    136
     126     122                                                00010000D    137
     126       0               3       0                               0D    138
     126     125                                                00010000D    139
     126       0               2       0                               0D    140
     126     127                                                00010000D    141
     126       0               3       0                               0D    142
     126     130                                                00010000D    143
     126       0               2       0                               0D    144
     126     132                                                00010000D    145
     126       0               3       0                               0D    146
     126     135                                                00010000D    147
     126       0               2       0                               0D    148
     126     137                                                00010000D    149
     126       0               2       0                               0D    150
     126     139                                                00010000D    151
     126       0              10       0                               0D    152
     126     149                                                00010000D    153
     126       0               3       0                               0D    154
     126     152                                                00010000D    155
     126       0              10       0                               0D    156
     126     162                                                00010000D    157
     126       0               2       0                               0D    158
     126     164                                                00010000D    159
     126       0              10       0                               0D    160
     126     174                                                00010000D    161
     126       0               2       0                               0D    162
     126     176                                                00010000D    163
     126       0               2       0                               0D    164
     126     178                                                00010000D    165
     126       0               2       0                               0D    166
     126     180                                                00010000D    167
     126       0               2       0                               0D    168
     126     182                                                00010000D    169
     126       0               3       0                               0D    170
     126     185                                                00010000D    171
     126       0               2       0                               0D    172
     126     187                                                00010000D    173
     126       0               4       0                               0D    174
     126     191                                                00010000D    175
     126       0               3       0                               0D    176
     126     194                                                00010000D    177
     126       0               2       0                               0D    178
     126     196                                                00010000D    179
     126       0               3       0                               0D    180
     126     199                                                00010000D    181
     126       0               3       0                               0D    182
     126     202                                                00010000D    183
     126       0               2       0                               0D    184
     126     204                                                00010000D    185
     126       0               3       0                               0D    186
     126     207                                                00010000D    187
     126       0               3       0                               0D    188
     126     210                                                00010000D    189
     126       0               2       0                               0D    190
     126     212                                                00010000D    191
     126       0               3       0                               0D    192
     126     215                                                00010000D    193
     126       0               2       0                               0D    194
     126     217                                                00010000D    195
     126       0               2       0                               0D    196
     126     219                                                00010000D    197
     126       0              10       0                               0D    198
     126     229                                                00010000D    199
     126       0              10       0                               0D    200
     126     239                                                00010000D    201
     126       0               2       0                               0D    202
     128     241                                                00010000D    203
     128       0    -255      14       0                               0D    204
     128     255                                                00010000D    205
     128       0    -255      12       0                               0D    206
     128     267                                                00010000D    207
     128       0    -255       3       0                               0D    208
     128     270                                                00010000D    209
     128       0    -255       7       0                               0D    210
     128     277                                                00010000D    211
     128       0    -255       4       0                               0D    212
     128     281                                                00010000D    213
     128       0    -255       7       0                               0D    214
     128     288                                                00010000D    215
     128       0    -255       4       0                               0D    216
     128     292                                                00010000D    217
     128       0    -255       3       0                               0D    218
     128     295                                                00010000D    219
     128       0    -255       4       0                               0D    220
     128     299                                                00010000D    221
     128       0    -255       3       0                               0D    222
     128     302                                                00010000D    223
     128       0    -255      14       0                               0D    224
     128     316                                                00010000D    225
     128       0    -255      12       0                               0D    226
     128     328                                                00010000D    227
     128       0    -255       3       0                               0D    228
     128     331                                                00010000D    229
     128       0    -255       7       0                               0D    230
     128     338                                                00010000D    231
     128       0    -255       4       0                               0D    232
     128     342                                                00010000D    233
     128       0    -255       7       0                               0D    234
     128     349                                                00010000D    235
     128       0    -255       4       0                               0D    236
     128     353                                                00010000D    237
     128       0    -255       3       0                               0D    238
     128     356                                                00010000D    239
     128       0    -255       3       0                               0D    240
     128     359                                                00010000D    241
     128       0    -255       3       0                               0D    242
     128     362                                                00010000D    243
     128       0    -255       4       0                               0D    244
     128     366                                                00010000D    245
     128       0    -255      13       0                               0D    246
     128     379                                                00010000D    247
     128       0    -255       4       0                               0D    248
     502     383                                                00010000D    249
     502                      12       1                               0D    250
     504     395                                                00010001D    251
     504                      14       1                               0D    252
     406     409                                                00000000D    253
     406                       1      15                               0D    254
     314     410                                                00000200D    255
     314                       2       0                               0D    256
186,3,1,0,0,1,253;                                                     1P      1
514,23,5,1,7,1,9,1,11,1,13,1,15,1,17,1,19,1,21,1,23,1,25,1,27,1,       3P      2
29,1,31,1,33,1,35,1,37,1,39,1,41,1,43,1,45,1,47,1,49,1;                3P      3
510,203,1,1,51;                                                        5P      4
510,205,1,1,53;                                                        7P      5
510,207,2,1,55,57;                                                     9P      6
510,209,1,1,59;                                                       11P      7
510,211,1,1,61;                                                       13P      8
510,213,1,1,63;                                                       15P      9
510,215,1,1,65;                                                       17P     10
510,217,1,1,67;                                                       19P     11
510,219,1,1,69;                                                       21P     12
510,221,1,1,71;                                                       23P     13
510,223,1,1,73;                                                       25P     14
510,225,1,1,75;                                                       27P     15
510,227,2,1,77,79;                                                    29P     16
510,229,1,1,81;                                                       31P     17
510,231,1,1,83;                                                       33P     18
510,233,1,1,85;                                                       35P     19
510,235,1,1,87;                                                       37P     20
510,237,1,1,89;                                                       39P     21
510,239,1,1,91;                                                       41P     22
510,241,1,1,93;                                                       43P     23
510,243,2,1,95,97;                                                    45P     24
510,245,1,1,99;                                                       47P     25
510,247,2,1,101,103;                                                  49P     26
508,4,0,251,1,0,0,0,251,2,1,0,0,251,3,0,0,0,251,2,0,0;                51P     27
508,4,0,251,3,1,0,0,251,4,1,0,0,251,5,0,0,0,251,4,0,0;                53P     28
508,1,0,251,1,1,0;                                                    55P     29
508,4,0,251,6,0,0,0,251,7,1,0,0,251,8,0,0,0,251,9,1,0;                57P     30
508,4,0,251,10,0,0,0,251,7,0,0,0,251,11,0,0,0,251,12,0,0;             59P     31
508,4,0,251,12,1,0,0,251,13,1,0,0,251,14,0,0,0,251,15,0,0;            61P     32
508,4,0,251,16,0,0,0,251,9,0,0,0,251,17,0,0,0,251,18,0,0;             63P     33
508,4,0,251,18,1,0,0,251,19,1,0,0,251,20,0,0,0,251,21,0,0;            65P     34
508,6,0,251,8,1,0,0,251,10,1,0,0,251,15,1,0,0,251,22,0,0,0,251,       67P     35
19,0,0,0,251,17,1,0;                                                  67P     36
508,6,0,251,6,1,0,0,251,16,1,0,0,251,21,1,0,0,251,23,0,0,0,251,       69P     37
13,0,0,0,251,11,1,0;                                                  69P     38
508,4,0,251,23,1,0,0,251,20,1,0,0,251,22,1,0,0,251,14,1,0;            71P     39
508,4,0,251,24,1,0,0,251,25,1,0,0,251,26,1,0,0,251,25,0,0;            73P     40
508,4,0,251,26,0,0,0,251,27,1,0,0,251,28,0,0,0,251,27,0,0;            75P     41
508,1,0,251,24,0,0;                                                   77P     42
508,4,0,251,29,1,0,0,251,30,0,0,0,251,31,1,0,0,251,32,0,0;            79P     43
508,4,0,251,33,1,0,0,251,34,1,0,0,251,35,1,0,0,251,32,1,0;            81P     44
508,4,0,251,34,0,0,0,251,36,1,0,0,251,37,1,0,0,251,38,0,0;            83P     45
508,4,0,251,39,1,0,0,251,40,1,0,0,251,41,1,0,0,251,30,1,0;            85P     46
508,4,0,251,40,0,0,0,251,42,1,0,0,251,43,1,0,0,251,44,0,0;            87P     47
508,6,0,251,31,0,0,0,251,41,0,0,0,251,44,1,0,0,251,45,1,0,0,251,      89P     48
36,0,0,0,251,33,0,0;                                                  89P     49
508,6,0,251,29,0,0,0,251,35,0,0,0,251,38,1,0,0,251,46,1,0,0,251,      91P     50
42,0,0,0,251,39,0,0;                                                  91P     51
508,4,0,251,46,0,0,0,251,37,0,0,0,251,45,0,0,0,251,43,0,0;            93P     52
508,1,0,251,47,0,0;                                                   95P     53
508,1,0,251,5,1,0;                                                    97P     54
508,4,0,251,48,0,0,0,251,49,1,0,0,251,47,1,0,0,251,49,0,0;            99P     55
508,1,0,251,48,1,0;                                                  101P     56
508,1,0,251,28,1,0;                                                  103P     57
126,8,2,0,1,0,0,-3.14159265358979,-3.14159265358979,                 105P     58
-3.14159265358979,-1.5707963267949,-1.5707963267949,0.,0.,           105P     59
1.5707963267949,1.5707963267949,3.14159265358979,                    105P     60
3.14159265358979,3.14159265358979,1.,0.707106781186548,1.,           105P     61
0.707106781186548,1.,0.707106781186548,1.,0.707106781186548,1.,      105P     62
-7.3,8.93992163377568D-16,-16.846,-7.3,7.3,-16.846,                  105P     63
4.46996081688784D-16,7.3,-16.846,7.3,7.3,-16.846,7.3,0.,-16.846,     105P     64
7.3,-7.3,-16.846,4.46996081688784D-16,-7.3,-16.846,-7.3,-7.3,        105P     65
-16.846,-7.3,-8.93992163377568D-16,-16.846,-3.14159265358979,        105P     66
3.14159265358979,0.,0.,0.;                                           105P     67
126,1,1,0,0,1,0,-0.0191109940861227,-0.0191109940861227,             107P     68
0.0191109940861227,0.0191109940861227,1.,1.,-7.3,0.,-16.846,         107P     69
-7.5,0.,-16.646,-0.0191109940861227,0.0191109940861227,0.,0.,0.;     107P     70
126,8,2,0,1,0,0,-3.14159265358979,-3.14159265358979,                 109P     71
-3.14159265358979,-1.5707963267949,-1.5707963267949,0.,0.,           109P     72
1.5707963267949,1.5707963267949,3.14159265358979,                    109P     73
3.14159265358979,3.14159265358979,1.,0.707106781186548,1.,           109P     74
0.707106781186548,1.,0.707106781186548,1.,0.707106781186548,1.,      109P     75
-7.5,-9.18485099360515D-16,-16.646,-7.5,-7.5,-16.646,                109P     76
4.59242549680257D-16,-7.5,-16.646,7.5,-7.5,-16.646,7.5,0.,           109P     77
-16.646,7.5,7.5,-16.646,4.59242549680257D-16,7.5,-16.646,-7.5,       109P     78
7.5,-16.646,-7.5,9.18485099360515D-16,-16.646,-3.14159265358979,     109P     79
3.14159265358979,0.,0.,0.;                                           109P     80
126,1,1,0,0,1,0,-2.21946666666667,-2.21946666666667,0.,0.,1.,1.,     111P     81
-7.5,0.,-16.646,-7.5,0.,0.,-2.21946666666667,0.,0.,0.,0.;            111P     82
126,8,2,0,1,0,0,-3.14159265358979,-3.14159265358979,                 113P     83
-3.14159265358979,-1.5707963267949,-1.5707963267949,0.,0.,           113P     84
1.5707963267949,1.5707963267949,3.14159265358979,                    113P     85
3.14159265358979,3.14159265358979,1.,0.707106781186548,1.,           113P     86
0.707106781186548,1.,0.707106781186548,1.,0.707106781186548,1.,      113P     87
-7.5,-9.18485099360515D-16,0.,-7.5,-7.5,0.,4.59242549680257D-16,     113P     88
-7.5,0.,7.5,-7.5,0.,7.5,0.,0.,7.5,7.5,0.,4.59242549680257D-16,       113P     89
7.5,0.,-7.5,7.5,0.,-7.5,9.18485099360515D-16,0.,                     113P     90
-3.14159265358979,3.14159265358979,0.,0.,0.;                         113P     91
126,1,1,0,0,1,0,-0.2,-0.2,0.4,0.4,1.,1.,-0.75,-3.,-16.846,-0.75,     115P     92
3.,-16.846,-0.2,0.4,0.,0.,0.;                                        115P     93
126,1,1,0,0,1,0,-0.1125,-0.1125,0.0375,0.0375,1.,1.,-0.75,-3.,       117P     94
-16.846,0.75,-3.,-16.846,-0.1125,0.0375,0.,0.,0.;                    117P     95
126,1,1,0,0,1,0,-0.2,-0.2,0.4,0.4,1.,1.,0.75,3.,-16.846,0.75,        119P     96
-3.,-16.846,-0.2,0.4,0.,0.,0.;                                       119P     97
126,1,1,0,0,1,0,-0.1125,-0.1125,0.0375,0.0375,1.,1.,0.75,3.,         121P     98
-16.846,-0.75,3.,-16.846,-0.1125,0.0375,0.,0.,0.;                    121P     99
126,1,1,0,0,1,0,-0.212132034355965,-0.212132034355965,               123P    100
-0.0707106781186556,-0.0707106781186556,1.,1.,0.75,-3.,-16.846,      123P    101
0.75,-2.,-15.846,-0.212132034355965,-0.0707106781186556,0.,0.,       123P    102
0.;                                                                  123P    103
126,1,1,0,0,1,0,-0.0707106781186539,-0.0707106781186539,             125P    104
0.0707106781186553,0.0707106781186553,1.,1.,-0.75,-2.,-15.846,       125P    105
-0.75,-3.,-16.846,-0.0707106781186539,0.0707106781186553,0.,0.,      125P    106
0.;                                                                  125P    107
126,1,1,0,0,1,0,-0.0375,-0.0375,0.1125,0.1125,1.,1.,0.75,-2.,        127P    108
-15.846,-0.75,-2.,-15.846,-0.0375,0.1125,0.,0.,0.;                   127P    109
126,1,1,0,0,1,0,0.0999999999999996,0.0999999999999996,0.4,0.4,       129P    110
1.,1.,-0.75,-2.,-15.846,-0.75,-2.,-12.846,0.0999999999999996,        129P    111
0.4,0.,0.,0.;                                                        129P    112
126,1,1,0,0,1,0,-0.15,-0.15,0.,0.,1.,1.,0.75,-2.,-12.846,-0.75,      131P    113
-2.,-12.846,-0.15,0.,0.,0.,0.;                                       131P    114
126,1,1,0,0,1,0,0.0999999999999996,0.0999999999999996,0.4,0.4,       133P    115
1.,1.,0.75,-2.,-15.846,0.75,-2.,-12.846,0.0999999999999996,0.4,      133P    116
0.,0.,0.;                                                            133P    117
126,1,1,0,0,1,0,-0.212132034355965,-0.212132034355965,               135P    118
-0.0707106781186556,-0.0707106781186556,1.,1.,-0.75,3.,-16.846,      135P    119
-0.75,2.,-15.846,-0.212132034355965,-0.0707106781186556,0.,0.,       135P    120
0.;                                                                  135P    121
126,1,1,0,0,1,0,-0.0707106781186539,-0.0707106781186539,             137P    122
0.0707106781186553,0.0707106781186553,1.,1.,0.75,2.,-15.846,         137P    123
0.75,3.,-16.846,-0.0707106781186539,0.0707106781186553,0.,0.,0.;     137P    124
126,1,1,0,0,1,0,-0.0375,-0.0375,0.1125,0.1125,1.,1.,-0.75,2.,        139P    125
-15.846,0.75,2.,-15.846,-0.0375,0.1125,0.,0.,0.;                     139P    126
126,1,1,0,0,1,0,0.0999999999999996,0.0999999999999996,0.4,0.4,       141P    127
1.,1.,0.75,2.,-15.846,0.75,2.,-12.846,0.0999999999999996,0.4,0.,     141P    128
0.,0.;                                                               141P    129
126,1,1,0,0,1,0,-0.15,-0.15,0.,0.,1.,1.,-0.75,2.,-12.846,0.75,       143P    130
2.,-12.846,-0.15,0.,0.,0.,0.;                                        143P    131
126,1,1,0,0,1,0,0.0999999999999996,0.0999999999999996,0.4,0.4,       145P    132
1.,1.,-0.75,2.,-15.846,-0.75,2.,-12.846,0.0999999999999996,0.4,      145P    133
0.,0.,0.;                                                            145P    134
126,1,1,0,0,1,0,-0.4,-0.4,0.,0.,1.,1.,0.75,2.,-12.846,0.75,-2.,      147P    135
-12.846,-0.4,0.,0.,0.,0.;                                            147P    136
126,1,1,0,0,1,0,-0.4,-0.4,0.,0.,1.,1.,-0.75,-2.,-12.846,-0.75,       149P    137
2.,-12.846,-0.4,0.,0.,0.,0.;                                         149P    138
126,8,2,0,1,0,0,-3.14159265358979,-3.14159265358979,                 151P    139
-3.14159265358979,-1.5707963267949,-1.5707963267949,0.,0.,           151P    140
1.5707963267949,1.5707963267949,3.14159265358979,                    151P    141
3.14159265358979,3.14159265358979,1.,0.707106781186548,1.,           151P    142
0.707106781186548,1.,0.707106781186548,1.,0.707106781186548,1.,      151P    143
-7.3,8.93992163377568D-16,56.846,-7.3,7.3,56.846,                    151P    144
4.46996081688784D-16,7.3,56.846,7.3,7.3,56.846,7.3,0.,56.846,        151P    145
7.3,-7.3,56.846,4.46996081688784D-16,-7.3,56.846,-7.3,-7.3,          151P    146
56.846,-7.3,-8.93992163377568D-16,56.846,-3.14159265358979,          151P    147
3.14159265358979,0.,0.,0.;                                           151P    148
126,1,1,0,0,1,0,-0.0191109940861227,-0.0191109940861227,             153P    149
0.0191109940861227,0.0191109940861227,1.,1.,-7.3,0.,56.846,-7.5,     153P    150
0.,56.646,-0.0191109940861227,0.0191109940861227,0.,0.,0.;           153P    151
126,8,2,0,1,0,0,-3.14159265358979,-3.14159265358979,                 155P    152
-3.14159265358979,-1.5707963267949,-1.5707963267949,0.,0.,           155P    153
1.5707963267949,1.5707963267949,3.14159265358979,                    155P    154
3.14159265358979,3.14159265358979,1.,0.707106781186548,1.,           155P    155
0.707106781186548,1.,0.707106781186548,1.,0.707106781186548,1.,      155P    156
-7.5,-9.18485099360515D-16,56.646,-7.5,-7.5,56.646,                  155P    157
4.59242549680257D-16,-7.5,56.646,7.5,-7.5,56.646,7.5,0.,56.646,      155P    158
7.5,7.5,56.646,4.59242549680257D-16,7.5,56.646,-7.5,7.5,56.646,      155P    159
-7.5,9.18485099360515D-16,56.646,-3.14159265358979,                  155P    160
3.14159265358979,0.,0.,0.;                                           155P    161
126,1,1,0,0,1,0,-2.21946666666667,-2.21946666666667,0.,0.,1.,1.,     157P    162
-7.5,0.,56.646,-7.5,0.,40.,-2.21946666666667,0.,0.,0.,0.;            157P    163
126,8,2,0,1,0,0,-3.14159265358979,-3.14159265358979,                 159P    164
-3.14159265358979,-1.5707963267949,-1.5707963267949,0.,0.,           159P    165
1.5707963267949,1.5707963267949,3.14159265358979,                    159P    166
3.14159265358979,3.14159265358979,1.,0.707106781186548,1.,           159P    167
0.707106781186548,1.,0.707106781186548,1.,0.707106781186548,1.,      159P    168
-7.5,9.18485099360515D-16,40.,-7.5,7.5,40.,4.59242549680257D-16,     159P    169
7.5,40.,7.5,7.5,40.,7.5,0.,40.,7.5,-7.5,40.,                         159P    170
4.59242549680257D-16,-7.5,40.,-7.5,-7.5,40.,-7.5,                    159P    171
-9.18485099360515D-16,40.,-3.14159265358979,3.14159265358979,0.,     159P    172
0.,0.;                                                               159P    173
126,1,1,0,0,1,0,-0.2,-0.2,0.4,0.4,1.,1.,-0.75,-3.,56.846,-0.75,      161P    174
3.,56.846,-0.2,0.4,0.,0.,0.;                                         161P    175
126,1,1,0,0,1,0,-0.1125,-0.1125,0.0375,0.0375,1.,1.,0.75,3.,         163P    176
56.846,-0.75,3.,56.846,-0.1125,0.0375,0.,0.,0.;                      163P    177
126,1,1,0,0,1,0,-0.2,-0.2,0.4,0.4,1.,1.,0.75,3.,56.846,0.75,-3.,     165P    178
56.846,-0.2,0.4,0.,0.,0.;                                            165P    179
126,1,1,0,0,1,0,-0.1125,-0.1125,0.0375,0.0375,1.,1.,-0.75,-3.,       167P    180
56.846,0.75,-3.,56.846,-0.1125,0.0375,0.,0.,0.;                      167P    181
126,1,1,0,0,1,0,-0.212132034355965,-0.212132034355965,               169P    182
-0.0707106781186556,-0.0707106781186556,1.,1.,0.75,-3.,56.846,       169P    183
0.75,-2.,55.846,-0.212132034355965,-0.0707106781186556,0.,0.,0.;     169P    184
126,1,1,0,0,1,0,-0.0375,-0.0375,0.1125,0.1125,1.,1.,0.75,-2.,        171P    185
55.846,-0.75,-2.,55.846,-0.0375,0.1125,0.,0.,0.;                     171P    186
126,1,1,0,0,1,0,-0.0707106781186539,-0.0707106781186539,             173P    187
0.0707106781186553,0.0707106781186553,1.,1.,-0.75,-2.,55.846,        173P    188
-0.75,-3.,56.846,-0.0707106781186539,0.0707106781186553,0.,0.,       173P    189
0.;                                                                  173P    190
126,1,1,0,0,1,0,0.0999999999999996,0.0999999999999996,0.4,0.4,       175P    191
1.,1.,0.75,-2.,55.846,0.75,-2.,52.846,0.0999999999999996,0.4,0.,     175P    192
0.,0.;                                                               175P    193
126,1,1,0,0,1,0,-0.15,-0.15,0.,0.,1.,1.,0.75,-2.,52.846,-0.75,       177P    194
-2.,52.846,-0.15,0.,0.,0.,0.;                                        177P    195
126,1,1,0,0,1,0,0.0999999999999996,0.0999999999999996,0.4,0.4,       179P    196
1.,1.,-0.75,-2.,55.846,-0.75,-2.,52.846,0.0999999999999996,0.4,      179P    197
0.,0.,0.;                                                            179P    198
126,1,1,0,0,1,0,-0.212132034355965,-0.212132034355965,               181P    199
-0.0707106781186556,-0.0707106781186556,1.,1.,-0.75,3.,56.846,       181P    200
-0.75,2.,55.846,-0.212132034355965,-0.0707106781186556,0.,0.,0.;     181P    201
126,1,1,0,0,1,0,-0.0375,-0.0375,0.1125,0.1125,1.,1.,-0.75,2.,        183P    202
55.846,0.75,2.,55.846,-0.0375,0.1125,0.,0.,0.;                       183P    203
126,1,1,0,0,1,0,-0.0707106781186539,-0.0707106781186539,             185P    204
0.0707106781186553,0.0707106781186553,1.,1.,0.75,2.,55.846,0.75,     185P    205
3.,56.846,-0.0707106781186539,0.0707106781186553,0.,0.,0.;           185P    206
126,1,1,0,0,1,0,0.0999999999999996,0.0999999999999996,0.4,0.4,       187P    207
1.,1.,-0.75,2.,55.846,-0.75,2.,52.846,0.0999999999999996,0.4,0.,     187P    208
0.,0.;                                                               187P    209
126,1,1,0,0,1,0,-0.15,-0.15,0.,0.,1.,1.,-0.75,2.,52.846,0.75,2.,     189P    210
52.846,-0.15,0.,0.,0.,0.;                                            189P    211
126,1,1,0,0,1,0,0.0999999999999996,0.0999999999999996,0.4,0.4,       191P    212
1.,1.,0.75,2.,55.846,0.75,2.,52.846,0.0999999999999996,0.4,0.,       191P    213
0.,0.;                                                               191P    214
126,1,1,0,0,1,0,-0.4,-0.4,0.,0.,1.,1.,0.75,2.,52.846,0.75,-2.,       193P    215
52.846,-0.4,0.,0.,0.,0.;                                             193P    216
126,1,1,0,0,1,0,-0.4,-0.4,0.,0.,1.,1.,-0.75,-2.,52.846,-0.75,2.,     195P    217
52.846,-0.4,0.,0.,0.,0.;                                             195P    218
126,8,2,0,1,0,0,-3.14159265358979,-3.14159265358979,                 197P    219
-3.14159265358979,-1.5707963267949,-1.5707963267949,0.,0.,           197P    220
1.5707963267949,1.5707963267949,3.14159265358979,                    197P    221
3.14159265358979,3.14159265358979,1.,0.707106781186548,1.,           197P    222
0.707106781186548,1.,0.707106781186548,1.,0.707106781186548,1.,      197P    223
-18.925,-2.31764406738637D-15,0.,-18.925,-18.925,0.,                 197P    224
1.15882203369318D-15,-18.925,0.,18.925,-18.925,0.,18.925,0.,0.,      197P    225
18.925,18.925,0.,1.15882203369318D-15,18.925,0.,-18.925,18.925,      197P    226
0.,-18.925,2.31764406738637D-15,0.,-3.14159265358979,                197P    227
3.14159265358979,0.,0.,0.;                                           197P    228
126,8,2,0,1,0,0,-3.14159265358979,-3.14159265358979,                 199P    229
-3.14159265358979,-1.5707963267949,-1.5707963267949,0.,0.,           199P    230
1.5707963267949,1.5707963267949,3.14159265358979,                    199P    231
3.14159265358979,3.14159265358979,1.,0.707106781186548,1.,           199P    232
0.707106781186548,1.,0.707106781186548,1.,0.707106781186548,1.,      199P    233
-18.925,-2.31764406738637D-15,40.,-18.925,-18.925,40.,               199P    234
1.15882203369318D-15,-18.925,40.,18.925,-18.925,40.,18.925,0.,       199P    235
40.,18.925,18.925,40.,1.15882203369318D-15,18.925,40.,-18.925,       199P    236
18.925,40.,-18.925,2.31764406738637D-15,40.,-3.14159265358979,       199P    237
3.14159265358979,0.,0.,0.;                                           199P    238
126,1,1,0,0,1,0,-2.11360634081902,-2.11360634081902,0.,0.,1.,1.,     201P    239
-18.925,0.,40.,-18.925,0.,0.,-2.11360634081902,0.,0.,0.,0.;          201P    240
128,1,8,1,2,0,1,0,0,1,-0.0191109940861227,-0.0191109940861227,       203P    241
0.0191109940861227,0.0191109940861227,-3.14159265358979,             203P    242
-3.14159265358979,-3.14159265358979,-1.5707963267949,                203P    243
-1.5707963267949,0.,0.,1.5707963267949,1.5707963267949,              203P    244
3.14159265358979,3.14159265358979,3.14159265358979,1.,1.,            203P    245
0.707106781186548,0.707106781186548,1.,1.,0.707106781186548,         203P    246
0.707106781186548,1.,1.,0.707106781186548,0.707106781186548,1.,      203P    247
1.,0.707106781186548,0.707106781186548,1.,1.,-7.5,0.,-16.646,        203P    248
-7.3,0.,-16.846,-7.5,-7.5,-16.646,-7.3,-7.3,-16.846,0.,-7.5,         203P    249
-16.646,0.,-7.3,-16.846,7.5,-7.5,-16.646,7.3,-7.3,-16.846,7.5,       203P    250
0.,-16.646,7.3,0.,-16.846,7.5,7.5,-16.646,7.3,7.3,-16.846,0.,        203P    251
7.5,-16.646,0.,7.3,-16.846,-7.5,7.5,-16.646,-7.3,7.3,-16.846,        203P    252
-7.5,0.,-16.646,-7.3,0.,-16.846,-0.0191109940861227,                 203P    253
0.0191109940861227,-3.14159265358979,3.14159265358979;               203P    254
128,1,8,1,2,0,1,0,0,1,0.,0.,2.21946666666667,2.21946666666667,       205P    255
-3.14159265358979,-3.14159265358979,-3.14159265358979,               205P    256
-1.5707963267949,-1.5707963267949,0.,0.,1.5707963267949,             205P    257
1.5707963267949,3.14159265358979,3.14159265358979,                   205P    258
3.14159265358979,1.,1.,0.707106781186548,0.707106781186548,1.,       205P    259
1.,0.707106781186548,0.707106781186548,1.,1.,0.707106781186548,      205P    260
0.707106781186548,1.,1.,0.707106781186548,0.707106781186548,1.,      205P    261
1.,-7.5,0.,0.,-7.5,0.,-16.646,-7.5,-7.5,0.,-7.5,-7.5,-16.646,0.,     205P    262
-7.5,0.,0.,-7.5,-16.646,7.5,-7.5,0.,7.5,-7.5,-16.646,7.5,0.,0.,      205P    263
7.5,0.,-16.646,7.5,7.5,0.,7.5,7.5,-16.646,0.,7.5,0.,0.,7.5,          205P    264
-16.646,-7.5,7.5,0.,-7.5,7.5,-16.646,-7.5,0.,0.,-7.5,0.,-16.646,     205P    265
0.,2.21946666666667,-3.14159265358979,3.14159265358979;              205P    266
128,1,1,1,1,0,0,1,0,0,-0.731,-0.731,0.731,0.731,-0.731,-0.731,       207P    267
0.731,0.731,1.,1.,1.,1.,7.31,-7.31,-16.846,-7.31,-7.31,-16.846,      207P    268
7.31,7.31,-16.846,-7.31,7.31,-16.846,-0.731,0.731,-0.731,0.731;      207P    269
128,1,1,1,1,0,0,1,0,0,-0.1135,-0.1135,0.0385,0.0385,                 209P    270
-0.0717106781186548,-0.0717106781186548,0.0717106781186547,          209P    271
0.0717106781186547,1.,1.,1.,1.,0.76,-3.00707106781187,               209P    272
-16.8530710678119,-0.76,-3.00707106781187,-16.8530710678119,         209P    273
0.76,-1.99292893218813,-15.8389289321881,-0.76,                      209P    274
-1.99292893218813,-15.8389289321881,-0.1135,0.0385,                  209P    275
-0.0717106781186548,0.0717106781186547;                              209P    276
128,1,1,1,1,0,0,1,0,0,-0.001,-0.001,0.151,0.151,                     211P    277
0.0989999999999996,0.0989999999999996,0.401,0.401,1.,1.,1.,1.,       211P    278
0.76,-2.,-15.856,-0.76,-2.,-15.856,0.76,-2.,-12.836,-0.76,-2.,       211P    279
-12.836,-0.001,0.151,0.0989999999999996,0.401;                       211P    280
128,1,1,1,1,0,0,1,0,0,-0.0385,-0.0385,0.1135,0.1135,                 213P    281
-0.0717106781186547,-0.0717106781186547,0.0717106781186548,          213P    282
0.0717106781186548,1.,1.,1.,1.,0.76,1.99292893218813,                213P    283
-15.8389289321881,-0.76,1.99292893218813,-15.8389289321881,0.76,     213P    284
3.00707106781187,-16.8530710678119,-0.76,3.00707106781187,           213P    285
-16.8530710678119,-0.0385,0.1135,-0.0717106781186547,                213P    286
0.0717106781186548;                                                  213P    287
128,1,1,1,1,0,0,1,0,0,-0.001,-0.001,0.151,0.151,                     215P    288
0.0989999999999996,0.0989999999999996,0.401,0.401,1.,1.,1.,1.,       215P    289
-0.76,2.,-15.856,0.76,2.,-15.856,-0.76,2.,-12.836,0.76,2.,           215P    290
-12.836,-0.001,0.151,0.0989999999999996,0.401;                       215P    291
128,1,1,1,1,0,0,1,0,0,-0.101,-0.101,0.501,0.501,-0.001,-0.001,       217P    292
0.401,0.401,1.,1.,1.,1.,0.75,3.01,-16.856,0.75,-3.01,-16.856,        217P    293
0.75,3.01,-12.836,0.75,-3.01,-12.836,-0.101,0.501,-0.001,0.401;      217P    294
128,1,1,1,1,0,0,1,0,0,-0.101,-0.101,0.501,0.501,-0.001,-0.001,       219P    295
0.401,0.401,1.,1.,1.,1.,-0.75,-3.01,-16.856,-0.75,3.01,-16.856,      219P    296
-0.75,-3.01,-12.836,-0.75,3.01,-12.836,-0.101,0.501,-0.001,          219P    297
0.401;                                                               219P    298
128,1,1,1,1,0,0,1,0,0,-0.076,-0.076,0.076,0.076,-0.201,-0.201,       221P    299
0.201,0.201,1.,1.,1.,1.,0.76,-2.01,-12.846,-0.76,-2.01,-12.846,      221P    300
0.76,2.01,-12.846,-0.76,2.01,-12.846,-0.076,0.076,-0.201,0.201;      221P    301
128,1,8,1,2,0,1,0,0,1,-0.0191109940861227,-0.0191109940861227,       223P    302
0.0191109940861227,0.0191109940861227,-3.14159265358979,             223P    303
-3.14159265358979,-3.14159265358979,-1.5707963267949,                223P    304
-1.5707963267949,0.,0.,1.5707963267949,1.5707963267949,              223P    305
3.14159265358979,3.14159265358979,3.14159265358979,1.,1.,            223P    306
0.707106781186548,0.707106781186548,1.,1.,0.707106781186548,         223P    307
0.707106781186548,1.,1.,0.707106781186548,0.707106781186548,1.,      223P    308
1.,0.707106781186548,0.707106781186548,1.,1.,-7.3,0.,56.846,         223P    309
-7.5,0.,56.646,-7.3,-7.3,56.846,-7.5,-7.5,56.646,0.,-7.3,56.846,     223P    310
0.,-7.5,56.646,7.3,-7.3,56.846,7.5,-7.5,56.646,7.3,0.,56.846,        223P    311
7.5,0.,56.646,7.3,7.3,56.846,7.5,7.5,56.646,0.,7.3,56.846,0.,        223P    312
7.5,56.646,-7.3,7.3,56.846,-7.5,7.5,56.646,-7.3,0.,56.846,-7.5,      223P    313
0.,56.646,-0.0191109940861227,0.0191109940861227,                    223P    314
-3.14159265358979,3.14159265358979;                                  223P    315
128,1,8,1,2,0,1,0,0,1,0.,0.,2.21946666666667,2.21946666666667,       225P    316
-3.14159265358979,-3.14159265358979,-3.14159265358979,               225P    317
-1.5707963267949,-1.5707963267949,0.,0.,1.5707963267949,             225P    318
1.5707963267949,3.14159265358979,3.14159265358979,                   225P    319
3.14159265358979,1.,1.,0.707106781186548,0.707106781186548,1.,       225P    320
1.,0.707106781186548,0.707106781186548,1.,1.,0.707106781186548,      225P    321
0.707106781186548,1.,1.,0.707106781186548,0.707106781186548,1.,      225P    322
1.,-7.5,0.,56.646,-7.5,0.,40.,-7.5,-7.5,56.646,-7.5,-7.5,40.,0.,     225P    323
-7.5,56.646,0.,-7.5,40.,7.5,-7.5,56.646,7.5,-7.5,40.,7.5,0.,         225P    324
56.646,7.5,0.,40.,7.5,7.5,56.646,7.5,7.5,40.,0.,7.5,56.646,0.,       225P    325
7.5,40.,-7.5,7.5,56.646,-7.5,7.5,40.,-7.5,0.,56.646,-7.5,0.,40.,     225P    326
0.,2.21946666666667,-3.14159265358979,3.14159265358979;              225P    327
128,1,1,1,1,0,0,1,0,0,-0.731,-0.731,0.731,0.731,-0.731,-0.731,       227P    328
0.731,0.731,1.,1.,1.,1.,-7.31,-7.31,56.846,7.31,-7.31,56.846,        227P    329
-7.31,7.31,56.846,7.31,7.31,56.846,-0.731,0.731,-0.731,0.731;        227P    330
128,1,1,1,1,0,0,1,0,0,-0.1135,-0.1135,0.0385,0.0385,                 229P    331
-0.0717106781186548,-0.0717106781186548,0.0717106781186546,          229P    332
0.0717106781186546,1.,1.,1.,1.,-0.76,-3.00707106781187,              229P    333
56.8530710678119,0.76,-3.00707106781187,56.8530710678119,-0.76,      229P    334
-1.99292893218813,55.8389289321881,0.76,-1.99292893218813,           229P    335
55.8389289321881,-0.1135,0.0385,-0.0717106781186548,                 229P    336
0.0717106781186546;                                                  229P    337
128,1,1,1,1,0,0,1,0,0,-0.001,-0.001,0.151,0.151,                     231P    338
0.0989999999999996,0.0989999999999996,0.401,0.401,1.,1.,1.,1.,       231P    339
-0.76,-2.,55.856,0.76,-2.,55.856,-0.76,-2.,52.836,0.76,-2.,          231P    340
52.836,-0.001,0.151,0.0989999999999996,0.401;                        231P    341
128,1,1,1,1,0,0,1,0,0,-0.0385,-0.0385,0.1135,0.1135,                 233P    342
-0.0717106781186546,-0.0717106781186546,0.0717106781186548,          233P    343
0.0717106781186548,1.,1.,1.,1.,-0.76,1.99292893218813,               233P    344
55.8389289321881,0.76,1.99292893218813,55.8389289321881,-0.76,       233P    345
3.00707106781187,56.8530710678119,0.76,3.00707106781187,             233P    346
56.8530710678119,-0.0385,0.1135,-0.0717106781186546,                 233P    347
0.0717106781186548;                                                  233P    348
128,1,1,1,1,0,0,1,0,0,-0.001,-0.001,0.151,0.151,                     235P    349
0.0989999999999996,0.0989999999999996,0.401,0.401,1.,1.,1.,1.,       235P    350
0.76,2.,55.856,-0.76,2.,55.856,0.76,2.,52.836,-0.76,2.,52.836,       235P    351
-0.001,0.151,0.0989999999999996,0.401;                               235P    352
128,1,1,1,1,0,0,1,0,0,-0.101,-0.101,0.501,0.501,-0.001,-0.001,       237P    353
0.401,0.401,1.,1.,1.,1.,0.75,-3.01,56.856,0.75,3.01,56.856,0.75,     237P    354
-3.01,52.836,0.75,3.01,52.836,-0.101,0.501,-0.001,0.401;             237P    355
128,1,1,1,1,0,0,1,0,0,-0.101,-0.101,0.501,0.501,-0.001,-0.001,       239P    356
0.401,0.401,1.,1.,1.,1.,-0.75,3.01,56.856,-0.75,-3.01,56.856,        239P    357
-0.75,3.01,52.836,-0.75,-3.01,52.836,-0.101,0.501,-0.001,0.401;      239P    358
128,1,1,1,1,0,0,1,0,0,-0.076,-0.076,0.076,0.076,-0.201,-0.201,       241P    359
0.201,0.201,1.,1.,1.,1.,-0.76,-2.01,52.846,0.76,-2.01,52.846,        241P    360
-0.76,2.01,52.846,0.76,2.01,52.846,-0.076,0.076,-0.201,0.201;        241P    361
128,1,1,1,1,0,0,1,0,0,-1.8935,-1.8935,1.8935,1.8935,-1.8935,         243P    362
-1.8935,1.8935,1.8935,1.,1.,1.,1.,18.935,-18.935,0.,-18.935,         243P    363
-18.935,0.,18.935,18.935,0.,-18.935,18.935,0.,-1.8935,1.8935,        243P    364
-1.8935,1.8935;                                                      243P    365
128,1,8,1,2,0,1,0,0,1,0.,0.,2.11360634081902,2.11360634081902,       245P    366
-3.14159265358979,-3.14159265358979,-3.14159265358979,               245P    367
-1.5707963267949,-1.5707963267949,0.,0.,1.5707963267949,             245P    368
1.5707963267949,3.14159265358979,3.14159265358979,                   245P    369
3.14159265358979,1.,1.,0.707106781186548,0.707106781186548,1.,       245P    370
1.,0.707106781186548,0.707106781186548,1.,1.,0.707106781186548,      245P    371
0.707106781186548,1.,1.,0.707106781186548,0.707106781186548,1.,      245P    372
1.,-18.925,0.,40.,-18.925,0.,0.,-18.925,-18.925,40.,-18.925,         245P    373
-18.925,0.,0.,-18.925,40.,0.,-18.925,0.,18.925,-18.925,40.,          245P    374
18.925,-18.925,0.,18.925,0.,40.,18.925,0.,0.,18.925,18.925,40.,      245P    375
18.925,18.925,0.,0.,18.925,40.,0.,18.925,0.,-18.925,18.925,40.,      245P    376
-18.925,18.925,0.,-18.925,0.,40.,-18.925,0.,0.,0.,                   245P    377
2.11360634081902,-3.14159265358979,3.14159265358979;                 245P    378
128,1,1,1,1,0,0,1,0,0,-1.8935,-1.8935,1.8935,1.8935,-1.8935,         247P    379
-1.8935,1.8935,1.8935,1.,1.,1.,1.,-18.935,-18.935,40.,18.935,        247P    380
-18.935,40.,-18.935,18.935,40.,18.935,18.935,40.,-1.8935,1.8935,     247P    381
-1.8935,1.8935;                                                      247P    382
502,32,-7.3,8.93992163377568D-16,-16.846,-7.5,                       249P    383
-9.18485099360515D-16,-16.646,-7.5,9.18485099360515D-16,0.,          249P    384
-0.75,-3.,-16.846,-0.75,3.,-16.846,0.75,-3.,-16.846,0.75,3.,         249P    385
-16.846,0.75,-2.,-15.846,-0.75,-2.,-15.846,-0.75,-2.,-12.846,        249P    386
0.75,-2.,-12.846,-0.75,2.,-15.846,0.75,2.,-15.846,0.75,2.,           249P    387
-12.846,-0.75,2.,-12.846,-7.3,8.93992163377568D-16,56.846,-7.5,      249P    388
-9.18485099360515D-16,56.646,-7.5,9.18485099360515D-16,40.,          249P    389
-0.75,-3.,56.846,-0.75,3.,56.846,0.75,3.,56.846,0.75,-3.,56.846,     249P    390
0.75,-2.,55.846,-0.75,-2.,55.846,0.75,-2.,52.846,-0.75,-2.,          249P    391
52.846,-0.75,2.,55.846,0.75,2.,55.846,-0.75,2.,52.846,0.75,2.,       249P    392
52.846,-18.925,-2.31764406738637D-15,0.,-18.925,                     249P    393
-2.31764406738637D-15,40.;                                           249P    394
504,49,105,249,1,249,1,107,249,1,249,2,109,249,2,249,2,111,249,      251P    395
2,249,3,113,249,3,249,3,115,249,4,249,5,117,249,4,249,6,119,249,     251P    396
7,249,6,121,249,7,249,5,123,249,6,249,8,125,249,9,249,4,127,249,     251P    397
8,249,9,129,249,9,249,10,131,249,11,249,10,133,249,8,249,11,135,     251P    398
249,5,249,12,137,249,13,249,7,139,249,12,249,13,141,249,13,249,      251P    399
14,143,249,15,249,14,145,249,12,249,15,147,249,14,249,11,149,        251P    400
249,10,249,15,151,249,16,249,16,153,249,16,249,17,155,249,17,        251P    401
249,17,157,249,17,249,18,159,249,18,249,18,161,249,19,249,20,        251P    402
163,249,21,249,20,165,249,21,249,22,167,249,19,249,22,169,249,       251P    403
22,249,23,171,249,23,249,24,173,249,24,249,19,175,249,23,249,25,     251P    404
177,249,25,249,26,179,249,24,249,26,181,249,20,249,27,183,249,       251P    405
27,249,28,185,249,28,249,21,187,249,27,249,29,189,249,29,249,30,     251P    406
191,249,28,249,30,193,249,30,249,25,195,249,26,249,29,197,249,       251P    407
31,249,31,199,249,32,249,32,201,249,32,249,31;                       251P    408
406,1,5HBody1;                                                       253P    409
314,62.7450980392157,62.7450980392157,62.7450980392157,13HSteel      255P    410
- Satin;                                                             255P    411
S      1G      3D    256P    411                                        T      1
