0
SECTION
2
HEADER
9
$INSUNITS
70
4
9
$ACADVER
1
AC1014
9
$HANDSEED
5
FFFF
0
ENDSEC
0
SECTION
2
TABLES
0
TABLE
2
VPORT
5
8
100
AcDbSymbolTable
0
ENDTAB
0
TABLE
2
LTYPE
5
5
100
AcDbSymbolTable
0
LTYPE
5
14
100
AcDbSymbolTableRecord
100
AcDbLinetypeTableRecord
2
BYBLOCK
70
0
0
LTYPE
5
15
100
AcDbSymbolTableRecord
100
AcDbLinetypeTableRecord
2
BYLAYER
70
0
0
ENDTAB
0
TABLE
2
LAYER
5
2
100
AcDbSymbolTable
70
2
0
LAYER
5
50
100
AcDbSymbolTableRecord
100
AcDbLayerTableRecord
2
0
70
0
6
CONTINUOUS
0
ENDTAB
0
TABLE
2
STYLE
5
3
100
AcDbSymbolTable
70
1
0
STYLE
5
11
100
AcDbSymbolTableRecord
100
AcDbTextStyleTableRecord
2
STANDARD
70
0
0
ENDTAB
0
TABLE
2
VIEW
5
6
100
AcDbSymbolTable
70
0
0
ENDTAB
0
TABLE
2
UCS
5
7
100
AcDbSymbolTable
70
0
0
ENDTAB
0
TABLE
2
APPID
5
9
100
AcDbSymbolTable
70
2
0
APPID
5
12
100
AcDbSymbolTableRecord
100
AcDbRegAppTableRecord
2
ACAD
70
0
0
ENDTAB
0
TABLE
2
DIMSTYLE
5
A
100
AcDbSymbolTable
70
1
0
ENDTAB
0
TABLE
2
BLOCK_RECORD
5
1
100
AcDbSymbolTable
70
1
0
BLOCK_RECORD
5
1F
100
AcDbSymbolTableRecord
100
AcDbBlockTableRecord
2
*MODEL_SPACE
0
BLOCK_RECORD
5
1B
100
AcDbSymbolTableRecord
100
AcDbBlockTableRecord
2
*PAPER_SPACE
0
ENDTAB
0
ENDSEC
0
SECTION
2
BLOCKS
0
BLOCK
5
20
100
AcDbEntity
100
AcDbBlockBegin
2
*MODEL_SPACE
0
ENDBLK
5
21
100
AcDbEntity
100
AcDbBlockEnd
0
BLOCK
5
1C
100
AcDbEntity
100
AcDbBlockBegin
2
*PAPER_SPACE
0
ENDBLK
5
1D
100
AcDbEntity
100
AcDbBlockEnd
0
ENDSEC
0
SECTION
2
ENTITIES
0
LWPOLYLINE
5
100
100
AcDbEntity
8
0
100
AcDbPolyline
90
4
70
1
43
0.0
10
2.5422620842272976
20
-21.200000000000006
10
-2.5422619165892328
20
-21.200000000000006
10
-2.5422619165892324
20
-15.399999655783176
10
2.542262084227298
20
-15.399999655783176
0
LWPOLYLINE
5
101
100
AcDbEntity
8
0
100
AcDbPolyline
90
8
70
1
43
0.0
10
1.6407282623232518
20
-19.670455545750084
10
1.2907282623232497
20
-19.670455545750084
42
-0.41421356237309054
10
1.0907282623232517
20
-19.470455545750088
10
1.0907282623232526
20
-18.42045554575008
42
-0.41421356237309054
10
1.2907282623232497
20
-18.220455545750085
10
1.6407282623232526
20
-18.220455545750085
42
-0.41421356237309215
10
1.8407282623232515
20
-18.42045554575008
10
1.8407282623232504
20
-19.470455545750085
42
-0.41421356237309953
0
LINE
5
102
100
AcDbEntity
8
0
100
AcDbLine
10
1.0907282623232517
20
-19.670455545750084
30
0
11
1.8407282623232519
21
-18.220455545750081
31
0
0
LINE
5
103
100
AcDbEntity
8
0
100
AcDbLine
10
1.8407282623232515
20
-19.670455545750084
30
0
11
1.0907282623232517
21
-18.220455545750081
31
0
0
LINE
5
104
100
AcDbEntity
8
0
100
AcDbLine
10
0
20
-20.399999544024467
30
0
11
0
21
-19.099999573081732
31
0
0
LWPOLYLINE
5
105
100
AcDbEntity
8
0
100
AcDbPolyline
90
8
70
1
43
0.0
10
-1.6407282623232518
20
-19.670455545750084
10
-1.2907282623232497
20
-19.670455545750084
42
0.41421356237309054
10
-1.0907282623232517
20
-19.470455545750088
10
-1.0907282623232517
20
-18.42045554575008
42
0.41421356237309054
10
-1.2907282623232497
20
-18.220455545750085
10
-1.6407282623232526
20
-18.220455545750085
42
0.41421356237309215
10
-1.8407282623232515
20
-18.42045554575008
10
-1.8407282623232504
20
-19.470455545750085
42
0.41421356237309953
0
LINE
5
106
100
AcDbEntity
8
0
100
AcDbLine
10
2.542262084227298
20
-15.572508047122861
30
0
11
0.99999997764825821
21
-16.199999637901783
31
0
0
LINE
5
107
100
AcDbEntity
8
0
100
AcDbLine
10
0.99999997764825821
20
-16.199999637901783
30
0
11
0.39999999105930328
21
-16.199999637901783
31
0
0
LINE
5
108
100
AcDbEntity
8
0
100
AcDbLine
10
0.39999999105930328
20
-16.199999637901783
30
0
11
0.14469598351181445
21
-15.572508047122861
31
0
0
LINE
5
109
100
AcDbEntity
8
0
100
AcDbLine
10
0.14469598351181445
20
-15.572508047122861
30
0
11
0.14469598351181445
21
-15.399999655783176
31
0
0
LINE
5
110
100
AcDbEntity
8
0
100
AcDbLine
10
-2.542262084227298
20
-15.572508047122861
30
0
11
-0.99999997764825821
21
-16.199999637901783
31
0
0
LINE
5
111
100
AcDbEntity
8
0
100
AcDbLine
10
-0.99999997764825821
20
-16.199999637901783
30
0
11
-0.39999999105930328
21
-16.199999637901783
31
0
0
LINE
5
112
100
AcDbEntity
8
0
100
AcDbLine
10
-0.39999999105930328
20
-16.199999637901783
30
0
11
-0.14469598351181445
21
-15.572508047122861
31
0
0
LINE
5
113
100
AcDbEntity
8
0
100
AcDbLine
10
-0.14469598351181445
20
-15.572508047122861
30
0
11
-0.14469598351181445
21
-15.399999655783176
31
0
0
ENDSEC
0
SECTION
2
OBJECTS
0
DICTIONARY
5
C
100
AcDbDictionary
3
ACAD_GROUP
350
D
3
ACAD_MLINESTYLE
350
17
0
DICTIONARY
5
D
100
AcDbDictionary
0
DICTIONARY
5
1A
330
C
100
AcDbDictionary
0
DICTIONARY
5
17
100
AcDbDictionary
0
ENDSEC
0
EOF
