0
SECTION
2
HEADER
9
$INSUNITS
70
4
9
$ACADVER
1
AC1014
9
$HANDSEED
5
FFFF
0
ENDSEC
0
SECTION
2
TABLES
0
TABLE
2
VPORT
5
8
100
AcDbSymbolTable
0
ENDTAB
0
TABLE
2
LTYPE
5
5
100
AcDbSymbolTable
0
LTYPE
5
14
100
AcDbSymbolTableRecord
100
AcDbLinetypeTableRecord
2
BYBLOCK
70
0
0
LTYPE
5
15
100
AcDbSymbolTableRecord
100
AcDbLinetypeTableRecord
2
BYLAYER
70
0
0
ENDTAB
0
TABLE
2
LAYER
5
2
100
AcDbSymbolTable
70
2
0
LAYER
5
50
100
AcDbSymbolTableRecord
100
AcDbLayerTableRecord
2
0
70
0
6
CONTINUOUS
0
ENDTAB
0
TABLE
2
STYLE
5
3
100
AcDbSymbolTable
70
1
0
STYLE
5
11
100
AcDbSymbolTableRecord
100
AcDbTextStyleTableRecord
2
STANDARD
70
0
0
ENDTAB
0
TABLE
2
VIEW
5
6
100
AcDbSymbolTable
70
0
0
ENDTAB
0
TABLE
2
UCS
5
7
100
AcDbSymbolTable
70
0
0
ENDTAB
0
TABLE
2
APPID
5
9
100
AcDbSymbolTable
70
2
0
APPID
5
12
100
AcDbSymbolTableRecord
100
AcDbRegAppTableRecord
2
ACAD
70
0
0
ENDTAB
0
TABLE
2
DIMSTYLE
5
A
100
AcDbSymbolTable
70
1
0
ENDTAB
0
TABLE
2
BLOCK_RECORD
5
1
100
AcDbSymbolTable
70
1
0
BLOCK_RECORD
5
1F
100
AcDbSymbolTableRecord
100
AcDbBlockTableRecord
2
*MODEL_SPACE
0
BLOCK_RECORD
5
1B
100
AcDbSymbolTableRecord
100
AcDbBlockTableRecord
2
*PAPER_SPACE
0
ENDTAB
0
ENDSEC
0
SECTION
2
BLOCKS
0
BLOCK
5
20
100
AcDbEntity
100
AcDbBlockBegin
2
*MODEL_SPACE
0
ENDBLK
5
21
100
AcDbEntity
100
AcDbBlockEnd
0
BLOCK
5
1C
100
AcDbEntity
100
AcDbBlockBegin
2
*PAPER_SPACE
0
ENDBLK
5
1D
100
AcDbEntity
100
AcDbBlockEnd
0
ENDSEC
0
SECTION
2
ENTITIES
0
CIRCLE
5
100
100
AcDbEntity
8
0
100
AcDbCircle
10
-4.0999999083578587
20
-20.699999537318945
30
0
40
0.23000029731065019
210
0
220
0
230
1
0
CIRCLE
5
101
100
AcDbEntity
8
0
100
AcDbCircle
10
6.100000289734453
20
-17.670000839279965
30
0
40
0.22000001044943929
210
0
220
0
230
1
0
CIRCLE
5
102
100
AcDbEntity
8
0
100
AcDbCircle
10
-3.2800001557916403
20
-5.3100002522114664
30
0
40
0.21000000997446477
210
0
220
0
230
1
0
CIRCLE
5
103
100
AcDbEntity
8
0
100
AcDbCircle
10
-3.0900001467671245
20
6.3500003016088158
30
0
40
0.21000000997446477
210
0
220
0
230
1
0
CIRCLE
5
104
100
AcDbEntity
8
0
100
AcDbCircle
10
-1.9000000902451575
20
-7.9300003766547889
30
0
40
0.23086793857794219
210
0
220
0
230
1
0
CIRCLE
5
105
100
AcDbEntity
8
0
100
AcDbCircle
10
-1.2499999720603228
20
2.8999999351799488
30
0
40
0.19999999552965164
210
0
220
0
230
1
0
CIRCLE
5
106
100
AcDbEntity
8
0
100
AcDbCircle
10
3.7300001771654934
20
3.3300001581665128
30
0
40
0.2300000109244138
210
0
220
0
230
1
0
CIRCLE
5
107
100
AcDbEntity
8
0
100
AcDbCircle
10
1.4499999675899744
20
-6.5499998535960913
30
0
40
0.19999999552965164
210
0
220
0
230
1
0
CIRCLE
5
108
100
AcDbEntity
8
0
100
AcDbCircle
10
2.8900001372676343
20
13.420000637415797
30
0
40
0.25000001187436283
210
0
220
0
230
1
0
CIRCLE
5
109
100
AcDbEntity
8
0
100
AcDbCircle
10
-2.2300001059193164
20
14.07000066828914
30
0
40
0.29152726065578616
210
0
220
0
230
1
0
CIRCLE
5
110
100
AcDbEntity
8
0
100
AcDbCircle
10
4.7500002256128937
20
12.080000573769212
30
0
40
0.21260292635278955
210
0
220
0
230
1
0
CIRCLE
5
111
100
AcDbEntity
8
0
100
AcDbCircle
10
2.0000000949949026
20
14.530000690137967
30
0
40
0.26000001234933734
210
0
220
0
230
1
0
CIRCLE
5
112
100
AcDbEntity
8
0
100
AcDbCircle
10
-0.20000000949949026
20
13.900000660214573
30
0
40
0.28284272590892695
210
0
220
0
230
1
0
CIRCLE
5
113
100
AcDbEntity
8
0
100
AcDbCircle
10
0.6100000289734453
20
12.450000591343269
30
0
40
0.1649242328581868
210
0
220
0
230
1
0
CIRCLE
5
114
100
AcDbEntity
8
0
100
AcDbCircle
10
-7.2999998368322849
20
10.699999649077654
30
0
40
0.89999997988343239
210
0
220
0
230
1
0
CIRCLE
5
115
100
AcDbEntity
8
0
100
AcDbCircle
10
-7.3999998368322846
20
0.7499996490776486
30
0
40
0.89999997988343239
210
0
220
0
230
1
0
CIRCLE
5
116
100
AcDbEntity
8
0
100
AcDbCircle
10
-7.4999998368322851
20
-9.1000003509223522
30
0
40
0.89999997988343239
210
0
220
0
230
1
0
CIRCLE
5
117
100
AcDbEntity
8
0
100
AcDbCircle
10
7.2999998368322849
20
15.699999649077654
30
0
40
0.89999997988343239
210
0
220
0
230
1
0
CIRCLE
5
118
100
AcDbEntity
8
0
100
AcDbCircle
10
7.3999998368322846
20
5.7999996490776518
30
0
40
0.89999997988343239
210
0
220
0
230
1
0
CIRCLE
5
119
100
AcDbEntity
8
0
100
AcDbCircle
10
7.4999998368322851
20
-4.2000003509223527
30
0
40
0.89999997988343239
210
0
220
0
230
1
0
CIRCLE
5
120
100
AcDbEntity
8
0
100
AcDbCircle
10
7.4999998368322851
20
-14.10000035092235
30
0
40
0.89999997988343239
210
0
220
0
230
1
0
CIRCLE
5
121
100
AcDbEntity
8
0
100
AcDbCircle
10
7.4999998368322851
20
-11.60000035092235
30
0
40
0.89999997988343239
210
0
220
0
230
1
0
CIRCLE
5
122
100
AcDbEntity
8
0
100
AcDbCircle
10
7.3999998368322846
20
-1.7000003509223527
30
0
40
0.89999997988343239
210
0
220
0
230
1
0
CIRCLE
5
123
100
AcDbEntity
8
0
100
AcDbCircle
10
7.3999998368322846
20
8.1999996490776521
30
0
40
0.89999997988343239
210
0
220
0
230
1
0
CIRCLE
5
124
100
AcDbEntity
8
0
100
AcDbCircle
10
-7.4999998368322851
20
-16.600000350922354
30
0
40
0.89999997988343239
210
0
220
0
230
1
0
CIRCLE
5
125
100
AcDbEntity
8
0
100
AcDbCircle
10
-7.3999998368322846
20
-6.7000003509223518
30
0
40
0.89999997988343239
210
0
220
0
230
1
0
CIRCLE
5
126
100
AcDbEntity
8
0
100
AcDbCircle
10
-7.3999998368322846
20
3.2999996490776509
30
0
40
0.89999997988343239
210
0
220
0
230
1
0
CIRCLE
5
127
100
AcDbEntity
8
0
100
AcDbCircle
10
-7.2999998368322849
20
13.199999649077654
30
0
40
0.89999997988343239
210
0
220
0
230
1
0
CIRCLE
5
128
100
AcDbEntity
8
0
100
AcDbCircle
10
-7.3999998368322846
20
8.1999996490776521
30
0
40
0.89999997988343239
210
0
220
0
230
1
0
CIRCLE
5
129
100
AcDbEntity
8
0
100
AcDbCircle
10
-7.3999998368322846
20
-1.7000003509223516
30
0
40
0.89999997988343239
210
0
220
0
230
1
0
CIRCLE
5
130
100
AcDbEntity
8
0
100
AcDbCircle
10
-7.4999998368322851
20
-11.600000350922352
30
0
40
0.89999997988343239
210
0
220
0
230
1
0
CIRCLE
5
131
100
AcDbEntity
8
0
100
AcDbCircle
10
7.2999998368322849
20
13.199999649077654
30
0
40
0.89999997988343239
210
0
220
0
230
1
0
CIRCLE
5
132
100
AcDbEntity
8
0
100
AcDbCircle
10
7.3999998368322846
20
3.2999996490776518
30
0
40
0.89999997988343239
210
0
220
0
230
1
0
CIRCLE
5
133
100
AcDbEntity
8
0
100
AcDbCircle
10
7.3999998368322846
20
-6.7000003509223527
30
0
40
0.89999997988343239
210
0
220
0
230
1
0
CIRCLE
5
134
100
AcDbEntity
8
0
100
AcDbCircle
10
7.4999998368322851
20
-16.60000035092235
30
0
40
0.89999997988343239
210
0
220
0
230
1
0
CIRCLE
5
135
100
AcDbEntity
8
0
100
AcDbCircle
10
7.4999998368322851
20
-9.1000003509223504
30
0
40
0.89999997988343239
210
0
220
0
230
1
0
CIRCLE
5
136
100
AcDbEntity
8
0
100
AcDbCircle
10
7.3999998368322846
20
0.74999964907764838
30
0
40
0.89999997988343239
210
0
220
0
230
1
0
CIRCLE
5
137
100
AcDbEntity
8
0
100
AcDbCircle
10
7.2999998368322849
20
10.699999649077654
30
0
40
0.89999997988343239
210
0
220
0
230
1
0
CIRCLE
5
138
100
AcDbEntity
8
0
100
AcDbCircle
10
-7.4999998368322851
20
-14.100000350922352
30
0
40
0.89999997988343239
210
0
220
0
230
1
0
CIRCLE
5
139
100
AcDbEntity
8
0
100
AcDbCircle
10
-7.4999998368322851
20
-4.2000003509223518
30
0
40
0.89999997988343239
210
0
220
0
230
1
0
CIRCLE
5
140
100
AcDbEntity
8
0
100
AcDbCircle
10
-7.3999998368322846
20
5.7999996490776518
30
0
40
0.89999997988343239
210
0
220
0
230
1
0
CIRCLE
5
141
100
AcDbEntity
8
0
100
AcDbCircle
10
-7.2999998368322849
20
15.699999649077654
30
0
40
0.89999997988343239
210
0
220
0
230
1
0
CIRCLE
5
142
100
AcDbEntity
8
0
100
AcDbCircle
10
-6.6999999999999957
20
-19.499999999999993
30
0
40
1.25
210
0
220
0
230
1
0
CIRCLE
5
143
100
AcDbEntity
8
0
100
AcDbCircle
10
-6.7000000000000011
20
18.299999999999997
30
0
40
1.25
210
0
220
0
230
1
0
CIRCLE
5
144
100
AcDbEntity
8
0
100
AcDbCircle
10
6.6000000000000005
20
-19.5
30
0
40
1.25
210
0
220
0
230
1
0
CIRCLE
5
145
100
AcDbEntity
8
0
100
AcDbCircle
10
6.6000000000000005
20
18.300000000000001
30
0
40
1.25
210
0
220
0
230
1
0
LWPOLYLINE
5
146
100
AcDbEntity
8
0
100
AcDbPolyline
90
8
70
1
43
0.0
10
8.600000000000005
20
-19.5
42
-0.4142135623730947
10
6.6000000000000005
20
-21.500000000000004
10
-6.7000000000000011
20
-21.5
42
-0.41421356237309359
10
-8.7000000000000028
20
-19.499999999999996
10
-8.7000000000000011
20
18.299999999999997
42
-0.4142135623730952
10
-6.7000000000000002
20
20.299999999999997
10
6.6000000000000005
20
20.300000000000004
42
-0.41421356237309503
10
8.6000000000000014
20
18.300000000000001
0
CIRCLE
5
147
100
AcDbEntity
8
0
100
AcDbCircle
10
-7.4999998368322851
20
-16.600000350922354
30
0
40
0.69999999999999951
210
0
220
0
230
1
0
CIRCLE
5
148
100
AcDbEntity
8
0
100
AcDbCircle
10
-7.4999998368322851
20
-14.100000350922352
30
0
40
0.70000000000000062
210
0
220
0
230
1
0
CIRCLE
5
149
100
AcDbEntity
8
0
100
AcDbCircle
10
-7.4999998368322851
20
-11.600000350922352
30
0
40
0.6999999999999994
210
0
220
0
230
1
0
CIRCLE
5
150
100
AcDbEntity
8
0
100
AcDbCircle
10
-7.4999998368322851
20
-9.1000003509223522
30
0
40
0.69999999999999951
210
0
220
0
230
1
0
CIRCLE
5
151
100
AcDbEntity
8
0
100
AcDbCircle
10
-7.3999998368322846
20
-6.7000003509223518
30
0
40
0.69999999999999996
210
0
220
0
230
1
0
CIRCLE
5
152
100
AcDbEntity
8
0
100
AcDbCircle
10
-7.4999998368322851
20
-4.2000003509223518
30
0
40
0.69999999999999973
210
0
220
0
230
1
0
CIRCLE
5
153
100
AcDbEntity
8
0
100
AcDbCircle
10
-7.3999998368322846
20
-1.7000003509223516
30
0
40
0.70000000000000007
210
0
220
0
230
1
0
CIRCLE
5
154
100
AcDbEntity
8
0
100
AcDbCircle
10
-7.3999998368322846
20
0.7499996490776486
30
0
40
0.69999999999999996
210
0
220
0
230
1
0
CIRCLE
5
155
100
AcDbEntity
8
0
100
AcDbCircle
10
-7.3999998368322846
20
3.2999996490776509
30
0
40
0.70000000000000007
210
0
220
0
230
1
0
CIRCLE
5
156
100
AcDbEntity
8
0
100
AcDbCircle
10
-7.3999998368322846
20
5.7999996490776518
30
0
40
0.6999999999999994
210
0
220
0
230
1
0
CIRCLE
5
157
100
AcDbEntity
8
0
100
AcDbCircle
10
-7.3999998368322846
20
8.1999996490776521
30
0
40
0.69999999999999951
210
0
220
0
230
1
0
CIRCLE
5
158
100
AcDbEntity
8
0
100
AcDbCircle
10
-7.2999998368322849
20
10.699999649077654
30
0
40
0.69999999999999996
210
0
220
0
230
1
0
CIRCLE
5
159
100
AcDbEntity
8
0
100
AcDbCircle
10
-7.2999998368322849
20
13.199999649077654
30
0
40
0.70000000000000062
210
0
220
0
230
1
0
CIRCLE
5
160
100
AcDbEntity
8
0
100
AcDbCircle
10
-7.2999998368322849
20
15.699999649077654
30
0
40
0.70000000000000007
210
0
220
0
230
1
0
CIRCLE
5
161
100
AcDbEntity
8
0
100
AcDbCircle
10
7.2999998368322849
20
15.699999649077654
30
0
40
0.70000000000000062
210
0
220
0
230
1
0
CIRCLE
5
162
100
AcDbEntity
8
0
100
AcDbCircle
10
7.2999998368322849
20
13.199999649077654
30
0
40
0.70000000000000062
210
0
220
0
230
1
0
CIRCLE
5
163
100
AcDbEntity
8
0
100
AcDbCircle
10
7.2999998368322849
20
10.699999649077654
30
0
40
0.69999999999999951
210
0
220
0
230
1
0
CIRCLE
5
164
100
AcDbEntity
8
0
100
AcDbCircle
10
7.3999998368322846
20
8.1999996490776521
30
0
40
0.69999999999999951
210
0
220
0
230
1
0
CIRCLE
5
165
100
AcDbEntity
8
0
100
AcDbCircle
10
7.3999998368322846
20
5.7999996490776518
30
0
40
0.69999999999999951
210
0
220
0
230
1
0
CIRCLE
5
166
100
AcDbEntity
8
0
100
AcDbCircle
10
7.3999998368322846
20
3.2999996490776518
30
0
40
0.70000000000000007
210
0
220
0
230
1
0
CIRCLE
5
167
100
AcDbEntity
8
0
100
AcDbCircle
10
7.3999998368322846
20
0.74999964907764838
30
0
40
0.69999999999999973
210
0
220
0
230
1
0
CIRCLE
5
168
100
AcDbEntity
8
0
100
AcDbCircle
10
7.3999998368322846
20
-1.7000003509223527
30
0
40
0.69999999999999996
210
0
220
0
230
1
0
CIRCLE
5
169
100
AcDbEntity
8
0
100
AcDbCircle
10
7.4999998368322851
20
-4.2000003509223527
30
0
40
0.70000000000000018
210
0
220
0
230
1
0
CIRCLE
5
170
100
AcDbEntity
8
0
100
AcDbCircle
10
7.3999998368322846
20
-6.7000003509223527
30
0
40
0.69999999999999951
210
0
220
0
230
1
0
CIRCLE
5
171
100
AcDbEntity
8
0
100
AcDbCircle
10
7.4999998368322851
20
-9.1000003509223504
30
0
40
0.69999999999999962
210
0
220
0
230
1
0
CIRCLE
5
172
100
AcDbEntity
8
0
100
AcDbCircle
10
7.4999998368322851
20
-11.60000035092235
30
0
40
0.6999999999999994
210
0
220
0
230
1
0
CIRCLE
5
173
100
AcDbEntity
8
0
100
AcDbCircle
10
7.4999998368322851
20
-14.10000035092235
30
0
40
0.6999999999999994
210
0
220
0
230
1
0
CIRCLE
5
174
100
AcDbEntity
8
0
100
AcDbCircle
10
7.4999998368322851
20
-16.60000035092235
30
0
40
0.6999999999999994
210
0
220
0
230
1
0
CIRCLE
5
175
100
AcDbEntity
8
0
100
AcDbCircle
10
6.6000000000000005
20
-19.5
30
0
40
0.99999999999999878
210
0
220
0
230
1
0
CIRCLE
5
176
100
AcDbEntity
8
0
100
AcDbCircle
10
-6.6999999999999957
20
-19.499999999999993
30
0
40
1.0000000000000004
210
0
220
0
230
1
0
CIRCLE
5
177
100
AcDbEntity
8
0
100
AcDbCircle
10
-6.7000000000000011
20
18.299999999999997
30
0
40
0.99999999999999978
210
0
220
0
230
1
0
CIRCLE
5
178
100
AcDbEntity
8
0
100
AcDbCircle
10
6.6000000000000005
20
18.300000000000001
30
0
40
1.0000000000000009
210
0
220
0
230
1
0
ENDSEC
0
SECTION
2
OBJECTS
0
DICTIONARY
5
C
100
AcDbDictionary
3
ACAD_GROUP
350
D
3
ACAD_MLINESTYLE
350
17
0
DICTIONARY
5
D
100
AcDbDictionary
0
DICTIONARY
5
1A
330
C
100
AcDbDictionary
0
DICTIONARY
5
17
100
AcDbDictionary
0
ENDSEC
0
EOF
