0
SECTION
2
HEADER
9
$INSUNITS
70
4
9
$ACADVER
1
AC1014
9
$HANDSEED
5
FFFF
0
ENDSEC
0
SECTION
2
TABLES
0
TABLE
2
VPORT
5
8
100
AcDbSymbolTable
0
ENDTAB
0
TABLE
2
LTYPE
5
5
100
AcDbSymbolTable
0
LTYPE
5
14
100
AcDbSymbolTableRecord
100
AcDbLinetypeTableRecord
2
BYBLOCK
70
0
0
LTYPE
5
15
100
AcDbSymbolTableRecord
100
AcDbLinetypeTableRecord
2
BYLAYER
70
0
0
ENDTAB
0
TABLE
2
LAYER
5
2
100
AcDbSymbolTable
70
2
0
LAYER
5
50
100
AcDbSymbolTableRecord
100
AcDbLayerTableRecord
2
0
70
0
6
CONTINUOUS
0
ENDTAB
0
TABLE
2
STYLE
5
3
100
AcDbSymbolTable
70
1
0
STYLE
5
11
100
AcDbSymbolTableRecord
100
AcDbTextStyleTableRecord
2
STANDARD
70
0
0
ENDTAB
0
TABLE
2
VIEW
5
6
100
AcDbSymbolTable
70
0
0
ENDTAB
0
TABLE
2
UCS
5
7
100
AcDbSymbolTable
70
0
0
ENDTAB
0
TABLE
2
APPID
5
9
100
AcDbSymbolTable
70
2
0
APPID
5
12
100
AcDbSymbolTableRecord
100
AcDbRegAppTableRecord
2
ACAD
70
0
0
ENDTAB
0
TABLE
2
DIMSTYLE
5
A
100
AcDbSymbolTable
70
1
0
ENDTAB
0
TABLE
2
BLOCK_RECORD
5
1
100
AcDbSymbolTable
70
1
0
BLOCK_RECORD
5
1F
100
AcDbSymbolTableRecord
100
AcDbBlockTableRecord
2
*MODEL_SPACE
0
BLOCK_RECORD
5
1B
100
AcDbSymbolTableRecord
100
AcDbBlockTableRecord
2
*PAPER_SPACE
0
ENDTAB
0
ENDSEC
0
SECTION
2
BLOCKS
0
BLOCK
5
20
100
AcDbEntity
100
AcDbBlockBegin
2
*MODEL_SPACE
0
ENDBLK
5
21
100
AcDbEntity
100
AcDbBlockEnd
0
BLOCK
5
1C
100
AcDbEntity
100
AcDbBlockBegin
2
*PAPER_SPACE
0
ENDBLK
5
1D
100
AcDbEntity
100
AcDbBlockEnd
0
ENDSEC
0
SECTION
2
ENTITIES
0
LWPOLYLINE
5
100
100
AcDbEntity
8
0
100
AcDbPolyline
90
8
70
1
43
0.0
10
-25.000000029802326
20
5
10
-2.8667501658934711
20
4.9999999999999991
10
-2.8667504490915219
20
1.0000000000000002
10
-3.5000000298023224
20
1
10
-3.5000000298023224
20
-1
10
-2.8667504490915219
20
-1.0000000000000004
10
-2.8667501658934702
20
-4.9999999999999991
10
-25.000000029802326
20
-5
42
-0.99999999999999989
0
SPLINE
5
101
100
AcDbEntity
8
0
100
AcDbSpline
70
0
71
3
72
16
73
12
74
0
42
0.000000001
43
0.0000000001
44
0.0000000001
40
0
40
0
40
0
40
0
40
0.010016798760218399
40
0.010016798760218399
40
0.019656221392325479
40
0.019656221392325479
40
0.033892609624513931
40
0.033892609624513931
40
0.041215268121463373
40
0.041215268121463373
40
0.049288691440332544
40
0.049288691440332544
40
0.049288691440332544
40
0.049288691440332544
10
-23.58931576151631
20
-1.941641053154235
30
0
10
-23.616328296270478
20
-1.9612668084423635
30
0
10
-23.642419498641559
20
-1.9732182662098938
30
0
10
-23.695170454898417
20
-1.9856532646917961
30
0
10
-23.720319568647369
20
-1.9862112185222067
30
0
10
-23.782696721990714
20
-1.9824974911531306
30
0
10
-23.819720707624739
20
-1.9758032523950673
30
0
10
-23.878723045419399
20
-1.9759983504080301
30
0
10
-23.897946063243268
20
-1.9778654217385463
30
0
10
-23.938848500051936
20
-1.9871614549265302
30
0
10
-23.958986364374297
20
-1.9948110940552952
30
0
10
-23.978521375586027
20
-2.0047646794238272
30
0
0
SPLINE
5
102
100
AcDbEntity
8
0
100
AcDbSpline
70
0
71
3
72
16
73
12
74
0
42
0.000000001
43
0.0000000001
44
0.0000000001
40
0
40
0
40
0
40
0
40
0.011593485538157292
40
0.011593485538157292
40
0.024519020934252574
40
0.024519020934252574
40
0.036040451134371307
40
0.036040451134371307
40
0.042029146149444641
40
0.042029146149444641
40
0.048743700289945367
40
0.048743700289945367
40
0.048743700289945367
40
0.048743700289945367
10
-23.978521375586027
20
-2.0047646794238281
30
0
10
-24.012954279761299
20
-2.0223091204011352
30
0
10
-24.038300939262758
20
-2.0433361866269215
30
0
10
-24.082966066034679
20
-2.0962716020330543
30
0
10
-24.099306997664055
20
-2.126838389631617
30
0
10
-24.132041399505141
20
-2.1830669916291661
30
0
10
-24.148094276302601
20
-2.2086556274790019
30
0
10
-24.182092835475281
20
-2.2421604484441739
30
0
10
-24.194685391657991
20
-2.2519305687993967
30
0
10
-24.224330396521204
20
-2.2697027938316814
30
0
10
-24.241022437119074
20
-2.2769025789929782
30
0
10
-24.258359213500135
20
-2.2825356391083695
30
0
0
SPLINE
5
103
100
AcDbEntity
8
0
100
AcDbSpline
70
0
71
3
72
16
73
12
74
0
42
0.000000001
43
0.0000000001
44
0.0000000001
40
0
40
0
40
0
40
0
40
0.010016798760089794
40
0.010016798760089794
40
0.019656221391739725
40
0.019656221391739725
40
0.033892609622849401
40
0.033892609622849401
40
0.04121526811923075
40
0.04121526811923075
40
0.049288691437470472
40
0.049288691437470472
40
0.049288691437470472
40
0.049288691437470472
10
-24.258359644955945
20
-2.2825357792968601
30
0
10
-24.290114784066613
20
-2.2928536494505347
30
0
10
-24.318622195657351
20
-2.296157536303395
30
0
10
-24.372633962202023
20
-2.2916829806868462
30
0
10
-24.396724607927503
20
-2.2844421227713787
30
0
10
-24.454901201213744
20
-2.2616345577132257
30
0
10
-24.4880444704696
20
-2.2438269175602938
30
0
10
-24.544219316907416
20
-2.2257797417104421
30
0
10
-24.563078450042539
20
-2.2216151928749559
30
0
10
-24.604851611337143
20
-2.2178166977288543
30
0
10
-24.626367726916826
20
-2.2188689945635427
30
0
10
-24.648022453659483
20
-2.2222987663390592
30
0
0
SPLINE
5
104
100
AcDbEntity
8
0
100
AcDbSpline
70
0
71
3
72
16
73
12
74
0
42
0.000000001
43
0.0000000001
44
0.0000000001
40
0
40
0
40
0
40
0
40
0.011593485538657963
40
0.011593485538657963
40
0.02451902093614329
40
0.02451902093614329
40
0.036040451137647075
40
0.036040451137647075
40
0.042029146153496094
40
0.042029146153496094
40
0.048743700294861685
40
0.048743700294861685
40
0.048743700294861685
40
0.048743700294861685
10
-24.648022453659486
20
-2.2222987663390601
30
0
10
-24.686191621970789
20
-2.2283441686996994
30
0
10
-24.716795448461333
20
-2.2405095485163153
30
0
10
-24.775632451292733
20
-2.2770518370520918
30
0
10
-24.800619257632732
20
-2.3010729540027866
30
0
10
-24.849127117398378
20
-2.3444340458654702
30
0
10
-24.872301633822147
20
-2.3638096729941322
30
0
10
-24.914989744139202
20
-2.3851685187313816
30
0
10
-24.929985109980393
20
-2.3905691414970907
30
0
10
-24.963671104593871
20
-2.3983107216219808
30
0
10
-24.981771034545357
20
-2.4000000000000004
30
0
10
-25.000000000000007
20
-2.3999999999999999
30
0
0
SPLINE
5
105
100
AcDbEntity
8
0
100
AcDbSpline
70
0
71
3
72
16
73
12
74
0
42
0.000000001
43
0.0000000001
44
0.0000000001
40
0
40
0
40
0
40
0
40
0.010016798760078258
40
0.010016798760078258
40
0.019656221391927804
40
0.019656221391927804
40
0.033892609623803388
40
0.033892609623803388
40
0.041215268120629249
40
0.041215268120629249
40
0.049288691439378772
40
0.049288691439378772
40
0.049288691439378772
40
0.049288691439378772
10
-25.000000453659496
20
-2.3999999999999999
30
0
10
-25.033389782859757
20
-2.3999999999999999
30
0
10
-25.06152289960086
20
-2.394332908473356
30
0
10
-25.11150842840263
20
-2.3733867994379221
30
0
10
-25.132182445851996
20
-2.3590559153988959
30
0
10
-25.180463748788814
20
-2.3193870760297064
30
0
10
-25.206482007548875
20
-2.292209170373297
30
0
10
-25.254330577267513
20
-2.2576863039747743
30
0
10
-25.270979762363197
20
-2.2478977900295098
30
0
10
-25.309534600065415
20
-2.2313765897199236
30
0
10
-25.330322819597868
20
-2.225728538114577
30
0
10
-25.351977546340521
20
-2.2222987663390601
30
0
0
SPLINE
5
106
100
AcDbEntity
8
0
100
AcDbSpline
70
0
71
3
72
16
73
12
74
0
42
0.000000001
43
0.0000000001
44
0.0000000001
40
0
40
0
40
0
40
0
40
0.011593485538201066
40
0.011593485538201066
40
0.024519020934453923
40
0.024519020934453923
40
0.036040451134912728
40
0.036040451134912728
40
0.042029146150230276
40
0.042029146150230276
40
0.048743700291013048
40
0.048743700291013048
40
0.048743700291013048
40
0.048743700291013048
10
-25.351977546340517
20
-2.2222987663390601
30
0
10
-25.390146714650321
20
-2.2162533639786606
30
0
10
-25.42301199236412
20
-2.2183662252473892
30
0
10
-25.490261495478212
20
-2.2349383731069379
30
0
10
-25.521448293830709
20
-2.250062465117205
30
0
10
-25.58098132423244
20
-2.2763115610585221
30
0
10
-25.609008997148813
20
-2.2875775580853146
30
0
10
-25.65620804894753
20
-2.2946996759586842
30
0
10
-25.672138373559861
20
-2.2952021505502747
30
0
10
-25.706567938066883
20
-2.2921552859665146
30
0
10
-25.724304010118843
20
-2.2881686992237511
30
0
10
-25.741640786499879
20
-2.2825356391083673
30
0
0
SPLINE
5
107
100
AcDbEntity
8
0
100
AcDbSpline
70
0
71
3
72
16
73
12
74
0
42
0.000000001
43
0.0000000001
44
0.0000000001
40
0
40
0
40
0
40
0
40
0.010016798760074993
40
0.010016798760074993
40
0.019656221391743774
40
0.019656221391743774
40
0.03389260962298029
40
0.03389260962298029
40
0.041215268119474242
40
0.041215268119474242
40
0.049288691437847157
40
0.049288691437847157
40
0.049288691437847157
40
0.049288691437847157
10
-25.741641217955689
20
-2.2825354989198776
30
0
10
-25.773396357066311
20
-2.272217628766219
30
0
10
-25.79840131347623
20
-2.2581342932636286
30
0
10
-25.839467672705286
20
-2.2227669819021796
30
0
10
-25.854701345006021
20
-2.2027488785189706
30
0
10
-25.88836124726739
20
-2.1501018272245624
30
0
10
-25.904707647084479
20
-2.1162140188298157
30
0
10
-25.939546188699126
20
-2.0685948005806845
30
0
10
-25.952355687516594
20
-2.054140489471155
30
0
10
-25.983918185484892
20
-2.0265137941943303
30
0
10
-26.001943613202233
20
-2.0147182647923714
30
0
10
-26.02147862441398
20
-2.0047646794238294
30
0
0
SPLINE
5
108
100
AcDbEntity
8
0
100
AcDbSpline
70
0
71
3
72
16
73
12
74
0
42
0.000000001
43
0.0000000001
44
0.0000000001
40
0
40
0
40
0
40
0
40
0.011593485538289393
40
0.011593485538289393
40
0.024519020934819544
40
0.024519020934819544
40
0.036040451135884541
40
0.036040451135884541
40
0.042029146151600798
40
0.042029146151600798
40
0.048743700292833439
40
0.048743700292833439
40
0.048743700292833439
40
0.048743700292833439
10
-26.021478624413987
20
-2.0047646794238272
30
0
10
-26.05591152858965
20
-1.9872202384463238
30
0
10
-26.087821175158048
20
-1.9790737595856689
30
0
10
-26.15690032863407
20
-1.9740535694709864
30
0
10
-26.191234337885405
20
-1.9788001850393842
30
0
10
-26.255965031117164
20
-1.985367840660488
30
0
10
-26.286102316620372
20
-1.9874214133012891
30
0
10
-26.333192137854834
20
-1.9796096407904564
30
0
10
-26.348498050072138
20
-1.975164781493937
30
0
10
-26.380300978813782
20
-1.9616277205356945
30
0
10
-26.395937062659208
20
-1.9523555035586984
30
0
10
-26.410684605501942
20
-1.9416407864998719
30
0
0
SPLINE
5
109
100
AcDbEntity
8
0
100
AcDbSpline
70
0
71
3
72
16
73
12
74
0
42
0.000000001
43
0.0000000001
44
0.0000000001
40
0
40
0
40
0
40
0
40
0.010016798759747597
40
0.010016798759747597
40
0.019656221390609831
40
0.019656221390609831
40
0.03389260962047326
40
0.03389260962047326
40
0.041215268116250557
40
0.041215268116250557
40
0.049288691433827976
40
0.049288691433827976
40
0.049288691433827976
40
0.049288691433827976
10
-26.41068497252018
20
-1.9416405198455156
30
0
10
-26.437697507273079
20
-1.9220147645583094
30
0
10
-26.457126643999015
20
-1.9008937600833002
30
0
10
-26.485253972288589
20
-1.8545672452497797
30
0
10
-26.493556121456781
20
-1.8308214339558542
30
0
10
-26.509299757286726
20
-1.7703496309305102
30
0
10
-26.514374198654611
20
-1.7330690945934404
30
0
10
-26.532792472977647
20
-1.6770148253583472
30
0
10
-26.540508402523621
20
-1.6593096057650909
30
0
10
-26.561989003548007
20
-1.6232817089411575
30
0
10
-26.575487184994731
20
-1.606493330344736
30
0
10
-26.590990257669738
20
-1.5909902576697332
30
0
0
SPLINE
5
110
100
AcDbEntity
8
0
100
AcDbSpline
70
0
71
3
72
16
73
12
74
0
42
0.000000001
43
0.0000000001
44
0.0000000001
40
0
40
0
40
0
40
0
40
0.011593485538130461
40
0.011593485538130461
40
0.024519020934239549
40
0.024519020934239549
40
0.03604045113500421
40
0.03604045113500421
40
0.042029146150578456
40
0.042029146150578456
40
0.048743700291652647
40
0.048743700291652647
40
0.048743700291652647
40
0.048743700291652647
10
-26.590990257669738
20
-1.5909902576697332
30
0
10
-26.618316365141737
20
-1.5636641501977324
30
0
10
-26.646146842030912
20
-1.5460557653181382
30
0
10
-26.710293697024454
20
-1.5199346484152219
30
0
10
-26.74441406512986
20
-1.5138391557381949
30
0
10
-26.808006129932394
20
-1.5000824831471395
30
0
10
-26.837302980538816
20
-1.4927226134040497
30
0
10
-26.879674091413015
20
-1.4707416212302893
30
0
10
-26.892857341904879
20
-1.4617845218427752
30
0
10
-26.918920542631938
20
-1.4390823663548642
30
0
10
-26.930926069441064
20
-1.4254321483446575
30
0
10
-26.941640786499875
20
-1.4106846055019373
30
0
0
SPLINE
5
111
100
AcDbEntity
8
0
100
AcDbSpline
70
0
71
3
72
16
73
12
74
0
42
0.000000001
43
0.0000000001
44
0.0000000001
40
0
40
0
40
0
40
0
40
0.010016798759573269
40
0.010016798759573269
40
0.019656221390296033
40
0.019656221390296033
40
0.033892609620328779
40
0.033892609620328779
40
0.041215268116166208
40
0.041215268116166208
40
0.049288691433810566
40
0.049288691433810566
40
0.049288691433810566
40
0.049288691433810566
10
-26.941641053154235
20
-1.4106842384836993
30
0
10
-26.961266808441103
20
-1.3836717037312738
30
0
10
-26.973218266209425
20
-1.3575805013603373
30
0
10
-26.98565326469172
20
-1.304829545102022
30
0
10
-26.986211218522229
20
-1.2796804313532313
30
0
10
-26.982497491153197
20
-1.2173032780096884
30
0
10
-26.975803252395096
20
-1.1802792923756094
30
0
10
-26.975998350408016
20
-1.1212769545807491
30
0
10
-26.977865421738528
20
-1.1020539367568725
30
0
10
-26.987161454926504
20
-1.0611514999481515
30
0
10
-26.994811094055272
20
-1.041013635625758
30
0
10
-27.004764679423829
20
-1.0214786244139828
30
0
0
SPLINE
5
112
100
AcDbEntity
8
0
100
AcDbSpline
70
0
71
3
72
16
73
12
74
0
42
0.000000001
43
0.0000000001
44
0.0000000001
40
0
40
0
40
0
40
0
40
0.011593485538844065
40
0.011593485538844065
40
0.024519020936855176
40
0.024519020936855176
40
0.036040451139406834
40
0.036040451139406834
40
0.042029146155985533
40
0.042029146155985533
40
0.04874370029817883
40
0.04874370029817883
40
0.04874370029817883
40
0.04874370029817883
10
-27.004764679423836
20
-1.0214786244139784
30
0
10
-27.022309120402177
20
-0.98704572023666615
30
0
10
-27.043336186628647
20
-0.96169906073577227
30
0
10
-27.096271602033625
20
-0.91703393396485988
30
0
10
-27.126838389632589
20
-0.90069300233543892
30
0
10
-27.18306699163163
20
-0.86795860049337281
30
0
10
-27.208655627480308
20
-0.85190572369617479
30
0
10
-27.242160448444519
20
-0.81790716452432721
30
0
10
-27.251930568799615
20
-0.8053146083417061
30
0
10
-27.269702793831769
20
-0.77566960347862079
30
0
10
-27.276902578993017
20
-0.7589775628808314
30
0
10
-27.282535639108374
20
-0.74164078649987086
30
0
0
SPLINE
5
113
100
AcDbEntity
8
0
100
AcDbSpline
70
0
71
3
72
16
73
12
74
0
42
0.000000001
43
0.0000000001
44
0.0000000001
40
0
40
0
40
0
40
0
40
0.010016798759440526
40
0.010016798759440526
40
0.019656221390044974
40
0.019656221390044974
40
0.033892609620339312
40
0.033892609620339312
40
0.041215268116345578
40
0.041215268116345578
40
0.049288691434187556
40
0.049288691434187556
40
0.049288691434187556
40
0.049288691434187556
10
-27.282535779296868
20
-0.74164035504405756
30
0
10
-27.292853649449871
20
-0.70988521593544729
30
0
10
-27.296157536303539
20
-0.68137780434458661
30
0
10
-27.291682980686804
20
-0.62736603779734101
30
0
10
-27.284442122771054
20
-0.60327539207167746
30
0
10
-27.261634557713293
20
-0.54509879878637479
30
0
10
-27.243826917560408
20
-0.51195552953066059
30
0
10
-27.225779741710433
20
-0.45578068309256048
30
0
10
-27.221615192874982
20
-0.4369215499575233
30
0
10
-27.21781669772886
20
-0.39514838866293039
30
0
10
-27.218868994563543
20
-0.3736322730832265
30
0
10
-27.222298766339065
20
-0.35197754634052281
30
0
0
SPLINE
5
114
100
AcDbEntity
8
0
100
AcDbSpline
70
0
71
3
72
16
73
12
74
0
42
0.000000001
43
0.0000000001
44
0.0000000001
40
0
40
0
40
0
40
0
40
0.011593485538374221
40
0.011593485538374221
40
0.024519020935052666
40
0.024519020935052666
40
0.036040451135905829
40
0.036040451135905829
40
0.042029146151445561
40
0.042029146151445561
40
0.048743700292475621
40
0.048743700292475621
40
0.048743700292475621
40
0.048743700292475621
10
-27.222298766339069
20
-0.35197754634051837
30
0
10
-27.228344168699557
20
-0.3138083780301496
30
0
10
-27.240509548515838
20
-0.28320455153944329
30
0
10
-27.277051837051939
20
-0.22436754870751865
30
0
10
-27.301072954002482
20
-0.19938074236759987
30
0
10
-27.344434045865125
20
-0.15087288260204079
30
0
10
-27.363809672993899
20
-0.12769836617823691
30
0
10
-27.385168518731344
20
-0.085010255860948764
30
0
10
-27.39056914149705
20
-0.070014890019753237
30
0
10
-27.398310721621968
20
-0.036328895406283444
30
0
10
-27.400000000000006
20
-0.018228965454755514
30
0
10
-27.400000000000006
20
4.4408920985006262e-15
30
0
0
SPLINE
5
115
100
AcDbEntity
8
0
100
AcDbSpline
70
0
71
3
72
16
73
12
74
0
42
0.000000001
43
0.0000000001
44
0.0000000001
40
0
40
0
40
0
40
0
40
0.010016798759974037
40
0.010016798759974037
40
0.019656221391831079
40
0.019656221391831079
40
0.033892609624292663
40
0.033892609624292663
40
0.041215268121495625
40
0.041215268121495625
40
0.049288691440668858
40
0.049288691440668858
40
0.049288691440668858
40
0.049288691440668858
10
-27.400000000000006
20
4.5365949219444701e-07
30
0
10
-27.400000000000006
20
0.033389782859405651
30
0
10
-27.39433290847348
20
0.061522899600565339
30
0
10
-27.373386799437718
20
0.11150842840313588
30
0
10
-27.359055915398404
20
0.13218244585258257
30
0
10
-27.319387076029763
20
0.18046374878875626
30
0
10
-27.292209170373575
20
0.2064820075485452
30
0
10
-27.257686303974587
20
0.25433057726773689
30
0
10
-27.247897790029523
20
0.27097976236315324
30
0
10
-27.231376589719943
20
0.30953460006537198
30
0
10
-27.225728538114588
20
0.33032281959782911
30
0
10
-27.222298766339069
20
0.35197754634051837
30
0
0
SPLINE
5
116
100
AcDbEntity
8
0
100
AcDbSpline
70
0
71
3
72
16
73
12
74
0
42
0.000000001
43
0.0000000001
44
0.0000000001
40
0
40
0
40
0
40
0
40
0.011593485538312007
40
0.011593485538312007
40
0.024519020934926299
40
0.024519020934926299
40
0.036040451136204313
40
0.036040451136204313
40
0.042029146152018582
40
0.042029146152018582
40
0.048743700293327835
40
0.048743700293327835
40
0.048743700293327835
40
0.048743700293327835
10
-27.222298766339065
20
0.35197754634052281
30
0
10
-27.216253363978606
20
0.39014671465068679
30
0
10
-27.218366225247479
20
0.42301199236450893
30
0
10
-27.234938373107035
20
0.49026149547856801
30
0
10
-27.250062465117473
20
0.52144829383127045
30
0
10
-27.276311561059007
20
0.58098132423357551
30
0
10
-27.287577558085463
20
0.60900899714961887
30
0
10
-27.294699675958679
20
0.65620804894748375
30
0
10
-27.295202150550292
20
0.67213837355986228
30
0
10
-27.292155285966508
20
0.70656793806693441
30
0
10
-27.288168699223746
20
0.7243040101188698
30
0
10
-27.282535639108371
20
0.74164078649987975
30
0
0
SPLINE
5
117
100
AcDbEntity
8
0
100
AcDbSpline
70
0
71
3
72
16
73
12
74
0
42
0.000000001
43
0.0000000001
44
0.0000000001
40
0
40
0
40
0
40
0
40
0.010016798759846565
40
0.010016798759846565
40
0.019656221391244545
40
0.019656221391244545
40
0.03389260962255107
40
0.03389260962255107
40
0.041215268119011411
40
0.041215268119011411
40
0.049288691437326018
40
0.049288691437326018
40
0.049288691437326018
40
0.049288691437326018
10
-27.282535498919884
20
0.74164121795569304
30
0
10
-27.272217628766455
20
0.77339635706558829
30
0
10
-27.258134293264074
20
0.79840131347571464
30
0
10
-27.222766981901771
20
0.83946767270574751
30
0
10
-27.202748878518278
20
0.85470134500647044
30
0
10
-27.150101827224404
20
0.88836124726747867
30
0
10
-27.116214018829567
20
0.90470764708465001
30
0
10
-27.068594800580939
20
0.93954618869896811
30
0
10
-27.05414048947118
20
0.9523556875165734
30
0
10
-27.026513794194326
20
0.98391818548490217
30
0
10
-27.014718264792364
20
1.0019436132022603
30
0
10
-27.004764679423836
20
1.0214786244139784
30
0
0
SPLINE
5
118
100
AcDbEntity
8
0
100
AcDbSpline
70
0
71
3
72
16
73
12
74
0
42
0.000000001
43
0.0000000001
44
0.0000000001
40
0
40
0
40
0
40
0
40
0.011593485538476609
40
0.011593485538476609
40
0.024519020935416067
40
0.024519020935416067
40
0.036040451136103747
40
0.036040451136103747
40
0.04202914615142235
40
0.04202914615142235
40
0.048743700292198856
40
0.048743700292198856
40
0.048743700292198856
40
0.048743700292198856
10
-27.004764679423833
20
1.0214786244139806
30
0
10
-26.987220238446042
20
1.0559115285901997
30
0
10
-26.979073759585628
20
1.0878211751586551
30
0
10
-26.974053569471007
20
1.1569003286338202
30
0
10
-26.978800185039333
20
1.1912343378850179
30
0
10
-26.985367840660356
20
1.2559650311156534
30
0
10
-26.987421413301441
20
1.2861023166195262
30
0
10
-26.979609640790464
20
1.3331921378547729
30
0
10
-26.975164781493952
20
1.3484980500721135
30
0
10
-26.961627720535684
20
1.3803009788138048
30
0
10
-26.952355503558685
20
1.3959370626592311
30
0
10
-26.941640786499875
20
1.4106846055019395
30
0
0
SPLINE
5
119
100
AcDbEntity
8
0
100
AcDbSpline
70
0
71
3
72
16
73
12
74
0
42
0.000000001
43
0.0000000001
44
0.0000000001
40
0
40
0
40
0
40
0
40
0.010016798759951859
40
0.010016798759951859
40
0.019656221391469469
40
0.019656221391469469
40
0.033892609622756323
40
0.033892609622756323
40
0.041215268119260288
40
0.041215268119260288
40
0.049288691437649773
40
0.049288691437649773
40
0.049288691437649773
40
0.049288691437649773
10
-26.941640519845514
20
1.4106849725201731
30
0
10
-26.922014764557915
20
1.4376975072736258
30
0
10
-26.900893760082795
20
1.4571266439993118
30
0
10
-26.854567245249289
20
1.4852539722888851
30
0
10
-26.830821433955045
20
1.4935561214569939
30
0
10
-26.770349630930362
20
1.5092997572867473
30
0
10
-26.733069094593169
20
1.5143741986546775
30
0
10
-26.677014825358452
20
1.5327924729776221
30
0
10
-26.659309605765028
20
1.5405084025236588
30
0
10
-26.623281708941175
20
1.5619890035479846
30
0
10
-26.606493330344737
20
1.5754871849947363
30
0
10
-26.590990257669738
20
1.590990257669731
30
0
0
SPLINE
5
120
100
AcDbEntity
8
0
100
AcDbSpline
70
0
71
3
72
16
73
12
74
0
42
0.000000001
43
0.0000000001
44
0.0000000001
40
0
40
0
40
0
40
0
40
0.011593485538487387
40
0.011593485538487387
40
0.024519020935612194
40
0.024519020935612194
40
0.036040451137359243
40
0.036040451137359243
40
0.042029146153425255
40
0.042029146153425255
40
0.048743700295036357
40
0.048743700295036357
40
0.048743700295036357
40
0.048743700295036357
10
-26.590990257669738
20
1.5909902576697332
30
0
10
-26.563664150196896
20
1.6183163651425732
30
0
10
-26.54605576531771
20
1.6461468420319834
30
0
10
-26.519934648415123
20
1.7102936970246796
30
0
10
-26.513839155738104
20
1.7444140651303066
30
0
10
-26.500082483147011
20
1.8080061299329619
30
0
10
-26.492722613403874
20
1.837302980539236
30
0
10
-26.470741621230257
20
1.8796740914130248
30
0
10
-26.461784521842723
20
1.8928573419049455
30
0
10
-26.439082366354793
20
1.9189205426319991
30
0
10
-26.425432148344612
20
1.9309260694410915
30
0
10
-26.410684605501938
20
1.9416407864998764
30
0
0
SPLINE
5
121
100
AcDbEntity
8
0
100
AcDbSpline
70
0
71
3
72
16
73
12
74
0
42
0.000000001
43
0.0000000001
44
0.0000000001
40
0
40
0
40
0
40
0
40
0.010016798759798386
40
0.010016798759798386
40
0.019656221391098502
40
0.019656221391098502
40
0.033892609622311588
40
0.033892609622311588
40
0.041215268118769952
40
0.041215268118769952
40
0.049288691437101725
40
0.049288691437101725
40
0.049288691437101725
40
0.049288691437101725
10
-26.410684238483704
20
1.941641053154235
30
0
10
-26.383671703730663
20
1.961266808441537
30
0
10
-26.357580501359671
20
1.9732182662096063
30
0
10
-26.304829545101427
20
1.9856532646918339
30
0
10
-26.279680431352432
20
1.986211218522189
30
0
10
-26.217303278009389
20
1.9824974911531446
30
0
10
-26.180279292375349
20
1.9758032523950746
30
0
10
-26.121276954580651
20
1.9759983504080258
30
0
10
-26.102053936756775
20
1.9778654217385432
30
0
10
-26.061151499948107
20
1.9871614549265184
30
0
10
-26.04101363562572
20
1.9948110940552886
30
0
10
-26.021478624413987
20
2.0047646794238272
30
0
0
SPLINE
5
122
100
AcDbEntity
8
0
100
AcDbSpline
70
0
71
3
72
16
73
12
74
0
42
0.000000001
43
0.0000000001
44
0.0000000001
40
0
40
0
40
0
40
0
40
0.011593485537949821
40
0.011593485537949821
40
0.024519020933582443
40
0.024519020933582443
40
0.036040451133695313
40
0.036040451133695313
40
0.042029146148897335
40
0.042029146148897335
40
0.048743700289560724
40
0.048743700289560724
40
0.048743700289560724
40
0.048743700289560724
10
-26.021478624413984
20
2.0047646794238281
30
0
10
-25.98704572023933
20
2.0223091204008217
30
0
10
-25.961699060737708
20
2.0433361866263962
30
0
10
-25.917033933965257
20
2.0962716020331356
30
0
10
-25.900693002335899
20
2.1268383896317387
30
0
10
-25.867958600494411
20
2.1830669916299299
30
0
10
-25.851905723697058
20
2.2086556274793332
30
0
10
-25.817907164524676
20
2.2421604484442339
30
0
10
-25.805314608342002
20
2.2519305687994065
30
0
10
-25.775669603478804
20
2.2697027938316885
30
0
10
-25.758977562880908
20
2.2769025789929871
30
0
10
-25.741640786499875
20
2.2825356391083695
30
0
0
SPLINE
5
123
100
AcDbEntity
8
0
100
AcDbSpline
70
0
71
3
72
16
73
12
74
0
42
0.000000001
43
0.0000000001
44
0.0000000001
40
0
40
0
40
0
40
0
40
0.010016798760119815
40
0.010016798760119815
40
0.019656221392061343
40
0.019656221392061343
40
0.033892609624116908
40
0.033892609624116908
40
0.041215268121021761
40
0.041215268121021761
40
0.049288691439848063
40
0.049288691439848063
40
0.049288691439848063
40
0.049288691439848063
10
-25.741640355044062
20
2.2825357792968615
30
0
10
-25.709885215933298
20
2.2928536494505649
30
0
10
-25.681377804342564
20
2.296157536303391
30
0
10
-25.627366037797312
20
2.2916829806867858
30
0
10
-25.603275392071623
20
2.2844421227710443
30
0
10
-25.545098798786174
20
2.2616345577131738
30
0
10
-25.511955529530425
20
2.2438269175603018
30
0
10
-25.455780683092453
20
2.2257797417103937
30
0
10
-25.436921549957439
20
2.2216151928749515
30
0
10
-25.395148388662854
20
2.2178166977288551
30
0
10
-25.373632273083182
20
2.2188689945635445
30
0
10
-25.351977546340528
20
2.2222987663390601
30
0
0
SPLINE
5
124
100
AcDbEntity
8
0
100
AcDbSpline
70
0
71
3
72
16
73
12
74
0
42
0.000000001
43
0.0000000001
44
0.0000000001
40
0
40
0
40
0
40
0
40
0.011593485538366033
40
0.011593485538366033
40
0.024519020935050821
40
0.024519020935050821
40
0.03604045113601094
40
0.03604045113601094
40
0.042029146151614613
40
0.042029146151614613
40
0.04874370029271452
40
0.04874370029271452
40
0.04874370029271452
40
0.04874370029271452
10
-25.351977546340521
20
2.2222987663390601
30
0
10
-25.313808378030181
20
2.2283441686995475
30
0
10
-25.283204551539477
20
2.2405095485158197
30
0
10
-25.224367548707505
20
2.2770518370519364
30
0
10
-25.199380742367591
20
2.3010729540024859
30
0
10
-25.150872882601888
20
2.3444340458652544
30
0
10
-25.127698366178141
20
2.3638096729939369
30
0
10
-25.085010255861
20
2.3851685187313127
30
0
10
-25.070014890019799
20
2.3905691414970329
30
0
10
-25.036328895406257
20
2.3983107216219697
30
0
10
-25.018228965454714
20
2.4000000000000004
30
0
10
-25
20
2.3999999999999999
30
0
0
SPLINE
5
125
100
AcDbEntity
8
0
100
AcDbSpline
70
0
71
3
72
16
73
12
74
0
42
0.000000001
43
0.0000000001
44
0.0000000001
40
0
40
0
40
0
40
0
40
0.010016798760136574
40
0.010016798760136574
40
0.019656221392101072
40
0.019656221392101072
40
0.033892609624162622
40
0.033892609624162622
40
0.04121526812106887
40
0.04121526812106887
40
0.049288691439892569
40
0.049288691439892569
40
0.049288691439892569
40
0.049288691439892569
10
-24.999999546340511
20
2.3999999999999999
30
0
10
-24.966610217140058
20
2.3999999999999999
30
0
10
-24.938477100398977
20
2.3943329084732898
30
0
10
-24.888491571597342
20
2.3733867994379025
30
0
10
-24.86781755414799
20
2.3590559153988688
30
0
10
-24.819536251211161
20
2.31938707602967
30
0
10
-24.793517992451179
20
2.2922091703733343
30
0
10
-24.745669422732487
20
2.2576863039747654
30
0
10
-24.729020237636853
20
2.2478977900295174
30
0
10
-24.690465399934585
20
2.2313765897199218
30
0
10
-24.66967718040214
20
2.225728538114577
30
0
10
-24.648022453659486
20
2.2222987663390601
30
0
0
SPLINE
5
126
100
AcDbEntity
8
0
100
AcDbSpline
70
0
71
3
72
16
73
12
74
0
42
0.000000001
43
0.0000000001
44
0.0000000001
40
0
40
0
40
0
40
0
40
0.011593485538247293
40
0.011593485538247293
40
0.02451902093468538
40
0.02451902093468538
40
0.036040451135893686
40
0.036040451135893686
40
0.042029146151731561
40
0.042029146151731561
40
0.048743700293096805
40
0.048743700293096805
40
0.048743700293096805
40
0.048743700293096805
10
-24.648022453659486
20
2.2222987663390601
30
0
10
-24.609853285349534
20
2.2162533639786366
30
0
10
-24.576988007635734
20
2.2183662252474239
30
0
10
-24.509738504521582
20
2.2349383731069907
30
0
10
-24.478551706168918
20
2.2500624651173839
30
0
10
-24.419018675766345
20
2.2763115610590385
30
0
10
-24.390991002850445
20
2.2875775580854332
30
0
10
-24.343791951052459
20
2.2946996759586815
30
0
10
-24.327861626440136
20
2.2952021505502724
30
0
10
-24.29343206193311
20
2.2921552859665115
30
0
10
-24.275695989881164
20
2.2881686992237529
30
0
10
-24.258359213500125
20
2.2825356391083673
30
0
0
SPLINE
5
127
100
AcDbEntity
8
0
100
AcDbSpline
70
0
71
3
72
16
73
12
74
0
42
0.000000001
43
0.0000000001
44
0.0000000001
40
0
40
0
40
0
40
0
40
0.010016798760314126
40
0.010016798760314126
40
0.019656221392554067
40
0.019656221392554067
40
0.033892609624827957
40
0.033892609624827957
40
0.041215268121851507
40
0.041215268121851507
40
0.049288691440804916
40
0.049288691440804916
40
0.049288691440804916
40
0.049288691440804916
10
-24.258358782044315
20
2.2825354989198754
30
0
10
-24.226603642932933
20
2.2722176287659739
30
0
10
-24.201598686523237
20
2.2581342932631694
30
0
10
-24.160532327294575
20
2.2227669819020606
30
0
10
-24.145298654993841
20
2.2027488785187415
30
0
10
-24.111638752732564
20
2.1501018272244745
30
0
10
-24.09529235291555
20
2.1162140188298633
30
0
10
-24.060453811300864
20
2.0685948005806694
30
0
10
-24.047644312483406
20
2.0541404894711492
30
0
10
-24.016081814515129
20
2.0265137941943427
30
0
10
-23.998056386797785
20
2.0147182647923771
30
0
10
-23.978521375586027
20
2.0047646794238281
30
0
0
SPLINE
5
128
100
AcDbEntity
8
0
100
AcDbSpline
70
0
71
3
72
16
73
12
74
0
42
0.000000001
43
0.0000000001
44
0.0000000001
40
0
40
0
40
0
40
0
40
0.011593485538390133
40
0.011593485538390133
40
0.024519020935177778
40
0.024519020935177778
40
0.036040451136397117
40
0.036040451136397117
40
0.042029146152186461
40
0.042029146152186461
40
0.048743700293501627
40
0.048743700293501627
40
0.048743700293501627
40
0.048743700293501627
10
-23.97852137558602
20
2.0047646794238272
30
0
10
-23.944088471410055
20
1.9872202384461715
30
0
10
-23.912178824841639
20
1.9790737595856416
30
0
10
-23.843099671365877
20
1.9740535694709842
30
0
10
-23.808765662114535
20
1.9788001850393937
30
0
10
-23.744034968882804
20
1.98536784066049
30
0
10
-23.713897683379589
20
1.9874214133012924
30
0
10
-23.666807862145099
20
1.9796096407904396
30
0
10
-23.651501949927827
20
1.9751647814939215
30
0
10
-23.619699021186204
20
1.9616277205356787
30
0
10
-23.604062937340796
20
1.952355503558695
30
0
10
-23.589315394498065
20
1.9416407864998719
30
0
0
SPLINE
5
129
100
AcDbEntity
8
0
100
AcDbSpline
70
0
71
3
72
16
73
12
74
0
42
0.000000001
43
0.0000000001
44
0.0000000001
40
0
40
0
40
0
40
0
40
0.010016798759969829
40
0.010016798759969829
40
0.019656221391300407
40
0.019656221391300407
40
0.033892609621834241
40
0.033892609621834241
40
0.041215268117902493
40
0.041215268117902493
40
0.049288691435793466
40
0.049288691435793466
40
0.049288691435793466
40
0.049288691435793466
10
-23.589315027479827
20
1.9416405198455156
30
0
10
-23.562302492726332
20
1.9220147645578742
30
0
10
-23.542873356000662
20
1.9008937600827533
30
0
10
-23.514746027711407
20
1.854567245249743
30
0
10
-23.506443878543205
20
1.8308214339557729
30
0
10
-23.490700242713253
20
1.7703496309303721
30
0
10
-23.485625801345321
20
1.7330690945931446
30
0
10
-23.46720752702241
20
1.677014825358544
30
0
10
-23.459491597476372
20
1.6593096057650623
30
0
10
-23.438010996452
20
1.6232817089411442
30
0
10
-23.424512815005258
20
1.606493330344714
30
0
10
-23.409009742330269
20
1.5909902576697332
30
0
0
SPLINE
5
130
100
AcDbEntity
8
0
100
AcDbSpline
70
0
71
3
72
16
73
12
74
0
42
0.000000001
43
0.0000000001
44
0.0000000001
40
0
40
0
40
0
40
0
40
0.011593485538462544
40
0.011593485538462544
40
0.024519020935415074
40
0.024519020935415074
40
0.036040451136699875
40
0.036040451136699875
40
0.042029146152497976
40
0.042029146152497976
40
0.048743700293812559
40
0.048743700293812559
40
0.048743700293812559
40
0.048743700293812559
10
-23.409009742330269
20
1.5909902576697288
30
0
10
-23.381683634857481
20
1.5636641501969497
30
0
10
-23.353853157968079
20
1.5460557653177096
30
0
10
-23.2897063029754
20
1.5199346484151677
30
0
10
-23.255585934869934
20
1.5138391557381561
30
0
10
-23.191993870067641
20
1.5000824831471431
30
0
10
-23.162697019461113
20
1.4927226134040414
30
0
10
-23.120325908586885
20
1.4707416212302082
30
0
10
-23.107142658095029
20
1.4617845218426906
30
0
10
-23.081079457368045
20
1.4390823663548191
30
0
10
-23.069073930558961
20
1.4254321483446737
30
0
10
-23.058359213500129
20
1.4106846055019329
30
0
0
SPLINE
5
131
100
AcDbEntity
8
0
100
AcDbSpline
70
0
71
3
72
16
73
12
74
0
42
0.000000001
43
0.0000000001
44
0.0000000001
40
0
40
0
40
0
40
0
40
0.010016798759704923
40
0.010016798759704923
40
0.01965622139093242
40
0.01965622139093242
40
0.033892609622355269
40
0.033892609622355269
40
0.041215268118943674
40
0.041215268118943674
40
0.049288691437426091
40
0.049288691437426091
40
0.049288691437426091
40
0.049288691437426091
10
-23.058358946845772
20
1.4106842384836948
30
0
10
-23.038733191558649
20
1.3836717037309143
30
0
10
-23.026781733790465
20
1.3575805013599316
30
0
10
-23.014346735308106
20
1.3048295451011673
30
0
10
-23.013788781477839
20
1.2796804313520522
30
0
10
-23.017502508846839
20
1.2173032780094712
30
0
10
-23.024196747604911
20
1.1802792923755048
30
0
10
-23.024001649591987
20
1.1212769545806176
30
0
10
-23.022134578261468
20
1.1020539367568123
30
0
10
-23.012838545073496
20
1.0611514999481293
30
0
10
-23.005188905944717
20
1.0410136356257345
30
0
10
-22.995235320576178
20
1.0214786244139828
30
0
0
SPLINE
5
132
100
AcDbEntity
8
0
100
AcDbSpline
70
0
71
3
72
16
73
12
74
0
42
0.000000001
43
0.0000000001
44
0.0000000001
40
0
40
0
40
0
40
0
40
0.011593485538111075
40
0.011593485538111075
40
0.024519020934143203
40
0.024519020934143203
40
0.036040451134521041
40
0.036040451134521041
40
0.042029146149855277
40
0.042029146149855277
40
0.048743700290677802
40
0.048743700290677802
40
0.048743700290677802
40
0.048743700290677802
10
-22.995235320576178
20
1.0214786244139784
30
0
10
-22.977690879598939
20
0.98704572023884696
30
0
10
-22.956663813373201
20
0.96169906073733935
30
0
10
-22.903728397966706
20
0.917033933965134
30
0
10
-22.87316161036799
20
0.90069300233573568
30
0
10
-22.816933008369968
20
0.86795860049433915
30
0
10
-22.791344372520555
20
0.8519057236969706
30
0
10
-22.757839551555662
20
0.8179071645245295
30
0
10
-22.748069431200513
20
0.80531460834184654
30
0
10
-22.730297206168309
20
0.77566960347876601
30
0
10
-22.723097421007022
20
0.75897756288091023
30
0
10
-22.717464360891633
20
0.74164078649987086
30
0
0
SPLINE
5
133
100
AcDbEntity
8
0
100
AcDbSpline
70
0
71
3
72
16
73
12
74
0
42
0.000000001
43
0.0000000001
44
0.0000000001
40
0
40
0
40
0
40
0
40
0.010016798760106261
40
0.010016798760106261
40
0.019656221392083312
40
0.019656221392083312
40
0.033892609624269349
40
0.033892609624269349
40
0.041215268121378851
40
0.041215268121378851
40
0.049288691440499591
40
0.049288691440499591
40
0.049288691440499591
40
0.049288691440499591
10
-22.717464220703143
20
0.74164035504405756
30
0
10
-22.707146350549451
20
0.70988521593333676
30
0
10
-22.703842463696617
20
0.68137780434259976
30
0
10
-22.708317019313242
20
0.62736603779711964
30
0
10
-22.715557877229053
20
0.60327539207135605
30
0
10
-22.738365442286849
20
0.54509879878613732
30
0
10
-22.756173082439656
20
0.51195552953054468
30
0
10
-22.774220258289777
20
0.45578068309194397
30
0
10
-22.778384807125068
20
0.43692154995722721
30
0
10
-22.782183302271157
20
0.39514838866282898
30
0
10
-22.781131005436453
20
0.37363227308311592
30
0
10
-22.777701233660945
20
0.35197754634052281
30
0
0
SPLINE
5
134
100
AcDbEntity
8
0
100
AcDbSpline
70
0
71
3
72
16
73
12
74
0
42
0.000000001
43
0.0000000001
44
0.0000000001
40
0
40
0
40
0
40
0
40
0.011593485538262551
40
0.011593485538262551
40
0.024519020934731801
40
0.024519020934731801
40
0.036040451135922733
40
0.036040451135922733
40
0.042029146151782264
40
0.042029146151782264
40
0.048743700293195517
40
0.048743700293195517
40
0.048743700293195517
40
0.048743700293195517
10
-22.777701233660945
20
0.35197754634051837
30
0
10
-22.771655831300507
20
0.31380837803051864
30
0
10
-22.759490451484371
20
0.28320455153975732
30
0
10
-22.722948162947887
20
0.22436754870722836
30
0
10
-22.698927045997191
20
0.19938074236724349
30
0
10
-22.65556595413404
20
0.15087288260107137
30
0
10
-22.636190327005753
20
0.12769836617753308
30
0
10
-22.614831481268624
20
0.085010255860842154
30
0
10
-22.60943085850294
20
0.070014890019659659
30
0
10
-22.601689278378029
20
0.036328895406223166
30
0
10
-22.600000000000001
20
0.018228965454661343
30
0
10
-22.600000000000001
20
-4.4408920985006262e-15
30
0
0
SPLINE
5
135
100
AcDbEntity
8
0
100
AcDbSpline
70
0
71
3
72
16
73
12
74
0
42
0.000000001
43
0.0000000001
44
0.0000000001
40
0
40
0
40
0
40
0
40
0.010016798759682571
40
0.010016798759682571
40
0.019656221390708079
40
0.019656221390708079
40
0.033892609621388889
40
0.033892609621388889
40
0.04121526811751168
40
0.04121526811751168
40
0.049288691435454376
40
0.049288691435454376
40
0.049288691435454376
40
0.049288691435454376
10
-22.600000000000001
20
-4.5365949219444701e-07
30
0
10
-22.600000000000001
20
-0.033389782858434094
30
0
10
-22.6056670915262
20
-0.061522899599772113
30
0
10
-22.626613200562073
20
-0.11150842840259974
30
0
10
-22.64094408460107
20
-0.13218244585193381
30
0
10
-22.680612923970255
20
-0.18046374878876645
30
0
10
-22.707790829626788
20
-0.20648200754897053
30
0
10
-22.742313696025008
20
-0.25433057726720959
30
0
10
-22.752102209970452
20
-0.27097976236307314
30
0
10
-22.768623410280085
20
-0.30953460006540801
30
0
10
-22.77427146188543
20
-0.33032281959787846
30
0
10
-22.777701233660945
20
-0.35197754634051837
30
0
0
SPLINE
5
136
100
AcDbEntity
8
0
100
AcDbSpline
70
0
71
3
72
16
73
12
74
0
42
0.000000001
43
0.0000000001
44
0.0000000001
40
0
40
0
40
0
40
0
40
0.011593485538286338
40
0.011593485538286338
40
0.024519020934721997
40
0.024519020934721997
40
0.03604045113500403
40
0.03604045113500403
40
0.042029146150208911
40
0.042029146150208911
40
0.048743700290891041
40
0.048743700290891041
40
0.048743700290891041
40
0.048743700290891041
10
-22.777701233660945
20
-0.35197754634051837
30
0
10
-22.783746636021391
20
-0.39014671465059803
30
0
10
-22.781633774752553
20
-0.42301199236441261
30
0
10
-22.765061626893051
20
-0.49026149547825054
30
0
10
-22.7499375348828
20
-0.52144829383071378
30
0
10
-22.723688438941672
20
-0.5809813242320031
30
0
10
-22.712422441914725
20
-0.6090089971485555
30
0
10
-22.705300324041286
20
-0.6562080489477794
30
0
10
-22.704797849449744
20
-0.67213837355998152
30
0
10
-22.707844714033506
20
-0.70656793806694929
30
0
10
-22.711831300776268
20
-0.72430401011887868
30
0
10
-22.717464360891636
20
-0.74164078649987975
30
0
0
SPLINE
5
137
100
AcDbEntity
8
0
100
AcDbSpline
70
0
71
3
72
16
73
12
74
0
42
0.000000001
43
0.0000000001
44
0.0000000001
40
0
40
0
40
0
40
0
40
0.010016798760195345
40
0.010016798760195345
40
0.019656221392110061
40
0.019656221392110061
40
0.033892609623675476
40
0.033892609623675476
40
0.041215268120363913
40
0.041215268120363913
40
0.049288691438959475
40
0.049288691438959475
40
0.049288691438959475
40
0.049288691438959475
10
-22.71746450108013
20
-0.7416412179556886
30
0
10
-22.727782371233907
20
-0.77339635706669252
30
0
10
-22.741865706736611
20
-0.79840131347649534
30
0
10
-22.777233018097803
20
-0.83946767270525724
30
0
10
-22.797251121481004
20
-0.85470134500600192
30
0
10
-22.849898172775486
20
-0.88836124726741539
30
0
10
-22.883785981170096
20
-0.90470764708442175
30
0
10
-22.931405199419444
20
-0.93954618869922046
30
0
10
-22.945859510528877
20
-0.95235568751662669
30
0
10
-22.973486205805663
20
-0.98391818548488175
30
0
10
-22.985281735207622
20
-1.0019436132022133
30
0
10
-22.995235320576178
20
-1.0214786244139784
30
0
0
SPLINE
5
138
100
AcDbEntity
8
0
100
AcDbSpline
70
0
71
3
72
16
73
12
74
0
42
0.000000001
43
0.0000000001
44
0.0000000001
40
0
40
0
40
0
40
0
40
0.011593485538184961
40
0.011593485538184961
40
0.024519020934398051
40
0.024519020934398051
40
0.036040451134749352
40
0.036040451134749352
40
0.042029146149994569
40
0.042029146149994569
40
0.048743700290700569
40
0.048743700290700569
40
0.048743700290700569
40
0.048743700290700569
10
-22.995235320576178
20
-1.0214786244139806
30
0
10
-23.012779761553517
20
-1.0559115285893372
30
0
10
-23.020926240414312
20
-1.0878211751576838
30
0
10
-23.025946430529011
20
-1.1569003286338988
30
0
10
-23.021199814960664
20
-1.1912343378850505
30
0
10
-23.014632159339602
20
-1.2559650311161283
30
0
10
-23.012578586698623
20
-1.2861023166197763
30
0
10
-23.020390359209539
20
-1.3331921378547853
30
0
10
-23.024835218506063
20
-1.348498050072104
30
0
10
-23.038372279464294
20
-1.3803009788137461
30
0
10
-23.04764449644129
20
-1.3959370626591849
30
0
10
-23.058359213500133
20
-1.4106846055019395
30
0
0
SPLINE
5
139
100
AcDbEntity
8
0
100
AcDbSpline
70
0
71
3
72
16
73
12
74
0
42
0.000000001
43
0.0000000001
44
0.0000000001
40
0
40
0
40
0
40
0
40
0.01001679876007165
40
0.01001679876007165
40
0.019656221391906752
40
0.019656221391906752
40
0.033892609623811312
40
0.033892609623811312
40
0.041215268120597733
40
0.041215268120597733
40
0.049288691439281017
40
0.049288691439281017
40
0.049288691439281017
40
0.049288691439281017
10
-23.05835948015449
20
-1.4106849725201731
30
0
10
-23.077985235442323
20
-1.4376975072739491
30
0
10
-23.099106239917518
20
-1.4571266439994965
30
0
10
-23.145432754750868
20
-1.485253972288977
30
0
10
-23.169178566045208
20
-1.4935561214570607
30
0
10
-23.229650369069681
20
-1.5092997572867559
30
0
10
-23.26693090540687
20
-1.5143741986546846
30
0
10
-23.32298517464146
20
-1.5327924729775915
30
0
10
-23.340690394234937
20
-1.5405084025236291
30
0
10
-23.376718291058847
20
-1.5619890035479964
30
0
10
-23.393506669655281
20
-1.5754871849947403
30
0
10
-23.409009742330269
20
-1.590990257669731
30
0
0
SPLINE
5
140
100
AcDbEntity
8
0
100
AcDbSpline
70
0
71
3
72
16
73
12
74
0
42
0.000000001
43
0.0000000001
44
0.0000000001
40
0
40
0
40
0
40
0
40
0.011593485538182704
40
0.011593485538182704
40
0.02451902093444653
40
0.02451902093444653
40
0.036040451135602232
40
0.036040451135602232
40
0.04202914615144028
40
0.04202914615144028
40
0.048743700292819353
40
0.048743700292819353
40
0.048743700292819353
40
0.048743700292819353
10
-23.409009742330277
20
-1.5909902576697332
30
0
10
-23.436335849802397
20
-1.6183163651418595
30
0
10
-23.453944234681927
20
-1.646146842031059
30
0
10
-23.480065351584791
20
-1.7102936970244436
30
0
10
-23.486160844261818
20
-1.7444140651298925
30
0
10
-23.499917516852975
20
-1.8080061299328172
30
0
10
-23.50727738659609
20
-1.8373029805390693
30
0
10
-23.529258378769686
20
-1.8796740914129451
30
0
10
-23.538215478157241
20
-1.8928573419048635
30
0
10
-23.560917633645122
20
-1.9189205426319065
30
0
10
-23.574567851655313
20
-1.930926069441032
30
0
10
-23.589315394498072
20
-1.9416407864998764
30
0
0
LWPOLYLINE
5
141
100
AcDbEntity
8
0
100
AcDbPolyline
90
4
70
1
43
0.0
10
-6.8667501658934711
20
4.9999999999999991
10
-2.8667501658934711
20
4.9999999999999991
10
-2.8667501658934711
20
-4.9999999999999991
10
-6.8667501658934711
20
-4.9999999999999991
0
ENDSEC
0
SECTION
2
OBJECTS
0
DICTIONARY
5
C
100
AcDbDictionary
3
ACAD_GROUP
350
D
3
ACAD_MLINESTYLE
350
17
0
DICTIONARY
5
D
100
AcDbDictionary
0
DICTIONARY
5
1A
330
C
100
AcDbDictionary
0
DICTIONARY
5
17
100
AcDbDictionary
0
ENDSEC
0
EOF
