0
SECTION
2
HEADER
9
$INSUNITS
70
4
9
$ACADVER
1
AC1014
9
$HANDSEED
5
FFFF
0
ENDSEC
0
SECTION
2
TABLES
0
TABLE
2
VPORT
5
8
100
AcDbSymbolTable
0
ENDTAB
0
TABLE
2
LTYPE
5
5
100
AcDbSymbolTable
0
LTYPE
5
14
100
AcDbSymbolTableRecord
100
AcDbLinetypeTableRecord
2
BYBLOCK
70
0
0
LTYPE
5
15
100
AcDbSymbolTableRecord
100
AcDbLinetypeTableRecord
2
BYLAYER
70
0
0
ENDTAB
0
TABLE
2
LAYER
5
2
100
AcDbSymbolTable
70
2
0
LAYER
5
50
100
AcDbSymbolTableRecord
100
AcDbLayerTableRecord
2
0
70
0
6
CONTINUOUS
0
ENDTAB
0
TABLE
2
STYLE
5
3
100
AcDbSymbolTable
70
1
0
STYLE
5
11
100
AcDbSymbolTableRecord
100
AcDbTextStyleTableRecord
2
STANDARD
70
0
0
ENDTAB
0
TABLE
2
VIEW
5
6
100
AcDbSymbolTable
70
0
0
ENDTAB
0
TABLE
2
UCS
5
7
100
AcDbSymbolTable
70
0
0
ENDTAB
0
TABLE
2
APPID
5
9
100
AcDbSymbolTable
70
2
0
APPID
5
12
100
AcDbSymbolTableRecord
100
AcDbRegAppTableRecord
2
ACAD
70
0
0
ENDTAB
0
TABLE
2
DIMSTYLE
5
A
100
AcDbSymbolTable
70
1
0
ENDTAB
0
TABLE
2
BLOCK_RECORD
5
1
100
AcDbSymbolTable
70
1
0
BLOCK_RECORD
5
1F
100
AcDbSymbolTableRecord
100
AcDbBlockTableRecord
2
*MODEL_SPACE
0
BLOCK_RECORD
5
1B
100
AcDbSymbolTableRecord
100
AcDbBlockTableRecord
2
*PAPER_SPACE
0
ENDTAB
0
ENDSEC
0
SECTION
2
BLOCKS
0
BLOCK
5
20
100
AcDbEntity
100
AcDbBlockBegin
2
*MODEL_SPACE
0
ENDBLK
5
21
100
AcDbEntity
100
AcDbBlockEnd
0
BLOCK
5
1C
100
AcDbEntity
100
AcDbBlockBegin
2
*PAPER_SPACE
0
ENDBLK
5
1D
100
AcDbEntity
100
AcDbBlockEnd
0
ENDSEC
0
SECTION
2
ENTITIES
0
CIRCLE
5
100
100
AcDbEntity
8
0
100
AcDbCircle
10
0
20
0
30
0
40
5
210
0
220
0
230
1
0
LINE
5
101
100
AcDbEntity
8
0
100
AcDbLine
10
-3.0616169978683861e-17
20
6.0000000000000009
30
0
11
4.9999999999999991
21
6.0000000000000009
31
0
0
LINE
5
102
100
AcDbEntity
8
0
100
AcDbLine
10
4.9999999999999991
20
6.0000000000000009
30
0
11
5
21
-5
31
0
0
LINE
5
103
100
AcDbEntity
8
0
100
AcDbLine
10
-2.7832881798803506e-17
20
5
30
0
11
-3.0616169978683861e-17
21
6.0000000000000009
31
0
0
CIRCLE
5
104
100
AcDbEntity
8
0
100
AcDbCircle
10
0
20
0
30
0
40
1
210
0
220
0
230
1
0
CIRCLE
5
105
100
AcDbEntity
8
0
100
AcDbCircle
10
2.5980762113533151
20
-1.5
30
0
40
0.75000000000000011
210
0
220
0
230
1
0
LINE
5
106
100
AcDbEntity
8
0
100
AcDbLine
10
5
20
-5
30
0
11
0
21
-5
31
0
0
LINE
5
107
100
AcDbEntity
8
0
100
AcDbLine
10
4.9999999999999991
20
6.0000000000000009
30
0
11
6.4999999999999991
21
6.0000000000000009
31
0
0
LINE
5
108
100
AcDbEntity
8
0
100
AcDbLine
10
6.4999999999999991
20
6.0000000000000009
30
0
11
6.4999999999999991
21
-5
31
0
0
LINE
5
109
100
AcDbEntity
8
0
100
AcDbLine
10
6.4999999999999991
20
-5
30
0
11
4.9999999999999991
21
-5
31
0
0
LINE
5
110
100
AcDbEntity
8
0
100
AcDbLine
10
4.9999999999999991
20
-5
30
0
11
4.9999999999999991
21
6.0000000000000009
31
0
0
LINE
5
111
100
AcDbEntity
8
0
100
AcDbLine
10
6.4999999999999991
20
-5
30
0
11
25
21
-5.0000000000000018
31
0
0
SPLINE
5
112
100
AcDbEntity
8
0
100
AcDbSpline
70
4
71
5
72
31
73
25
74
0
42
0.000000001
43
0.0000000001
44
0.0000000001
40
0
40
0
40
0
40
0
40
0
40
0
40
0.050000000000000003
40
0.10000000000000001
40
0.15000000000000002
40
0.20000000000000001
40
0.25
40
0.29999999999999999
40
0.34999999999999998
40
0.39999999999999997
40
0.44999999999999996
40
0.49999999999999994
40
0.54999999999999993
40
0.59999999999999998
40
0.65000000000000002
40
0.70000000000000007
40
0.75000000000000011
40
0.80000000000000016
40
0.8500000000000002
40
0.90000000000000024
40
0.95000000000000029
40
1
40
1
40
1
40
1
40
1
40
1
41
1
41
1
41
1
41
1
41
1
41
1
41
1
41
1
41
1
41
1
41
1
41
1
41
1
41
1
41
1
41
1
41
1
41
1
41
1
41
1
41
1
41
1
41
1
41
1
41
1
10
6.4999999999999991
20
-5
30
0
10
6.6441190748697334
20
-4.9769007686599949
30
0
10
6.9421765588661017
20
-4.9322573474272469
30
0
10
7.4187201476041107
20
-4.8699588585968359
30
0
10
8.1132723077542099
20
-4.7962523397347097
30
0
10
9.0802462795652392
20
-4.7213808446070651
30
0
10
10.144156976125858
20
-4.6681428034452113
30
0
10
11.299146832207454
20
-4.6454755704267683
30
0
10
12.534041606274327
20
-4.6667121509668714
30
0
10
13.833599473388796
20
-4.7429211939763629
30
0
10
15.179187283480957
20
-4.8769159521770558
30
0
10
16.549585245282316
20
-5.0575455292123248
30
0
10
17.921538401717672
20
-5.2518953684477339
30
0
10
19.270646305888196
20
-5.4036279009120092
30
0
10
20.572881789881308
20
-5.4441575628341043
30
0
10
21.806067430948968
20
-5.3012449140098159
30
0
10
22.951292117332194
20
-4.907963937529515
30
0
10
23.994817410743853
20
-4.2133030581368605
30
0
10
24.928791529299623
20
-3.1873094555486139
30
0
10
25.749379636306543
20
-1.8142501884417843
30
0
10
26.455606434426556
20
-0.088856530874333164
30
0
10
26.929593746427237
20
1.5727060245631015
30
0
10
27.234419886557323
20
2.9756379670490434
30
0
10
27.41521124349747
20
3.9803146132598268
30
0
10
27.500000409781933
20
4.5000000670552254
30
0
0
ENDSEC
0
SECTION
2
OBJECTS
0
DICTIONARY
5
C
100
AcDbDictionary
3
ACAD_GROUP
350
D
3
ACAD_MLINESTYLE
350
17
0
DICTIONARY
5
D
100
AcDbDictionary
0
DICTIONARY
5
1A
330
C
100
AcDbDictionary
0
DICTIONARY
5
17
100
AcDbDictionary
0
ENDSEC
0
EOF
