                                                                        S      1
,,19HSolenoid JF0520B v1,19HSolenoid JF0520B v1,7Hunknown,7Hunknown,32, G      1
38,7,99,15,,1.,2,2HMM,1,0.08,15H20220618.230414,0.01,10000.,7Hunknown,7HG      2
unknown,11,0,15H20220226.172825;                                        G      3
     186       1                                                00000000D      1
     186            -239       1       0                               0D      2
     186       2                                                00000000D      3
     186            -239       1       0                               0D      4
     186       3                                                00000000D      5
     186            -239       1       0                               0D      6
     514       4                                                00010000D      7
     514                       1       1                               0D      8
     514       5                                                00010000D      9
     514                       2       1                               0D     10
     514       7                                                00010000D     11
     514                       1       1                               0D     12
     510       8                                                00010000D     13
     510            -239       1       1                               0D     14
     510       9                                                00010000D     15
     510            -239       1       1                               0D     16
     510      10                                                00010000D     17
     510            -239       1       1                               0D     18
     510      11                                                00010000D     19
     510            -239       1       1                               0D     20
     510      12                                                00010000D     21
     510            -239       1       1                               0D     22
     510      13                                                00010000D     23
     510            -239       1       1                               0D     24
     510      14                                                00010000D     25
     510            -239       1       1                               0D     26
     510      15                                                00010000D     27
     510            -239       1       1                               0D     28
     510      16                                                00010000D     29
     510            -239       1       1                               0D     30
     510      17                                                00010000D     31
     510            -239       1       1                               0D     32
     510      18                                                00010000D     33
     510            -239       1       1                               0D     34
     510      19                                                00010000D     35
     510            -239       1       1                               0D     36
     510      20                                                00010000D     37
     510            -239       1       1                               0D     38
     510      21                                                00010000D     39
     510            -239       1       1                               0D     40
     510      22                                                00010000D     41
     510            -239       1       1                               0D     42
     510      23                                                00010000D     43
     510            -239       1       1                               0D     44
     510      24                                                00010000D     45
     510            -239       1       1                               0D     46
     510      25                                                00010000D     47
     510            -239       1       1                               0D     48
     510      26                                                00010000D     49
     510            -239       1       1                               0D     50
     508      27                                                00010000D     51
     508                       1       1                               0D     52
     508      28                                                00010000D     53
     508                       1       1                               0D     54
     508      29                                                00010000D     55
     508                       1       1                               0D     56
     508      30                                                00010000D     57
     508                       1       1                               0D     58
     508      31                                                00010000D     59
     508                       1       1                               0D     60
     508      32                                                00010000D     61
     508                       1       1                               0D     62
     508      33                                                00010000D     63
     508                       1       1                               0D     64
     508      34                                                00010000D     65
     508                       1       1                               0D     66
     508      35                                                00010000D     67
     508                       1       1                               0D     68
     508      36                                                00010000D     69
     508                       1       1                               0D     70
     508      37                                                00010000D     71
     508                       1       1                               0D     72
     508      38                                                00010000D     73
     508                       1       1                               0D     74
     508      39                                                00010000D     75
     508                       1       1                               0D     76
     508      40                                                00010000D     77
     508                       1       1                               0D     78
     508      41                                                00010000D     79
     508                       1       1                               0D     80
     508      42                                                00010000D     81
     508                       1       1                               0D     82
     508      43                                                00010000D     83
     508                       1       1                               0D     84
     508      44                                                00010000D     85
     508                       1       1                               0D     86
     508      45                                                00010000D     87
     508                       1       1                               0D     88
     508      46                                                00010000D     89
     508                       1       1                               0D     90
     508      47                                                00010000D     91
     508                       1       1                               0D     92
     508      48                                                00010000D     93
     508                       1       1                               0D     94
     508      49                                                00010000D     95
     508                       1       1                               0D     96
     508      50                                                00010000D     97
     508                       1       1                               0D     98
     508      51                                                00010000D     99
     508                       1       1                               0D    100
     508      52                                                00010000D    101
     508                       1       1                               0D    102
     508      53                                                00010000D    103
     508                       1       1                               0D    104
     126      54                                                00010000D    105
     126       0               9       0                               0D    106
     126      63                                                00010000D    107
     126       0               2       0                               0D    108
     126      65                                                00010000D    109
     126       0               9       0                               0D    110
     126      74                                                00010000D    111
     126       0              12       0                               0D    112
     126      86                                                00010000D    113
     126       0               3       0                               0D    114
     126      89                                                00010000D    115
     126       0              12       0                               0D    116
     126     101                                                00010000D    117
     126       0               9       0                               0D    118
     126     110                                                00010000D    119
     126       0               2       0                               0D    120
     126     112                                                00010000D    121
     126       0               9       0                               0D    122
     126     121                                                00010000D    123
     126       0               9       0                               0D    124
     126     130                                                00010000D    125
     126       0               3       0                               0D    126
     126     133                                                00010000D    127
     126       0               9       0                               0D    128
     126     142                                                00010000D    129
     126       0               2       0                               0D    130
     126     144                                                00010000D    131
     126       0               2       0                               0D    132
     126     146                                                00010000D    133
     126       0               2       0                               0D    134
     126     148                                                00010000D    135
     126       0               2       0                               0D    136
     126     150                                                00010000D    137
     126       0               2       0                               0D    138
     126     152                                                00010000D    139
     126       0               2       0                               0D    140
     126     154                                                00010000D    141
     126       0               2       0                               0D    142
     126     156                                                00010000D    143
     126       0               2       0                               0D    144
     126     158                                                00010000D    145
     126       0               2       0                               0D    146
     126     160                                                00010000D    147
     126       0               2       0                               0D    148
     126     162                                                00010000D    149
     126       0               2       0                               0D    150
     126     164                                                00010000D    151
     126       0               2       0                               0D    152
     126     166                                                00010000D    153
     126       0               2       0                               0D    154
     126     168                                                00010000D    155
     126       0               2       0                               0D    156
     126     170                                                00010000D    157
     126       0               2       0                               0D    158
     126     172                                                00010000D    159
     126       0               2       0                               0D    160
     126     174                                                00010000D    161
     126       0               2       0                               0D    162
     126     176                                                00010000D    163
     126       0               2       0                               0D    164
     126     178                                                00010000D    165
     126       0               2       0                               0D    166
     126     180                                                00010000D    167
     126       0               2       0                               0D    168
     126     182                                                00010000D    169
     126       0               2       0                               0D    170
     126     184                                                00010000D    171
     126       0               2       0                               0D    172
     126     186                                                00010000D    173
     126       0               2       0                               0D    174
     126     188                                                00010000D    175
     126       0               2       0                               0D    176
     126     190                                                00010000D    177
     126       0              10       0                               0D    178
     126     200                                                00010000D    179
     126       0               2       0                               0D    180
     126     202                                                00010000D    181
     126       0               9       0                               0D    182
     128     211                                                00010000D    183
     128       0    -239      11       0                               0D    184
     128     222                                                00010000D    185
     128       0    -239      18       0                               0D    186
     128     240                                                00010000D    187
     128       0    -239       7       0                               0D    188
     128     247                                                00010000D    189
     128       0    -239       7       0                               0D    190
     128     254                                                00010000D    191
     128       0    -239      11       0                               0D    192
     128     265                                                00010000D    193
     128       0    -239      13       0                               0D    194
     128     278                                                00010000D    195
     128       0    -239       4       0                               0D    196
     128     282                                                00010000D    197
     128       0    -239       5       0                               0D    198
     128     287                                                00010000D    199
     128       0    -239       4       0                               0D    200
     128     291                                                00010000D    201
     128       0    -239       4       0                               0D    202
     128     295                                                00010000D    203
     128       0    -239       4       0                               0D    204
     128     299                                                00010000D    205
     128       0    -239       5       0                               0D    206
     128     304                                                00010000D    207
     128       0    -239       4       0                               0D    208
     128     308                                                00010000D    209
     128       0    -239       4       0                               0D    210
     128     312                                                00010000D    211
     128       0    -239       4       0                               0D    212
     128     316                                                00010000D    213
     128       0    -239       4       0                               0D    214
     128     320                                                00010000D    215
     128       0    -239      12       0                               0D    216
     128     332                                                00010000D    217
     128       0    -239       3       0                               0D    218
     128     335                                                00010000D    219
     128       0    -239       3       0                               0D    220
     502     338                                                00010000D    221
     502                       3       1                               0D    222
     502     341                                                00010000D    223
     502                      10       1                               0D    224
     502     351                                                00010000D    225
     502                       2       1                               0D    226
     504     353                                                00010001D    227
     504                       2       1                               0D    228
     504     355                                                00010001D    229
     504                       9       1                               0D    230
     504     364                                                00010001D    231
     504                       1       1                               0D    232
     406     365                                                00000000D    233
     406                       1      15                               0D    234
     406     366                                                00000000D    235
     406                       1      15                               0D    236
     406     367                                                00000000D    237
     406                       1      15                               0D    238
     314     368                                                00000200D    239
     314                       2       0                               0D    240
186,7,1,0,0,1,233;                                                     1P      1
186,9,1,0,0,1,235;                                                     3P      2
186,11,1,0,0,1,237;                                                    5P      3
514,4,13,1,15,1,17,1,19,1;                                             7P      4
514,12,21,1,23,1,25,1,27,1,29,1,31,1,33,1,35,1,37,1,39,1,41,1,         9P      5
43,1;                                                                  9P      6
514,3,45,1,47,1,49,1;                                                 11P      7
510,183,1,1,51;                                                       13P      8
510,185,1,1,53;                                                       15P      9
510,187,2,1,55,57;                                                    17P     10
510,189,2,1,59,61;                                                    19P     11
510,191,1,1,63;                                                       21P     12
510,193,1,1,65;                                                       23P     13
510,195,2,1,67,69;                                                    25P     14
510,197,1,1,71;                                                       27P     15
510,199,2,1,73,75;                                                    29P     16
510,201,1,1,77;                                                       31P     17
510,203,2,1,79,81;                                                    33P     18
510,205,1,1,83;                                                       35P     19
510,207,2,1,85,87;                                                    37P     20
510,209,1,1,89;                                                       39P     21
510,211,2,1,91,93;                                                    41P     22
510,213,2,1,95,97;                                                    43P     23
510,215,1,1,99;                                                       45P     24
510,217,1,1,101;                                                      47P     25
510,219,1,1,103;                                                      49P     26
508,4,0,227,1,0,0,0,227,2,1,0,0,227,3,1,0,0,227,2,0,0;                51P     27
508,4,0,227,4,0,0,0,227,5,1,0,0,227,6,1,0,0,227,5,0,0;                53P     28
508,1,0,227,4,1,0;                                                    55P     29
508,1,0,227,1,1,0;                                                    57P     30
508,1,0,227,6,0,0;                                                    59P     31
508,1,0,227,3,0,0;                                                    61P     32
508,4,0,229,1,0,0,0,229,2,1,0,0,229,3,0,0,0,229,2,0,0;                63P     33
508,4,0,229,4,0,0,0,229,5,1,0,0,229,6,0,0,0,229,5,0,0;                65P     34
508,4,0,229,7,1,0,0,229,8,1,0,0,229,9,1,0,0,229,10,1,0;               67P     35
508,4,0,229,11,1,0,0,229,12,1,0,0,229,13,1,0,0,229,14,1,0;            69P     36
508,4,0,229,15,1,0,0,229,16,0,0,0,229,17,1,0,0,229,13,0,0;            71P     37
508,4,0,229,18,1,0,0,229,19,0,0,0,229,15,0,0,0,229,12,0,0;            73P     38
508,1,0,229,4,1,0;                                                    75P     39
508,4,0,229,20,1,0,0,229,21,0,0,0,229,18,0,0,0,229,11,0,0;            77P     40
508,4,0,229,17,0,0,0,229,22,0,0,0,229,20,0,0,0,229,14,0,0;            79P     41
508,1,0,229,3,1,0;                                                    81P     42
508,4,0,229,23,0,0,0,229,24,0,0,0,229,25,0,0,0,229,8,0,0;             83P     43
508,4,0,229,25,1,0,0,229,26,0,0,0,229,27,0,0,0,229,9,0,0;             85P     44
508,1,0,229,6,1,0;                                                    87P     45
508,4,0,229,27,1,0,0,229,28,0,0,0,229,29,0,0,0,229,10,0,0;            89P     46
508,4,0,229,29,1,0,0,229,30,0,0,0,229,23,1,0,0,229,7,0,0;             91P     47
508,1,0,229,1,1,0;                                                    93P     48
508,4,0,229,30,1,0,0,229,28,1,0,0,229,26,1,0,0,229,24,1,0;            95P     49
508,4,0,229,16,1,0,0,229,19,1,0,0,229,21,1,0,0,229,22,1,0;            97P     50
508,4,0,231,1,0,0,0,231,2,1,0,0,231,3,0,0,0,231,2,0,0;                99P     51
508,1,0,231,3,1,0;                                                   101P     52
508,1,0,231,1,1,0;                                                   103P     53
126,8,2,0,1,0,0,-3.14159265358979,-3.14159265358979,                 105P     54
-3.14159265358979,-1.5707963267949,-1.5707963267949,0.,0.,           105P     55
1.5707963267949,1.5707963267949,3.14159265358979,                    105P     56
3.14159265358979,3.14159265358979,1.,0.707106781186548,1.,           105P     57
0.707106781186548,1.,0.707106781186548,1.,0.707106781186548,1.,      105P     58
-3.,19.,-3.67394039744206D-16,-3.,19.,-3.,1.83697019872103D-16,      105P     59
19.,-3.,3.,19.,-3.,3.,19.,0.,3.,19.,3.,1.83697019872103D-16,19.,     105P     60
3.,-3.,19.,3.,-3.,19.,3.67394039744206D-16,-3.14159265358979,        105P     61
3.14159265358979,0.,0.,0.;                                           105P     62
126,1,1,0,0,1,0,-6.,-6.,0.,0.,1.,1.,-3.,19.,0.,-3.,1.,0.,-6.,0.,     107P     63
0.,0.,0.;                                                            107P     64
126,8,2,0,1,0,0,-3.14159265358979,-3.14159265358979,                 109P     65
-3.14159265358979,-1.5707963267949,-1.5707963267949,0.,0.,           109P     66
1.5707963267949,1.5707963267949,3.14159265358979,                    109P     67
3.14159265358979,3.14159265358979,1.,0.707106781186548,1.,           109P     68
0.707106781186548,1.,0.707106781186548,1.,0.707106781186548,1.,      109P     69
-3.,1.,-3.67394039744206D-16,-3.,1.,-3.,1.83697019872103D-16,1.,     109P     70
-3.,3.,1.,-3.,3.,1.,0.,3.,1.,3.,1.83697019872103D-16,1.,3.,-3.,      109P     71
1.,3.,-3.,1.,3.67394039744206D-16,-3.14159265358979,                 109P     72
3.14159265358979,0.,0.,0.;                                           109P     73
126,8,2,0,1,0,0,-3.14159265358979,-3.14159265358979,                 111P     74
-3.14159265358979,-1.5707963267949,-1.5707963267949,0.,0.,           111P     75
1.5707963267949,1.5707963267949,3.14159265358979,                    111P     76
3.14159265358979,3.14159265358979,1.,0.707106781186548,1.,           111P     77
0.707106781186548,1.,0.707106781186548,1.,0.707106781186548,1.,      111P     78
-7.00000010430813,19.,8.57252772177209D-16,-7.00000010430813,        111P     79
19.,7.00000010430813,4.28626386088604D-16,19.,7.00000010430813,      111P     80
7.00000010430813,19.,7.00000010430813,7.00000010430813,19.,0.,       111P     81
7.00000010430813,19.,-7.00000010430813,4.28626386088604D-16,19.,     111P     82
-7.00000010430813,-7.00000010430813,19.,-7.00000010430813,           111P     83
-7.00000010430813,19.,-8.57252772177209D-16,-3.14159265358979,       111P     84
3.14159265358979,0.,0.,0.;                                           111P     85
126,1,1,0,0,1,0,-2.5714285331113,-2.5714285331113,0.,0.,1.,1.,       113P     86
-7.00000010430813,19.,0.,-7.00000010430813,1.,0.,                    113P     87
-2.5714285331113,0.,0.,0.,0.;                                        113P     88
126,8,2,0,1,0,0,-3.14159265358979,-3.14159265358979,                 115P     89
-3.14159265358979,-1.5707963267949,-1.5707963267949,0.,0.,           115P     90
1.5707963267949,1.5707963267949,3.14159265358979,                    115P     91
3.14159265358979,3.14159265358979,1.,0.707106781186548,1.,           115P     92
0.707106781186548,1.,0.707106781186548,1.,0.707106781186548,1.,      115P     93
-7.00000010430813,1.,8.57252772177209D-16,-7.00000010430813,1.,      115P     94
7.00000010430813,4.28626386088604D-16,1.,7.00000010430813,           115P     95
7.00000010430813,1.,7.00000010430813,7.00000010430813,1.,0.,         115P     96
7.00000010430813,1.,-7.00000010430813,4.28626386088604D-16,1.,       115P     97
-7.00000010430813,-7.00000010430813,1.,-7.00000010430813,            115P     98
-7.00000010430813,1.,-8.57252772177209D-16,-3.14159265358979,        115P     99
3.14159265358979,0.,0.,0.;                                           115P    100
126,8,2,0,1,0,0,-3.14159265358979,-3.14159265358979,                 117P    101
-3.14159265358979,-1.5707963267949,-1.5707963267949,0.,0.,           117P    102
1.5707963267949,1.5707963267949,3.14159265358979,                    117P    103
3.14159265358979,3.14159265358979,1.,0.707106781186548,1.,           117P    104
0.707106781186548,1.,0.707106781186548,1.,0.707106781186548,1.,      117P    105
-3.,0.,3.67394039744206D-16,-3.,0.,3.,1.83697019872103D-16,0.,       117P    106
3.,3.,0.,3.,3.,0.,0.,3.,0.,-3.,1.83697019872103D-16,0.,-3.,-3.,      117P    107
0.,-3.,-3.,0.,-3.67394039744206D-16,-3.14159265358979,               117P    108
3.14159265358979,0.,0.,0.;                                           117P    109
126,1,1,0,0,1,0,0.,0.,0.333333333333333,0.333333333333333,1.,1.,     119P    110
-3.,0.,0.,-3.,1.,0.,0.,0.333333333333333,0.,0.,0.;                   119P    111
126,8,2,0,1,0,0,-3.14159265358979,-3.14159265358979,                 121P    112
-3.14159265358979,-1.5707963267949,-1.5707963267949,0.,0.,           121P    113
1.5707963267949,1.5707963267949,3.14159265358979,                    121P    114
3.14159265358979,3.14159265358979,1.,0.707106781186548,1.,           121P    115
0.707106781186548,1.,0.707106781186548,1.,0.707106781186548,1.,      121P    116
-3.,1.,-3.67394039744206D-16,-3.,1.,-3.,1.83697019872103D-16,1.,     121P    117
-3.,3.,1.,-3.,3.,1.,0.,3.,1.,3.,1.83697019872103D-16,1.,3.,-3.,      121P    118
1.,3.,-3.,1.,3.67394039744206D-16,-3.14159265358979,                 121P    119
3.14159265358979,0.,0.,0.;                                           121P    120
126,8,2,0,1,0,0,-3.14159265358979,-3.14159265358979,                 123P    121
-3.14159265358979,-1.5707963267949,-1.5707963267949,0.,0.,           123P    122
1.5707963267949,1.5707963267949,3.14159265358979,                    123P    123
3.14159265358979,3.14159265358979,1.,0.707106781186548,1.,           123P    124
0.707106781186548,1.,0.707106781186548,1.,0.707106781186548,1.,      123P    125
-3.,19.,3.67394039744206D-16,-3.,19.,3.,1.83697019872103D-16,        123P    126
19.,3.,3.,19.,3.,3.,19.,0.,3.,19.,-3.,1.83697019872103D-16,19.,      123P    127
-3.,-3.,19.,-3.,-3.,19.,-3.67394039744206D-16,-3.14159265358979,     123P    128
3.14159265358979,0.,0.,0.;                                           123P    129
126,1,1,0,0,1,0,6.33333333333333,6.33333333333333,                   125P    130
6.66666666666666,6.66666666666666,1.,1.,-3.,19.,0.,-3.,20.,0.,       125P    131
6.33333333333333,6.66666666666666,0.,0.,0.;                          125P    132
126,8,2,0,1,0,0,-3.14159265358979,-3.14159265358979,                 127P    133
-3.14159265358979,-1.5707963267949,-1.5707963267949,0.,0.,           127P    134
1.5707963267949,1.5707963267949,3.14159265358979,                    127P    135
3.14159265358979,3.14159265358979,1.,0.707106781186548,1.,           127P    136
0.707106781186548,1.,0.707106781186548,1.,0.707106781186548,1.,      127P    137
-3.,20.,-3.67394039744206D-16,-3.,20.,-3.,1.83697019872103D-16,      127P    138
20.,-3.,3.,20.,-3.,3.,20.,0.,3.,20.,3.,1.83697019872103D-16,20.,     127P    139
3.,-3.,20.,3.,-3.,20.,3.67394039744206D-16,-3.14159265358979,        127P    140
3.14159265358979,0.,0.,0.;                                           127P    141
126,1,1,0,0,1,0,-1.6,-1.6,0.,0.,1.,1.,-6.5,0.,-8.00000011920929,     129P    142
-6.5,0.,7.99999988079071,-1.6,0.,0.,0.,0.;                           129P    143
126,1,1,0,0,1,0,-2.,-2.,0.,0.,1.,1.,-6.5,0.,7.99999988079071,        131P    144
-6.5,20.,7.99999988079071,-2.,0.,0.,0.,0.;                           131P    145
126,1,1,0,0,1,0,-1.6,-1.6,0.,0.,1.,1.,-6.5,20.,7.99999988079071,     133P    146
-6.5,20.,-8.00000011920929,-1.6,0.,0.,0.,0.;                         133P    147
126,1,1,0,0,1,0,-2.,-2.,0.,0.,1.,1.,-6.5,20.,-8.00000011920929,      135P    148
-6.5,0.,-8.00000011920929,-2.,0.,0.,0.,0.;                           135P    149
126,1,1,0,0,1,0,-1.4,-1.4,0.4,0.4,1.,1.,-6.5,1.,                     137P    150
-7.00000011920929,-6.5,19.,-7.00000011920929,-1.4,0.4,0.,0.,0.;      137P    151
126,1,1,0,0,1,0,-1.1,-1.1,0.3,0.3,1.,1.,-6.5,19.,                    139P    152
-7.00000011920929,-6.5,19.,6.99999988079071,-1.1,0.3,0.,0.,0.;       139P    153
126,1,1,0,0,1,0,-1.4,-1.4,0.4,0.4,1.,1.,-6.5,19.,                    141P    154
6.99999988079071,-6.5,1.,6.99999988079071,-1.4,0.4,0.,0.,0.;         141P    155
126,1,1,0,0,1,0,-1.1,-1.1,0.3,0.3,1.,1.,-6.5,1.,                     143P    156
6.99999988079071,-6.5,1.,-7.00000011920929,-1.1,0.3,0.,0.,0.;        143P    157
126,1,1,0,0,1,0,-0.65,-0.65,0.65,0.65,1.,1.,-6.5,19.,                145P    158
6.99999988079071,6.5,19.,6.99999988079071,-0.65,0.65,0.,0.,0.;       145P    159
126,1,1,0,0,1,0,-1.4,-1.4,0.4,0.4,1.,1.,6.5,1.,6.99999988079071,     147P    160
6.5,19.,6.99999988079071,-1.4,0.4,0.,0.,0.;                          147P    161
126,1,1,0,0,1,0,-0.65,-0.65,0.65,0.65,1.,1.,6.5,1.,                  149P    162
6.99999988079071,-6.5,1.,6.99999988079071,-0.65,0.65,0.,0.,0.;       149P    163
126,1,1,0,0,1,0,-0.65,-0.65,0.65,0.65,1.,1.,-6.5,19.,                151P    164
-7.00000011920929,6.5,19.,-7.00000011920929,-0.65,0.65,0.,0.,0.;     151P    165
126,1,1,0,0,1,0,-1.1,-1.1,0.3,0.3,1.,1.,6.5,19.,                     153P    166
6.99999988079071,6.5,19.,-7.00000011920929,-1.1,0.3,0.,0.,0.;        153P    167
126,1,1,0,0,1,0,-0.65,-0.65,0.65,0.65,1.,1.,-6.5,1.,                 155P    168
-7.00000011920929,6.5,1.,-7.00000011920929,-0.65,0.65,0.,0.,0.;      155P    169
126,1,1,0,0,1,0,-1.4,-1.4,0.4,0.4,1.,1.,6.5,19.,                     157P    170
-7.00000011920929,6.5,1.,-7.00000011920929,-1.4,0.4,0.,0.,0.;        157P    171
126,1,1,0,0,1,0,-1.1,-1.1,0.3,0.3,1.,1.,6.5,1.,                      159P    172
-7.00000011920929,6.5,1.,6.99999988079071,-1.1,0.3,0.,0.,0.;         159P    173
126,1,1,0,0,1,0,-0.65,-0.65,0.65,0.65,1.,1.,6.5,0.,                  161P    174
7.99999988079071,-6.5,0.,7.99999988079071,-0.65,0.65,0.,0.,0.;       161P    175
126,1,1,0,0,1,0,0.,0.,2.,2.,1.,1.,6.5,20.,7.99999988079071,6.5,      163P    176
0.,7.99999988079071,0.,2.,0.,0.,0.;                                  163P    177
126,1,1,0,0,1,0,-0.65,-0.65,0.65,0.65,1.,1.,-6.5,20.,                165P    178
7.99999988079071,6.5,20.,7.99999988079071,-0.65,0.65,0.,0.,0.;       165P    179
126,1,1,0,0,1,0,0.,0.,1.6,1.6,1.,1.,6.5,20.,-8.00000011920929,       167P    180
6.5,20.,7.99999988079071,0.,1.6,0.,0.,0.;                            167P    181
126,1,1,0,0,1,0,-0.65,-0.65,0.65,0.65,1.,1.,-6.5,20.,                169P    182
-8.00000011920929,6.5,20.,-8.00000011920929,-0.65,0.65,0.,0.,0.;     169P    183
126,1,1,0,0,1,0,0.,0.,2.,2.,1.,1.,6.5,0.,-8.00000011920929,6.5,      171P    184
20.,-8.00000011920929,0.,2.,0.,0.,0.;                                171P    185
126,1,1,0,0,1,0,-0.65,-0.65,0.65,0.65,1.,1.,-6.5,0.,                 173P    186
-8.00000011920929,6.5,0.,-8.00000011920929,-0.65,0.65,0.,0.,0.;      173P    187
126,1,1,0,0,1,0,0.,0.,1.6,1.6,1.,1.,6.5,0.,7.99999988079071,6.5,     175P    188
0.,-8.00000011920929,0.,1.6,0.,0.,0.;                                175P    189
126,8,2,0,1,0,0,-3.14159265358979,-3.14159265358979,                 177P    190
-3.14159265358979,-1.5707963267949,-1.5707963267949,0.,0.,           177P    191
1.5707963267949,1.5707963267949,3.14159265358979,                    177P    192
3.14159265358979,3.14159265358979,1.,0.707106781186548,1.,           177P    193
0.707106781186548,1.,0.707106781186548,1.,0.707106781186548,1.,      177P    194
-3.,-22.,-3.67394039744206D-16,-3.,-22.,-3.,                         177P    195
1.83697019872103D-16,-22.,-3.,3.,-22.,-3.,3.,-22.,0.,3.,-22.,3.,     177P    196
1.83697019872103D-16,-22.,3.,-3.,-22.,3.,-3.,-22.,                   177P    197
3.67394039744206D-16,-3.14159265358979,3.14159265358979,0.,0.,       177P    198
0.;                                                                  177P    199
126,1,1,0,0,1,0,-7.,-7.,8.66666666666666,8.66666666666666,1.,1.,     179P    200
-3.,-22.,0.,-3.,25.,0.,-7.,8.66666666666666,0.,0.,0.;                179P    201
126,8,2,0,1,0,0,-3.14159265358979,-3.14159265358979,                 181P    202
-3.14159265358979,-1.5707963267949,-1.5707963267949,0.,0.,           181P    203
1.5707963267949,1.5707963267949,3.14159265358979,                    181P    204
3.14159265358979,3.14159265358979,1.,0.707106781186548,1.,           181P    205
0.707106781186548,1.,0.707106781186548,1.,0.707106781186548,1.,      181P    206
-3.,25.,3.67394039744206D-16,-3.,25.,3.,1.83697019872103D-16,        181P    207
25.,3.,3.,25.,3.,3.,25.,0.,3.,25.,-3.,1.83697019872103D-16,25.,      181P    208
-3.,-3.,25.,-3.,-3.,25.,-3.67394039744206D-16,-3.14159265358979,     181P    209
3.14159265358979,0.,0.,0.;                                           181P    210
128,1,8,1,2,0,1,0,0,1,0.,0.,6.,6.,-3.14159265358979,                 183P    211
-3.14159265358979,-3.14159265358979,-1.5707963267949,                183P    212
-1.5707963267949,0.,0.,1.5707963267949,1.5707963267949,              183P    213
3.14159265358979,3.14159265358979,3.14159265358979,1.,1.,            183P    214
0.707106781186548,0.707106781186548,1.,1.,0.707106781186548,         183P    215
0.707106781186548,1.,1.,0.707106781186548,0.707106781186548,1.,      183P    216
1.,0.707106781186548,0.707106781186548,1.,1.,-3.,1.,0.,-3.,19.,      183P    217
0.,-3.,1.,3.,-3.,19.,3.,0.,1.,3.,0.,19.,3.,3.,1.,3.,3.,19.,3.,       183P    218
3.,1.,0.,3.,19.,0.,3.,1.,-3.,3.,19.,-3.,0.,1.,-3.,0.,19.,-3.,        183P    219
-3.,1.,-3.,-3.,19.,-3.,-3.,1.,0.,-3.,19.,0.,0.,6.,                   183P    220
-3.14159265358979,3.14159265358979;                                  183P    221
128,1,8,1,2,0,1,0,0,1,0.,0.,2.5714285331113,2.5714285331113,         185P    222
-3.14159265358979,-3.14159265358979,-3.14159265358979,               185P    223
-1.5707963267949,-1.5707963267949,0.,0.,1.5707963267949,             185P    224
1.5707963267949,3.14159265358979,3.14159265358979,                   185P    225
3.14159265358979,1.,1.,0.707106781186548,0.707106781186548,1.,       185P    226
1.,0.707106781186548,0.707106781186548,1.,1.,0.707106781186548,      185P    227
0.707106781186548,1.,1.,0.707106781186548,0.707106781186548,1.,      185P    228
1.,-7.00000010430813,19.,0.,-7.00000010430813,1.,0.,                 185P    229
-7.00000010430813,19.,7.00000010430813,-7.00000010430813,1.,         185P    230
7.00000010430813,0.,19.,7.00000010430813,0.,1.,7.00000010430813,     185P    231
7.00000010430813,19.,7.00000010430813,7.00000010430813,1.,           185P    232
7.00000010430813,7.00000010430813,19.,0.,7.00000010430813,1.,0.,     185P    233
7.00000010430813,19.,-7.00000010430813,7.00000010430813,1.,          185P    234
-7.00000010430813,0.,19.,-7.00000010430813,0.,1.,                    185P    235
-7.00000010430813,-7.00000010430813,19.,-7.00000010430813,           185P    236
-7.00000010430813,1.,-7.00000010430813,-7.00000010430813,19.,0.,     185P    237
-7.00000010430813,1.,0.,0.,2.5714285331113,-3.14159265358979,        185P    238
3.14159265358979;                                                    185P    239
128,1,1,1,1,0,0,1,0,0,-0.701000010430813,-0.701000010430813,         187P    240
0.701000010430813,0.701000010430813,-0.701000010430813,              187P    241
-0.701000010430813,0.701000010430813,0.701000010430813,1.,1.,1.,     187P    242
1.,-7.01000010430813,19.,7.01000010430813,7.01000010430813,19.,      187P    243
7.01000010430813,-7.01000010430813,19.,-7.01000010430813,            187P    244
7.01000010430813,19.,-7.01000010430813,-0.701000010430813,           187P    245
0.701000010430813,-0.701000010430813,0.701000010430813;              187P    246
128,1,1,1,1,0,0,1,0,0,-0.701000010430813,-0.701000010430813,         189P    247
0.701000010430813,0.701000010430813,-0.701000010430813,              189P    248
-0.701000010430813,0.701000010430813,0.701000010430813,1.,1.,1.,     189P    249
1.,7.01000010430813,1.,7.01000010430813,-7.01000010430813,1.,        189P    250
7.01000010430813,7.01000010430813,1.,-7.01000010430813,              189P    251
-7.01000010430813,1.,-7.01000010430813,-0.701000010430813,           189P    252
0.701000010430813,-0.701000010430813,0.701000010430813;              189P    253
128,1,8,1,2,0,1,0,0,1,0.,0.,0.333333333333333,0.333333333333333,     191P    254
-3.14159265358979,-3.14159265358979,-3.14159265358979,               191P    255
-1.5707963267949,-1.5707963267949,0.,0.,1.5707963267949,             191P    256
1.5707963267949,3.14159265358979,3.14159265358979,                   191P    257
3.14159265358979,1.,1.,0.707106781186548,0.707106781186548,1.,       191P    258
1.,0.707106781186548,0.707106781186548,1.,1.,0.707106781186548,      191P    259
0.707106781186548,1.,1.,0.707106781186548,0.707106781186548,1.,      191P    260
1.,-3.,0.,0.,-3.,1.,0.,-3.,0.,3.,-3.,1.,3.,0.,0.,3.,0.,1.,3.,3.,     191P    261
0.,3.,3.,1.,3.,3.,0.,0.,3.,1.,0.,3.,0.,-3.,3.,1.,-3.,0.,0.,-3.,      191P    262
0.,1.,-3.,-3.,0.,-3.,-3.,1.,-3.,-3.,0.,0.,-3.,1.,0.,0.,              191P    263
0.333333333333333,-3.14159265358979,3.14159265358979;                191P    264
128,1,8,1,2,0,1,0,0,1,6.33333333333333,6.33333333333333,             193P    265
6.66666666666666,6.66666666666666,-3.14159265358979,                 193P    266
-3.14159265358979,-3.14159265358979,-1.5707963267949,                193P    267
-1.5707963267949,0.,0.,1.5707963267949,1.5707963267949,              193P    268
3.14159265358979,3.14159265358979,3.14159265358979,1.,1.,            193P    269
0.707106781186548,0.707106781186548,1.,1.,0.707106781186548,         193P    270
0.707106781186548,1.,1.,0.707106781186548,0.707106781186548,1.,      193P    271
1.,0.707106781186548,0.707106781186548,1.,1.,-3.,19.,0.,-3.,20.,     193P    272
0.,-3.,19.,3.,-3.,20.,3.,0.,19.,3.,0.,20.,3.,3.,19.,3.,3.,20.,       193P    273
3.,3.,19.,0.,3.,20.,0.,3.,19.,-3.,3.,20.,-3.,0.,19.,-3.,0.,20.,      193P    274
-3.,-3.,19.,-3.,-3.,20.,-3.,-3.,19.,0.,-3.,20.,0.,                   193P    275
6.33333333333333,6.66666666666666,-3.14159265358979,                 193P    276
3.14159265358979;                                                    193P    277
128,1,1,1,1,0,0,1,0,0,-0.801,-0.801,0.801,0.801,-1.001,-1.001,       195P    278
1.001,1.001,1.,1.,1.,1.,-6.5,-0.01,-8.01000011920929,-6.5,-0.01,     195P    279
8.00999988079071,-6.5,20.01,-8.01000011920929,-6.5,20.01,            195P    280
8.00999988079071,-0.801,0.801,-1.001,1.001;                          195P    281
128,1,1,1,1,0,0,1,0,0,0.0990000000000001,0.0990000000000001,         197P    282
1.901,1.901,-0.651,-0.651,0.651,0.651,1.,1.,1.,1.,-6.51,0.99,        197P    283
6.99999988079071,-6.51,19.01,6.99999988079071,6.51,0.99,             197P    284
6.99999988079071,6.51,19.01,6.99999988079071,0.0990000000000001,     197P    285
1.901,-0.651,0.651;                                                  197P    286
128,1,1,1,1,0,0,1,0,0,0.099,0.099,1.501,1.501,-0.651,-0.651,         199P    287
0.651,0.651,1.,1.,1.,1.,-6.51,19.,7.00999988079071,-6.51,19.,        199P    288
-7.01000011920929,6.51,19.,7.00999988079071,6.51,19.,                199P    289
-7.01000011920929,0.099,1.501,-0.651,0.651;                          199P    290
128,1,1,1,1,0,0,1,0,0,0.099,0.099,1.901,1.901,-0.651,-0.651,         201P    291
0.651,0.651,1.,1.,1.,1.,-6.51,19.01,-7.00000011920929,-6.51,         201P    292
0.99,-7.00000011920929,6.51,19.01,-7.00000011920929,6.51,0.99,       201P    293
-7.00000011920929,0.099,1.901,-0.651,0.651;                          201P    294
128,1,1,1,1,0,0,1,0,0,0.099,0.099,1.501,1.501,-0.651,-0.651,         203P    295
0.651,0.651,1.,1.,1.,1.,-6.51,1.,-7.01000011920929,-6.51,1.,         203P    296
7.00999988079071,6.51,1.,-7.01000011920929,6.51,1.,                  203P    297
7.00999988079071,0.099,1.501,-0.651,0.651;                           203P    298
128,1,1,1,1,0,0,1,0,0,-0.001,-0.001,2.001,2.001,-0.651,-0.651,       205P    299
0.651,0.651,1.,1.,1.,1.,-6.51,20.01,7.99999988079071,-6.51,          205P    300
-0.0100000000000011,7.99999988079071,6.51,20.01,                     205P    301
7.99999988079071,6.51,-0.0100000000000011,7.99999988079071,          205P    302
-0.001,2.001,-0.651,0.651;                                           205P    303
128,1,1,1,1,0,0,1,0,0,-0.001,-0.001,1.601,1.601,-0.651,-0.651,       207P    304
0.651,0.651,1.,1.,1.,1.,-6.51,20.,-8.01000011920929,-6.51,20.,       207P    305
8.00999988079071,6.51,20.,-8.01000011920929,6.51,20.,                207P    306
8.00999988079071,-0.001,1.601,-0.651,0.651;                          207P    307
128,1,1,1,1,0,0,1,0,0,-0.001,-0.001,2.001,2.001,-0.651,-0.651,       209P    308
0.651,0.651,1.,1.,1.,1.,-6.51,-0.01,-8.00000011920929,-6.51,         209P    309
20.01,-8.00000011920929,6.51,-0.01,-8.00000011920929,6.51,20.01,     209P    310
-8.00000011920929,-0.001,2.001,-0.651,0.651;                         209P    311
128,1,1,1,1,0,0,1,0,0,-0.001,-0.001,1.601,1.601,-0.651,-0.651,       211P    312
0.651,0.651,1.,1.,1.,1.,-6.51,0.,8.00999988079071,-6.51,0.,          211P    313
-8.01000011920929,6.51,0.,8.00999988079071,6.51,0.,                  211P    314
-8.01000011920929,-0.001,1.601,-0.651,0.651;                         211P    315
128,1,1,1,1,0,0,1,0,0,-0.801,-0.801,0.801,0.801,-1.001,-1.001,       213P    316
1.001,1.001,1.,1.,1.,1.,6.5,-0.01,8.00999988079071,6.5,-0.01,        213P    317
-8.01000011920929,6.5,20.01,8.00999988079071,6.5,20.01,              213P    318
-8.01000011920929,-0.801,0.801,-1.001,1.001;                         213P    319
128,1,8,1,2,0,1,0,0,1,-8.66666666666666,-8.66666666666666,7.,7.,     215P    320
-3.14159265358979,-3.14159265358979,-3.14159265358979,               215P    321
-1.5707963267949,-1.5707963267949,0.,0.,1.5707963267949,             215P    322
1.5707963267949,3.14159265358979,3.14159265358979,                   215P    323
3.14159265358979,1.,1.,0.707106781186548,0.707106781186548,1.,       215P    324
1.,0.707106781186548,0.707106781186548,1.,1.,0.707106781186548,      215P    325
0.707106781186548,1.,1.,0.707106781186548,0.707106781186548,1.,      215P    326
1.,-3.,-22.,0.,-3.,25.,0.,-3.,-22.,-3.,-3.,25.,-3.,0.,-22.,-3.,      215P    327
0.,25.,-3.,3.,-22.,-3.,3.,25.,-3.,3.,-22.,0.,3.,25.,0.,3.,-22.,      215P    328
3.,3.,25.,3.,0.,-22.,3.,0.,25.,3.,-3.,-22.,3.,-3.,25.,3.,-3.,        215P    329
-22.,0.,-3.,25.,0.,-8.66666666666666,7.,-3.14159265358979,           215P    330
3.14159265358979;                                                    215P    331
128,1,1,1,1,0,0,1,0,0,-0.301,-0.301,0.301,0.301,-0.301,-0.301,       217P    332
0.301,0.301,1.,1.,1.,1.,-3.01,25.,3.01,3.01,25.,3.01,-3.01,25.,      217P    333
-3.01,3.01,25.,-3.01,-0.301,0.301,-0.301,0.301;                      217P    334
128,1,1,1,1,0,0,1,0,0,-0.301,-0.301,0.301,0.301,-0.301,-0.301,       219P    335
0.301,0.301,1.,1.,1.,1.,3.01,-22.,3.01,-3.01,-22.,3.01,3.01,         219P    336
-22.,-3.01,-3.01,-22.,-3.01,-0.301,0.301,-0.301,0.301;               219P    337
502,4,-3.,19.,3.67394039744206D-16,-3.,1.,3.67394039744206D-16,      221P    338
-7.00000010430813,19.,8.57252772177209D-16,-7.00000010430813,1.,     221P    339
8.57252772177209D-16;                                                221P    340
502,20,-3.,0.,3.67394039744206D-16,-3.,1.,-3.67394039744206D-16,     223P    341
-3.,19.,3.67394039744206D-16,-3.,20.,3.67394039744206D-16,-6.5,      223P    342
0.,-8.00000011920929,-6.5,0.,7.99999988079071,-6.5,20.,              223P    343
7.99999988079071,-6.5,20.,-8.00000011920929,-6.5,1.,                 223P    344
-7.00000011920929,-6.5,19.,-7.00000011920929,-6.5,19.,               223P    345
6.99999988079071,-6.5,1.,6.99999988079071,6.5,19.,                   223P    346
6.99999988079071,6.5,1.,6.99999988079071,6.5,19.,                    223P    347
-7.00000011920929,6.5,1.,-7.00000011920929,6.5,0.,                   223P    348
7.99999988079071,6.5,20.,7.99999988079071,6.5,20.,                   223P    349
-8.00000011920929,6.5,0.,-8.00000011920929;                          223P    350
502,2,-3.,-22.,-3.67394039744206D-16,-3.,25.,                        225P    351
3.67394039744206D-16;                                                225P    352
504,6,105,221,1,221,1,107,221,1,221,2,109,221,2,221,2,111,221,3,     227P    353
221,3,113,221,3,221,4,115,221,4,221,4;                               227P    354
504,30,117,223,1,223,1,119,223,1,223,2,121,223,2,223,2,123,223,      229P    355
3,223,3,125,223,3,223,4,127,223,4,223,4,129,223,5,223,6,131,223,     229P    356
6,223,7,133,223,7,223,8,135,223,8,223,5,137,223,9,223,10,139,        229P    357
223,10,223,11,141,223,11,223,12,143,223,12,223,9,145,223,11,223,     229P    358
13,147,223,14,223,13,149,223,14,223,12,151,223,10,223,15,153,        229P    359
223,13,223,15,155,223,9,223,16,157,223,15,223,16,159,223,16,223,     229P    360
14,161,223,17,223,6,163,223,18,223,17,165,223,7,223,18,167,223,      229P    361
19,223,18,169,223,8,223,19,171,223,20,223,19,173,223,5,223,20,       229P    362
175,223,17,223,20;                                                   229P    363
504,3,177,225,1,225,1,179,225,1,225,2,181,225,2,225,2;               231P    364
406,1,5HBody1;                                                       233P    365
406,1,5HBody2;                                                       235P    366
406,1,5HBody3;                                                       237P    367
314,62.7450980392157,62.7450980392157,62.7450980392157,13HSteel      239P    368
- Satin;                                                             239P    369
S      1G      3D    240P    369                                        T      1
