0
SECTION
2
HEADER
9
$INSUNITS
70
4
9
$ACADVER
1
AC1014
9
$HANDSEED
5
FFFF
0
ENDSEC
0
SECTION
2
TABLES
0
TABLE
2
VPORT
5
8
100
AcDbSymbolTable
0
ENDTAB
0
TABLE
2
LTYPE
5
5
100
AcDbSymbolTable
0
LTYPE
5
14
100
AcDbSymbolTableRecord
100
AcDbLinetypeTableRecord
2
BYBLOCK
70
0
0
LTYPE
5
15
100
AcDbSymbolTableRecord
100
AcDbLinetypeTableRecord
2
BYLAYER
70
0
0
ENDTAB
0
TABLE
2
LAYER
5
2
100
AcDbSymbolTable
70
2
0
LAYER
5
50
100
AcDbSymbolTableRecord
100
AcDbLayerTableRecord
2
0
70
0
6
CONTINUOUS
0
ENDTAB
0
TABLE
2
STYLE
5
3
100
AcDbSymbolTable
70
1
0
STYLE
5
11
100
AcDbSymbolTableRecord
100
AcDbTextStyleTableRecord
2
STANDARD
70
0
0
ENDTAB
0
TABLE
2
VIEW
5
6
100
AcDbSymbolTable
70
0
0
ENDTAB
0
TABLE
2
UCS
5
7
100
AcDbSymbolTable
70
0
0
ENDTAB
0
TABLE
2
APPID
5
9
100
AcDbSymbolTable
70
2
0
APPID
5
12
100
AcDbSymbolTableRecord
100
AcDbRegAppTableRecord
2
ACAD
70
0
0
ENDTAB
0
TABLE
2
DIMSTYLE
5
A
100
AcDbSymbolTable
70
1
0
ENDTAB
0
TABLE
2
BLOCK_RECORD
5
1
100
AcDbSymbolTable
70
1
0
BLOCK_RECORD
5
1F
100
AcDbSymbolTableRecord
100
AcDbBlockTableRecord
2
*MODEL_SPACE
0
BLOCK_RECORD
5
1B
100
AcDbSymbolTableRecord
100
AcDbBlockTableRecord
2
*PAPER_SPACE
0
ENDTAB
0
ENDSEC
0
SECTION
2
BLOCKS
0
BLOCK
5
20
100
AcDbEntity
100
AcDbBlockBegin
2
*MODEL_SPACE
0
ENDBLK
5
21
100
AcDbEntity
100
AcDbBlockEnd
0
BLOCK
5
1C
100
AcDbEntity
100
AcDbBlockBegin
2
*PAPER_SPACE
0
ENDBLK
5
1D
100
AcDbEntity
100
AcDbBlockEnd
0
ENDSEC
0
SECTION
2
ENTITIES
0
CIRCLE
5
100
100
AcDbEntity
8
0
100
AcDbCircle
10
0
20
0
30
0
40
5
210
0
220
0
230
1
0
LINE
5
101
100
AcDbEntity
8
0
100
AcDbLine
10
-3.0616169978683861e-17
20
6.0000000000000009
30
0
11
4.9999999999999991
21
6.0000000000000009
31
0
0
LINE
5
102
100
AcDbEntity
8
0
100
AcDbLine
10
4.9999999999999991
20
6.0000000000000009
30
0
11
5
21
-5
31
0
0
LINE
5
103
100
AcDbEntity
8
0
100
AcDbLine
10
-2.7832881798803506e-17
20
5
30
0
11
-3.0616169978683861e-17
21
6.0000000000000009
31
0
0
CIRCLE
5
104
100
AcDbEntity
8
0
100
AcDbCircle
10
0
20
0
30
0
40
1
210
0
220
0
230
1
0
CIRCLE
5
105
100
AcDbEntity
8
0
100
AcDbCircle
10
2.5980762113533151
20
-1.5
30
0
40
0.75000000000000011
210
0
220
0
230
1
0
LINE
5
106
100
AcDbEntity
8
0
100
AcDbLine
10
5
20
-5
30
0
11
0
21
-5
31
0
0
LINE
5
107
100
AcDbEntity
8
0
100
AcDbLine
10
4.9999999999999991
20
6.0000000000000009
30
0
11
6.4999999999999991
21
6.0000000000000009
31
0
0
LINE
5
108
100
AcDbEntity
8
0
100
AcDbLine
10
6.4999999999999991
20
6.0000000000000009
30
0
11
6.4999999999999991
21
-5
31
0
0
LINE
5
109
100
AcDbEntity
8
0
100
AcDbLine
10
6.4999999999999991
20
-5
30
0
11
4.9999999999999991
21
-5
31
0
0
LINE
5
110
100
AcDbEntity
8
0
100
AcDbLine
10
4.9999999999999991
20
-5
30
0
11
4.9999999999999991
21
6.0000000000000009
31
0
0
LINE
5
111
100
AcDbEntity
8
0
100
AcDbLine
10
6.4999999999999991
20
-5
30
0
11
25
21
-5.0000000000000018
31
0
0
SPLINE
5
112
100
AcDbEntity
8
0
100
AcDbSpline
70
4
71
5
72
31
73
25
74
0
42
0.000000001
43
0.0000000001
44
0.0000000001
40
0
40
0
40
0
40
0
40
0
40
0
40
0.050000000000000003
40
0.10000000000000001
40
0.15000000000000002
40
0.20000000000000001
40
0.25
40
0.29999999999999999
40
0.34999999999999998
40
0.39999999999999997
40
0.44999999999999996
40
0.49999999999999994
40
0.54999999999999993
40
0.59999999999999998
40
0.65000000000000002
40
0.70000000000000007
40
0.75000000000000011
40
0.80000000000000016
40
0.8500000000000002
40
0.90000000000000024
40
0.95000000000000029
40
1
40
1
40
1
40
1
40
1
40
1
41
1
41
1
41
1
41
1
41
1
41
1
41
1
41
1
41
1
41
1
41
1
41
1
41
1
41
1
41
1
41
1
41
1
41
1
41
1
41
1
41
1
41
1
41
1
41
1
41
1
10
6.4999999999999991
20
-5
30
0
10
6.6936814704469612
20
-4.9711661483030127
30
0
10
7.0736624040625298
20
-4.9166859144332848
30
0
10
7.6214862704154331
20
-4.8445273797323276
30
0
10
8.3074552576422551
20
-4.7675227772063122
30
0
10
9.0936051124316659
20
-4.7042859654414428
30
0
10
9.8189824676710398
20
-4.676387344964116
30
0
10
10.505819881742768
20
-4.687688052160782
30
0
10
11.19399677160165
20
-4.7444826655592918
30
0
10
11.930147801829866
20
-4.8501160228818287
30
0
10
12.75445848985618
20
-4.9986749774142014
30
0
10
13.688021913684061
20
-5.1687228232597757
30
0
10
14.720060507800794
20
-5.3170220853774612
30
0
10
15.817888706153564
20
-5.3868080660880269
30
0
10
16.936000787251352
20
-5.3156088266584112
30
0
10
18.025082188066392
20
-5.0430957062444683
30
0
10
19.041072545975798
20
-4.5192340654222773
30
0
10
19.953790243935664
20
-3.7121374586627951
30
0
10
20.743828325227099
20
-2.6035869586301583
30
0
10
21.400172736426768
20
-1.1854795833053531
30
0
10
21.917825042831716
20
0.5435697750771713
30
0
10
22.220112724781981
20
2.1736865899625881
30
0
10
22.384281300784
20
3.5336406529668341
30
0
10
22.466041576733232
20
4.5010797367149404
30
0
10
22.500000335276127
20
5.000000074505806
30
0
0
ENDSEC
0
SECTION
2
OBJECTS
0
DICTIONARY
5
C
100
AcDbDictionary
3
ACAD_GROUP
350
D
3
ACAD_MLINESTYLE
350
17
0
DICTIONARY
5
D
100
AcDbDictionary
0
DICTIONARY
5
1A
330
C
100
AcDbDictionary
0
DICTIONARY
5
17
100
AcDbDictionary
0
ENDSEC
0
EOF
