0
SECTION
2
HEADER
9
$INSUNITS
70
4
9
$ACADVER
1
AC1014
9
$HANDSEED
5
FFFF
0
ENDSEC
0
SECTION
2
TABLES
0
TABLE
2
VPORT
5
8
100
AcDbSymbolTable
0
ENDTAB
0
TABLE
2
LTYPE
5
5
100
AcDbSymbolTable
0
LTYPE
5
14
100
AcDbSymbolTableRecord
100
AcDbLinetypeTableRecord
2
BYBLOCK
70
0
0
LTYPE
5
15
100
AcDbSymbolTableRecord
100
AcDbLinetypeTableRecord
2
BYLAYER
70
0
0
ENDTAB
0
TABLE
2
LAYER
5
2
100
AcDbSymbolTable
70
2
0
LAYER
5
50
100
AcDbSymbolTableRecord
100
AcDbLayerTableRecord
2
0
70
0
6
CONTINUOUS
0
ENDTAB
0
TABLE
2
STYLE
5
3
100
AcDbSymbolTable
70
1
0
STYLE
5
11
100
AcDbSymbolTableRecord
100
AcDbTextStyleTableRecord
2
STANDARD
70
0
0
ENDTAB
0
TABLE
2
VIEW
5
6
100
AcDbSymbolTable
70
0
0
ENDTAB
0
TABLE
2
UCS
5
7
100
AcDbSymbolTable
70
0
0
ENDTAB
0
TABLE
2
APPID
5
9
100
AcDbSymbolTable
70
2
0
APPID
5
12
100
AcDbSymbolTableRecord
100
AcDbRegAppTableRecord
2
ACAD
70
0
0
ENDTAB
0
TABLE
2
DIMSTYLE
5
A
100
AcDbSymbolTable
70
1
0
ENDTAB
0
TABLE
2
BLOCK_RECORD
5
1
100
AcDbSymbolTable
70
1
0
BLOCK_RECORD
5
1F
100
AcDbSymbolTableRecord
100
AcDbBlockTableRecord
2
*MODEL_SPACE
0
BLOCK_RECORD
5
1B
100
AcDbSymbolTableRecord
100
AcDbBlockTableRecord
2
*PAPER_SPACE
0
ENDTAB
0
ENDSEC
0
SECTION
2
BLOCKS
0
BLOCK
5
20
100
AcDbEntity
100
AcDbBlockBegin
2
*MODEL_SPACE
0
ENDBLK
5
21
100
AcDbEntity
100
AcDbBlockEnd
0
BLOCK
5
1C
100
AcDbEntity
100
AcDbBlockBegin
2
*PAPER_SPACE
0
ENDBLK
5
1D
100
AcDbEntity
100
AcDbBlockEnd
0
ENDSEC
0
SECTION
2
ENTITIES
0
LINE
5
100
100
AcDbEntity
8
0
100
AcDbLine
10
10.00000000000002
20
5.0000000000000018
30
0
11
-10.000000000000004
21
5.0000000000000009
31
0
0
LINE
5
101
100
AcDbEntity
8
0
100
AcDbLine
10
-10.000000000000004
20
5.0000000000000009
30
0
11
-10.000000000000007
21
-4.9999999999999956
31
0
0
LINE
5
102
100
AcDbEntity
8
0
100
AcDbLine
10
-10.000000000000007
20
-4.9999999999999956
30
0
11
9.9999999999999964
21
-4.9999999999999964
31
0
0
LINE
5
103
100
AcDbEntity
8
0
100
AcDbLine
10
9.9999999999999964
20
-4.9999999999999964
30
0
11
10.00000000000002
21
5.0000000000000018
31
0
0
LINE
5
104
100
AcDbEntity
8
0
100
AcDbLine
10
10.00000000000002
20
5.0000000000000018
30
0
11
-10.000000000000007
21
-4.9999999999999956
31
0
0
LINE
5
105
100
AcDbEntity
8
0
100
AcDbLine
10
-10.000000000000004
20
5.0000000000000009
30
0
11
9.9999999999999964
21
-4.9999999999999964
31
0
0
CIRCLE
5
106
100
AcDbEntity
8
0
100
AcDbCircle
10
10.000000000000869
20
-1.4149531223574959e-12
30
0
40
5
210
0
220
0
230
1
0
CIRCLE
5
107
100
AcDbEntity
8
0
100
AcDbCircle
10
-17.499999999989338
20
3.2747052435917405e-16
30
0
40
10
210
0
220
0
230
1
0
CIRCLE
5
108
100
AcDbEntity
8
0
100
AcDbCircle
10
11.65831239517636
20
2.5000000000000511
30
0
40
0.75000000000000011
210
0
220
0
230
1
0
LINE
5
109
100
AcDbEntity
8
0
100
AcDbLine
10
-10.000000000000004
20
5.0000000000000009
30
0
11
10.000000000000002
21
5.0000000000000036
31
0
0
LINE
5
110
100
AcDbEntity
8
0
100
AcDbLine
10
10.000000000000002
20
5.0000000000000036
30
0
11
10.000000000000002
21
5.9999999999999982
31
0
0
LINE
5
111
100
AcDbEntity
8
0
100
AcDbLine
10
10.000000000000002
20
5.9999999999999982
30
0
11
-10.000000000000002
21
5.9999999999999982
31
0
0
LINE
5
112
100
AcDbEntity
8
0
100
AcDbLine
10
-10.000000000000002
20
5.9999999999999982
30
0
11
-10.000000000000004
21
5.0000000000000009
31
0
0
CIRCLE
5
113
100
AcDbEntity
8
0
100
AcDbCircle
10
-17.499999999989338
20
3.2747052435917405e-16
30
0
40
4.9999999999999991
210
0
220
0
230
1
0
LINE
5
114
100
AcDbEntity
8
0
100
AcDbLine
10
5.0000000000000453
20
-1.4617214688837733e-14
30
0
11
5.0000000000002087
21
5.0000000000000009
31
0
0
LINE
5
115
100
AcDbEntity
8
0
100
AcDbLine
10
5.0000000000000453
20
-1.4617214688837733e-14
30
0
11
4.9999999999964215
21
-5
31
0
0
CIRCLE
5
116
100
AcDbEntity
8
0
100
AcDbCircle
10
10.000000000000554
20
-1.4715876087145752e-14
30
0
40
0.85000000000000031
210
0
220
0
230
1
0
LWPOLYLINE
5
117
100
AcDbEntity
8
0
100
AcDbPolyline
90
4
70
1
43
0.0
10
0.49999999999977729
20
-1.7500000000526477
10
-4.4999999999857856
20
-1.7500000000528035
42
-0.99999999999999989
10
-4.4999999999928928
20
1.7499999999713747
10
0.49999999999977701
20
1.7499999999770903
42
-0.99999999999999989
0
LINE
5
118
100
AcDbEntity
8
0
100
AcDbLine
10
-4.4999999999893392
20
-4.0714298594726705e-11
30
0
11
0.49999999999977729
21
-3.7778564425214594e-11
31
0
0
CIRCLE
5
119
100
AcDbEntity
8
0
100
AcDbCircle
10
11.65831239517636
20
2.5000000000000511
30
0
40
1.5000000000000002
210
0
220
0
230
1
0
SPLINE
5
120
100
AcDbEntity
8
0
100
AcDbSpline
70
4
71
5
72
31
73
25
74
0
42
0.000000001
43
0.0000000001
44
0.0000000001
40
0
40
0
40
0
40
0
40
0
40
0
40
0.050000000000000003
40
0.10000000000000001
40
0.15000000000000002
40
0.20000000000000001
40
0.25
40
0.29999999999999999
40
0.34999999999999998
40
0.39999999999999997
40
0.44999999999999996
40
0.49999999999999994
40
0.54999999999999993
40
0.59999999999999998
40
0.65000000000000002
40
0.70000000000000007
40
0.75000000000000011
40
0.80000000000000016
40
0.8500000000000002
40
0.90000000000000024
40
0.95000000000000029
40
1
40
1
40
1
40
1
40
1
40
1
41
1
41
1
41
1
41
1
41
1
41
1
41
1
41
1
41
1
41
1
41
1
41
1
41
1
41
1
41
1
41
1
41
1
41
1
41
1
41
1
41
1
41
1
41
1
41
1
41
1
10
11.264999999999951
20
4.8373313924106167
30
0
10
11.146045294632751
20
4.806059123824804
30
0
10
10.917328540365014
20
4.7370874837593204
30
0
10
10.601831618797386
20
4.6143479721152358
30
0
10
10.236548480816692
20
4.4119802071771472
30
0
10
9.8724731854685341
20
4.0954766474941158
30
0
10
9.5992378546901111
20
3.720142066016161
30
0
10
9.4116863061336673
20
3.2965237085034222
30
0
10
9.2992224129999883
20
2.8440571324304003
30
0
10
9.2445749768297816
20
2.3917221922656857
30
0
10
9.2261769914741407
20
1.961664888827821
30
0
10
9.2203544948337157
20
1.5581363026414154
30
0
10
9.2026894720303627
20
1.147694995782309
30
0
10
9.1514588290606653
20
0.65557369938800081
30
0
10
9.0567163494216114
20
0.073434978212213925
30
0
10
8.9151375647611122
20
-0.58098109427677636
30
0
10
8.7287446479292612
20
-1.2661020876326203
30
0
10
8.5022127438807367
20
-1.9335954516149543
30
0
10
8.2408766138313911
20
-2.5389682749536853
30
0
10
7.948552614496621
20
-3.0546207894254938
30
0
10
7.6278239526749072
20
-3.4652625815361753
30
0
10
7.349747218768389
20
-3.7046221297787794
30
0
10
7.129428773858856
20
-3.8334484783749252
30
0
10
6.9773439058058138
20
-3.896895163912395
30
0
10
6.9000000000001069
20
-3.9230090491862439
30
0
0
LINE
5
121
100
AcDbEntity
8
0
100
AcDbLine
10
6.9000000000001069
20
-3.9230090491862439
30
0
11
6.9000000000000581
21
-5
31
0
0
CIRCLE
5
122
100
AcDbEntity
8
0
100
AcDbCircle
10
-17.499999999989338
20
3.2747052435917405e-16
30
0
40
10.500000000000004
210
0
220
0
230
1
0
ENDSEC
0
SECTION
2
OBJECTS
0
DICTIONARY
5
C
100
AcDbDictionary
3
ACAD_GROUP
350
D
3
ACAD_MLINESTYLE
350
17
0
DICTIONARY
5
D
100
AcDbDictionary
0
DICTIONARY
5
1A
330
C
100
AcDbDictionary
0
DICTIONARY
5
17
100
AcDbDictionary
0
ENDSEC
0
EOF
