0
SECTION
2
HEADER
9
$INSUNITS
70
4
9
$ACADVER
1
AC1014
9
$HANDSEED
5
FFFF
0
ENDSEC
0
SECTION
2
TABLES
0
TABLE
2
VPORT
5
8
100
AcDbSymbolTable
0
ENDTAB
0
TABLE
2
LTYPE
5
5
100
AcDbSymbolTable
0
LTYPE
5
14
100
AcDbSymbolTableRecord
100
AcDbLinetypeTableRecord
2
BYBLOCK
70
0
0
LTYPE
5
15
100
AcDbSymbolTableRecord
100
AcDbLinetypeTableRecord
2
BYLAYER
70
0
0
ENDTAB
0
TABLE
2
LAYER
5
2
100
AcDbSymbolTable
70
2
0
LAYER
5
50
100
AcDbSymbolTableRecord
100
AcDbLayerTableRecord
2
0
70
0
6
CONTINUOUS
0
ENDTAB
0
TABLE
2
STYLE
5
3
100
AcDbSymbolTable
70
1
0
STYLE
5
11
100
AcDbSymbolTableRecord
100
AcDbTextStyleTableRecord
2
STANDARD
70
0
0
ENDTAB
0
TABLE
2
VIEW
5
6
100
AcDbSymbolTable
70
0
0
ENDTAB
0
TABLE
2
UCS
5
7
100
AcDbSymbolTable
70
0
0
ENDTAB
0
TABLE
2
APPID
5
9
100
AcDbSymbolTable
70
2
0
APPID
5
12
100
AcDbSymbolTableRecord
100
AcDbRegAppTableRecord
2
ACAD
70
0
0
ENDTAB
0
TABLE
2
DIMSTYLE
5
A
100
AcDbSymbolTable
70
1
0
ENDTAB
0
TABLE
2
BLOCK_RECORD
5
1
100
AcDbSymbolTable
70
1
0
BLOCK_RECORD
5
1F
100
AcDbSymbolTableRecord
100
AcDbBlockTableRecord
2
*MODEL_SPACE
0
BLOCK_RECORD
5
1B
100
AcDbSymbolTableRecord
100
AcDbBlockTableRecord
2
*PAPER_SPACE
0
ENDTAB
0
ENDSEC
0
SECTION
2
BLOCKS
0
BLOCK
5
20
100
AcDbEntity
100
AcDbBlockBegin
2
*MODEL_SPACE
0
ENDBLK
5
21
100
AcDbEntity
100
AcDbBlockEnd
0
BLOCK
5
1C
100
AcDbEntity
100
AcDbBlockBegin
2
*PAPER_SPACE
0
ENDBLK
5
1D
100
AcDbEntity
100
AcDbBlockEnd
0
ENDSEC
0
SECTION
2
ENTITIES
0
LINE
5
100
100
AcDbEntity
8
0
100
AcDbLine
10
11.200000000000001
20
-6.2000000000000002
30
0
11
-11.200000000000001
21
-6.2000000000000046
31
0
0
LINE
5
101
100
AcDbEntity
8
0
100
AcDbLine
10
-11.200000000000001
20
-6.2000000000000046
30
0
11
-11.200000000000001
21
-2.2204460492503131e-15
31
0
0
LINE
5
102
100
AcDbEntity
8
0
100
AcDbLine
10
-11.200000000000001
20
6.2000000000000002
30
0
11
-11.199999999999999
21
-2.2204460492503131e-15
31
0
0
LINE
5
103
100
AcDbEntity
8
0
100
AcDbLine
10
11.200000000000001
20
6.200000000000002
30
0
11
-11.200000000000001
21
6.2000000000000002
31
0
0
LINE
5
104
100
AcDbEntity
8
0
100
AcDbLine
10
11.199999999999996
20
1.1647410628438778e-15
30
0
11
11.199999999999996
21
12.400000000000004
31
0
0
LINE
5
105
100
AcDbEntity
8
0
100
AcDbLine
10
11.199999999999996
20
1.1647410628438787e-15
30
0
11
11.200000000000001
21
-12.4
31
0
0
LINE
5
106
100
AcDbEntity
8
0
100
AcDbLine
10
-11.200000000000001
20
-1.8958712830604091e-15
30
0
11
11.199999999999996
21
1.1647410628438787e-15
31
0
0
LWPOLYLINE
5
107
100
AcDbEntity
8
0
100
AcDbPolyline
90
4
70
1
43
0.0
10
-16.200000000000003
20
-6.2000000000000046
10
-11.200000000000001
20
-6.2000000000000046
10
-11.200000000000001
20
6.1999999999999975
10
-16.200000000000003
20
6.1999999999999975
0
LINE
5
108
100
AcDbEntity
8
0
100
AcDbLine
10
11.200000000000001
20
-6.2000000000000002
30
0
11
16.200000000000003
21
-6.2000000000000002
31
0
0
LINE
5
109
100
AcDbEntity
8
0
100
AcDbLine
10
16.200000000000003
20
-6.2000000000000002
30
0
11
16.200000000000003
21
6.2000000000000002
31
0
0
LINE
5
110
100
AcDbEntity
8
0
100
AcDbLine
10
16.200000000000003
20
6.2000000000000002
30
0
11
11.200000000000001
21
6.2000000000000002
31
0
0
LINE
5
111
100
AcDbEntity
8
0
100
AcDbLine
10
11.200000000000001
20
6.2000000000000002
30
0
11
11.200000000000001
21
-6.2000000000000002
31
0
0
LINE
5
112
100
AcDbEntity
8
0
100
AcDbLine
10
16.200000000000003
20
0
30
0
11
12.6
21
0
31
0
0
CIRCLE
5
113
100
AcDbEntity
8
0
100
AcDbCircle
10
13.900000000000002
20
0
30
0
40
1.3000000000000003
210
0
220
0
230
1
0
LINE
5
114
100
AcDbEntity
8
0
100
AcDbLine
10
12.6
20
0
30
0
11
13.900000000000002
21
0
31
0
0
LINE
5
115
100
AcDbEntity
8
0
100
AcDbLine
10
16.200000000000003
20
0
30
0
11
-16.200000000000003
21
-3.3306690738754696e-15
31
0
0
LINE
5
116
100
AcDbEntity
8
0
100
AcDbLine
10
0
20
-1.6653345369377348e-15
30
0
11
1.1102230246251565e-15
21
-6.2000000000000028
31
0
0
LINE
5
117
100
AcDbEntity
8
0
100
AcDbLine
10
13.900000000000002
20
0
30
0
11
13.900000000000002
21
-1.2
31
0
0
LINE
5
118
100
AcDbEntity
8
0
100
AcDbLine
10
16.200000000000003
20
-6.2000000000000002
30
0
11
16.200000000000003
21
-0.59999999999999942
31
0
0
LINE
5
119
100
AcDbEntity
8
0
100
AcDbLine
10
16.200000000000003
20
-0.59999999999999942
30
0
11
15.05325625946708
21
-0.59999999999999942
31
0
0
LINE
5
120
100
AcDbEntity
8
0
100
AcDbLine
10
16.200000000000003
20
0.59999999999999942
30
0
11
15.05325625946708
21
0.59999999999999942
31
0
0
LINE
5
121
100
AcDbEntity
8
0
100
AcDbLine
10
16.200000000000003
20
6.2000000000000002
30
0
11
16.200000000000003
21
0.59999999999999942
31
0
0
CIRCLE
5
122
100
AcDbEntity
8
0
100
AcDbCircle
10
-13.900000000000002
20
-4.978096787835379e-15
30
0
40
1.3000000000000003
210
0
220
0
230
1
0
LINE
5
123
100
AcDbEntity
8
0
100
AcDbLine
10
-16.200000000000003
20
0.59999999999999365
30
0
11
-15.05325625946708
21
0.59999999999999398
31
0
0
LINE
5
124
100
AcDbEntity
8
0
100
AcDbLine
10
-16.200000000000003
20
-0.6000000000000052
30
0
11
-15.05325625946708
21
-0.60000000000000486
31
0
0
LINE
5
125
100
AcDbEntity
8
0
100
AcDbLine
10
-16.200000000000003
20
-6.2000000000000055
30
0
11
-16.200000000000003
21
-0.6000000000000052
31
0
0
LINE
5
126
100
AcDbEntity
8
0
100
AcDbLine
10
-16.200000000000003
20
6.199999999999994
30
0
11
-16.200000000000003
21
0.59999999999999365
31
0
0
ENDSEC
0
SECTION
2
OBJECTS
0
DICTIONARY
5
C
100
AcDbDictionary
3
ACAD_GROUP
350
D
3
ACAD_MLINESTYLE
350
17
0
DICTIONARY
5
D
100
AcDbDictionary
0
DICTIONARY
5
1A
330
C
100
AcDbDictionary
0
DICTIONARY
5
17
100
AcDbDictionary
0
ENDSEC
0
EOF
